<svg width="99" height="31" viewBox="0 0 99 31" fill="none" xmlns="http://www.w3.org/2000/svg">
<rect x="0.5" width="98" height="31" rx="5" fill="#0A152F"/>
<path d="M26.8873 19.5093C26.6565 20.0473 26.3714 20.5602 26.0365 21.0402C25.589 21.6793 25.2215 22.121 24.9398 22.3668C24.5023 22.7685 24.0323 22.9752 23.5298 22.9868C23.1698 22.9868 22.7348 22.8843 22.2281 22.676C21.7198 22.4685 21.2531 22.3668 20.8256 22.3668C20.3781 22.3668 19.8981 22.4685 19.384 22.676C18.8706 22.8843 18.4556 22.9935 18.1381 23.0035C17.6573 23.0243 17.1765 22.8127 16.6973 22.3668C16.3915 22.1002 16.009 21.6418 15.5498 20.9935C15.0581 20.3027 14.654 19.4985 14.3373 18.5843C13.9981 17.5952 13.8281 16.6385 13.8281 15.7118C13.8281 14.651 14.0573 13.7352 14.5165 12.9685C14.8637 12.3664 15.3602 11.8639 15.9581 11.5093C16.5477 11.1557 17.2207 10.9653 17.9081 10.9577C18.2915 10.9577 18.794 11.076 19.4165 11.3093C20.039 11.5427 20.439 11.661 20.6131 11.661C20.7448 11.661 21.1873 11.5218 21.9406 11.246C22.6515 10.9902 23.2515 10.8843 23.7431 10.926C25.0765 11.0335 26.0773 11.5585 26.7431 12.5052C25.5515 13.2277 24.9623 14.2385 24.974 15.536C24.984 16.5468 25.3515 17.3877 26.0715 18.0552C26.3898 18.3598 26.7612 18.6035 27.1673 18.7743C27.079 19.0302 26.9856 19.2743 26.8873 19.5093ZM23.8315 7.48352C23.8315 8.27518 23.5415 9.01518 22.9656 9.69935C22.269 10.5127 21.4273 10.9835 20.5148 10.9093C20.5029 10.8098 20.497 10.7096 20.4973 10.6093C20.4973 9.84852 20.8273 9.03518 21.4165 8.36935C21.7098 8.03268 22.0831 7.75185 22.5356 7.52852C22.9873 7.30852 23.414 7.18685 23.8156 7.16602C23.8265 7.27268 23.8315 7.37852 23.8315 7.48352Z" fill="white"/>
<path d="M38.332 7.392C38.6787 7.392 38.9773 7.44267 39.228 7.544C39.484 7.64 39.7373 7.792 39.988 8L39.54 8.464C39.3427 8.304 39.1533 8.18933 38.972 8.12C38.7907 8.05067 38.5773 8.016 38.332 8.016C38.0493 8.016 37.788 8.09333 37.548 8.248C37.3133 8.39733 37.1213 8.64 36.972 8.976C36.8227 9.30667 36.748 9.728 36.748 10.24C36.748 11.0133 36.8733 11.5787 37.124 11.936C37.38 12.2933 37.756 12.472 38.252 12.472C38.6573 12.472 39.0067 12.3893 39.3 12.224V10.56H38.324L38.236 9.944H40.052V12.608C39.4813 12.9333 38.8813 13.096 38.252 13.096C37.5267 13.096 36.9587 12.8533 36.548 12.368C36.1427 11.8827 35.94 11.1733 35.94 10.24C35.94 9.64267 36.0467 9.13067 36.26 8.704C36.4787 8.272 36.7693 7.94667 37.132 7.728C37.5 7.504 37.9 7.392 38.332 7.392ZM44.4909 10.768C44.4909 10.8907 44.4855 11.016 44.4749 11.144H41.7869C41.8189 11.608 41.9362 11.9493 42.1389 12.168C42.3415 12.3867 42.6029 12.496 42.9229 12.496C43.1255 12.496 43.3122 12.4667 43.4829 12.408C43.6535 12.3493 43.8322 12.256 44.0189 12.128L44.3389 12.568C43.8909 12.92 43.4002 13.096 42.8669 13.096C42.2802 13.096 41.8215 12.904 41.4909 12.52C41.1655 12.136 41.0029 11.608 41.0029 10.936C41.0029 10.4987 41.0722 10.112 41.2109 9.776C41.3549 9.43467 41.5575 9.168 41.8189 8.976C42.0855 8.784 42.3975 8.688 42.7549 8.688C43.3149 8.688 43.7442 8.872 44.0429 9.24C44.3415 9.608 44.4909 10.1173 44.4909 10.768ZM43.7629 10.552C43.7629 10.136 43.6802 9.81867 43.5149 9.6C43.3495 9.38133 43.1015 9.272 42.7709 9.272C42.1682 9.272 41.8402 9.71467 41.7869 10.6H43.7629V10.552ZM47.7943 12.808C47.5169 13 47.2023 13.096 46.8503 13.096C46.4929 13.096 46.2129 12.9947 46.0103 12.792C45.8129 12.584 45.7143 12.2853 45.7143 11.896V9.352H44.9783V8.784H45.7143V7.832L46.4503 7.744V8.784H47.4503L47.3703 9.352H46.4503V11.864C46.4503 12.0827 46.4876 12.2427 46.5623 12.344C46.6423 12.44 46.7729 12.488 46.9543 12.488C47.1196 12.488 47.3063 12.432 47.5143 12.32L47.7943 12.808ZM51.4101 8.784V13H50.6741V8.784H51.4101ZM51.0341 6.76C51.1887 6.76 51.3141 6.808 51.4101 6.904C51.5061 7 51.5541 7.12 51.5541 7.264C51.5541 7.408 51.5061 7.528 51.4101 7.624C51.3141 7.71467 51.1887 7.76 51.0341 7.76C50.8847 7.76 50.7621 7.71467 50.6661 7.624C50.5701 7.528 50.5221 7.408 50.5221 7.264C50.5221 7.12 50.5701 7 50.6661 6.904C50.7621 6.808 50.8847 6.76 51.0341 6.76ZM55.0599 12.808C54.7825 13 54.4679 13.096 54.1159 13.096C53.7585 13.096 53.4785 12.9947 53.2759 12.792C53.0785 12.584 52.9799 12.2853 52.9799 11.896V9.352H52.2439V8.784H52.9799V7.832L53.7159 7.744V8.784H54.7159L54.6359 9.352H53.7159V11.864C53.7159 12.0827 53.7532 12.2427 53.8279 12.344C53.9079 12.44 54.0385 12.488 54.2199 12.488C54.3852 12.488 54.5719 12.432 54.7799 12.32L55.0599 12.808ZM59.5237 8.688C60.1157 8.688 60.5744 8.88533 60.8997 9.28C61.2304 9.67467 61.3957 10.2107 61.3957 10.888C61.3957 11.3253 61.321 11.712 61.1717 12.048C61.0224 12.3787 60.8064 12.6373 60.5237 12.824C60.241 13.0053 59.905 13.096 59.5157 13.096C58.9237 13.096 58.4624 12.8987 58.1317 12.504C57.801 12.1093 57.6357 11.5733 57.6357 10.896C57.6357 10.4587 57.7104 10.0747 57.8597 9.744C58.009 9.408 58.225 9.14933 58.5077 8.968C58.7904 8.78133 59.129 8.688 59.5237 8.688ZM59.5237 9.28C58.793 9.28 58.4277 9.81867 58.4277 10.896C58.4277 11.968 58.7904 12.504 59.5157 12.504C60.241 12.504 60.6037 11.9653 60.6037 10.888C60.6037 9.816 60.2437 9.28 59.5237 9.28ZM64.5956 8.688C64.9796 8.688 65.2782 8.80267 65.4916 9.032C65.7102 9.26133 65.8196 9.576 65.8196 9.976V13H65.0836V10.08C65.0836 9.78133 65.0276 9.57067 64.9156 9.448C64.8036 9.32533 64.6382 9.264 64.4196 9.264C64.1956 9.264 63.9982 9.328 63.8276 9.456C63.6569 9.584 63.4969 9.768 63.3476 10.008V13H62.6116V8.784H63.2436L63.3076 9.408C63.4569 9.184 63.6409 9.008 63.8596 8.88C64.0836 8.752 64.3289 8.688 64.5956 8.688Z" fill="white"/>
<path d="M39.451 24L39.1 22.605H37.147L36.796 24H35.419L37.336 17.772H38.947L40.855 24H39.451ZM37.399 21.624H38.848L38.119 18.753L37.399 21.624ZM43.9774 19.086C44.5774 19.086 45.0214 19.308 45.3094 19.752C45.6034 20.19 45.7504 20.808 45.7504 21.606C45.7504 22.092 45.6754 22.527 45.5254 22.911C45.3754 23.295 45.1564 23.598 44.8684 23.82C44.5864 24.036 44.2504 24.144 43.8604 24.144C43.3744 24.144 42.9814 23.973 42.6814 23.631V25.836L41.4034 25.98V19.23H42.5284L42.5914 19.788C42.7714 19.554 42.9814 19.38 43.2214 19.266C43.4674 19.146 43.7194 19.086 43.9774 19.086ZM43.4824 23.19C44.1064 23.19 44.4184 22.665 44.4184 21.615C44.4184 21.039 44.3494 20.631 44.2114 20.391C44.0734 20.151 43.8634 20.031 43.5814 20.031C43.4014 20.031 43.2334 20.088 43.0774 20.202C42.9274 20.31 42.7954 20.457 42.6814 20.643V22.722C42.8854 23.034 43.1524 23.19 43.4824 23.19ZM49.3388 19.086C49.9388 19.086 50.3828 19.308 50.6708 19.752C50.9648 20.19 51.1118 20.808 51.1118 21.606C51.1118 22.092 51.0368 22.527 50.8868 22.911C50.7368 23.295 50.5178 23.598 50.2298 23.82C49.9478 24.036 49.6118 24.144 49.2218 24.144C48.7358 24.144 48.3428 23.973 48.0428 23.631V25.836L46.7648 25.98V19.23H47.8898L47.9528 19.788C48.1328 19.554 48.3428 19.38 48.5828 19.266C48.8288 19.146 49.0808 19.086 49.3388 19.086ZM48.8438 23.19C49.4678 23.19 49.7798 22.665 49.7798 21.615C49.7798 21.039 49.7108 20.631 49.5728 20.391C49.4348 20.151 49.2248 20.031 48.9428 20.031C48.7628 20.031 48.5948 20.088 48.4388 20.202C48.2888 20.31 48.1568 20.457 48.0428 20.643V22.722C48.2468 23.034 48.5138 23.19 48.8438 23.19ZM56.2494 17.628C56.6994 17.628 57.0894 17.694 57.4194 17.826C57.7554 17.952 58.0644 18.147 58.3464 18.411L57.7164 19.14C57.4944 18.96 57.2724 18.828 57.0504 18.744C56.8284 18.66 56.5914 18.618 56.3394 18.618C56.0634 18.618 55.8414 18.678 55.6734 18.798C55.5114 18.912 55.4304 19.077 55.4304 19.293C55.4304 19.443 55.4634 19.566 55.5294 19.662C55.6014 19.758 55.7244 19.848 55.8984 19.932C56.0724 20.016 56.3334 20.112 56.6814 20.22C57.2994 20.418 57.7614 20.664 58.0674 20.958C58.3734 21.246 58.5264 21.66 58.5264 22.2C58.5264 22.584 58.4304 22.923 58.2384 23.217C58.0464 23.505 57.7674 23.733 57.4014 23.901C57.0354 24.063 56.6064 24.144 56.1144 24.144C55.6224 24.144 55.1844 24.066 54.8004 23.91C54.4164 23.754 54.0864 23.541 53.8104 23.271L54.4854 22.524C54.7254 22.728 54.9744 22.884 55.2324 22.992C55.4904 23.094 55.7724 23.145 56.0784 23.145C56.4024 23.145 56.6604 23.07 56.8524 22.92C57.0504 22.77 57.1494 22.56 57.1494 22.29C57.1494 22.122 57.1134 21.984 57.0414 21.876C56.9754 21.762 56.8584 21.66 56.6904 21.57C56.5224 21.48 56.2794 21.387 55.9614 21.291C55.2834 21.081 54.7974 20.829 54.5034 20.535C54.2154 20.241 54.0714 19.857 54.0714 19.383C54.0714 19.035 54.1644 18.729 54.3504 18.465C54.5364 18.195 54.7944 17.988 55.1244 17.844C55.4544 17.7 55.8294 17.628 56.2494 17.628ZM62.2652 23.775C62.0912 23.895 61.8932 23.985 61.6712 24.045C61.4552 24.111 61.2392 24.144 61.0232 24.144C60.5312 24.138 60.1592 23.997 59.9072 23.721C59.6552 23.445 59.5292 23.04 59.5292 22.506V20.13H58.8182V19.23H59.5292V18.186L60.8072 18.033V19.23H61.9052L61.7792 20.13H60.8072V22.479C60.8072 22.707 60.8462 22.872 60.9242 22.974C61.0022 23.076 61.1222 23.127 61.2842 23.127C61.4462 23.127 61.6262 23.073 61.8242 22.965L62.2652 23.775ZM64.6888 19.086C65.4028 19.086 65.9608 19.311 66.3628 19.761C66.7648 20.205 66.9658 20.823 66.9658 21.615C66.9658 22.119 66.8728 22.563 66.6868 22.947C66.5068 23.325 66.2428 23.619 65.8948 23.829C65.5528 24.039 65.1478 24.144 64.6798 24.144C63.9658 24.144 63.4048 23.922 62.9968 23.478C62.5948 23.028 62.3938 22.407 62.3938 21.615C62.3938 21.111 62.4838 20.67 62.6638 20.292C62.8498 19.908 63.1138 19.611 63.4558 19.401C63.8038 19.191 64.2148 19.086 64.6888 19.086ZM64.6888 20.04C64.3648 20.04 64.1218 20.169 63.9598 20.427C63.8038 20.679 63.7258 21.075 63.7258 21.615C63.7258 22.155 63.8038 22.554 63.9598 22.812C64.1218 23.064 64.3618 23.19 64.6798 23.19C64.9978 23.19 65.2348 23.064 65.3908 22.812C65.5528 22.554 65.6338 22.155 65.6338 21.615C65.6338 21.075 65.5558 20.679 65.3998 20.427C65.2438 20.169 65.0068 20.04 64.6888 20.04ZM70.4036 19.095C70.5476 19.095 70.7066 19.119 70.8806 19.167L70.6646 20.4C70.4966 20.358 70.3556 20.337 70.2416 20.337C69.9596 20.337 69.7406 20.436 69.5846 20.634C69.4286 20.832 69.3056 21.132 69.2156 21.534V24H67.9376V19.23H69.0446L69.1616 20.157C69.2756 19.821 69.4406 19.56 69.6566 19.374C69.8786 19.188 70.1276 19.095 70.4036 19.095ZM75.2743 21.507C75.2743 21.567 75.2653 21.732 75.2473 22.002H72.2683C72.3103 22.434 72.4273 22.74 72.6193 22.92C72.8113 23.1 73.0723 23.19 73.4023 23.19C73.6063 23.19 73.7983 23.157 73.9783 23.091C74.1583 23.025 74.3533 22.92 74.5633 22.776L75.0943 23.496C74.5603 23.928 73.9573 24.144 73.2853 24.144C72.5353 24.144 71.9593 23.919 71.5573 23.469C71.1553 23.019 70.9543 22.41 70.9543 21.642C70.9543 21.156 71.0383 20.721 71.2063 20.337C71.3803 19.947 71.6293 19.641 71.9533 19.419C72.2833 19.197 72.6733 19.086 73.1233 19.086C73.8013 19.086 74.3293 19.299 74.7073 19.725C75.0853 20.151 75.2743 20.745 75.2743 21.507ZM74.0053 21.147C74.0053 20.355 73.7203 19.959 73.1503 19.959C72.8863 19.959 72.6793 20.058 72.5293 20.256C72.3853 20.448 72.2983 20.763 72.2683 21.201H74.0053V21.147Z" fill="white"/>
</svg>
