<svg width="98" height="32" viewBox="0 0 98 32" fill="none" xmlns="http://www.w3.org/2000/svg">
<rect y="0.895508" width="98" height="31" rx="5" fill="#201F1D"/>
<path d="M26.3873 20.4049C26.1565 20.9428 25.8714 21.4557 25.5365 21.9357C25.089 22.5749 24.7215 23.0165 24.4398 23.2624C24.0023 23.664 23.5323 23.8707 23.0298 23.8824C22.6698 23.8824 22.2348 23.7799 21.7281 23.5715C21.2198 23.364 20.7531 23.2624 20.3256 23.2624C19.8781 23.2624 19.3981 23.364 18.884 23.5715C18.3706 23.7799 17.9556 23.889 17.6381 23.899C17.1573 23.9199 16.6765 23.7082 16.1973 23.2624C15.8915 22.9957 15.509 22.5374 15.0498 21.889C14.5581 21.1982 14.154 20.394 13.8373 19.4799C13.4981 18.4907 13.3281 17.534 13.3281 16.6074C13.3281 15.5465 13.5573 14.6307 14.0165 13.864C14.3637 13.2619 14.8602 12.7594 15.4581 12.4049C16.0477 12.0512 16.7207 11.8608 17.4081 11.8532C17.7915 11.8532 18.294 11.9715 18.9165 12.2049C19.539 12.4382 19.939 12.5565 20.1131 12.5565C20.2448 12.5565 20.6873 12.4174 21.4406 12.1415C22.1515 11.8857 22.7515 11.7799 23.2431 11.8215C24.5765 11.929 25.5773 12.454 26.2431 13.4007C25.0515 14.1232 24.4623 15.134 24.474 16.4315C24.484 17.4424 24.8515 18.2832 25.5715 18.9507C25.8898 19.2553 26.2612 19.499 26.6673 19.6699C26.579 19.9257 26.4856 20.1699 26.3873 20.4049ZM23.3315 8.37902C23.3315 9.17069 23.0415 9.91069 22.4656 10.5949C21.769 11.4082 20.9273 11.879 20.0148 11.8049C20.0029 11.7053 19.997 11.6051 19.9973 11.5049C19.9973 10.744 20.3273 9.93069 20.9165 9.26486C21.2098 8.92819 21.5831 8.64736 22.0356 8.42402C22.4873 8.20402 22.914 8.08236 23.3156 8.06152C23.3265 8.16819 23.3315 8.27402 23.3315 8.37902Z" fill="white"/>
<path d="M37.832 8.28751C38.1787 8.28751 38.4773 8.33817 38.728 8.43951C38.984 8.53551 39.2373 8.68751 39.488 8.89551L39.04 9.35951C38.8427 9.19951 38.6533 9.08484 38.472 9.01551C38.2907 8.94617 38.0773 8.91151 37.832 8.91151C37.5493 8.91151 37.288 8.98884 37.048 9.14351C36.8133 9.29284 36.6213 9.53551 36.472 9.87151C36.3227 10.2022 36.248 10.6235 36.248 11.1355C36.248 11.9088 36.3733 12.4742 36.624 12.8315C36.88 13.1888 37.256 13.3675 37.752 13.3675C38.1573 13.3675 38.5067 13.2848 38.8 13.1195V11.4555H37.824L37.736 10.8395H39.552V13.5035C38.9813 13.8288 38.3813 13.9915 37.752 13.9915C37.0267 13.9915 36.4587 13.7488 36.048 13.2635C35.6427 12.7782 35.44 12.0688 35.44 11.1355C35.44 10.5382 35.5467 10.0262 35.76 9.59951C35.9787 9.16751 36.2693 8.84217 36.632 8.62351C37 8.39951 37.4 8.28751 37.832 8.28751ZM43.9909 11.6635C43.9909 11.7862 43.9855 11.9115 43.9749 12.0395H41.2869C41.3189 12.5035 41.4362 12.8448 41.6389 13.0635C41.8415 13.2822 42.1029 13.3915 42.4229 13.3915C42.6255 13.3915 42.8122 13.3622 42.9829 13.3035C43.1535 13.2448 43.3322 13.1515 43.5189 13.0235L43.8389 13.4635C43.3909 13.8155 42.9002 13.9915 42.3669 13.9915C41.7802 13.9915 41.3215 13.7995 40.9909 13.4155C40.6655 13.0315 40.5029 12.5035 40.5029 11.8315C40.5029 11.3942 40.5722 11.0075 40.7109 10.6715C40.8549 10.3302 41.0575 10.0635 41.3189 9.87151C41.5855 9.67951 41.8975 9.58351 42.2549 9.58351C42.8149 9.58351 43.2442 9.76751 43.5429 10.1355C43.8415 10.5035 43.9909 11.0128 43.9909 11.6635ZM43.2629 11.4475C43.2629 11.0315 43.1802 10.7142 43.0149 10.4955C42.8495 10.2768 42.6015 10.1675 42.2709 10.1675C41.6682 10.1675 41.3402 10.6102 41.2869 11.4955H43.2629V11.4475ZM47.2943 13.7035C47.0169 13.8955 46.7023 13.9915 46.3503 13.9915C45.9929 13.9915 45.7129 13.8902 45.5103 13.6875C45.3129 13.4795 45.2143 13.1808 45.2143 12.7915V10.2475H44.4783V9.67951H45.2143V8.72751L45.9503 8.63951V9.67951H46.9503L46.8703 10.2475H45.9503V12.7595C45.9503 12.9782 45.9876 13.1382 46.0623 13.2395C46.1423 13.3355 46.2729 13.3835 46.4543 13.3835C46.6196 13.3835 46.8063 13.3275 47.0143 13.2155L47.2943 13.7035ZM50.9101 9.67951V13.8955H50.1741V9.67951H50.9101ZM50.5341 7.65551C50.6887 7.65551 50.8141 7.70351 50.9101 7.79951C51.0061 7.89551 51.0541 8.01551 51.0541 8.15951C51.0541 8.30351 51.0061 8.42351 50.9101 8.51951C50.8141 8.61017 50.6887 8.65551 50.5341 8.65551C50.3847 8.65551 50.2621 8.61017 50.1661 8.51951C50.0701 8.42351 50.0221 8.30351 50.0221 8.15951C50.0221 8.01551 50.0701 7.89551 50.1661 7.79951C50.2621 7.70351 50.3847 7.65551 50.5341 7.65551ZM54.5599 13.7035C54.2825 13.8955 53.9679 13.9915 53.6159 13.9915C53.2585 13.9915 52.9785 13.8902 52.7759 13.6875C52.5785 13.4795 52.4799 13.1808 52.4799 12.7915V10.2475H51.7439V9.67951H52.4799V8.72751L53.2159 8.63951V9.67951H54.2159L54.1359 10.2475H53.2159V12.7595C53.2159 12.9782 53.2532 13.1382 53.3279 13.2395C53.4079 13.3355 53.5385 13.3835 53.7199 13.3835C53.8852 13.3835 54.0719 13.3275 54.2799 13.2155L54.5599 13.7035ZM59.0237 9.58351C59.6157 9.58351 60.0744 9.78084 60.3997 10.1755C60.7304 10.5702 60.8957 11.1062 60.8957 11.7835C60.8957 12.2208 60.821 12.6075 60.6717 12.9435C60.5224 13.2742 60.3064 13.5328 60.0237 13.7195C59.741 13.9008 59.405 13.9915 59.0157 13.9915C58.4237 13.9915 57.9624 13.7942 57.6317 13.3995C57.301 13.0048 57.1357 12.4688 57.1357 11.7915C57.1357 11.3542 57.2104 10.9702 57.3597 10.6395C57.509 10.3035 57.725 10.0448 58.0077 9.86351C58.2904 9.67684 58.629 9.58351 59.0237 9.58351ZM59.0237 10.1755C58.293 10.1755 57.9277 10.7142 57.9277 11.7915C57.9277 12.8635 58.2904 13.3995 59.0157 13.3995C59.741 13.3995 60.1037 12.8608 60.1037 11.7835C60.1037 10.7115 59.7437 10.1755 59.0237 10.1755ZM64.0956 9.58351C64.4796 9.58351 64.7782 9.69817 64.9916 9.92751C65.2102 10.1568 65.3196 10.4715 65.3196 10.8715V13.8955H64.5836V10.9755C64.5836 10.6768 64.5276 10.4662 64.4156 10.3435C64.3036 10.2208 64.1382 10.1595 63.9196 10.1595C63.6956 10.1595 63.4982 10.2235 63.3276 10.3515C63.1569 10.4795 62.9969 10.6635 62.8476 10.9035V13.8955H62.1116V9.67951H62.7436L62.8076 10.3035C62.9569 10.0795 63.1409 9.90351 63.3596 9.77551C63.5836 9.64751 63.8289 9.58351 64.0956 9.58351Z" fill="white"/>
<path d="M38.951 24.8955L38.6 23.5005H36.647L36.296 24.8955H34.919L36.836 18.6675H38.447L40.355 24.8955H38.951ZM36.899 22.5195H38.348L37.619 19.6485L36.899 22.5195ZM43.4774 19.9815C44.0774 19.9815 44.5214 20.2035 44.8094 20.6475C45.1034 21.0855 45.2504 21.7035 45.2504 22.5015C45.2504 22.9875 45.1754 23.4225 45.0254 23.8065C44.8754 24.1905 44.6564 24.4935 44.3684 24.7155C44.0864 24.9315 43.7504 25.0395 43.3604 25.0395C42.8744 25.0395 42.4814 24.8685 42.1814 24.5265V26.7315L40.9034 26.8755V20.1255H42.0284L42.0914 20.6835C42.2714 20.4495 42.4814 20.2755 42.7214 20.1615C42.9674 20.0415 43.2194 19.9815 43.4774 19.9815ZM42.9824 24.0855C43.6064 24.0855 43.9184 23.5605 43.9184 22.5105C43.9184 21.9345 43.8494 21.5265 43.7114 21.2865C43.5734 21.0465 43.3634 20.9265 43.0814 20.9265C42.9014 20.9265 42.7334 20.9835 42.5774 21.0975C42.4274 21.2055 42.2954 21.3525 42.1814 21.5385V23.6175C42.3854 23.9295 42.6524 24.0855 42.9824 24.0855ZM48.8388 19.9815C49.4388 19.9815 49.8828 20.2035 50.1708 20.6475C50.4648 21.0855 50.6118 21.7035 50.6118 22.5015C50.6118 22.9875 50.5368 23.4225 50.3868 23.8065C50.2368 24.1905 50.0178 24.4935 49.7298 24.7155C49.4478 24.9315 49.1118 25.0395 48.7218 25.0395C48.2358 25.0395 47.8428 24.8685 47.5428 24.5265V26.7315L46.2648 26.8755V20.1255H47.3898L47.4528 20.6835C47.6328 20.4495 47.8428 20.2755 48.0828 20.1615C48.3288 20.0415 48.5808 19.9815 48.8388 19.9815ZM48.3438 24.0855C48.9678 24.0855 49.2798 23.5605 49.2798 22.5105C49.2798 21.9345 49.2108 21.5265 49.0728 21.2865C48.9348 21.0465 48.7248 20.9265 48.4428 20.9265C48.2628 20.9265 48.0948 20.9835 47.9388 21.0975C47.7888 21.2055 47.6568 21.3525 47.5428 21.5385V23.6175C47.7468 23.9295 48.0138 24.0855 48.3438 24.0855ZM55.7494 18.5235C56.1994 18.5235 56.5894 18.5895 56.9194 18.7215C57.2554 18.8475 57.5644 19.0425 57.8464 19.3065L57.2164 20.0355C56.9944 19.8555 56.7724 19.7235 56.5504 19.6395C56.3284 19.5555 56.0914 19.5135 55.8394 19.5135C55.5634 19.5135 55.3414 19.5735 55.1734 19.6935C55.0114 19.8075 54.9304 19.9725 54.9304 20.1885C54.9304 20.3385 54.9634 20.4615 55.0294 20.5575C55.1014 20.6535 55.2244 20.7435 55.3984 20.8275C55.5724 20.9115 55.8334 21.0075 56.1814 21.1155C56.7994 21.3135 57.2614 21.5595 57.5674 21.8535C57.8734 22.1415 58.0264 22.5555 58.0264 23.0955C58.0264 23.4795 57.9304 23.8185 57.7384 24.1125C57.5464 24.4005 57.2674 24.6285 56.9014 24.7965C56.5354 24.9585 56.1064 25.0395 55.6144 25.0395C55.1224 25.0395 54.6844 24.9615 54.3004 24.8055C53.9164 24.6495 53.5864 24.4365 53.3104 24.1665L53.9854 23.4195C54.2254 23.6235 54.4744 23.7795 54.7324 23.8875C54.9904 23.9895 55.2724 24.0405 55.5784 24.0405C55.9024 24.0405 56.1604 23.9655 56.3524 23.8155C56.5504 23.6655 56.6494 23.4555 56.6494 23.1855C56.6494 23.0175 56.6134 22.8795 56.5414 22.7715C56.4754 22.6575 56.3584 22.5555 56.1904 22.4655C56.0224 22.3755 55.7794 22.2825 55.4614 22.1865C54.7834 21.9765 54.2974 21.7245 54.0034 21.4305C53.7154 21.1365 53.5714 20.7525 53.5714 20.2785C53.5714 19.9305 53.6644 19.6245 53.8504 19.3605C54.0364 19.0905 54.2944 18.8835 54.6244 18.7395C54.9544 18.5955 55.3294 18.5235 55.7494 18.5235ZM61.7652 24.6705C61.5912 24.7905 61.3932 24.8805 61.1712 24.9405C60.9552 25.0065 60.7392 25.0395 60.5232 25.0395C60.0312 25.0335 59.6592 24.8925 59.4072 24.6165C59.1552 24.3405 59.0292 23.9355 59.0292 23.4015V21.0255H58.3182V20.1255H59.0292V19.0815L60.3072 18.9285V20.1255H61.4052L61.2792 21.0255H60.3072V23.3745C60.3072 23.6025 60.3462 23.7675 60.4242 23.8695C60.5022 23.9715 60.6222 24.0225 60.7842 24.0225C60.9462 24.0225 61.1262 23.9685 61.3242 23.8605L61.7652 24.6705ZM64.1888 19.9815C64.9028 19.9815 65.4608 20.2065 65.8628 20.6565C66.2648 21.1005 66.4658 21.7185 66.4658 22.5105C66.4658 23.0145 66.3728 23.4585 66.1868 23.8425C66.0068 24.2205 65.7428 24.5145 65.3948 24.7245C65.0528 24.9345 64.6478 25.0395 64.1798 25.0395C63.4658 25.0395 62.9048 24.8175 62.4968 24.3735C62.0948 23.9235 61.8938 23.3025 61.8938 22.5105C61.8938 22.0065 61.9838 21.5655 62.1638 21.1875C62.3498 20.8035 62.6138 20.5065 62.9558 20.2965C63.3038 20.0865 63.7148 19.9815 64.1888 19.9815ZM64.1888 20.9355C63.8648 20.9355 63.6218 21.0645 63.4598 21.3225C63.3038 21.5745 63.2258 21.9705 63.2258 22.5105C63.2258 23.0505 63.3038 23.4495 63.4598 23.7075C63.6218 23.9595 63.8618 24.0855 64.1798 24.0855C64.4978 24.0855 64.7348 23.9595 64.8908 23.7075C65.0528 23.4495 65.1338 23.0505 65.1338 22.5105C65.1338 21.9705 65.0558 21.5745 64.8998 21.3225C64.7438 21.0645 64.5068 20.9355 64.1888 20.9355ZM69.9036 19.9905C70.0476 19.9905 70.2066 20.0145 70.3806 20.0625L70.1646 21.2955C69.9966 21.2535 69.8556 21.2325 69.7416 21.2325C69.4596 21.2325 69.2406 21.3315 69.0846 21.5295C68.9286 21.7275 68.8056 22.0275 68.7156 22.4295V24.8955H67.4376V20.1255H68.5446L68.6616 21.0525C68.7756 20.7165 68.9406 20.4555 69.1566 20.2695C69.3786 20.0835 69.6276 19.9905 69.9036 19.9905ZM74.7743 22.4025C74.7743 22.4625 74.7653 22.6275 74.7473 22.8975H71.7683C71.8103 23.3295 71.9273 23.6355 72.1193 23.8155C72.3113 23.9955 72.5723 24.0855 72.9023 24.0855C73.1063 24.0855 73.2983 24.0525 73.4783 23.9865C73.6583 23.9205 73.8533 23.8155 74.0633 23.6715L74.5943 24.3915C74.0603 24.8235 73.4573 25.0395 72.7853 25.0395C72.0353 25.0395 71.4593 24.8145 71.0573 24.3645C70.6553 23.9145 70.4543 23.3055 70.4543 22.5375C70.4543 22.0515 70.5383 21.6165 70.7063 21.2325C70.8803 20.8425 71.1293 20.5365 71.4533 20.3145C71.7833 20.0925 72.1733 19.9815 72.6233 19.9815C73.3013 19.9815 73.8293 20.1945 74.2073 20.6205C74.5853 21.0465 74.7743 21.6405 74.7743 22.4025ZM73.5053 22.0425C73.5053 21.2505 73.2203 20.8545 72.6503 20.8545C72.3863 20.8545 72.1793 20.9535 72.0293 21.1515C71.8853 21.3435 71.7983 21.6585 71.7683 22.0965H73.5053V22.0425Z" fill="white"/>
</svg>
