<svg width="61" height="41" viewBox="0 0 61 41" fill="none" xmlns="http://www.w3.org/2000/svg">
<path d="M2.00858 33.4708C1.49295 33.6348 0.907014 33.9747 0.578889 34.2794C0.145295 34.6778 0.110139 35.4864 0.508576 35.7559C0.895295 36.0372 1.41092 35.9786 1.93826 35.6153C2.54764 35.1934 3.35623 35.17 3.84842 35.5684C5.68826 37.0567 7.42264 37.127 9.00467 35.7911C9.8953 35.0528 10.5164 35.0763 11.5476 35.8848C12.3914 36.5294 12.8719 36.7052 13.9031 36.6934C14.8523 36.6934 15.5086 36.4356 16.2703 35.7911C17.1609 35.0528 17.782 35.0763 18.8133 35.8848C19.657 36.5294 20.1375 36.7052 21.1687 36.6934C22.118 36.6817 22.6453 36.4942 23.5008 35.838C24.5203 35.0645 25.0008 35.0645 26.032 35.838C26.9578 36.5294 27.368 36.6817 28.3758 36.6934C29.3953 36.6934 30.0867 36.4356 30.8601 35.7677C31.364 35.3458 31.9265 35.17 32.3836 35.2872C32.5359 35.3223 32.9344 35.5684 33.2859 35.8263C34.2 36.5177 34.6336 36.67 35.6414 36.6817C36.6609 36.6934 37.3406 36.4473 38.1258 35.7677C38.6297 35.3458 39.1922 35.17 39.6609 35.2872C39.8015 35.3223 40.2117 35.5684 40.5633 35.8263C41.5008 36.5294 41.8992 36.6817 42.907 36.6934C43.8797 36.7052 44.5008 36.4708 45.6492 35.6505C46.0125 35.3809 46.3523 35.2403 46.5984 35.2403C46.8445 35.2403 47.1844 35.3809 47.5476 35.6505C48.6375 36.4239 49.3289 36.6934 50.2312 36.6934C51.1336 36.6934 51.825 36.4239 52.9148 35.6505C53.6531 35.1114 54.075 35.1114 54.8133 35.6505C55.1297 35.8731 55.6805 36.2013 56.032 36.377C57.2508 36.9864 58.9031 36.7286 59.8758 35.8028C60.4734 35.2169 60.368 34.4434 59.6531 34.1973C59.2781 34.0684 59.1726 34.0919 58.1062 34.6778C57.5086 34.9942 57.0515 34.9005 56.2078 34.2442C54.7195 33.0841 53.0086 33.0841 51.5203 34.2442C50.4422 35.0763 49.9969 35.0645 48.825 34.1739C47.3719 33.0841 45.7195 33.1075 44.2547 34.2442C43.1765 35.0763 42.6961 35.0645 41.5359 34.1622C40.1883 33.1309 38.3953 33.1075 37.1414 34.127C36.0047 35.0528 35.4773 35.0763 34.3523 34.2325C32.8289 33.0841 31.2351 33.0841 29.7 34.2325C28.5984 35.0645 28.1648 35.0645 27.0398 34.1973C25.6453 33.1309 23.9226 33.1075 22.5867 34.127C21.4031 35.0294 20.9344 35.0645 20.0086 34.3614C19.2 33.752 18.5555 33.4591 17.8289 33.4005C16.9734 33.3184 16.0125 33.5997 15.3211 34.1153C14.1375 35.0294 13.6687 35.0645 12.743 34.3614C11.1258 33.1309 9.4617 33.0489 8.04373 34.1388C7.14139 34.8302 6.77811 34.9473 6.22733 34.7833C5.96951 34.713 5.5828 34.4903 5.37186 34.3145C4.70389 33.7286 4.01248 33.4473 3.12186 33.4122C2.67655 33.3888 2.17264 33.4122 2.00858 33.4708Z" fill="#DBDBDB"/>
<path d="M11.4512 4.31133C11.1465 4.5457 11.1465 4.56914 11.1465 6.11602V7.67461L10.4317 7.72149C9.85748 7.76836 9.65826 7.82695 9.4942 8.03789C9.1778 8.42461 9.21295 8.94024 9.56451 9.28008C9.79889 9.52617 9.96295 9.57305 10.502 9.57305H11.1465V10.7449V11.9168L9.48248 15.2566L7.81842 18.5848L4.27936 18.6199C0.98639 18.6551 0.728577 18.6668 0.494202 18.8777C0.33014 19.0301 0.248108 19.241 0.248108 19.5223C0.248108 19.7566 0.962952 22.077 1.83014 24.6902C2.69733 27.3035 3.41217 29.4363 3.41217 29.448C3.41217 29.4598 2.8028 29.4832 2.06451 29.5184C0.470765 29.577 0.248108 29.6941 0.248108 30.491C0.248108 31.4402 -0.736267 31.3699 12.002 31.3699H23.3223L23.5567 31.0652C23.8848 30.6551 23.8614 30.2801 23.5215 29.8816L23.2403 29.5535L14.334 29.5184L5.4278 29.4949L5.13483 28.616L4.83014 27.7371H25.0919H45.3536L45.588 27.4324C45.7286 27.2566 45.834 27.0223 45.834 26.9051C45.834 26.5887 45.5997 26.1199 45.377 26.0145C45.2715 25.9676 35.9669 25.8973 24.6934 25.8621L4.19733 25.8035L3.33014 23.2254C2.86139 21.8074 2.47467 20.6121 2.47467 20.5652C2.47467 20.5066 5.49811 20.4715 9.20123 20.4715C16.6778 20.4715 16.338 20.5066 16.4903 19.6863C16.5489 19.3699 16.502 19.2527 16.209 18.948L15.8575 18.5965H12.9161H9.97467L11.3223 15.9012L12.67 13.2059H21.2598H29.8497L30.7051 14.073L31.5606 14.9402L30.6583 14.9871C29.8848 15.0223 29.7208 15.0691 29.5333 15.3035C29.2286 15.6785 29.2403 16.2645 29.5801 16.5809C29.838 16.827 29.9669 16.8387 31.6661 16.8387H33.4825L34.3497 17.7176L35.2169 18.5965H27.1778H19.127L18.8106 18.8777C18.3887 19.2293 18.3653 19.9441 18.7637 20.2605C19.0098 20.4598 19.9708 20.4715 38.2872 20.4715H57.5528L55.7715 23.1551L53.9786 25.8504L51.1544 25.8855C48.5645 25.9207 48.295 25.9441 48.0723 26.1434C47.7442 26.448 47.7325 27.1746 48.0606 27.5027C48.2833 27.7254 48.4473 27.7371 50.463 27.7371C51.6583 27.7371 52.6309 27.7605 52.6309 27.7957C52.6309 27.8309 52.3848 28.2293 52.0919 28.6746L51.5411 29.4949L38.92 29.5184C26.6856 29.5535 26.2755 29.5652 26.0411 29.7762C25.713 30.0809 25.7012 30.8074 26.0294 31.1355C26.2637 31.3699 26.4161 31.3699 42.9981 31.3699H59.7442L59.9903 31.1004C60.2598 30.8074 60.3184 30.327 60.1309 29.9637C59.92 29.5652 59.3575 29.4949 56.6036 29.4949C55.127 29.4949 53.92 29.4715 53.92 29.4363C53.92 29.4012 55.3497 27.2332 57.0958 24.6082L60.2715 19.8387L60.2247 18.948C60.1075 17.0262 58.6544 15.4676 56.627 15.0809C55.7247 14.9168 43.127 14.9168 42.752 15.0926C42.3067 15.2918 42.2012 15.6785 42.2012 17.1902V18.5965H40.0567H37.9239L34.4669 15.1277C32.5684 13.2293 30.8692 11.5887 30.6934 11.4949C30.4356 11.366 29.7325 11.3309 27.1544 11.3309H23.9434L23.8965 9.7957C23.8614 8.28399 23.8614 8.26055 23.5333 7.9793C23.2286 7.70977 23.1231 7.69805 21.7403 7.69805H20.2872V6.2918C20.2872 4.78008 20.1817 4.39336 19.7364 4.19414C19.5489 4.11211 18.1778 4.06524 15.6114 4.06524C11.8965 4.06524 11.7559 4.07695 11.4512 4.31133ZM14.7794 6.81914V7.69805H13.9005H13.0215V6.81914V5.94024H13.9005H14.7794V6.81914ZM18.4122 6.81914V7.69805H17.5333H16.6544V6.81914V5.94024H17.5333H18.4122V6.81914ZM22.045 10.452V11.3309H17.5333H13.0215V10.452V9.57305H17.5333H22.045V10.452ZM45.834 17.7176V18.5965H44.9551H44.0762V17.7176V16.8387H44.9551H45.834V17.7176ZM49.4669 17.7176V18.5965H48.588H47.709V17.7176V16.8387H48.588H49.4669V17.7176ZM53.0997 17.7176V18.5965H52.2208H51.3419V17.7176V16.8387H52.2208H53.0997V17.7176ZM56.3575 16.9793C56.7442 17.073 57.0723 17.284 57.5176 17.7176C57.8575 18.0457 58.1387 18.3855 58.1387 18.4559C58.1387 18.5613 57.7051 18.5965 56.5567 18.5965H54.9747V17.7176V16.8387H55.3965C55.6192 16.8387 56.0528 16.8973 56.3575 16.9793Z" fill="#DBDBDB"/>
<path d="M15.3675 13.7977C14.7581 14.0693 14.5589 15.1414 15.0159 15.699C15.2385 15.9706 15.4026 15.9849 17.465 15.9849C19.9259 15.9849 20.1017 15.9277 20.2423 15.0271C20.3009 14.6411 20.254 14.4981 19.9611 14.1265L19.6095 13.6976L17.5705 13.7119C16.4573 13.7119 15.4612 13.7548 15.3675 13.7977Z" fill="#FFA633"/>
<path d="M6.05886 22.8416C5.4495 23.1132 5.25029 24.1854 5.70731 24.7429C5.92995 25.0145 6.09401 25.0288 8.15644 25.0288C10.6173 25.0288 10.7931 24.9716 10.9337 24.071C10.9923 23.685 10.9454 23.5421 10.6525 23.1704L10.3009 22.7415L8.26191 22.7558C7.14867 22.7558 6.1526 22.7987 6.05886 22.8416Z" fill="#FFA633"/>
<path d="M39.3303 22.6312C38.721 22.9028 38.5218 23.9749 38.9788 24.5325C39.2014 24.8041 39.3655 24.8184 41.4279 24.8184C43.8888 24.8184 44.0646 24.7612 44.2052 23.8606C44.2638 23.4746 44.2169 23.3316 43.9239 22.96L43.5724 22.5311L41.5334 22.5454C40.4201 22.5454 39.4241 22.5883 39.3303 22.6312Z" fill="#127384"/>
<path d="M22.5507 13.8406C22.0234 14.0979 21.8711 15.1986 22.2812 15.699C22.5039 15.9706 22.6679 15.9849 24.7186 15.9849C26.4647 15.9849 26.9686 15.942 27.1678 15.7704C27.6834 15.3273 27.6013 14.1836 27.0154 13.8548C26.6639 13.669 22.9374 13.6547 22.5507 13.8406Z" fill="#FFA633"/>
<path d="M13.2421 22.8845C12.7148 23.1418 12.5625 24.2426 12.9726 24.7429C13.1953 25.0145 13.3593 25.0288 15.41 25.0288C17.1561 25.0288 17.66 24.9859 17.8592 24.8144C18.3748 24.3712 18.2927 23.2276 17.7068 22.8988C17.3553 22.713 13.6288 22.6987 13.2421 22.8845Z" fill="#127384"/>
<path d="M46.5136 22.674C45.9863 22.9314 45.834 24.0321 46.2441 24.5325C46.4667 24.8041 46.6308 24.8184 48.6815 24.8184C50.4276 24.8184 50.9314 24.7755 51.1307 24.6039C51.6463 24.1608 51.5642 23.0171 50.9783 22.6883C50.6268 22.5025 46.9003 22.4882 46.5136 22.674Z" fill="#FFA633"/>
</svg>
