<svg width="48" height="41" viewBox="0 0 48 41" fill="none" xmlns="http://www.w3.org/2000/svg">
<path d="M7.6794 1.15803V1.91273H6.92469H6.16998V2.66744V3.42215H6.92469H7.6794V4.17686V4.93156H6.92469H6.16998V5.68627V6.44098H6.92469H7.6794V9.45981V12.4786H6.92469H6.16998V9.95037C6.16998 7.60134 6.16055 7.41266 5.98131 7.12022C5.62282 6.53532 5.33037 6.44098 3.90586 6.44098C2.48135 6.44098 2.1889 6.53532 1.83042 7.12022C1.65117 7.41266 1.64174 7.60134 1.64174 9.95037V12.4786H0.887032H0.132324V13.2333V13.9881H1.01911H1.89645L3.92473 17.3654L5.94357 20.7332L5.56622 21.2615C4.67944 22.4691 3.9153 24.0823 3.50964 25.5917C3.31153 26.3275 3.25493 26.4407 2.7738 26.9124C2.47192 27.2049 2.12287 27.6766 1.96249 27.9973C1.70778 28.535 1.68891 28.6388 1.66061 29.9595L1.62287 31.3463H1.37759C1.02854 31.3463 0.547413 31.6576 0.321001 32.0256C0.151192 32.3086 0.132324 32.5067 0.132324 34.3652C0.132324 36.2236 0.151192 36.4217 0.321001 36.7047C0.566281 37.101 1.03797 37.384 1.4625 37.384C1.77381 37.384 1.81155 37.4123 2.02853 37.8745C2.31154 38.4972 3.3304 39.5443 3.95303 39.8651C5.09453 40.4405 4.0851 40.4028 19.8019 40.4028C35.8394 40.4028 34.9243 40.4405 37.0658 39.733C41.3865 38.2991 44.7921 34.7048 45.9336 30.3652C46.0657 29.8935 46.3582 28.1671 46.594 26.5351C46.8204 24.903 47.0374 23.4219 47.0751 23.2427L47.1223 22.9219L46.2733 22.9879L45.4148 23.0634V22.2993V21.5351H46.1695H46.9242V20.7804V20.0257H37.679H28.4339L27.7452 19.4502C26.2075 18.1578 23.9339 16.8842 22.0943 16.2899L21.2641 16.0258V13.4975V10.9692H20.5094H19.7547V13.3371V15.705L19.2642 15.639C18.9906 15.6107 18.651 15.5635 18.5095 15.5352L18.2453 15.4786V12.4692V9.45981H17.4906H16.7359V12.4786V15.4975H16.085C15.3585 15.4975 14.0755 15.6956 13.1416 15.9597L12.5095 16.139L11.4435 15.0635L10.368 13.9881H11.2926H12.2076V13.2333V12.4786H10.6982H9.18881V10.9692V9.45981H10.6982H12.2076V8.7051V7.95039H10.6982H9.18881V7.19569V6.44098H10.6982H12.2076V5.68627V4.93156H10.6982H9.18881V4.17686V3.42215H9.94352H10.6982V2.66744V1.91273H9.94352H9.18881V1.15803V0.40332H8.43411H7.6794V1.15803ZM4.66057 8.7051V9.45981H3.90586H3.15115V8.7051V7.95039H3.90586H4.66057V8.7051ZM4.66057 11.7239V12.4786H3.90586H3.15115V11.7239V10.9692H3.90586H4.66057V11.7239ZM9.41523 15.3937L10.8114 16.7899L10.0945 17.1956C9.33032 17.6106 8.18883 18.4314 7.49072 19.054L7.0662 19.4314L5.62282 17.0163C4.82094 15.6861 4.0851 14.4597 3.98133 14.2899L3.79266 13.9881H5.90584H8.00958L9.41523 15.3937ZM18.8585 17.205C21.0377 17.488 23.2358 18.3182 25.2075 19.5918L25.8018 19.9785L25.0377 20.0068L24.283 20.0351V20.7804V21.5351H25.0377H25.7924V22.9502C25.7924 24.337 25.7924 24.3653 25.5848 24.403C25.1697 24.4879 5.23603 25.8181 5.17943 25.7615C5.09453 25.686 5.53792 24.5634 6.03791 23.5917C6.63224 22.4502 7.37752 21.4785 8.39637 20.488C11.2077 17.7899 14.7831 16.6767 18.8585 17.205ZM28.8112 22.8464V24.1483L28.4622 24.2143C28.264 24.2426 27.9244 24.2709 27.7074 24.2709H27.3018V22.903V21.5351H28.0565H28.8112V22.8464ZM31.83 22.7615C31.83 23.8936 31.8206 23.9879 31.6508 23.9879C31.5565 23.9879 31.2168 24.0162 30.8961 24.0445L30.3206 24.1106V22.8181V21.5351H31.0753H31.83V22.7615ZM34.8489 22.6672V23.7992H34.4526C34.2262 23.7992 33.8866 23.8276 33.6979 23.8559L33.3395 23.9219V22.7238V21.5351H34.0942H34.8489V22.6672ZM37.8677 22.5728V23.6106H37.2639C36.9337 23.6106 36.5941 23.6389 36.5092 23.6672C36.3772 23.7143 36.3583 23.5917 36.3583 22.6295V21.5351H37.113H37.8677V22.5728ZM40.8865 22.4219C40.8865 23.4408 40.9054 23.4219 39.9809 23.4219H39.3771V22.4785V21.5351H40.1318H40.8865V22.4219ZM43.9054 22.3276V23.1106L43.5563 23.1766C43.3582 23.2049 43.0186 23.2332 42.8016 23.2332H42.3959V22.3842V21.5351H43.1507H43.9054V22.3276ZM45.1978 24.9502C45.1695 25.12 45.1129 25.4407 45.0846 25.6577C45.0469 25.8841 45.0186 26.0634 45.0091 26.0728C44.9525 26.1011 3.37757 28.9596 3.3587 28.9407C3.28323 28.8747 3.63228 28.3558 3.92473 28.0822C4.60397 27.4313 3.13229 27.5728 24.8962 26.0634C35.896 25.2992 44.9714 24.6672 45.0752 24.6577C45.2167 24.6483 45.2355 24.6955 45.1978 24.9502ZM44.7544 27.9596C44.7544 28.3275 44.3865 29.969 44.1506 30.6388C43.7167 31.9029 43.094 33.0727 42.3676 34.0067L42.0941 34.3652H30.1697H18.2453V33.3463C18.2453 32.2048 18.1227 31.8746 17.5661 31.535C17.2642 31.3558 17.0755 31.3463 10.2077 31.3463H3.15115V30.969C3.15115 30.6765 3.18889 30.5916 3.32096 30.5822C3.40587 30.5822 12.4812 29.9501 23.4811 29.186C34.4809 28.4124 43.7638 27.7803 44.1223 27.7709C44.7072 27.7615 44.7544 27.7803 44.7544 27.9596ZM16.7359 34.3652V35.8746H9.18881H1.64174V34.3652V32.8557H9.18881H16.7359V34.3652ZM40.4148 36.0727C39.3299 36.9406 37.7922 37.7896 36.4715 38.233C34.5942 38.8651 35.4621 38.8274 20.3396 38.8651C12.1982 38.884 6.37753 38.8651 6.00017 38.8179C5.17943 38.7047 4.57566 38.4123 4.01907 37.8651L3.57568 37.4312L10.4624 37.384C16.9057 37.3368 17.3774 37.3274 17.6132 37.167C17.9529 36.95 18.2453 36.4689 18.2453 36.1293V35.8746H29.4527H40.6507L40.4148 36.0727Z" fill="#DBDBDB"/>
<path d="M14.2369 18.6483C12.5199 19.0445 11.3973 19.7143 9.69919 21.3747C9.00109 22.0445 8.43506 22.6294 8.43506 22.6671C8.43506 22.7709 11.7935 23.5822 12.7086 23.7049C14.3218 23.9124 16.0859 23.8369 19.9443 23.3652C21.9443 23.12 23.6141 22.8935 23.6518 22.8558C23.6896 22.8181 23.1141 22.1954 22.3688 21.469C20.7934 19.9408 19.9349 19.3559 18.5481 18.8936C17.6991 18.6012 17.5293 18.5823 16.218 18.554C15.2557 18.5257 14.6237 18.5634 14.2369 18.6483ZM17.9821 20.403C18.9161 20.7238 20.5387 21.7049 20.133 21.7238C20.0576 21.7238 19.1613 21.8275 18.1519 21.9596C16.2085 22.2143 14.0859 22.2709 13.0105 22.1105C11.8501 21.9313 11.6426 21.8841 11.6426 21.8181C11.6426 21.5539 13.2746 20.6011 14.1237 20.3558C15.3218 20.0162 16.8595 20.0351 17.9821 20.403Z" fill="#FFA633"/>
<path d="M21.2651 32.1012V32.856H22.0198H22.7746V32.1012V31.3465H22.0198H21.2651V32.1012Z" fill="#127384"/>
<path d="M24.2827 32.1012V32.856H25.0374H25.7921V32.1012V31.3465H25.0374H24.2827V32.1012Z" fill="#127384"/>
<path d="M27.3022 32.1012V32.856H28.057H28.8117V32.1012V31.3465H28.057H27.3022V32.1012Z" fill="#127384"/>
<path d="M16.7358 7.19598V7.95068H17.4905H18.2453V7.19598V6.44127H17.4905H16.7358V7.19598Z" fill="#DBDBDB"/>
</svg>
