<svg width="52" height="41" viewBox="0 0 52 41" fill="none" xmlns="http://www.w3.org/2000/svg">
<path d="M11.0254 0.57485L10.805 0.725183V4.98463V9.23406H10.4842C10.0533 9.24408 9.42189 9.53472 9.08113 9.89552C8.62011 10.3966 8.34951 11.1683 7.13682 15.518L5.9542 19.7574H3.32837C0.441969 19.7574 0.381836 19.7674 0.381836 20.3487C0.381836 20.499 0.943081 22.9244 1.62459 25.7206C2.54664 29.479 2.91746 30.852 3.04775 30.9522C3.18806 31.0625 7.05664 31.0825 23.5833 31.0825H43.9385L44.199 30.8019C44.8405 30.1104 51.6355 20.6794 51.6756 20.4289C51.7057 20.2585 51.6556 20.0781 51.5453 19.9578C51.375 19.7674 51.2146 19.7574 48.7491 19.7574H46.1233L44.9407 15.518C44.2892 13.1928 43.6478 11.028 43.5075 10.7073C43.2068 10.0358 42.6456 9.49463 42.1044 9.3443C41.8739 9.27415 40.5008 9.23406 38.6166 9.23406H35.4997L34.2069 6.46792C33.4953 4.94454 32.8539 3.64165 32.7837 3.56147C32.5532 3.34099 31.992 3.38107 31.8116 3.64165C31.7214 3.76192 31.6512 3.92228 31.6512 3.99243C31.6512 4.05256 32.1423 5.18508 32.7536 6.48797C33.355 7.80088 33.8761 8.95343 33.9162 9.05366C33.9663 9.22404 33.8862 9.23406 32.8338 9.23406C31.5009 9.23406 31.6412 9.15388 30.5989 10.5169L29.8973 11.4389H26.0387H22.1802L21.3283 10.3565L20.4764 9.28417L19.8049 9.2541L19.1234 9.22404V5.06481V0.905584L18.8729 0.665051C18.6423 0.424517 18.5822 0.414494 17.2292 0.414494C15.2348 0.414494 15.4152 -0.056551 15.4152 5.08485V9.23406H14.9141H14.413V4.98463V0.725183L14.1925 0.57485C14.0121 0.444561 13.6713 0.414494 12.609 0.414494C11.5466 0.414494 11.2058 0.444561 11.0254 0.57485ZM13.1101 5.47572V9.23406H12.609H12.1078V5.47572V1.71738H12.609H13.1101V5.47572ZM17.8205 5.47572V9.23406H17.2693H16.7181V5.47572V1.71738H17.2693H17.8205V5.47572ZM20.5666 11.5392C20.9875 12.0904 21.4185 12.5815 21.5287 12.6416C21.649 12.7017 23.3227 12.7418 26.0889 12.7418H30.4586L30.679 12.5113C30.7993 12.3911 31.2102 11.9 31.5911 11.4089L32.2826 10.5369H36.973H41.6534L41.9641 10.7975C42.1946 10.9879 42.3349 11.2585 42.5153 11.8699C42.9663 13.3632 44.6801 19.5169 44.6801 19.6371C44.6801 19.7273 40.2002 19.7574 25.9786 19.7574C10.0533 19.7574 7.28715 19.7374 7.32724 19.6171C7.35731 19.5369 7.88849 17.6828 8.49984 15.4879C9.12122 13.283 9.68247 11.3688 9.76264 11.2185C9.8328 11.0781 10.0232 10.8577 10.1635 10.7474C10.4241 10.5369 10.5143 10.5369 15.1145 10.5369H19.7949L20.5666 11.5392ZM49.6712 21.1405C49.6611 21.1906 48.228 23.1549 46.4941 25.5001L43.3371 29.7796L23.6535 29.7596L3.95977 29.7295L2.92748 25.5202C2.35622 23.205 1.89519 21.2507 1.88517 21.1806C1.88517 21.0904 6.73593 21.0603 25.7982 21.0603C38.9474 21.0603 49.6912 21.1004 49.6712 21.1405Z" fill="#DBDBDB"/>
<path d="M10.3042 13.6436C10.0336 13.9142 10.0537 14.2049 10.3543 14.4955C10.5849 14.726 10.665 14.7461 11.6572 14.7461C12.6494 14.7461 12.7296 14.726 12.9601 14.4955C13.2608 14.2049 13.2808 13.9142 13.0102 13.6436C12.8298 13.4632 12.6795 13.4432 11.6572 13.4432C10.635 13.4432 10.4846 13.4632 10.3042 13.6436Z" fill="#DBDBDB"/>
<path d="M14.3723 13.6637C14.2821 13.784 14.2119 13.9844 14.2119 14.0946C14.2219 14.5958 14.5827 14.7461 15.7854 14.7461C16.958 14.7461 17.2186 14.6258 17.2186 14.0946C17.2186 13.5134 17.0582 13.4432 15.7152 13.4432C14.6028 13.4432 14.5126 13.4532 14.3723 13.6637Z" fill="#DBDBDB"/>
<path d="M18.4819 13.6637C18.2514 13.9944 18.2914 14.3051 18.5821 14.5356C18.8126 14.716 18.993 14.7461 19.875 14.7461C21.0776 14.7461 21.3582 14.6158 21.3582 14.0445C21.3582 13.5234 21.1578 13.4432 19.8148 13.4432C18.7124 13.4432 18.6222 13.4532 18.4819 13.6637Z" fill="#127384"/>
<path d="M22.6324 13.6436C22.3618 13.9142 22.3818 14.2049 22.6825 14.4955C22.913 14.726 22.9932 14.7461 23.9854 14.7461C24.9876 14.7461 25.0577 14.7361 25.2983 14.4855C25.4987 14.2951 25.5388 14.1748 25.4887 13.9644C25.3785 13.5033 25.1981 13.4432 23.9653 13.4432C22.9631 13.4432 22.8128 13.4632 22.6324 13.6436Z" fill="#DBDBDB"/>
<path d="M26.8114 13.5635C26.7212 13.6336 26.6209 13.814 26.5909 13.9644C26.5408 14.1748 26.5808 14.2951 26.7813 14.4855C27.0218 14.7361 27.092 14.7461 28.0942 14.7461C29.0864 14.7461 29.1666 14.726 29.3971 14.4955C29.6978 14.2049 29.7178 13.9142 29.4472 13.6436C29.2668 13.4632 29.1165 13.4432 28.1142 13.4432C27.3626 13.4432 26.9216 13.4833 26.8114 13.5635Z" fill="#DBDBDB"/>
<path d="M30.81 13.6637C30.5795 13.9944 30.6196 14.3051 30.9102 14.5356C31.1407 14.716 31.3211 14.7461 32.2031 14.7461C33.085 14.7461 33.2654 14.716 33.4959 14.5356C33.7866 14.3051 33.8267 13.9944 33.5962 13.6637C33.4559 13.4532 33.3757 13.4432 32.2031 13.4432C31.0305 13.4432 30.9503 13.4532 30.81 13.6637Z" fill="#127384"/>
<path d="M34.9193 13.6637C34.6988 13.9844 34.7189 14.2149 35.0095 14.4955C35.24 14.726 35.3202 14.7461 36.3124 14.7461C37.3146 14.7461 37.3848 14.7361 37.6253 14.4855C37.8258 14.2951 37.8659 14.1748 37.8157 13.9644C37.7055 13.5033 37.5251 13.4432 36.2523 13.4432C35.1498 13.4432 35.0596 13.4532 34.9193 13.6637Z" fill="#DBDBDB"/>
<path d="M39.066 13.6436C38.7954 13.9142 38.8154 14.2049 39.1161 14.4955C39.3466 14.726 39.4268 14.7461 40.419 14.7461C41.4112 14.7461 41.4913 14.726 41.7218 14.4955C42.0225 14.2049 42.0426 13.9142 41.772 13.6436C41.5916 13.4632 41.4412 13.4432 40.419 13.4432C39.3967 13.4432 39.2464 13.4632 39.066 13.6436Z" fill="#DBDBDB"/>
<path d="M10.4464 15.6288C10.0756 15.8693 10.0555 16.5609 10.4063 16.7513C10.6869 16.9016 12.7415 16.8816 12.9419 16.7212C13.2125 16.5108 13.2526 16.1199 13.0121 15.8192C12.8016 15.5586 12.7715 15.5486 11.6791 15.5486C11.0577 15.5486 10.5065 15.5887 10.4464 15.6288Z" fill="#FFA633"/>
<path d="M14.4124 15.7486C14.3021 15.8589 14.2119 16.0593 14.2119 16.1996C14.2119 16.3399 14.3021 16.5404 14.4124 16.6506C14.5928 16.831 14.7431 16.8511 15.7453 16.8511C17.0181 16.8511 17.2186 16.7609 17.2186 16.1796C17.2186 15.6484 16.9881 15.5482 15.7353 15.5482C14.7431 15.5482 14.5928 15.5682 14.4124 15.7486Z" fill="#DBDBDB"/>
<path d="M18.5217 15.7486C18.4115 15.8589 18.3213 16.0593 18.3213 16.1996C18.3213 16.3399 18.4115 16.5404 18.5217 16.6506C18.7021 16.831 18.8525 16.8511 19.8547 16.8511C20.8669 16.8511 21.0173 16.831 21.1776 16.6506C21.2678 16.5504 21.358 16.3399 21.358 16.1996C21.358 16.0593 21.2678 15.8489 21.1776 15.7486C21.0173 15.5682 20.8669 15.5482 19.8547 15.5482C18.8525 15.5482 18.7021 15.5682 18.5217 15.7486Z" fill="#FFA633"/>
<path d="M22.7714 15.6183C22.6211 15.7286 22.4307 16.0994 22.4307 16.2898C22.4307 16.38 22.5209 16.5404 22.6311 16.6506C22.8115 16.831 22.9618 16.8511 23.9741 16.8511C24.8661 16.8511 25.1567 16.821 25.277 16.7007C25.5376 16.4301 25.5676 16.1395 25.3672 15.8589C25.1768 15.6083 25.1266 15.5983 24.0242 15.5682C23.3928 15.5582 22.8316 15.5783 22.7714 15.6183Z" fill="#127384"/>
<path d="M26.7494 15.8088C26.5089 16.1195 26.4989 16.1796 26.6492 16.4803C26.8396 16.831 26.9198 16.8511 28.1225 16.8511C29.1147 16.8511 29.265 16.831 29.4454 16.6506C29.6759 16.4201 29.696 16.2297 29.5356 15.919C29.3452 15.5783 29.265 15.5482 28.0724 15.5482C26.9799 15.5482 26.9499 15.5582 26.7494 15.8088Z" fill="#FFA633"/>
<path d="M30.8499 15.7486C30.7396 15.8589 30.6494 16.0593 30.6494 16.1996C30.6494 16.3399 30.7396 16.5404 30.8499 16.6506C31.0303 16.831 31.1806 16.8511 32.2029 16.8511C33.2251 16.8511 33.3755 16.831 33.5559 16.6506C33.6661 16.5404 33.7563 16.3399 33.7563 16.1996C33.7563 16.0593 33.6661 15.8589 33.5559 15.7486C33.3755 15.5682 33.2251 15.5482 32.2029 15.5482C31.1806 15.5482 31.0303 15.5682 30.8499 15.7486Z" fill="#DBDBDB"/>
<path d="M34.9581 15.7486C34.6976 16.0092 34.6976 16.3901 34.9581 16.6506C35.1385 16.831 35.2889 16.8511 36.3011 16.8511C37.1931 16.8511 37.4837 16.821 37.604 16.7007C37.8646 16.4301 37.8946 16.1395 37.6942 15.8589C37.5038 15.6083 37.4537 15.5983 36.3312 15.5682C35.2688 15.5482 35.1486 15.5582 34.9581 15.7486Z" fill="#FFA633"/>
<path d="M39.068 15.8192C38.8275 16.1199 38.8676 16.5108 39.1382 16.7212C39.3386 16.8816 41.3932 16.9016 41.6738 16.7513C42.0246 16.5609 42.0045 15.8693 41.6337 15.6288C41.5736 15.5887 41.0223 15.5486 40.401 15.5486C39.3085 15.5486 39.2785 15.5586 39.068 15.8192Z" fill="#DBDBDB"/>
<path d="M10.3533 17.9032C10.0626 18.1839 10.0426 18.4144 10.2631 18.7351C10.4034 18.9455 10.4836 18.9556 11.6562 18.9556C12.8288 18.9556 12.9089 18.9455 13.0492 18.7351C13.2697 18.4144 13.2497 18.1839 12.959 17.9032C12.7285 17.6727 12.6484 17.6527 11.6562 17.6527C10.664 17.6527 10.5838 17.6727 10.3533 17.9032Z" fill="#DBDBDB"/>
<path d="M14.4727 17.8631C14.1821 18.0937 14.142 18.4043 14.3725 18.7351C14.5128 18.9455 14.603 18.9556 15.7155 18.9556C17.0584 18.9556 17.2188 18.8854 17.2188 18.3041C17.2188 17.7729 16.9582 17.6527 15.7556 17.6527C14.8836 17.6527 14.7032 17.6827 14.4727 17.8631Z" fill="#127384"/>
<path d="M18.572 17.9032C18.2814 18.1839 18.2613 18.4144 18.4818 18.7351C18.6221 18.9455 18.7123 18.9556 19.8148 18.9556C21.1578 18.9556 21.3582 18.8754 21.3582 18.3542C21.3582 17.783 21.0776 17.6527 19.8549 17.6527C18.8827 17.6527 18.7925 17.6727 18.572 17.9032Z" fill="#DBDBDB"/>
<path d="M22.6833 17.9032C22.3927 18.1839 22.3727 18.4144 22.5931 18.7351C22.7335 18.9455 22.8136 18.9556 23.9862 18.9556C25.1588 18.9556 25.239 18.9455 25.3793 18.7351C25.5998 18.4144 25.5798 18.1839 25.2891 17.9032C25.0586 17.6727 24.9784 17.6527 23.9862 17.6527C22.994 17.6527 22.9139 17.6727 22.6833 17.9032Z" fill="#DBDBDB"/>
<path d="M26.7908 17.9032C26.5001 18.1839 26.4801 18.4144 26.7006 18.7351C26.8409 18.9455 26.9211 18.9556 28.0937 18.9556C29.2663 18.9556 29.3464 18.9455 29.4867 18.7351C29.7072 18.4144 29.6872 18.1839 29.3965 17.9032C29.166 17.6727 29.0859 17.6527 28.0937 17.6527C27.1015 17.6527 27.0213 17.6727 26.7908 17.9032Z" fill="#DBDBDB"/>
<path d="M30.9102 17.8631C30.6196 18.0937 30.5795 18.4043 30.81 18.7351C30.9503 18.9455 31.0305 18.9556 32.2031 18.9556C33.3757 18.9556 33.4559 18.9455 33.5962 18.7351C33.8167 18.4144 33.7966 18.1839 33.506 17.9032C33.2855 17.6727 33.1953 17.6527 32.2231 17.6527C31.3211 17.6527 31.1407 17.6827 30.9102 17.8631Z" fill="#DBDBDB"/>
<path d="M35.0095 17.9032C34.7189 18.1839 34.6988 18.4144 34.9193 18.7351C35.0596 18.9455 35.1398 18.9556 36.3024 18.9556C37.6253 18.9556 37.6955 18.9355 37.8157 18.4344C37.8659 18.2239 37.8258 18.1037 37.6253 17.9133C37.3848 17.6627 37.3146 17.6527 36.3124 17.6527C35.3202 17.6527 35.24 17.6727 35.0095 17.9032Z" fill="#127384"/>
<path d="M39.1169 17.9032C38.8263 18.1839 38.8062 18.4144 39.0267 18.7351C39.1671 18.9455 39.2472 18.9556 40.4198 18.9556C41.5924 18.9556 41.6726 18.9455 41.8129 18.7351C42.0334 18.4144 42.0134 18.1839 41.7227 17.9032C41.4922 17.6727 41.412 17.6527 40.4198 17.6527C39.4276 17.6527 39.3475 17.6727 39.1169 17.9032Z" fill="#DBDBDB"/>
<path d="M6.69679 23.676C6.39612 23.7963 6.2959 23.9366 6.2959 24.2773C6.2959 24.7283 6.5665 24.8687 7.47852 24.8687C8.43063 24.8687 8.63108 24.7484 8.58097 24.1771C8.56092 23.9165 8.49077 23.7863 8.30034 23.6961C8.0097 23.5457 7.05759 23.5357 6.69679 23.676Z" fill="#DBDBDB"/>
<path d="M10.5037 23.6359C10.0126 23.8263 9.87229 24.2373 10.1629 24.6482C10.3032 24.8486 10.4035 24.8687 11.1952 24.8687C12.1774 24.8687 12.3378 24.7785 12.3378 24.2573C12.3378 23.7863 12.0972 23.6259 11.3255 23.5958C10.9547 23.5858 10.5839 23.5958 10.5037 23.6359Z" fill="#DBDBDB"/>
<path d="M14.2108 23.6359C13.7197 23.8163 13.5493 24.3876 13.8901 24.6983C14.0304 24.8286 14.281 24.8687 14.9324 24.8687C15.9146 24.8687 16.0449 24.7885 15.9948 24.1972C15.9747 23.9165 15.9046 23.7863 15.7141 23.6961C15.4636 23.5658 14.5015 23.5357 14.2108 23.6359Z" fill="#DBDBDB"/>
<path d="M17.8195 23.6961C17.4587 23.8765 17.3384 24.2874 17.5589 24.6081C17.7193 24.8586 17.7694 24.8687 18.6213 24.8687C19.4732 24.8687 19.5233 24.8586 19.6836 24.6081C19.8139 24.4177 19.834 24.2874 19.7638 24.0869C19.6335 23.7261 19.2827 23.5658 18.6213 23.5658C18.3206 23.5658 17.9598 23.6259 17.8195 23.6961Z" fill="#DBDBDB"/>
<path d="M21.6293 23.6363C21.1282 23.8368 20.9678 24.388 21.3086 24.6987C21.5692 24.9392 23.1427 24.9392 23.3331 24.7087C23.5235 24.4983 23.4934 23.9871 23.303 23.7867C23.1226 23.6163 21.94 23.5061 21.6293 23.6363Z" fill="#DBDBDB"/>
<path d="M25.2375 23.6961C24.8767 23.8765 24.7564 24.2874 24.9769 24.6081C25.1372 24.8586 25.1873 24.8687 26.0392 24.8687C26.8911 24.8687 26.9412 24.8586 27.1016 24.6081C27.2319 24.4177 27.2519 24.2874 27.1818 24.0869C27.0515 23.7261 26.7007 23.5658 26.0392 23.5658C25.7386 23.5658 25.3778 23.6259 25.2375 23.6961Z" fill="#DBDBDB"/>
<path d="M28.9445 23.6961C28.5837 23.8765 28.4634 24.2874 28.6839 24.6081C28.8443 24.8586 28.8944 24.8687 29.7463 24.8687C30.5982 24.8687 30.6483 24.8586 30.8086 24.6081C30.9389 24.4177 30.959 24.2874 30.8888 24.0869C30.7585 23.7261 30.4077 23.5658 29.7463 23.5658C29.4456 23.5658 29.0848 23.6259 28.9445 23.6961Z" fill="#DBDBDB"/>
<path d="M32.6535 23.6961C32.2927 23.8765 32.1724 24.2874 32.3929 24.6081C32.5532 24.8586 32.6034 24.8687 33.4552 24.8687C34.3071 24.8687 34.3572 24.8586 34.5176 24.6081C34.6479 24.4177 34.6679 24.2874 34.5978 24.0869C34.4675 23.7261 34.1167 23.5658 33.4552 23.5658C33.1546 23.5658 32.7938 23.6259 32.6535 23.6961Z" fill="#DBDBDB"/>
<path d="M36.3625 23.6961C36.0017 23.8765 35.8814 24.2874 36.1019 24.6081C36.2622 24.8586 36.3123 24.8687 37.1642 24.8687C38.0161 24.8687 38.0662 24.8586 38.2266 24.6081C38.3569 24.4177 38.3769 24.2874 38.3068 24.0869C38.1765 23.7261 37.8257 23.5658 37.1642 23.5658C36.8636 23.5658 36.5028 23.6259 36.3625 23.6961Z" fill="#DBDBDB"/>
<path d="M40.0893 23.6665C39.7685 23.7968 39.6282 24.2177 39.7986 24.5485C39.9189 24.8091 39.959 24.8191 40.8209 24.8491C41.6427 24.8792 41.7429 24.8592 41.9033 24.6587C42.1338 24.3781 42.1238 24.0373 41.8632 23.8068C41.6327 23.5964 40.4801 23.4961 40.0893 23.6665Z" fill="#DBDBDB"/>
<path d="M43.7785 23.6961C43.4177 23.8765 43.2974 24.2874 43.5179 24.6081C43.6782 24.8586 43.7284 24.8687 44.5702 24.8687C45.2918 24.8687 45.4822 24.8386 45.6125 24.6883C45.7929 24.4978 45.833 24.0969 45.7027 23.8965C45.5023 23.5758 44.2696 23.4455 43.7785 23.6961Z" fill="#DBDBDB"/>
<path d="M9.50187 31.9951C7.55756 32.2456 3.79922 33.2879 3.45846 33.6688C3.36826 33.769 3.28809 33.9795 3.28809 34.1198C3.28809 34.4004 3.59878 34.7913 3.81926 34.7913C3.88942 34.7913 4.48073 34.6109 5.1422 34.3904C9.18116 33.0274 12.719 32.8169 14.7635 33.7891C15.0943 33.9494 15.7056 34.3804 16.1165 34.7311C17.4695 35.9138 18.6421 36.3347 20.5764 36.3247C22.4706 36.3247 23.8838 35.9238 26.4595 34.651C28.6343 33.5886 29.9773 33.1977 31.5007 33.1877C32.9739 33.1877 34.0463 33.5986 35.1888 34.5908C36.0307 35.3325 36.5118 35.6131 37.4639 35.9338C39.4984 36.6053 42.5452 36.465 45.9026 35.5429C47.5062 35.0919 48.4984 34.7311 48.6688 34.5207C48.9694 34.1198 48.6888 33.4884 48.1977 33.4884C48.0774 33.4884 47.5162 33.6387 46.9449 33.8291C44.4694 34.661 42.5351 35.0218 40.5708 35.0318C38.3158 35.0318 37.3236 34.7011 35.9104 33.4784C34.6376 32.3759 33.2846 31.8949 31.4906 31.8848C29.6866 31.8848 28.1031 32.3358 25.5976 33.5886C22.7813 34.9817 20.8069 35.3525 18.9228 34.8314C18.2112 34.6309 17.7401 34.3503 16.8181 33.5786C15.3749 32.3659 13.8014 31.8748 11.4562 31.8949C10.7446 31.9049 9.86267 31.945 9.50187 31.9951Z" fill="#DBDBDB"/>
<path d="M9.05115 36.1439C7.30728 36.4245 4.99214 37.0359 3.85963 37.5169C3.3485 37.7374 3.20819 37.988 3.32845 38.449C3.44872 38.91 3.76943 38.9301 4.91197 38.5392C9.10126 37.1261 12.8496 36.8955 14.8841 37.9278C15.1447 38.0681 15.6859 38.459 16.0667 38.7897C17.3796 39.9423 18.6524 40.4033 20.5066 40.4033C22.4609 40.4033 23.7036 40.0626 26.3395 38.7998C28.6446 37.6873 29.6168 37.3866 31.1001 37.3265C32.9341 37.2363 33.9063 37.567 35.2092 38.7096C35.9709 39.3811 36.943 39.8922 37.9653 40.1728C38.9976 40.4635 42.345 40.4334 43.8584 40.1227C45.8327 39.7218 48.3283 38.9501 48.639 38.6394C48.8394 38.439 48.8294 37.9579 48.6289 37.7575C48.4085 37.537 48.0376 37.557 47.1757 37.8477C44.7804 38.6795 42.4051 39.1305 40.4708 39.1205C38.3161 39.1205 37.374 38.8098 36.0009 37.6372C34.5878 36.4345 33.3851 35.9935 31.531 35.9935C29.6168 35.9935 28.2938 36.3644 25.7883 37.5871C23.5032 38.7096 22.1502 39.1105 20.6268 39.1205C19.0834 39.1405 18.0712 38.7597 16.8685 37.7073C16.1068 37.0459 15.1146 36.5047 14.1625 36.2441C13.3106 36.0036 10.2739 35.9535 9.05115 36.1439Z" fill="#DBDBDB"/>
</svg>
