<svg width="41" height="41" viewBox="0 0 41 41" fill="none" xmlns="http://www.w3.org/2000/svg">
<path d="M4.18092 0.535701C4.08719 0.598188 3.79037 1.07466 3.54042 1.59018C3.28266 2.09789 3.05614 2.51968 3.04052 2.51968C3.0249 2.51968 2.54843 2.58998 1.97042 2.68371C0.751917 2.86336 0.572266 2.97271 0.572266 3.48824C0.572266 3.78505 0.619131 3.85535 1.36117 4.59739L2.15008 5.38629L1.98605 6.3158C1.78296 7.47962 1.78296 7.62022 2.00167 7.86236C2.32192 8.23729 2.54062 8.20604 3.61072 7.65147L4.58709 7.14375L5.54783 7.64365C6.07117 7.91704 6.56326 8.14355 6.62574 8.14355C6.84445 8.14355 7.18032 7.92485 7.27405 7.72176C7.34435 7.55773 7.33654 7.3156 7.19594 6.4642L7.0241 5.40973L7.82082 4.6052C8.50037 3.91784 8.61753 3.75381 8.61753 3.54291C8.61753 3.23047 8.50818 3.01958 8.29728 2.90242C8.20355 2.85555 7.67241 2.7462 7.11002 2.66809C6.54763 2.58217 6.07898 2.50406 6.06335 2.49625C6.05554 2.48062 5.85246 2.06664 5.61813 1.56674C5.3838 1.06684 5.11042 0.605999 5.00888 0.535701C4.78236 0.379482 4.40744 0.379482 4.18092 0.535701ZM5.20415 3.72256C5.29788 3.78505 5.51659 3.85535 5.68843 3.88659C6.43047 4.00376 6.41485 3.9647 5.96181 4.40212L5.54783 4.80047L5.5947 5.41754C5.62594 5.75341 5.62594 6.0346 5.60251 6.0346C5.58689 6.0346 5.39161 5.94868 5.18072 5.83933C4.68082 5.58157 4.4543 5.58938 3.89973 5.88619L3.43888 6.12833L3.48575 5.94087C3.51699 5.83933 3.55604 5.55813 3.58729 5.31599L3.64196 4.87858L3.22798 4.44117C2.78276 3.97251 2.78276 3.97251 3.42326 3.88659C3.97002 3.80848 4.05594 3.746 4.32933 3.19923L4.57147 2.72276L4.79798 3.16799C4.92296 3.41013 5.10261 3.66008 5.20415 3.72256Z" fill="#127384"/>
<path d="M14.5622 0.543382C13.742 0.949551 13.6483 2.30084 14.4059 2.83199C14.9293 3.21472 15.6323 3.19129 16.1165 2.78512C16.4524 2.49612 16.5852 2.1993 16.5852 1.71502C16.5852 1.23074 16.3899 0.871441 15.9681 0.590248C15.6401 0.371541 14.9605 0.348109 14.5622 0.543382Z" fill="#DBDBDB"/>
<path d="M33.3945 0.590691C33.2461 0.746909 33.2227 0.864074 33.2227 1.41865C33.2227 1.99666 33.2383 2.07477 33.4179 2.24661C33.6679 2.50437 34.074 2.50437 34.3709 2.25442C34.5739 2.07477 34.5896 2.0279 34.5896 1.44208C34.5896 0.887506 34.5661 0.793775 34.4021 0.614123C34.1443 0.340741 33.6366 0.33293 33.3945 0.590691Z" fill="#FFA633"/>
<path d="M31.4167 2.59008C31.1746 2.83222 31.1277 3.11341 31.2839 3.40242C31.4402 3.69923 31.5964 3.76172 32.2134 3.76953C32.6899 3.76953 32.8461 3.73829 33.0023 3.61331C33.2523 3.41804 33.3148 3.1056 33.182 2.76973C33.0492 2.45729 32.8149 2.36356 32.1588 2.36356C31.6979 2.36356 31.6276 2.387 31.4167 2.59008Z" fill="#FFA633"/>
<path d="M34.9028 2.45729C34.4966 2.676 34.4107 3.2462 34.7466 3.57426C34.9184 3.7461 34.9965 3.76953 35.5667 3.76953C36.1369 3.76953 36.215 3.7461 36.3869 3.57426C36.5275 3.44147 36.5821 3.30087 36.5821 3.08998C36.5743 2.55884 36.2931 2.36356 35.5511 2.36356C35.2777 2.36356 34.9887 2.41043 34.9028 2.45729Z" fill="#FFA633"/>
<path d="M33.5741 3.78509C33.2773 3.9413 33.2227 4.09752 33.2227 4.74583C33.2227 5.441 33.3398 5.66752 33.7304 5.76906C34.2381 5.89404 34.6286 5.44882 34.6286 4.74583C34.6286 3.93349 34.1287 3.48046 33.5741 3.78509Z" fill="#FFA633"/>
<path d="M15.5933 4.5975C15.3667 4.82402 15.3667 4.96461 15.6011 6.24561C15.7963 7.28446 15.9057 8.97163 15.851 9.98705C15.7104 12.6271 15.2964 14.3377 14.0701 17.3137C13.3437 19.0868 13.3047 19.2508 13.5937 19.5633C13.7733 19.7663 14.1795 19.821 14.4529 19.6726C14.6559 19.5711 14.7731 19.3367 15.3667 17.9152C16.8274 14.3846 17.2336 12.5022 17.2414 9.31531C17.2414 6.94078 16.9367 4.77715 16.5618 4.51158C16.2884 4.32412 15.8276 4.36317 15.5933 4.5975Z" fill="#DBDBDB"/>
<path d="M20.3729 5.90995C19.9433 6.10523 19.5137 6.54264 19.3419 6.95662C19.2794 7.10503 19.2247 7.45652 19.2247 7.7299C19.2169 8.64378 19.7715 9.42488 20.5994 9.66701C21.0915 9.81542 21.3727 9.81542 21.8648 9.66701C22.3647 9.51861 22.8412 9.11244 23.0677 8.63597C23.2864 8.18294 23.3176 7.39403 23.1302 6.96443C22.8099 6.22239 22.0523 5.72249 21.2321 5.72249C20.904 5.72249 20.6463 5.77717 20.3729 5.90995ZM21.6383 7.3003C21.8648 7.55806 21.896 7.69085 21.7711 7.97204C21.5055 8.60473 20.6463 8.40164 20.6463 7.70647C20.6463 7.21438 21.3102 6.941 21.6383 7.3003Z" fill="#DBDBDB"/>
<path d="M25.4023 7.90179L25.1758 8.1283V10.0576V11.9869L25.4023 12.2134L25.6288 12.4399H27.5581H29.4874L29.7139 12.2134L29.9405 11.9869V10.0576V8.1283L29.7139 7.90179L29.4874 7.67527H27.5581H25.6288L25.4023 7.90179ZM28.5345 10.0576V11.034H27.5581H26.5818V10.0576V9.08124H27.5581H28.5345V10.0576Z" fill="#DBDBDB"/>
<path d="M36.0722 9.90125C35.9004 10.0653 35.877 10.159 35.877 10.7058C35.877 11.5103 36.0254 11.7368 36.5487 11.7368C37.1345 11.7368 37.3298 11.4166 37.2673 10.5496C37.2361 10.1512 37.197 10.0418 37.0174 9.88562C36.7283 9.64349 36.3222 9.64349 36.0722 9.90125Z" fill="#FFA633"/>
<path d="M9.01589 10.0183C8.30509 10.276 7.86768 10.6666 7.53962 11.3461C7.36778 11.7054 7.32873 11.9085 7.30529 12.5646C7.26624 13.502 7.39903 14.2049 7.80519 15.3063C9.2346 19.1805 13.7337 24.5935 18.1313 27.7335C19.7169 28.8739 21.3962 29.8503 22.5757 30.3267L23.2943 30.6157L20.9901 31.4827L18.6936 32.3576L17.8891 32.0061C13.3119 29.9909 9.7345 26.2572 7.8833 21.5628C7.51619 20.6255 7.05534 18.9774 6.89131 18.0323C6.77415 17.3606 6.57888 17.1262 6.12584 17.1262C5.87589 17.1262 5.78216 17.1731 5.61813 17.3684C5.36818 17.6652 5.36818 17.7199 5.61032 18.8837C6.82883 24.7575 10.5937 29.7721 15.9364 32.6388C16.3816 32.8809 16.7409 33.084 16.7253 33.0996C16.7097 33.1074 15.0069 33.7557 12.937 34.5368L9.1643 35.9662L8.72688 35.5835C7.60992 34.6227 6.62574 33.1699 6.0946 31.6858C5.77435 30.7876 5.64938 30.0299 5.4541 27.7101C5.35256 26.5072 5.24321 25.4605 5.21196 25.3824C5.14948 25.2106 4.78236 25.0153 4.54022 25.0153C4.29808 25.0153 4.01689 25.2184 3.92316 25.4527C3.83724 25.687 4.18092 29.8737 4.36057 30.7329C4.77455 32.7325 5.82903 34.7165 7.20375 36.06L7.67241 36.5286L5.01669 37.5362C3.54823 38.0908 2.33754 38.5282 2.32192 38.5048C2.29848 38.4892 2.49376 37.5987 2.75933 36.5364C3.33734 34.1541 3.34515 34.0213 2.90774 33.8026C2.5953 33.6386 2.32973 33.6542 2.10321 33.8651C1.92356 34.0135 1.8142 34.3806 1.2362 36.7551C0.869081 38.247 0.572266 39.5983 0.572266 39.7467C0.572266 40.106 0.86127 40.4028 1.21276 40.4028C1.35336 40.4028 6.67261 38.4267 13.7728 35.7397C20.537 33.1777 26.2546 31.0219 26.4733 30.9438C27.7465 30.5142 28.3402 29.7721 28.4339 28.4912C28.4964 27.6398 28.2386 26.2494 27.8637 25.4371C27.645 24.9762 27.0982 24.8825 26.7311 25.2418C26.4577 25.523 26.4499 25.687 26.692 26.4056C27.0982 27.5851 27.1373 28.5302 26.817 29.0613C26.2234 30.0299 24.1066 29.6862 21.5212 28.21C19.2248 26.8977 17.2408 25.3668 15.2178 23.3359C12.6324 20.7505 10.8749 18.4307 9.67201 16.0405C9.04713 14.783 8.75813 13.8847 8.71126 13.0099C8.68002 12.3928 8.69564 12.2522 8.84405 11.9554C9.07057 11.4789 9.51579 11.268 10.2656 11.268C10.7734 11.268 10.8358 11.2524 11.0467 11.0415C11.203 10.8853 11.2733 10.7369 11.2733 10.565C11.2733 10.3932 11.203 10.2448 11.0467 10.0886C10.828 9.86987 10.789 9.86206 10.125 9.86206C9.64858 9.86987 9.31271 9.91674 9.01589 10.0183Z" fill="#DBDBDB"/>
<path d="M33.6972 10.9246C33.5957 11.0496 33.5332 11.2449 33.5332 11.4167C33.5332 11.6589 33.5957 11.7682 33.9472 12.1119C34.3065 12.4634 34.4002 12.5181 34.6736 12.5181C35.0798 12.5181 35.3453 12.2603 35.3453 11.8698C35.3453 11.5261 35.2516 11.362 34.8611 11.0106C34.6033 10.7684 34.4939 10.7216 34.2049 10.7216C33.9238 10.7216 33.83 10.7606 33.6972 10.9246Z" fill="#FFA633"/>
<path d="M38.1503 11.1433C37.8223 11.4948 37.752 11.6198 37.752 11.8541C37.752 12.2525 38.0331 12.5181 38.4549 12.5181C39.0095 12.5181 39.7203 11.7135 39.5953 11.2293C39.5094 10.8934 39.2751 10.7216 38.8924 10.7216C38.5877 10.7216 38.5174 10.7606 38.1503 11.1433Z" fill="#FFA633"/>
<path d="M23.4662 13.1895C22.9585 13.5488 16.7566 19.1961 16.6395 19.4148C16.288 20.0632 17.0535 20.7115 17.6705 20.2819C18.1782 19.9226 24.3723 14.2752 24.4895 14.0644C24.841 13.416 24.0833 12.7599 23.4662 13.1895Z" fill="#DBDBDB"/>
<path d="M28.5747 16.4233C23.9272 18.6416 21.4824 19.8445 21.373 19.9773C21.2715 20.0944 21.1934 20.2819 21.1934 20.4147C21.1934 20.7271 21.5683 21.1099 21.8651 21.1099C22.1619 21.1099 36.1825 14.4315 36.4091 14.1894C36.8074 13.7441 36.5028 13.0568 35.9014 13.0724C35.6748 13.0724 33.8939 13.8926 28.5747 16.4233Z" fill="#DBDBDB"/>
<path d="M38.7295 13.26C38.4717 13.5099 38.4717 13.9161 38.7217 14.2129C38.9013 14.416 38.9482 14.4316 39.534 14.4316C40.0886 14.4316 40.1823 14.4082 40.362 14.2442C40.6353 13.9864 40.6431 13.4787 40.3854 13.2366C40.2292 13.0882 40.112 13.0647 39.5574 13.0647C38.9794 13.0647 38.9013 13.0803 38.7295 13.26Z" fill="#FFA633"/>
<path d="M37.9486 15.1426C37.6205 15.4941 37.683 15.8143 38.1673 16.3142C38.6437 16.8141 38.9171 16.9 39.292 16.6657C39.7919 16.3533 39.706 15.7596 39.0655 15.2207C38.6437 14.8614 38.2376 14.8301 37.9486 15.1426Z" fill="#FFA633"/>
<path d="M36.0722 15.9151C35.9004 16.087 35.877 16.1651 35.877 16.7353C35.877 17.3055 35.9004 17.3836 36.0722 17.5554C36.3612 17.8523 36.8143 17.8288 37.0798 17.5086C37.2517 17.3055 37.2829 17.1961 37.2829 16.7353C37.2829 16.2744 37.2517 16.1651 37.0798 15.962C36.8143 15.6418 36.3612 15.6183 36.0722 15.9151Z" fill="#FFA633"/>
<path d="M24.2413 22.4454C23.429 22.5313 20.7967 22.9609 20.3983 23.0702C20.1952 23.1249 20.0625 23.2186 19.9844 23.3749C19.8359 23.656 19.8359 23.7966 19.9844 24.07C20.1874 24.4684 20.3827 24.484 22.1402 24.1872C24.3819 23.8201 25.4286 23.7342 27.0845 23.7888C29.1778 23.8591 30.7634 24.1325 32.6849 24.7496C33.2708 24.937 33.841 25.0933 33.9503 25.0933C34.0597 25.0933 34.2471 25.0073 34.3721 24.9058C34.6377 24.6793 34.6767 24.1872 34.4424 23.9294C34.1456 23.6014 31.5758 22.875 29.6933 22.586C28.4983 22.3985 25.3661 22.3204 24.2413 22.4454Z" fill="#DBDBDB"/>
<path d="M36.2839 24.5935C35.1357 25.1637 34.8311 26.7337 35.6825 27.7257C36.0808 28.1944 36.5729 28.4053 37.2447 28.4053C37.8696 28.4053 38.2601 28.2412 38.6819 27.8116C39.0646 27.4289 39.1818 27.1477 39.2208 26.5385C39.2677 25.8355 39.0568 25.3043 38.5647 24.8669C37.9633 24.3358 37.0182 24.2264 36.2839 24.5935ZM37.6665 25.9995C37.9086 26.3041 37.8774 26.6009 37.5805 26.8509C37.4009 27.0071 37.2837 27.0462 37.1353 27.0071C36.6901 26.8978 36.4948 26.4994 36.6979 26.1167C36.8307 25.8589 36.9088 25.812 37.2603 25.8042C37.4399 25.7964 37.5493 25.8511 37.6665 25.9995Z" fill="#DBDBDB"/>
<path d="M31.0351 29.0535C30.7461 29.1551 30.5664 29.4207 30.5664 29.7175C30.5664 30.1627 30.8007 30.3502 31.5428 30.522C33.0815 30.8579 34.4797 31.6155 35.6669 32.7403L36.12 33.1699L35.6279 33.3339C34.4094 33.7479 33.5346 34.6227 33.2534 35.7085C32.7535 37.6612 34.55 39.4577 36.5105 38.9656C37.6275 38.6766 38.4476 37.7315 38.5882 36.5755C38.6117 36.3568 38.6585 36.1849 38.6976 36.1849C38.7288 36.1849 38.8382 36.388 38.9319 36.6301C39.0725 36.9816 39.1116 37.2394 39.1116 37.7862C39.1194 38.4032 39.0881 38.5673 38.8616 39.1062C38.6429 39.6295 38.6195 39.7623 38.6898 39.9576C38.7991 40.2779 38.9866 40.395 39.3615 40.4028C39.7443 40.4028 39.9317 40.231 40.1739 39.6608C40.9081 37.958 40.5566 35.9272 39.299 34.5759C39.0413 34.3025 38.721 34.0135 38.5961 33.9354C38.4711 33.8651 38.1743 33.5292 37.9321 33.1933C36.5183 31.1703 34.5187 29.8112 32.0583 29.1863C31.3006 28.9911 31.2303 28.9832 31.0351 29.0535ZM36.7683 34.6305C37.0651 34.7711 37.2369 35.2007 37.2369 35.8334C37.2369 37.0441 36.4871 37.8408 35.5654 37.5909C34.9327 37.4191 34.4875 36.7786 34.589 36.1771C34.6906 35.5835 35.3233 34.943 36.0575 34.693C36.5496 34.5212 36.5262 34.5212 36.7683 34.6305Z" fill="#127384"/>
</svg>
