<svg width="41" height="41" viewBox="0 0 41 41" fill="none" xmlns="http://www.w3.org/2000/svg">
<path d="M20.0026 0.575363C19.7523 0.849068 18.9078 2.40527 18.6497 3.0778C18.2118 4.21955 18.2039 5.22834 18.6341 5.83831C18.7826 6.04946 19.0094 6.22932 19.33 6.38573L19.8149 6.62033V7.61348L19.8227 8.61446H18.9703C18.2352 8.61446 18.0945 8.63792 17.9146 8.77869L17.7113 8.93509V12.3759V15.809H15.5607H13.4102V10.2254C13.4102 6.97224 13.3789 4.55581 13.3398 4.44633C13.2538 4.22737 12.9019 4.07878 12.5969 4.13353C12.1433 4.21955 12.159 3.99276 12.159 10.1394V15.7699L11.6741 15.8637C10.8999 16.0123 10.1414 16.4346 9.58616 17.0211C9.32027 17.3026 9.02311 17.7093 8.91362 17.9204C8.5148 18.7103 8.48352 19.0074 8.48352 22.7846V26.288H8.17853C7.49818 26.288 6.45028 26.7572 5.83249 27.3281C5.43366 27.7034 4.9801 28.4463 4.80805 29.0094C4.65947 29.4786 4.65165 29.7367 4.65165 33.0602V36.6106H2.67316C0.280195 36.6106 0.389677 36.5636 0.444417 37.5255C0.506979 38.6281 1.21861 39.6604 2.26651 40.1765L2.73572 40.4033H20.4483H38.1609L38.6301 40.1765C39.678 39.6604 40.3897 38.6281 40.4522 37.5255C40.507 36.5636 40.6165 36.6106 38.2235 36.6106H36.245V33.0602C36.245 29.0563 36.2372 28.9703 35.635 28.0397C34.986 27.0387 33.7347 26.288 32.7103 26.288H32.4131V22.7846C32.4131 19.0074 32.3819 18.7103 31.983 17.9204C31.8735 17.7093 31.5764 17.3026 31.3105 17.0211C30.7553 16.4346 29.9967 16.0123 29.2225 15.8637L28.7377 15.7699V12.1883V8.60664L28.5422 8.41896C28.3154 8.18436 27.9635 8.16872 27.7132 8.37204L27.5255 8.52062L27.5021 12.1648L27.4786 15.809H25.3359H23.1854V12.3759V8.93509L22.982 8.77869C22.8022 8.63792 22.6614 8.61446 21.9263 8.61446H21.0739L21.0818 7.61348V6.62033L21.5666 6.38573C21.9029 6.2215 22.114 6.04946 22.2861 5.81485C22.4894 5.50987 22.5207 5.40039 22.5441 4.83734C22.591 3.82854 22.2939 2.92141 21.4102 1.38866C20.9254 0.536263 20.8002 0.40332 20.4483 0.40332C20.2528 0.40332 20.1121 0.458061 20.0026 0.575363ZM21.2303 3.75034C21.4258 4.26647 21.4258 4.59491 21.2303 4.91554C20.8941 5.47859 20.1355 5.56461 19.7132 5.08758C19.5177 4.8608 19.4943 4.79824 19.5255 4.39941C19.5568 3.94584 19.8384 3.24985 20.245 2.60078L20.464 2.25669L20.769 2.79628C20.9332 3.09345 21.1443 3.52356 21.2303 3.75034ZM21.9342 10.4522V11.0387H20.4483H18.9625V10.4522V9.86569H20.4483H21.9342V10.4522ZM21.9342 12.8373V13.3847H20.4483H18.9625V12.8373V12.2899H20.4483H21.9342V12.8373ZM21.9342 15.2225V15.809H20.4483H18.9625V15.2225V14.636H20.4483H21.9342V15.2225ZM29.4024 17.2244C30.1688 17.506 30.9038 18.3271 31.0524 19.0622C31.0915 19.2655 31.0681 19.3046 30.8256 19.4219C30.3643 19.6409 30.0045 20.0162 29.4728 20.8452C28.8784 21.7445 28.5734 22.0964 28.2606 22.2215C27.7836 22.4248 27.33 22.0964 26.6966 21.1032C25.7817 19.6565 25.2342 19.2498 24.2489 19.2498C23.2245 19.2498 22.7318 19.6174 21.7543 21.0876C21.113 22.0573 20.8863 22.2606 20.4483 22.2606C20.0104 22.2606 19.7836 22.0573 19.1424 21.0876C18.4542 20.0553 18.1023 19.68 17.594 19.4375C16.5461 18.937 15.0133 19.4454 15.0368 20.2821C15.0524 20.8139 15.5529 21.0172 16.0925 20.7044C16.5461 20.4385 16.9214 20.4385 17.2499 20.7122C17.3828 20.8295 17.7582 21.3144 18.071 21.7992C18.9625 23.1521 19.4552 23.504 20.4483 23.504C21.4415 23.504 21.9342 23.1521 22.8256 21.7992C23.506 20.767 23.7797 20.5011 24.1863 20.5011C24.6556 20.5011 24.9214 20.7357 25.5549 21.6976C26.4385 23.0426 26.8999 23.418 27.7836 23.5275C28.7533 23.6369 29.4884 23.1286 30.4268 21.7054C30.7474 21.2205 31.0446 20.7982 31.0837 20.7748C31.1385 20.7435 31.1619 21.6819 31.1619 23.504V26.288H20.4483H9.73474V23.504C9.73474 21.7523 9.76602 20.7435 9.81294 20.7748C9.85204 20.7982 10.1414 21.2127 10.462 21.6976C11.3379 23.027 12.026 23.5509 12.9019 23.5509C13.7934 23.5509 14.8413 22.8002 14.7083 22.2528C14.5754 21.721 14.028 21.5959 13.551 21.9869C13.1912 22.2841 12.8784 22.3544 12.5813 22.198C12.2528 22.026 12.0104 21.7445 11.4161 20.8295C10.9078 20.0475 10.3525 19.4845 9.96152 19.3672C9.82076 19.3202 9.80512 19.2733 9.84422 19.07C9.9928 18.3427 10.7279 17.5138 11.4786 17.2244C11.8775 17.068 12.0573 17.068 20.4249 17.068C28.8784 17.0602 28.9723 17.0602 29.4024 17.2244ZM33.3125 27.6878C33.9302 27.938 34.6028 28.6106 34.8217 29.1971L34.9781 29.6115L34.5168 29.8305C33.8833 30.1355 33.4376 30.6125 32.6086 31.8794C31.8344 33.068 31.42 33.506 30.9508 33.6311C30.5441 33.7484 30.3877 33.7406 30.028 33.5685C29.6213 33.3887 29.332 33.0524 28.5187 31.809C28.1433 31.2459 27.6741 30.6125 27.4708 30.4092C26.7592 29.6976 25.7191 29.416 24.7885 29.6897C23.9205 29.94 23.4356 30.3935 22.4972 31.8325C21.6995 33.068 21.504 33.2948 21.0427 33.5216C20.6125 33.7406 20.464 33.7562 20.0417 33.6389C19.6272 33.5216 19.1893 33.0368 18.3682 31.8012C17.5705 30.5812 17.1326 30.1277 16.4757 29.8227C16.1003 29.6428 15.9283 29.6115 15.3652 29.6115C14.1062 29.6194 13.5197 30.0651 12.2997 31.9263C11.4943 33.1541 11.158 33.506 10.6653 33.6389C9.84422 33.8579 9.35937 33.4981 8.29583 31.8872C7.4669 30.6281 6.99769 30.1277 6.36426 29.8227L5.91851 29.6115L6.07492 29.2049C6.37208 28.3916 7.24012 27.6956 8.14725 27.5392C8.35057 27.5079 13.9967 27.4845 20.6829 27.4923L32.8432 27.5001L33.3125 27.6878ZM15.9517 30.9722C16.3662 31.1599 16.6321 31.4727 17.5158 32.8178C18.3056 34.0143 18.681 34.4053 19.3535 34.7259C19.7132 34.8901 19.8931 34.9292 20.4483 34.9292C21.0036 34.9292 21.1834 34.8901 21.5431 34.7259C22.2157 34.4053 22.591 34.0143 23.3809 32.8178C24.2646 31.4727 24.5304 31.1599 24.9449 30.9722C25.5392 30.6985 26.0788 30.8237 26.5793 31.3398C26.7357 31.4962 27.1971 32.1296 27.5959 32.7396C28.7298 34.4366 29.3789 34.9214 30.5363 34.9214C31.7797 34.9292 32.4522 34.4444 33.5627 32.7474C34.1805 31.8012 34.7826 31.0583 34.9312 31.0583C34.9625 31.0583 34.9938 32.3095 34.9938 33.8344V36.6106H33.3594C31.7484 36.6106 31.7171 36.6106 31.5998 36.7826C31.4278 37.025 31.4434 37.416 31.6233 37.635L31.7719 37.8227L35.4552 37.8461L39.1385 37.8696L38.9899 38.1589C38.7865 38.5499 38.4737 38.8315 38.0045 39.0504L37.6135 39.2303H20.4483H3.28313L2.89212 39.0504C2.42291 38.8315 2.11011 38.5499 1.90678 38.1589L1.7582 37.8618L15.5686 37.8461L29.3789 37.8227L29.5275 37.635C29.7074 37.416 29.723 37.025 29.551 36.7826L29.4337 36.6106H17.6644H5.90287V33.7797V30.9488L6.2235 31.2538C6.40336 31.4258 6.87257 32.0592 7.27922 32.6692C8.46006 34.46 9.10131 34.9292 10.3604 34.9214C11.5256 34.9214 12.1824 34.4287 13.3007 32.7239C13.6995 32.114 14.1609 31.4884 14.3173 31.332C14.8256 30.8158 15.3652 30.6985 15.9517 30.9722Z" fill="#DBDBDB"/>
<path d="M12.5183 20.0395C12.3619 20.1646 12.3149 20.2662 12.3149 20.5087C12.3149 20.8997 12.5261 21.1265 12.9015 21.1265C13.2768 21.1265 13.488 20.8997 13.488 20.5087C13.488 20.2662 13.441 20.1646 13.2846 20.0395C13.1673 19.9456 12.9953 19.8752 12.9015 19.8752C12.8076 19.8752 12.6356 19.9456 12.5183 20.0395Z" fill="#127384"/>
<path d="M20.0495 20.0238C19.9087 20.1333 19.8618 20.2506 19.8618 20.4852C19.8618 20.9075 20.0651 21.1265 20.4483 21.1265C20.8315 21.1265 21.0348 20.9075 21.0348 20.4852C21.0348 20.1177 20.8002 19.8752 20.4483 19.8752C20.331 19.8752 20.1512 19.9456 20.0495 20.0238Z" fill="#127384"/>
<path d="M27.6101 20.0395C27.4537 20.1646 27.4067 20.2662 27.4067 20.5087C27.4067 20.8997 27.6179 21.1265 27.9932 21.1265C28.3686 21.1265 28.5798 20.8997 28.5798 20.5087C28.5798 20.2662 28.5328 20.1646 28.3764 20.0395C28.2591 19.9456 28.0871 19.8752 27.9932 19.8752C27.8994 19.8752 27.7274 19.9456 27.6101 20.0395Z" fill="#127384"/>
<path d="M9.8672 31.1212C9.67952 31.3323 9.69516 31.8562 9.89066 32.0361C10.1174 32.2394 10.5867 32.216 10.7665 31.997C10.9542 31.7624 10.9464 31.3323 10.7509 31.1368C10.5476 30.9335 10.0471 30.9256 9.8672 31.1212Z" fill="#127384"/>
<path d="M19.9875 31.1831C19.5808 31.6992 20.0578 32.3561 20.6756 32.145C21.0666 32.0042 21.1839 31.535 20.9102 31.1831C20.6835 30.8938 20.2143 30.8938 19.9875 31.1831Z" fill="#127384"/>
<path d="M30.1443 31.1368C29.9488 31.3323 29.941 31.7624 30.1287 31.997C30.3085 32.216 30.7778 32.2394 31.0045 32.0361C31.2157 31.8484 31.2235 31.2932 31.0202 31.1133C30.8169 30.9256 30.3398 30.9413 30.1443 31.1368Z" fill="#127384"/>
<path d="M12.2761 0.833307C12.0962 1.00535 12.0806 1.08355 12.0806 1.67006C12.0806 2.38169 12.1822 2.62412 12.5185 2.74924C12.7453 2.83526 13.1519 2.71014 13.2536 2.51464C13.3005 2.43644 13.3318 2.05325 13.3318 1.66224C13.3318 0.99753 13.324 0.950609 13.1285 0.802026C12.8469 0.583063 12.5107 0.590883 12.2761 0.833307Z" fill="#FFA633"/>
<path d="M14.6767 2.23303C14.2936 2.63186 14.1919 2.78826 14.1919 2.98376C14.1919 3.31221 14.4969 3.60938 14.8253 3.60938C15.1851 3.60938 16.0687 2.73352 16.0687 2.38161C16.0687 2.01407 15.8028 1.73254 15.4509 1.73254C15.1929 1.73254 15.099 1.7951 14.6767 2.23303Z" fill="#FFA633"/>
<path d="M9.59439 1.991C9.30505 2.29598 9.36761 2.61661 9.7899 3.07018C9.99322 3.28914 10.2591 3.51592 10.3842 3.58631C10.8065 3.80527 11.2992 3.5081 11.2992 3.0389C11.2992 2.82775 11.2132 2.69481 10.8065 2.29598C10.392 1.88152 10.2747 1.81113 10.0401 1.81113C9.85246 1.81113 9.7117 1.86588 9.59439 1.991Z" fill="#FFA633"/>
<path d="M15.3887 4.46956C15.0368 4.61032 14.9508 5.09517 15.2167 5.43925C15.3653 5.63476 15.4122 5.64258 16.116 5.64258C16.984 5.64258 17.1639 5.5331 17.1639 5.03261C17.1639 4.69634 17.117 4.6025 16.8746 4.47738C16.6791 4.37572 15.639 4.3679 15.3887 4.46956Z" fill="#FFA633"/>
<path d="M8.6629 4.54817C8.31099 4.68893 8.20933 5.25198 8.48304 5.54915C8.63162 5.70555 8.72546 5.72119 9.38235 5.72119C10.0236 5.72119 10.1487 5.69773 10.2817 5.56479C10.5085 5.338 10.4928 4.9079 10.2426 4.66547C10.0705 4.49343 9.99232 4.46997 9.44491 4.47779C9.10865 4.47779 8.75674 4.50907 8.6629 4.54817Z" fill="#FFA633"/>
<path d="M27.6432 4.939C27.5103 5.07194 27.4868 5.19706 27.4868 5.83831C27.4868 6.47956 27.5103 6.60469 27.6432 6.73763C27.8465 6.94095 28.2923 6.94877 28.5034 6.73763C28.7146 6.52648 28.7615 6.28406 28.7224 5.63499C28.6989 5.16578 28.6598 5.0563 28.5113 4.93118C28.2688 4.73567 27.8465 4.73567 27.6432 4.939Z" fill="#FFA633"/>
<path d="M25.1711 5.95576C25.0773 5.99486 24.9443 6.10435 24.8739 6.20601C24.6393 6.53445 24.7175 6.72996 25.2962 7.30865C25.7967 7.81696 25.8593 7.84824 26.0939 7.80132C26.4301 7.73876 26.6256 7.49633 26.6256 7.15224C26.6256 6.92546 26.5474 6.80034 26.1799 6.41715C25.7107 5.94794 25.4604 5.83064 25.1711 5.95576Z" fill="#FFA633"/>
<path d="M30.0519 6.32323C29.5436 6.83936 29.4497 7.08178 29.6296 7.42587C29.8877 7.92635 30.263 7.87943 30.8965 7.26946C31.3422 6.84718 31.397 6.76115 31.397 6.48745C31.397 6.09644 31.1858 5.87748 30.787 5.87748C30.5289 5.87748 30.4351 5.94004 30.0519 6.32323Z" fill="#FFA633"/>
<path d="M10.478 6.57343C10.392 6.61253 10.1339 6.83932 9.91496 7.07392C9.57869 7.42583 9.50049 7.55877 9.50049 7.77773C9.50049 8.12182 9.70381 8.36424 10.0323 8.4268C10.2669 8.47373 10.3294 8.44244 10.8299 7.93414C11.4399 7.33199 11.5024 7.12084 11.2053 6.78458C11.002 6.56561 10.7126 6.47959 10.478 6.57343Z" fill="#FFA633"/>
<path d="M14.4264 6.65945C14.3248 6.76111 14.27 6.91752 14.27 7.11302C14.27 7.38673 14.3248 7.47275 14.7705 7.89503C15.052 8.16874 15.3414 8.37988 15.4352 8.37988C15.8653 8.37988 16.2172 7.96542 16.1156 7.57441C16.0921 7.47275 15.8653 7.19122 15.6073 6.9488C15.2163 6.57343 15.099 6.50305 14.8643 6.50305C14.6845 6.50305 14.5281 6.55779 14.4264 6.65945Z" fill="#FFA633"/>
<path d="M30.7235 8.63022C30.5514 8.70842 30.3794 8.99776 30.3794 9.20109C30.3794 9.25583 30.4732 9.41223 30.5827 9.54517C30.7782 9.77978 30.8017 9.7876 31.4742 9.7876C32.3266 9.7876 32.5299 9.6703 32.5299 9.16199C32.5299 8.6615 32.3266 8.53638 31.5211 8.5442C31.177 8.5442 30.8095 8.5833 30.7235 8.63022Z" fill="#FFA633"/>
<path d="M23.8815 8.76308C23.7408 8.87257 23.6938 8.98987 23.6938 9.24011C23.6938 9.74842 23.8972 9.86572 24.7417 9.86572C25.602 9.86572 25.7662 9.77188 25.7662 9.27139C25.7662 8.72398 25.602 8.6145 24.7574 8.6145C24.1943 8.6145 24.0301 8.64578 23.8815 8.76308Z" fill="#FFA633"/>
<path d="M25.7278 10.7962C25.5949 10.8744 25.3368 11.109 25.157 11.3123C24.7738 11.7502 24.719 12.0865 25.0084 12.3524C25.415 12.7278 25.7044 12.6339 26.3456 11.9301C26.8226 11.3983 26.8383 10.9917 26.3847 10.7649C26.1032 10.6163 26.0093 10.6163 25.7278 10.7962Z" fill="#FFA633"/>
<path d="M29.7553 10.804C29.4738 11.0855 29.5442 11.4609 29.9665 11.9066C30.1698 12.1256 30.4357 12.3524 30.5608 12.4227C31.0066 12.6495 31.4758 12.3602 31.4758 11.8519C31.4758 11.5704 30.9831 10.9526 30.6077 10.7649C30.3028 10.6007 29.943 10.6163 29.7553 10.804Z" fill="#FFA633"/>
</svg>
