<svg width="61" height="60" viewBox="0 0 61 60" fill="none" xmlns="http://www.w3.org/2000/svg">
<rect x="34.4277" y="27.4746" width="8.79688" height="2.53" rx="1.265" fill="#127384"/>
<path d="M27.9041 10.1845C27.7103 10.3783 27.7001 10.5211 27.7001 13.4896V16.5908L26.4555 16.6316C25.0784 16.6724 24.6499 16.8152 24.1195 17.3966C22.6913 18.9268 23.7522 21.4057 25.8333 21.4057H26.3739V22.3646V23.3235L24.4153 23.3643C22.4975 23.3949 22.4363 23.4051 21.865 23.6805C21.1714 24.0172 20.7123 24.5374 20.1513 25.6391C19.5392 26.8123 19.6208 27.6385 20.3859 28.0568C20.5287 28.1384 21.4264 28.1996 22.875 28.2302L25.1294 28.2914L25.568 28.5974C26.3025 29.1177 26.8636 30.2296 26.6698 30.7703C26.5882 30.9845 26.5371 30.9947 25.2008 30.9947C24.4357 30.9947 23.7318 31.0355 23.6298 31.0967C23.5278 31.1477 23.385 31.3313 23.3136 31.5048C23.1606 31.8618 23.3136 32.3617 23.6298 32.5249C23.7318 32.5861 24.4867 32.6269 25.3232 32.6269C26.5677 32.6269 26.9044 32.5861 27.241 32.4331C28.8018 31.7292 28.7406 29.3523 27.1186 27.7406C26.7922 27.4243 26.3025 27.0469 26.0169 26.9143C25.5374 26.6694 25.3844 26.6592 23.5482 26.6286C22.4669 26.6082 21.5794 26.5572 21.5794 26.5164C21.5794 26.4756 21.7324 26.2104 21.916 25.9146C22.5281 24.9455 21.712 25.0271 30.6176 24.9965C39.5231 24.9659 38.6254 24.8842 39.3089 25.833L39.6456 26.3022H37.4421C35.0449 26.3022 34.7694 26.3532 34.188 26.8939C33.6881 27.3631 33.5147 27.8732 33.5147 28.9035C33.5147 29.9338 33.6881 30.4438 34.188 30.9131C34.8204 31.5048 34.8612 31.5048 39.5027 31.5048H43.7668L45.0215 33.1165L46.2763 34.7181L31.0052 34.7487C22.6097 34.7589 15.7036 34.7487 15.673 34.7079C15.5812 34.6161 16.1932 33.5348 16.5299 33.1879C17.0093 32.7187 17.4684 32.6269 19.376 32.6269C20.9265 32.6269 21.0898 32.6065 21.2734 32.4229C21.3856 32.3106 21.4978 32.1168 21.5386 31.974C21.6202 31.6476 21.3346 31.1171 21.0184 31.0355C20.8857 31.0049 19.9064 30.9947 18.8557 31.0151C16.9991 31.0457 16.9175 31.0559 16.3054 31.3415C15.4486 31.7292 14.9691 32.28 14.2958 33.6266L13.7348 34.7385L13.0921 34.8099C12.2046 34.9017 11.8068 35.0241 11.2457 35.3812C10.3378 35.9524 10.144 36.3911 8.67502 41.1856L7.34888 45.5007L6.77762 45.9495C5.55349 46.888 4.84961 47.9489 4.84961 48.8466C4.84961 49.2955 4.90061 49.4179 5.14544 49.6729L5.44127 49.9688H30.4136C55.2328 49.9688 55.3756 49.9688 55.7021 49.7647C56.1305 49.4995 56.3142 49.0507 56.304 48.306C56.2835 47.5409 55.7021 46.327 54.8656 45.3375C54.5392 44.9498 54.2331 44.5826 54.1821 44.5214C54.1311 44.4398 54.6412 43.1238 55.5899 40.9204C56.967 37.6968 57.0792 37.3908 57.0792 36.8093C57.0792 35.7484 56.61 35.116 55.6307 34.8711L55.1614 34.7487L55.1206 33.8612C55.09 33.1267 55.0288 32.8921 54.8044 32.4943C54.478 31.9434 54.0393 31.5762 53.3966 31.3313C53.009 31.1885 52.4275 31.1579 49.2448 31.1171L45.552 31.0763L42.7671 27.5263C41.2471 25.5779 39.8496 23.8845 39.6762 23.7621C39.1355 23.3847 38.7479 23.3439 35.9426 23.3439H33.2087V22.3748V21.4057H33.6269C34.2594 21.4057 34.7898 21.2119 35.2591 20.8038C35.8099 20.3448 36.065 19.7837 36.065 19.0288C36.065 17.6721 35.2081 16.7744 33.7697 16.6418L33.1067 16.5806V15.4686C33.1067 14.4281 33.0965 14.3465 32.8516 14.1119C32.5456 13.7957 32.1069 13.7855 31.7397 14.0711C31.4847 14.2751 31.4745 14.3057 31.4745 15.4482V16.6112H30.4034H29.3322V13.561C29.3322 10.6333 29.322 10.5109 29.118 10.2457C28.8528 9.90903 28.2203 9.86823 27.9041 10.1845ZM34.0145 18.3964C34.5042 18.6412 34.5756 19.1308 34.1778 19.5185L33.9329 19.7735H29.8117C25.7925 19.7735 25.6803 19.7633 25.415 19.5593C24.9662 19.2022 25.0886 18.529 25.6598 18.3147C25.7415 18.2841 27.5981 18.2535 29.7709 18.2535C33.0556 18.2433 33.7799 18.2637 34.0145 18.3964ZM31.5765 22.3748V23.3439H29.7913H28.0061V22.3748V21.4057H29.7913H31.5765V22.3748ZM41.6654 28.8525C42.0632 29.3523 42.3897 29.791 42.3897 29.8216C42.3897 29.8522 40.8289 29.8726 38.9315 29.8726C35.4631 29.8726 35.4631 29.8726 35.3101 29.6482C35.2081 29.5155 35.1469 29.2095 35.1469 28.9035C35.1469 28.5974 35.2081 28.2914 35.3101 28.1588C35.4631 27.9344 35.4937 27.9344 38.2072 27.9344H40.9411L41.6654 28.8525ZM52.9886 32.9737C53.3558 33.1675 53.5089 33.5348 53.5089 34.2081V34.7691H50.9892H48.4593L47.7962 33.9326C47.429 33.4736 47.0924 33.0451 47.0516 32.9635C46.9291 32.7595 52.5805 32.7697 52.9886 32.9737ZM55.2838 36.4625C55.5083 36.5543 55.4879 36.8807 55.2022 37.5846L54.9574 38.1865L51.591 38.2375C48.4695 38.2885 48.2145 38.2987 48.0105 38.4823C47.7248 38.7475 47.7146 39.3902 48.0003 39.6452C48.1839 39.7983 48.5511 39.8289 51.2136 39.8697L54.2127 39.9207L53.5905 41.3488C53.2538 42.1343 52.9172 42.93 52.8356 43.1136L52.6928 43.4604L52.3867 43.236C51.9277 42.9096 50.4995 42.2669 49.5814 41.9711C48.0513 41.4916 47.0822 41.359 45.0929 41.359C42.308 41.3692 40.3392 41.7671 37.1463 42.9912C34.7694 43.9093 34.0962 44.0623 32.1886 44.1235C30.8828 44.1643 30.1891 44.1337 28.2101 43.8991C24.2011 43.44 22.4159 43.5421 20.5593 44.3377C19.5188 44.7764 19.3046 44.7866 16.4993 44.5214C14.2448 44.3071 11.0825 44.3377 9.97056 44.5928C9.51151 44.705 9.33809 44.705 9.3687 44.6234C9.3891 44.5622 9.72573 43.4707 10.1134 42.1853L10.8173 39.8697H28.0979H45.3888L45.6234 39.6452C45.96 39.329 45.9498 38.7271 45.5928 38.4517L45.3174 38.2375H28.3529C14.8365 38.2375 11.3783 38.2069 11.3783 38.1049C11.3885 37.5744 12.1434 36.6665 12.6841 36.5441C12.8371 36.5135 13.0105 36.4727 13.0615 36.4523C13.2451 36.3911 55.1206 36.4013 55.2838 36.4625ZM46.7761 43.032C48.3981 43.236 49.9283 43.7461 51.3054 44.552C52.7336 45.3783 54.3555 47.1226 54.58 48.0509L54.6514 48.3366H36.371H18.0906L18.4171 47.9183C19.2026 46.939 20.5287 46.0413 21.8344 45.6129C23.0892 45.2048 24.9254 45.1844 27.9041 45.5211C32.3518 46.0311 34.5654 45.8373 37.4523 44.6642C40.9207 43.2462 44.0626 42.7056 46.7761 43.032ZM15.8974 46.0923C17.7744 46.2556 17.6928 46.2147 17.1827 46.786C16.9481 47.0512 16.6217 47.5103 16.4585 47.7959L16.1524 48.3366H11.4701C6.87963 48.3366 6.78782 48.3366 6.88983 48.1428C7.16526 47.6123 8.522 46.7044 9.4299 46.4392C10.8785 46.0107 13.3369 45.8781 15.8974 46.0923Z" fill="#DBDBDB"/>
<rect x="24.5786" y="17.7852" width="10.417" height="2.51253" rx="1.25626" fill="#FFA633"/>
</svg>
