<svg width="17" height="17" viewBox="0 0 17 17" fill="none" xmlns="http://www.w3.org/2000/svg">
<path d="M13.1667 9.5575V7.16683C13.1667 5.02216 11.71 3.2155 9.73667 2.67216C9.54133 2.18016 9.064 1.8335 8.5 1.8335C7.936 1.8335 7.45867 2.18016 7.26333 2.67216C5.29 3.21616 3.83333 5.02216 3.83333 7.16683V9.5575L2.69533 10.6955C2.63331 10.7573 2.58411 10.8308 2.55059 10.9117C2.51707 10.9925 2.49987 11.0793 2.5 11.1668V12.5002C2.5 12.677 2.57024 12.8465 2.69526 12.9716C2.82029 13.0966 2.98986 13.1668 3.16667 13.1668H13.8333C14.0101 13.1668 14.1797 13.0966 14.3047 12.9716C14.4298 12.8465 14.5 12.677 14.5 12.5002V11.1668C14.5001 11.0793 14.4829 10.9925 14.4494 10.9117C14.4159 10.8308 14.3667 10.7573 14.3047 10.6955L13.1667 9.5575ZM13.1667 11.8335H3.83333V11.4428L4.97133 10.3048C5.03336 10.243 5.08255 10.1696 5.11608 10.0887C5.1496 10.0078 5.16679 9.92106 5.16667 9.8335V7.16683C5.16667 5.32883 6.662 3.8335 8.5 3.8335C10.338 3.8335 11.8333 5.32883 11.8333 7.16683V9.8335C11.8333 10.0108 11.9033 10.1802 12.0287 10.3048L13.1667 11.4428V11.8335ZM8.5 15.1668C8.91287 15.1673 9.31564 15.0392 9.65233 14.8003C9.98902 14.5613 10.2429 14.2234 10.3787 13.8335H6.62133C6.75711 14.2234 7.01099 14.5613 7.34767 14.8003C7.68436 15.0392 8.08713 15.1673 8.5 15.1668Z" fill="#737373"/>
</svg>
