<svg width="40" height="41" viewBox="0 0 40 41" fill="none" xmlns="http://www.w3.org/2000/svg">
<g clip-path="url(#clip0_3584_72058)">
<path d="M31.8516 0.612549C31.6875 0.651611 31.4609 0.729736 31.3437 0.792236C31.2266 0.854736 29.3906 2.65161 27.2656 4.77661L23.3984 8.65161H14.3203H5.23437V5.65161C5.23437 2.88599 5.22656 2.63599 5.09375 2.47974C4.90625 2.24536 4.40625 2.19849 3.67187 2.35474C1.96875 2.7063 0.554687 4.05786 0.117187 5.73755C-0.0625 6.41724 -0.0625 32.0579 0.117187 32.7532C0.492187 34.2219 1.64062 35.4329 3.125 35.9407L3.63281 36.1125L12.9219 36.136L22.2187 36.1594L20.5234 37.8547C18.9453 39.4407 18.8281 39.5813 18.8281 39.8391C18.8281 39.9954 18.8906 40.1985 18.9766 40.3L19.125 40.4875H29.3984C39.3906 40.4875 39.6719 40.4797 39.8359 40.3391L40 40.1907V29.886C40 19.6907 40 19.5891 39.8437 19.4329C39.7422 19.3313 39.5859 19.2766 39.3984 19.2766C39.1406 19.2766 39.0312 19.3625 38.1875 20.1907L37.2656 21.1047V15.0735V9.03442L37.0703 8.84692L36.8828 8.65161H34.5547H32.2266L33.9219 6.94849C34.8516 6.0188 35.6719 5.12817 35.75 4.97974C35.9531 4.5813 35.9375 3.78442 35.7266 3.37817C35.5 2.9563 33.3906 0.878174 33.0469 0.737549C32.6562 0.573486 32.1953 0.526611 31.8516 0.612549ZM33.6641 2.97974C34.8984 4.21411 34.8906 4.19067 34 5.0813L33.3594 5.72192L32.0547 4.41724L30.7422 3.10474L31.2891 2.55005C31.9375 1.88599 32.2109 1.74536 32.5 1.8938C32.6094 1.9563 33.1328 2.44067 33.6641 2.97974ZM3.98437 12.4407C3.98437 18.9407 4.00781 21.3547 4.07031 21.4954C4.20312 21.7766 4.60937 21.9016 4.90625 21.7454C5.03125 21.6829 5.15625 21.5657 5.1875 21.5032C5.21094 21.4329 5.23437 18.7922 5.23437 15.636V9.90161H13.6875H22.1406L20.4844 11.5657C18.9297 13.1282 18.8281 13.2454 18.8281 13.5188C18.8281 13.9016 19.0469 14.1204 19.4297 14.1204C19.7109 14.1204 19.875 13.9719 23.8281 10.0188L27.9297 5.91724L29.2422 7.22974L30.5469 8.53442L24.5078 14.5735L18.4766 20.6047L17.1719 19.3L15.8594 17.9875L17.0703 16.7688C18.1953 15.6438 18.2812 15.5344 18.2812 15.2688C18.2812 14.886 18.0625 14.6672 17.6797 14.6672C17.4141 14.6672 17.2969 14.761 15.8906 16.1594L14.3906 17.6516L13.3906 20.4954L12.3906 23.3391H11.2891C10.2734 23.3391 10.1719 23.3547 10.0391 23.4954C9.83594 23.7219 9.84375 24.1594 10.0625 24.3782L10.2422 24.55H18.6406H27.0469L27.1953 24.3625C27.3672 24.1516 27.3906 23.7454 27.2344 23.5266C27.125 23.386 26.9453 23.3782 21.2344 23.3391L15.3516 23.3L17.0312 22.7219L18.7109 22.136L24.8437 16.0188L30.9766 9.90161H33.5H36.0156V16.1282V22.3625L31.7578 26.6204C29.1875 29.1907 27.5 30.9407 27.4922 31.0344C27.4687 31.3704 27.5156 31.511 27.7031 31.6829C28.1328 32.0657 27.9141 32.261 33.5312 26.6438L38.75 21.425V23.9485V26.4641H38.125C37.5547 26.4641 37.4766 26.4875 37.3047 26.6594C37.0937 26.8625 37.0625 27.0579 37.1953 27.3469C37.3203 27.6204 37.5781 27.7141 38.2031 27.7141H38.75V28.5266V29.3391L38.1172 29.3704C37.5391 29.3938 37.4687 29.4172 37.2969 29.6125C37.0703 29.8782 37.0547 30.1282 37.2734 30.4016C37.4219 30.5891 37.4766 30.6047 38.0937 30.6047H38.75V31.4641V32.3235H38.2031C37.9062 32.3235 37.5781 32.3625 37.4687 32.4094C37.0781 32.5891 37.0234 33.2141 37.3672 33.4563C37.4844 33.5344 37.7344 33.5735 38.1406 33.5735H38.75V34.4329V35.2922H38.125C37.5547 35.2922 37.4766 35.3157 37.3047 35.4875C37.0937 35.6907 37.0625 35.886 37.1953 36.175C37.3203 36.4485 37.5781 36.5422 38.2031 36.5422H38.75V37.9094V39.2766H29.8281H20.8984L23.9297 36.2454C26.8125 33.3625 26.9531 33.2063 26.9531 32.9329C26.9531 32.5891 26.6719 32.3235 26.3047 32.3235C26.1094 32.3235 25.875 32.5266 24.7656 33.6125L23.4609 34.9094L13.6641 34.8782C2.90625 34.8547 3.60156 34.886 2.80469 34.3938C2.32031 34.0969 2.04687 33.8313 1.75781 33.3782C1.35937 32.761 1.22656 32.2454 1.26562 31.5344C1.35937 29.9719 2.60156 28.7063 4.29687 28.4641C5.29687 28.3235 5.23437 28.5032 5.23437 25.6985C5.23437 23.3547 5.23437 23.3079 5.0625 23.1282C4.82812 22.8782 4.42969 22.886 4.17969 23.1438L3.98437 23.3313V25.2766V27.2219L3.46875 27.3469C2.82812 27.511 2.27344 27.7844 1.69531 28.2297L1.25 28.5813V17.4797C1.25 5.12036 1.21094 5.97192 1.78906 5.0813C2.11719 4.57349 2.57812 4.15942 3.125 3.88599C3.44531 3.72192 3.77344 3.59692 3.92969 3.5813C3.96094 3.57349 3.98437 7.56567 3.98437 12.4407ZM31.1719 5.3313L32.4609 6.62036L31.9531 7.12817L31.4453 7.63599L30.1406 6.3313L28.8281 5.0188L29.3125 4.53442C29.5781 4.26099 29.8203 4.04224 29.8437 4.04224C29.8672 4.04224 30.4609 4.62036 31.1719 5.3313ZM16.2891 20.2141C16.8437 20.7688 17.2812 21.2454 17.2578 21.261C17.2344 21.2844 16.8828 21.4172 16.4687 21.5657L15.7109 21.8313L15.1797 21.2922L14.6484 20.761L14.9219 19.9797C15.0703 19.55 15.2109 19.1985 15.2344 19.1985C15.2578 19.1985 15.7344 19.6516 16.2891 20.2141Z" fill="#0A152F"/>
<path d="M34.8829 28.7375C34.6329 28.8782 28.3595 35.1516 28.2345 35.386C28.086 35.675 28.0938 35.8625 28.2892 36.1047L28.4454 36.3079H31.9454H35.4454L35.6095 36.1282C35.7813 35.9485 35.7813 35.9329 35.7813 32.5032C35.7813 29.3391 35.7735 29.05 35.6485 28.8938C35.4767 28.6985 35.0938 28.6204 34.8829 28.7375ZM34.5313 32.9485V35.0579H32.4063H30.2735L32.3829 32.9485C33.5392 31.7844 34.5001 30.8391 34.5079 30.8391C34.5235 30.8391 34.5313 31.7844 34.5313 32.9485Z" fill="#FFA633"/>
<rect x="9.7959" y="23.3171" width="17.5717" height="1.28859" rx="0.644293" fill="#127384"/>
</g>
<defs>
<clipPath id="clip0_3584_72058">
<rect width="40" height="40" fill="white" transform="translate(0 0.298096)"/>
</clipPath>
</defs>
</svg>
