<svg width="41" height="41" viewBox="0 0 41 41" fill="none" xmlns="http://www.w3.org/2000/svg">
<g clip-path="url(#clip0_3584_72150)">
<path d="M29.5048 0.721931C29.3329 0.901619 29.3095 1.01099 29.286 1.69068C29.247 2.66724 29.3407 2.99537 29.7157 3.15162C30.0204 3.28443 30.247 3.23756 30.5048 3.00318C30.6688 2.85474 30.6767 2.77662 30.6767 1.85474C30.6767 0.925056 30.6688 0.854744 30.497 0.698494C30.2313 0.448494 29.747 0.464119 29.5048 0.721931Z" fill="#FFA633"/>
<path d="M22.942 3.40161C22.8405 3.48755 22.7624 3.65942 22.7311 3.87036C22.6842 4.19849 22.692 4.2063 23.3561 4.87817C23.9889 5.5188 24.0436 5.56567 24.3483 5.56567C24.7702 5.56567 25.0514 5.2688 25.0514 4.84692C25.0514 4.58911 24.9811 4.48755 24.403 3.90942C23.8014 3.30786 23.7311 3.26099 23.4342 3.26099C23.2467 3.26099 23.0436 3.31567 22.942 3.40161Z" fill="#FFA633"/>
<path d="M35.6221 3.90942C35.0283 4.51099 34.9736 4.5813 34.9736 4.87036C34.9736 5.30005 35.2471 5.56567 35.6846 5.56567C35.9736 5.56567 36.0518 5.51099 36.6611 4.8938C37.2471 4.29224 37.3174 4.19067 37.3174 3.93286C37.3174 3.5188 37.0439 3.26099 36.6064 3.26099C36.2939 3.26099 36.2314 3.30005 35.6221 3.90942Z" fill="#FFA633"/>
<path d="M29.4268 5.18286C27.9033 5.44067 27.0361 5.88599 26.083 6.8938C25.1377 7.88599 24.6611 9.09692 24.6611 10.5344C24.6611 12.011 25.1533 13.2297 26.1611 14.261C27.2314 15.3625 28.4502 15.8625 30.0127 15.8625C31.583 15.8625 32.6924 15.4016 33.8018 14.2844C34.5127 13.5657 34.833 13.05 35.1455 12.1282C35.3018 11.6594 35.3252 11.425 35.3252 10.5266C35.3252 9.62817 35.3018 9.3938 35.1455 8.92505C34.8721 8.10474 34.5361 7.52661 33.9736 6.92505C33.2158 6.11255 32.3799 5.58911 31.4111 5.33911C30.9268 5.21411 29.7705 5.12036 29.4268 5.18286ZM30.7549 6.65161C31.833 6.87817 32.8408 7.59692 33.4033 8.52661C34.5752 10.4797 33.8018 13.0266 31.7314 14.05C30.1924 14.8079 28.5752 14.5579 27.3096 13.3625C25.6455 11.7844 25.6455 9.2688 27.3096 7.69067C27.8799 7.15161 28.5127 6.81567 29.2314 6.65942C29.8408 6.52661 30.1377 6.5188 30.7549 6.65161Z" fill="#127384"/>
<path d="M20.3173 9.91724C19.9267 10.1047 19.872 10.6672 20.2001 11.0032C20.4267 11.2297 20.4423 11.2297 21.2939 11.2297C22.2314 11.2297 22.4892 11.1594 22.622 10.8625C22.7939 10.4875 22.6689 10.0579 22.3408 9.90942C22.1064 9.80005 20.5439 9.80786 20.3173 9.91724Z" fill="#FFA633"/>
<path d="M37.6689 9.91724C37.4189 10.0579 37.3252 10.2297 37.3252 10.5266C37.3252 11.0891 37.5986 11.2297 38.7236 11.2297C39.583 11.2297 39.5986 11.2297 39.8252 11.0032C39.9814 10.8469 40.0518 10.6985 40.0518 10.5266C40.0518 10.3547 39.9814 10.2063 39.8252 10.05C39.5986 9.82349 39.583 9.82349 38.708 9.82349C38.1924 9.82349 37.7627 9.86255 37.6689 9.91724Z" fill="#FFA633"/>
<path d="M8.55933 10.7219C7.42652 11.0891 6.4109 11.9329 5.87183 12.9563C5.64527 13.386 5.55933 13.4954 5.45777 13.4563C4.35621 12.9954 3.25465 13.1516 2.44996 13.886C1.39527 14.8547 1.2859 16.5422 2.20777 17.6282C2.36402 17.8079 2.48121 17.9641 2.46558 17.9719C2.44996 17.9797 2.27027 18.0735 2.05933 18.175C1.62965 18.3938 1.15308 18.886 0.903085 19.3704C0.770272 19.6204 0.715585 19.8782 0.692147 20.4172C0.660897 21.0657 0.676522 21.175 0.879647 21.6282C1.07496 22.0891 1.38746 22.4172 4.91871 25.9719L8.74683 29.8157L7.0359 29.8391L5.31715 29.8625L4.80152 30.1204C3.87183 30.5813 3.40308 31.3079 3.3484 32.4016C3.30933 33.2844 3.50465 33.8313 4.06715 34.3938C4.7234 35.0422 5.05933 35.1672 6.2859 35.1985L7.31715 35.2297V37.1125C7.31715 38.9407 7.32496 39.0188 7.50465 39.3938C7.7234 39.8625 8.02027 40.1516 8.48902 40.3625C8.77808 40.4954 9.00465 40.5266 9.69996 40.5266C10.6921 40.5266 11.0046 40.4172 11.4734 39.9329C12.0046 39.3782 12.0359 39.2297 12.0671 37.1047L12.0984 35.2141H22.0046H31.9109L31.6843 35.6829C30.8406 37.3704 31.5437 39.4407 33.2312 40.2297C33.6765 40.4407 33.8796 40.4875 34.4734 40.511C35.9812 40.5813 37.1062 39.9172 37.7312 38.5891C37.9656 38.0969 37.9812 38.011 37.9812 37.1985C37.9812 36.3704 37.9734 36.3157 37.7 35.7766L37.4265 35.2141H38.2859C39.0281 35.2141 39.2078 35.1829 39.5437 35.0266C39.7625 34.9329 40.0515 34.7219 40.1921 34.5579C40.6218 34.0657 40.6765 33.8391 40.6765 32.5266C40.6765 31.4485 40.6609 31.3157 40.489 30.9485C40.3875 30.7297 40.1687 30.4407 40.0046 30.3079C39.45 29.8469 39.2625 29.8235 36.5906 29.8235H34.1765L34.239 29.6047C34.2781 29.4875 34.3093 29.1282 34.3093 28.8079C34.3015 27.7922 34.2859 27.7688 31.3562 24.8547C29.8875 23.386 28.6062 22.1829 28.4109 22.0735C27.4656 21.5344 26.239 21.4719 25.2546 21.925C24.7625 22.1438 24.5281 22.3547 22.7156 24.1516C20.5281 26.3235 20.4343 26.386 19.7781 26.2219C19.489 26.1516 19.0359 25.7219 15.9812 22.6672L12.5125 19.1907L12.7468 19.0266C13.5515 18.4563 14.3015 17.3547 14.5515 16.3782C14.7078 15.7766 14.7234 14.7063 14.5906 14.1204C14.2 12.4485 12.8484 11.0735 11.1843 10.6438C10.45 10.4563 9.27808 10.4954 8.55933 10.7219ZM11.4109 12.2375C12.6921 12.8704 13.4734 14.3 13.2546 15.636C13.0906 16.675 12.3484 17.6985 11.4656 18.1204C10.7156 18.4719 10.6843 18.4563 8.59058 16.3625L6.7859 14.55L6.89527 14.1829C7.07496 13.5891 7.61402 12.886 8.1609 12.5032C8.84058 12.0422 9.23121 11.9329 10.1375 11.9563C10.8015 11.9719 10.9421 12.0032 11.4109 12.2375ZM4.76246 14.6985C4.90308 14.761 6.0359 15.8313 7.27808 17.0891C8.52808 18.3391 9.63746 19.4172 9.75465 19.4797C9.87183 19.5422 10.0828 19.5891 10.2234 19.5891C10.5671 19.5969 11.0281 19.8157 11.4421 20.175L11.7703 20.4641L11.5359 20.6829C11.239 20.9641 11.2156 21.3547 11.489 21.675C11.7312 21.9485 12.1843 21.9641 12.5515 21.6985L12.8015 21.5188L14.075 22.7922L15.3484 24.0657L15.3328 24.4485C15.325 24.7844 15.3562 24.8625 15.5515 25.0344C15.7468 25.1985 15.8406 25.2219 16.114 25.1907C16.4265 25.1594 16.4656 25.175 16.864 25.5813L17.2781 26.0032L17.0437 26.1829C16.9109 26.2844 16.325 26.7297 15.7312 27.1672L14.6609 27.9641L8.93433 22.2766C5.79371 19.1516 3.18433 16.5422 3.14527 16.4797C3.01246 16.2532 2.95777 15.8313 3.02808 15.5657C3.23902 14.8079 4.05933 14.3938 4.76246 14.6985ZM3.85621 19.3625C3.98121 19.4016 6.69215 22.0579 9.9734 25.3391L15.8718 31.2297H27.3796H38.8875L39.075 31.425C39.2625 31.6047 39.2703 31.6594 39.2703 32.55C39.2703 33.4641 39.2625 33.4875 39.0671 33.6438L38.8562 33.8079H26.8171H14.7781L8.55152 27.5735C5.12965 24.1516 2.27808 21.2375 2.20777 21.0969C1.92652 20.5266 2.15308 19.761 2.69996 19.4485C3.00465 19.261 3.50465 19.2297 3.85621 19.3625ZM27.5515 23.2219C27.7 23.2922 28.9578 24.4875 30.3406 25.8704C32.5828 28.1047 32.8562 28.4094 32.9109 28.6907C33.0281 29.3235 32.4421 29.9094 31.8093 29.7922C31.5359 29.7375 31.2312 29.4641 29.2234 27.4719C26.4812 24.7454 26.739 24.8625 25.6921 25.8782L25.0046 26.5344L24.3484 25.8782L23.6843 25.2141L24.5828 24.3079C25.6765 23.1985 26.0203 23.0032 26.7703 23.05C27.0515 23.0657 27.4031 23.1438 27.5515 23.2219ZM22.864 28.6907L21.7312 29.8235H19.114H16.489L16.0828 29.4094L15.6765 29.0032L16.989 28.0188L18.2937 27.0422L18.6453 27.261C19.1062 27.55 19.4265 27.636 20.1062 27.636C20.9343 27.636 21.4031 27.4329 22.0984 26.7766L22.6687 26.2375L23.3328 26.9016L23.9968 27.5579L22.864 28.6907ZM28.0984 28.3782L29.5437 29.8235H26.6531H23.7625L25.2078 28.3782C26.0046 27.5813 26.6531 26.9329 26.6531 26.9329C26.6531 26.9329 27.3015 27.5813 28.0984 28.3782ZM11.4578 32.5188L12.7468 33.8079L9.14527 33.7922L5.54371 33.7688L5.25465 33.5422C4.48902 32.9563 4.60621 31.7688 5.4734 31.3782C5.76246 31.2454 6.02027 31.2297 7.98121 31.2297H10.1687L11.4578 32.5188ZM10.6609 36.9641C10.6375 38.6985 10.6375 38.7219 10.45 38.9172C10.2781 39.0969 10.2 39.1204 9.68433 39.1204C9.17652 39.1204 9.08277 39.0969 8.91871 38.925L8.7234 38.7375V36.9719V35.2141H9.70777H10.6843L10.6609 36.9641ZM35.614 35.5032C36.7078 36.0969 36.95 37.5188 36.1296 38.4563C35.7234 38.9172 35.2781 39.1204 34.6921 39.1204C33.8015 39.1204 33.0593 38.5657 32.8171 37.7219C32.325 36.0657 34.0906 34.675 35.614 35.5032Z" fill="#0A152F"/>
<path d="M34.4264 36.5188C33.9107 36.7219 33.817 37.4328 34.2623 37.7688C34.3326 37.8234 34.5201 37.8703 34.6842 37.8703C35.5357 37.8781 35.6217 36.6438 34.7779 36.5109C34.6451 36.4875 34.4889 36.4875 34.4264 36.5188Z" fill="#0A152F"/>
<path d="M23.3564 16.175C22.7783 16.761 22.708 16.8547 22.708 17.1204C22.708 17.5344 22.9814 17.7922 23.4189 17.7922C23.7314 17.7922 23.7939 17.7532 24.4033 17.1438C24.9814 16.5579 25.0518 16.4641 25.0518 16.1985C25.0518 15.7844 24.7783 15.5266 24.3408 15.5266C24.0283 15.5266 23.9658 15.5657 23.3564 16.175Z" fill="#FFA633"/>
<path d="M35.1689 15.7219C35.0283 15.8547 34.9736 15.9954 34.9736 16.1985C34.9736 16.4641 35.0439 16.5579 35.6221 17.1438C36.2314 17.7532 36.2939 17.7922 36.6064 17.7922C37.0439 17.7922 37.3174 17.5344 37.3174 17.1204C37.3174 16.8547 37.2471 16.761 36.6689 16.175C36.0596 15.5657 35.9971 15.5266 35.6846 15.5266C35.4424 15.5266 35.3096 15.5735 35.1689 15.7219Z" fill="#FFA633"/>
<path d="M29.6923 17.9015C29.3408 18.0578 29.247 18.4093 29.2861 19.3625C29.3095 20.0421 29.333 20.1515 29.5048 20.3312C29.7548 20.5968 30.2627 20.6046 30.5048 20.3468C30.6611 20.1828 30.6767 20.0812 30.6767 19.1906C30.6767 18.2765 30.6689 18.1984 30.5048 18.0421C30.2627 17.8234 29.9814 17.7765 29.6923 17.9015Z" fill="#FFA633"/>
</g>
<defs>
<clipPath id="clip0_3584_72150">
<rect width="40" height="40" fill="white" transform="translate(0.676758 0.298096)"/>
</clipPath>
</defs>
</svg>
