<svg width="16" height="16" viewBox="0 0 16 16" fill="none" xmlns="http://www.w3.org/2000/svg">
<g clip-path="url(#clip0_4100_64824)">
<path d="M7.21855 0.0218744C5.3248 0.215625 3.55293 1.075 2.24355 2.43125C1.0748 3.64687 0.343555 5.12187 0.0716797 6.81875C-0.00957031 7.325 -0.00957031 8.68125 0.0716797 9.17188C0.218555 10.0531 0.44668 10.7719 0.824805 11.5469C1.84355 13.6219 3.6748 15.1312 5.90605 15.7281C6.69668 15.9406 7.03105 15.9812 7.9998 15.9844C8.69043 15.9844 8.92793 15.9719 9.20293 15.9281C11.0186 15.625 12.5029 14.8562 13.7498 13.575C14.9123 12.3781 15.6404 10.9156 15.9279 9.20312C16.0092 8.7125 16.0092 7.29375 15.9279 6.79688C15.7654 5.81875 15.4373 4.8625 14.9936 4.08125C13.6967 1.79688 11.4498 0.3125 8.86855 0.0343752C8.59043 0.00312519 7.4748 -0.00625038 7.21855 0.0218744ZM8.79668 0.596875C10.1842 0.7375 11.6623 1.35938 12.7342 2.25313C14.2154 3.49062 15.1404 5.16875 15.3904 7.07187C15.4529 7.55 15.4529 8.45 15.3904 8.925C14.9342 12.3906 12.1998 15.05 8.72168 15.4094C8.23105 15.4594 7.27793 15.4281 6.79668 15.3469C5.5998 15.1438 4.49043 14.6656 3.51543 13.9375C3.10605 13.6344 2.35605 12.8812 2.0498 12.4688C1.30918 11.475 0.84668 10.3719 0.63418 9.10938C0.55293 8.61875 0.55293 7.38125 0.63418 6.89062C0.912305 5.22188 1.64355 3.8125 2.82168 2.66562C3.43105 2.07187 4.00918 1.66562 4.76543 1.29688C6.03418 0.68125 7.35293 0.45 8.79668 0.596875Z" fill="#111111"/>
<path d="M5.99663 1.35934C5.82788 1.45309 5.80913 1.69371 5.95913 1.81246C6.14663 1.95934 6.40601 1.83746 6.40601 1.59996C6.40601 1.39059 6.17788 1.25621 5.99663 1.35934Z" fill="#111111"/>
<path d="M4.82786 1.82188C4.11849 2.19063 3.65599 2.52813 3.10599 3.07501C2.50911 3.66876 2.14661 4.17188 1.79349 4.88751C1.56849 5.34063 1.54661 5.45626 1.67161 5.57813C1.77161 5.68126 1.96224 5.68438 2.05286 5.58438C2.09036 5.54688 2.19661 5.35313 2.29661 5.15626C2.60911 4.52813 2.92786 4.07813 3.42161 3.56563C3.95286 3.01563 4.45599 2.64688 5.15911 2.29688C5.48411 2.13438 5.55911 2.08126 5.59349 2.00313C5.62161 1.93126 5.62161 1.88438 5.59661 1.80938C5.50911 1.55938 5.32786 1.56251 4.82786 1.82188Z" fill="#111111"/>
<path d="M7.20293 2.98442C6.16855 3.15317 5.25293 3.60942 4.4873 4.3438C3.73418 5.06567 3.25918 5.9313 3.0248 7.0063C2.96543 7.28442 2.95605 7.4188 2.95605 8.01567C2.95605 8.60942 2.96543 8.74692 3.0248 9.02192C3.3748 10.6282 4.36543 11.9063 5.79668 12.5938C7.2248 13.2813 8.95918 13.2469 10.3436 12.5094C11.7811 11.7438 12.7842 10.3282 13.0186 8.74692C13.0967 8.2063 13.0686 7.39067 12.9561 6.89067C12.5092 4.93442 11.0061 3.4563 9.0373 3.02817C8.63418 2.94067 7.62168 2.9188 7.20293 2.98442ZM8.35918 3.50005C8.7373 3.53442 9.28105 3.65317 9.28105 3.70005C9.28105 3.7188 9.08418 4.1563 8.84043 4.67192L8.3998 5.60942H7.9998H7.60293L7.15918 4.66567C6.91855 4.1438 6.71855 3.7063 6.71855 3.69067C6.71855 3.6438 7.33105 3.5188 7.71855 3.49067C7.99043 3.4688 8.0498 3.47192 8.35918 3.50005ZM6.66855 4.95317C6.95918 5.57505 7.14043 5.99692 7.1248 6.01567C7.08418 6.06255 6.69355 6.26567 6.67793 6.25005C6.59355 6.14692 5.3748 4.37192 5.3748 4.34692C5.3748 4.28755 6.1248 3.86255 6.1623 3.90005C6.1748 3.91255 6.3998 4.38442 6.66855 4.95317ZM10.4686 4.22505C10.5529 4.2813 10.6248 4.33755 10.6248 4.35317C10.6248 4.36567 10.3686 4.74692 10.0561 5.19692C9.74355 5.64692 9.45293 6.0688 9.40918 6.1313C9.3623 6.19692 9.31543 6.24692 9.29668 6.24692C9.23418 6.25005 8.85918 6.00942 8.86855 5.97192C8.87168 5.95317 9.03105 5.60317 9.22168 5.1938C9.41543 4.78755 9.63105 4.32192 9.70605 4.16255L9.84355 3.8688L10.0779 3.99692C10.2061 4.06567 10.3811 4.1688 10.4686 4.22505ZM5.3498 5.33755C5.58418 5.67505 5.85605 6.06567 5.95293 6.2063L6.12793 6.45942L6.00918 6.64692C5.94355 6.74692 5.85605 6.90317 5.81543 6.99067L5.74043 7.15317L5.59668 7.13755C5.51855 7.12817 5.04668 7.08755 4.5498 7.04692C4.05605 7.0063 3.64043 6.96567 3.63105 6.9563C3.60293 6.92817 3.80918 6.32192 3.94043 6.05005C4.10293 5.70942 4.36855 5.31255 4.65293 4.98442C4.78105 4.83755 4.89355 4.7188 4.90293 4.7188C4.9123 4.7188 5.11543 4.99692 5.3498 5.33755ZM11.3154 4.93755C11.8092 5.48755 12.1467 6.08755 12.3436 6.77192L12.3998 6.96567L12.2404 6.98442C12.1498 6.9938 11.7342 7.02817 11.3123 7.06255C10.8904 7.09692 10.4811 7.1313 10.4029 7.14067L10.2592 7.1563L10.2029 7.01255C10.1717 6.93442 10.0873 6.77817 10.0123 6.66567L9.8748 6.45942L10.3654 5.75317C10.6373 5.36567 10.9061 4.97505 10.9686 4.88442C11.0279 4.7938 11.0873 4.72192 11.0998 4.7188C11.1123 4.7188 11.2092 4.81567 11.3154 4.93755ZM8.3248 6.24067C8.39355 6.37192 8.51855 6.47505 8.8373 6.6563C9.04668 6.77817 9.17168 6.82505 9.28418 6.83755C9.45605 6.85317 9.51855 6.91255 9.65605 7.18442L9.7248 7.32192L9.65918 7.43755C9.5998 7.54067 9.59355 7.6063 9.59355 7.98755C9.59355 8.35942 9.60293 8.43442 9.65918 8.55317L9.7248 8.68755L9.6123 8.88442C9.5123 9.06567 9.49355 9.0813 9.41543 9.07192C9.3498 9.06255 9.2123 9.12505 8.85918 9.32817C8.25293 9.67817 8.25293 9.67817 8.21855 9.7688C8.19043 9.83755 8.17168 9.8438 7.97793 9.8438C7.74043 9.8438 7.72168 9.83442 7.65605 9.7063C7.56855 9.53755 6.8998 9.1563 6.6873 9.1563C6.5873 9.1563 6.55293 9.13755 6.4873 9.05317C6.44355 8.99692 6.37793 8.88442 6.34355 8.8063L6.28105 8.65942L6.34355 8.5563C6.3998 8.46567 6.40605 8.40005 6.40605 8.00005C6.40605 7.59692 6.3998 7.53442 6.34043 7.44067L6.2748 7.33442L6.38105 7.12817C6.48105 6.94067 6.49668 6.92192 6.58105 6.9313C6.7123 6.9438 7.71543 6.36255 7.7748 6.24067C7.81543 6.15942 7.8248 6.1563 8.04668 6.1563C8.26855 6.1563 8.28105 6.15942 8.3248 6.24067ZM4.6623 7.62505C5.26855 7.67505 5.78105 7.7188 5.80293 7.7188C5.83418 7.7188 5.84355 7.7938 5.84355 8.00005C5.84355 8.24692 5.8373 8.2813 5.79043 8.2813C5.75918 8.2813 5.23418 8.32505 4.6248 8.37505C4.01543 8.42817 3.5123 8.4688 3.50918 8.4688C3.50293 8.4688 3.4998 8.2563 3.4998 8.00005C3.4998 7.72817 3.5123 7.5313 3.52793 7.5313C3.54668 7.5313 4.05605 7.57192 4.6623 7.62505ZM12.4998 8.00005C12.4998 8.2563 12.4967 8.4688 12.4936 8.4688C12.4873 8.4688 11.9873 8.42505 11.3779 8.37505C10.7686 8.32192 10.2467 8.2813 10.2154 8.2813C10.1623 8.2813 10.1561 8.25317 10.1561 8.00005V7.7188L10.2436 7.71567C10.2904 7.71567 10.7717 7.67505 11.3123 7.62505C11.8529 7.57817 12.3436 7.53755 12.3998 7.53442L12.4998 7.5313V8.00005ZM5.79355 8.97505C5.8248 9.04692 5.90918 9.20317 5.9873 9.32192L6.12793 9.54067L6.0373 9.6688C5.9873 9.74067 5.71855 10.1282 5.4373 10.5313C5.15918 10.9344 4.9248 11.2719 4.91855 11.2782C4.8998 11.3 4.60293 10.9719 4.41855 10.7313C4.32793 10.6125 4.18105 10.3938 4.09355 10.2469C3.86855 9.8688 3.57793 9.10005 3.6373 9.04067C3.65293 9.02505 5.29668 8.8688 5.6748 8.84692C5.72793 8.8438 5.75605 8.87505 5.79355 8.97505ZM11.4623 8.95317C11.9498 8.99067 12.3561 9.03442 12.3654 9.0438C12.4186 9.09692 12.1217 9.8813 11.9029 10.2532C11.6998 10.6032 11.1248 11.325 11.0873 11.2813C11.0779 11.2719 10.8029 10.875 10.4717 10.4L9.87168 9.53442L10.0279 9.30005C10.1123 9.1688 10.1998 9.01255 10.2186 8.95317L10.2561 8.8438L10.4154 8.86255C10.5061 8.87192 10.9748 8.91255 11.4623 8.95317ZM7.1498 9.98755C7.15605 9.99067 6.94043 10.4657 6.66855 11.0375L6.17793 12.0844L5.77793 11.8532L5.37793 11.6188L5.5873 11.3188C5.70293 11.15 5.99668 10.725 6.24355 10.3688L6.69043 9.72505L6.91543 9.85317C7.04043 9.92192 7.14355 9.9813 7.1498 9.98755ZM10.0092 10.7282L10.6529 11.6594L10.4373 11.7969C10.3186 11.8719 10.1373 11.9782 10.0342 12.0313L9.84355 12.125L9.75293 11.9313C9.70605 11.8219 9.4873 11.3563 9.26855 10.8938C9.0498 10.4344 8.86855 10.0407 8.86543 10.025C8.8623 10.0063 8.95918 9.9313 9.07793 9.85942C9.2373 9.76255 9.30605 9.73755 9.33105 9.76255C9.3498 9.7813 9.65605 10.2157 10.0092 10.7282ZM8.84355 11.3282C9.08418 11.8438 9.2873 12.2782 9.29043 12.2969C9.29355 12.3125 9.15605 12.3594 8.98418 12.4C8.59355 12.4907 7.82168 12.525 7.43105 12.4719C7.13105 12.4282 6.77793 12.3469 6.7373 12.3125C6.7248 12.2969 6.9123 11.8594 7.15605 11.3375L7.60293 10.3907H8.00293H8.3998L8.84355 11.3282Z" fill="#111111"/>
<path d="M7.78398 6.93748C7.44648 7.00935 7.17773 7.2281 7.02148 7.55623C6.94336 7.72498 6.92773 7.79373 6.92773 7.99998C6.92773 8.20623 6.94336 8.27498 7.02148 8.44373C7.23086 8.8906 7.69336 9.1406 8.16523 9.06248C9.05273 8.91873 9.39023 7.84373 8.74336 7.21248C8.50586 6.98123 8.11523 6.86873 7.78398 6.93748ZM8.25273 7.54998C8.42773 7.6406 8.55586 7.9031 8.51211 8.08435C8.42773 8.44373 8.06211 8.60935 7.74648 8.43435C7.58711 8.34373 7.49961 8.1906 7.49961 8.00623C7.49961 7.59998 7.89336 7.36248 8.25273 7.54998Z" fill="#111111"/>
<path d="M13.9467 10.4125C13.9123 10.4531 13.8092 10.6375 13.7186 10.8219C13.5342 11.2031 13.2279 11.6812 12.9467 12.0312C12.7248 12.3031 12.1936 12.825 11.9217 13.0344C11.4123 13.425 10.7217 13.8 10.0936 14.025C9.79043 14.1312 9.7623 14.15 9.70918 14.2594C9.65293 14.3719 9.65293 14.3781 9.70918 14.4906C9.7998 14.6781 9.89668 14.6875 10.3029 14.55C10.4873 14.4844 10.7998 14.3562 10.9936 14.2656C12.4061 13.5906 13.5092 12.5094 14.2029 11.125C14.4311 10.6687 14.4529 10.5437 14.3279 10.4219C14.2279 10.3187 14.0373 10.3156 13.9467 10.4125Z" fill="#111111"/>
</g>
<defs>
<clipPath id="clip0_4100_64824">
<rect width="16" height="16" fill="white"/>
</clipPath>
</defs>
</svg>
