<svg width="17" height="16" viewBox="0 0 17 16" fill="none" xmlns="http://www.w3.org/2000/svg">
<g clip-path="url(#clip0_4100_64801)">
<path d="M8.19766 0.953174V1.9063H7.68828C7.41016 1.9063 7.06016 1.92192 6.91641 1.93755C5.29766 2.13442 3.85703 2.83442 2.71328 3.9813C1.59141 5.10942 0.922656 6.46567 0.710156 8.0313C0.653906 8.45317 0.653906 9.42192 0.710156 9.8438C0.985156 11.8875 2.10078 13.6719 3.83828 14.8407C4.72266 15.4344 5.80703 15.8313 6.91641 15.9688C7.25391 16.0094 8.19766 16.0094 8.54141 15.9688C9.52578 15.85 10.5414 15.4969 11.3664 14.9938C12.9383 14.0344 14.0914 12.4875 14.5383 10.7407C14.6977 10.125 14.7352 9.83755 14.7508 9.13442L14.7664 8.4688H15.7195H16.6758L16.657 7.7563C16.6383 7.00942 16.5914 6.6563 16.4383 6.0438C16.1602 4.95942 15.6695 3.96255 14.957 3.04692C14.2383 2.12192 13.2727 1.34692 12.182 0.812549C11.0383 0.250049 9.97578 4.86374e-05 8.74141 4.86374e-05H8.19766V0.953174ZM9.80703 1.05005C12.4164 1.47192 14.607 3.39067 15.3977 5.94067C15.5414 6.4063 15.6977 7.21255 15.6977 7.49067C15.6977 7.52192 15.4852 7.5313 14.682 7.5313H13.6695L13.6352 7.39692C13.2633 5.92817 12.282 4.5938 10.9633 3.76567C10.4727 3.4563 9.80391 3.16567 9.26953 3.0313L9.13516 2.99692V1.9813V0.962548L9.33203 0.984424C9.43828 0.993798 9.65391 1.02505 9.80703 1.05005ZM8.01953 2.87505H8.19766V3.3438V3.80942L8.31641 3.82817C8.37891 3.84067 8.56953 3.87817 8.73828 3.90942C10.3258 4.22192 11.6664 5.27505 12.3727 6.76567C12.5945 7.22817 12.7164 7.6563 12.8383 8.35005L12.857 8.4688H13.3227H13.7914L13.7945 8.6938C13.7977 9.2313 13.7852 9.52192 13.7414 9.8063C13.3445 12.4938 11.2539 14.5844 8.57266 14.9844C8.20078 15.0407 7.37266 15.05 7.00391 15.0032C5.85391 14.8532 4.72891 14.3657 3.85391 13.6407C2.67266 12.6563 1.91016 11.3032 1.68203 9.7813C1.61641 9.35005 1.61641 8.52505 1.68203 8.0938C2.06953 5.49692 4.02578 3.46255 6.61328 2.96567C6.94766 2.90005 7.64453 2.84067 7.77578 2.86255C7.81016 2.8688 7.91953 2.87505 8.01953 2.87505Z" fill="#111111"/>
<path d="M6.98213 4.76868C6.83838 4.79368 6.57588 4.86243 6.39775 4.9218C5.7415 5.14055 5.25088 5.4468 4.74463 5.95305C3.9165 6.77805 3.51025 7.7593 3.51025 8.93743C3.51025 9.44993 3.56963 9.8468 3.7165 10.2812C4.13838 11.5468 5.13838 12.5406 6.41025 12.9562C7.21025 13.2187 8.15713 13.2281 8.979 12.9812C10.2603 12.5937 11.3228 11.5531 11.7446 10.2687C11.8915 9.8218 11.9478 9.44993 11.9478 8.93743C11.9478 7.76243 11.5446 6.7843 10.7134 5.94993C10.0759 5.31243 9.29775 4.90618 8.44775 4.76555C8.08213 4.70618 7.3415 4.7093 6.98213 4.76868ZM7.26025 6.15618V6.59368H7.729H8.19775V6.15618C8.19775 5.64993 8.1665 5.68118 8.56025 5.78118C8.80713 5.8468 9.42588 6.13118 9.57275 6.2468L9.65088 6.3093L9.33838 6.62493L9.02588 6.93743L9.379 7.28743L9.729 7.64055L10.0415 7.32805L10.3571 7.01555L10.4196 7.09368C10.5353 7.24055 10.8196 7.8593 10.8853 8.10618C10.9853 8.49993 11.0165 8.46868 10.5103 8.46868H10.0728V8.93743V9.40618H10.5103C11.0165 9.40618 10.9853 9.37493 10.8853 9.76868C10.8196 10.0156 10.5353 10.6343 10.4196 10.7812L10.3571 10.8593L10.0415 10.5468L9.729 10.2343L9.379 10.5874L9.02588 10.9374L9.33838 11.2499L9.65088 11.5656L9.57275 11.6281C9.42588 11.7437 8.80713 12.0281 8.56025 12.0937C8.1665 12.1937 8.19775 12.2249 8.19775 11.7187V11.2812H7.729H7.26025V11.7187C7.26025 12.2249 7.2915 12.1937 6.89775 12.0937C6.65088 12.0281 6.03213 11.7437 5.88525 11.6281L5.80713 11.5656L6.11963 11.2499L6.43213 10.9374L6.079 10.5874L5.729 10.2343L5.4165 10.5468L5.10088 10.8593L5.03838 10.7812C4.92275 10.6343 4.63838 10.0156 4.57275 9.76868C4.47275 9.37493 4.4415 9.40618 4.94775 9.40618H5.38525V8.93743V8.46868H4.94775C4.4415 8.46868 4.47275 8.49993 4.57275 8.10618C4.63838 7.8593 4.92275 7.24055 5.03838 7.09368L5.10088 7.01555L5.4165 7.32805L5.729 7.64055L6.079 7.28743L6.43213 6.93743L6.11963 6.62493L5.80713 6.3093L5.88525 6.2468C6.02588 6.1343 6.64775 5.8468 6.88525 5.7843C7.28838 5.67805 7.26025 5.6468 7.26025 6.15618Z" fill="#111111"/>
<path d="M7.2415 7.60312C6.65713 7.825 6.32275 8.3125 6.32275 8.9375C6.32275 9.51875 6.60713 9.96875 7.13213 10.2281C7.33213 10.325 7.354 10.3281 7.729 10.3281C8.11025 10.3281 8.12588 10.325 8.33838 10.2219C8.62588 10.0812 8.87275 9.83437 9.01338 9.54688C9.1165 9.33437 9.11963 9.31875 9.11963 8.9375C9.11963 8.55625 9.1165 8.54062 9.01338 8.32812C8.87275 8.04062 8.62588 7.79375 8.33838 7.65625C8.13525 7.55625 8.09463 7.54688 7.77588 7.54062C7.479 7.53125 7.40713 7.54062 7.2415 7.60312ZM7.96963 8.5625C8.2415 8.725 8.229 9.18125 7.95088 9.32812C7.64463 9.48438 7.2915 9.27812 7.2915 8.94375C7.2915 8.67813 7.4665 8.5 7.729 8.5C7.81338 8.5 7.91025 8.525 7.96963 8.5625Z" fill="#111111"/>
</g>
<defs>
<clipPath id="clip0_4100_64801">
<rect width="16" height="16" fill="white" transform="translate(0.666504)"/>
</clipPath>
</defs>
</svg>
