<svg width="33" height="33" viewBox="0 0 33 33" fill="none" xmlns="http://www.w3.org/2000/svg">
<path d="M6.38024 4.11507C5.84899 4.25882 5.42399 4.50882 5.01149 4.92132C4.79899 5.13382 4.55524 5.45257 4.46149 5.63382C4.09274 6.35882 4.11149 5.77132 4.11149 16.7088C4.11149 27.6463 4.09274 27.0588 4.46149 27.7838C4.67399 28.2026 5.30524 28.8338 5.72399 29.0463C6.44899 29.4151 5.86149 29.3963 16.799 29.3963C27.7802 29.3963 27.174 29.4151 27.8865 29.0338C28.3115 28.8088 28.9302 28.1901 29.1365 27.7838C29.5052 27.0588 29.4865 27.6463 29.4865 16.7088C29.4865 5.80257 29.5052 6.35882 29.1427 5.65257C28.924 5.20882 28.3615 4.63382 27.9365 4.40882C27.1677 3.99632 27.8552 4.02132 16.7677 4.02757C8.31774 4.02757 6.65524 4.04632 6.38024 4.11507ZM16.1115 6.49632C16.1115 7.52132 16.1052 7.59632 16.0052 7.55257C15.774 7.46507 15.0677 7.33382 14.799 7.33382C13.649 7.33382 12.4365 8.04007 11.874 9.02757C11.6302 9.45882 11.424 10.2276 11.424 10.7088C11.424 11.1901 11.6302 11.9588 11.874 12.3901C12.4365 13.3776 13.649 14.0838 14.799 14.0838C15.0677 14.0838 15.774 13.9526 16.0052 13.8651C16.1052 13.8213 16.1115 13.8963 16.1115 14.9213V16.0213H14.199H12.2865L12.1115 16.2026C11.7677 16.5463 11.7865 16.8526 12.1865 17.3151C12.3302 17.4776 12.5115 17.7651 12.599 17.9526C12.7302 18.2401 12.749 18.3526 12.724 18.7963C12.6927 19.3776 12.5552 19.7026 12.1802 20.0776C11.7865 20.4713 11.4177 20.6151 10.799 20.6151C10.1802 20.6151 9.81149 20.4713 9.41774 20.0776C9.04274 19.7026 8.90524 19.3776 8.87399 18.7963C8.84899 18.3526 8.86774 18.2401 8.99899 17.9526C9.08649 17.7651 9.26774 17.4776 9.41149 17.3151C9.81149 16.8526 9.83024 16.5463 9.48649 16.2026L9.31149 16.0213H7.39899H5.48649V11.4713C5.48649 6.22757 5.46149 6.47132 6.01149 5.92132C6.55524 5.37757 6.29274 5.40257 11.5365 5.40257L16.1115 5.39632V6.49632ZM26.924 5.49632C27.1677 5.57132 27.3365 5.67757 27.5865 5.92132C28.1365 6.47132 28.1115 6.22757 28.1115 11.4713V16.0213H27.0115C25.9865 16.0213 25.9115 16.0151 25.9552 15.9088C26.0427 15.6838 26.174 14.9776 26.174 14.7088C26.174 13.5588 25.4677 12.3463 24.4802 11.7838C24.049 11.5401 23.2802 11.3338 22.799 11.3338C22.3177 11.3338 21.549 11.5401 21.1177 11.7838C20.6365 12.0588 20.0615 12.6588 19.8115 13.1463C19.5927 13.5838 19.424 14.2588 19.424 14.7088C19.424 14.9776 19.5552 15.6838 19.6427 15.9088C19.6865 16.0151 19.6115 16.0213 18.5865 16.0213H17.4865V14.1088V12.1963L17.3052 12.0213C16.9615 11.6776 16.6552 11.6963 16.1927 12.0963C15.424 12.7588 14.499 12.8463 13.7177 12.3276C13.1865 11.9776 12.8615 11.3588 12.8615 10.7088C12.8615 10.0588 13.1865 9.44007 13.7177 9.09007C14.5052 8.56507 15.4677 8.65882 16.199 9.33382C16.424 9.54007 16.549 9.60882 16.7677 9.62757C17.024 9.65882 17.0615 9.64632 17.2677 9.44007L17.4865 9.22132V7.30882V5.39632H22.0365C26.0052 5.39632 26.6302 5.40882 26.924 5.49632ZM23.6365 12.9526C24.324 13.2901 24.6802 13.8401 24.724 14.6213C24.749 15.0651 24.7302 15.1776 24.599 15.4651C24.5115 15.6526 24.3302 15.9401 24.1865 16.1026C23.7865 16.5651 23.7677 16.8713 24.1115 17.2151L24.2865 17.3963H26.199H28.1115V21.9463C28.1115 27.1901 28.1365 26.9463 27.5865 27.4963C27.0365 28.0463 27.2802 28.0213 22.0365 28.0213H17.4865V26.9213C17.4865 25.8963 17.4927 25.8213 17.599 25.8651C17.824 25.9526 18.5302 26.0838 18.799 26.0838C19.949 26.0838 21.1615 25.3776 21.724 24.3901C21.9677 23.9588 22.174 23.1901 22.174 22.7088C22.174 22.2276 21.9677 21.4588 21.724 21.0276C21.1615 20.0401 19.949 19.3338 18.799 19.3338C18.5302 19.3338 17.824 19.4651 17.599 19.5526C17.4927 19.5963 17.4865 19.5213 17.4865 18.4963V17.3963H19.399H21.3115L21.4865 17.2151C21.8302 16.8713 21.8115 16.5651 21.4115 16.1026C21.0177 15.6463 20.8615 15.2588 20.8677 14.7401C20.8677 14.4963 20.9052 14.1963 20.949 14.0651C21.1427 13.5338 21.599 13.0776 22.1615 12.8651C22.524 12.7276 23.2615 12.7713 23.6365 12.9526ZM7.64274 17.5026C7.55524 17.7338 7.42399 18.4401 7.42399 18.7088C7.42399 19.9151 8.18649 21.1651 9.23649 21.6963C9.67399 21.9151 10.349 22.0838 10.799 22.0838C12.6177 22.0838 14.174 20.5276 14.174 18.7088C14.174 18.4401 14.0427 17.7338 13.9552 17.5026C13.9115 17.4026 13.9865 17.3963 15.0115 17.3963H16.1115V19.3088V21.2213L16.324 21.4338C16.4927 21.6026 16.5865 21.6463 16.7865 21.6463C16.999 21.6463 17.099 21.5963 17.4052 21.3338C18.3052 20.5588 19.3427 20.5713 20.149 21.3651C20.5865 21.7963 20.7365 22.1463 20.7365 22.7151C20.7365 23.4838 20.3302 24.1213 19.6365 24.4651C18.9177 24.8213 18.099 24.7151 17.5052 24.1838C16.949 23.6901 16.6677 23.6401 16.324 23.9838L16.1115 24.1963V26.1088V28.0213H11.5615C6.31774 28.0213 6.56149 28.0463 6.01149 27.4963C5.46149 26.9463 5.48649 27.1901 5.48649 21.9463V17.3963H6.58649C7.61149 17.3963 7.68649 17.4026 7.64274 17.5026Z" fill="white"/>
</svg>
