<svg width="25" height="25" viewBox="0 0 25 25" fill="none" xmlns="http://www.w3.org/2000/svg">
<g clip-path="url(#clip0_3380_116506)">
<path d="M5.97422 0.798046C5.83828 0.849609 5.66016 0.933983 5.57109 0.985546C5.31797 1.14492 4.93828 1.58086 4.80234 1.8668C4.67578 2.13398 4.67578 2.15273 4.66172 3.29648L4.64766 4.45898H3.92109C3.01641 4.45898 2.83828 4.52461 2.61797 4.96055C2.55234 5.08711 2.54297 5.30742 2.54297 6.46523V7.82461L2.08828 7.84336C1.69453 7.85742 1.58672 7.88086 1.31953 8.01211C0.939844 8.19492 0.527344 8.61211 0.349219 8.9918L0.222656 9.26367V16.2715V23.2793L0.372656 23.5887C0.560156 23.9684 0.977344 24.3809 1.35703 24.559L1.62891 24.6855H12.1992H22.7695L23.0789 24.5355C23.4586 24.348 23.8711 23.9309 24.0492 23.5512L24.1758 23.2793V16.2715V9.26367L24.0258 8.9543C23.8383 8.57461 23.4211 8.16211 23.0414 7.98398L22.7695 7.85742L16.9945 7.84336L11.2148 7.83398V6.46992C11.2148 5.22773 11.2055 5.09648 11.1258 4.93711C10.9148 4.5293 10.732 4.45898 9.83672 4.45898H9.11016L9.09609 3.29648L9.08203 2.13867L8.93203 1.8293C8.74453 1.44961 8.32734 1.03711 7.94766 0.858984C7.69453 0.741796 7.62891 0.732422 6.94922 0.718359C6.32578 0.708984 6.18516 0.723045 5.97422 0.798046ZM7.51641 1.51055C7.77891 1.59023 8.21484 2.01211 8.30391 2.2793C8.34609 2.40117 8.37422 2.81367 8.38828 3.46055L8.41172 4.45898H6.87891H5.34609L5.36953 3.46055C5.38359 2.81836 5.41172 2.40117 5.45391 2.28398C5.53359 2.05898 5.86641 1.68398 6.08203 1.58086C6.44297 1.40742 7.06641 1.3793 7.51641 1.51055ZM10.4273 5.24648C10.5164 5.33555 10.5164 10.3793 10.4273 10.4684C10.3383 10.5574 3.41953 10.5574 3.33047 10.4684C3.28359 10.4215 3.26484 9.89648 3.25547 7.98398C3.24609 6.65273 3.25547 5.49023 3.26953 5.40586C3.28828 5.30742 3.33516 5.23711 3.40078 5.20898C3.45703 5.18555 5.00391 5.17148 6.93516 5.17617C9.67734 5.18555 10.3805 5.19961 10.4273 5.24648ZM2.54297 9.12305V9.70898H1.74609C1.18359 9.70898 0.949219 9.69492 0.949219 9.65742C0.949219 9.36211 1.31484 8.85586 1.62891 8.70586C1.82109 8.61211 2.11172 8.55117 2.36953 8.5418L2.54297 8.53711V9.12305ZM22.6242 8.63086C22.9898 8.7668 23.3555 9.18867 23.4305 9.56367L23.4633 9.70898H17.3367H11.2148V9.12305V8.53711L16.8305 8.54648C21.5602 8.56055 22.4695 8.57461 22.6242 8.63086ZM2.54297 10.5059C2.54297 10.7355 2.76328 11.0355 3.02109 11.1668C3.18984 11.2512 3.35859 11.2559 6.87891 11.2559C10.8352 11.2559 10.6805 11.2652 10.9523 11.0262C11.0648 10.9277 11.2148 10.6324 11.2148 10.5059V10.4121H17.3555H23.4961V11.4668V12.5215H12.1992H0.902344V11.4668V10.4121H1.72266C2.51953 10.4121 2.54297 10.4168 2.54297 10.5059ZM23.4867 18.0855C23.4727 22.173 23.4586 22.9793 23.4023 23.1387C23.2992 23.4246 22.868 23.8324 22.582 23.9168C22.2305 24.0152 2.16797 24.0152 1.81641 23.9168C1.53047 23.8324 1.09922 23.4246 0.996094 23.1387C0.939844 22.9793 0.925781 22.173 0.911719 18.0855L0.897656 13.2246H12.1992H23.5008L23.4867 18.0855Z" fill="white"/>
<path d="M6.54609 6.44648C6.11484 6.63398 6.03047 7.28086 6.38672 7.62305L6.52734 7.75898V8.45273C6.52734 9.08555 6.53672 9.15586 6.62109 9.24023C6.67734 9.29648 6.77578 9.33398 6.87891 9.33398C6.98203 9.33398 7.08047 9.29648 7.13672 9.24023C7.22109 9.15586 7.23047 9.08555 7.23047 8.45273V7.75898L7.37109 7.62305C7.63359 7.36992 7.67578 6.95742 7.46484 6.65742C7.27734 6.39961 6.86953 6.30586 6.54609 6.44648Z" fill="white"/>
<path d="M15.1383 15.4184C15.068 15.498 15.0586 15.6809 15.0586 17.1012C15.0586 18.5871 15.0633 18.6996 15.143 18.7699C15.2227 18.8402 15.5039 18.8496 18.232 18.8496C21.0773 18.8496 21.2367 18.8449 21.307 18.7652C21.3773 18.6855 21.3867 18.5027 21.3867 17.0824C21.3867 15.5965 21.382 15.484 21.3023 15.4137C21.2227 15.3434 20.9414 15.334 18.2133 15.334C15.368 15.334 15.2086 15.3387 15.1383 15.4184ZM20.6836 17.0918V18.1465H18.2227H15.7617V17.0918V16.0371H18.2227H20.6836V17.0918Z" fill="white"/>
<path d="M3.09223 19.8713C2.98441 19.9932 2.9891 20.312 3.09691 20.4104C3.1766 20.4807 3.41098 20.4901 5.48285 20.4901C8.07504 20.4901 7.93441 20.5088 7.93441 20.1291C7.93441 19.7682 8.0516 19.787 5.4641 19.787C3.29848 19.787 3.16254 19.7916 3.09223 19.8713Z" fill="white"/>
<path d="M3.09223 21.2777C2.98441 21.3996 2.9891 21.7184 3.09691 21.8168C3.1766 21.8918 3.75316 21.8965 10.4047 21.8965C17.3375 21.8965 17.6282 21.8918 17.6985 21.8121C17.8063 21.6902 17.8016 21.3715 17.6938 21.273C17.6141 21.198 17.0375 21.1934 10.386 21.1934C3.45316 21.1934 3.16254 21.198 3.09223 21.2777Z" fill="white"/>
</g>
<defs>
<clipPath id="clip0_3380_116506">
<rect width="24" height="24" fill="white" transform="translate(0.199219 0.708984)"/>
</clipPath>
</defs>
</svg>
