<svg width="25" height="25" viewBox="0 0 25 25" fill="none" xmlns="http://www.w3.org/2000/svg">
<g clip-path="url(#clip0_3380_116486)">
<path d="M11.4815 0.896517C10.9518 1.06527 10.5487 1.56683 10.4315 2.20433C10.4034 2.34495 10.3847 3.21214 10.3847 4.14495V5.83245L10.1409 5.59808C9.86903 5.34495 9.40028 5.12933 9.02528 5.08245C8.65028 5.04027 8.30341 5.17151 7.99872 5.48089C7.68466 5.79495 7.52997 6.10433 7.33778 6.79339C7.00028 7.98401 6.80341 9.26839 6.51747 12.0996C6.35341 13.7168 6.18466 14.9684 6.04403 15.6387C5.94091 16.1168 5.96435 16.0934 5.73466 15.995C5.22372 15.77 4.76903 15.845 4.3706 16.2153C4.12216 16.445 2.9081 18.2215 2.71591 18.6387C2.51435 19.0653 2.59872 19.5387 2.92685 19.8668C3.11903 20.0637 9.75185 24.4746 9.96278 24.5543C10.2206 24.6434 10.6425 24.6293 10.8534 24.5215C11.1065 24.395 11.2753 24.1746 11.9597 23.0965C12.7237 21.8918 12.7987 21.7325 12.7987 21.3059C12.794 21.034 12.7753 20.9403 12.6675 20.7621C12.6018 20.645 12.4753 20.4903 12.3956 20.42L12.2456 20.2981L12.78 19.7731C13.5581 19.009 14.3222 18.4887 15.3065 18.0575L15.7987 17.8418L17.1347 17.8137C18.5597 17.7762 18.7847 17.7434 19.2487 17.5137C19.8675 17.1996 20.2284 16.5621 20.2284 15.7793V15.4981L20.5706 15.2871C21.2081 14.8981 21.8784 14.0918 22.1034 13.4403C22.2206 13.1121 22.2253 12.6996 22.1081 12.4512C21.9393 12.0856 21.63 11.9121 21.1518 11.9121C20.9034 11.9121 20.7956 11.9403 20.5378 12.0668L20.2284 12.2262V11.9168L20.2331 11.6075L20.5237 11.4434C20.88 11.2418 21.5972 10.534 21.8128 10.1637C22.3425 9.27776 22.3284 8.56527 21.7847 8.18558C21.5972 8.05902 21.5456 8.04495 21.194 8.04495C20.8518 8.04495 20.7768 8.05902 20.519 8.19495L20.2284 8.34964V8.05433V7.7637L20.594 7.51995C21.1003 7.18245 21.5737 6.69964 21.855 6.21214C22.2065 5.62152 22.2909 5.07777 22.094 4.66527C21.8409 4.12152 21.0534 3.98089 20.444 4.36527L20.2284 4.50589V3.50745C20.2284 2.45277 20.1956 2.22308 19.9893 1.81058C19.8581 1.54808 19.5159 1.22933 19.2206 1.08402C18.6909 0.826204 18.78 0.830891 15.1425 0.81683C11.8987 0.807453 11.7581 0.807453 11.4815 0.896517ZM18.6112 1.43089C18.7659 1.47308 19.0003 1.58089 19.1362 1.66995C19.3284 1.79652 19.4081 1.89027 19.5347 2.14808L19.6893 2.46683L19.7034 9.12308C19.7128 13.9746 19.7034 15.8543 19.6659 16.0606C19.5393 16.7028 19.1643 17.0637 18.4706 17.209C18.0393 17.2981 11.9315 17.3028 11.6784 17.2137C11.4018 17.1153 11.1534 16.8621 11.0362 16.5621L10.9284 16.295V9.33401C10.9284 4.06058 10.9425 2.3262 10.9847 2.18089C11.055 1.94652 11.2612 1.62777 11.4159 1.51995C11.6925 1.32777 11.819 1.31839 15.1425 1.33245C17.9925 1.34652 18.3581 1.35589 18.6112 1.43089ZM21.5268 4.80589C21.6393 4.90433 21.6581 4.9512 21.6534 5.17152C21.6534 5.48558 21.4331 5.93558 21.0815 6.36214C20.8565 6.6387 20.3503 7.08401 20.2659 7.08401C20.2425 7.08401 20.2284 6.66214 20.2284 6.14651V5.20902L20.4768 5.01683C20.7815 4.77308 20.9503 4.69808 21.1987 4.69339C21.3393 4.69339 21.4331 4.7262 21.5268 4.80589ZM9.34403 5.73401C9.69091 5.86058 9.96747 6.14183 10.1034 6.50277C10.3706 7.22464 10.3565 6.91526 10.3847 11.8653C10.4128 16.8996 10.3987 16.6325 10.7081 17.12C10.8628 17.3684 11.0643 17.5371 11.3972 17.6871C11.6175 17.7903 11.6831 17.795 13.0753 17.809L14.5237 17.8231L14.144 18.0387C13.5675 18.3621 12.8503 18.9246 12.2972 19.4918L11.8003 19.9981L9.14716 18.2356C7.68466 17.2653 6.47528 16.459 6.46122 16.4403C6.44716 16.4262 6.49872 16.07 6.57841 15.6528C6.80341 14.4903 6.85966 14.059 7.10341 11.6309C7.46903 7.99339 7.90966 6.13245 8.49091 5.74808C8.77216 5.56527 8.88935 5.56527 9.34403 5.73401ZM21.555 8.72933C21.7097 8.89808 21.7143 9.04808 21.5831 9.39964C21.3956 9.9012 20.7909 10.6512 20.3737 10.895L20.2284 10.9793V10.0512V9.11839L20.3831 8.97777C20.8706 8.51839 21.2784 8.42933 21.555 8.72933ZM21.4425 12.4934C21.7003 12.6293 21.7425 12.9106 21.569 13.3278C21.3768 13.8012 20.8987 14.3825 20.4065 14.7481L20.2284 14.8746V13.9137V12.9528L20.4112 12.8075C20.8659 12.4465 21.1706 12.3528 21.4425 12.4934ZM5.79091 18.9809C6.3956 19.4356 6.89716 19.8481 6.90653 19.8903C6.92997 20.0075 6.75185 20.1668 6.64403 20.1246C6.59716 20.1059 6.08153 19.7309 5.4956 19.295C4.8206 18.7887 4.42216 18.4606 4.40341 18.3903C4.36591 18.2637 4.45497 18.1465 4.59091 18.1465C4.64716 18.1465 5.17685 18.5168 5.79091 18.9809ZM7.8956 20.6965C8.10185 20.9168 7.87685 21.2215 7.65653 21.0246C7.50185 20.8793 7.47372 20.795 7.55341 20.6871C7.64716 20.5512 7.76435 20.5559 7.8956 20.6965ZM10.3847 21.4043C10.7972 21.6153 10.8206 22.1403 10.4222 22.3465C10.0659 22.5293 9.63466 22.234 9.63466 21.7981C9.63466 21.695 9.68153 21.6059 9.79403 21.4934C9.97216 21.3153 10.155 21.2871 10.3847 21.4043Z" fill="white"/>
<path d="M13.6809 2.0967C13.6106 2.2092 13.6106 2.23264 13.6715 2.34514L13.7419 2.46701L14.9044 2.48107C15.7247 2.49045 16.0903 2.47639 16.1325 2.43889C16.2215 2.36857 16.2169 2.13889 16.1231 2.04982C16.0622 1.9842 15.884 1.97482 14.909 1.97482H13.7606L13.6809 2.0967Z" fill="white"/>
<path d="M16.5729 2.06836C16.4698 2.17148 16.4557 2.26523 16.526 2.40117C16.5682 2.47148 16.6292 2.49023 16.8448 2.49023C16.9948 2.49023 17.1401 2.4668 17.1729 2.43398C17.2573 2.34961 17.2385 2.13867 17.1448 2.0543C17.0182 1.9418 16.6901 1.95117 16.5729 2.06836Z" fill="white"/>
<path d="M14.7902 5.67753C14.3589 5.72441 14.1152 5.79941 13.7027 6.01503C13.0418 6.35722 12.5355 6.9666 12.273 7.73535C12.0996 8.22753 12.0949 9.00097 12.2543 9.52128C12.6199 10.7166 13.5246 11.6119 14.6496 11.8932C15.1043 12.0057 15.9199 11.9682 16.3746 11.8088C17.2652 11.49 18.0339 10.6978 18.3386 9.78378C18.4464 9.46035 18.4652 9.32441 18.4652 8.8416C18.4652 8.2041 18.3996 7.91347 18.1324 7.40253C17.5371 6.26347 16.1121 5.53222 14.7902 5.67753ZM16.6558 7.70253C16.7824 7.8291 16.6933 7.97441 15.9574 8.81816C14.8793 10.0557 14.8558 10.0838 14.7949 10.0838C14.6777 10.0838 13.8058 9.2541 13.8058 9.13691C13.8058 9.09472 13.8527 9.02441 13.9043 8.98691C14.0402 8.89316 14.1668 8.95878 14.4855 9.28222C14.6121 9.41347 14.7293 9.52128 14.748 9.52128C14.7761 9.52128 15.7371 8.43847 16.1918 7.89003C16.4027 7.6416 16.5386 7.58535 16.6558 7.70253Z" fill="white"/>
<path d="M13.8674 16.0137C13.7221 16.1121 13.7221 16.3324 13.8627 16.4309C13.9518 16.4918 14.1486 16.5059 15.0486 16.5059C15.8455 16.5059 16.1502 16.4918 16.2065 16.4449C16.333 16.3512 16.3471 16.2012 16.2486 16.0793C16.1596 15.9668 16.1549 15.9668 15.0627 15.9527C14.1252 15.9434 13.9565 15.948 13.8674 16.0137Z" fill="white"/>
<path d="M6.4378 5.52316C6.31593 5.67316 6.20343 5.99191 6.23624 6.09503C6.27374 6.22628 6.42843 6.30128 6.57374 6.26378C6.80343 6.20753 6.96749 5.59347 6.77999 5.49035C6.64405 5.42003 6.51749 5.4341 6.4378 5.52316Z" fill="white"/>
<path d="M5.94609 6.66192C5.83359 6.70879 5.83828 6.7041 5.70234 7.29473C5.47266 8.32129 5.29453 9.65723 5.24297 10.726L5.21484 11.3916L5.33672 11.4479C5.50078 11.5229 5.68828 11.4666 5.72109 11.3354C5.73047 11.2791 5.76328 10.9135 5.79141 10.5291C5.87109 9.37129 6.03984 8.23692 6.33984 6.91973C6.38203 6.73223 6.14766 6.58223 5.94609 6.66192Z" fill="white"/>
<path d="M17.0645 18.3199C16.891 18.4137 16.8535 18.4652 16.8535 18.6152C16.8535 18.7746 16.9332 18.8496 17.0973 18.8496C17.4676 18.8496 17.6785 18.5496 17.4629 18.334C17.3504 18.2215 17.252 18.2168 17.0645 18.3199Z" fill="white"/>
<path d="M15.7191 18.9387C15.1801 19.2152 14.8098 19.4824 14.3598 19.9277C14.0223 20.2559 13.9473 20.3543 13.9473 20.4715C13.9473 20.6496 14.0223 20.7246 14.2004 20.7246C14.3082 20.7246 14.4066 20.6543 14.6691 20.3824C15.0629 19.9793 15.4801 19.6746 15.9629 19.4309C16.1551 19.3371 16.352 19.2246 16.3988 19.1871C16.5723 19.0371 16.4457 18.7559 16.2066 18.7559C16.1363 18.7559 15.9207 18.8402 15.7191 18.9387Z" fill="white"/>
</g>
<defs>
<clipPath id="clip0_3380_116486">
<rect width="24" height="24" fill="white" transform="translate(0.400391 0.708984)"/>
</clipPath>
</defs>
</svg>
