<svg width="17" height="17" viewBox="0 0 17 17" fill="none" xmlns="http://www.w3.org/2000/svg">
<path d="M13.1667 3.37557H11.1667V2.04224H9.83333V3.37557H7.16667V2.04224H5.83333V3.37557H3.83333C3.098 3.37557 2.5 3.97357 2.5 4.7089V14.0422C2.5 14.7776 3.098 15.3756 3.83333 15.3756H13.1667C13.902 15.3756 14.5 14.7776 14.5 14.0422V4.7089C14.5 3.97357 13.902 3.37557 13.1667 3.37557ZM3.83333 14.0422V5.37557H13.1667V4.7089L13.168 14.0422H3.83333Z" fill="white"/>
<path d="M10.9179 8.83086L9.71794 7.63153L10.6313 6.71753L11.8313 7.91686L10.9179 8.83086ZM5.83594 11.5095V12.7089H7.03527L10.3526 9.39553L9.15327 8.1962L5.83594 11.5095Z" fill="white"/>
</svg>
