<svg width="13" height="14" viewBox="0 0 13 14" fill="none" xmlns="http://www.w3.org/2000/svg">
<path d="M0.064497 6.62333H2.70619L0.653652 4.57079L1.54689 3.67122L4.499 6.62333H5.766V5.35633L2.81389 2.40422L3.71346 1.51098L5.766 3.56352V0.921829H7.033V3.56352L9.08554 1.51098L9.98511 2.40422L7.033 5.35633V6.62333H8.3L11.2521 3.67122L12.1453 4.57079L10.0928 6.62333H12.7345V7.89033H10.0928L12.1453 9.94287L11.2521 10.8424L8.3 7.89033H7.033V9.15733L9.98511 12.1094L9.08554 13.0027L7.033 10.9501V13.5918H5.766V10.9501L3.71346 13.0027L2.81389 12.1094L5.766 9.15733V7.89033H4.499L1.54689 10.8424L0.653652 9.94287L2.70619 7.89033H0.064497V6.62333Z" fill="#676767"/>
</svg>
