<svg width="58" height="35" viewBox="0 0 58 35" fill="none" xmlns="http://www.w3.org/2000/svg">
<path d="M35.4483 1.18021C34.2648 1.51516 33.2823 1.79429 33.2599 1.81662C33.2488 1.83895 33.3269 2.2074 33.4497 2.654C33.5837 3.14527 33.7177 3.43556 33.7959 3.41323C34.1531 3.27925 37.3687 2.45303 37.391 2.48653C37.4357 2.53119 39.2333 6.39431 39.2333 6.43897C39.2333 6.4613 39.0769 6.48363 38.8871 6.48363C37.6478 6.48363 35.4483 7.52198 32.7575 9.37539C31.6857 10.1123 30.1895 11.0836 29.4415 11.5302C28.6934 11.9769 28.0793 12.4123 28.0682 12.4793C28.057 12.7807 27.1191 13.5623 26.2483 13.9754C24.1939 14.9579 21.4138 15.3152 19.0691 14.9133C18.0419 14.7235 17.0147 14.3327 16.6128 13.9531C16.3783 13.7409 16.356 13.7409 12.9283 14.1317C9.03169 14.5672 8.18314 14.7235 7.20061 15.1142C6.06177 15.572 5.33604 16.0744 3.79526 17.4477L2.33263 18.7541L1.30544 18.7652H0.26709V19.7701V20.7749H1.52875L2.77924 20.7638L3.50497 19.8594C4.73313 18.3186 6.51954 17.1575 8.4846 16.6327C9.72392 16.2977 11.7895 16.2977 13.0511 16.6327C15.9429 17.3919 18.3434 19.491 19.471 22.2376C19.7502 22.9075 20.141 24.4036 20.141 24.7944C20.141 24.8725 17.2604 24.906 10.9856 24.906H1.8302V25.7434V26.5808H18.3657C27.4541 26.5808 34.8789 26.6143 34.8565 26.6701C34.8454 26.7148 34.7337 26.9827 34.6109 27.2842L34.3988 27.8089H28.0012H21.5924V28.423V29.0371H28.4031H35.2138L35.4371 28.6798C35.5599 28.4789 35.8167 27.9318 36.0065 27.4517L36.3638 26.592L37.3129 26.5585L38.2619 26.525L39.6687 23.5104C41.3658 19.8594 42.0357 18.4191 42.1027 18.2293C42.1473 18.1288 41.5109 18.0953 39.1328 18.0953C36.5313 18.0953 36.107 18.073 36.107 17.9278C36.107 17.7827 36.5536 17.7604 39.2556 17.738L42.4041 17.7045L42.5493 17.3361L42.6944 16.9788H38.1167C33.6172 16.9788 33.5391 16.9788 33.5391 16.7555C33.5391 16.5322 33.6172 16.5322 38.2284 16.5322H42.9289L43.1857 15.974L43.4425 15.4269L46.0775 21.0876C47.5289 24.2026 48.7682 26.7594 48.8241 26.7818C48.9692 26.8264 50.2867 26.2458 50.2867 26.1342C50.2867 26.0895 49.2037 23.7225 47.875 20.8754C46.5464 18.0283 45.2847 15.3152 45.0726 14.8574C44.8493 14.3997 43.3197 11.106 41.6672 7.54431C39.8027 3.53604 38.5522 0.968073 38.3847 0.811762C38.2284 0.67778 37.9939 0.56613 37.86 0.577295C37.726 0.588461 36.643 0.856422 35.4483 1.18021Z" fill="#111111"/>
<path d="M44.6817 5.19944C43.1633 5.99216 42.7725 8.08003 43.9002 9.38635C44.3691 9.93344 44.9832 10.2684 45.6978 10.3577C46.1779 10.4135 46.2672 10.3912 46.524 10.1121C46.9371 9.65431 47.1046 8.93975 47.1046 7.54411C47.0934 6.26012 46.9706 5.70187 46.591 5.21061C46.4012 4.96497 46.2783 4.92031 45.7871 4.92031C45.3963 4.93148 45.039 5.0208 44.6817 5.19944Z" fill="#111111"/>
<path d="M9.66798 17.548C7.12234 17.8494 4.65486 19.5577 3.48252 21.8465C3.19223 22.3936 2.9131 23.0635 2.83495 23.3426C2.76796 23.6218 2.6898 23.9344 2.65631 24.0349C2.60048 24.2247 2.7233 24.2358 4.25291 24.2358H5.90535L6.17331 23.6106C6.91021 21.9135 8.85293 20.663 10.7622 20.663C12.6714 20.663 14.4466 21.7684 15.2617 23.4654L15.619 24.2247H17.2714L18.935 24.2358L18.8569 23.8674C18.7117 23.2198 18.2539 22.1033 17.8408 21.4334C16.1661 18.6645 12.984 17.1572 9.66798 17.548Z" fill="#111111"/>
<path d="M47.9977 17.5483C47.5735 17.6041 47.1827 17.6934 47.138 17.7381C47.0934 17.7828 47.2162 18.14 47.406 18.542C47.5846 18.9439 47.8861 19.5803 48.0647 19.96L48.3885 20.6634H49.1366C52.14 20.6745 54.5182 23.209 54.2725 26.1343C54.0492 28.758 51.8609 30.8124 49.2706 30.8236C47.2162 30.8236 45.4968 29.7294 44.5701 27.8313C44.2128 27.1056 44.2016 27.0386 44.2016 25.7435C44.2128 24.4818 44.2239 24.359 44.5589 23.6556C44.7487 23.2537 45.1172 22.6842 45.374 22.4051L45.854 21.8915L45.1953 20.4847C44.838 19.7143 44.5031 19.0556 44.4584 19.0333C44.3021 18.9328 43.1968 19.9376 42.6273 20.6969C40.5506 23.4435 40.3608 27.0833 42.1472 30.1314C42.7055 31.0692 44.0453 32.3532 45.0837 32.9338C49.84 35.6134 55.8245 33.1124 57.1978 27.876C57.4881 26.7818 57.5104 24.8726 57.2536 23.7896C57.1643 23.3876 56.8628 22.5838 56.5725 22.0032C56.1371 21.0988 55.9138 20.8085 55.0429 19.9376C54.2837 19.1896 53.7924 18.81 53.1225 18.4527C51.5817 17.6488 49.6948 17.3138 47.9977 17.5483Z" fill="#111111"/>
<path d="M2.65641 27.4405C2.68991 27.5522 2.76806 27.8648 2.83505 28.1439C3.00253 28.7915 3.63894 30.0643 4.14137 30.7342C5.1239 32.074 6.86565 33.2575 8.58508 33.7376C9.73508 34.0614 11.6778 34.0949 12.772 33.8046C14.6477 33.3133 16.4676 32.0517 17.5841 30.4551C18.1089 29.707 18.7006 28.3672 18.8346 27.608L18.9128 27.2507H17.2938H15.6861L15.34 27.9653C14.056 30.5667 10.9297 31.5604 8.30595 30.2094C7.46857 29.774 6.20691 28.3114 6.00594 27.541L5.93895 27.2507H4.26419C2.73457 27.2507 2.60059 27.2619 2.65641 27.4405Z" fill="#111111"/>
</svg>
