<svg width="54" height="46" viewBox="0 0 54 46" fill="none" xmlns="http://www.w3.org/2000/svg">
<path d="M10.3281 15.3687H2.87109L5.94176 19.9012L8.4273 22.2405L12.0825 19.9012L13.3984 17.4156L10.3281 15.3687Z" fill="#FFA633"/>
<rect x="1.83594" y="35.5381" width="18.4336" height="5.70215" fill="#127384"/>
<path d="M9.08226 1.1967V2.04282H8.23614H7.39002V2.88894V3.73505H8.23614H9.08226V4.58117V5.42728H8.23614H7.39002V6.2734V7.11951H8.23614H9.08226V10.504V13.8884H8.23614H7.39002V11.054C7.39002 8.42042 7.37945 8.20889 7.17849 7.88102C6.77659 7.22528 6.44872 7.11951 4.85168 7.11951C3.25463 7.11951 2.92676 7.22528 2.52486 7.88102C2.3239 8.20889 2.31333 8.42042 2.31333 11.054V13.8884H1.46721H0.621094V14.7346V15.5807H1.61528H2.59889L4.87283 19.367L7.13619 23.1428L6.71313 23.7351C5.71894 25.0889 4.86225 26.8975 4.40746 28.5897C4.18536 29.4147 4.1219 29.5416 3.5825 30.0704C3.24405 30.3983 2.85273 30.9271 2.67293 31.2867C2.38736 31.8896 2.36621 32.0059 2.33448 33.4866L2.29217 35.0413H2.01719C1.62586 35.0413 1.08646 35.3904 0.832623 35.8029C0.642247 36.1201 0.621094 36.3423 0.621094 38.4258C0.621094 40.5094 0.642247 40.7315 0.832623 41.0488C1.10761 41.493 1.63643 41.8103 2.11237 41.8103C2.4614 41.8103 2.5037 41.842 2.74696 42.3603C3.06425 43.0583 4.20651 44.2323 4.90456 44.5919C6.18431 45.237 5.05263 45.1947 22.673 45.1947C40.653 45.1947 39.6271 45.237 42.0279 44.4438C46.8719 42.8362 50.69 38.8066 51.9698 33.9414C52.1178 33.4126 52.4457 31.4771 52.7101 29.6474C52.964 27.8176 53.2072 26.1571 53.2495 25.9562L53.3024 25.5966L52.3505 25.6706L51.3881 25.7552V24.8985V24.0418H52.2342H53.0803V23.1957V22.3496H42.7154H32.3505L31.5784 21.7044C29.8544 20.2555 27.3055 18.8276 25.2431 18.1613L24.3123 17.8652V15.0307V12.1962H23.4662H22.6201V14.8509V17.5056L22.0701 17.4316C21.7634 17.3998 21.3827 17.3469 21.224 17.3152L20.9279 17.2518V13.8779V10.504H20.0818H19.2357V13.8884V17.2729H18.5059C17.6915 17.2729 16.2531 17.495 15.206 17.7912L14.4974 17.9921L13.3023 16.7864L12.0965 15.5807H13.133H14.159V14.7346V13.8884H12.4667H10.7745V12.1962V10.504H12.4667H14.159V9.65786V8.81175H12.4667H10.7745V7.96563V7.11951H12.4667H14.159V6.2734V5.42728H12.4667H10.7745V4.58117V3.73505H11.6206H12.4667V2.88894V2.04282H11.6206H10.7745V1.1967V0.350586H9.92837H9.08226V1.1967ZM5.69779 9.65786V10.504H4.85168H4.00556V9.65786V8.81175H4.85168H5.69779V9.65786ZM5.69779 13.0423V13.8884H4.85168H4.00556V13.0423V12.1962H4.85168H5.69779V13.0423ZM11.0283 17.1566L12.5936 18.7219L11.7898 19.1767C10.9331 19.642 9.65339 20.5622 8.87073 21.2602L8.39479 21.6833L6.77659 18.9757C5.87759 17.4844 5.05263 16.1095 4.93629 15.9191L4.72476 15.5807H7.09388H9.45243L11.0283 17.1566ZM21.6154 19.1872C24.0585 19.5045 26.5228 20.4353 28.7333 21.8631L29.3996 22.2967L28.5429 22.3285L27.6968 22.3602V23.1957V24.0418H28.5429H29.389V25.6283C29.389 27.183 29.389 27.2148 29.1564 27.2571C28.691 27.3523 6.34296 28.8435 6.2795 28.7801C6.18431 28.6955 6.6814 27.4369 7.24195 26.3475C7.90827 25.0678 8.74381 23.9784 9.88607 22.8679C13.0378 19.843 17.0463 18.595 21.6154 19.1872ZM32.7735 25.512V26.9715L32.3822 27.0456C32.1601 27.0773 31.7793 27.109 31.5361 27.109H31.0813V25.5754V24.0418H31.9274H32.7735V25.512ZM36.158 25.4168C36.158 26.686 36.1474 26.7917 35.957 26.7917C35.8513 26.7917 35.4705 26.8234 35.1109 26.8552L34.4657 26.9292V25.4802V24.0418H35.3119H36.158V25.4168ZM39.5424 25.311V26.5802H39.0982C38.8444 26.5802 38.4636 26.6119 38.2521 26.6436L37.8502 26.7177V25.3745V24.0418H38.6963H39.5424V25.311ZM42.9269 25.2052V26.3687H42.25C41.8798 26.3687 41.4991 26.4004 41.4039 26.4321C41.2558 26.485 41.2347 26.3475 41.2347 25.2687V24.0418H42.0808H42.9269V25.2052ZM46.3114 25.036C46.3114 26.1783 46.3325 26.1571 45.296 26.1571H44.6191V25.0995V24.0418H45.4653H46.3114V25.036ZM49.6958 24.9303V25.8081L49.3045 25.8821C49.0824 25.9139 48.7017 25.9456 48.4584 25.9456H48.0036V24.9937V24.0418H48.8497H49.6958V24.9303ZM51.1448 27.8705C51.1131 28.0609 51.0496 28.4205 51.0179 28.6637C50.9756 28.9176 50.9439 29.1185 50.9333 29.1291C50.8698 29.1608 4.25939 32.3655 4.23824 32.3444C4.15363 32.2703 4.54496 31.6886 4.87283 31.3819C5.63433 30.6521 3.98441 30.8108 28.3843 29.1185C40.7164 28.2618 50.891 27.5532 51.0073 27.5426C51.166 27.5321 51.1871 27.585 51.1448 27.8705ZM50.6477 31.2444C50.6477 31.6569 50.2352 33.4972 49.9708 34.2481C49.4843 35.6654 48.7863 36.9768 47.9719 38.0239L47.6652 38.4258H34.2965H20.9279V37.2836C20.9279 36.0038 20.7904 35.6336 20.1664 35.2529C19.8279 35.0519 19.6164 35.0413 11.9167 35.0413H4.00556V34.6183C4.00556 34.2904 4.04786 34.1952 4.19593 34.1847C4.29112 34.1847 14.4657 33.476 26.7978 32.6193C39.13 31.7521 49.5372 31.0435 49.9391 31.0329C50.5948 31.0223 50.6477 31.0435 50.6477 31.2444ZM19.2357 38.4258V40.118H10.7745H2.31333V38.4258V36.7336H10.7745H19.2357V38.4258ZM45.7825 40.3402C44.5663 41.3132 42.8423 42.2651 41.3616 42.7622C39.2569 43.4708 40.2299 43.4285 23.2759 43.4708C14.1484 43.4919 7.62271 43.4708 7.19965 43.4179C6.2795 43.291 5.6026 42.9631 4.97859 42.3497L4.4815 41.8632L12.2023 41.8103C19.426 41.7574 19.9549 41.7468 20.2193 41.567C20.6 41.3238 20.9279 40.7844 20.9279 40.4036V40.118H33.4927H46.047L45.7825 40.3402Z" fill="#0A152F"/>
</svg>
