<svg width="51" height="51" viewBox="0 0 51 51" fill="none" xmlns="http://www.w3.org/2000/svg">
<g clip-path="url(#clip0_3583_70655)">
<g clip-path="url(#clip1_3583_70655)">
<rect x="21.9404" y="37.6321" width="7.30429" height="4.45845" fill="#127384"/>
<path d="M22.2773 0.710052C17.4727 1.35458 13.3223 3.0831 9.82617 5.90536C8.64453 6.8624 6.4375 9.09872 5.55859 10.2315C3.03906 13.503 1.45703 17.2335 0.724609 21.7061C0.470703 23.2393 0.470703 27.7608 0.724609 29.3722C1.4082 33.7667 3.0293 37.6143 5.55859 40.8956C6.4375 42.0284 8.64453 44.2647 9.82617 45.2218C13.3809 48.0929 17.6094 49.8311 22.4727 50.4268C24.123 50.6222 27.834 50.5733 29.4062 50.3292C33.6836 49.6651 37.5898 48.0147 40.832 45.505C41.9648 44.6261 44.2012 42.419 45.1582 41.2374C47.834 37.9268 49.5625 33.9425 50.2656 29.4698C50.5098 27.8976 50.5586 24.1866 50.3633 22.5362C49.7871 17.8194 48.1562 13.7472 45.4414 10.2315C44.5625 9.09872 42.3555 6.8624 41.1738 5.90536C39.2109 4.31357 36.7012 2.90732 34.3184 2.04794C33.0391 1.57919 30.8516 1.02255 29.4062 0.797943C27.9902 0.573334 23.6836 0.524506 22.2773 0.710052ZM27.1113 3.69833C37.3262 4.46982 45.0117 11.2179 47.0234 21.1886C47.9609 25.8663 47.5605 30.0167 45.7637 34.2061C44.5918 36.921 43.0098 39.2061 40.8125 41.3448C39.0938 43.0147 37.4531 44.1964 35.4121 45.2218C32.1406 46.8624 29.1523 47.5753 25.5 47.5753C20.9395 47.5753 16.8281 46.3058 13.0977 43.7472C11.3789 42.5655 9.48438 40.8077 8.19531 39.1866C6.26172 36.755 4.73828 33.5714 4.01562 30.4952C2.99023 26.0811 3.49805 21.0128 5.42188 16.5304C8.78125 8.69833 16.1445 3.89365 25.207 3.61044C25.5 3.60068 26.3594 3.63974 27.1113 3.69833Z" fill="#0A152F"/>
<path d="M23.9375 6.52051C21.0664 6.72559 17.7266 7.77051 15.3145 9.22559C12.9121 10.6611 10.5781 12.9951 9.17188 15.3584C7.66797 17.8779 6.62305 21.208 6.4082 24.1475C6.37891 24.5771 6.33008 25.0752 6.30078 25.2412L6.25195 25.5635H7.82422H9.38672V24.8506C9.38672 23.5908 9.94336 20.6807 10.1777 20.6807C10.2266 20.6807 10.8711 21.0811 11.5938 21.5693C12.3262 22.0576 12.9316 22.4385 12.9414 22.4189C13.127 22.1943 14.5625 19.9873 14.5625 19.9287C14.5625 19.8896 13.8594 19.3916 13 18.8252C12.1406 18.2588 11.4375 17.7607 11.4375 17.7217C11.4277 17.3994 12.834 15.4854 13.8594 14.4209C14.543 13.6982 16.0176 12.4287 16.0762 12.4971C16.0957 12.5166 16.3984 13.249 16.7598 14.1377C17.1211 15.0264 17.4336 15.7783 17.4531 15.8174C17.4824 15.8564 18.0586 15.6514 18.7422 15.3682C19.4258 15.085 20.0605 14.8311 20.1484 14.792C20.2949 14.7432 20.2168 14.4893 19.543 12.8486C18.8594 11.1787 18.791 10.9541 18.9277 10.8467C19.377 10.5049 22.0137 9.7334 23.2832 9.56738L23.9375 9.47949V11.667V13.8447H25.5H27.0625V11.667V9.47949L27.6777 9.56738C29.1426 9.75293 30.8809 10.2705 32.3164 10.9346L33.0098 11.2568L32.2285 12.9561C31.8086 13.8936 31.4668 14.665 31.4766 14.6748C31.5449 14.7334 34.1328 15.8955 34.1914 15.8955C34.2305 15.8955 34.5625 15.2412 34.9238 14.4307L35.5879 12.9658L36.0371 13.3467C36.6426 13.8643 37.5801 14.8408 38.1562 15.5537C38.6934 16.2275 39.5625 17.5557 39.5625 17.7021C39.5625 17.751 38.8594 18.2588 38 18.8252C37.1406 19.3916 36.4375 19.8896 36.4375 19.9287C36.4375 19.9873 37.873 22.1943 38.0586 22.4189C38.0684 22.4385 38.6738 22.0576 39.4062 21.5693C40.1289 21.0811 40.7734 20.6807 40.8223 20.6807C41.0566 20.6807 41.6133 23.5908 41.6133 24.8506V25.5635H43.1758H44.748L44.6992 25.2412C44.6699 25.0752 44.6211 24.5771 44.5918 24.1475C44.4648 22.4385 43.9668 20.2119 43.3223 18.4736C42.5508 16.4229 41.3301 14.3721 39.9336 12.7705C36.1055 8.39551 30.1875 6.08105 23.9375 6.52051Z" fill="#0A152F"/>
<path d="M28.381 17.9171C28.2931 18.1222 27.6681 19.587 26.9845 21.169L25.7443 24.0499L25.2267 24.0694C22.6388 24.1866 20.6759 26.628 21.0958 29.1964C21.5841 32.1847 24.797 33.8351 27.5021 32.5069C29.8849 31.3351 30.715 27.9952 29.1329 25.9151C28.9376 25.6515 28.7325 25.3878 28.6837 25.3194C28.6251 25.2413 29.006 24.2257 29.8458 22.2823C30.5294 20.671 31.1544 19.2257 31.2228 19.0597L31.3497 18.7472L30.0607 18.1905C29.3478 17.8878 28.7228 17.6144 28.6544 17.5851C28.5861 17.5558 28.4689 17.6925 28.381 17.9171ZM26.2521 27.3312C27.424 28.0538 26.8868 29.8995 25.5001 29.8995C24.1427 29.8995 23.5861 28.1222 24.7091 27.3604C25.1583 27.0577 25.7833 27.0479 26.2521 27.3312Z" fill="#127384"/>
<path d="M7.72656 31.4717V32.9854H9.28906H10.8516V31.4717V29.958H9.28906H7.72656V31.4717Z" fill="#0A152F"/>
<path d="M40.1484 31.4717V32.9854H41.7109H43.2734V31.4717V29.958H41.7109H40.1484V31.4717Z" fill="#0A152F"/>
<path d="M13.6836 35.8662V37.3799H15.1973H16.7109V35.8662V34.3525H15.1973H13.6836V35.8662Z" fill="#0A152F"/>
<path d="M34.2891 35.8662V37.3799H35.8027H37.3164V35.8662V34.3525H35.8027H34.2891V35.8662Z" fill="#0A152F"/>
<path d="M19.5723 37.8389C19.6211 40.085 19.6992 40.4756 20.2852 41.667C20.7246 42.5654 21.6719 43.542 22.541 44.001C24.2988 44.9287 26.7012 44.9287 28.459 44.001C29.3281 43.542 30.2754 42.5654 30.7148 41.667C31.3008 40.4756 31.3789 40.085 31.4277 37.8389L31.4766 35.8174H25.5H19.5234L19.5723 37.8389ZM28.3223 39.3037C28.1953 39.9873 27.8828 40.5537 27.3945 40.9834C26.8672 41.4521 26.2422 41.6768 25.5 41.6768C24.0059 41.6768 22.9902 40.7783 22.6289 39.1084L22.5703 38.8447H25.4902H28.4004L28.3223 39.3037Z" fill="#FFA633"/>
<circle cx="25.4502" cy="28.4307" r="2.08694" fill="#FFA633"/>
</g>
</g>
<defs>
<clipPath id="clip0_3583_70655">
<rect width="50" height="50" fill="white" transform="translate(0.5 0.563477)"/>
</clipPath>
<clipPath id="clip1_3583_70655">
<rect width="50" height="50" fill="white" transform="translate(0.5 0.563477)"/>
</clipPath>
</defs>
</svg>
