<svg width="51" height="51" viewBox="0 0 51 51" fill="none" xmlns="http://www.w3.org/2000/svg">
<g clip-path="url(#clip0_3583_70692)">
<circle cx="44.7419" cy="31.5522" r="1.48801" fill="#FFA633"/>
<circle cx="12.3825" cy="10.6277" r="1.48801" fill="#127384"/>
<path d="M7.27734 3.96191C5.62695 4.53809 4.47461 5.69043 3.89844 7.34082L3.625 8.13184V11.501V14.8701L3.89844 15.6611C4.48438 17.3213 5.68555 18.5029 7.36523 19.0693C8.04883 19.2939 8.23438 19.3135 9.89453 19.3135H11.6816L12.8047 21.5693C13.4199 22.8096 14.0059 23.8643 14.0938 23.9131C14.3086 24.0303 14.8164 24.0303 15.0312 23.9131C15.1191 23.8643 15.7051 22.8096 16.3203 21.5693L17.4434 19.3135H20.4219H23.4102L24.1328 20.7881C24.5332 21.5986 24.9434 22.3018 25.0312 22.3506C25.2461 22.4678 25.7539 22.4678 25.9688 22.3506C26.0566 22.3018 26.4668 21.5986 26.8672 20.7881L27.5898 19.3135H30.5781H33.5566L34.6797 21.5693C35.2949 22.8096 35.8809 23.8643 35.9688 23.9131C36.1836 24.0303 36.6914 24.0303 36.9062 23.9131C36.9941 23.8643 37.5801 22.8096 38.1953 21.5693L39.3184 19.3135H41.0859C43.0488 19.3135 43.459 19.2354 44.5527 18.6689C45.7344 18.0439 46.6426 16.9795 47.1016 15.6611L47.375 14.8701V11.501V8.13184L47.1016 7.34082C46.5254 5.7002 45.3633 4.53809 43.7227 3.96191L42.9316 3.68848H25.5H8.06836L7.27734 3.96191ZM42.3457 5.34863C44.1621 5.6123 45.4512 6.91113 45.7148 8.71777C45.8418 9.60645 45.832 13.4053 45.7148 14.2842C45.5781 15.2119 45.2363 15.8955 44.6016 16.54C43.6055 17.5264 42.7754 17.7412 39.9824 17.751H38.293L37.8828 18.4639C37.6484 18.8545 37.248 19.6455 36.9844 20.2217C36.7207 20.7979 36.4766 21.2666 36.4473 21.2666C36.418 21.2666 36.0469 20.5732 35.6367 19.7236C35.2168 18.8838 34.7969 18.083 34.6992 17.9561L34.5137 17.7217L31.2031 17.6826C29.377 17.6533 27.5898 17.6729 27.209 17.7217L26.5254 17.7998L26.0371 18.7471C25.7734 19.2744 25.5293 19.7041 25.5 19.7041C25.4707 19.7041 25.2363 19.2842 24.9824 18.7764C24.6113 18.0244 24.4746 17.8389 24.2598 17.7803C24.1035 17.7314 22.3066 17.7021 20.2461 17.7021H16.5059L16.3105 17.9463C16.2031 18.083 15.7832 18.8838 15.3633 19.7236C14.9531 20.5732 14.582 21.2666 14.5527 21.2666C14.5234 21.2666 14.2793 20.7979 14.0156 20.2217C13.752 19.6455 13.3516 18.8545 13.1172 18.4639L12.707 17.751H11.0176C8.22461 17.7412 7.39453 17.5264 6.39844 16.54C5.37305 15.5146 5.1875 14.7432 5.1875 11.501C5.1875 9.12793 5.28516 8.26855 5.62695 7.52637C6.13477 6.41309 7.31641 5.53418 8.55664 5.3584C9.40625 5.24121 41.4961 5.23145 42.3457 5.34863Z" fill="#0A152F"/>
<path d="M14.1132 7.41902C13.9961 7.46785 13.6933 7.89754 13.4394 8.35652C13.1757 8.82527 12.9511 9.22567 12.9414 9.2452C12.9218 9.26473 12.5019 9.36238 12.0039 9.46004C10.8808 9.69442 10.6171 9.8702 10.5781 10.3975C10.5488 10.7686 10.5976 10.8468 11.2519 11.5499C11.9062 12.2628 11.9453 12.3214 11.8867 12.6632C11.8574 12.8585 11.7988 13.3272 11.7695 13.7179C11.7011 14.3819 11.7109 14.421 11.9648 14.6749C12.3066 15.0167 12.6679 14.9776 13.7226 14.4991L14.4746 14.1475L15.3535 14.5284C16.3593 14.9776 16.5839 14.9971 16.955 14.7042L17.2285 14.4893L17.1601 13.3663L17.0918 12.2335L17.5019 11.8429C18.4394 10.9444 18.6543 10.3975 18.2734 9.90926C18.1074 9.70418 17.9121 9.63582 17.0918 9.47957L16.1054 9.30379L15.7441 8.6202C15.1386 7.46785 14.6894 7.13582 14.1132 7.41902ZM15.3242 10.8175C15.5195 10.8663 15.7441 10.9151 15.8125 10.9151C15.9003 10.9151 15.8515 11.0225 15.6953 11.2179C15.3828 11.5792 15.3046 11.8819 15.3828 12.3311C15.4609 12.712 15.4121 12.7315 15.0507 12.5264C14.914 12.4483 14.6796 12.3897 14.5136 12.3897C14.3574 12.3897 14.1132 12.4483 13.9765 12.5264C13.6054 12.7413 13.5761 12.712 13.6445 12.1944C13.7031 11.7452 13.6836 11.6964 13.3515 11.3253L13 10.9346L13.4296 10.8761C13.8593 10.8077 14.1328 10.5929 14.3671 10.1436L14.4843 9.91902L14.7187 10.3096C14.8945 10.6124 15.0507 10.7393 15.3242 10.8175Z" fill="#127384"/>
<path d="M35.9882 8.20017C35.8711 8.249 35.5683 8.67869 35.3144 9.13767C35.0507 9.60642 34.8261 10.0068 34.8164 10.0263C34.7968 10.0459 34.3769 10.1435 33.8789 10.2412C32.7558 10.4756 32.4921 10.6513 32.4531 11.1787C32.4238 11.5498 32.4726 11.6279 33.1269 12.331C33.7812 13.0439 33.8203 13.1025 33.7617 13.4443C33.7324 13.6396 33.6738 14.1084 33.6445 14.499C33.5859 15.1533 33.5957 15.2119 33.83 15.4463C34.1816 15.7978 34.5429 15.7685 35.5293 15.3095L36.3496 14.9287L37.2285 15.3095C38.2343 15.7588 38.4589 15.7783 38.83 15.4853L39.1035 15.2705L39.0351 14.1474L38.9668 13.0146L39.3769 12.624C40.3144 11.7256 40.5293 11.1787 40.1484 10.6904C39.9824 10.4853 39.7871 10.417 38.9668 10.2607L37.9804 10.0849L37.6191 9.40135C37.0136 8.249 36.5644 7.91697 35.9882 8.20017ZM37.1992 11.5986C37.3945 11.6474 37.6191 11.6963 37.6875 11.6963C37.7753 11.6963 37.7265 11.8037 37.5703 11.999C37.2578 12.3603 37.1796 12.6631 37.2578 13.1123C37.3359 13.4931 37.2871 13.5127 36.9257 13.3076C36.789 13.2295 36.5546 13.1709 36.3886 13.1709C36.2324 13.1709 35.9882 13.2295 35.8515 13.3076C35.4804 13.5224 35.4511 13.4931 35.5195 12.9756C35.5781 12.5263 35.5586 12.4775 35.2265 12.1064L34.875 11.7158L35.3046 11.6572C35.7343 11.5888 36.0078 11.374 36.2421 10.9248L36.3593 10.7002L36.5937 11.0908C36.7695 11.3935 36.9257 11.5205 37.1992 11.5986Z" fill="#127384"/>
<path d="M22.9511 8.41505C21.7402 8.84474 21.1347 10.1338 21.5155 11.4424C21.6034 11.7647 21.9745 12.1943 23.3905 13.6201C25.705 15.9736 25.373 15.9541 27.5214 13.8252C29.5038 11.8526 29.7968 11.3154 29.5136 10.1631C29.3378 9.4795 28.9863 9.01075 28.4003 8.66896C27.9706 8.42482 27.7851 8.37599 27.2284 8.37599C26.5644 8.37599 25.998 8.542 25.6757 8.82521C25.5292 8.97169 25.4804 8.96193 25.1874 8.73732C24.5624 8.27833 23.6835 8.15138 22.9511 8.41505ZM27.6874 10.2315C27.7948 10.3389 27.873 10.544 27.873 10.7197C27.873 10.9834 27.6972 11.1983 26.6816 12.2139L25.4999 13.4053L24.328 12.2236C23.3222 11.2178 23.1562 11.0029 23.1562 10.7393C23.1562 10.3486 23.4589 10.0361 23.8398 10.0361C24.0546 10.0361 24.2792 10.1729 24.6796 10.5342C25.1777 10.9834 25.2655 11.0322 25.578 10.9736C25.8124 10.9443 26.0761 10.7783 26.3691 10.4951C26.6132 10.251 26.8866 10.0361 26.9648 10.0068C27.1698 9.93849 27.4726 10.0264 27.6874 10.2315Z" fill="#FFA633"/>
<path d="M24.0449 24.1572C23.1758 24.3916 22.375 24.8701 21.6426 25.6123C20.4023 26.8525 20.0312 27.9268 20.0312 30.1924C20.0312 32.5264 20.4219 33.6787 21.584 34.8506L22.2285 35.5049L21.5938 35.7783C20.7246 36.1592 19.6602 36.8916 18.918 37.6143C18.3027 38.2197 18.293 38.2295 18.0195 38.083C17.8633 38.0049 17.7168 37.9268 17.6973 37.9072C17.6777 37.8877 17.8535 37.6631 18.0781 37.4092C18.9961 36.3643 19.2793 35.3975 19.2793 33.3271C19.2891 31.2764 19.0156 30.4365 18 29.3525C17.0723 28.3662 15.9883 27.9072 14.5625 27.9072C13.1367 27.9072 12.0527 28.3662 11.125 29.3525C10.1094 30.4365 9.83594 31.2861 9.8457 33.3271C9.85547 35.4756 10.1094 36.335 11.0859 37.3604C11.3594 37.6533 11.5352 37.917 11.4766 37.9365C11.2227 38.0244 10.2363 38.6592 9.81641 39.001C8.89844 39.7529 7.9707 41.2861 7.53125 42.7607C7.375 43.2588 6.84766 45.6611 6.84766 45.8369C6.84766 45.8564 6.21289 45.876 5.43164 45.876C4.14258 45.876 3.99609 45.8955 3.82031 46.0713C3.55664 46.335 3.55664 46.9795 3.82031 47.2432C4.01562 47.4385 4.14258 47.4385 25.5 47.4385C46.8574 47.4385 46.9844 47.4385 47.1797 47.2432C47.4434 46.9795 47.4434 46.335 47.1797 46.0713C47.0039 45.8955 46.8574 45.876 45.5781 45.876H44.1621L44.0547 45.3096C43.4102 42.0186 42.7852 40.5732 41.457 39.2842C40.959 38.7959 39.9141 38.0635 39.5234 37.9365C39.4648 37.917 39.6504 37.6436 39.9336 37.3311C40.9102 36.2666 41.1445 35.4756 41.1543 33.3271C41.1641 31.2764 40.8906 30.4365 39.875 29.3525C38.9473 28.3662 37.8633 27.9072 36.4375 27.9072C35.0117 27.9072 33.9277 28.3662 33 29.3525C31.9844 30.4365 31.7109 31.2861 31.7207 33.3271C31.7305 35.4756 31.9941 36.335 32.9512 37.3506C33.2148 37.6338 33.4199 37.8877 33.4004 37.9072C33.3809 37.9268 33.2246 38.0146 33.0488 38.1025L32.7363 38.2588L32.4043 37.8584C31.8477 37.2139 30.7832 36.4229 29.7969 35.9248L28.8594 35.4561L29.4648 34.8604C30.1094 34.2256 30.5684 33.4248 30.832 32.4971C31.0371 31.7549 31.125 29.3916 30.9785 28.542C30.6172 26.4717 28.9863 24.665 27.0039 24.1572C26.252 23.9619 24.7578 23.9619 24.0449 24.1572ZM27.0625 25.9639C27.834 26.3252 28.5664 27.0186 28.918 27.751C29.5234 28.9717 29.5527 31.4033 28.9766 32.6436C28.6543 33.3467 27.8047 34.1865 27.0918 34.5283C26.584 34.7627 26.4082 34.792 25.5 34.792C24.5918 34.792 24.416 34.7627 23.9082 34.5283C23.1953 34.1865 22.3457 33.3467 22.0234 32.6436C21.4863 31.4717 21.4766 29.04 22.0137 27.8682C22.4531 26.9209 23.3516 26.1299 24.3574 25.7979C25.0312 25.583 26.4082 25.6611 27.0625 25.9639ZM16.0078 29.9092C16.9844 30.4365 17.4531 31.1885 17.6191 32.5068C17.7559 33.5713 17.6094 34.9092 17.2969 35.5146C17.0332 36.0322 16.4473 36.6279 15.9102 36.9111C15.5586 37.0967 15.3438 37.1357 14.5625 37.1357C13.791 37.1357 13.5664 37.0967 13.2246 36.9111C12.1699 36.3545 11.6816 35.5928 11.5059 34.2549C11.3789 33.1904 11.5156 31.8428 11.8184 31.2568C12.4141 30.085 13.3516 29.5381 14.709 29.5967C15.3535 29.626 15.5879 29.6748 16.0078 29.9092ZM37.8828 29.9092C38.8594 30.4365 39.3281 31.1885 39.4941 32.5068C39.6309 33.5713 39.4844 34.9092 39.1719 35.5146C38.9082 36.0322 38.3223 36.6279 37.7852 36.9111C37.4336 37.0967 37.2188 37.1357 36.4375 37.1357C35.666 37.1357 35.4414 37.0967 35.0996 36.9111C34.0449 36.3545 33.5566 35.5928 33.3809 34.2549C33.2539 33.1904 33.3906 31.8428 33.6934 31.2568C34.2891 30.085 35.2266 29.5381 36.584 29.5967C37.2285 29.626 37.4629 29.6748 37.8828 29.9092ZM27.1504 36.7451C29.748 37.3604 31.8965 39.1865 32.8047 41.5498C33.0684 42.2236 33.8008 45.3096 33.8008 45.7295C33.8008 45.8662 33.6641 45.876 32.7559 45.8564L31.7109 45.8271L31.3008 44.0693C30.8516 42.1455 30.7539 41.9697 30.1191 41.9697C29.7188 41.9697 29.3086 42.3311 29.3086 42.6924C29.3086 42.8291 29.4648 43.5811 29.6504 44.3721C29.8359 45.1533 29.9922 45.8174 29.9922 45.8369C29.9922 45.8564 27.9805 45.876 25.5098 45.876H21.0371L21.3594 44.333C21.5449 43.4932 21.6621 42.6826 21.6328 42.5459C21.5547 42.1553 21.2422 41.9209 20.8027 41.9209C20.1582 41.9209 20.0703 42.0967 19.6895 44.0791C19.5039 45.0361 19.3477 45.8369 19.3477 45.8467C19.3477 45.8662 18.8594 45.876 18.2637 45.876H17.1797L17.248 45.4072C17.375 44.5186 18.0684 41.8037 18.3125 41.2568C19.2695 39.0986 21.2715 37.4189 23.6445 36.8037C24.5625 36.5596 26.252 36.54 27.1504 36.7451ZM16.2227 39.2256C16.5742 39.333 16.9453 39.4795 17.043 39.5576C17.209 39.6846 17.209 39.7041 16.9648 40.1924C16.5547 40.9932 16.2422 42.0479 15.832 43.9814C15.6172 44.9873 15.4414 45.8174 15.4414 45.8369C15.4414 45.8564 14.6016 45.876 13.5762 45.876H11.7109L11.7695 45.6514C12.2383 43.9717 12.3359 43.4443 12.1992 43.1807C11.9551 42.6533 11.1934 42.5166 10.8125 42.9268C10.7344 43.0244 10.5098 43.7178 10.334 44.46L9.99219 45.8271L9.26953 45.8564L8.53711 45.8857L8.82031 44.5381C9.17188 42.8486 9.29883 42.4482 9.75781 41.6865C10.4609 40.4854 11.7598 39.5283 13.2148 39.1377C14.1035 38.8936 15.2949 38.9326 16.2227 39.2256ZM37.6191 39.0791C38.6348 39.2939 39.6016 39.8408 40.4023 40.6416C41.3496 41.5889 41.7207 42.3799 42.1016 44.1963C42.2676 44.958 42.3945 45.6611 42.3945 45.7393C42.3945 45.8564 42.2676 45.876 41.7012 45.8564L40.998 45.8271L40.7637 44.8506C40.3926 43.2881 40.3438 43.1416 40.1387 42.9365C39.6992 42.4971 38.7812 42.8779 38.7812 43.5029C38.7812 43.6494 38.8887 44.2256 39.0254 44.7822C39.1621 45.3389 39.2695 45.8076 39.2695 45.8369C39.2695 45.8564 38.4395 45.876 37.4238 45.876H35.5781L35.5098 45.6123C35.4805 45.4658 35.3438 44.8213 35.207 44.1768C34.8457 42.3994 34.5234 41.2568 34.1426 40.4463C33.957 40.0361 33.8301 39.665 33.8496 39.6162C33.918 39.5088 34.9238 39.1377 35.4121 39.04C36.0273 38.9131 36.916 38.9326 37.6191 39.0791Z" fill="#0A152F"/>
</g>
<defs>
<clipPath id="clip0_3583_70692">
<rect width="50" height="50" fill="white" transform="translate(0.5 0.563477)"/>
</clipPath>
</defs>
</svg>
