<svg width="51" height="50" viewBox="0 0 51 50" fill="none" xmlns="http://www.w3.org/2000/svg">
<path d="M7.27734 3.39844C5.62695 3.97461 4.47461 5.12695 3.89844 6.77734L3.625 7.56836V10.9375V14.3066L3.89844 15.0977C4.48438 16.7578 5.68555 17.9395 7.36523 18.5059C8.04883 18.7305 8.23438 18.75 9.89453 18.75H11.6816L12.8047 21.0059C13.4199 22.2461 14.0059 23.3008 14.0938 23.3496C14.3086 23.4668 14.8164 23.4668 15.0312 23.3496C15.1191 23.3008 15.7051 22.2461 16.3203 21.0059L17.4434 18.75H20.4219H23.4102L24.1328 20.2246C24.5332 21.0352 24.9434 21.7383 25.0312 21.7871C25.2461 21.9043 25.7539 21.9043 25.9688 21.7871C26.0566 21.7383 26.4668 21.0352 26.8672 20.2246L27.5898 18.75H30.5781H33.5566L34.6797 21.0059C35.2949 22.2461 35.8809 23.3008 35.9688 23.3496C36.1836 23.4668 36.6914 23.4668 36.9062 23.3496C36.9941 23.3008 37.5801 22.2461 38.1953 21.0059L39.3184 18.75H41.0859C43.0488 18.75 43.459 18.6719 44.5527 18.1055C45.7344 17.4805 46.6426 16.416 47.1016 15.0977L47.375 14.3066V10.9375V7.56836L47.1016 6.77734C46.5254 5.13672 45.3633 3.97461 43.7227 3.39844L42.9316 3.125H25.5H8.06836L7.27734 3.39844ZM42.3457 4.78516C44.1621 5.04883 45.4512 6.34766 45.7148 8.1543C45.8418 9.04297 45.832 12.8418 45.7148 13.7207C45.5781 14.6484 45.2363 15.332 44.6016 15.9766C43.6055 16.9629 42.7754 17.1777 39.9824 17.1875H38.293L37.8828 17.9004C37.6484 18.291 37.248 19.082 36.9844 19.6582C36.7207 20.2344 36.4766 20.7031 36.4473 20.7031C36.418 20.7031 36.0469 20.0098 35.6367 19.1602C35.2168 18.3203 34.7969 17.5195 34.6992 17.3926L34.5137 17.1582L31.2031 17.1191C29.377 17.0898 27.5898 17.1094 27.209 17.1582L26.5254 17.2363L26.0371 18.1836C25.7734 18.7109 25.5293 19.1406 25.5 19.1406C25.4707 19.1406 25.2363 18.7207 24.9824 18.2129C24.6113 17.4609 24.4746 17.2754 24.2598 17.2168C24.1035 17.168 22.3066 17.1387 20.2461 17.1387H16.5059L16.3105 17.3828C16.2031 17.5195 15.7832 18.3203 15.3633 19.1602C14.9531 20.0098 14.582 20.7031 14.5527 20.7031C14.5234 20.7031 14.2793 20.2344 14.0156 19.6582C13.752 19.082 13.3516 18.291 13.1172 17.9004L12.707 17.1875H11.0176C8.22461 17.1777 7.39453 16.9629 6.39844 15.9766C5.37305 14.9512 5.1875 14.1797 5.1875 10.9375C5.1875 8.56445 5.28516 7.70508 5.62695 6.96289C6.13477 5.84961 7.31641 4.9707 8.55664 4.79492C9.40625 4.67773 41.4961 4.66797 42.3457 4.78516Z" fill="#111111"/>
<path d="M14.1132 6.85543C13.9961 6.90425 13.6933 7.33394 13.4394 7.79293C13.1757 8.26168 12.9511 8.66207 12.9414 8.6816C12.9218 8.70113 12.5019 8.79879 12.0039 8.89644C10.8808 9.13082 10.6171 9.3066 10.5781 9.83394C10.5488 10.205 10.5976 10.2832 11.2519 10.9863C11.9062 11.6992 11.9453 11.7578 11.8867 12.0996C11.8574 12.2949 11.7988 12.7636 11.7695 13.1543C11.7011 13.8183 11.7109 13.8574 11.9648 14.1113C12.3066 14.4531 12.6679 14.414 13.7226 13.9355L14.4746 13.5839L15.3535 13.9648C16.3593 14.414 16.5839 14.4336 16.955 14.1406L17.2285 13.9257L17.1601 12.8027L17.0918 11.6699L17.5019 11.2793C18.4394 10.3808 18.6543 9.83394 18.2734 9.34566C18.1074 9.14058 17.9121 9.07222 17.0918 8.91597L16.1054 8.74019L15.7441 8.0566C15.1386 6.90425 14.6894 6.57222 14.1132 6.85543ZM15.3242 10.2539C15.5195 10.3027 15.7441 10.3515 15.8125 10.3515C15.9003 10.3515 15.8515 10.4589 15.6953 10.6543C15.3828 11.0156 15.3046 11.3183 15.3828 11.7675C15.4609 12.1484 15.4121 12.1679 15.0507 11.9628C14.914 11.8847 14.6796 11.8261 14.5136 11.8261C14.3574 11.8261 14.1132 11.8847 13.9765 11.9628C13.6054 12.1777 13.5761 12.1484 13.6445 11.6308C13.7031 11.1816 13.6836 11.1328 13.3515 10.7617L13 10.3711L13.4296 10.3125C13.8593 10.2441 14.1328 10.0293 14.3671 9.58004L14.4843 9.35543L14.7187 9.74605C14.8945 10.0488 15.0507 10.1757 15.3242 10.2539Z" fill="#127384"/>
<path d="M35.9882 7.6367C35.8711 7.68553 35.5683 8.11521 35.3144 8.5742C35.0507 9.04295 34.8261 9.44334 34.8164 9.46287C34.7968 9.4824 34.3769 9.58006 33.8789 9.67771C32.7558 9.91209 32.4921 10.0879 32.4531 10.6152C32.4238 10.9863 32.4726 11.0644 33.1269 11.7676C33.7812 12.4804 33.8203 12.539 33.7617 12.8808C33.7324 13.0762 33.6738 13.5449 33.6445 13.9355C33.5859 14.5898 33.5957 14.6484 33.83 14.8828C34.1816 15.2344 34.5429 15.2051 35.5293 14.7461L36.3496 14.3652L37.2285 14.7461C38.2343 15.1953 38.4589 15.2148 38.83 14.9219L39.1035 14.707L39.0351 13.584L38.9668 12.4512L39.3769 12.0605C40.3144 11.1621 40.5293 10.6152 40.1484 10.1269C39.9824 9.92185 39.7871 9.8535 38.9668 9.69725L37.9804 9.52146L37.6191 8.83787C37.0136 7.68553 36.5644 7.3535 35.9882 7.6367ZM37.1992 11.0351C37.3945 11.084 37.6191 11.1328 37.6875 11.1328C37.7753 11.1328 37.7265 11.2402 37.5703 11.4355C37.2578 11.7969 37.1796 12.0996 37.2578 12.5488C37.3359 12.9297 37.2871 12.9492 36.9257 12.7441C36.789 12.666 36.5546 12.6074 36.3886 12.6074C36.2324 12.6074 35.9882 12.666 35.8515 12.7441C35.4804 12.959 35.4511 12.9297 35.5195 12.4121C35.5781 11.9629 35.5586 11.914 35.2265 11.5429L34.875 11.1523L35.3046 11.0937C35.7343 11.0254 36.0078 10.8105 36.2421 10.3613L36.3593 10.1367L36.5937 10.5273C36.7695 10.8301 36.9257 10.957 37.1992 11.0351Z" fill="#127384"/>
<path d="M22.9511 7.85157C21.7402 8.28126 21.1347 9.57032 21.5155 10.8789C21.6034 11.2012 21.9745 11.6309 23.3905 13.0567C25.705 15.4102 25.373 15.3906 27.5214 13.2617C29.5038 11.2891 29.7968 10.752 29.5136 9.59962C29.3378 8.91603 28.9863 8.44728 28.4003 8.10548C27.9706 7.86134 27.7851 7.81251 27.2284 7.81251C26.5644 7.81251 25.998 7.97853 25.6757 8.26173C25.5292 8.40822 25.4804 8.39845 25.1874 8.17384C24.5624 7.71486 23.6835 7.5879 22.9511 7.85157ZM27.6874 9.66798C27.7948 9.7754 27.873 9.98048 27.873 10.1563C27.873 10.4199 27.6972 10.6348 26.6816 11.6504L25.4999 12.8418L24.328 11.6602C23.3222 10.6543 23.1562 10.4395 23.1562 10.1758C23.1562 9.78517 23.4589 9.47267 23.8398 9.47267C24.0546 9.47267 24.2792 9.60939 24.6796 9.97072C25.1777 10.4199 25.2655 10.4688 25.578 10.4102C25.8124 10.3809 26.0761 10.2149 26.3691 9.93165C26.6132 9.68751 26.8866 9.47267 26.9648 9.44337C27.1698 9.37501 27.4726 9.4629 27.6874 9.66798Z" fill="#FFA633"/>
<path d="M24.0449 23.5938C23.1758 23.8281 22.375 24.3066 21.6426 25.0488C20.4023 26.2891 20.0312 27.3633 20.0312 29.6289C20.0312 31.9629 20.4219 33.1152 21.584 34.2871L22.2285 34.9414L21.5938 35.2148C20.7246 35.5957 19.6602 36.3281 18.918 37.0508C18.3027 37.6562 18.293 37.666 18.0195 37.5195C17.8633 37.4414 17.7168 37.3633 17.6973 37.3438C17.6777 37.3242 17.8535 37.0996 18.0781 36.8457C18.9961 35.8008 19.2793 34.834 19.2793 32.7637C19.2891 30.7129 19.0156 29.873 18 28.7891C17.0723 27.8027 15.9883 27.3438 14.5625 27.3438C13.1367 27.3438 12.0527 27.8027 11.125 28.7891C10.1094 29.873 9.83594 30.7227 9.8457 32.7637C9.85547 34.9121 10.1094 35.7715 11.0859 36.7969C11.3594 37.0898 11.5352 37.3535 11.4766 37.373C11.2227 37.4609 10.2363 38.0957 9.81641 38.4375C8.89844 39.1895 7.9707 40.7227 7.53125 42.1973C7.375 42.6953 6.84766 45.0977 6.84766 45.2734C6.84766 45.293 6.21289 45.3125 5.43164 45.3125C4.14258 45.3125 3.99609 45.332 3.82031 45.5078C3.55664 45.7715 3.55664 46.416 3.82031 46.6797C4.01562 46.875 4.14258 46.875 25.5 46.875C46.8574 46.875 46.9844 46.875 47.1797 46.6797C47.4434 46.416 47.4434 45.7715 47.1797 45.5078C47.0039 45.332 46.8574 45.3125 45.5781 45.3125H44.1621L44.0547 44.7461C43.4102 41.4551 42.7852 40.0098 41.457 38.7207C40.959 38.2324 39.9141 37.5 39.5234 37.373C39.4648 37.3535 39.6504 37.0801 39.9336 36.7676C40.9102 35.7031 41.1445 34.9121 41.1543 32.7637C41.1641 30.7129 40.8906 29.873 39.875 28.7891C38.9473 27.8027 37.8633 27.3438 36.4375 27.3438C35.0117 27.3438 33.9277 27.8027 33 28.7891C31.9844 29.873 31.7109 30.7227 31.7207 32.7637C31.7305 34.9121 31.9941 35.7715 32.9512 36.7871C33.2148 37.0703 33.4199 37.3242 33.4004 37.3438C33.3809 37.3633 33.2246 37.4512 33.0488 37.5391L32.7363 37.6953L32.4043 37.2949C31.8477 36.6504 30.7832 35.8594 29.7969 35.3613L28.8594 34.8926L29.4648 34.2969C30.1094 33.6621 30.5684 32.8613 30.832 31.9336C31.0371 31.1914 31.125 28.8281 30.9785 27.9785C30.6172 25.9082 28.9863 24.1016 27.0039 23.5938C26.252 23.3984 24.7578 23.3984 24.0449 23.5938ZM27.0625 25.4004C27.834 25.7617 28.5664 26.4551 28.918 27.1875C29.5234 28.4082 29.5527 30.8398 28.9766 32.0801C28.6543 32.7832 27.8047 33.623 27.0918 33.9648C26.584 34.1992 26.4082 34.2285 25.5 34.2285C24.5918 34.2285 24.416 34.1992 23.9082 33.9648C23.1953 33.623 22.3457 32.7832 22.0234 32.0801C21.4863 30.9082 21.4766 28.4766 22.0137 27.3047C22.4531 26.3574 23.3516 25.5664 24.3574 25.2344C25.0312 25.0195 26.4082 25.0977 27.0625 25.4004ZM16.0078 29.3457C16.9844 29.873 17.4531 30.625 17.6191 31.9434C17.7559 33.0078 17.6094 34.3457 17.2969 34.9512C17.0332 35.4688 16.4473 36.0645 15.9102 36.3477C15.5586 36.5332 15.3438 36.5723 14.5625 36.5723C13.791 36.5723 13.5664 36.5332 13.2246 36.3477C12.1699 35.791 11.6816 35.0293 11.5059 33.6914C11.3789 32.627 11.5156 31.2793 11.8184 30.6934C12.4141 29.5215 13.3516 28.9746 14.709 29.0332C15.3535 29.0625 15.5879 29.1113 16.0078 29.3457ZM37.8828 29.3457C38.8594 29.873 39.3281 30.625 39.4941 31.9434C39.6309 33.0078 39.4844 34.3457 39.1719 34.9512C38.9082 35.4688 38.3223 36.0645 37.7852 36.3477C37.4336 36.5332 37.2188 36.5723 36.4375 36.5723C35.666 36.5723 35.4414 36.5332 35.0996 36.3477C34.0449 35.791 33.5566 35.0293 33.3809 33.6914C33.2539 32.627 33.3906 31.2793 33.6934 30.6934C34.2891 29.5215 35.2266 28.9746 36.584 29.0332C37.2285 29.0625 37.4629 29.1113 37.8828 29.3457ZM27.1504 36.1816C29.748 36.7969 31.8965 38.623 32.8047 40.9863C33.0684 41.6602 33.8008 44.7461 33.8008 45.166C33.8008 45.3027 33.6641 45.3125 32.7559 45.293L31.7109 45.2637L31.3008 43.5059C30.8516 41.582 30.7539 41.4062 30.1191 41.4062C29.7188 41.4062 29.3086 41.7676 29.3086 42.1289C29.3086 42.2656 29.4648 43.0176 29.6504 43.8086C29.8359 44.5898 29.9922 45.2539 29.9922 45.2734C29.9922 45.293 27.9805 45.3125 25.5098 45.3125H21.0371L21.3594 43.7695C21.5449 42.9297 21.6621 42.1191 21.6328 41.9824C21.5547 41.5918 21.2422 41.3574 20.8027 41.3574C20.1582 41.3574 20.0703 41.5332 19.6895 43.5156C19.5039 44.4727 19.3477 45.2734 19.3477 45.2832C19.3477 45.3027 18.8594 45.3125 18.2637 45.3125H17.1797L17.248 44.8438C17.375 43.9551 18.0684 41.2402 18.3125 40.6934C19.2695 38.5352 21.2715 36.8555 23.6445 36.2402C24.5625 35.9961 26.252 35.9766 27.1504 36.1816ZM16.2227 38.6621C16.5742 38.7695 16.9453 38.916 17.043 38.9941C17.209 39.1211 17.209 39.1406 16.9648 39.6289C16.5547 40.4297 16.2422 41.4844 15.832 43.418C15.6172 44.4238 15.4414 45.2539 15.4414 45.2734C15.4414 45.293 14.6016 45.3125 13.5762 45.3125H11.7109L11.7695 45.0879C12.2383 43.4082 12.3359 42.8809 12.1992 42.6172C11.9551 42.0898 11.1934 41.9531 10.8125 42.3633C10.7344 42.4609 10.5098 43.1543 10.334 43.8965L9.99219 45.2637L9.26953 45.293L8.53711 45.3223L8.82031 43.9746C9.17188 42.2852 9.29883 41.8848 9.75781 41.123C10.4609 39.9219 11.7598 38.9648 13.2148 38.5742C14.1035 38.3301 15.2949 38.3691 16.2227 38.6621ZM37.6191 38.5156C38.6348 38.7305 39.6016 39.2773 40.4023 40.0781C41.3496 41.0254 41.7207 41.8164 42.1016 43.6328C42.2676 44.3945 42.3945 45.0977 42.3945 45.1758C42.3945 45.293 42.2676 45.3125 41.7012 45.293L40.998 45.2637L40.7637 44.2871C40.3926 42.7246 40.3438 42.5781 40.1387 42.373C39.6992 41.9336 38.7812 42.3145 38.7812 42.9395C38.7812 43.0859 38.8887 43.6621 39.0254 44.2188C39.1621 44.7754 39.2695 45.2441 39.2695 45.2734C39.2695 45.293 38.4395 45.3125 37.4238 45.3125H35.5781L35.5098 45.0488C35.4805 44.9023 35.3438 44.2578 35.207 43.6133C34.8457 41.8359 34.5234 40.6934 34.1426 39.8828C33.957 39.4727 33.8301 39.1016 33.8496 39.0527C33.918 38.9453 34.9238 38.5742 35.4121 38.4766C36.0273 38.3496 36.916 38.3691 37.6191 38.5156Z" fill="#111111"/>
</svg>
