<svg width="51" height="50" viewBox="0 0 51 50" fill="none" xmlns="http://www.w3.org/2000/svg">
<g clip-path="url(#clip0_3510_75341)">
<path d="M31.9471 0.113228C30.9404 0.31847 29.7676 0.777828 28.9075 1.29583C27.9204 1.88224 26.5521 3.16258 25.9266 4.07153L25.4574 4.75568H24.9199C22.5058 4.75568 18.9287 5.50824 16.9251 6.4465L16.4071 6.68107L15.9966 6.2999C13.7487 4.2279 10.24 4.27677 8.09957 6.41718C6.98538 7.53137 6.43806 8.86058 6.43806 10.4537C6.43806 11.7731 6.78014 12.8482 7.5327 13.9037L7.82591 14.3045L7.32746 15.1743C6.67263 16.3276 6.00803 17.9305 5.60731 19.3183C5.24569 20.5693 4.87429 22.612 4.87429 23.3255C4.87429 24.0976 4.86452 24.1074 3.90671 24.1074C3.44735 24.1074 2.9098 24.1562 2.7241 24.2051C2.32339 24.3126 1.80539 24.8013 1.65878 25.2118C1.5806 25.3975 1.55128 28.1438 1.55128 33.6855V41.8757L1.2092 41.9344C0.79871 42.0125 0.25139 42.4621 0.0852389 42.8628C0.00705026 43.0485 -0.0124969 43.5959 0.00705026 44.495C0.036371 45.7167 0.0559181 45.8829 0.25139 46.1565C0.66188 46.7332 0.906219 46.7821 3.23233 46.7821H5.3141L5.57799 47.2512C6.1644 48.297 7.30791 49.245 8.53938 49.7141C9.26263 49.9878 10.8948 50.0855 11.7451 49.9096C13.1134 49.6262 14.6772 48.4924 15.3516 47.3L15.6448 46.7821H20.1602H24.6658L24.9981 47.3391C25.7018 48.5022 27.0505 49.5089 28.3895 49.8607C29.1225 50.0464 30.569 50.0464 31.302 49.8607C32.6508 49.5089 34.0582 48.4533 34.7326 47.2903L35.0258 46.7821H36.355C37.5669 46.7821 37.7135 46.7625 38.0165 46.5573C38.2022 46.44 38.4465 46.1468 38.5736 45.9024C38.769 45.5115 38.7886 45.3258 38.7886 44.065C38.7886 42.8335 38.7495 42.5305 38.4954 41.5043L38.2022 40.351L38.9938 39.5887C39.4337 39.1587 40.1276 38.4159 40.5283 37.937C40.929 37.4483 41.2906 37.0476 41.3297 37.028C41.3688 37.0182 42.053 37.8783 42.8544 38.9534C43.6558 40.0285 44.34 40.8984 44.3791 40.8886C44.5452 40.8397 49.305 34.3696 49.52 33.9005C49.8914 33.0795 50.0282 32.4344 50.0282 31.4375C50.0282 29.7565 49.5493 28.5934 48.3765 27.4304C47.5653 26.6289 46.6954 26.1305 45.7572 25.935L45.2392 25.8275V24.8892C45.2392 22.827 44.7602 20.1393 44.0175 18.0966C43.8318 17.5591 43.3822 16.5426 43.0401 15.8389L42.4048 14.5683L42.7371 13.8353C43.3919 12.4279 43.5288 11.6754 43.519 9.64246C43.519 7.95163 43.4995 7.77571 43.2453 6.9645C42.4048 4.20835 40.411 1.89202 37.9481 0.797375C36.6189 0.201187 35.8272 0.0448112 34.1461 0.00571823C33.0808 -0.0138321 32.3771 0.0154915 31.9471 0.113228ZM35.2897 1.76496C37.9383 2.28296 40.1471 4.00311 41.1929 6.37809C41.7011 7.53137 41.8575 8.3328 41.8575 9.69133C41.8575 12.4377 41.5447 13.0339 37.3714 18.3409C35.622 20.5693 34.1071 22.4752 34.0191 22.5631C33.8627 22.7195 33.6672 22.4947 30.6277 18.6244C28.8489 16.3667 27.2558 14.2947 27.0896 14.021C26.2296 12.6625 25.8386 11.0987 25.9168 9.35903C25.9657 8.07869 26.1318 7.36522 26.6205 6.34877C27.2558 5.00002 28.2527 3.81741 29.4353 3.00621C31.0968 1.87247 33.3643 1.39357 35.2897 1.76496ZM13.6998 6.82767C15.205 7.5216 16.2605 9.32971 16.0553 10.8642C15.9282 11.8513 15.6448 12.34 13.8464 14.7443L12.097 17.0899L10.4257 14.8518C9.50696 13.6301 8.62734 12.3595 8.47097 12.0272C7.78682 10.571 8.12889 8.83126 9.32127 7.6291C10.1227 6.83745 11.0121 6.50515 12.2533 6.54424C12.957 6.56379 13.2405 6.62243 13.6998 6.82767ZM24.6169 6.55401C24.6169 6.58333 24.5192 6.98405 24.4019 7.46296C24.0794 8.76284 24.0989 10.8935 24.4605 12.2227C24.7928 13.5226 25.4183 14.7638 26.298 15.9073C28.4482 18.7221 33.8627 25.5441 33.9116 25.5147C33.9507 25.4952 35.622 23.3841 37.6255 20.8234L41.2809 16.1712L41.7402 17.1388C42.8055 19.3476 43.3724 21.6933 43.4506 24.2051L43.5092 25.8177L42.9815 25.935C41.662 26.2478 40.1862 27.3131 39.5216 28.4566C38.3097 30.5188 38.4465 33.0013 39.893 34.9951L40.2449 35.474L39.981 35.8259C39.5607 36.4025 38.4367 37.7122 38.0751 38.0738L37.7233 38.4061L37.6255 38.0249C37.5767 37.8099 37.1271 36.0213 36.6286 34.0471C35.6708 30.2256 35.5731 29.9422 34.8792 29.434C34.6935 29.2971 34.3905 29.1407 34.195 29.0919C33.9995 29.0332 32.1817 28.9941 29.8751 28.9941H25.8875V27.2544C25.8875 25.0554 25.7409 24.6547 24.7831 24.254C24.4703 24.1269 23.3073 24.1074 15.4688 24.1074H6.50648L6.57489 23.3939C6.79969 21.0287 7.43497 18.7905 8.48074 16.6892L8.9401 15.7803L10.4941 17.8425C11.3444 18.986 12.0676 19.8949 12.1165 19.8852C12.2436 19.8363 16.7883 13.7474 17.101 13.1903C17.5506 12.3986 17.8047 11.2453 17.7559 10.1898C17.7265 9.7011 17.6288 9.04628 17.5311 8.74329C17.4333 8.43054 17.3747 8.15688 17.404 8.12756C17.4236 8.09824 17.9318 7.89299 18.5182 7.67797C19.779 7.19907 21.0984 6.85699 22.369 6.6713C23.2682 6.54424 24.6169 6.47582 24.6169 6.55401ZM9.66334 28.9453V32.024L11.6962 31.0075L13.7194 29.991L15.7523 31.0075L17.7754 32.024V28.9453V25.8666H20.9518H24.1282V33.8809V41.8953H19.8865H15.6545L15.2929 41.3186C14.5501 40.1165 13.1818 39.1489 11.7549 38.8068C10.8948 38.6113 9.57538 38.67 8.67621 38.9534C7.50338 39.3248 6.28169 40.3022 5.62686 41.387L5.3141 41.8953H4.3172H3.31052V33.8809V25.8666H6.48693H9.66334V28.9453ZM16.1139 27.5281C16.1139 28.437 16.0944 29.1896 16.065 29.1896C16.0357 29.1896 15.5275 28.9453 14.9411 28.6521C14.3547 28.3589 13.7976 28.1145 13.7194 28.1145C13.6412 28.1145 13.0841 28.3589 12.4977 28.6521C11.9113 28.9453 11.403 29.1896 11.3737 29.1896C11.3444 29.1896 11.3248 28.437 11.3248 27.5281V25.8666H13.7194H16.1139V27.5281ZM45.7181 27.7138C47.9562 28.5641 48.9922 31.115 47.9269 33.1968C47.6825 33.6855 44.4475 37.9956 44.3498 37.9663C44.1934 37.9076 41.1049 33.7148 40.8313 33.187C39.248 30.0595 42.4537 26.4726 45.7181 27.7138ZM33.8334 30.8609C33.98 30.9684 34.1364 31.2323 34.195 31.4669C34.2537 31.6916 34.3221 31.9555 34.3514 32.0435C34.4003 32.1901 34.2146 32.2096 32.2012 32.239C30.1585 32.2683 29.9826 32.2781 29.7383 32.4735C29.1225 32.9329 29.0639 33.0893 29.0346 34.5944C29.0052 35.9138 29.015 36.0018 29.23 36.3243C29.3571 36.51 29.6112 36.7641 29.7871 36.8814C30.1097 37.1062 30.1683 37.1062 32.8658 37.1062H35.6122L36.2084 39.5007L36.8046 41.8953H35.8956H34.9769L34.7717 41.475C34.4296 40.8104 33.1688 39.6278 32.426 39.2759C30.3833 38.3084 28.0474 38.5234 26.3762 39.8526L25.8875 40.2338V35.4447V30.6557H29.7383C33.4718 30.6557 33.5891 30.6654 33.8334 30.8609ZM34.9964 34.6139C35.0844 34.9853 35.1724 35.3274 35.1724 35.3665C35.1724 35.4154 34.1657 35.4447 32.9244 35.4447H30.6765V34.6628V33.8809L32.7485 33.9005L34.8205 33.9298L34.9964 34.6139ZM11.5399 40.5367C12.1067 40.6638 13.0157 41.2404 13.4653 41.7487C13.651 41.9637 13.9344 42.423 14.1005 42.7749C14.3742 43.3515 14.4035 43.4981 14.4035 44.3387C14.3938 45.0717 14.3547 45.3844 14.169 45.834C13.8855 46.567 12.9961 47.5248 12.2827 47.8865C10.2791 48.9029 7.865 48.0624 6.89742 46.0197C6.60421 45.4137 6.58467 45.2867 6.58467 44.3387C6.58467 43.4297 6.61399 43.2538 6.84855 42.7456C7.21018 41.9832 7.99206 41.1818 8.73485 40.8104C9.68289 40.3413 10.3573 40.2826 11.5399 40.5367ZM31.1163 40.5954C32.1132 40.9472 32.9831 41.7389 33.4815 42.7553C33.7259 43.2538 33.7552 43.4102 33.7552 44.3387C33.7552 45.3062 33.7357 45.404 33.4327 46.0295C32.1914 48.5413 29.015 49.1082 27.0701 47.1534C25.4183 45.5017 25.5161 42.8824 27.2753 41.3577C28.3504 40.439 29.8262 40.1458 31.1163 40.5954ZM4.82542 44.3387V45.1205H3.2421H1.64901V44.3387V43.5568H3.2421H4.82542V44.3387ZM24.1771 44.3387V45.1205H20.1699H16.1628V44.3387V43.5568H20.1699H24.1771V44.3387ZM37.0294 44.3387V45.1205H36.2768H35.5144V44.3387V43.5568H36.2768H37.0294V44.3387Z" fill="#111111"/>
<path d="M32.2402 3.34813C29.9923 3.95409 28.194 5.74265 27.588 7.99058C27.3632 8.84088 27.3632 10.4633 27.588 11.3038C28.194 13.5322 30.0216 15.3599 32.2402 15.956C33.0808 16.1808 34.6152 16.1808 35.4655 15.956C37.8307 15.3403 39.6584 13.5029 40.1959 11.2061C40.3914 10.3949 40.3914 8.88974 40.2057 8.08831C39.6682 5.82084 37.7232 3.8759 35.4655 3.34813C34.6543 3.15266 32.9537 3.15266 32.2402 3.34813ZM35.0844 5.02918C37.4202 5.64492 39.0133 8.08831 38.6028 10.4242C38.2705 12.2714 36.8534 13.8059 35.0257 14.2848C32.0839 15.0471 29.1127 12.721 29.1127 9.64231C29.1127 7.78533 30.2269 6.0945 31.9666 5.29307C32.9635 4.83371 33.9995 4.74575 35.0844 5.02918Z" fill="#111111"/>
<path d="M11.4225 8.06895C10.7188 8.28397 10.064 8.86061 9.80008 9.50566C9.58506 10.0237 9.62416 10.9815 9.89782 11.5483C10.3083 12.4377 11.0609 12.8971 12.1164 12.8971C12.6344 12.8971 12.8592 12.8482 13.2599 12.6234C15.1365 11.5972 14.9117 8.82151 12.8983 8.12759C12.4389 7.97121 11.833 7.95167 11.4225 8.06895ZM12.4487 9.79887C12.6637 9.88683 12.8983 10.3755 12.8201 10.5905C12.5367 11.4115 11.5202 11.3822 11.3639 10.5514C11.2563 10.0139 11.8819 9.58385 12.4487 9.79887Z" fill="#111111"/>
<path d="M19.3394 21.7615V22.6411H20.1701H21.0009V21.7615V20.8819H20.1701H19.3394V21.7615Z" fill="#111111"/>
<path d="M22.5645 21.7615V22.6411H23.3952H24.226V21.7615V20.8819H23.3952H22.5645V21.7615Z" fill="#111111"/>
<path d="M25.7896 21.7615V22.6411H26.6203H27.4511V21.7615V20.8819H26.6203H25.7896V21.7615Z" fill="#111111"/>
<path d="M43.3335 29.2191C42.7471 29.5025 42.3855 29.8739 42.1216 30.4603C41.6915 31.4181 41.975 32.6203 42.8057 33.324C43.3139 33.7638 43.8222 33.9104 44.6138 33.8615C45.8551 33.7833 46.7151 32.8939 46.7836 31.6136C46.8324 30.7926 46.6467 30.2453 46.1581 29.7371C45.6694 29.2288 45.2784 29.0627 44.5063 29.0236C43.9297 28.9943 43.744 29.0236 43.3335 29.2191ZM44.8582 30.9392C45.0145 31.0956 45.1416 31.3204 45.1416 31.4377C45.1416 31.7015 44.6334 32.2195 44.3793 32.2195C44.2718 32.2195 44.0763 32.1316 43.9297 32.0143C43.4801 31.6624 43.6169 30.9294 44.1642 30.7242C44.4477 30.6167 44.5747 30.6558 44.8582 30.9392Z" fill="#111111"/>
<path d="M9.62444 42.0414C9.07712 42.2369 8.57867 42.6767 8.29524 43.224C7.97271 43.8593 7.95316 44.8758 8.26591 45.472C8.51025 45.9313 9.06735 46.4591 9.52671 46.6448C9.92742 46.8109 10.8266 46.8207 11.3348 46.6643C12.6933 46.2636 13.3579 44.4848 12.6445 43.1752C12.0581 42.1098 10.7875 41.6212 9.62444 42.0414ZM11.0123 43.8789C11.1393 43.9961 11.2273 44.1916 11.2273 44.3578C11.2273 44.7096 10.8364 45.1201 10.4943 45.1201C10.1718 45.1201 9.76127 44.7194 9.76127 44.3969C9.76127 44.0157 9.86878 43.8398 10.1815 43.7029C10.5236 43.5563 10.6898 43.5954 11.0123 43.8789Z" fill="#111111"/>
<path d="M28.9758 42.0418C28.1353 42.3643 27.5391 43.1267 27.4022 44.0649C27.2556 45.0227 27.8616 46.1467 28.751 46.5767C29.3276 46.8602 30.3539 46.8602 30.9305 46.5767C31.7222 46.1956 32.3379 45.2182 32.3379 44.3386C32.3379 43.9183 32.0838 43.1853 31.8101 42.8237C31.2139 42.0516 29.9043 41.6899 28.9758 42.0418ZM30.4418 43.9281C30.7741 44.3581 30.393 45.1205 29.8456 45.1205C29.5036 45.1205 29.1126 44.71 29.1126 44.3581C29.1126 44.0845 29.3961 43.7326 29.699 43.6349C29.8945 43.5665 30.2854 43.7228 30.4418 43.9281Z" fill="#111111"/>
<circle cx="33.6668" cy="9.28744" r="5.24399" fill="#FFA633"/>
<circle cx="44.2409" cy="30.9887" r="1.48801" fill="#FFA633"/>
<circle cx="11.8825" cy="10.0642" r="1.48801" fill="#127384"/>
</g>
<defs>
<clipPath id="clip0_3510_75341">
<rect width="50.0282" height="50" fill="white"/>
</clipPath>
</defs>
</svg>
