<svg width="50" height="50" viewBox="0 0 50 50" fill="none" xmlns="http://www.w3.org/2000/svg">
<g clip-path="url(#clip0_3513_76666)">
<g clip-path="url(#clip1_3513_76666)">
<rect x="21.4404" y="37.0686" width="7.30429" height="4.45845" fill="#127384"/>
<path d="M21.7773 0.146454C16.9727 0.790985 12.8223 2.5195 9.32617 5.34177C8.14453 6.2988 5.9375 8.53513 5.05859 9.66794C2.53906 12.9394 0.957031 16.6699 0.224609 21.1425C-0.0292969 22.6757 -0.0292969 27.1972 0.224609 28.8086C0.908203 33.2031 2.5293 37.0507 5.05859 40.332C5.9375 41.4648 8.14453 43.7011 9.32617 44.6582C12.8809 47.5293 17.1094 49.2675 21.9727 49.8632C23.623 50.0586 27.334 50.0097 28.9062 49.7656C33.1836 49.1015 37.0898 47.4511 40.332 44.9414C41.4648 44.0625 43.7012 41.8554 44.6582 40.6738C47.334 37.3632 49.0625 33.3789 49.7656 28.9062C50.0098 27.334 50.0586 23.623 49.8633 21.9726C49.2871 17.2558 47.6562 13.1836 44.9414 9.66794C44.0625 8.53513 41.8555 6.2988 40.6738 5.34177C38.7109 3.74997 36.2012 2.34372 33.8184 1.48434C32.5391 1.01559 30.3516 0.458954 28.9062 0.234344C27.4902 0.00973511 23.1836 -0.039093 21.7773 0.146454ZM26.6113 3.13474C36.8262 3.90622 44.5117 10.6543 46.5234 20.625C47.4609 25.3027 47.0605 29.4531 45.2637 33.6425C44.0918 36.3574 42.5098 38.6425 40.3125 40.7812C38.5938 42.4511 36.9531 43.6328 34.9121 44.6582C31.6406 46.2988 28.6523 47.0117 25 47.0117C20.4395 47.0117 16.3281 45.7422 12.5977 43.1836C10.8789 42.0019 8.98438 40.2441 7.69531 38.623C5.76172 36.1914 4.23828 33.0078 3.51562 29.9316C2.49023 25.5175 2.99805 20.4492 4.92188 15.9668C8.28125 8.13474 15.6445 3.33005 24.707 3.04684C25 3.03708 25.8594 3.07614 26.6113 3.13474Z" fill="#111111"/>
<path d="M23.4375 5.95703C20.5664 6.16211 17.2266 7.20703 14.8145 8.66211C12.4121 10.0977 10.0781 12.4316 8.67188 14.7949C7.16797 17.3145 6.12305 20.6445 5.9082 23.584C5.87891 24.0137 5.83008 24.5117 5.80078 24.6777L5.75195 25H7.32422H8.88672V24.2871C8.88672 23.0273 9.44336 20.1172 9.67773 20.1172C9.72656 20.1172 10.3711 20.5176 11.0938 21.0059C11.8262 21.4941 12.4316 21.875 12.4414 21.8555C12.627 21.6309 14.0625 19.4238 14.0625 19.3652C14.0625 19.3262 13.3594 18.8281 12.5 18.2617C11.6406 17.6953 10.9375 17.1973 10.9375 17.1582C10.9277 16.8359 12.334 14.9219 13.3594 13.8574C14.043 13.1348 15.5176 11.8652 15.5762 11.9336C15.5957 11.9531 15.8984 12.6855 16.2598 13.5742C16.6211 14.4629 16.9336 15.2148 16.9531 15.2539C16.9824 15.293 17.5586 15.0879 18.2422 14.8047C18.9258 14.5215 19.5605 14.2676 19.6484 14.2285C19.7949 14.1797 19.7168 13.9258 19.043 12.2852C18.3594 10.6152 18.291 10.3906 18.4277 10.2832C18.877 9.94141 21.5137 9.16992 22.7832 9.00391L23.4375 8.91602V11.1035V13.2812H25H26.5625V11.1035V8.91602L27.1777 9.00391C28.6426 9.18945 30.3809 9.70703 31.8164 10.3711L32.5098 10.6934L31.7285 12.3926C31.3086 13.3301 30.9668 14.1016 30.9766 14.1113C31.0449 14.1699 33.6328 15.332 33.6914 15.332C33.7305 15.332 34.0625 14.6777 34.4238 13.8672L35.0879 12.4023L35.5371 12.7832C36.1426 13.3008 37.0801 14.2773 37.6562 14.9902C38.1934 15.6641 39.0625 16.9922 39.0625 17.1387C39.0625 17.1875 38.3594 17.6953 37.5 18.2617C36.6406 18.8281 35.9375 19.3262 35.9375 19.3652C35.9375 19.4238 37.373 21.6309 37.5586 21.8555C37.5684 21.875 38.1738 21.4941 38.9062 21.0059C39.6289 20.5176 40.2734 20.1172 40.3223 20.1172C40.5566 20.1172 41.1133 23.0273 41.1133 24.2871V25H42.6758H44.248L44.1992 24.6777C44.1699 24.5117 44.1211 24.0137 44.0918 23.584C43.9648 21.875 43.4668 19.6484 42.8223 17.9102C42.0508 15.8594 40.8301 13.8086 39.4336 12.207C35.6055 7.83203 29.6875 5.51758 23.4375 5.95703Z" fill="#111111"/>
<path d="M27.881 17.3535C27.7931 17.5586 27.1681 19.0234 26.4845 20.6054L25.2443 23.4863L24.7267 23.5058C22.1388 23.623 20.1759 26.0644 20.5958 28.6328C21.0841 31.6211 24.297 33.2715 27.0021 31.9433C29.3849 30.7715 30.215 27.4316 28.6329 25.3515C28.4376 25.0879 28.2325 24.8242 28.1837 24.7558C28.1251 24.6777 28.506 23.6621 29.3458 21.7187C30.0294 20.1074 30.6544 18.6621 30.7228 18.4961L30.8497 18.1836L29.5607 17.6269C28.8478 17.3242 28.2228 17.0508 28.1544 17.0215C28.0861 16.9922 27.9689 17.1289 27.881 17.3535ZM25.7521 26.7676C26.924 27.4902 26.3868 29.3359 25.0001 29.3359C23.6427 29.3359 23.0861 27.5586 24.2091 26.7969C24.6583 26.4941 25.2833 26.4844 25.7521 26.7676Z" fill="#127384"/>
<path d="M7.22656 30.9082V32.4219H8.78906H10.3516V30.9082V29.3945H8.78906H7.22656V30.9082Z" fill="#111111"/>
<path d="M39.6484 30.9082V32.4219H41.2109H42.7734V30.9082V29.3945H41.2109H39.6484V30.9082Z" fill="#111111"/>
<path d="M13.1836 35.3027V36.8164H14.6973H16.2109V35.3027V33.7891H14.6973H13.1836V35.3027Z" fill="#111111"/>
<path d="M33.7891 35.3027V36.8164H35.3027H36.8164V35.3027V33.7891H35.3027H33.7891V35.3027Z" fill="#111111"/>
<path d="M19.0723 37.2754C19.1211 39.5215 19.1992 39.9121 19.7852 41.1035C20.2246 42.002 21.1719 42.9785 22.041 43.4375C23.7988 44.3652 26.2012 44.3652 27.959 43.4375C28.8281 42.9785 29.7754 42.002 30.2148 41.1035C30.8008 39.9121 30.8789 39.5215 30.9277 37.2754L30.9766 35.2539H25H19.0234L19.0723 37.2754ZM27.8223 38.7402C27.6953 39.4238 27.3828 39.9902 26.8945 40.4199C26.3672 40.8887 25.7422 41.1133 25 41.1133C23.5059 41.1133 22.4902 40.2148 22.1289 38.5449L22.0703 38.2812H24.9902H27.9004L27.8223 38.7402Z" fill="#FFA633"/>
<circle cx="24.9502" cy="27.8672" r="2.08694" fill="#FFA633"/>
</g>
</g>
<defs>
<clipPath id="clip0_3513_76666">
<rect width="50" height="50" fill="white"/>
</clipPath>
<clipPath id="clip1_3513_76666">
<rect width="50" height="50" fill="white"/>
</clipPath>
</defs>
</svg>
