<svg width="99" height="31" viewBox="0 0 99 31" fill="none" xmlns="http://www.w3.org/2000/svg">
<rect x="0.5" y="0.00146484" width="98" height="31" rx="5" fill="white"/>
<path d="M26.8873 19.5106C26.6565 20.0485 26.3714 20.5614 26.0365 21.0414C25.589 21.6806 25.2215 22.1222 24.9398 22.3681C24.5023 22.7697 24.0323 22.9764 23.5298 22.9881C23.1698 22.9881 22.7348 22.8856 22.2281 22.6772C21.7198 22.4697 21.2531 22.3681 20.8256 22.3681C20.3781 22.3681 19.8981 22.4697 19.384 22.6772C18.8706 22.8856 18.4556 22.9947 18.1381 23.0047C17.6573 23.0256 17.1765 22.8139 16.6973 22.3681C16.3915 22.1014 16.009 21.6431 15.5498 20.9947C15.0581 20.3039 14.654 19.4997 14.3373 18.5856C13.9981 17.5964 13.8281 16.6397 13.8281 15.7131C13.8281 14.6522 14.0573 13.7364 14.5165 12.9697C14.8637 12.3676 15.3602 11.8651 15.9581 11.5106C16.5477 11.157 17.2207 10.9666 17.9081 10.9589C18.2915 10.9589 18.794 11.0772 19.4165 11.3106C20.039 11.5439 20.439 11.6622 20.6131 11.6622C20.7448 11.6622 21.1873 11.5231 21.9406 11.2472C22.6515 10.9914 23.2515 10.8856 23.7431 10.9272C25.0765 11.0347 26.0773 11.5597 26.7431 12.5064C25.5515 13.2289 24.9623 14.2397 24.974 15.5372C24.984 16.5481 25.3515 17.3889 26.0715 18.0564C26.3898 18.361 26.7612 18.6048 27.1673 18.7756C27.079 19.0314 26.9856 19.2756 26.8873 19.5106ZM23.8315 7.48474C23.8315 8.2764 23.5415 9.0164 22.9656 9.70057C22.269 10.5139 21.4273 10.9847 20.5148 10.9106C20.5029 10.811 20.497 10.7108 20.4973 10.6106C20.4973 9.84974 20.8273 9.0364 21.4165 8.37057C21.7098 8.0339 22.0831 7.75307 22.5356 7.52974C22.9873 7.30974 23.414 7.18807 23.8156 7.16724C23.8265 7.2739 23.8315 7.37974 23.8315 7.48474Z" fill="#111111"/>
<path d="M38.332 7.39346C38.6787 7.39346 38.9773 7.44413 39.228 7.54546C39.484 7.64146 39.7373 7.79346 39.988 8.00146L39.54 8.46546C39.3427 8.30546 39.1533 8.1908 38.972 8.12146C38.7907 8.05213 38.5773 8.01746 38.332 8.01746C38.0493 8.01746 37.788 8.0948 37.548 8.24946C37.3133 8.3988 37.1213 8.64146 36.972 8.97746C36.8227 9.30813 36.748 9.72946 36.748 10.2415C36.748 11.0148 36.8733 11.5801 37.124 11.9375C37.38 12.2948 37.756 12.4735 38.252 12.4735C38.6573 12.4735 39.0067 12.3908 39.3 12.2255V10.5615H38.324L38.236 9.94546H40.052V12.6095C39.4813 12.9348 38.8813 13.0975 38.252 13.0975C37.5267 13.0975 36.9587 12.8548 36.548 12.3695C36.1427 11.8841 35.94 11.1748 35.94 10.2415C35.94 9.64413 36.0467 9.13213 36.26 8.70546C36.4787 8.27346 36.7693 7.94813 37.132 7.72946C37.5 7.50546 37.9 7.39346 38.332 7.39346ZM44.4909 10.7695C44.4909 10.8921 44.4855 11.0175 44.4749 11.1455H41.7869C41.8189 11.6095 41.9362 11.9508 42.1389 12.1695C42.3415 12.3881 42.6029 12.4975 42.9229 12.4975C43.1255 12.4975 43.3122 12.4681 43.4829 12.4095C43.6535 12.3508 43.8322 12.2575 44.0189 12.1295L44.3389 12.5695C43.8909 12.9215 43.4002 13.0975 42.8669 13.0975C42.2802 13.0975 41.8215 12.9055 41.4909 12.5215C41.1655 12.1375 41.0029 11.6095 41.0029 10.9375C41.0029 10.5001 41.0722 10.1135 41.2109 9.77746C41.3549 9.43613 41.5575 9.16946 41.8189 8.97746C42.0855 8.78546 42.3975 8.68946 42.7549 8.68946C43.3149 8.68946 43.7442 8.87346 44.0429 9.24146C44.3415 9.60946 44.4909 10.1188 44.4909 10.7695ZM43.7629 10.5535C43.7629 10.1375 43.6802 9.82013 43.5149 9.60146C43.3495 9.3828 43.1015 9.27346 42.7709 9.27346C42.1682 9.27346 41.8402 9.71613 41.7869 10.6015H43.7629V10.5535ZM47.7943 12.8095C47.5169 13.0015 47.2023 13.0975 46.8503 13.0975C46.4929 13.0975 46.2129 12.9961 46.0103 12.7935C45.8129 12.5855 45.7143 12.2868 45.7143 11.8975V9.35346H44.9783V8.78546H45.7143V7.83346L46.4503 7.74546V8.78546H47.4503L47.3703 9.35346H46.4503V11.8655C46.4503 12.0841 46.4876 12.2441 46.5623 12.3455C46.6423 12.4415 46.7729 12.4895 46.9543 12.4895C47.1196 12.4895 47.3063 12.4335 47.5143 12.3215L47.7943 12.8095ZM51.4101 8.78546V13.0015H50.6741V8.78546H51.4101ZM51.0341 6.76146C51.1887 6.76146 51.3141 6.80946 51.4101 6.90546C51.5061 7.00146 51.5541 7.12146 51.5541 7.26546C51.5541 7.40946 51.5061 7.52946 51.4101 7.62546C51.3141 7.71613 51.1887 7.76146 51.0341 7.76146C50.8847 7.76146 50.7621 7.71613 50.6661 7.62546C50.5701 7.52946 50.5221 7.40946 50.5221 7.26546C50.5221 7.12146 50.5701 7.00146 50.6661 6.90546C50.7621 6.80946 50.8847 6.76146 51.0341 6.76146ZM55.0599 12.8095C54.7825 13.0015 54.4679 13.0975 54.1159 13.0975C53.7585 13.0975 53.4785 12.9961 53.2759 12.7935C53.0785 12.5855 52.9799 12.2868 52.9799 11.8975V9.35346H52.2439V8.78546H52.9799V7.83346L53.7159 7.74546V8.78546H54.7159L54.6359 9.35346H53.7159V11.8655C53.7159 12.0841 53.7532 12.2441 53.8279 12.3455C53.9079 12.4415 54.0385 12.4895 54.2199 12.4895C54.3852 12.4895 54.5719 12.4335 54.7799 12.3215L55.0599 12.8095ZM59.5237 8.68946C60.1157 8.68946 60.5744 8.8868 60.8997 9.28146C61.2304 9.67613 61.3957 10.2121 61.3957 10.8895C61.3957 11.3268 61.321 11.7135 61.1717 12.0495C61.0224 12.3801 60.8064 12.6388 60.5237 12.8255C60.241 13.0068 59.905 13.0975 59.5157 13.0975C58.9237 13.0975 58.4624 12.9001 58.1317 12.5055C57.801 12.1108 57.6357 11.5748 57.6357 10.8975C57.6357 10.4601 57.7104 10.0761 57.8597 9.74546C58.009 9.40946 58.225 9.1508 58.5077 8.96946C58.7904 8.7828 59.129 8.68946 59.5237 8.68946ZM59.5237 9.28146C58.793 9.28146 58.4277 9.82013 58.4277 10.8975C58.4277 11.9695 58.7904 12.5055 59.5157 12.5055C60.241 12.5055 60.6037 11.9668 60.6037 10.8895C60.6037 9.81746 60.2437 9.28146 59.5237 9.28146ZM64.5956 8.68946C64.9796 8.68946 65.2782 8.80413 65.4916 9.03346C65.7102 9.2628 65.8196 9.57746 65.8196 9.97746V13.0015H65.0836V10.0815C65.0836 9.7828 65.0276 9.57213 64.9156 9.44946C64.8036 9.3268 64.6382 9.26546 64.4196 9.26546C64.1956 9.26546 63.9982 9.32946 63.8276 9.45746C63.6569 9.58546 63.4969 9.76946 63.3476 10.0095V13.0015H62.6116V8.78546H63.2436L63.3076 9.40946C63.4569 9.18546 63.6409 9.00946 63.8596 8.88146C64.0836 8.75346 64.3289 8.68946 64.5956 8.68946Z" fill="#111111"/>
<path d="M39.451 24.0015L39.1 22.6065H37.147L36.796 24.0015H35.419L37.336 17.7735H38.947L40.855 24.0015H39.451ZM37.399 21.6255H38.848L38.119 18.7545L37.399 21.6255ZM43.9774 19.0875C44.5774 19.0875 45.0214 19.3095 45.3094 19.7535C45.6034 20.1915 45.7504 20.8095 45.7504 21.6075C45.7504 22.0935 45.6754 22.5285 45.5254 22.9125C45.3754 23.2965 45.1564 23.5995 44.8684 23.8215C44.5864 24.0375 44.2504 24.1455 43.8604 24.1455C43.3744 24.1455 42.9814 23.9745 42.6814 23.6325V25.8375L41.4034 25.9815V19.2315H42.5284L42.5914 19.7895C42.7714 19.5555 42.9814 19.3815 43.2214 19.2675C43.4674 19.1475 43.7194 19.0875 43.9774 19.0875ZM43.4824 23.1915C44.1064 23.1915 44.4184 22.6665 44.4184 21.6165C44.4184 21.0405 44.3494 20.6325 44.2114 20.3925C44.0734 20.1525 43.8634 20.0325 43.5814 20.0325C43.4014 20.0325 43.2334 20.0895 43.0774 20.2035C42.9274 20.3115 42.7954 20.4585 42.6814 20.6445V22.7235C42.8854 23.0355 43.1524 23.1915 43.4824 23.1915ZM49.3388 19.0875C49.9388 19.0875 50.3828 19.3095 50.6708 19.7535C50.9648 20.1915 51.1118 20.8095 51.1118 21.6075C51.1118 22.0935 51.0368 22.5285 50.8868 22.9125C50.7368 23.2965 50.5178 23.5995 50.2298 23.8215C49.9478 24.0375 49.6118 24.1455 49.2218 24.1455C48.7358 24.1455 48.3428 23.9745 48.0428 23.6325V25.8375L46.7648 25.9815V19.2315H47.8898L47.9528 19.7895C48.1328 19.5555 48.3428 19.3815 48.5828 19.2675C48.8288 19.1475 49.0808 19.0875 49.3388 19.0875ZM48.8438 23.1915C49.4678 23.1915 49.7798 22.6665 49.7798 21.6165C49.7798 21.0405 49.7108 20.6325 49.5728 20.3925C49.4348 20.1525 49.2248 20.0325 48.9428 20.0325C48.7628 20.0325 48.5948 20.0895 48.4388 20.2035C48.2888 20.3115 48.1568 20.4585 48.0428 20.6445V22.7235C48.2468 23.0355 48.5138 23.1915 48.8438 23.1915ZM56.2494 17.6295C56.6994 17.6295 57.0894 17.6955 57.4194 17.8275C57.7554 17.9535 58.0644 18.1485 58.3464 18.4125L57.7164 19.1415C57.4944 18.9615 57.2724 18.8295 57.0504 18.7455C56.8284 18.6615 56.5914 18.6195 56.3394 18.6195C56.0634 18.6195 55.8414 18.6795 55.6734 18.7995C55.5114 18.9135 55.4304 19.0785 55.4304 19.2945C55.4304 19.4445 55.4634 19.5675 55.5294 19.6635C55.6014 19.7595 55.7244 19.8495 55.8984 19.9335C56.0724 20.0175 56.3334 20.1135 56.6814 20.2215C57.2994 20.4195 57.7614 20.6655 58.0674 20.9595C58.3734 21.2475 58.5264 21.6615 58.5264 22.2015C58.5264 22.5855 58.4304 22.9245 58.2384 23.2185C58.0464 23.5065 57.7674 23.7345 57.4014 23.9025C57.0354 24.0645 56.6064 24.1455 56.1144 24.1455C55.6224 24.1455 55.1844 24.0675 54.8004 23.9115C54.4164 23.7555 54.0864 23.5425 53.8104 23.2725L54.4854 22.5255C54.7254 22.7295 54.9744 22.8855 55.2324 22.9935C55.4904 23.0955 55.7724 23.1465 56.0784 23.1465C56.4024 23.1465 56.6604 23.0715 56.8524 22.9215C57.0504 22.7715 57.1494 22.5615 57.1494 22.2915C57.1494 22.1235 57.1134 21.9855 57.0414 21.8775C56.9754 21.7635 56.8584 21.6615 56.6904 21.5715C56.5224 21.4815 56.2794 21.3885 55.9614 21.2925C55.2834 21.0825 54.7974 20.8305 54.5034 20.5365C54.2154 20.2425 54.0714 19.8585 54.0714 19.3845C54.0714 19.0365 54.1644 18.7305 54.3504 18.4665C54.5364 18.1965 54.7944 17.9895 55.1244 17.8455C55.4544 17.7015 55.8294 17.6295 56.2494 17.6295ZM62.2652 23.7765C62.0912 23.8965 61.8932 23.9865 61.6712 24.0465C61.4552 24.1125 61.2392 24.1455 61.0232 24.1455C60.5312 24.1395 60.1592 23.9985 59.9072 23.7225C59.6552 23.4465 59.5292 23.0415 59.5292 22.5075V20.1315H58.8182V19.2315H59.5292V18.1875L60.8072 18.0345V19.2315H61.9052L61.7792 20.1315H60.8072V22.4805C60.8072 22.7085 60.8462 22.8735 60.9242 22.9755C61.0022 23.0775 61.1222 23.1285 61.2842 23.1285C61.4462 23.1285 61.6262 23.0745 61.8242 22.9665L62.2652 23.7765ZM64.6888 19.0875C65.4028 19.0875 65.9608 19.3125 66.3628 19.7625C66.7648 20.2065 66.9658 20.8245 66.9658 21.6165C66.9658 22.1205 66.8728 22.5645 66.6868 22.9485C66.5068 23.3265 66.2428 23.6205 65.8948 23.8305C65.5528 24.0405 65.1478 24.1455 64.6798 24.1455C63.9658 24.1455 63.4048 23.9235 62.9968 23.4795C62.5948 23.0295 62.3938 22.4085 62.3938 21.6165C62.3938 21.1125 62.4838 20.6715 62.6638 20.2935C62.8498 19.9095 63.1138 19.6125 63.4558 19.4025C63.8038 19.1925 64.2148 19.0875 64.6888 19.0875ZM64.6888 20.0415C64.3648 20.0415 64.1218 20.1705 63.9598 20.4285C63.8038 20.6805 63.7258 21.0765 63.7258 21.6165C63.7258 22.1565 63.8038 22.5555 63.9598 22.8135C64.1218 23.0655 64.3618 23.1915 64.6798 23.1915C64.9978 23.1915 65.2348 23.0655 65.3908 22.8135C65.5528 22.5555 65.6338 22.1565 65.6338 21.6165C65.6338 21.0765 65.5558 20.6805 65.3998 20.4285C65.2438 20.1705 65.0068 20.0415 64.6888 20.0415ZM70.4036 19.0965C70.5476 19.0965 70.7066 19.1205 70.8806 19.1685L70.6646 20.4015C70.4966 20.3595 70.3556 20.3385 70.2416 20.3385C69.9596 20.3385 69.7406 20.4375 69.5846 20.6355C69.4286 20.8335 69.3056 21.1335 69.2156 21.5355V24.0015H67.9376V19.2315H69.0446L69.1616 20.1585C69.2756 19.8225 69.4406 19.5615 69.6566 19.3755C69.8786 19.1895 70.1276 19.0965 70.4036 19.0965ZM75.2743 21.5085C75.2743 21.5685 75.2653 21.7335 75.2473 22.0035H72.2683C72.3103 22.4355 72.4273 22.7415 72.6193 22.9215C72.8113 23.1015 73.0723 23.1915 73.4023 23.1915C73.6063 23.1915 73.7983 23.1585 73.9783 23.0925C74.1583 23.0265 74.3533 22.9215 74.5633 22.7775L75.0943 23.4975C74.5603 23.9295 73.9573 24.1455 73.2853 24.1455C72.5353 24.1455 71.9593 23.9205 71.5573 23.4705C71.1553 23.0205 70.9543 22.4115 70.9543 21.6435C70.9543 21.1575 71.0383 20.7225 71.2063 20.3385C71.3803 19.9485 71.6293 19.6425 71.9533 19.4205C72.2833 19.1985 72.6733 19.0875 73.1233 19.0875C73.8013 19.0875 74.3293 19.3005 74.7073 19.7265C75.0853 20.1525 75.2743 20.7465 75.2743 21.5085ZM74.0053 21.1485C74.0053 20.3565 73.7203 19.9605 73.1503 19.9605C72.8863 19.9605 72.6793 20.0595 72.5293 20.2575C72.3853 20.4495 72.2983 20.7645 72.2683 21.2025H74.0053V21.1485Z" fill="#111111"/>
</svg>
