<svg width="13" height="13" viewBox="0 0 13 13" fill="none" xmlns="http://www.w3.org/2000/svg">
<path d="M6.81329 8.81958L7.31329 7.81958V5.24858C8.17379 5.02508 8.81329 4.24858 8.81329 3.31958C8.81329 2.21658 7.91629 1.31958 6.81329 1.31958C5.71029 1.31958 4.81329 2.21658 4.81329 3.31958C4.81329 4.24858 5.45279 5.02508 6.31329 5.24858V7.81958L6.81329 8.81958ZM5.81329 3.31958C5.81329 2.76808 6.26179 2.31958 6.81329 2.31958C7.36479 2.31958 7.81329 2.76808 7.81329 3.31958C7.81329 3.87108 7.36479 4.31958 6.81329 4.31958C6.26179 4.31958 5.81329 3.87108 5.81329 3.31958Z" fill="white"/>
<path d="M8.94679 5.60109L8.68029 6.56509C9.97579 6.92309 10.8133 7.61159 10.8133 8.31959C10.8133 9.26559 9.17079 10.3196 6.81329 10.3196C4.45579 10.3196 2.81329 9.26559 2.81329 8.31959C2.81329 7.61159 3.65079 6.92309 4.94679 6.56459L4.68029 5.60059C2.91179 6.08959 1.81329 7.13109 1.81329 8.31959C1.81329 10.0016 4.00979 11.3196 6.81329 11.3196C9.61679 11.3196 11.8133 10.0016 11.8133 8.31959C11.8133 7.13109 10.7148 6.08959 8.94679 5.60109Z" fill="white"/>
</svg>
