<svg width="99" height="32" viewBox="0 0 99 32" fill="none" xmlns="http://www.w3.org/2000/svg">
<rect y="0.895508" width="99" height="31" rx="5" fill="#201F1D"/>
<path d="M20.7952 16.0756L23.2593 13.6114L15.3002 9.13809C14.7727 8.85309 14.2785 8.81309 13.8452 9.12476L20.7952 16.0756ZM23.6793 18.9606L26.241 17.5198C26.741 17.2398 27.0152 16.8431 27.0152 16.4031C27.0152 15.9639 26.741 15.5664 26.2418 15.2864L23.9227 13.9839L21.3118 16.5939L23.6793 18.9606ZM13.4168 9.73059C13.3635 9.89476 13.3335 10.0781 13.3335 10.2789V22.5331C13.3335 22.8506 13.4035 23.1239 13.5302 23.3414L20.2777 16.5931L13.4168 9.73059ZM20.7952 17.1098L14.0852 23.8206C14.2135 23.8698 14.3518 23.8956 14.4977 23.8956C14.7577 23.8956 15.0285 23.8189 15.3043 23.6656L23.0168 19.3348L20.7952 17.1098Z" fill="white"/>
<path d="M37.832 8.28751C38.1787 8.28751 38.4773 8.33817 38.728 8.43951C38.984 8.53551 39.2373 8.68751 39.488 8.89551L39.04 9.35951C38.8427 9.19951 38.6533 9.08484 38.472 9.01551C38.2907 8.94617 38.0773 8.91151 37.832 8.91151C37.5493 8.91151 37.288 8.98884 37.048 9.14351C36.8133 9.29284 36.6213 9.53551 36.472 9.87151C36.3227 10.2022 36.248 10.6235 36.248 11.1355C36.248 11.9088 36.3733 12.4742 36.624 12.8315C36.88 13.1888 37.256 13.3675 37.752 13.3675C38.1573 13.3675 38.5067 13.2848 38.8 13.1195V11.4555H37.824L37.736 10.8395H39.552V13.5035C38.9813 13.8288 38.3813 13.9915 37.752 13.9915C37.0267 13.9915 36.4587 13.7488 36.048 13.2635C35.6427 12.7782 35.44 12.0688 35.44 11.1355C35.44 10.5382 35.5467 10.0262 35.76 9.59951C35.9787 9.16751 36.2693 8.84217 36.632 8.62351C37 8.39951 37.4 8.28751 37.832 8.28751ZM43.9909 11.6635C43.9909 11.7862 43.9855 11.9115 43.9749 12.0395H41.2869C41.3189 12.5035 41.4362 12.8448 41.6389 13.0635C41.8415 13.2822 42.1029 13.3915 42.4229 13.3915C42.6255 13.3915 42.8122 13.3622 42.9829 13.3035C43.1535 13.2448 43.3322 13.1515 43.5189 13.0235L43.8389 13.4635C43.3909 13.8155 42.9002 13.9915 42.3669 13.9915C41.7802 13.9915 41.3215 13.7995 40.9909 13.4155C40.6655 13.0315 40.5029 12.5035 40.5029 11.8315C40.5029 11.3942 40.5722 11.0075 40.7109 10.6715C40.8549 10.3302 41.0575 10.0635 41.3189 9.87151C41.5855 9.67951 41.8975 9.58351 42.2549 9.58351C42.8149 9.58351 43.2442 9.76751 43.5429 10.1355C43.8415 10.5035 43.9909 11.0128 43.9909 11.6635ZM43.2629 11.4475C43.2629 11.0315 43.1802 10.7142 43.0149 10.4955C42.8495 10.2768 42.6015 10.1675 42.2709 10.1675C41.6682 10.1675 41.3402 10.6102 41.2869 11.4955H43.2629V11.4475ZM47.2943 13.7035C47.0169 13.8955 46.7023 13.9915 46.3503 13.9915C45.9929 13.9915 45.7129 13.8902 45.5103 13.6875C45.3129 13.4795 45.2143 13.1808 45.2143 12.7915V10.2475H44.4783V9.67951H45.2143V8.72751L45.9503 8.63951V9.67951H46.9503L46.8703 10.2475H45.9503V12.7595C45.9503 12.9782 45.9876 13.1382 46.0623 13.2395C46.1423 13.3355 46.2729 13.3835 46.4543 13.3835C46.6196 13.3835 46.8063 13.3275 47.0143 13.2155L47.2943 13.7035ZM50.9101 9.67951V13.8955H50.1741V9.67951H50.9101ZM50.5341 7.65551C50.6887 7.65551 50.8141 7.70351 50.9101 7.79951C51.0061 7.89551 51.0541 8.01551 51.0541 8.15951C51.0541 8.30351 51.0061 8.42351 50.9101 8.51951C50.8141 8.61017 50.6887 8.65551 50.5341 8.65551C50.3847 8.65551 50.2621 8.61017 50.1661 8.51951C50.0701 8.42351 50.0221 8.30351 50.0221 8.15951C50.0221 8.01551 50.0701 7.89551 50.1661 7.79951C50.2621 7.70351 50.3847 7.65551 50.5341 7.65551ZM54.5599 13.7035C54.2825 13.8955 53.9679 13.9915 53.6159 13.9915C53.2585 13.9915 52.9785 13.8902 52.7759 13.6875C52.5785 13.4795 52.4799 13.1808 52.4799 12.7915V10.2475H51.7439V9.67951H52.4799V8.72751L53.2159 8.63951V9.67951H54.2159L54.1359 10.2475H53.2159V12.7595C53.2159 12.9782 53.2532 13.1382 53.3279 13.2395C53.4079 13.3355 53.5385 13.3835 53.7199 13.3835C53.8852 13.3835 54.0719 13.3275 54.2799 13.2155L54.5599 13.7035ZM59.0237 9.58351C59.6157 9.58351 60.0744 9.78084 60.3997 10.1755C60.7304 10.5702 60.8957 11.1062 60.8957 11.7835C60.8957 12.2208 60.821 12.6075 60.6717 12.9435C60.5224 13.2742 60.3064 13.5328 60.0237 13.7195C59.741 13.9008 59.405 13.9915 59.0157 13.9915C58.4237 13.9915 57.9624 13.7942 57.6317 13.3995C57.301 13.0048 57.1357 12.4688 57.1357 11.7915C57.1357 11.3542 57.2104 10.9702 57.3597 10.6395C57.509 10.3035 57.725 10.0448 58.0077 9.86351C58.2904 9.67684 58.629 9.58351 59.0237 9.58351ZM59.0237 10.1755C58.293 10.1755 57.9277 10.7142 57.9277 11.7915C57.9277 12.8635 58.2904 13.3995 59.0157 13.3995C59.741 13.3995 60.1037 12.8608 60.1037 11.7835C60.1037 10.7115 59.7437 10.1755 59.0237 10.1755ZM64.0956 9.58351C64.4796 9.58351 64.7782 9.69817 64.9916 9.92751C65.2102 10.1568 65.3196 10.4715 65.3196 10.8715V13.8955H64.5836V10.9755C64.5836 10.6768 64.5276 10.4662 64.4156 10.3435C64.3036 10.2208 64.1382 10.1595 63.9196 10.1595C63.6956 10.1595 63.4982 10.2235 63.3276 10.3515C63.1569 10.4795 62.9969 10.6635 62.8476 10.9035V13.8955H62.1116V9.67951H62.7436L62.8076 10.3035C62.9569 10.0795 63.1409 9.90351 63.3596 9.77551C63.5836 9.64751 63.8289 9.58351 64.0956 9.58351Z" fill="white"/>
<path d="M38.258 18.5235C38.678 18.5235 39.05 18.5895 39.374 18.7215C39.704 18.8475 40.01 19.0305 40.292 19.2705L39.599 19.9905C39.377 19.8225 39.167 19.6995 38.969 19.6215C38.777 19.5435 38.558 19.5045 38.312 19.5045C37.838 19.5045 37.454 19.6935 37.16 20.0715C36.872 20.4435 36.728 21.0135 36.728 21.7815C36.728 22.5915 36.839 23.1735 37.061 23.5275C37.289 23.8755 37.64 24.0495 38.114 24.0495C38.456 24.0495 38.765 23.9745 39.041 23.8245V22.3035H38.168L38.033 21.3405H40.328V24.4095C40.004 24.6075 39.653 24.7635 39.275 24.8775C38.903 24.9855 38.525 25.0395 38.141 25.0395C37.223 25.0395 36.527 24.7635 36.053 24.2115C35.579 23.6595 35.342 22.8465 35.342 21.7725C35.342 21.0945 35.471 20.5095 35.729 20.0175C35.987 19.5255 36.335 19.1535 36.773 18.9015C37.217 18.6495 37.712 18.5235 38.258 18.5235ZM43.4026 19.9815C44.1166 19.9815 44.6746 20.2065 45.0766 20.6565C45.4786 21.1005 45.6796 21.7185 45.6796 22.5105C45.6796 23.0145 45.5866 23.4585 45.4006 23.8425C45.2206 24.2205 44.9566 24.5145 44.6086 24.7245C44.2666 24.9345 43.8616 25.0395 43.3936 25.0395C42.6796 25.0395 42.1186 24.8175 41.7106 24.3735C41.3086 23.9235 41.1076 23.3025 41.1076 22.5105C41.1076 22.0065 41.1976 21.5655 41.3776 21.1875C41.5636 20.8035 41.8276 20.5065 42.1696 20.2965C42.5176 20.0865 42.9286 19.9815 43.4026 19.9815ZM43.4026 20.9355C43.0786 20.9355 42.8356 21.0645 42.6736 21.3225C42.5176 21.5745 42.4396 21.9705 42.4396 22.5105C42.4396 23.0505 42.5176 23.4495 42.6736 23.7075C42.8356 23.9595 43.0756 24.0855 43.3936 24.0855C43.7116 24.0855 43.9486 23.9595 44.1046 23.7075C44.2666 23.4495 44.3476 23.0505 44.3476 22.5105C44.3476 21.9705 44.2696 21.5745 44.1136 21.3225C43.9576 21.0645 43.7206 20.9355 43.4026 20.9355ZM48.6585 19.9815C49.3725 19.9815 49.9305 20.2065 50.3325 20.6565C50.7345 21.1005 50.9355 21.7185 50.9355 22.5105C50.9355 23.0145 50.8425 23.4585 50.6565 23.8425C50.4765 24.2205 50.2125 24.5145 49.8645 24.7245C49.5225 24.9345 49.1175 25.0395 48.6495 25.0395C47.9355 25.0395 47.3745 24.8175 46.9665 24.3735C46.5645 23.9235 46.3635 23.3025 46.3635 22.5105C46.3635 22.0065 46.4535 21.5655 46.6335 21.1875C46.8195 20.8035 47.0835 20.5065 47.4255 20.2965C47.7735 20.0865 48.1845 19.9815 48.6585 19.9815ZM48.6585 20.9355C48.3345 20.9355 48.0915 21.0645 47.9295 21.3225C47.7735 21.5745 47.6955 21.9705 47.6955 22.5105C47.6955 23.0505 47.7735 23.4495 47.9295 23.7075C48.0915 23.9595 48.3315 24.0855 48.6495 24.0855C48.9675 24.0855 49.2045 23.9595 49.3605 23.7075C49.5225 23.4495 49.6035 23.0505 49.6035 22.5105C49.6035 21.9705 49.5255 21.5745 49.3695 21.3225C49.2135 21.0645 48.9765 20.9355 48.6585 20.9355ZM56.1733 20.3865C55.8613 20.5065 55.4023 20.5665 54.7963 20.5665C55.0963 20.6985 55.3183 20.8635 55.4623 21.0615C55.6063 21.2535 55.6783 21.4965 55.6783 21.7905C55.6783 22.0965 55.5973 22.3725 55.4353 22.6185C55.2793 22.8585 55.0513 23.0475 54.7513 23.1855C54.4573 23.3235 54.1123 23.3925 53.7163 23.3925C53.5063 23.3925 53.3203 23.3715 53.1583 23.3295C53.0383 23.4075 52.9783 23.5125 52.9783 23.6445C52.9783 23.7405 53.0143 23.8185 53.0863 23.8785C53.1643 23.9325 53.3113 23.9595 53.5273 23.9595H54.2563C54.6103 23.9595 54.9193 24.0195 55.1833 24.1395C55.4533 24.2535 55.6603 24.4155 55.8043 24.6255C55.9543 24.8295 56.0293 25.0635 56.0293 25.3275C56.0293 25.8135 55.8193 26.1915 55.3993 26.4615C54.9853 26.7375 54.3853 26.8755 53.5993 26.8755C53.0353 26.8755 52.5883 26.8155 52.2583 26.6955C51.9343 26.5815 51.7063 26.4135 51.5743 26.1915C51.4423 25.9695 51.3763 25.6905 51.3763 25.3545H52.5193C52.5193 25.5105 52.5493 25.6335 52.6093 25.7235C52.6693 25.8195 52.7773 25.8885 52.9333 25.9305C53.0953 25.9785 53.3263 26.0025 53.6263 26.0025C54.0403 26.0025 54.3283 25.9515 54.4903 25.8495C54.6583 25.7475 54.7423 25.6035 54.7423 25.4175C54.7423 25.2495 54.6793 25.1205 54.5533 25.0305C54.4273 24.9405 54.2413 24.8955 53.9953 24.8955H53.2933C52.8193 24.8955 52.4653 24.8085 52.2313 24.6345C51.9973 24.4545 51.8803 24.2295 51.8803 23.9595C51.8803 23.7915 51.9283 23.6295 52.0243 23.4735C52.1263 23.3115 52.2643 23.1765 52.4383 23.0685C52.1443 22.9065 51.9283 22.7175 51.7903 22.5015C51.6583 22.2795 51.5923 22.0155 51.5923 21.7095C51.5923 21.3615 51.6763 21.0585 51.8443 20.8005C52.0183 20.5365 52.2583 20.3355 52.5643 20.1975C52.8763 20.0535 53.2303 19.9815 53.6263 19.9815C54.1183 19.9935 54.5233 19.9515 54.8413 19.8555C55.1593 19.7595 55.4983 19.6095 55.8583 19.4055L56.1733 20.3865ZM53.6533 20.8365C53.4133 20.8365 53.2213 20.9145 53.0773 21.0705C52.9393 21.2205 52.8703 21.4275 52.8703 21.6915C52.8703 21.9615 52.9393 22.1745 53.0773 22.3305C53.2213 22.4865 53.4163 22.5645 53.6623 22.5645C53.9203 22.5645 54.1153 22.4895 54.2473 22.3395C54.3793 22.1895 54.4453 21.9675 54.4453 21.6735C54.4453 21.1155 54.1813 20.8365 53.6533 20.8365ZM57.9909 25.0395C57.6009 25.0395 57.2979 24.9285 57.0819 24.7065C56.8659 24.4785 56.7579 24.1575 56.7579 23.7435V18.2265L58.0359 18.0825V23.7075C58.0359 23.9175 58.1229 24.0225 58.2969 24.0225C58.3929 24.0225 58.4769 24.0045 58.5489 23.9685L58.8099 24.8775C58.5639 24.9855 58.2909 25.0395 57.9909 25.0395ZM63.454 22.4025C63.454 22.4625 63.445 22.6275 63.427 22.8975H60.448C60.49 23.3295 60.607 23.6355 60.799 23.8155C60.991 23.9955 61.252 24.0855 61.582 24.0855C61.786 24.0855 61.978 24.0525 62.158 23.9865C62.338 23.9205 62.533 23.8155 62.743 23.6715L63.274 24.3915C62.74 24.8235 62.137 25.0395 61.465 25.0395C60.715 25.0395 60.139 24.8145 59.737 24.3645C59.335 23.9145 59.134 23.3055 59.134 22.5375C59.134 22.0515 59.218 21.6165 59.386 21.2325C59.56 20.8425 59.809 20.5365 60.133 20.3145C60.463 20.0925 60.853 19.9815 61.303 19.9815C61.981 19.9815 62.509 20.1945 62.887 20.6205C63.265 21.0465 63.454 21.6405 63.454 22.4025ZM62.185 22.0425C62.185 21.2505 61.9 20.8545 61.33 20.8545C61.066 20.8545 60.859 20.9535 60.709 21.1515C60.565 21.3435 60.478 21.6585 60.448 22.0965H62.185V22.0425ZM68.5293 18.6675C69.3393 18.6675 69.9663 18.8355 70.4103 19.1715C70.8603 19.5075 71.0853 20.0085 71.0853 20.6745C71.0853 21.3705 70.8633 21.8955 70.4193 22.2495C69.9753 22.5975 69.3813 22.7715 68.6373 22.7715H67.9263V24.8955H66.6033V18.6675H68.5293ZM68.5293 21.7995C68.9133 21.7995 69.2073 21.7125 69.4113 21.5385C69.6153 21.3645 69.7173 21.0765 69.7173 20.6745C69.7173 19.9725 69.3153 19.6215 68.5113 19.6215H67.9263V21.7995H68.5293ZM73.0289 25.0395C72.6389 25.0395 72.3359 24.9285 72.1199 24.7065C71.9039 24.4785 71.7959 24.1575 71.7959 23.7435V18.2265L73.0739 18.0825V23.7075C73.0739 23.9175 73.1609 24.0225 73.3349 24.0225C73.4309 24.0225 73.5149 24.0045 73.5869 23.9685L73.8479 24.8775C73.6019 24.9855 73.3289 25.0395 73.0289 25.0395ZM78.1051 23.5725C78.1051 23.7585 78.1321 23.8965 78.1861 23.9865C78.2401 24.0705 78.3301 24.1335 78.4561 24.1755L78.1861 25.0215C77.9041 24.9975 77.6731 24.9315 77.4931 24.8235C77.3191 24.7155 77.1841 24.5475 77.0881 24.3195C76.7761 24.7995 76.2991 25.0395 75.6571 25.0395C75.1831 25.0395 74.8051 24.9045 74.5231 24.6345C74.2471 24.3585 74.1091 24.0015 74.1091 23.5635C74.1091 23.0415 74.2981 22.6425 74.6761 22.3665C75.0541 22.0905 75.5971 21.9525 76.3051 21.9525H76.8541V21.7185C76.8541 21.4245 76.7881 21.2205 76.6561 21.1065C76.5241 20.9925 76.3051 20.9355 75.9991 20.9355C75.6631 20.9355 75.2431 21.0195 74.7391 21.1875L74.4511 20.3325C75.0451 20.0985 75.6331 19.9815 76.2151 19.9815C76.8631 19.9815 77.3401 20.1225 77.6461 20.4045C77.9521 20.6805 78.1051 21.0945 78.1051 21.6465V23.5725ZM76.0081 24.1215C76.3681 24.1215 76.6501 23.9445 76.8541 23.5905V22.6815H76.4311C75.7411 22.6815 75.3961 22.9395 75.3961 23.4555C75.3961 23.6655 75.4471 23.8305 75.5491 23.9505C75.6571 24.0645 75.8101 24.1215 76.0081 24.1215ZM81.7071 24.9045C81.5151 25.5105 81.2121 25.9785 80.7981 26.3085C80.3901 26.6385 79.8351 26.8275 79.1331 26.8755L78.9981 25.9575C79.4541 25.8975 79.7871 25.7895 79.9971 25.6335C80.2131 25.4775 80.3901 25.2315 80.5281 24.8955H80.0871L78.6021 20.1255H79.9611L80.9151 24.0675L81.9231 20.1255H83.2461L81.7071 24.9045Z" fill="white"/>
</svg>
