<svg width="41" height="27" viewBox="0 0 41 27" fill="none" xmlns="http://www.w3.org/2000/svg">
<path d="M30.7202 26.8311C29.0081 26.8311 27.4886 26.3817 26.1617 25.4828C24.8349 24.584 23.7862 23.3641 23.0158 21.8232C22.2453 20.2823 21.8601 18.5702 21.8601 16.6869C21.8601 13.6051 22.866 10.5875 24.8777 7.63417C26.9322 4.638 29.8214 2.17685 33.5452 0.250732L40.736 4.10297C38.2963 5.30144 36.2203 6.69252 34.5082 8.27621C32.8389 9.85991 31.7047 11.7218 31.1054 13.8619C33.1172 14.0332 34.7437 14.6538 35.9849 15.7239C37.269 16.7511 37.911 18.185 37.911 20.0255C37.911 21.866 37.2476 23.4711 35.9207 24.8408C34.6367 26.1677 32.9032 26.8311 30.7202 26.8311ZM9.27614 26.8311C7.56404 26.8311 6.04455 26.3817 4.71767 25.4828C3.39079 24.584 2.34213 23.3641 1.57168 21.8232C0.801239 20.2823 0.416016 18.5702 0.416016 16.6869C0.416016 13.6051 1.42188 10.5875 3.43359 7.63417C5.48812 4.638 8.37729 2.17685 12.1011 0.250732L19.2919 4.10297C16.8522 5.30144 14.7763 6.69252 13.0642 8.27621C11.3949 9.85991 10.2606 11.7218 9.66137 13.8619C11.6731 14.0332 13.2996 14.6538 14.5409 15.7239C15.8249 16.7511 16.467 18.185 16.467 20.0255C16.467 21.866 15.8035 23.4711 14.4767 24.8408C13.1926 26.1677 11.4591 26.8311 9.27614 26.8311Z" fill="#127384"/>
</svg>
