<svg width="202" height="26" viewBox="0 0 202 26" fill="none" xmlns="http://www.w3.org/2000/svg">
<mask id="path-1-outside-1_3510_75445" maskUnits="userSpaceOnUse" x="-1.72021" y="-1.94678" width="206" height="30" fill="black">
<rect fill="white" x="-1.72021" y="-1.94678" width="206" height="30"/>
<path d="M17.8403 2.87722L17.3283 6.90922H11.8563V25.0532H6.60829V6.90922H0.880285V2.87722H17.8403ZM28.1048 7.58122C28.7235 7.58122 29.2888 7.65589 29.8008 7.80522L29.0008 12.7012C28.3608 12.5519 27.8488 12.4772 27.4648 12.4772C26.4621 12.4772 25.6941 12.8292 25.1608 13.5332C24.6488 14.2159 24.2435 15.2506 23.9448 16.6372V25.0532H18.8888V8.06122H23.3048L23.7208 11.3572C24.1048 10.1839 24.6808 9.26656 25.4488 8.60522C26.2381 7.92256 27.1235 7.58122 28.1048 7.58122ZM46.0685 25.0532H41.6845L41.4605 22.9092C40.2232 24.7012 38.5059 25.5972 36.3085 25.5972C34.7512 25.5972 33.5672 25.1279 32.7565 24.1892C31.9672 23.2506 31.5725 21.9386 31.5725 20.2532V8.06122H36.6285V19.6132C36.6285 20.4452 36.7565 21.0319 37.0125 21.3732C37.2899 21.6932 37.7059 21.8532 38.2605 21.8532C39.3272 21.8532 40.2445 21.1919 41.0125 19.8692V8.06122H46.0685V25.0532ZM56.029 7.51722C57.245 7.51722 58.3864 7.69855 59.453 8.06122C60.5197 8.42389 61.4584 8.93589 62.269 9.59722L60.413 12.4452C59.0264 11.5706 57.629 11.1332 56.221 11.1332C55.5597 11.1332 55.0477 11.2506 54.685 11.4852C54.3437 11.6986 54.173 12.0079 54.173 12.4132C54.173 12.7332 54.2477 12.9999 54.397 13.2132C54.5677 13.4052 54.8984 13.6079 55.389 13.8212C55.8797 14.0346 56.637 14.2906 57.661 14.5892C59.4317 15.1012 60.7437 15.7732 61.597 16.6052C62.4717 17.4159 62.909 18.5466 62.909 19.9972C62.909 21.1492 62.5784 22.1519 61.917 23.0052C61.2557 23.8372 60.349 24.4772 59.197 24.9252C58.045 25.3732 56.765 25.5972 55.357 25.5972C53.9277 25.5972 52.5944 25.3732 51.357 24.9252C50.141 24.4772 49.1064 23.8586 48.253 23.0692L50.717 20.3172C52.1464 21.4266 53.6504 21.9812 55.229 21.9812C55.997 21.9812 56.5944 21.8426 57.021 21.5652C57.469 21.2879 57.693 20.8932 57.693 20.3812C57.693 19.9759 57.6077 19.6559 57.437 19.4212C57.2664 19.1866 56.9357 18.9732 56.445 18.7812C55.9544 18.5679 55.1757 18.3119 54.109 18.0132C52.4237 17.5226 51.165 16.8399 50.333 15.9652C49.501 15.0906 49.085 14.0026 49.085 12.7012C49.085 11.7199 49.3624 10.8452 49.917 10.0772C50.493 9.28789 51.3037 8.66922 52.349 8.22122C53.4157 7.75189 54.6424 7.51722 56.029 7.51722ZM76.1698 24.2532C75.5511 24.6799 74.8258 25.0106 73.9938 25.2452C73.1831 25.4799 72.3725 25.5972 71.5618 25.5972C67.8498 25.5759 65.9938 23.5279 65.9938 19.4532V11.5812H63.5938V8.06122H65.9938V4.38122L71.0498 3.80522V8.06122H74.9538L74.4098 11.5812H71.0498V19.3892C71.0498 20.1786 71.1778 20.7439 71.4338 21.0852C71.6898 21.4266 72.0951 21.5972 72.6498 21.5972C73.2258 21.5972 73.8338 21.4159 74.4738 21.0532L76.1698 24.2532ZM92.111 16.2212C92.111 16.9252 92.079 17.5332 92.015 18.0452H81.487C81.6577 19.4746 82.063 20.4772 82.703 21.0532C83.343 21.6292 84.2284 21.9172 85.359 21.9172C86.0417 21.9172 86.703 21.7999 87.343 21.5652C87.983 21.3092 88.6764 20.9252 89.423 20.4132L91.503 23.2292C89.519 24.8079 87.311 25.5972 84.879 25.5972C82.127 25.5972 80.015 24.7866 78.543 23.1652C77.071 21.5439 76.335 19.3679 76.335 16.6372C76.335 14.9092 76.6444 13.3626 77.263 11.9972C77.8817 10.6106 78.7884 9.52256 79.983 8.73322C81.1777 7.92255 82.607 7.51722 84.271 7.51722C86.7244 7.51722 88.6444 8.28522 90.031 9.82122C91.4177 11.3572 92.111 13.4906 92.111 16.2212ZM87.151 14.7812C87.1084 12.1786 86.191 10.8772 84.399 10.8772C83.5244 10.8772 82.8417 11.1972 82.351 11.8372C81.8817 12.4772 81.5937 13.5332 81.487 15.0052H87.151V14.7812ZM110.183 1.30922V25.0532H105.703L105.447 23.0692C104.253 24.7546 102.642 25.5972 100.615 25.5972C98.5033 25.5972 96.8926 24.7866 95.7833 23.1652C94.6953 21.5439 94.1513 19.3252 94.1513 16.5092C94.1513 14.7812 94.4393 13.2346 95.0153 11.8692C95.5913 10.5039 96.402 9.43722 97.4473 8.66922C98.514 7.90122 99.73 7.51722 101.095 7.51722C102.717 7.51722 104.061 8.05055 105.127 9.11722V0.765221L110.183 1.30922ZM102.183 21.8852C103.357 21.8852 104.338 21.2452 105.127 19.9652V12.6372C104.722 12.1466 104.306 11.7839 103.879 11.5492C103.474 11.3146 103.005 11.1972 102.471 11.1972C101.533 11.1972 100.786 11.6346 100.231 12.5092C99.6766 13.3839 99.3993 14.7279 99.3993 16.5412C99.3993 18.5252 99.634 19.9119 100.103 20.7012C100.594 21.4906 101.287 21.8852 102.183 21.8852ZM128.997 2.87722C131.919 2.87722 134.191 3.48522 135.813 4.70122C137.434 5.91722 138.245 7.71989 138.245 10.1092C138.245 12.6052 137.445 14.4932 135.845 15.7732C134.266 17.0319 132.143 17.6612 129.477 17.6612H127.077V25.0532H121.829V2.87722H128.997ZM129.029 13.8852C130.266 13.8852 131.205 13.5972 131.845 13.0212C132.506 12.4239 132.837 11.4532 132.837 10.1092C132.837 7.78389 131.535 6.62122 128.933 6.62122H127.077V13.8852H129.029ZM149.511 7.58122C150.13 7.58122 150.695 7.65589 151.207 7.80522L150.407 12.7012C149.767 12.5519 149.255 12.4772 148.871 12.4772C147.868 12.4772 147.1 12.8292 146.567 13.5332C146.055 14.2159 145.65 15.2506 145.351 16.6372V25.0532H140.295V8.06122H144.711L145.127 11.3572C145.511 10.1839 146.087 9.26656 146.855 8.60522C147.644 7.92256 148.53 7.58122 149.511 7.58122ZM159.53 7.51722C162.133 7.51722 164.17 8.31722 165.642 9.91722C167.114 11.4959 167.85 13.7146 167.85 16.5732C167.85 18.3866 167.509 19.9759 166.826 21.3412C166.165 22.6852 165.205 23.7306 163.946 24.4772C162.709 25.2239 161.237 25.5972 159.53 25.5972C156.949 25.5972 154.911 24.8079 153.418 23.2292C151.946 21.6292 151.21 19.3999 151.21 16.5412C151.21 14.7279 151.541 13.1492 152.202 11.8052C152.885 10.4399 153.845 9.38389 155.082 8.63722C156.341 7.89056 157.823 7.51722 159.53 7.51722ZM159.53 11.2292C158.506 11.2292 157.738 11.6666 157.226 12.5412C156.714 13.3946 156.458 14.7279 156.458 16.5412C156.458 18.3972 156.703 19.7519 157.194 20.6052C157.706 21.4586 158.485 21.8852 159.53 21.8852C160.554 21.8852 161.322 21.4586 161.834 20.6052C162.346 19.7306 162.602 18.3866 162.602 16.5732C162.602 14.7172 162.346 13.3626 161.834 12.5092C161.343 11.6559 160.575 11.2292 159.53 11.2292ZM178.218 7.51722C180.82 7.51722 182.858 8.31722 184.33 9.91722C185.802 11.4959 186.538 13.7146 186.538 16.5732C186.538 18.3866 186.196 19.9759 185.514 21.3412C184.852 22.6852 183.892 23.7306 182.634 24.4772C181.396 25.2239 179.924 25.5972 178.218 25.5972C175.636 25.5972 173.599 24.8079 172.106 23.2292C170.634 21.6292 169.898 19.3999 169.898 16.5412C169.898 14.7279 170.228 13.1492 170.89 11.8052C171.572 10.4399 172.532 9.38389 173.77 8.63722C175.028 7.89056 176.511 7.51722 178.218 7.51722ZM178.218 11.2292C177.194 11.2292 176.426 11.6666 175.914 12.5412C175.402 13.3946 175.146 14.7279 175.146 16.5412C175.146 18.3972 175.391 19.7519 175.882 20.6052C176.394 21.4586 177.172 21.8852 178.218 21.8852C179.242 21.8852 180.01 21.4586 180.522 20.6052C181.034 19.7306 181.29 18.3866 181.29 16.5732C181.29 14.7172 181.034 13.3626 180.522 12.5092C180.031 11.6559 179.263 11.2292 178.218 11.2292ZM197.321 4.50922C196.596 4.50922 196.073 4.67989 195.753 5.02122C195.433 5.36256 195.273 5.93856 195.273 6.74922V8.06122H199.273L198.729 11.5812H195.273V25.0532H190.217V11.5812H187.657V8.06122H190.217V6.55722C190.217 4.85055 190.772 3.46389 191.881 2.39722C193.012 1.30922 194.622 0.765221 196.713 0.765221C198.398 0.765221 199.945 1.12789 201.353 1.85322L199.977 5.14922C199.124 4.72256 198.238 4.50922 197.321 4.50922Z"/>
</mask>
<path d="M17.8403 2.87722L19.8244 3.12917L20.1103 0.877222H17.8403V2.87722ZM17.3283 6.90922V8.90922H19.0904L19.3124 7.16117L17.3283 6.90922ZM11.8563 6.90922V4.90922H9.85629V6.90922H11.8563ZM11.8563 25.0532V27.0532H13.8563V25.0532H11.8563ZM6.60829 25.0532H4.60829V27.0532H6.60829V25.0532ZM6.60829 6.90922H8.60829V4.90922H6.60829V6.90922ZM0.880285 6.90922H-1.11971V8.90922H0.880285V6.90922ZM0.880285 2.87722V0.877222H-1.11971V2.87722H0.880285ZM15.8562 2.62528L15.3442 6.65728L19.3124 7.16117L19.8244 3.12917L15.8562 2.62528ZM17.3283 4.90922H11.8563V8.90922H17.3283V4.90922ZM9.85629 6.90922V25.0532H13.8563V6.90922H9.85629ZM11.8563 23.0532H6.60829V27.0532H11.8563V23.0532ZM8.60829 25.0532V6.90922H4.60829V25.0532H8.60829ZM6.60829 4.90922H0.880285V8.90922H6.60829V4.90922ZM2.88029 6.90922V2.87722H-1.11971V6.90922H2.88029ZM0.880285 4.87722H17.8403V0.877222H0.880285V4.87722ZM29.8008 7.80522L31.7746 8.12774L32.0601 6.38084L30.3608 5.88522L29.8008 7.80522ZM29.0008 12.7012L28.5463 14.6489L30.6296 15.135L30.9746 13.0237L29.0008 12.7012ZM25.1608 13.5332L23.5666 12.3255L23.5608 12.3332L25.1608 13.5332ZM23.9448 16.6372L21.9896 16.2161L21.9448 16.4243V16.6372H23.9448ZM23.9448 25.0532V27.0532H25.9448V25.0532H23.9448ZM18.8888 25.0532H16.8888V27.0532H18.8888V25.0532ZM18.8888 8.06122V6.06122H16.8888V8.06122H18.8888ZM23.3048 8.06122L25.289 7.81078L25.0682 6.06122H23.3048V8.06122ZM23.7208 11.3572L21.7365 11.6077L25.6216 11.9793L23.7208 11.3572ZM25.4488 8.60522L26.7538 10.1208L26.7571 10.1179L25.4488 8.60522ZM28.1048 9.58122C28.5635 9.58122 28.9371 9.63664 29.2408 9.72522L30.3608 5.88522C29.6405 5.67514 28.8834 5.58122 28.1048 5.58122V9.58122ZM27.827 7.4827L27.027 12.3787L30.9746 13.0237L31.7746 8.12774L27.827 7.4827ZM29.4552 10.7535C28.7555 10.5903 28.0722 10.4772 27.4648 10.4772V14.4772C27.6254 14.4772 27.966 14.5135 28.5463 14.6489L29.4552 10.7535ZM27.4648 10.4772C25.9327 10.4772 24.5328 11.0501 23.5666 12.3255L26.755 14.7409C26.8554 14.6083 26.9916 14.4772 27.4648 14.4772V10.4772ZM23.5608 12.3332C22.7975 13.3509 22.3139 14.7105 21.9896 16.2161L25.9 17.0583C26.173 15.7906 26.5001 15.0809 26.7608 14.7332L23.5608 12.3332ZM21.9448 16.6372V25.0532H25.9448V16.6372H21.9448ZM23.9448 23.0532H18.8888V27.0532H23.9448V23.0532ZM20.8888 25.0532V8.06122H16.8888V25.0532H20.8888ZM18.8888 10.0612H23.3048V6.06122H18.8888V10.0612ZM21.3205 8.31166L21.7365 11.6077L25.705 11.1068L25.289 7.81078L21.3205 8.31166ZM25.6216 11.9793C25.9169 11.0769 26.3168 10.4971 26.7538 10.1208L24.1437 7.08968C23.0448 8.03601 22.2927 9.29087 21.82 10.7351L25.6216 11.9793ZM26.7571 10.1179C27.208 9.72794 27.636 9.58122 28.1048 9.58122V5.58122C26.6109 5.58122 25.2682 6.11717 24.1405 7.0925L26.7571 10.1179ZM46.0685 25.0532V27.0532H48.0685V25.0532H46.0685ZM41.6845 25.0532L39.6954 25.261L39.8826 27.0532H41.6845V25.0532ZM41.4605 22.9092L43.4497 22.7014L42.8877 17.3223L39.8147 21.7728L41.4605 22.9092ZM32.7565 24.1892L31.2258 25.4764L31.2343 25.4865L31.2429 25.4965L32.7565 24.1892ZM31.5725 8.06122V6.06122H29.5725V8.06122H31.5725ZM36.6285 8.06122H38.6285V6.06122H36.6285V8.06122ZM37.0125 21.3732L35.4125 22.5732L35.4549 22.6297L35.5012 22.6831L37.0125 21.3732ZM41.0125 19.8692L42.7421 20.8735L43.0125 20.4078V19.8692H41.0125ZM41.0125 8.06122V6.06122H39.0125V8.06122H41.0125ZM46.0685 8.06122H48.0685V6.06122H46.0685V8.06122ZM46.0685 23.0532H41.6845V27.0532H46.0685V23.0532ZM43.6737 24.8454L43.4497 22.7014L39.4714 23.117L39.6954 25.261L43.6737 24.8454ZM39.8147 21.7728C38.9548 23.0182 37.8558 23.5972 36.3085 23.5972V27.5972C39.1559 27.5972 41.4916 26.3842 43.1063 24.0456L39.8147 21.7728ZM36.3085 23.5972C35.1719 23.5972 34.6073 23.2723 34.2702 22.882L31.2429 25.4965C32.5271 26.9835 34.3305 27.5972 36.3085 27.5972V23.5972ZM34.2873 22.902C33.8976 22.4386 33.5725 21.6433 33.5725 20.2532H29.5725C29.5725 22.2339 30.0368 24.0625 31.2258 25.4764L34.2873 22.902ZM33.5725 20.2532V8.06122H29.5725V20.2532H33.5725ZM31.5725 10.0612H36.6285V6.06122H31.5725V10.0612ZM34.6285 8.06122V19.6132H38.6285V8.06122H34.6285ZM34.6285 19.6132C34.6285 20.5298 34.7458 21.6842 35.4125 22.5732L38.6125 20.1732C38.7118 20.3056 38.7046 20.3704 38.6786 20.2509C38.6543 20.1396 38.6285 19.9364 38.6285 19.6132H34.6285ZM35.5012 22.6831C36.2679 23.5678 37.3171 23.8532 38.2605 23.8532V19.8532C38.1708 19.8532 38.181 19.8398 38.2505 19.8665C38.2865 19.8804 38.3336 19.9033 38.385 19.9388C38.4367 19.9747 38.4839 20.0172 38.5239 20.0634L35.5012 22.6831ZM38.2605 23.8532C40.3262 23.8532 41.788 22.5167 42.7421 20.8735L39.283 18.865C38.7011 19.867 38.3282 19.8532 38.2605 19.8532V23.8532ZM43.0125 19.8692V8.06122H39.0125V19.8692H43.0125ZM41.0125 10.0612H46.0685V6.06122H41.0125V10.0612ZM44.0685 8.06122V25.0532H48.0685V8.06122H44.0685ZM59.453 8.06122L58.8092 9.95477L59.453 8.06122ZM62.269 9.59722L63.9446 10.6892L64.9258 9.18353L63.5333 8.04749L62.269 9.59722ZM60.413 12.4452L59.346 14.1368L61.0127 15.1881L62.0886 13.5372L60.413 12.4452ZM54.685 11.4852L55.745 13.1812L55.7584 13.1729L55.7715 13.1644L54.685 11.4852ZM54.397 13.2132L52.7586 14.3601L52.8251 14.4552L52.9022 14.542L54.397 13.2132ZM55.389 13.8212L54.5916 15.6554V15.6554L55.389 13.8212ZM57.661 14.5892L57.101 16.5092L57.1055 16.5105L57.661 14.5892ZM61.597 16.6052L60.2008 18.0372L60.2189 18.0549L60.2375 18.0721L61.597 16.6052ZM61.917 23.0052L63.4827 24.2497L63.4903 24.2401L63.4979 24.2304L61.917 23.0052ZM59.197 24.9252L59.9219 26.7892L59.197 24.9252ZM51.357 24.9252L50.6656 26.8019L50.6762 26.8058L51.357 24.9252ZM48.253 23.0692L46.763 21.7351L45.4504 23.2012L46.895 24.5374L48.253 23.0692ZM50.717 20.3172L51.9433 18.7372L50.4706 17.5942L49.227 18.9831L50.717 20.3172ZM57.021 21.5652L55.9683 19.8647L55.9496 19.8763L55.9311 19.8883L57.021 21.5652ZM57.437 19.4212L55.8196 20.5976L55.8196 20.5976L57.437 19.4212ZM56.445 18.7812L55.6476 20.6154L55.6816 20.6302L55.7162 20.6437L56.445 18.7812ZM54.109 18.0132L53.55 19.9335L53.5599 19.9364L53.5698 19.9391L54.109 18.0132ZM50.333 15.9652L48.8839 17.3436V17.3437L50.333 15.9652ZM49.917 10.0772L48.3014 8.89827L48.2957 8.90624L49.917 10.0772ZM52.349 8.22122L53.1369 10.0595L53.1457 10.0557L53.1545 10.0519L52.349 8.22122ZM56.029 9.51722C57.0434 9.51722 57.9657 9.66797 58.8092 9.95477L60.0968 6.16768C58.807 5.72914 57.4466 5.51722 56.029 5.51722V9.51722ZM58.8092 9.95477C59.6677 10.2466 60.3925 10.6475 61.0048 11.147L63.5333 8.04749C62.5242 7.22429 61.3717 6.60114 60.0968 6.16768L58.8092 9.95477ZM60.5934 8.50526L58.7374 11.3533L62.0886 13.5372L63.9446 10.6892L60.5934 8.50526ZM61.48 10.7536C59.8274 9.71122 58.0653 9.13322 56.221 9.13322V13.1332C57.1928 13.1332 58.2253 13.4299 59.346 14.1368L61.48 10.7536ZM56.221 9.13322C55.3641 9.13322 54.4141 9.27836 53.5985 9.80608L55.7715 13.1644C55.7199 13.1978 55.7116 13.1881 55.7878 13.1707C55.8653 13.1529 56.0039 13.1332 56.221 13.1332V9.13322ZM53.625 9.78922C52.694 10.3712 52.173 11.3242 52.173 12.4132H56.173C56.173 12.4981 56.1528 12.661 56.0522 12.8434C55.9513 13.0263 55.8223 13.1329 55.745 13.1812L53.625 9.78922ZM52.173 12.4132C52.173 13.0485 52.3247 13.7404 52.7586 14.3601L56.0355 12.0663C56.0983 12.156 56.1353 12.2438 56.155 12.314C56.1737 12.3809 56.173 12.4186 56.173 12.4132H52.173ZM52.9022 14.542C53.3814 15.081 54.0618 15.425 54.5916 15.6554L56.1865 11.9871C55.9971 11.9047 55.8806 11.8423 55.8182 11.804C55.7884 11.7858 55.7821 11.7798 55.7922 11.7877C55.8011 11.7948 55.8398 11.826 55.8919 11.8845L52.9022 14.542ZM54.5916 15.6554C55.2024 15.9209 56.0589 16.2053 57.101 16.5092L58.221 12.6692C57.2151 12.3758 56.557 12.1482 56.1865 11.9871L54.5916 15.6554ZM57.1055 16.5105C58.717 16.9765 59.6776 17.5271 60.2008 18.0372L62.9932 15.1732C61.8098 14.0194 60.1464 13.2259 58.2166 12.6679L57.1055 16.5105ZM60.2375 18.0721C60.6173 18.4241 60.909 18.9734 60.909 19.9972H64.909C64.909 18.1198 64.3261 16.4077 62.9566 15.1384L60.2375 18.0721ZM60.909 19.9972C60.909 20.7374 60.707 21.3017 60.3362 21.7801L63.4979 24.2304C64.4498 23.0021 64.909 21.561 64.909 19.9972H60.909ZM60.3514 21.7607C59.9442 22.273 59.3484 22.7204 58.4721 23.0612L59.9219 26.7892C61.3497 26.234 62.5672 25.4014 63.4827 24.2497L60.3514 21.7607ZM58.4721 23.0612C57.5811 23.4077 56.5512 23.5972 55.357 23.5972V27.5972C56.9788 27.5972 58.509 27.3387 59.9219 26.7892L58.4721 23.0612ZM55.357 23.5972C54.1399 23.5972 53.0389 23.4071 52.0379 23.0447L50.6762 26.8058C52.1499 27.3393 53.7156 27.5972 55.357 27.5972V23.5972ZM52.0484 23.0485C51.051 22.6811 50.2503 22.1922 49.6111 21.601L46.895 24.5374C47.9625 25.5249 49.231 26.2734 50.6656 26.8019L52.0484 23.0485ZM49.7431 24.4033L52.2071 21.6513L49.227 18.9831L46.763 21.7351L49.7431 24.4033ZM49.4908 21.8972C51.2172 23.2371 53.1428 23.9812 55.229 23.9812V19.9812C54.1579 19.9812 53.0755 19.616 51.9433 18.7372L49.4908 21.8972ZM55.229 23.9812C56.2 23.9812 57.2341 23.8121 58.111 23.2421L55.9311 19.8883C55.9483 19.8771 55.9178 19.9019 55.8008 19.929C55.6821 19.9566 55.4972 19.9812 55.229 19.9812V23.9812ZM58.0737 23.2658C59.0898 22.6368 59.693 21.6101 59.693 20.3812H55.693C55.693 20.3363 55.7058 20.2147 55.7857 20.074C55.864 19.9359 55.9535 19.8739 55.9683 19.8647L58.0737 23.2658ZM59.693 20.3812C59.693 19.7165 59.5551 18.9332 59.0545 18.2449L55.8196 20.5976C55.7412 20.4897 55.7085 20.3971 55.6966 20.3525C55.6857 20.3119 55.693 20.3153 55.693 20.3812H59.693ZM59.0545 18.2449C58.5412 17.5391 57.7701 17.1521 57.1738 16.9187L55.7162 20.6437C55.7935 20.674 55.8533 20.7007 55.8979 20.7227C55.9429 20.7449 55.9677 20.7599 55.9768 20.7658C55.9862 20.7719 55.9732 20.7645 55.9464 20.7405C55.9195 20.7165 55.8723 20.6701 55.8196 20.5976L59.0545 18.2449ZM57.2425 16.9471C56.6195 16.6762 55.7307 16.3904 54.6483 16.0873L53.5698 19.9391C54.6207 20.2334 55.2892 20.4596 55.6476 20.6154L57.2425 16.9471ZM54.6681 16.093C53.1777 15.659 52.2844 15.1148 51.7822 14.5868L48.8839 17.3437C50.0457 18.565 51.6697 19.3861 53.55 19.9335L54.6681 16.093ZM51.7822 14.5868C51.3329 14.1145 51.085 13.5333 51.085 12.7012H47.085C47.085 14.4718 47.6691 16.0666 48.8839 17.3436L51.7822 14.5868ZM51.085 12.7012C51.085 12.1242 51.2391 11.6625 51.5384 11.2482L48.2957 8.90624C47.4856 10.0279 47.085 11.3156 47.085 12.7012H51.085ZM51.5326 11.2562C51.8643 10.8016 52.3669 10.3895 53.1369 10.0595L51.5612 6.38293C50.2405 6.94893 49.1217 7.77419 48.3015 8.89828L51.5326 11.2562ZM53.1545 10.0519C53.9238 9.71335 54.8679 9.51722 56.029 9.51722V5.51722C54.4169 5.51722 52.9076 5.79043 51.5436 6.39059L53.1545 10.0519ZM76.1698 24.2532L77.3053 25.8996L78.7704 24.8892L77.9369 23.3166L76.1698 24.2532ZM73.9938 25.2452L73.4509 23.3203L73.4377 23.3241L73.9938 25.2452ZM71.5618 25.5972L71.5503 27.5972H71.5618V25.5972ZM65.9938 11.5812H67.9938V9.58122H65.9938V11.5812ZM63.5938 11.5812H61.5938V13.5812H63.5938V11.5812ZM63.5938 8.06122V6.06122H61.5938V8.06122H63.5938ZM65.9938 8.06122V10.0612H67.9938V8.06122H65.9938ZM65.9938 4.38122L65.7674 2.39408L63.9938 2.59613V4.38122H65.9938ZM71.0498 3.80522H73.0498V1.56444L70.8234 1.81808L71.0498 3.80522ZM71.0498 8.06122H69.0498V10.0612H71.0498V8.06122ZM74.9538 8.06122L76.9303 8.36669L77.2866 6.06122H74.9538V8.06122ZM74.4098 11.5812V13.5812H76.1244L76.3863 11.8867L74.4098 11.5812ZM71.0498 11.5812V9.58122H69.0498V11.5812H71.0498ZM71.4338 21.0852L73.0338 19.8852L71.4338 21.0852ZM74.4738 21.0532L76.2409 20.1166L75.2776 18.299L73.4878 19.3132L74.4738 21.0532ZM75.0343 22.6068C74.6214 22.8915 74.1026 23.1365 73.4509 23.3203L74.5367 27.1701C75.549 26.8846 76.4808 26.4682 77.3053 25.8996L75.0343 22.6068ZM73.4377 23.3241C72.8003 23.5086 72.1767 23.5972 71.5618 23.5972V27.5972C72.5682 27.5972 73.5659 27.4512 74.5499 27.1664L73.4377 23.3241ZM71.5733 23.5973C70.0769 23.5887 69.3028 23.1822 68.8678 22.7022C68.4011 22.1873 67.9938 21.225 67.9938 19.4532H63.9938C63.9938 21.7561 64.5145 23.8552 65.9038 25.3883C67.3248 26.9562 69.3347 27.5845 71.5503 27.5972L71.5733 23.5973ZM67.9938 19.4532V11.5812H63.9938V19.4532H67.9938ZM65.9938 9.58122H63.5938V13.5812H65.9938V9.58122ZM65.5938 11.5812V8.06122H61.5938V11.5812H65.5938ZM63.5938 10.0612H65.9938V6.06122H63.5938V10.0612ZM67.9938 8.06122V4.38122H63.9938V8.06122H67.9938ZM66.2202 6.36837L71.2762 5.79237L70.8234 1.81808L65.7674 2.39408L66.2202 6.36837ZM69.0498 3.80522V8.06122H73.0498V3.80522H69.0498ZM71.0498 10.0612H74.9538V6.06122H71.0498V10.0612ZM72.9772 7.75576L72.4333 11.2758L76.3863 11.8867L76.9303 8.36669L72.9772 7.75576ZM74.4098 9.58122H71.0498V13.5812H74.4098V9.58122ZM69.0498 11.5812V19.3892H73.0498V11.5812H69.0498ZM69.0498 19.3892C69.0498 20.2919 69.1761 21.4083 69.8338 22.2852L73.0338 19.8852C73.1238 20.0052 73.1193 20.0645 73.0964 19.9636C73.0746 19.8672 73.0498 19.6848 73.0498 19.3892H69.0498ZM69.8338 22.2852C70.5763 23.2753 71.6723 23.5972 72.6498 23.5972V19.5972C72.5719 19.5972 72.6078 19.5846 72.7059 19.626C72.8195 19.6738 72.9423 19.7632 73.0338 19.8852L69.8338 22.2852ZM72.6498 23.5972C73.6545 23.5972 74.6007 23.2801 75.4598 22.7933L73.4878 19.3132C73.0668 19.5517 72.7971 19.5972 72.6498 19.5972V23.5972ZM72.7066 21.9898L74.4026 25.1898L77.9369 23.3166L76.2409 20.1166L72.7066 21.9898ZM92.015 18.0452V20.0452H93.7806L93.9996 18.2933L92.015 18.0452ZM81.487 18.0452V16.0452H79.234L79.5011 18.2823L81.487 18.0452ZM82.703 21.0532L81.3651 22.5398L82.703 21.0532ZM87.343 21.5652L88.0315 23.443L88.0588 23.433L88.0858 23.4222L87.343 21.5652ZM89.423 20.4132L91.0318 19.225L89.8845 17.6717L88.292 18.7638L89.423 20.4132ZM91.503 23.2292L92.7483 24.7942L94.2581 23.5929L93.1118 22.041L91.503 23.2292ZM78.543 23.1652L80.0238 21.8208L78.543 23.1652ZM77.263 11.9972L79.0848 12.8227L79.0895 12.8121L77.263 11.9972ZM79.983 8.73322L81.0855 10.4019L81.0958 10.3951L81.106 10.3882L79.983 8.73322ZM90.031 9.82122L88.5465 11.1614L90.031 9.82122ZM87.151 14.7812H89.151V14.7648L89.1508 14.7484L87.151 14.7812ZM82.351 11.8372L80.7638 10.6204L80.7508 10.6373L80.7382 10.6545L82.351 11.8372ZM81.487 15.0052L79.4923 14.8607L79.3369 17.0052H81.487V15.0052ZM87.151 15.0052V17.0052H89.151V15.0052H87.151ZM90.111 16.2212C90.111 16.8699 90.0813 17.3909 90.0305 17.7972L93.9996 18.2933C94.0768 17.6755 94.111 16.9805 94.111 16.2212H90.111ZM92.015 16.0452H81.487V20.0452H92.015V16.0452ZM79.5011 18.2823C79.6935 19.8933 80.1906 21.4827 81.3651 22.5398L84.041 19.5666C83.9355 19.4717 83.6219 19.0558 83.4729 17.8081L79.5011 18.2823ZM81.3651 22.5398C82.4751 23.5388 83.8925 23.9172 85.359 23.9172V19.9172C84.5642 19.9172 84.211 19.7197 84.041 19.5666L81.3651 22.5398ZM85.359 23.9172C86.2763 23.9172 87.1707 23.7586 88.0315 23.443L86.6545 19.6875C86.2354 19.8411 85.8072 19.9172 85.359 19.9172V23.9172ZM88.0858 23.4222C88.8973 23.0976 89.7215 22.6336 90.5541 22.0627L88.292 18.7638C87.6313 19.2168 87.0687 19.5209 86.6003 19.7083L88.0858 23.4222ZM87.8143 21.6015L89.8943 24.4175L93.1118 22.041L91.0318 19.225L87.8143 21.6015ZM90.2578 21.6642C88.6115 22.9742 86.8384 23.5972 84.879 23.5972V27.5972C87.7837 27.5972 90.4266 26.6416 92.7483 24.7942L90.2578 21.6642ZM84.879 23.5972C82.5359 23.5972 81.0237 22.9222 80.0238 21.8208L77.0623 24.5096C79.0064 26.6509 81.7181 27.5972 84.879 27.5972V23.5972ZM80.0238 21.8208C78.9629 20.6524 78.335 18.9987 78.335 16.6372H74.335C74.335 19.7371 75.1791 22.4354 77.0623 24.5096L80.0238 21.8208ZM78.335 16.6372C78.335 15.1506 78.6002 13.892 79.0847 12.8227L75.4413 11.1718C74.6885 12.8332 74.335 14.6678 74.335 16.6372H78.335ZM79.0895 12.8121C79.5629 11.7511 80.2281 10.9684 81.0855 10.4019L78.8805 7.06455C77.3487 8.07667 76.2006 9.46998 75.4366 11.1823L79.0895 12.8121ZM81.106 10.3882C81.9209 9.83525 82.9446 9.51722 84.271 9.51722V5.51722C82.2695 5.51722 80.4345 6.00986 78.86 7.07827L81.106 10.3882ZM84.271 9.51722C86.2732 9.51722 87.6097 10.1237 88.5465 11.1614L91.5156 8.48102C89.6791 6.44675 87.1756 5.51722 84.271 5.51722V9.51722ZM88.5465 11.1614C89.507 12.2254 90.111 13.8241 90.111 16.2212H94.111C94.111 13.157 93.3284 10.489 91.5156 8.48102L88.5465 11.1614ZM89.1508 14.7484C89.1266 13.2771 88.8603 11.8282 88.0657 10.7009C87.181 9.44579 85.8507 8.87722 84.399 8.87722V12.8772C84.6043 12.8772 84.6918 12.9138 84.7131 12.924C84.7259 12.9302 84.7515 12.9419 84.7964 13.0055C84.9191 13.1796 85.1328 13.6827 85.1513 14.814L89.1508 14.7484ZM84.399 8.87722C82.963 8.87722 81.6685 9.4404 80.7638 10.6204L83.9382 13.0541C84.0149 12.954 84.0857 12.8772 84.399 12.8772V8.87722ZM80.7382 10.6545C79.9263 11.7617 79.6062 13.2879 79.4923 14.8607L83.4818 15.1498C83.5812 13.7785 83.8371 13.1928 83.9638 13.0199L80.7382 10.6545ZM81.487 17.0052H87.151V13.0052H81.487V17.0052ZM89.151 15.0052V14.7812H85.151V15.0052H89.151ZM110.183 1.30922H112.183V-0.487132L110.397 -0.679302L110.183 1.30922ZM110.183 25.0532V27.0532H112.183V25.0532H110.183ZM105.703 25.0532L103.72 25.3092L103.945 27.0532H105.703V25.0532ZM105.447 23.0692L107.431 22.8133L106.776 17.7367L103.816 21.9126L105.447 23.0692ZM95.7833 23.1652L94.1226 24.2797L94.1276 24.2871L94.1327 24.2946L95.7833 23.1652ZM95.0153 11.8692L93.1726 11.0918V11.0918L95.0153 11.8692ZM97.4473 8.66922L96.2787 7.04615L96.2709 7.05177L96.2631 7.05746L97.4473 8.66922ZM105.127 9.11722L103.713 10.5314L107.127 13.9456V9.11722H105.127ZM105.127 0.765221L105.341 -1.2233L103.127 -1.46151V0.765221H105.127ZM105.127 19.9652L106.83 21.015L107.127 20.5323V19.9652H105.127ZM105.127 12.6372H107.127V11.918L106.669 11.3635L105.127 12.6372ZM103.879 11.5492L102.877 13.2801L102.896 13.2911L102.915 13.3017L103.879 11.5492ZM100.103 20.7012L98.3842 21.7234L98.3943 21.7403L98.4047 21.7571L100.103 20.7012ZM108.183 1.30922V25.0532H112.183V1.30922H108.183ZM110.183 23.0532H105.703V27.0532H110.183V23.0532ZM107.687 24.7973L107.431 22.8133L103.464 23.3252L103.72 25.3092L107.687 24.7973ZM103.816 21.9126C102.987 23.0811 101.979 23.5972 100.615 23.5972V27.5972C103.305 27.5972 105.518 26.428 107.079 24.2258L103.816 21.9126ZM100.615 23.5972C99.1049 23.5972 98.1385 23.0657 97.4339 22.0359L94.1327 24.2946C95.6467 26.5074 97.9017 27.5972 100.615 27.5972V23.5972ZM97.444 22.0508C96.6549 20.8749 96.1513 19.0956 96.1513 16.5092H92.1513C92.1513 19.5548 92.7356 22.2129 94.1226 24.2797L97.444 22.0508ZM96.1513 16.5092C96.1513 15.0044 96.4016 13.7285 96.858 12.6466L93.1726 11.0918C92.477 12.7406 92.1513 14.558 92.1513 16.5092H96.1513ZM96.858 12.6466C97.3141 11.5655 97.9164 10.8064 98.6314 10.281L96.2631 7.05746C94.8876 8.06809 93.8684 9.4423 93.1726 11.0918L96.858 12.6466ZM98.6159 10.2923C99.3284 9.77931 100.132 9.51722 101.095 9.51722V5.51722C99.3279 5.51722 97.6995 6.02314 96.2787 7.04615L98.6159 10.2923ZM101.095 9.51722C102.23 9.51722 103.051 9.86977 103.713 10.5314L106.541 7.70301C105.07 6.23134 103.203 5.51722 101.095 5.51722V9.51722ZM107.127 9.11722V0.765221H103.127V9.11722H107.127ZM104.913 2.75374L109.969 3.29774L110.397 -0.679302L105.341 -1.2233L104.913 2.75374ZM102.183 23.8852C104.247 23.8852 105.793 22.6959 106.83 21.015L103.425 18.9154C102.883 19.7946 102.466 19.8852 102.183 19.8852V23.8852ZM107.127 19.9652V12.6372H103.127V19.9652H107.127ZM106.669 11.3635C106.15 10.7349 105.547 10.1841 104.843 9.79679L102.915 13.3017C103.065 13.3836 103.294 13.5582 103.585 13.911L106.669 11.3635ZM104.881 9.81837C104.131 9.38408 103.307 9.19722 102.471 9.19722V13.1972C102.702 13.1972 102.817 13.245 102.877 13.2801L104.881 9.81837ZM102.471 9.19722C100.767 9.19722 99.4186 10.0562 98.5423 11.4381L101.92 13.5803C102.153 13.2129 102.298 13.1972 102.471 13.1972V9.19722ZM98.5423 11.4381C97.683 12.7931 97.3993 14.5979 97.3993 16.5412H101.399C101.399 14.8579 101.67 13.9746 101.92 13.5803L98.5423 11.4381ZM97.3993 16.5412C97.3993 18.5565 97.6151 20.4298 98.3842 21.7234L101.822 19.6791C101.653 19.394 101.399 18.494 101.399 16.5412H97.3993ZM98.4047 21.7571C99.2438 23.1069 100.565 23.8852 102.183 23.8852V19.8852C102.039 19.8852 101.99 19.8565 101.981 19.8511C101.968 19.8439 101.9 19.804 101.802 19.6454L98.4047 21.7571ZM135.813 4.70122L137.013 3.10122L135.813 4.70122ZM135.845 15.7732L137.091 17.337L137.094 17.335L135.845 15.7732ZM127.077 17.6612V15.6612H125.077V17.6612H127.077ZM127.077 25.0532V27.0532H129.077V25.0532H127.077ZM121.829 25.0532H119.829V27.0532H121.829V25.0532ZM121.829 2.87722V0.877222H119.829V2.87722H121.829ZM131.845 13.0212L133.182 14.5078L133.185 14.5054L131.845 13.0212ZM127.077 6.62122V4.62122H125.077V6.62122H127.077ZM127.077 13.8852H125.077V15.8852H127.077V13.8852ZM128.997 4.87722C131.671 4.87722 133.461 5.43727 134.613 6.30122L137.013 3.10122C134.922 1.53317 132.167 0.877222 128.997 0.877222V4.87722ZM134.613 6.30122C135.636 7.06913 136.245 8.22206 136.245 10.1092H140.245C140.245 7.21772 139.231 4.76531 137.013 3.10122L134.613 6.30122ZM136.245 10.1092C136.245 12.1442 135.617 13.394 134.595 14.2115L137.094 17.335C139.272 15.5924 140.245 13.0662 140.245 10.1092H136.245ZM134.598 14.2094C133.473 15.1065 131.836 15.6612 129.477 15.6612V19.6612C132.45 19.6612 135.059 18.9573 137.091 17.337L134.598 14.2094ZM129.477 15.6612H127.077V19.6612H129.477V15.6612ZM125.077 17.6612V25.0532H129.077V17.6612H125.077ZM127.077 23.0532H121.829V27.0532H127.077V23.0532ZM123.829 25.0532V2.87722H119.829V25.0532H123.829ZM121.829 4.87722H128.997V0.877222H121.829V4.87722ZM129.029 15.8852C130.546 15.8852 132.043 15.5338 133.182 14.5078L130.507 11.5346C130.367 11.6607 129.985 11.8852 129.029 11.8852V15.8852ZM133.185 14.5054C134.441 13.3713 134.837 11.7309 134.837 10.1092H130.837C130.837 11.1755 130.571 11.4765 130.504 11.537L133.185 14.5054ZM134.837 10.1092C134.837 8.57631 134.397 7.07766 133.193 6.00178C132.032 4.96423 130.49 4.62122 128.933 4.62122V8.62122C129.978 8.62122 130.388 8.85955 130.528 8.98466C130.625 9.07145 130.837 9.3168 130.837 10.1092H134.837ZM128.933 4.62122H127.077V8.62122H128.933V4.62122ZM125.077 6.62122V13.8852H129.077V6.62122H125.077ZM127.077 15.8852H129.029V11.8852H127.077V15.8852ZM151.207 7.80522L153.181 8.12774L153.466 6.38084L151.767 5.88522L151.207 7.80522ZM150.407 12.7012L149.953 14.6489L152.036 15.135L152.381 13.0237L150.407 12.7012ZM146.567 13.5332L144.973 12.3255L144.967 12.3332L146.567 13.5332ZM145.351 16.6372L143.396 16.2161L143.351 16.4243V16.6372H145.351ZM145.351 25.0532V27.0532H147.351V25.0532H145.351ZM140.295 25.0532H138.295V27.0532H140.295V25.0532ZM140.295 8.06122V6.06122H138.295V8.06122H140.295ZM144.711 8.06122L146.695 7.81078L146.474 6.06122H144.711V8.06122ZM145.127 11.3572L143.143 11.6077L147.028 11.9793L145.127 11.3572ZM146.855 8.60522L148.16 10.1208L148.163 10.1179L146.855 8.60522ZM149.511 9.58122C149.97 9.58122 150.343 9.63664 150.647 9.72522L151.767 5.88522C151.047 5.67514 150.29 5.58122 149.511 5.58122V9.58122ZM149.233 7.4827L148.433 12.3787L152.381 13.0237L153.181 8.12774L149.233 7.4827ZM150.861 10.7535C150.162 10.5903 149.478 10.4772 148.871 10.4772V14.4772C149.032 14.4772 149.372 14.5135 149.953 14.6489L150.861 10.7535ZM148.871 10.4772C147.339 10.4772 145.939 11.0501 144.973 12.3255L148.161 14.7409C148.262 14.6083 148.398 14.4772 148.871 14.4772V10.4772ZM144.967 12.3332C144.204 13.3509 143.72 14.7105 143.396 16.2161L147.306 17.0583C147.579 15.7906 147.906 15.0809 148.167 14.7332L144.967 12.3332ZM143.351 16.6372V25.0532H147.351V16.6372H143.351ZM145.351 23.0532H140.295V27.0532H145.351V23.0532ZM142.295 25.0532V8.06122H138.295V25.0532H142.295ZM140.295 10.0612H144.711V6.06122H140.295V10.0612ZM142.727 8.31166L143.143 11.6077L147.111 11.1068L146.695 7.81078L142.727 8.31166ZM147.028 11.9793C147.323 11.0769 147.723 10.4971 148.16 10.1208L145.55 7.08968C144.451 8.03601 143.699 9.29087 143.226 10.7351L147.028 11.9793ZM148.163 10.1179C148.614 9.72794 149.042 9.58122 149.511 9.58122V5.58122C148.017 5.58122 146.674 6.11717 145.547 7.0925L148.163 10.1179ZM165.642 9.91722L164.17 11.2714L164.179 11.2812L165.642 9.91722ZM166.826 21.3412L165.037 20.4468L165.032 20.4582L166.826 21.3412ZM163.946 24.4772L162.926 22.7571L162.919 22.761L162.913 22.7648L163.946 24.4772ZM153.418 23.2292L151.946 24.5833L151.956 24.5935L151.965 24.6036L153.418 23.2292ZM152.202 11.8052L150.413 10.9108L150.408 10.9222L152.202 11.8052ZM155.082 8.63722L154.062 6.91711L154.055 6.92096L154.049 6.92485L155.082 8.63722ZM157.226 12.5412L158.941 13.5702L158.947 13.5609L158.952 13.5516L157.226 12.5412ZM157.194 20.6052L155.46 21.6022L155.469 21.6183L155.479 21.6342L157.194 20.6052ZM161.834 20.6052L163.549 21.6342L163.555 21.6249L163.56 21.6156L161.834 20.6052ZM161.834 12.5092L160.1 13.5062L160.109 13.5223L160.119 13.5382L161.834 12.5092ZM159.53 9.51722C161.693 9.51722 163.151 10.1635 164.17 11.2713L167.114 8.56311C165.189 6.47094 162.572 5.51722 159.53 5.51722V9.51722ZM164.179 11.2812C165.206 12.3825 165.85 14.0525 165.85 16.5732H169.85C169.85 13.3766 169.022 10.6093 167.105 8.55329L164.179 11.2812ZM165.85 16.5732C165.85 18.134 165.557 19.4067 165.037 20.4468L168.615 22.2356C169.46 20.5451 169.85 18.6391 169.85 16.5732H165.85ZM165.032 20.4582C164.537 21.4627 163.842 22.2133 162.926 22.7571L164.966 26.1973C166.567 25.2478 167.792 23.9078 168.621 22.2242L165.032 20.4582ZM162.913 22.7648C162.04 23.2917 160.939 23.5972 159.53 23.5972V27.5972C161.534 27.5972 163.378 27.1561 164.979 26.1896L162.913 22.7648ZM159.53 23.5972C157.387 23.5972 155.916 22.9596 154.871 21.8548L151.965 24.6036C153.907 26.6562 156.511 27.5972 159.53 27.5972V23.5972ZM154.89 21.8751C153.853 20.7483 153.21 19.0602 153.21 16.5412H149.21C149.21 19.7396 150.039 22.5102 151.946 24.5833L154.89 21.8751ZM153.21 16.5412C153.21 14.9705 153.496 13.7057 153.997 12.6882L150.408 10.9222C149.585 12.5928 149.21 14.4853 149.21 16.5412H153.21ZM153.991 12.6996C154.514 11.653 155.221 10.8894 156.115 10.3496L154.049 6.92485C152.469 7.87837 151.255 9.22676 150.413 10.9108L153.991 12.6996ZM156.102 10.3573C157.004 9.82242 158.122 9.51722 159.53 9.51722V5.51722C157.525 5.51722 155.677 5.95869 154.062 6.91711L156.102 10.3573ZM159.53 9.22922C157.805 9.22922 156.375 10.0354 155.5 11.5309L158.952 13.5516C159.057 13.3721 159.139 13.316 159.176 13.2952C159.213 13.2738 159.309 13.2292 159.53 13.2292V9.22922ZM155.511 11.5122C154.715 12.8395 154.458 14.6203 154.458 16.5412H158.458C158.458 14.8355 158.713 13.9496 158.941 13.5702L155.511 11.5122ZM154.458 16.5412C154.458 18.4872 154.7 20.2801 155.46 21.6022L158.928 19.6083C158.707 19.2237 158.458 18.3073 158.458 16.5412H154.458ZM155.479 21.6342C156.374 23.1261 157.825 23.8852 159.53 23.8852V19.8852C159.284 19.8852 159.17 19.8367 159.123 19.8113C159.081 19.7883 159.005 19.7362 158.909 19.5762L155.479 21.6342ZM159.53 23.8852C161.232 23.8852 162.663 23.1111 163.549 21.6342L160.119 19.5762C160.019 19.7427 159.941 19.7956 159.903 19.8169C159.862 19.8397 159.759 19.8852 159.53 19.8852V23.8852ZM163.56 21.6156C164.343 20.2778 164.602 18.5005 164.602 16.5732H160.602C160.602 18.2726 160.349 19.1833 160.108 19.5949L163.56 21.6156ZM164.602 16.5732C164.602 14.6201 164.348 12.8123 163.549 11.4802L160.119 13.5382C160.344 13.9128 160.602 14.8144 160.602 16.5732H164.602ZM163.568 11.5123C162.694 9.9927 161.237 9.22922 159.53 9.22922V13.2292C159.777 13.2292 159.884 13.278 159.919 13.2975C159.948 13.3138 160.014 13.3557 160.1 13.5062L163.568 11.5123ZM184.33 9.91722L182.858 11.2714L182.867 11.2812L184.33 9.91722ZM185.514 21.3412L183.725 20.4468L183.719 20.4582L185.514 21.3412ZM182.634 24.4772L181.613 22.7571L181.607 22.761L181.6 22.7648L182.634 24.4772ZM172.106 23.2292L170.634 24.5833L170.643 24.5935L170.653 24.6036L172.106 23.2292ZM170.89 11.8052L169.101 10.9108L169.095 10.9222L170.89 11.8052ZM173.77 8.63722L172.749 6.91711L172.743 6.92096L172.736 6.92485L173.77 8.63722ZM175.914 12.5412L177.629 13.5702L177.634 13.5609L177.64 13.5516L175.914 12.5412ZM175.882 20.6052L174.148 21.6022L174.157 21.6183L174.167 21.6342L175.882 20.6052ZM180.522 20.6052L182.237 21.6342L182.242 21.6249L182.248 21.6156L180.522 20.6052ZM180.522 12.5092L178.788 13.5062L178.797 13.5223L178.807 13.5382L180.522 12.5092ZM178.218 9.51722C180.381 9.51722 181.838 10.1635 182.858 11.2713L185.801 8.56311C183.877 6.47094 181.26 5.51722 178.218 5.51722V9.51722ZM182.867 11.2812C183.894 12.3825 184.538 14.0525 184.538 16.5732H188.538C188.538 13.3766 187.709 10.6093 185.792 8.55329L182.867 11.2812ZM184.538 16.5732C184.538 18.134 184.245 19.4067 183.725 20.4468L187.302 22.2356C188.148 20.5451 188.538 18.6391 188.538 16.5732H184.538ZM183.719 20.4582C183.225 21.4627 182.53 22.2133 181.613 22.7571L183.654 26.1973C185.255 25.2478 186.48 23.9078 187.308 22.2242L183.719 20.4582ZM181.6 22.7648C180.727 23.2917 179.627 23.5972 178.218 23.5972V27.5972C180.222 27.5972 182.065 27.1561 183.667 26.1896L181.6 22.7648ZM178.218 23.5972C176.074 23.5972 174.603 22.9596 173.558 21.8548L170.653 24.6036C172.594 26.6562 175.198 27.5972 178.218 27.5972V23.5972ZM173.577 21.8751C172.541 20.7483 171.898 19.0602 171.898 16.5412H167.898C167.898 19.7396 168.726 22.5102 170.634 24.5833L173.577 21.8751ZM171.898 16.5412C171.898 14.9705 172.183 13.7057 172.684 12.6882L169.095 10.9222C168.273 12.5928 167.898 14.4853 167.898 16.5412H171.898ZM172.678 12.6996C173.202 11.653 173.908 10.8894 174.803 10.3496L172.736 6.92485C171.156 7.87837 169.943 9.22676 169.101 10.9108L172.678 12.6996ZM174.79 10.3573C175.692 9.82242 176.81 9.51722 178.218 9.51722V5.51722C176.212 5.51722 174.365 5.95869 172.749 6.91711L174.79 10.3573ZM178.218 9.22922C176.492 9.22922 175.063 10.0354 174.188 11.5309L177.64 13.5516C177.745 13.3721 177.827 13.316 177.863 13.2952C177.901 13.2738 177.997 13.2292 178.218 13.2292V9.22922ZM174.199 11.5122C173.402 12.8395 173.146 14.6203 173.146 16.5412H177.146C177.146 14.8355 177.401 13.9496 177.629 13.5702L174.199 11.5122ZM173.146 16.5412C173.146 18.4872 173.388 20.2801 174.148 21.6022L177.615 19.6083C177.394 19.2237 177.146 18.3073 177.146 16.5412H173.146ZM174.167 21.6342C175.062 23.1261 176.513 23.8852 178.218 23.8852V19.8852C177.971 19.8852 177.857 19.8367 177.811 19.8113C177.769 19.7883 177.693 19.7362 177.597 19.5762L174.167 21.6342ZM178.218 23.8852C179.919 23.8852 181.35 23.1111 182.237 21.6342L178.807 19.5762C178.707 19.7427 178.629 19.7956 178.59 19.8169C178.549 19.8397 178.446 19.8852 178.218 19.8852V23.8852ZM182.248 21.6156C183.031 20.2778 183.29 18.5005 183.29 16.5732H179.29C179.29 18.2726 179.036 19.1833 178.796 19.5949L182.248 21.6156ZM183.29 16.5732C183.29 14.6201 183.036 12.8123 182.237 11.4802L178.807 13.5382C179.031 13.9128 179.29 14.8144 179.29 16.5732H183.29ZM182.255 11.5123C181.382 9.9927 179.924 9.22922 178.218 9.22922V13.2292C178.465 13.2292 178.571 13.278 178.606 13.2975C178.635 13.3138 178.701 13.3557 178.788 13.5062L182.255 11.5123ZM195.753 5.02122L194.294 3.65334V3.65334L195.753 5.02122ZM195.273 8.06122H193.273V10.0612H195.273V8.06122ZM199.273 8.06122L201.25 8.36669L201.606 6.06122H199.273V8.06122ZM198.729 11.5812V13.5812H200.444L200.706 11.8867L198.729 11.5812ZM195.273 11.5812V9.58122H193.273V11.5812H195.273ZM195.273 25.0532V27.0532H197.273V25.0532H195.273ZM190.217 25.0532H188.217V27.0532H190.217V25.0532ZM190.217 11.5812H192.217V9.58122H190.217V11.5812ZM187.657 11.5812H185.657V13.5812H187.657V11.5812ZM187.657 8.06122V6.06122H185.657V8.06122H187.657ZM190.217 8.06122V10.0612H192.217V8.06122H190.217ZM191.881 2.39722L193.267 3.83889L193.268 3.83837L191.881 2.39722ZM201.353 1.85322L203.199 2.62372L203.91 0.920514L202.269 0.075273L201.353 1.85322ZM199.977 5.14922L199.083 6.93808L200.998 7.89565L201.823 5.91972L199.977 5.14922ZM197.321 2.50922C196.342 2.50922 195.157 2.73262 194.294 3.65334L197.212 6.38911C197.162 6.44303 197.111 6.48133 197.07 6.50645C197.029 6.53084 197.005 6.53877 197.006 6.53843C197.008 6.53788 197.032 6.53016 197.086 6.52278C197.14 6.5154 197.217 6.50922 197.321 6.50922V2.50922ZM194.294 3.65334C193.447 4.55645 193.273 5.77319 193.273 6.74922H197.273C197.273 6.46518 197.302 6.30883 197.32 6.24451C197.337 6.18364 197.326 6.26773 197.212 6.3891L194.294 3.65334ZM193.273 6.74922V8.06122H197.273V6.74922H193.273ZM195.273 10.0612H199.273V6.06122H195.273V10.0612ZM197.296 7.75576L196.753 11.2758L200.706 11.8867L201.25 8.36669L197.296 7.75576ZM198.729 9.58122H195.273V13.5812H198.729V9.58122ZM193.273 11.5812V25.0532H197.273V11.5812H193.273ZM195.273 23.0532H190.217V27.0532H195.273V23.0532ZM192.217 25.0532V11.5812H188.217V25.0532H192.217ZM190.217 9.58122H187.657V13.5812H190.217V9.58122ZM189.657 11.5812V8.06122H185.657V11.5812H189.657ZM187.657 10.0612H190.217V6.06122H187.657V10.0612ZM192.217 8.06122V6.55722H188.217V8.06122H192.217ZM192.217 6.55722C192.217 5.3292 192.595 4.48544 193.267 3.83889L190.495 0.955556C188.949 2.44234 188.217 4.37191 188.217 6.55722H192.217ZM193.268 3.83837C193.916 3.21509 194.963 2.76522 196.713 2.76522V-1.23478C194.282 -1.23478 192.108 -0.596642 190.494 0.95608L193.268 3.83837ZM196.713 2.76522C198.101 2.76522 199.33 3.06107 200.437 3.63117L202.269 0.075273C200.56 -0.805292 198.696 -1.23478 196.713 -1.23478V2.76522ZM199.507 1.08272L198.131 4.37872L201.823 5.91972L203.199 2.62372L199.507 1.08272ZM200.871 3.36037C199.752 2.80058 198.561 2.50922 197.321 2.50922V6.50922C197.915 6.50922 198.496 6.64453 199.083 6.93808L200.871 3.36037Z" fill="white" mask="url(#path-1-outside-1_3510_75445)"/>
</svg>
