<svg width="327" height="34" viewBox="0 0 327 34" fill="none" xmlns="http://www.w3.org/2000/svg">
<path d="M5.75183 3.87722V21.8932H14.3918L13.8478 26.0532H0.503828V3.87722H5.75183ZM30.0056 21.1252C30.0056 21.7652 30.0909 22.2346 30.2616 22.5332C30.4536 22.8319 30.7522 23.0559 31.1576 23.2052L30.1016 26.5012C29.0562 26.4159 28.2029 26.1919 27.5416 25.8292C26.8802 25.4452 26.3682 24.8479 26.0056 24.0372C24.8962 25.7439 23.1896 26.5972 20.8856 26.5972C19.2002 26.5972 17.8562 26.1066 16.8536 25.1252C15.8509 24.1439 15.3496 22.8639 15.3496 21.2852C15.3496 19.4292 16.0322 18.0106 17.3976 17.0292C18.7629 16.0479 20.7362 15.5572 23.3176 15.5572H25.0456V14.8212C25.0456 13.8186 24.8322 13.1359 24.4056 12.7732C23.9789 12.3892 23.2322 12.1972 22.1656 12.1972C21.6109 12.1972 20.9389 12.2826 20.1496 12.4532C19.3602 12.6026 18.5496 12.8159 17.7176 13.0932L16.5656 9.76522C17.6322 9.35989 18.7202 9.05056 19.8296 8.83722C20.9602 8.62389 22.0056 8.51722 22.9656 8.51722C25.3976 8.51722 27.1789 9.01855 28.3096 10.0212C29.4402 11.0239 30.0056 12.5279 30.0056 14.5332V21.1252ZM22.3576 22.9812C23.5096 22.9812 24.4056 22.4372 25.0456 21.3492V18.3412H23.7976C22.6456 18.3412 21.7816 18.5439 21.2056 18.9492C20.6509 19.3546 20.3736 19.9839 20.3736 20.8372C20.3736 21.5199 20.5442 22.0532 20.8856 22.4372C21.2482 22.7999 21.7389 22.9812 22.3576 22.9812ZM44.6888 25.2532C44.0702 25.6799 43.3448 26.0106 42.5128 26.2452C41.7022 26.4799 40.8915 26.5972 40.0808 26.5972C36.3688 26.5759 34.5128 24.5279 34.5128 20.4532V12.5812H32.1128V9.06122H34.5128V5.38122L39.5688 4.80522V9.06122H43.4728L42.9288 12.5812H39.5688V20.3892C39.5688 21.1786 39.6968 21.7439 39.9528 22.0852C40.2088 22.4266 40.6142 22.5972 41.1688 22.5972C41.7448 22.5972 42.3528 22.4159 42.9928 22.0532L44.6888 25.2532ZM60.6301 17.2212C60.6301 17.9252 60.5981 18.5332 60.5341 19.0452H50.0061C50.1767 20.4746 50.5821 21.4772 51.2221 22.0532C51.8621 22.6292 52.7474 22.9172 53.8781 22.9172C54.5607 22.9172 55.2221 22.7999 55.8621 22.5652C56.5021 22.3092 57.1954 21.9252 57.9421 21.4132L60.0221 24.2292C58.0381 25.8079 55.8301 26.5972 53.3981 26.5972C50.6461 26.5972 48.5341 25.7866 47.0621 24.1652C45.5901 22.5439 44.8541 20.3679 44.8541 17.6372C44.8541 15.9092 45.1634 14.3626 45.7821 12.9972C46.4007 11.6106 47.3074 10.5226 48.5021 9.73322C49.6967 8.92255 51.1261 8.51722 52.7901 8.51722C55.2434 8.51722 57.1634 9.28522 58.5501 10.8212C59.9367 12.3572 60.6301 14.4906 60.6301 17.2212ZM55.6701 15.7812C55.6274 13.1786 54.7101 11.8772 52.9181 11.8772C52.0434 11.8772 51.3607 12.1972 50.8701 12.8372C50.4007 13.4772 50.1127 14.5332 50.0061 16.0052H55.6701V15.7812ZM69.4543 8.51722C70.6703 8.51722 71.8117 8.69855 72.8783 9.06122C73.945 9.42389 74.8837 9.93589 75.6943 10.5972L73.8383 13.4452C72.4517 12.5706 71.0543 12.1332 69.6463 12.1332C68.985 12.1332 68.473 12.2506 68.1103 12.4852C67.769 12.6986 67.5983 13.0079 67.5983 13.4132C67.5983 13.7332 67.673 13.9999 67.8223 14.2132C67.993 14.4052 68.3237 14.6079 68.8143 14.8212C69.305 15.0346 70.0623 15.2906 71.0863 15.5892C72.857 16.1012 74.169 16.7732 75.0223 17.6052C75.897 18.4159 76.3343 19.5466 76.3343 20.9972C76.3343 22.1492 76.0037 23.1519 75.3423 24.0052C74.681 24.8372 73.7743 25.4772 72.6223 25.9252C71.4703 26.3732 70.1903 26.5972 68.7823 26.5972C67.353 26.5972 66.0197 26.3732 64.7823 25.9252C63.5663 25.4772 62.5317 24.8586 61.6783 24.0692L64.1423 21.3172C65.5717 22.4266 67.0757 22.9812 68.6543 22.9812C69.4223 22.9812 70.0197 22.8426 70.4463 22.5652C70.8943 22.2879 71.1183 21.8932 71.1183 21.3812C71.1183 20.9759 71.033 20.6559 70.8623 20.4212C70.6917 20.1866 70.361 19.9732 69.8703 19.7812C69.3797 19.5679 68.601 19.3119 67.5343 19.0132C65.849 18.5226 64.5903 17.8399 63.7583 16.9652C62.9263 16.0906 62.5103 15.0026 62.5103 13.7012C62.5103 12.7199 62.7877 11.8452 63.3423 11.0772C63.9183 10.2879 64.729 9.66922 65.7743 9.22122C66.841 8.75189 68.0677 8.51722 69.4543 8.51722ZM89.5951 25.2532C88.9764 25.6799 88.2511 26.0106 87.4191 26.2452C86.6084 26.4799 85.7977 26.5972 84.9871 26.5972C81.2751 26.5759 79.4191 24.5279 79.4191 20.4532V12.5812H77.0191V9.06122H79.4191V5.38122L84.4751 4.80522V9.06122H88.3791L87.8351 12.5812H84.4751V20.3892C84.4751 21.1786 84.6031 21.7439 84.8591 22.0852C85.1151 22.4266 85.5204 22.5972 86.0751 22.5972C86.6511 22.5972 87.2591 22.4159 87.8991 22.0532L89.5951 25.2532ZM115.965 18.6932C115.965 20.2079 115.634 21.5626 114.973 22.7572C114.333 23.9519 113.362 24.8906 112.061 25.5732C110.759 26.2559 109.17 26.5972 107.293 26.5972C104.477 26.5972 102.333 25.8826 100.861 24.4532C99.3886 23.0239 98.6526 21.1039 98.6526 18.6932V3.87722H103.901V18.4692C103.901 19.8986 104.167 20.9652 104.701 21.6692C105.255 22.3519 106.119 22.6932 107.293 22.6932C108.487 22.6932 109.351 22.3519 109.885 21.6692C110.439 20.9652 110.717 19.8986 110.717 18.4692V3.87722H115.965V18.6932ZM129.32 8.51722C131.454 8.51722 133.043 9.30655 134.088 10.8852C135.134 12.4639 135.656 14.6719 135.656 17.5092C135.656 19.2586 135.379 20.8266 134.824 22.2132C134.291 23.5786 133.512 24.6559 132.488 25.4452C131.464 26.2132 130.27 26.5972 128.904 26.5972C127.198 26.5972 125.822 26.0106 124.776 24.8372V32.6132L119.72 33.1572V9.06122H124.168L124.424 10.9492C125.086 10.1172 125.843 9.50922 126.696 9.12522C127.55 8.71989 128.424 8.51722 129.32 8.51722ZM127.368 22.8852C129.395 22.8852 130.408 21.1146 130.408 17.5732C130.408 15.5679 130.184 14.1812 129.736 13.4132C129.288 12.6239 128.616 12.2292 127.72 12.2292C127.144 12.2292 126.6 12.3999 126.088 12.7412C125.598 13.0826 125.16 13.5732 124.776 14.2132V21.3812C125.459 22.3839 126.323 22.8852 127.368 22.8852ZM154.046 2.30922V26.0532H149.566L149.31 24.0692C148.115 25.7546 146.505 26.5972 144.478 26.5972C142.366 26.5972 140.755 25.7866 139.646 24.1652C138.558 22.5439 138.014 20.3252 138.014 17.5092C138.014 15.7812 138.302 14.2346 138.878 12.8692C139.454 11.5039 140.265 10.4372 141.31 9.66922C142.377 8.90122 143.593 8.51722 144.958 8.51722C146.579 8.51722 147.923 9.05055 148.99 10.1172V1.76522L154.046 2.30922ZM146.046 22.8852C147.219 22.8852 148.201 22.2452 148.99 20.9652V13.6372C148.585 13.1466 148.169 12.7839 147.742 12.5492C147.337 12.3146 146.867 12.1972 146.334 12.1972C145.395 12.1972 144.649 12.6346 144.094 13.5092C143.539 14.3839 143.262 15.7279 143.262 17.5412C143.262 19.5252 143.497 20.9119 143.966 21.7012C144.457 22.4906 145.15 22.8852 146.046 22.8852ZM171.506 21.1252C171.506 21.7652 171.591 22.2346 171.762 22.5332C171.954 22.8319 172.252 23.0559 172.658 23.2052L171.602 26.5012C170.556 26.4159 169.703 26.1919 169.042 25.8292C168.38 25.4452 167.868 24.8479 167.506 24.0372C166.396 25.7439 164.69 26.5972 162.386 26.5972C160.7 26.5972 159.356 26.1066 158.354 25.1252C157.351 24.1439 156.85 22.8639 156.85 21.2852C156.85 19.4292 157.532 18.0106 158.898 17.0292C160.263 16.0479 162.236 15.5572 164.818 15.5572H166.546V14.8212C166.546 13.8186 166.332 13.1359 165.906 12.7732C165.479 12.3892 164.732 12.1972 163.666 12.1972C163.111 12.1972 162.439 12.2826 161.65 12.4532C160.86 12.6026 160.05 12.8159 159.218 13.0932L158.066 9.76522C159.132 9.35989 160.22 9.05056 161.33 8.83722C162.46 8.62389 163.506 8.51722 164.466 8.51722C166.898 8.51722 168.679 9.01855 169.81 10.0212C170.94 11.0239 171.506 12.5279 171.506 14.5332V21.1252ZM163.858 22.9812C165.01 22.9812 165.906 22.4372 166.546 21.3492V18.3412H165.298C164.146 18.3412 163.282 18.5439 162.706 18.9492C162.151 19.3546 161.874 19.9839 161.874 20.8372C161.874 21.5199 162.044 22.0532 162.386 22.4372C162.748 22.7999 163.239 22.9812 163.858 22.9812ZM186.189 25.2532C185.57 25.6799 184.845 26.0106 184.013 26.2452C183.202 26.4799 182.391 26.5972 181.581 26.5972C177.869 26.5759 176.013 24.5279 176.013 20.4532V12.5812H173.613V9.06122H176.013V5.38122L181.069 4.80522V9.06122H184.973L184.429 12.5812H181.069V20.3892C181.069 21.1786 181.197 21.7439 181.453 22.0852C181.709 22.4266 182.114 22.5972 182.669 22.5972C183.245 22.5972 183.853 22.4159 184.493 22.0532L186.189 25.2532ZM202.13 17.2212C202.13 17.9252 202.098 18.5332 202.034 19.0452H191.506C191.677 20.4746 192.082 21.4772 192.722 22.0532C193.362 22.6292 194.247 22.9172 195.378 22.9172C196.061 22.9172 196.722 22.7999 197.362 22.5652C198.002 22.3092 198.695 21.9252 199.442 21.4132L201.522 24.2292C199.538 25.8079 197.33 26.5972 194.898 26.5972C192.146 26.5972 190.034 25.7866 188.562 24.1652C187.09 22.5439 186.354 20.3679 186.354 17.6372C186.354 15.9092 186.663 14.3626 187.282 12.9972C187.901 11.6106 188.807 10.5226 190.002 9.73322C191.197 8.92255 192.626 8.51722 194.29 8.51722C196.743 8.51722 198.663 9.28522 200.05 10.8212C201.437 12.3572 202.13 14.4906 202.13 17.2212ZM197.17 15.7812C197.127 13.1786 196.21 11.8772 194.418 11.8772C193.543 11.8772 192.861 12.1972 192.37 12.8372C191.901 13.4772 191.613 14.5332 191.506 16.0052H197.17V15.7812ZM219.924 8.51722C222.527 8.51722 224.564 9.31722 226.036 10.9172C227.508 12.4959 228.244 14.7146 228.244 17.5732C228.244 19.3866 227.903 20.9759 227.22 22.3412C226.559 23.6852 225.599 24.7306 224.34 25.4772C223.103 26.2239 221.631 26.5972 219.924 26.5972C217.343 26.5972 215.305 25.8079 213.812 24.2292C212.34 22.6292 211.604 20.3999 211.604 17.5412C211.604 15.7279 211.935 14.1492 212.596 12.8052C213.279 11.4399 214.239 10.3839 215.476 9.63722C216.735 8.89056 218.217 8.51722 219.924 8.51722ZM219.924 12.2292C218.9 12.2292 218.132 12.6666 217.62 13.5412C217.108 14.3946 216.852 15.7279 216.852 17.5412C216.852 19.3972 217.097 20.7519 217.588 21.6052C218.1 22.4586 218.879 22.8852 219.924 22.8852C220.948 22.8852 221.716 22.4586 222.228 21.6052C222.74 20.7306 222.996 19.3866 222.996 17.5732C222.996 15.7172 222.74 14.3626 222.228 13.5092C221.737 12.6559 220.969 12.2292 219.924 12.2292ZM239.028 5.50922C238.302 5.50922 237.78 5.67989 237.46 6.02122C237.14 6.36256 236.98 6.93856 236.98 7.74922V9.06122H240.98L240.436 12.5812H236.98V26.0532H231.924V12.5812H229.364V9.06122H231.924V7.55722C231.924 5.85055 232.478 4.46389 233.588 3.39722C234.718 2.30922 236.329 1.76522 238.42 1.76522C240.105 1.76522 241.652 2.12789 243.06 2.85322L241.684 6.14922C240.83 5.72256 239.945 5.50922 239.028 5.50922ZM262.156 14.3092C263.628 14.5866 264.822 15.1306 265.74 15.9412C266.678 16.7519 267.148 17.9679 267.148 19.5892C267.148 21.9572 266.294 23.6319 264.588 24.6132C262.902 25.5732 260.534 26.0532 257.484 26.0532H250.348V3.87722H256.62C259.734 3.87722 262.113 4.32522 263.756 5.22122C265.398 6.09589 266.22 7.53589 266.22 9.54122C266.22 10.8426 265.825 11.8986 265.036 12.7092C264.268 13.4986 263.308 14.0319 262.156 14.3092ZM255.596 7.58922V12.7412H257.548C259.766 12.7412 260.876 11.8452 260.876 10.0532C260.876 9.15722 260.577 8.52789 259.98 8.16522C259.382 7.78122 258.433 7.58922 257.132 7.58922H255.596ZM257.516 22.2452C258.902 22.2452 259.948 22.0426 260.652 21.6372C261.377 21.2106 261.74 20.4319 261.74 19.3012C261.74 17.2532 260.46 16.2292 257.9 16.2292H255.596V22.2452H257.516ZM275.058 9.06122V26.0532H270.002V9.06122H275.058ZM272.498 0.101221C273.372 0.101221 274.087 0.378555 274.642 0.933222C275.218 1.46655 275.506 2.14922 275.506 2.98122C275.506 3.81322 275.218 4.50655 274.642 5.06122C274.087 5.59455 273.372 5.86122 272.498 5.86122C271.623 5.86122 270.908 5.59455 270.354 5.06122C269.799 4.50655 269.522 3.81322 269.522 2.98122C269.522 2.14922 269.799 1.46655 270.354 0.933222C270.908 0.378555 271.623 0.101221 272.498 0.101221ZM284.089 1.76522V26.0532H279.033V2.30922L284.089 1.76522ZM294.585 9.06122L289.433 16.5172L295.001 26.0532H289.305L284.249 16.7732L289.433 9.06122H294.585ZM311.099 17.2212C311.099 17.9252 311.067 18.5332 311.003 19.0452H300.475C300.645 20.4746 301.051 21.4772 301.691 22.0532C302.331 22.6292 303.216 22.9172 304.347 22.9172C305.029 22.9172 305.691 22.7999 306.331 22.5652C306.971 22.3092 307.664 21.9252 308.411 21.4132L310.491 24.2292C308.507 25.8079 306.299 26.5972 303.867 26.5972C301.115 26.5972 299.003 25.7866 297.531 24.1652C296.059 22.5439 295.323 20.3679 295.323 17.6372C295.323 15.9092 295.632 14.3626 296.251 12.9972C296.869 11.6106 297.776 10.5226 298.971 9.73322C300.165 8.92255 301.595 8.51722 303.259 8.51722C305.712 8.51722 307.632 9.28522 309.019 10.8212C310.405 12.3572 311.099 14.4906 311.099 17.2212ZM306.139 15.7812C306.096 13.1786 305.179 11.8772 303.387 11.8772C302.512 11.8772 301.829 12.1972 301.339 12.8372C300.869 13.4772 300.581 14.5332 300.475 16.0052H306.139V15.7812ZM319.923 8.51722C321.139 8.51722 322.28 8.69855 323.347 9.06122C324.414 9.42389 325.352 9.93589 326.163 10.5972L324.307 13.4452C322.92 12.5706 321.523 12.1332 320.115 12.1332C319.454 12.1332 318.942 12.2506 318.579 12.4852C318.238 12.6986 318.067 13.0079 318.067 13.4132C318.067 13.7332 318.142 13.9999 318.291 14.2132C318.462 14.4052 318.792 14.6079 319.283 14.8212C319.774 15.0346 320.531 15.2906 321.555 15.5892C323.326 16.1012 324.638 16.7732 325.491 17.6052C326.366 18.4159 326.803 19.5466 326.803 20.9972C326.803 22.1492 326.472 23.1519 325.811 24.0052C325.15 24.8372 324.243 25.4772 323.091 25.9252C321.939 26.3732 320.659 26.5972 319.251 26.5972C317.822 26.5972 316.488 26.3732 315.251 25.9252C314.035 25.4772 313 24.8586 312.147 24.0692L314.611 21.3172C316.04 22.4266 317.544 22.9812 319.123 22.9812C319.891 22.9812 320.488 22.8426 320.915 22.5652C321.363 22.2879 321.587 21.8932 321.587 21.3812C321.587 20.9759 321.502 20.6559 321.331 20.4212C321.16 20.1866 320.83 19.9732 320.339 19.7812C319.848 19.5679 319.07 19.3119 318.003 19.0132C316.318 18.5226 315.059 17.8399 314.227 16.9652C313.395 16.0906 312.979 15.0026 312.979 13.7012C312.979 12.7199 313.256 11.8452 313.811 11.0772C314.387 10.2879 315.198 9.66922 316.243 9.22122C317.31 8.75189 318.536 8.51722 319.923 8.51722Z" fill="white"/>
</svg>
