<svg width="16" height="17" viewBox="0 0 16 17" fill="none" xmlns="http://www.w3.org/2000/svg">
<path d="M13.138 3.57104L12.1953 4.51371C14.0173 6.33571 14.0173 9.41571 12.1953 11.2377L13.138 12.1804C15.4713 9.84704 15.4713 5.90438 13.138 3.57104ZM10.1953 6.51371C10.5726 6.89104 10.7813 7.37504 10.7813 7.87571C10.7813 8.37638 10.5726 8.86038 10.1953 9.23771L11.138 10.1804C11.7673 9.55171 12.1146 8.73238 12.1146 7.87571C12.1146 7.01904 11.7673 6.19971 11.138 5.57104L10.1953 6.51371ZM4.13798 4.51371L3.19531 3.57104C0.861979 5.90438 0.861979 9.84704 3.19531 12.1804L4.13798 11.2377C2.31598 9.41571 2.31598 6.33571 4.13798 4.51371Z" fill="#127384"/>
<path d="M4.86241 5.57104C4.23308 6.19971 3.88574 7.01904 3.88574 7.87571C3.88574 8.73238 4.23308 9.55171 4.86241 10.1804L5.80508 9.23771C5.42774 8.86038 5.21908 8.37638 5.21908 7.87571C5.21908 7.37504 5.42774 6.89104 5.80508 6.51371L4.86241 5.57104ZM9.33374 7.70904C9.33374 7.35542 9.19327 7.01628 8.94322 6.76624C8.69317 6.51619 8.35403 6.37571 8.00041 6.37571C7.64679 6.37571 7.30765 6.51619 7.0576 6.76624C6.80755 7.01628 6.66708 7.35542 6.66708 7.70904C6.66677 7.92911 6.72114 8.1458 6.82528 8.33966C6.92942 8.53352 7.08009 8.69847 7.26374 8.81971L6.66841 15.3757H9.33241L8.73708 8.81904C9.09708 8.58038 9.33374 8.17238 9.33374 7.70904Z" fill="#127384"/>
</svg>
