<svg width="17" height="17" viewBox="0 0 17 17" fill="none" xmlns="http://www.w3.org/2000/svg">
<path d="M8.24933 4.70907C10.6073 4.70907 12.8073 5.61107 14.4447 7.2484L15.3873 6.30573C13.4987 4.4164 10.9633 3.37573 8.24933 3.37573C5.53533 3.3764 2.99999 4.4164 1.11133 6.30573L2.05399 7.2484C3.69133 5.61107 5.89133 4.70907 8.24933 4.70907ZM12.03 10.2471C9.98066 8.19773 6.51799 8.19773 4.46866 10.2471L5.41133 11.1897C6.94933 9.65173 9.54933 9.65173 11.0873 11.1897L12.03 10.2471Z" fill="#127384"/>
<path d="M13.8756 8.23768C10.8276 5.18835 5.67495 5.18835 2.62695 8.23768L3.56962 9.18035C6.10762 6.64235 10.395 6.64235 12.933 9.18035L13.8756 8.23768Z" fill="#127384"/>
<path d="M8.24935 14.0424C8.98573 14.0424 9.58268 13.4454 9.58268 12.7091C9.58268 11.9727 8.98573 11.3757 8.24935 11.3757C7.51297 11.3757 6.91602 11.9727 6.91602 12.7091C6.91602 13.4454 7.51297 14.0424 8.24935 14.0424Z" fill="#127384"/>
</svg>
