<svg width="17" height="17" viewBox="0 0 17 17" fill="none" xmlns="http://www.w3.org/2000/svg">
<path d="M14.0872 4.70557H13.4206V6.0389H14.0872V11.3722H13.4206V12.7056H14.0872C14.8226 12.7056 15.4206 12.1076 15.4206 11.3722V6.0389C15.4206 5.30423 14.8219 4.70557 14.0872 4.70557ZM4.75391 7.37223H10.7506V10.0389H4.75391V7.37223Z" fill="#127384"/>
<path d="M12.0859 12.7056V3.37557H14.0826V2.04224H8.74927V3.37557H10.7526V4.70557H3.41927C2.68394 4.70557 2.08594 5.30357 2.08594 6.0389V11.3722C2.08594 12.1076 2.68394 12.7056 3.41927 12.7056H10.7526V14.0422H8.74927V15.3756H14.0826V14.0422H12.0859V12.7056ZM3.41927 11.3722V6.0389H10.7526V11.3722H3.41927Z" fill="#127384"/>
</svg>
