<svg width="21" height="20" viewBox="0 0 21 20" fill="none" xmlns="http://www.w3.org/2000/svg">
<path d="M16.1223 6.17697L16.132 6.16519L13.3617 3.92124L12.4891 4.99751L13.9206 6.15688C13.5655 6.37268 13.2835 6.69034 13.1113 7.06854C12.9391 7.44675 12.8847 7.86801 12.9552 8.27755C13.059 8.90018 13.4877 9.43831 14.0425 9.73958C14.6624 10.0769 15.206 10.0457 15.6894 9.87394L15.6791 14.1555C15.6799 14.2701 15.6521 14.3832 15.5983 14.4845C15.5444 14.5857 15.4661 14.6719 15.3706 14.7353C15.275 14.7987 15.1651 14.8373 15.0509 14.8475C14.9367 14.8578 14.8217 14.8394 14.7164 14.794C14.6339 14.7587 14.5591 14.7077 14.4961 14.6437C14.4321 14.5796 14.3814 14.5034 14.3468 14.4196C14.3122 14.3359 14.2945 14.2461 14.2946 14.1555L14.3105 12.7703C14.3112 12.4977 14.2579 12.2276 14.1537 11.9757C14.0494 11.7239 13.8963 11.4951 13.7031 11.3027C13.5102 11.1094 13.281 10.9559 13.0287 10.8512C12.7764 10.7465 12.506 10.6926 12.2328 10.6926H11.5402V5.15195C11.5402 4.78459 11.3943 4.43227 11.1345 4.1725C10.8748 3.91274 10.5224 3.7668 10.1551 3.7668H5.30703C4.93966 3.7668 4.58734 3.91274 4.32758 4.1725C4.06781 4.43227 3.92188 4.78459 3.92188 5.15195V14.848C3.92188 15.2154 4.06781 15.5677 4.32758 15.8275C4.58734 16.0872 4.93966 16.2332 5.30703 16.2332H10.1551C10.5224 16.2332 10.8748 16.0872 11.1345 15.8275C11.3943 15.5677 11.5402 15.2154 11.5402 14.848V12.0777H12.2328C12.327 12.0777 12.4177 12.0964 12.5036 12.1317C12.6684 12.2039 12.7998 12.3358 12.8714 12.5009C12.9073 12.5861 12.9257 12.6778 12.9254 12.7703L12.9088 14.1555C12.9088 14.4366 12.9635 14.7088 13.0722 14.9644C13.1768 15.213 13.3271 15.4353 13.5161 15.623C13.7084 15.8173 13.9374 15.9713 14.1899 16.0761C14.4423 16.1809 14.7132 16.2343 14.9865 16.2332C15.2677 16.2332 15.5392 16.1792 15.7954 16.0697C16.0434 15.9658 16.2664 15.8156 16.4541 15.6258C16.6479 15.4332 16.8017 15.2041 16.9064 14.9518C17.0112 14.6994 17.0648 14.4287 17.0642 14.1555L17.0808 7.92226C17.0801 7.57432 16.992 7.23214 16.8245 6.92717C16.657 6.6222 16.4156 6.36423 16.1223 6.17697ZM10.1551 7.22968H5.30703V5.15195H10.1551V7.22968ZM15.0031 8.61484C14.8194 8.61484 14.6433 8.54187 14.5134 8.41199C14.3835 8.2821 14.3105 8.10594 14.3105 7.92226C14.3105 7.73858 14.3835 7.56242 14.5134 7.43254C14.6433 7.30265 14.8194 7.22968 15.0031 7.22968C15.1868 7.22968 15.3629 7.30265 15.4928 7.43254C15.6227 7.56242 15.6957 7.73858 15.6957 7.92226C15.6957 8.10594 15.6227 8.2821 15.4928 8.41199C15.3629 8.54187 15.1868 8.61484 15.0031 8.61484Z" fill="white"/>
</svg>
