<svg width="21" height="20" viewBox="0 0 21 20" fill="none" xmlns="http://www.w3.org/2000/svg">
<path d="M10.5003 3.935C10.9242 3.93487 11.3338 4.08807 11.6535 4.36634C11.9732 4.6446 12.1815 5.02914 12.2398 5.44896C12.2982 5.86878 12.2027 6.29554 11.9709 6.65045C11.7392 7.00536 11.3869 7.26446 10.9791 7.37992V9.8404C10.9791 9.96739 10.9287 10.0892 10.8389 10.179C10.7491 10.2688 10.6273 10.3192 10.5003 10.3192C10.3733 10.3192 10.2515 10.2688 10.1617 10.179C10.0719 10.0892 10.0215 9.96739 10.0215 9.8404V7.37992C9.61457 7.26357 9.26335 7.0042 9.03244 6.64952C8.80153 6.29484 8.70647 5.8687 8.76473 5.44951C8.82299 5.03031 9.03067 4.64626 9.34956 4.36799C9.66844 4.08972 10.0771 3.93597 10.5003 3.935ZM11.2983 5.69066C11.2983 5.47901 11.2143 5.27603 11.0646 5.12637C10.9149 4.97671 10.712 4.89263 10.5003 4.89263C10.2887 4.89263 10.0857 4.97671 9.93601 5.12637C9.78636 5.27603 9.70228 5.47901 9.70228 5.69066C9.70228 5.90231 9.78636 6.10529 9.93601 6.25495C10.0857 6.40461 10.2887 6.48869 10.5003 6.48869C10.712 6.48869 10.9149 6.40461 11.0646 6.25495C11.2143 6.10529 11.2983 5.90231 11.2983 5.69066ZM16.2461 6.8079C16.2461 6.3846 16.0779 5.97863 15.7786 5.67932C15.4793 5.38 15.0733 5.21184 14.65 5.21184C14.2267 5.21184 13.8208 5.38 13.5215 5.67932C13.2221 5.97863 13.054 6.3846 13.054 6.8079V9.04237H11.6175V10H14.0116V6.8079C14.0116 6.63858 14.0789 6.47619 14.1986 6.35646C14.3183 6.23674 14.4807 6.16948 14.65 6.16948C14.8194 6.16948 14.9817 6.23674 15.1015 6.35646C15.2212 6.47619 15.2885 6.63858 15.2885 6.8079V14.4689C15.2885 14.6383 15.2212 14.8007 15.1015 14.9204C14.9817 15.0401 14.8194 15.1074 14.65 15.1074C14.4807 15.1074 14.3183 15.0401 14.1986 14.9204C14.0789 14.8007 14.0116 14.6383 14.0116 14.4689V11.2768H11.1387V14.4689C11.1387 14.6383 11.0715 14.8007 10.9517 14.9204C10.832 15.0401 10.6696 15.1074 10.5003 15.1074C10.331 15.1074 10.1686 15.0401 10.0489 14.9204C9.92914 14.8007 9.86188 14.6383 9.86188 14.4689V11.2768H6.03136C5.9467 11.2768 5.8655 11.2432 5.80564 11.1833C5.74578 11.1235 5.71214 11.0423 5.71214 10.9576V6.8079C5.71214 6.63858 5.77941 6.47619 5.89913 6.35646C6.01886 6.23674 6.18125 6.16948 6.35057 6.16948C6.51989 6.16948 6.68227 6.23674 6.802 6.35646C6.92173 6.47619 6.98899 6.63858 6.98899 6.8079V10H9.38307V9.04237H7.94662V6.8079C7.94662 6.3846 7.77846 5.97863 7.47915 5.67932C7.17983 5.38 6.77387 5.21184 6.35057 5.21184C5.92727 5.21184 5.52131 5.38 5.22199 5.67932C4.92267 5.97863 4.75451 6.3846 4.75451 6.8079V10.9576C4.75451 11.2963 4.88904 11.621 5.12849 11.8605C5.36795 12.1 5.69272 12.2345 6.03136 12.2345H8.90425V14.4689C8.90425 14.8922 9.07241 15.2982 9.37172 15.5975C9.67104 15.8968 10.077 16.065 10.5003 16.065C10.9236 16.065 11.3296 15.8968 11.6289 15.5975C11.9282 15.2982 12.0964 14.8922 12.0964 14.4689V12.2345H13.054V14.4689C13.054 14.8922 13.2221 15.2982 13.5215 15.5975C13.8208 15.8968 14.2267 16.065 14.65 16.065C15.0733 16.065 15.4793 15.8968 15.7786 15.5975C16.0779 15.2982 16.2461 14.8922 16.2461 14.4689V6.8079Z" fill="white"/>
</svg>
