<svg width="21" height="20" viewBox="0 0 21 20" fill="none" xmlns="http://www.w3.org/2000/svg">
<path d="M4.16594 9.3665H6.80763L4.75509 7.31396L5.64833 6.41439L8.60044 9.3665H9.86744V8.0995L6.91533 5.14739L7.8149 4.25415L9.86744 6.30669V3.665H11.1344V6.30669L13.187 4.25415L14.0865 5.14739L11.1344 8.0995V9.3665H12.4014L15.3535 6.41439L16.2468 7.31396L14.1942 9.3665H16.8359V10.6335H14.1942L16.2468 12.686L15.3535 13.5856L12.4014 10.6335H11.1344V11.9005L14.0865 14.8526L13.187 15.7458L11.1344 13.6933V16.335H9.86744V13.6933L7.8149 15.7458L6.91533 14.8526L9.86744 11.9005V10.6335H8.60044L5.64833 13.5856L4.75509 12.686L6.80763 10.6335H4.16594V9.3665Z" fill="white"/>
</svg>
