<svg width="14" height="13" viewBox="0 0 14 13" fill="none" xmlns="http://www.w3.org/2000/svg">
<path d="M12.5339 2.41017L12.5436 2.39839L9.77332 0.154445L8.90067 1.23071L10.3322 2.39008C9.9771 2.60588 9.69512 2.92354 9.52293 3.30174C9.35075 3.67995 9.29634 4.10121 9.36678 4.51075C9.47066 5.13338 9.89937 5.67151 10.4541 5.97278C11.074 6.31007 11.6177 6.2789 12.1011 6.10714L12.0907 10.3887C12.0915 10.5033 12.0637 10.6164 12.0099 10.7177C11.956 10.8189 11.8778 10.9051 11.7822 10.9685C11.6866 11.0319 11.5768 11.0705 11.4625 11.0807C11.3483 11.091 11.2333 11.0726 11.128 11.0272C11.0455 10.9919 10.9707 10.9409 10.9078 10.8769C10.8437 10.8128 10.793 10.7366 10.7584 10.6528C10.7238 10.5691 10.7061 10.4793 10.7062 10.3887L10.7221 9.0035C10.7228 8.73089 10.6695 8.46084 10.5653 8.20895C10.461 7.95705 10.3079 7.72831 10.1148 7.53593C9.92182 7.34256 9.69264 7.18914 9.44034 7.08445C9.18805 6.97975 8.91758 6.92583 8.64442 6.92577H7.95184V1.38515C7.95184 1.01779 7.80591 0.665469 7.54614 0.405702C7.28637 0.145935 6.93405 0 6.56669 0H1.71865C1.35128 0 0.998965 0.145935 0.739198 0.405702C0.479431 0.665469 0.333496 1.01779 0.333496 1.38515V11.0812C0.333496 11.4486 0.479431 11.8009 0.739198 12.0607C0.998965 12.3204 1.35128 12.4664 1.71865 12.4664H6.56669C6.93405 12.4664 7.28637 12.3204 7.54614 12.0607C7.80591 11.8009 7.95184 11.4486 7.95184 11.0812V8.31092H8.64442C8.73861 8.31092 8.82934 8.32962 8.91522 8.36494C9.08004 8.4371 9.21144 8.56899 9.28298 8.73409C9.3189 8.81935 9.33728 8.91098 9.337 9.0035L9.32037 10.3887C9.32037 10.6698 9.37509 10.942 9.48382 11.1976C9.5884 11.4462 9.73869 11.6685 9.92776 11.8562C10.12 12.0505 10.3491 12.2045 10.6015 12.3093C10.854 12.4141 11.1248 12.4675 11.3981 12.4664C11.6793 12.4664 11.9508 12.4124 12.207 12.3029C12.455 12.199 12.678 12.0488 12.8657 11.859C13.0596 11.6664 13.2133 11.4373 13.3181 11.185C13.4228 10.9326 13.4764 10.6619 13.4758 10.3887L13.4925 4.15546C13.4918 3.80752 13.4036 3.46534 13.2361 3.16037C13.0686 2.8554 12.8272 2.59743 12.5339 2.41017ZM6.56669 3.46288H1.71865V1.38515H6.56669V3.46288ZM11.4147 4.84804C11.231 4.84804 11.0549 4.77507 10.925 4.64519C10.7951 4.5153 10.7221 4.33914 10.7221 4.15546C10.7221 3.97178 10.7951 3.79562 10.925 3.66574C11.0549 3.53585 11.231 3.46288 11.4147 3.46288C11.5984 3.46288 11.7746 3.53585 11.9045 3.66574C12.0343 3.79562 12.1073 3.97178 12.1073 4.15546C12.1073 4.33914 12.0343 4.5153 11.9045 4.64519C11.7746 4.77507 11.5984 4.84804 11.4147 4.84804Z" fill="#0A152F"/>
</svg>
