<svg width="15" height="16" viewBox="0 0 15 16" fill="none" xmlns="http://www.w3.org/2000/svg">
<path d="M7.33369 0.751221C3.33016 0.751221 0.0848637 3.99652 0.0848637 8.00005C0.0848637 12.0036 3.33016 15.2489 7.33369 15.2489C11.3372 15.2489 14.5825 12.0036 14.5825 8.00005C14.5825 3.99652 11.3372 0.751221 7.33369 0.751221ZM10.2332 8.72493L13.0878 8.72566C12.9263 10.0031 12.3445 11.1904 11.434 12.1008C10.5235 13.0112 9.336 13.5929 8.05857 13.7542V10.8996C8.63533 10.8996 9.18846 10.6705 9.59628 10.2626C10.0041 9.85481 10.2332 9.30168 10.2332 8.72493ZM1.57957 8.72566L4.43416 8.72493C4.43416 9.30168 4.66327 9.85481 5.0711 10.2626C5.47893 10.6705 6.03206 10.8996 6.60881 10.8996L6.60808 13.7542C5.33079 13.5927 4.14349 13.011 3.23312 12.1006C2.32275 11.1903 1.74104 10.0029 1.57957 8.72566ZM7.33369 2.20099C8.74621 2.20101 10.1102 2.71651 11.1696 3.65075C12.229 4.585 12.9111 5.87375 13.0878 7.27517H10.2332C10.2332 7.08291 10.1569 6.89854 10.0209 6.7626C9.88497 6.62665 9.70059 6.55028 9.50834 6.55028H5.15904C4.96679 6.55028 4.78242 6.62665 4.64647 6.7626C4.51053 6.89854 4.43416 7.08291 4.43416 7.27517H1.57957C1.75629 5.87375 2.43837 4.585 3.4978 3.65075C4.55722 2.71651 5.92118 2.20101 7.33369 2.20099Z" fill="#0A152F"/>
</svg>
