<svg width="32" height="20" viewBox="0 0 32 20" fill="none" xmlns="http://www.w3.org/2000/svg">
<g clip-path="url(#clip0_5716_108842)">
<path d="M9.12149 7.40045C9.12149 7.79144 9.1632 8.10845 9.23621 8.34094C9.31964 8.57342 9.42394 8.82703 9.56995 9.10178C9.6221 9.18632 9.64295 9.27086 9.64295 9.34483C9.64295 9.4505 9.58038 9.55617 9.4448 9.66185L8.78775 10.1057C8.69388 10.1691 8.60002 10.2008 8.51658 10.2008C8.41229 10.2008 8.308 10.1479 8.2037 10.0528C8.05769 9.89433 7.93254 9.72525 7.82825 9.55617C7.72395 9.37653 7.61966 9.17575 7.50493 8.9327C6.69144 9.9049 5.66937 10.391 4.4387 10.391C3.56263 10.391 2.86387 10.1374 2.35283 9.63015C1.84179 9.12292 1.58105 8.44661 1.58105 7.60122C1.58105 6.703 1.89394 5.97386 2.53013 5.42436C3.16632 4.87486 4.0111 4.60011 5.08532 4.60011C5.43992 4.60011 5.80495 4.63181 6.19083 4.68465C6.57672 4.73749 6.97304 4.82203 7.39021 4.91713V4.14572C7.39021 3.3426 7.22334 2.78254 6.90003 2.45495C6.56629 2.12736 6.00311 1.96885 5.20004 1.96885C4.83502 1.96885 4.45956 2.01112 4.07367 2.10623C3.68779 2.20133 3.31233 2.31758 2.9473 2.46552C2.78043 2.53949 2.65528 2.58176 2.58227 2.60289C2.50927 2.62403 2.45712 2.63459 2.4154 2.63459C2.26939 2.63459 2.19639 2.52892 2.19639 2.30701V1.78921C2.19639 1.62013 2.21725 1.49333 2.26939 1.41935C2.32154 1.34538 2.4154 1.27141 2.56142 1.19744C2.92644 1.00723 3.36448 0.848721 3.87551 0.721913C4.38655 0.584538 4.92888 0.521135 5.5025 0.521135C6.74359 0.521135 7.65095 0.806452 8.23499 1.37709C8.80861 1.94772 9.10063 2.81424 9.10063 3.97664V7.40045H9.12149ZM4.88716 9.00667C5.23133 9.00667 5.58593 8.94327 5.96139 8.81646C6.33685 8.68966 6.67059 8.45718 6.95218 8.14016C7.11905 7.93938 7.2442 7.71746 7.30678 7.46385C7.36935 7.21023 7.41107 6.90378 7.41107 6.54449V6.10067C7.10862 6.0267 6.78531 5.96329 6.45157 5.92102C6.11783 5.87876 5.79452 5.85762 5.47121 5.85762C4.77244 5.85762 4.2614 5.995 3.91723 6.28031C3.57306 6.56563 3.40619 6.96719 3.40619 7.49555C3.40619 7.99221 3.53135 8.36207 3.79208 8.61569C4.04238 8.87987 4.40741 9.00667 4.88716 9.00667ZM13.2619 10.1479C13.0742 10.1479 12.9491 10.1162 12.8656 10.0423C12.7822 9.97887 12.7092 9.83092 12.6466 9.63015L10.1957 1.46162C10.1331 1.25028 10.1018 1.1129 10.1018 1.03893C10.1018 0.869855 10.1853 0.77475 10.3522 0.77475H11.3742C11.5724 0.77475 11.708 0.806452 11.781 0.880423C11.8644 0.943826 11.927 1.09177 11.9896 1.29255L13.7417 8.2881L15.3687 1.29255C15.4208 1.0812 15.4834 0.943826 15.5668 0.880423C15.6503 0.817019 15.7963 0.77475 15.984 0.77475H16.8184C17.0165 0.77475 17.1521 0.806452 17.2355 0.880423C17.319 0.943826 17.392 1.09177 17.4337 1.29255L19.0815 8.37264L20.8858 1.29255C20.9484 1.0812 21.0214 0.943826 21.0944 0.880423C21.1778 0.817019 21.3134 0.77475 21.5011 0.77475H22.4711C22.6379 0.77475 22.7318 0.859288 22.7318 1.03893C22.7318 1.09177 22.7214 1.14461 22.7109 1.20801C22.7005 1.27141 22.6797 1.35595 22.6379 1.47219L20.1245 9.64071C20.0619 9.85206 19.9889 9.98943 19.9055 10.0528C19.822 10.1162 19.6864 10.1585 19.5091 10.1585H18.6122C18.414 10.1585 18.2785 10.1268 18.195 10.0528C18.1116 9.97887 18.0386 9.84149 17.9969 9.63015L16.3803 2.81424L14.7742 9.61958C14.7221 9.83092 14.6595 9.9683 14.576 10.0423C14.4926 10.1162 14.3466 10.1479 14.1589 10.1479H13.2619ZM26.6637 10.4333C26.1214 10.4333 25.579 10.3699 25.0576 10.243C24.5361 10.1162 24.1293 9.97887 23.8582 9.82036C23.6913 9.72525 23.5766 9.61958 23.5349 9.52447C23.4932 9.42937 23.4723 9.32369 23.4723 9.22859V8.68966C23.4723 8.46774 23.5557 8.36207 23.7122 8.36207C23.7747 8.36207 23.8373 8.37264 23.8999 8.39377C23.9625 8.41491 24.0563 8.45718 24.1606 8.49944C24.5152 8.65795 24.9011 8.78476 25.3079 8.8693C25.725 8.95384 26.1318 8.99611 26.549 8.99611C27.206 8.99611 27.717 8.87987 28.0716 8.64739C28.4262 8.41491 28.614 8.07675 28.614 7.64349C28.614 7.34761 28.5201 7.10456 28.3324 6.90378C28.1446 6.703 27.7901 6.52336 27.279 6.35428L25.7668 5.87875C25.0054 5.63571 24.4422 5.27642 24.0981 4.80089C23.7539 4.33593 23.5766 3.81813 23.5766 3.26863C23.5766 2.82481 23.6705 2.43382 23.8582 2.09566C24.0459 1.75751 24.2962 1.46162 24.6091 1.22914C24.922 0.986096 25.2766 0.806452 25.6937 0.679644C26.1109 0.552836 26.549 0.5 27.0078 0.5C27.2373 0.5 27.4772 0.510567 27.7066 0.542269C27.9465 0.573971 28.1655 0.61624 28.3845 0.658509C28.5931 0.711346 28.7913 0.764182 28.979 0.827586C29.1667 0.89099 29.3127 0.954394 29.417 1.0178C29.563 1.10234 29.6673 1.18687 29.7299 1.28198C29.7925 1.36652 29.8238 1.48276 29.8238 1.6307V2.12736C29.8238 2.34928 29.7403 2.46552 29.5839 2.46552C29.5005 2.46552 29.3649 2.42325 29.1876 2.33871C28.5931 2.06396 27.9256 1.92659 27.1851 1.92659C26.5907 1.92659 26.1214 2.02169 25.798 2.22247C25.4747 2.42325 25.3079 2.7297 25.3079 3.16296C25.3079 3.45884 25.4122 3.71246 25.6207 3.91324C25.8293 4.11402 26.2152 4.31479 26.768 4.49444L28.2489 4.96997C28.9999 5.21302 29.5422 5.55117 29.8655 5.98443C30.1888 6.41769 30.3452 6.91435 30.3452 7.46385C30.3452 7.91824 30.2514 8.33037 30.0741 8.68966C29.8864 9.04894 29.636 9.36596 29.3127 9.61958C28.9894 9.88376 28.6035 10.074 28.1551 10.2113C27.6858 10.3593 27.1956 10.4333 26.6637 10.4333Z" fill="#252F3E"/>
<path fill-rule="evenodd" clip-rule="evenodd" d="M28.6355 15.5677C25.2043 18.1355 20.219 19.4987 15.9325 19.4987C9.92523 19.4987 4.51239 17.2479 0.424077 13.507C0.100767 13.2112 0.392789 12.8096 0.778676 13.0421C5.20073 15.6416 10.6553 17.2162 16.2976 17.2162C20.1043 17.2162 24.2865 16.4131 28.1349 14.7646C28.7085 14.5004 29.1987 15.145 28.6355 15.5677Z" fill="#FF9900"/>
<path fill-rule="evenodd" clip-rule="evenodd" d="M30.0639 13.9191C29.6259 13.3485 27.1646 13.6443 26.0486 13.7817C25.7149 13.824 25.6627 13.5281 25.9652 13.3062C27.9259 11.9113 31.1486 12.3129 31.524 12.7778C31.8995 13.2534 31.4197 16.5187 29.5842 18.0826C29.3026 18.3257 29.0314 18.1989 29.1566 17.8818C29.5737 16.8357 30.502 14.4792 30.0639 13.9191Z" fill="#FF9900"/>
</g>
<defs>
<clipPath id="clip0_5716_108842">
<rect width="32" height="19" fill="white" transform="translate(0 0.5)"/>
</clipPath>
</defs>
</svg>
