<svg width="62" height="9" viewBox="0 0 62 9" fill="none" xmlns="http://www.w3.org/2000/svg">
<path d="M2.0086 7.02378H3.44877C4.5605 7.02378 5.1163 6.65738 5.1163 5.94996C5.1163 5.25526 4.52256 4.87624 3.36036 4.87624H2.0086V7.02378ZM2.0086 1.84433V3.84037H3.27193C4.21938 3.84037 4.71204 3.48657 4.71204 2.84233C4.71204 2.18535 4.20677 1.84433 3.25927 1.84433H2.0086ZM0 8.09766V7.02378H0.846409V1.84433H0V0.770468H3.38564C4.93944 0.770468 5.88692 1.49056 5.88692 2.74125C5.88692 3.56239 5.4069 4.06773 4.80054 4.30771C5.67217 4.54778 6.29118 5.16679 6.29118 6.01314C6.29118 7.35223 5.2553 8.09766 3.56243 8.09766H0Z" fill="black"/>
<path d="M12.4266 4.28248C12.3003 3.85299 11.9845 3.60023 11.5676 3.60023C10.5949 3.60023 9.67269 4.32032 9.67269 5.63414V7.02378H11.5424V8.09766H7.37354V7.02378H8.56095V3.78975H7.62619V2.71592H9.66004V3.62549C10.0012 2.99384 10.696 2.53912 11.6181 2.53912C12.6541 2.53912 13.2983 3.1329 13.4878 3.97926L12.4266 4.28248Z" fill="black"/>
<path d="M18.1106 5.87299C17.7569 5.74666 17.2263 5.64562 16.7336 5.64562C16.0261 5.64562 15.3439 5.87299 15.3439 6.51732C15.3439 6.99727 15.7734 7.22479 16.3672 7.22479C17.1884 7.22479 18.1106 6.78253 18.1106 6.02464V5.87299ZM18.1106 4.91292V4.60973C18.1106 3.8517 17.5042 3.53587 16.8473 3.53587C16.2283 3.53587 15.6977 3.78863 15.2681 4.18011L14.5354 3.38437C15.0408 2.91687 15.7609 2.48738 16.8473 2.48738C18.199 2.48738 19.2476 3.20747 19.2476 4.57176V6.97204H20.0308V8.04591H18.1106V7.47738C17.8201 7.94482 17.0368 8.22266 16.2662 8.22266C15.1544 8.22266 14.1943 7.65428 14.1943 6.52993C14.1943 5.20351 15.4956 4.69817 16.683 4.69817C17.2642 4.69817 17.7442 4.81188 18.1106 4.91292Z" fill="black"/>
<path d="M24.7061 1.6422H23.4554V-4.19617e-05H24.7061V1.6422ZM26.7779 7.02378V8.09766H21.3457V7.02378H23.5944V3.78975H21.8763V2.71592H24.7061V7.02378H26.7779Z" fill="black"/>
<path d="M28.127 7.02378H28.948V3.78975H28.1773V2.71592H30.0471V3.41075C30.3755 2.88021 31.0577 2.53912 31.8914 2.53912C33.0916 2.53912 33.9507 3.29709 33.9507 4.52245V7.02378H34.7719V8.09766H31.9799V7.02378H32.839V4.82563C32.839 3.89083 32.2705 3.62549 31.7526 3.62549C30.9061 3.62549 30.0598 4.25725 30.0598 5.22987V7.02378H30.9187V8.09766H28.127V7.02378Z" fill="black"/>
<path d="M36.2933 3.73801H34.8911V2.66418H36.2933V0.71873H37.405V2.66418H40.0201V3.73801H37.405V5.99926C37.405 6.83315 37.9861 7.17417 38.6558 7.17417C39.2872 7.17417 39.8181 6.82054 40.2095 6.4289L40.955 7.1994C40.4624 7.73008 39.7042 8.22266 38.6558 8.22266C37.3038 8.22266 36.2933 7.47738 36.2933 6.03727V3.73801Z" fill="black"/>
<path d="M47.0258 4.28248C46.8993 3.85299 46.5838 3.60023 46.1667 3.60023C45.1942 3.60023 44.2715 4.32032 44.2715 5.63414V7.02378H46.1414V8.09766H41.9727V7.02378H43.1602V3.78975H42.2253V2.71592H44.2592V3.62549C44.6004 2.99384 45.295 2.53912 46.2173 2.53912C47.2531 2.53912 47.8974 3.1329 48.0868 3.97926L47.0258 4.28248Z" fill="black"/>
<path d="M50.0165 4.79925H53.3262C53.1621 4.0286 52.4798 3.51065 51.722 3.51065C50.8629 3.51065 50.2059 4.04122 50.0165 4.79925ZM54.5011 7.22479C53.9453 7.80578 52.9601 8.22266 51.8611 8.22266C50.0545 8.22266 48.791 7.00989 48.791 5.35503C48.791 3.70016 50.0165 2.48738 51.722 2.48738C53.4148 2.48738 54.6023 3.78863 54.6023 5.55714V5.74666H49.9663C50.1556 6.64364 50.9009 7.18678 51.8737 7.18678C52.6822 7.18678 53.3768 6.85838 53.7559 6.44152L54.5011 7.22479Z" fill="black"/>
<path d="M56.9242 4.79925H60.2339C60.0699 4.0286 59.3875 3.51065 58.6293 3.51065C57.7706 3.51065 57.1136 4.04122 56.9242 4.79925ZM61.4088 7.22479C60.853 7.80578 59.8675 8.22266 58.7685 8.22266C56.9622 8.22266 55.6987 7.00989 55.6987 5.35503C55.6987 3.70016 56.9242 2.48738 58.6293 2.48738C60.3225 2.48738 61.51 3.78863 61.51 5.55714V5.74666H56.8736C57.063 6.64364 57.8086 7.18678 58.7811 7.18678C59.5896 7.18678 60.2845 6.85838 60.6636 6.44152L61.4088 7.22479Z" fill="black"/>
</svg>
