<svg width="65" height="11" viewBox="0 0 65 11" fill="none" xmlns="http://www.w3.org/2000/svg">
<path d="M0.70835 8.87688C0.317513 8.87688 0 8.55148 0 8.14936V2.85642C0 2.45501 0.317513 2.12891 0.70835 2.12891C1.09919 2.12891 1.4167 2.45501 1.4167 2.85642V8.14936C1.4167 8.55148 1.09919 8.87688 0.70835 8.87688Z" fill="#9DDCF9"/>
<path d="M9.20835 8.87652C8.81682 8.87652 8.5 8.55113 8.5 8.14901V2.86033C8.5 2.45891 8.81682 2.13281 9.20835 2.13281C9.59988 2.13281 9.9167 2.45891 9.9167 2.86033V8.14901C9.9167 8.55113 9.59988 8.87652 9.20835 8.87652Z" fill="#0EAEDD"/>
<mask id="mask0_6319_285679" style="mask-type:luminance" maskUnits="userSpaceOnUse" x="4" y="0" width="2" height="11">
<path d="M4.25 0H5.6667V11.0001H4.25V0Z" fill="white"/>
</mask>
<g mask="url(#mask0_6319_285679)">
<path d="M4.95835 11.0004C4.56682 11.0004 4.25 10.6743 4.25 10.2729V0.739232C4.25 0.337111 4.56682 0.0117188 4.95835 0.0117188C5.34988 0.0117188 5.6667 0.337111 5.6667 0.739232V10.2729C5.6667 10.6743 5.34988 11.0004 4.95835 11.0004Z" fill="#0256A7"/>
</g>
<path d="M27.0923 2.60456C27.0923 2.3424 27.2991 2.11719 27.5551 2.11719C27.8228 2.11719 28.0303 2.32962 28.0303 2.60456V8.30247C28.0303 8.57742 27.8352 8.78985 27.5675 8.78985C27.2991 8.78985 27.0923 8.57742 27.0923 8.30247" fill="#002855"/>
<path d="M35.9593 8.30388C35.9593 8.57883 35.7525 8.79126 35.4966 8.79126C35.2289 8.79126 35.0213 8.57883 35.0213 8.30388V7.60976C34.5094 8.38559 33.7665 8.86657 32.6092 8.86657C31.0991 8.86657 29.6001 7.64102 29.6001 5.5139V5.48832C29.6001 3.37399 31.0991 2.12286 32.6092 2.12286C33.7789 2.12286 34.5336 2.59177 35.0213 3.31715V0.488798C35.0213 0.213139 35.2157 0 35.4848 0C35.7525 0 35.9593 0.213139 35.9593 0.488798V8.30388ZM30.563 5.47624V5.50111C30.563 7.02718 31.5986 8.00336 32.7801 8.00336C33.9498 8.00336 35.058 6.99024 35.058 5.50111V5.47624C35.058 3.98711 33.9498 2.98607 32.7801 2.98607C31.5619 2.98607 30.563 3.91252 30.563 5.47624Z" fill="#002855"/>
<mask id="mask1_6319_285679" style="mask-type:luminance" maskUnits="userSpaceOnUse" x="60" y="2" width="5" height="7">
<path d="M60.0327 2H65.0002V8.91138H60.0327V2Z" fill="white"/>
</mask>
<g mask="url(#mask1_6319_285679)">
<path d="M60.3337 8.03781C60.2487 7.97529 60.1636 7.85025 60.1636 7.68756C60.1636 7.46234 60.3462 7.27407 60.5779 7.27407C60.663 7.27407 60.7481 7.29964 60.8097 7.35009C61.4551 7.79981 62.1247 8.03781 62.8067 8.03781C63.5621 8.03781 64.1107 7.63782 64.1107 7.01191V6.98704C64.1107 6.33626 63.3678 6.08617 62.539 5.84817C61.5526 5.56043 60.4562 5.21018 60.4562 4.02157V3.99671C60.4562 2.8827 61.3575 2.14453 62.5999 2.14453C63.2702 2.14453 64.0014 2.35767 64.6101 2.69514C64.7319 2.77045 64.8412 2.90828 64.8412 3.09584C64.8412 3.32106 64.6586 3.50862 64.4275 3.50862C64.3417 3.50862 64.2691 3.48375 64.22 3.45889C63.6846 3.14557 63.1118 2.95801 62.5757 2.95801C61.8328 2.95801 61.3575 3.35871 61.3575 3.89653V3.9214C61.3575 4.53453 62.1371 4.77182 62.9776 5.03469C63.9523 5.33522 64.9996 5.72313 64.9996 6.88687V6.91173C64.9996 8.13799 64.0132 8.85129 62.7583 8.85129C61.9303 8.85129 61.0165 8.53798 60.3337 8.03781Z" fill="#002855"/>
</g>
<path d="M58.811 4.8443C58.811 3.38856 57.5679 2.12109 56.0696 2.12109C54.5539 2.12109 53.3247 3.38358 53.3247 4.94021V8.2737C53.3247 8.56143 53.5412 8.78381 53.8214 8.78381C54.1015 8.78381 54.3049 8.56143 54.3049 8.2737L54.3042 6.77675V4.84358C54.3042 3.84396 55.0935 3.03262 56.0675 3.03262C57.0415 3.03262 57.8308 3.84396 57.8308 4.84358V8.2737C57.8308 8.56143 58.0473 8.78381 58.3143 8.78381C58.5944 8.78381 58.811 8.56143 58.811 8.2737C58.811 8.2737 58.82 5.15761 58.811 4.8443Z" fill="#002855"/>
<path d="M48.5969 8.00014C47.7439 8.00014 47.0716 7.62644 47.0716 6.81296V6.78809C47.0716 5.97461 47.7294 5.44887 48.9109 5.44887C49.6781 5.44887 50.7613 5.70179 50.762 5.72453V5.72595C50.762 6.91171 49.6836 8.00014 48.5969 8.00014ZM51.6516 4.77393H51.6496C51.5645 3.38498 50.3608 2.20703 48.9165 2.20703H48.4966C48.251 2.20703 48.0525 2.41093 48.0525 2.66315C48.0525 2.91465 48.251 3.11855 48.4966 3.11855H48.9144C49.8884 3.11855 50.7503 3.9299 50.7503 4.92952V5.01123C50.19 4.84853 49.6172 4.73628 48.8134 4.73628C47.2175 4.73628 46.1211 5.46166 46.1211 6.82575V6.85061C46.1211 8.17704 47.2597 8.86477 48.4288 8.86477C49.4913 8.86477 50.3283 8.30564 50.762 7.58594V8.32695C50.762 8.57917 50.9613 8.78378 51.2068 8.78378C51.4524 8.78378 51.6516 8.57917 51.6516 8.32695" fill="#002855"/>
<path d="M45.9438 2.66315C45.9438 2.41093 45.7446 2.20703 45.4997 2.20703H45.196C43.6804 2.20703 42.4512 3.46952 42.4512 5.02614V8.27509C42.4512 8.56283 42.6677 8.7852 42.9478 8.7852C43.228 8.7852 43.4314 8.56283 43.4314 8.27509L43.4307 6.77814V4.92952C43.4307 3.9299 44.2207 3.11855 45.194 3.11855C45.1946 3.11855 45.1953 3.11855 45.1967 3.11855V3.11926H45.4997C45.7446 3.11926 45.9438 2.91536 45.9438 2.66315Z" fill="#002855"/>
<path d="M40.8948 2.64187C40.8948 2.4067 40.7087 2.2163 40.4804 2.2163H38.8355V0.518296C38.8355 0.251873 38.6238 0.00605261 38.3644 0.00392121C38.0946 0.00178982 37.8975 0.227717 37.8975 0.492009V7.01689C37.8975 8.33054 38.6646 8.84349 39.6759 8.84349C40.0419 8.84349 40.3338 8.78097 40.6015 8.66872C40.7606 8.60549 40.8699 8.46837 40.8699 8.29288C40.8699 8.06767 40.6873 7.88011 40.468 7.88011C40.3947 7.88011 40.2238 7.96749 39.8952 7.96749C39.2623 7.96749 38.8355 7.67976 38.8355 6.89185V3.06743H40.4804C40.7087 3.06743 40.8948 2.87703 40.8948 2.64187Z" fill="#002855"/>
<path d="M22.5224 2.11719C21.6238 2.11719 20.8318 2.58041 20.3579 3.28732C19.8876 2.58396 19.1052 2.12145 18.2101 2.12145C16.7595 2.12145 15.5835 3.32924 15.5835 4.81908V8.30247C15.5835 8.57742 15.7903 8.78985 16.058 8.78985C16.3264 8.78985 16.5215 8.57742 16.5215 8.30247L16.5208 4.72672C16.5208 3.76972 17.2762 2.9939 18.2087 2.9939C19.1405 2.9939 19.8959 3.76972 19.8959 4.72672L19.8952 7.90319H19.8959C19.8959 7.9039 19.8952 7.9039 19.8952 7.90461C19.8952 8.17104 20.1055 8.38631 20.3642 8.38631C20.6236 8.38631 20.8339 8.17104 20.8339 7.90461L20.8325 4.72245C20.8325 3.76546 21.5886 2.98964 22.5203 2.98964C23.4521 2.98964 24.2082 3.76546 24.2082 4.72245V8.2975C24.2082 8.57316 24.415 8.78559 24.6703 8.78559C24.9387 8.78559 25.1455 8.57316 25.1455 8.2975L25.149 4.81908C25.149 3.28306 23.9128 2.11719 22.5224 2.11719Z" fill="#002855"/>
</svg>
