<svg width="26" height="30" viewBox="0 0 26 30" fill="none" xmlns="http://www.w3.org/2000/svg">
<g clip-path="url(#clip0_5574_112804)">
<path d="M7.48588 28.1301L7.98876 24.9359L6.86857 24.9099H1.51953L5.23684 1.33972C5.24838 1.26857 5.28588 1.20222 5.34069 1.15511C5.39549 1.10799 5.46569 1.08203 5.53876 1.08203H14.558C17.5523 1.08203 19.6186 1.70511 20.6974 2.93492C21.2032 3.51184 21.5253 4.11472 21.6811 4.77819C21.8446 5.47434 21.8474 6.30607 21.6878 7.32049L21.6763 7.39453V8.04453L22.1821 8.33107C22.608 8.55703 22.9465 8.81569 23.2061 9.11184C23.6388 9.60511 23.9186 10.232 24.0369 10.9753C24.159 11.7397 24.1186 12.6493 23.9186 13.6791C23.6878 14.8638 23.3148 15.8955 22.8109 16.7397C22.3474 17.5176 21.7571 18.1628 21.0561 18.6628C20.3869 19.1378 19.5917 19.4984 18.6926 19.7291C17.8215 19.9561 16.8282 20.0705 15.7388 20.0705H15.0369C14.5349 20.0705 14.0474 20.2513 13.6648 20.5753C13.2811 20.9061 13.0273 21.358 12.9494 21.8522L12.8965 22.1397L12.008 27.7695L11.9676 27.9763C11.9571 28.0416 11.9388 28.0743 11.9119 28.0964C11.8878 28.1166 11.8532 28.1301 11.8196 28.1301H7.48588Z" fill="#253B80"/>
<path d="M22.6624 7.46875C22.6354 7.64087 22.6047 7.81683 22.5701 7.9976C21.3806 14.1043 17.3114 16.214 12.1143 16.214H9.46816C8.83258 16.214 8.29701 16.6755 8.19797 17.3024L6.84316 25.8947L6.45951 28.3303C6.39508 28.7418 6.71239 29.113 7.12777 29.113H11.821C12.3768 29.113 12.8489 28.7091 12.9364 28.1611L12.9826 27.9226L13.8662 22.3149L13.9229 22.0072C14.0095 21.4572 14.4826 21.0534 15.0383 21.0534H15.7403C20.2874 21.0534 23.847 19.2072 24.8874 13.8649C25.322 11.6332 25.097 9.76972 23.947 8.45913C23.5989 8.06394 23.1672 7.73606 22.6624 7.46875Z" fill="#179BD7"/>
<path d="M21.4175 6.9738C21.2357 6.92091 21.0482 6.87284 20.8559 6.82957C20.6627 6.78726 20.4646 6.74976 20.2607 6.71707C19.5473 6.60168 18.7655 6.54688 17.928 6.54688H10.8588C10.6848 6.54688 10.5194 6.5863 10.3713 6.65745C10.0453 6.81418 9.80304 7.12284 9.74439 7.50072L8.24053 17.0257L8.19727 17.3036C8.2963 16.6767 8.83188 16.2151 9.46746 16.2151H12.1136C17.3107 16.2151 21.38 14.1045 22.5694 7.9988C22.605 7.81803 22.6348 7.64207 22.6617 7.46995C22.3607 7.31034 22.0348 7.1738 21.6838 7.05745C21.5973 7.02861 21.5078 7.00072 21.4175 6.9738Z" fill="#222D65"/>
<path d="M9.74422 7.50054C9.80288 7.12266 10.0452 6.814 10.3712 6.65823C10.5202 6.58708 10.6846 6.54766 10.8587 6.54766H17.9279C18.7654 6.54766 19.5471 6.60246 20.2606 6.71785C20.4644 6.75054 20.6625 6.78804 20.8558 6.83035C21.0481 6.87362 21.2356 6.92169 21.4173 6.97458C21.5077 7.0015 21.5971 7.02939 21.6846 7.05727C22.0356 7.17362 22.3615 7.31112 22.6625 7.46977C23.0163 5.21304 22.6596 3.6765 21.4394 2.28516C20.0942 0.753425 17.6663 0.0976562 14.5596 0.0976562H5.54038C4.90576 0.0976562 4.36441 0.559195 4.26634 1.18708L0.509605 24.9996C0.435566 25.4707 0.799028 25.8957 1.27403 25.8957H6.8423L8.24038 17.0255L9.74422 7.50054Z" fill="#253B80"/>
</g>
<defs>
<clipPath id="clip0_5574_112804">
<rect width="25" height="29.8077" fill="white" transform="translate(0.5 0.0976562)"/>
</clipPath>
</defs>
</svg>
