<svg width="28" height="34" viewBox="0 0 28 34" fill="none" xmlns="http://www.w3.org/2000/svg">
<path d="M17.3337 0.333008H4.00033C3.11627 0.333008 2.26842 0.684197 1.6433 1.30932C1.01818 1.93444 0.666992 2.78229 0.666992 3.66634V30.333C0.666992 31.2171 1.01818 32.0649 1.6433 32.69C2.26842 33.3152 3.11627 33.6663 4.00033 33.6663H24.0003C24.8844 33.6663 25.7322 33.3152 26.3573 32.69C26.9825 32.0649 27.3337 31.2171 27.3337 30.333V10.333L17.3337 0.333008ZM9.83033 23.983C9.31533 24.4663 8.55533 24.683 7.67032 24.683C7.49873 24.6849 7.32721 24.6748 7.15699 24.653V27.0297H5.66699V20.4697C6.33942 20.3694 7.01886 20.3237 7.69866 20.333C8.62699 20.333 9.28699 20.5097 9.73199 20.8647C10.1553 21.2013 10.442 21.753 10.442 22.403C10.4403 23.0563 10.2237 23.608 9.83033 23.983ZM16.1753 26.2413C15.4753 26.823 14.4103 27.0997 13.1087 27.0997C12.3287 27.0997 11.777 27.0497 11.402 26.9997V20.4713C12.0747 20.3732 12.7539 20.3269 13.4337 20.333C14.6953 20.333 15.5153 20.5597 16.1553 21.043C16.847 21.5563 17.2803 22.3747 17.2803 23.5497C17.2803 24.8213 16.8153 25.6997 16.1753 26.2413ZM22.3337 21.6163H19.7803V23.1347H22.167V24.358H19.7803V27.0313H18.2703V20.383H22.3337V21.6163ZM17.3337 11.9997H15.667V3.66634L24.0003 11.9997H17.3337Z" fill="#FF0000"/>
</svg>
