<svg width="71" height="15" viewBox="0 0 71 15" fill="none" xmlns="http://www.w3.org/2000/svg">
<g clip-path="url(#clip0_6319_285477)">
<path d="M4.56528 3.95654L3.9751 6.1213L7.35321 3.94422L5.14385 12.1589L7.38769 12.1607L10.6515 0.0273438" fill="#3395FF"/>
<path d="M0.92931 8.7056L0 12.1591H4.59896L6.48081 5.13377L0.92931 8.7056ZM16.9044 5.66516C16.792 6.08153 16.5754 6.38737 16.2524 6.58267C15.9302 6.7776 15.4779 6.87544 14.8941 6.87544H13.0392L13.6905 4.45563H15.5453C16.1284 4.45563 16.529 4.55272 16.7463 4.75064C16.9636 4.94855 17.0161 5.25103 16.9044 5.66927M18.8249 5.61699C19.061 4.74317 18.9635 4.071 18.5319 3.60048C18.1009 3.1337 17.3447 2.89844 16.2655 2.89844H12.126L9.63409 12.1632H11.6452L12.6495 8.42889H13.9685C14.2645 8.42889 14.4976 8.47744 14.6677 8.57079C14.8382 8.66789 14.9383 8.83593 14.969 9.07866L15.328 12.1632H17.4826L17.1334 9.28777C17.0622 8.64548 16.7673 8.26832 16.2491 8.15629C16.9097 7.96584 17.4632 7.64843 17.9091 7.20779C18.3519 6.77037 18.6682 6.22213 18.8249 5.62072M23.7135 8.84713C23.5449 9.47449 23.2863 9.94874 22.9367 10.2811C22.5867 10.6134 22.1685 10.7777 21.6806 10.7777C21.1838 10.7777 20.8469 10.6172 20.6689 10.2923C20.4905 9.96741 20.4845 9.49689 20.6502 8.88074C20.8158 8.26458 21.08 7.78286 21.4434 7.43558C21.8069 7.08829 22.2319 6.91465 22.7197 6.91465C23.2069 6.91465 23.5404 7.08269 23.709 7.41616C23.8814 7.75112 23.8851 8.23023 23.7165 8.85385L23.7135 8.84713ZM24.5949 5.56844L24.343 6.50574C24.2344 6.16966 24.0234 5.90079 23.7116 5.69914C23.3991 5.50122 23.0124 5.4004 22.5511 5.4004C21.9853 5.4004 21.4419 5.54604 20.9211 5.83731C20.4002 6.12858 19.9431 6.53935 19.5533 7.06962C19.1636 7.59988 18.8788 8.2011 18.6952 8.877C18.5154 9.55664 18.4779 10.1504 18.5866 10.6657C18.699 11.1848 18.9351 11.5806 19.2985 11.857C19.6658 12.137 20.1342 12.2752 20.7075 12.2752C21.1631 12.2775 21.6135 12.1793 22.0265 11.9877C22.4348 11.8041 22.798 11.5339 23.0907 11.196L22.8284 12.1729H24.7732L26.549 5.5718H24.6005L24.5949 5.56844ZM33.5376 5.56844H27.8819L27.4866 7.03974H30.7774L26.4269 10.7852L26.0551 12.1669H31.8933L32.2886 10.6956H28.7625L33.1797 6.89411M38.5158 8.83593C38.3408 9.48569 38.0811 9.97413 37.7382 10.2923C37.3953 10.6134 36.9801 10.774 36.4926 10.774C35.4734 10.774 35.1384 10.128 35.4861 8.83593C35.6585 8.19363 35.9193 7.71079 36.2678 7.38554C36.6163 7.05916 37.0386 6.89635 37.5351 6.89635C38.0223 6.89635 38.3513 7.05804 38.5206 7.38367C38.69 7.70855 38.6885 8.19289 38.5158 8.83518M39.6542 5.81677C39.2064 5.53894 38.6349 5.40002 37.9379 5.40002C37.2323 5.40002 36.5792 5.53819 35.9781 5.81453C35.3796 6.08914 34.8535 6.49906 34.4418 7.01174C34.0183 7.5308 33.7137 8.13949 33.5267 8.83406C33.3431 9.52602 33.3206 10.1336 33.463 10.6538C33.6054 11.1728 33.9052 11.5724 34.3549 11.8487C34.8083 12.1273 35.3853 12.2659 36.0936 12.2659C36.7905 12.2659 37.4388 12.1262 38.0346 11.8484C38.6304 11.569 39.14 11.1725 39.5635 10.6497C39.9869 10.1291 40.2904 9.52191 40.4778 8.82734C40.6652 8.13276 40.6876 7.52632 40.5452 7.00501C40.4029 6.48595 40.1068 6.08638 39.6609 5.80818M46.597 7.33176L47.0954 5.53558C46.9268 5.44969 46.7057 5.40488 46.4284 5.40488C45.9825 5.40488 45.5553 5.51467 45.1431 5.73723C44.7886 5.92618 44.4873 6.19281 44.2325 6.52665L44.4911 5.55948L43.9264 5.56172H42.5399L40.7525 12.1602H42.7246L43.6521 8.71083C43.787 8.20932 44.0298 7.8146 44.3801 7.53453C44.7286 7.25334 45.1633 7.11256 45.6879 7.11256C46.0102 7.11256 46.31 7.18613 46.5948 7.33288M52.0844 8.86767C51.9158 9.48382 51.661 9.95434 51.3125 10.2792C50.964 10.6056 50.5443 10.7684 50.0572 10.7684C49.57 10.7684 49.2365 10.6041 49.0604 10.2755C48.8806 9.94501 48.8768 9.46889 49.0454 8.84302C49.2141 8.21753 49.4726 7.73768 49.8286 7.40533C50.1846 7.07036 50.6043 6.90307 51.0914 6.90307C51.5711 6.90307 51.8933 7.07485 52.0657 7.42213C52.2381 7.76942 52.2418 8.25114 52.0762 8.8673M53.4552 5.8276C53.0898 5.53633 52.6233 5.39069 52.0574 5.39069C51.5617 5.39069 51.0892 5.50272 50.641 5.72901C50.1932 5.95494 49.8297 6.26302 49.5506 6.65287L49.5573 6.60806L49.8882 5.55873H47.9621L47.4712 7.38479L47.4562 7.44827L45.4327 14.9706H47.4075L48.4268 11.184C48.5279 11.5209 48.734 11.7853 49.0488 11.9764C49.3636 12.1669 49.7522 12.2614 50.2142 12.2614C50.7875 12.2614 51.3346 12.1232 51.8536 11.8469C52.3745 11.5698 52.8241 11.171 53.2063 10.6556C53.5886 10.1403 53.8722 9.54283 54.0532 8.86692C54.2368 8.1899 54.2743 7.58607 54.1694 7.05767C54.0626 6.52852 53.8261 6.11887 53.4612 5.82909M60.0057 8.84078C59.837 9.46441 59.5785 9.94239 59.23 10.271C58.8815 10.6019 58.4618 10.7665 57.9747 10.7665C57.4763 10.7665 57.139 10.606 56.9629 10.2811C56.7831 9.95621 56.7793 9.48569 56.9442 8.86954C57.1091 8.25338 57.3721 7.77166 57.7356 7.42437C58.0991 7.07709 58.5244 6.90382 59.0123 6.90382C59.4994 6.90382 59.8292 7.07186 60.0015 7.40421C60.1739 7.73768 60.175 8.21679 60.0072 8.8419L60.0057 8.84078ZM60.8863 5.56023L60.6341 6.49753C60.5254 6.15958 60.3156 5.89071 60.0045 5.69092C59.6898 5.49151 59.3038 5.39218 58.8429 5.39218C58.2771 5.39218 57.7307 5.53782 57.2091 5.82909C56.6883 6.12037 56.2311 6.52889 55.8414 7.05767C55.4517 7.58644 55.1669 8.18915 54.9833 8.86505C54.8015 9.54357 54.7659 10.1384 54.8746 10.656C54.9844 11.1713 55.2208 11.5694 55.5866 11.8472C55.9515 12.1236 56.4222 12.2632 56.9955 12.2632C57.4564 12.2632 57.8967 12.1676 58.3145 11.9757C58.7219 11.7913 59.0842 11.5208 59.3761 11.1829L59.1138 12.1605H61.0586L62.8341 5.56209H60.8893L60.8863 5.56023ZM70.9989 5.56247L71 5.5606H69.8046C69.7664 5.5606 69.7327 5.56247 69.6978 5.56321H69.0777L68.7592 6.00386L68.6805 6.10842L68.6467 6.1607L66.1267 9.65896L65.6059 5.56247H63.5419L64.5874 11.7875L62.2791 14.9728H64.3363L64.8947 14.1838C64.9104 14.1606 64.9246 14.1412 64.9434 14.1166L65.5954 13.1942L65.6141 13.1681L68.5343 9.04169L70.9962 5.56881L71 5.56657H70.9989V5.56247Z" fill="#072654"/>
</g>
<defs>
<clipPath id="clip0_6319_285477">
<rect width="71" height="15" fill="white"/>
</clipPath>
</defs>
</svg>
