<svg width="50" height="18" viewBox="0 0 50 18" fill="none" xmlns="http://www.w3.org/2000/svg">
<path fill-rule="evenodd" clip-rule="evenodd" d="M35.9152 0.257812C34.7834 0.257812 33.8642 1.17222 33.8642 2.29947C33.8642 3.4274 34.7834 4.33981 35.9152 4.33981C37.049 4.33981 37.9675 3.4274 37.9675 2.29947C37.9675 1.17222 37.049 0.257812 35.9152 0.257812ZM6.32826 7.09751C5.80235 7.06369 4.58389 6.98479 4.58389 5.89413C4.58389 4.57804 6.33693 4.57804 6.99481 4.57804C8.15195 4.57804 9.64903 4.91751 10.7195 5.23642C10.7195 5.23642 11.3154 5.44593 11.8227 5.65942L11.87 5.67268V2.06787L11.8067 2.04864C10.5429 1.60906 9.0758 1.18672 6.35426 1.18672C1.66238 1.18672 0 3.90442 0 6.23492C0 7.57687 0.578569 10.7381 5.95033 11.1021L5.9553 11.1024C6.41563 11.1305 7.61604 11.2037 7.61604 12.3267C7.61604 13.2576 6.62621 13.8052 4.96183 13.8052C3.13813 13.8052 1.36777 13.3438 0.293284 12.9042V16.6158C1.90234 17.0368 3.7167 17.245 5.84301 17.245C10.4289 17.245 12.4846 14.6731 12.4846 12.1232C12.4846 9.23308 10.1856 7.35476 6.32826 7.09751ZM20.1753 5.49537C20.1842 5.47208 20.1912 5.45374 20.1964 5.44063H25.1089C24.9689 5.88551 24.0924 8.57007 22.0941 11.0909C22.0941 11.0909 24.3197 14.9702 24.8283 17.0746H19.6845C19.6845 17.0746 19.0699 14.2806 17.8261 12.4242V17.0746H13.5309V2.03206L17.8261 1.18672V9.48635C19.3481 7.65532 20.0263 5.88449 20.1753 5.49537ZM45.8374 17.0746V1.92731L50 1.18672V17.0746H45.8374ZM31.4878 5.28349C27.6424 5.40681 25.6888 7.12402 25.6888 10.5372V17.0746H29.8854V11.7426C29.8854 9.69984 30.1547 8.824 32.5923 8.74046V5.34383C32.1823 5.25697 31.4878 5.28349 31.4878 5.28349ZM33.8355 17.0746V5.45389H37.9975V17.0746H33.8355ZM39.7612 1.92731L43.9212 1.18672V17.0746H39.7612V1.92731Z" fill="#862165"/>
</svg>
