<svg width="100" height="31" viewBox="0 0 100 31" fill="none" xmlns="http://www.w3.org/2000/svg">
<rect x="0.5" y="0.00146484" width="99" height="31" rx="5" fill="white"/>
<path d="M21.2957 15.1815L23.7598 12.7174L15.8007 8.24405C15.2732 7.95905 14.779 7.91905 14.3457 8.23071L21.2957 15.1815ZM24.1798 18.0665L26.7415 16.6257C27.2415 16.3457 27.5157 15.949 27.5157 15.509C27.5157 15.0699 27.2415 14.6724 26.7423 14.3924L24.4232 13.0899L21.8123 15.6999L24.1798 18.0665ZM13.9173 8.83655C13.864 9.00071 13.834 9.18405 13.834 9.38488V21.639C13.834 21.9565 13.904 22.2299 14.0307 22.4474L20.7782 15.699L13.9173 8.83655ZM21.2957 16.2157L14.5857 22.9265C14.714 22.9757 14.8523 23.0015 14.9982 23.0015C15.2582 23.0015 15.529 22.9249 15.8048 22.7715L23.5173 18.4407L21.2957 16.2157Z" fill="#111111"/>
<path d="M38.332 7.39346C38.6787 7.39346 38.9773 7.44413 39.228 7.54546C39.484 7.64146 39.7373 7.79346 39.988 8.00146L39.54 8.46546C39.3427 8.30546 39.1533 8.1908 38.972 8.12146C38.7907 8.05213 38.5773 8.01746 38.332 8.01746C38.0493 8.01746 37.788 8.0948 37.548 8.24946C37.3133 8.3988 37.1213 8.64146 36.972 8.97746C36.8227 9.30813 36.748 9.72946 36.748 10.2415C36.748 11.0148 36.8733 11.5801 37.124 11.9375C37.38 12.2948 37.756 12.4735 38.252 12.4735C38.6573 12.4735 39.0067 12.3908 39.3 12.2255V10.5615H38.324L38.236 9.94546H40.052V12.6095C39.4813 12.9348 38.8813 13.0975 38.252 13.0975C37.5267 13.0975 36.9587 12.8548 36.548 12.3695C36.1427 11.8841 35.94 11.1748 35.94 10.2415C35.94 9.64413 36.0467 9.13213 36.26 8.70546C36.4787 8.27346 36.7693 7.94813 37.132 7.72946C37.5 7.50546 37.9 7.39346 38.332 7.39346ZM44.4909 10.7695C44.4909 10.8921 44.4855 11.0175 44.4749 11.1455H41.7869C41.8189 11.6095 41.9362 11.9508 42.1389 12.1695C42.3415 12.3881 42.6029 12.4975 42.9229 12.4975C43.1255 12.4975 43.3122 12.4681 43.4829 12.4095C43.6535 12.3508 43.8322 12.2575 44.0189 12.1295L44.3389 12.5695C43.8909 12.9215 43.4002 13.0975 42.8669 13.0975C42.2802 13.0975 41.8215 12.9055 41.4909 12.5215C41.1655 12.1375 41.0029 11.6095 41.0029 10.9375C41.0029 10.5001 41.0722 10.1135 41.2109 9.77746C41.3549 9.43613 41.5575 9.16946 41.8189 8.97746C42.0855 8.78546 42.3975 8.68946 42.7549 8.68946C43.3149 8.68946 43.7442 8.87346 44.0429 9.24146C44.3415 9.60946 44.4909 10.1188 44.4909 10.7695ZM43.7629 10.5535C43.7629 10.1375 43.6802 9.82013 43.5149 9.60146C43.3495 9.3828 43.1015 9.27346 42.7709 9.27346C42.1682 9.27346 41.8402 9.71613 41.7869 10.6015H43.7629V10.5535ZM47.7943 12.8095C47.5169 13.0015 47.2023 13.0975 46.8503 13.0975C46.4929 13.0975 46.2129 12.9961 46.0103 12.7935C45.8129 12.5855 45.7143 12.2868 45.7143 11.8975V9.35346H44.9783V8.78546H45.7143V7.83346L46.4503 7.74546V8.78546H47.4503L47.3703 9.35346H46.4503V11.8655C46.4503 12.0841 46.4876 12.2441 46.5623 12.3455C46.6423 12.4415 46.7729 12.4895 46.9543 12.4895C47.1196 12.4895 47.3063 12.4335 47.5143 12.3215L47.7943 12.8095ZM51.4101 8.78546V13.0015H50.6741V8.78546H51.4101ZM51.0341 6.76146C51.1887 6.76146 51.3141 6.80946 51.4101 6.90546C51.5061 7.00146 51.5541 7.12146 51.5541 7.26546C51.5541 7.40946 51.5061 7.52946 51.4101 7.62546C51.3141 7.71613 51.1887 7.76146 51.0341 7.76146C50.8847 7.76146 50.7621 7.71613 50.6661 7.62546C50.5701 7.52946 50.5221 7.40946 50.5221 7.26546C50.5221 7.12146 50.5701 7.00146 50.6661 6.90546C50.7621 6.80946 50.8847 6.76146 51.0341 6.76146ZM55.0599 12.8095C54.7825 13.0015 54.4679 13.0975 54.1159 13.0975C53.7585 13.0975 53.4785 12.9961 53.2759 12.7935C53.0785 12.5855 52.9799 12.2868 52.9799 11.8975V9.35346H52.2439V8.78546H52.9799V7.83346L53.7159 7.74546V8.78546H54.7159L54.6359 9.35346H53.7159V11.8655C53.7159 12.0841 53.7532 12.2441 53.8279 12.3455C53.9079 12.4415 54.0385 12.4895 54.2199 12.4895C54.3852 12.4895 54.5719 12.4335 54.7799 12.3215L55.0599 12.8095ZM59.5237 8.68946C60.1157 8.68946 60.5744 8.8868 60.8997 9.28146C61.2304 9.67613 61.3957 10.2121 61.3957 10.8895C61.3957 11.3268 61.321 11.7135 61.1717 12.0495C61.0224 12.3801 60.8064 12.6388 60.5237 12.8255C60.241 13.0068 59.905 13.0975 59.5157 13.0975C58.9237 13.0975 58.4624 12.9001 58.1317 12.5055C57.801 12.1108 57.6357 11.5748 57.6357 10.8975C57.6357 10.4601 57.7104 10.0761 57.8597 9.74546C58.009 9.40946 58.225 9.1508 58.5077 8.96946C58.7904 8.7828 59.129 8.68946 59.5237 8.68946ZM59.5237 9.28146C58.793 9.28146 58.4277 9.82013 58.4277 10.8975C58.4277 11.9695 58.7904 12.5055 59.5157 12.5055C60.241 12.5055 60.6037 11.9668 60.6037 10.8895C60.6037 9.81746 60.2437 9.28146 59.5237 9.28146ZM64.5956 8.68946C64.9796 8.68946 65.2782 8.80413 65.4916 9.03346C65.7102 9.2628 65.8196 9.57746 65.8196 9.97746V13.0015H65.0836V10.0815C65.0836 9.7828 65.0276 9.57213 64.9156 9.44946C64.8036 9.3268 64.6382 9.26546 64.4196 9.26546C64.1956 9.26546 63.9982 9.32946 63.8276 9.45746C63.6569 9.58546 63.4969 9.76946 63.3476 10.0095V13.0015H62.6116V8.78546H63.2436L63.3076 9.40946C63.4569 9.18546 63.6409 9.00946 63.8596 8.88146C64.0836 8.75346 64.3289 8.68946 64.5956 8.68946Z" fill="#111111"/>
<path d="M38.758 17.6295C39.178 17.6295 39.55 17.6955 39.874 17.8275C40.204 17.9535 40.51 18.1365 40.792 18.3765L40.099 19.0965C39.877 18.9285 39.667 18.8055 39.469 18.7275C39.277 18.6495 39.058 18.6105 38.812 18.6105C38.338 18.6105 37.954 18.7995 37.66 19.1775C37.372 19.5495 37.228 20.1195 37.228 20.8875C37.228 21.6975 37.339 22.2795 37.561 22.6335C37.789 22.9815 38.14 23.1555 38.614 23.1555C38.956 23.1555 39.265 23.0805 39.541 22.9305V21.4095H38.668L38.533 20.4465H40.828V23.5155C40.504 23.7135 40.153 23.8695 39.775 23.9835C39.403 24.0915 39.025 24.1455 38.641 24.1455C37.723 24.1455 37.027 23.8695 36.553 23.3175C36.079 22.7655 35.842 21.9525 35.842 20.8785C35.842 20.2005 35.971 19.6155 36.229 19.1235C36.487 18.6315 36.835 18.2595 37.273 18.0075C37.717 17.7555 38.212 17.6295 38.758 17.6295ZM43.9026 19.0875C44.6166 19.0875 45.1746 19.3125 45.5766 19.7625C45.9786 20.2065 46.1796 20.8245 46.1796 21.6165C46.1796 22.1205 46.0866 22.5645 45.9006 22.9485C45.7206 23.3265 45.4566 23.6205 45.1086 23.8305C44.7666 24.0405 44.3616 24.1455 43.8936 24.1455C43.1796 24.1455 42.6186 23.9235 42.2106 23.4795C41.8086 23.0295 41.6076 22.4085 41.6076 21.6165C41.6076 21.1125 41.6976 20.6715 41.8776 20.2935C42.0636 19.9095 42.3276 19.6125 42.6696 19.4025C43.0176 19.1925 43.4286 19.0875 43.9026 19.0875ZM43.9026 20.0415C43.5786 20.0415 43.3356 20.1705 43.1736 20.4285C43.0176 20.6805 42.9396 21.0765 42.9396 21.6165C42.9396 22.1565 43.0176 22.5555 43.1736 22.8135C43.3356 23.0655 43.5756 23.1915 43.8936 23.1915C44.2116 23.1915 44.4486 23.0655 44.6046 22.8135C44.7666 22.5555 44.8476 22.1565 44.8476 21.6165C44.8476 21.0765 44.7696 20.6805 44.6136 20.4285C44.4576 20.1705 44.2206 20.0415 43.9026 20.0415ZM49.1585 19.0875C49.8725 19.0875 50.4305 19.3125 50.8325 19.7625C51.2345 20.2065 51.4355 20.8245 51.4355 21.6165C51.4355 22.1205 51.3425 22.5645 51.1565 22.9485C50.9765 23.3265 50.7125 23.6205 50.3645 23.8305C50.0225 24.0405 49.6175 24.1455 49.1495 24.1455C48.4355 24.1455 47.8745 23.9235 47.4665 23.4795C47.0645 23.0295 46.8635 22.4085 46.8635 21.6165C46.8635 21.1125 46.9535 20.6715 47.1335 20.2935C47.3195 19.9095 47.5835 19.6125 47.9255 19.4025C48.2735 19.1925 48.6845 19.0875 49.1585 19.0875ZM49.1585 20.0415C48.8345 20.0415 48.5915 20.1705 48.4295 20.4285C48.2735 20.6805 48.1955 21.0765 48.1955 21.6165C48.1955 22.1565 48.2735 22.5555 48.4295 22.8135C48.5915 23.0655 48.8315 23.1915 49.1495 23.1915C49.4675 23.1915 49.7045 23.0655 49.8605 22.8135C50.0225 22.5555 50.1035 22.1565 50.1035 21.6165C50.1035 21.0765 50.0255 20.6805 49.8695 20.4285C49.7135 20.1705 49.4765 20.0415 49.1585 20.0415ZM56.6733 19.4925C56.3613 19.6125 55.9023 19.6725 55.2963 19.6725C55.5963 19.8045 55.8183 19.9695 55.9623 20.1675C56.1063 20.3595 56.1783 20.6025 56.1783 20.8965C56.1783 21.2025 56.0973 21.4785 55.9353 21.7245C55.7793 21.9645 55.5513 22.1535 55.2513 22.2915C54.9573 22.4295 54.6123 22.4985 54.2163 22.4985C54.0063 22.4985 53.8203 22.4775 53.6583 22.4355C53.5383 22.5135 53.4783 22.6185 53.4783 22.7505C53.4783 22.8465 53.5143 22.9245 53.5863 22.9845C53.6643 23.0385 53.8113 23.0655 54.0273 23.0655H54.7563C55.1103 23.0655 55.4193 23.1255 55.6833 23.2455C55.9533 23.3595 56.1603 23.5215 56.3043 23.7315C56.4543 23.9355 56.5293 24.1695 56.5293 24.4335C56.5293 24.9195 56.3193 25.2975 55.8993 25.5675C55.4853 25.8435 54.8853 25.9815 54.0993 25.9815C53.5353 25.9815 53.0883 25.9215 52.7583 25.8015C52.4343 25.6875 52.2063 25.5195 52.0743 25.2975C51.9423 25.0755 51.8763 24.7965 51.8763 24.4605H53.0193C53.0193 24.6165 53.0493 24.7395 53.1093 24.8295C53.1693 24.9255 53.2773 24.9945 53.4333 25.0365C53.5953 25.0845 53.8263 25.1085 54.1263 25.1085C54.5403 25.1085 54.8283 25.0575 54.9903 24.9555C55.1583 24.8535 55.2423 24.7095 55.2423 24.5235C55.2423 24.3555 55.1793 24.2265 55.0533 24.1365C54.9273 24.0465 54.7413 24.0015 54.4953 24.0015H53.7933C53.3193 24.0015 52.9653 23.9145 52.7313 23.7405C52.4973 23.5605 52.3803 23.3355 52.3803 23.0655C52.3803 22.8975 52.4283 22.7355 52.5243 22.5795C52.6263 22.4175 52.7643 22.2825 52.9383 22.1745C52.6443 22.0125 52.4283 21.8235 52.2903 21.6075C52.1583 21.3855 52.0923 21.1215 52.0923 20.8155C52.0923 20.4675 52.1763 20.1645 52.3443 19.9065C52.5183 19.6425 52.7583 19.4415 53.0643 19.3035C53.3763 19.1595 53.7303 19.0875 54.1263 19.0875C54.6183 19.0995 55.0233 19.0575 55.3413 18.9615C55.6593 18.8655 55.9983 18.7155 56.3583 18.5115L56.6733 19.4925ZM54.1533 19.9425C53.9133 19.9425 53.7213 20.0205 53.5773 20.1765C53.4393 20.3265 53.3703 20.5335 53.3703 20.7975C53.3703 21.0675 53.4393 21.2805 53.5773 21.4365C53.7213 21.5925 53.9163 21.6705 54.1623 21.6705C54.4203 21.6705 54.6153 21.5955 54.7473 21.4455C54.8793 21.2955 54.9453 21.0735 54.9453 20.7795C54.9453 20.2215 54.6813 19.9425 54.1533 19.9425ZM58.4909 24.1455C58.1009 24.1455 57.7979 24.0345 57.5819 23.8125C57.3659 23.5845 57.2579 23.2635 57.2579 22.8495V17.3325L58.5359 17.1885V22.8135C58.5359 23.0235 58.6229 23.1285 58.7969 23.1285C58.8929 23.1285 58.9769 23.1105 59.0489 23.0745L59.3099 23.9835C59.0639 24.0915 58.7909 24.1455 58.4909 24.1455ZM63.954 21.5085C63.954 21.5685 63.945 21.7335 63.927 22.0035H60.948C60.99 22.4355 61.107 22.7415 61.299 22.9215C61.491 23.1015 61.752 23.1915 62.082 23.1915C62.286 23.1915 62.478 23.1585 62.658 23.0925C62.838 23.0265 63.033 22.9215 63.243 22.7775L63.774 23.4975C63.24 23.9295 62.637 24.1455 61.965 24.1455C61.215 24.1455 60.639 23.9205 60.237 23.4705C59.835 23.0205 59.634 22.4115 59.634 21.6435C59.634 21.1575 59.718 20.7225 59.886 20.3385C60.06 19.9485 60.309 19.6425 60.633 19.4205C60.963 19.1985 61.353 19.0875 61.803 19.0875C62.481 19.0875 63.009 19.3005 63.387 19.7265C63.765 20.1525 63.954 20.7465 63.954 21.5085ZM62.685 21.1485C62.685 20.3565 62.4 19.9605 61.83 19.9605C61.566 19.9605 61.359 20.0595 61.209 20.2575C61.065 20.4495 60.978 20.7645 60.948 21.2025H62.685V21.1485ZM69.0293 17.7735C69.8393 17.7735 70.4663 17.9415 70.9103 18.2775C71.3603 18.6135 71.5853 19.1145 71.5853 19.7805C71.5853 20.4765 71.3633 21.0015 70.9193 21.3555C70.4753 21.7035 69.8813 21.8775 69.1373 21.8775H68.4263V24.0015H67.1033V17.7735H69.0293ZM69.0293 20.9055C69.4133 20.9055 69.7073 20.8185 69.9113 20.6445C70.1153 20.4705 70.2173 20.1825 70.2173 19.7805C70.2173 19.0785 69.8153 18.7275 69.0113 18.7275H68.4263V20.9055H69.0293ZM73.5289 24.1455C73.1389 24.1455 72.8359 24.0345 72.6199 23.8125C72.4039 23.5845 72.2959 23.2635 72.2959 22.8495V17.3325L73.5739 17.1885V22.8135C73.5739 23.0235 73.6609 23.1285 73.8349 23.1285C73.9309 23.1285 74.0149 23.1105 74.0869 23.0745L74.3479 23.9835C74.1019 24.0915 73.8289 24.1455 73.5289 24.1455ZM78.6051 22.6785C78.6051 22.8645 78.6321 23.0025 78.6861 23.0925C78.7401 23.1765 78.8301 23.2395 78.9561 23.2815L78.6861 24.1275C78.4041 24.1035 78.1731 24.0375 77.9931 23.9295C77.8191 23.8215 77.6841 23.6535 77.5881 23.4255C77.2761 23.9055 76.7991 24.1455 76.1571 24.1455C75.6831 24.1455 75.3051 24.0105 75.0231 23.7405C74.7471 23.4645 74.6091 23.1075 74.6091 22.6695C74.6091 22.1475 74.7981 21.7485 75.1761 21.4725C75.5541 21.1965 76.0971 21.0585 76.8051 21.0585H77.3541V20.8245C77.3541 20.5305 77.2881 20.3265 77.1561 20.2125C77.0241 20.0985 76.8051 20.0415 76.4991 20.0415C76.1631 20.0415 75.7431 20.1255 75.2391 20.2935L74.9511 19.4385C75.5451 19.2045 76.1331 19.0875 76.7151 19.0875C77.3631 19.0875 77.8401 19.2285 78.1461 19.5105C78.4521 19.7865 78.6051 20.2005 78.6051 20.7525V22.6785ZM76.5081 23.2275C76.8681 23.2275 77.1501 23.0505 77.3541 22.6965V21.7875H76.9311C76.2411 21.7875 75.8961 22.0455 75.8961 22.5615C75.8961 22.7715 75.9471 22.9365 76.0491 23.0565C76.1571 23.1705 76.3101 23.2275 76.5081 23.2275ZM82.2071 24.0105C82.0151 24.6165 81.7121 25.0845 81.2981 25.4145C80.8901 25.7445 80.3351 25.9335 79.6331 25.9815L79.4981 25.0635C79.9541 25.0035 80.2871 24.8955 80.4971 24.7395C80.7131 24.5835 80.8901 24.3375 81.0281 24.0015H80.5871L79.1021 19.2315H80.4611L81.4151 23.1735L82.4231 19.2315H83.7461L82.2071 24.0105Z" fill="#111111"/>
</svg>
