<svg width="59" height="60" viewBox="0 0 59 60" fill="none" xmlns="http://www.w3.org/2000/svg">
<path d="M46.3462 19.8429C45.8819 19.5386 39.6743 19.9457 36.0854 20.4865C29.1643 21.5661 29.2153 21.5144 29.6098 26.0776L29.8954 29.8207L24.5192 31.5553C20.9351 32.7117 19.0428 33.5985 18.6891 34.3195C18.132 35.2987 18.286 35.2975 22.3901 35.0092C27.4176 34.6626 33.6715 33.5881 34.3344 33.0187C34.5377 32.7606 34.7295 31.0147 34.6627 29.0143L34.5841 25.4748L37.8105 24.5263C39.552 24.0511 41.344 23.4729 41.7534 23.3159C42.1629 23.1588 42.6236 23.0013 42.7772 22.9488C46.2606 22.0497 47.7901 20.7039 46.3462 19.8429Z" fill="#FFA633"/>
<path d="M37.7371 48.2814C34.6393 45.9453 31.7042 44.7366 30.0645 45.1084C29.2449 45.32 28.5812 45.7869 28.584 46.146C28.5872 46.5564 28.3369 47.3792 28.0341 48.0485C27.5805 49.1295 27.1707 49.2353 24.6557 49.2547C22.9106 49.2682 21.6808 49.5342 21.5809 49.8941C21.3294 50.563 28.3928 54.6129 29.8299 54.6018C30.4458 54.5971 31.0562 53.8741 31.6104 52.5358L32.4671 50.477L35.7528 50.5542C39.6034 50.6784 40.1636 50.1097 37.7371 48.2814Z" fill="#FFA633"/>
<path d="M18.9712 11.0759C18.343 9.49026 17.1183 10.4232 16.114 13.3041C15.36 15.3622 14.8009 16.0848 13.6749 16.5039C11.3716 17.3426 10.7624 18.2195 10.6306 21.0937C10.4188 26.8929 11.5575 28.1154 13.5283 24.0983C14.8413 21.3177 15.351 20.852 16.8908 20.8401C18.7385 20.8258 19.3951 19.4355 19.3654 15.5878C19.3503 13.6383 19.1805 11.5873 18.9712 11.0759Z" fill="#FFA633"/>
</svg>
