<svg width="51" height="41" viewBox="0 0 51 41" fill="none" xmlns="http://www.w3.org/2000/svg">
<path d="M18.2519 3.91283C17.6868 4.1272 17.1996 4.56566 16.9073 5.14054C16.6442 5.63747 16.6344 5.69594 16.6344 7.18672V8.72623L15.3872 8.75546C14.218 8.79444 14.1108 8.81393 13.497 9.11598C12.3472 9.68112 11.6554 10.7529 11.6457 12.0099C11.6359 12.6335 11.7821 13.033 12.1718 13.3935C12.5323 13.7345 12.8734 13.8125 13.9647 13.8125C14.52 13.8125 14.978 13.8319 14.978 13.8514C14.978 13.8709 13.5554 16.1022 11.821 18.8012L8.66407 23.7023L6.39379 23.751C4.1235 23.7998 4.11376 23.7998 3.6558 24.0726C3.07118 24.4136 3.00297 24.5111 1.86296 26.7716L0.898328 28.6716L0.908072 29.6947C0.908072 30.5717 0.947047 30.8055 1.17115 31.3414L1.42449 31.9553L1.14192 32.2281C0.908072 32.4424 0.849609 32.5886 0.849609 32.8907C0.849609 33.5825 0.927559 33.6214 3.86042 34.4204C7.14405 35.3168 8.27432 35.4922 10.3497 35.4045C11.8015 35.3461 12.5226 35.2292 14.637 34.7127C15.4652 34.5179 16.0596 34.4399 17.2288 34.4009C18.9632 34.3327 19.7329 34.4204 21.7012 34.9076C23.4648 35.3363 24.9166 35.4922 26.5633 35.4143C27.8689 35.3461 28.5607 35.2292 30.7628 34.703C31.7957 34.4497 32.0393 34.4302 33.8321 34.4302C35.6347 34.4204 35.8588 34.4399 36.9014 34.6932C39.6588 35.3656 39.7465 35.3851 41.8219 35.3851C44.1215 35.3851 44.3748 35.3461 47.9215 34.3717C50.64 33.6312 50.7375 33.5825 50.7375 32.8907C50.7375 32.423 50.3964 32.0332 49.9872 32.0332C49.841 32.0332 48.6815 32.3158 47.4246 32.6666C44.1604 33.5727 43.7804 33.6409 41.8219 33.6312C40.9158 33.6214 40.0681 33.5825 39.9414 33.5337C39.7368 33.4461 40.0973 33.0368 45.2323 27.5608L50.7375 21.6854V20.331C50.7375 18.8792 50.6692 18.5771 50.2113 17.973C50.0749 17.7879 49.7241 17.5151 49.4513 17.3592L48.9349 17.0766H44.9399C40.945 17.0766 40.945 17.0766 40.4871 17.3007C39.5809 17.7489 39.045 18.6648 39.045 19.7756V20.3407H38.4701H37.8855L35.4106 16.8038L32.9357 13.2766L33.1111 12.916C33.267 12.614 33.2962 12.3314 33.2962 11.2596C33.2962 9.71035 33.15 9.33034 32.4193 8.96008C31.9905 8.74572 31.9321 8.74572 28.2684 8.74572H24.5561L22.734 6.55338C20.6294 4.02976 20.4247 3.86412 19.3237 3.80565C18.8755 3.78617 18.4955 3.82514 18.2519 3.91283ZM19.4991 5.58875C19.616 5.63747 21.2627 7.5375 22.0812 8.58008C22.2078 8.73598 22.1007 8.74572 20.2981 8.74572H18.3883V7.3816C18.3883 6.05645 18.398 5.99799 18.6319 5.77389C18.856 5.54004 19.1873 5.47183 19.4991 5.58875ZM31.5423 11.2791V12.0586H22.4807H13.419V11.8247C13.419 11.4934 13.8088 10.9673 14.2472 10.7237L14.637 10.4996H23.0945H31.5423V11.2791ZM31.9613 15.0012L32.7895 16.1997L29.0479 16.2484C24.8679 16.3068 25.0433 16.2679 24.9458 17.0084C24.8971 17.3592 24.9263 17.4469 25.1894 17.7099L25.4817 18.0023H29.769H34.0562L34.8454 19.1325C35.2839 19.7464 35.6347 20.2628 35.6347 20.2823C35.6347 20.3018 34.8844 20.3407 33.9588 20.3797C31.5716 20.4674 30.8018 20.6525 27.9859 21.7731C24.8971 23.0008 23.9325 23.3516 23.114 23.5269C22.1201 23.751 10.7297 23.8387 10.8564 23.6244C10.8954 23.5464 12.3375 21.3054 14.0426 18.6453L17.1509 13.8125H24.1371H31.1233L31.9613 15.0012ZM44.0143 19.5613V20.3407H42.4066H40.7989V19.873C40.7989 19.3664 40.984 19.0156 41.325 18.8792C41.4322 18.8305 42.085 18.7915 42.7768 18.7915L44.0143 18.7818V19.5613ZM48.5841 18.9279C48.9251 19.0936 48.9836 19.2397 48.9836 19.8633V20.3407H47.3759H45.7682V19.5613V18.7818H47.0348C47.9605 18.7818 48.3892 18.8207 48.5841 18.9279ZM47.7072 22.2797C47.6292 22.3869 46.2553 23.868 44.6476 25.5829L41.7245 28.7106H22.3053L2.89579 28.7203L3.66554 27.1711C4.09427 26.3234 4.51325 25.6024 4.60094 25.5634C4.68863 25.5342 8.49843 25.5049 13.0585 25.5049C17.6283 25.5049 21.7986 25.4562 22.3248 25.4075C23.7474 25.2711 24.7704 24.9593 27.7715 23.7608C30.8018 22.5428 31.5813 22.309 32.7993 22.1921C33.2572 22.1531 36.8332 22.1141 40.7404 22.1044C47.7169 22.0946 47.8338 22.0946 47.7072 22.2797ZM38.9573 31.6337C38.3629 32.2671 37.8173 32.8419 37.7393 32.9004C37.6321 32.9881 37.4178 32.9784 36.7844 32.8517C35.6931 32.6373 33.0721 32.5594 31.8736 32.7153C31.3572 32.7737 30.4023 32.9589 29.7495 33.1148C26.7192 33.865 24.8192 33.865 21.9935 33.1537C20.5027 32.7737 19.2652 32.6178 17.755 32.6178C16.2155 32.6178 15.0852 32.764 13.3508 33.1927C11.139 33.7286 9.14151 33.8163 7.23175 33.4461C6.2866 33.2707 3.66554 32.5496 3.56811 32.4522C3.4999 32.384 2.79835 30.6106 2.79835 30.5132C2.79835 30.4937 11.178 30.4742 21.4186 30.4742H40.0388L38.9573 31.6337Z" fill="#DBDBDB"/>
<path d="M17.6579 16.5597C17.1999 17.1054 17.4825 17.8459 18.2035 17.9628C19.0025 18.0992 19.4994 17.0664 18.9245 16.4915C18.564 16.1213 17.9989 16.1505 17.6579 16.5597Z" fill="#DBDBDB"/>
<path d="M15.6125 20.4184C14.9986 20.5451 14.7453 21.4512 15.2033 21.88C15.671 22.3282 16.4797 22.0846 16.6746 21.4415C16.733 21.2661 16.5187 20.5353 16.4212 20.5353C16.4017 20.5353 16.2556 20.4964 16.0997 20.4574C15.934 20.4087 15.7197 20.3989 15.6125 20.4184Z" fill="#DBDBDB"/>
<path d="M35.976 23.9945C35.7617 24.2088 35.7324 24.3063 35.7324 25.0176C35.7324 25.7289 35.7617 25.8263 35.976 26.0406C36.434 26.5083 37.2914 26.2842 37.4473 25.6412C37.4765 25.5145 37.4863 25.115 37.4668 24.7545C37.4376 24.2283 37.3889 24.0822 37.2037 23.936C36.8724 23.6632 36.2683 23.6924 35.976 23.9945Z" fill="#DBDBDB"/>
<path d="M39.3279 23.9361C39.1428 24.0822 39.0941 24.2284 39.0648 24.7546C39.0453 25.1151 39.0551 25.5146 39.0843 25.6412C39.25 26.2941 40.1074 26.5182 40.5556 26.031C40.77 25.7971 40.7992 25.6802 40.7992 24.9981C40.7992 24.3161 40.77 24.1992 40.5556 23.9945C40.2633 23.6925 39.6592 23.6633 39.3279 23.9361Z" fill="#DBDBDB"/>
<path d="M1.13207 37.285C0.781297 37.6358 0.76181 38.0548 1.07361 38.425C1.249 38.6296 1.59977 38.7661 2.79825 39.1071C6.96856 40.3056 7.98191 40.4712 10.3983 40.3835C11.9086 40.3251 12.3373 40.2569 14.783 39.6722C15.7964 39.4286 16.0692 39.3994 17.7549 39.3994C19.4503 39.3994 19.7036 39.4189 20.7267 39.6625C23.5816 40.3543 23.5524 40.3543 25.7934 40.3543C28.0345 40.3543 27.976 40.364 30.8602 39.6722C31.8832 39.4189 32.1463 39.3994 33.832 39.3994C35.5177 39.3994 35.7807 39.4189 36.8038 39.6722C39.3372 40.2763 39.6587 40.3251 41.3347 40.3835C42.6013 40.4225 43.2542 40.403 44.0824 40.2763C45.3783 40.0815 50.0943 38.8245 50.445 38.5712C50.7471 38.3568 50.825 37.6943 50.6009 37.3435C50.3184 36.905 49.9871 36.944 47.3758 37.665C44.0629 38.5809 43.8875 38.6102 41.7731 38.6102C40.1459 38.6004 39.8634 38.5712 38.85 38.3276C35.9756 37.6358 36.0146 37.6455 33.832 37.6455C31.6494 37.6455 31.6591 37.6455 28.814 38.3276C27.7811 38.5809 27.5375 38.6004 25.7934 38.6004C24.0493 38.6004 23.8057 38.5809 22.7729 38.3373C20.4344 37.7722 19.8887 37.6748 18.4369 37.6163C16.7123 37.5481 15.4651 37.6748 13.7989 38.084C12.0645 38.503 10.9732 38.6589 9.71629 38.6589C8.16704 38.6589 7.1342 38.4738 4.29878 37.6845C2.95415 37.3045 1.75567 37.0024 1.63874 37.0024C1.52182 37.0024 1.28797 37.1291 1.13207 37.285Z" fill="#DBDBDB"/>
<path d="M9.14261 0.491943C8.69662 0.655471 8.36957 0.952795 8.16144 1.39135C7.97561 1.75557 7.96075 1.86707 7.99048 2.37995C8.03508 3.07866 8.25807 3.56924 8.82299 4.16389C9.4102 4.78827 10.436 5.44238 10.8374 5.44238C11.2387 5.44238 12.2645 4.78827 12.8666 4.14902C13.4538 3.53208 13.6619 3.02663 13.6619 2.24615C13.6619 1.53258 13.5727 1.30215 13.1342 0.878464C12.6287 0.38788 11.7516 0.261517 11.0901 0.573707C10.8374 0.692636 10.8076 0.692636 10.5772 0.573707C10.2427 0.402746 9.4994 0.358148 9.14261 0.491943ZM10.2799 1.88936C10.5177 2.14209 10.6292 2.20155 10.8374 2.20155C11.0529 2.20155 11.157 2.14209 11.3874 1.88936C11.7368 1.50284 11.9821 1.48054 12.2942 1.79273C12.5544 2.06033 12.5767 2.35765 12.3537 2.8185C12.1827 3.17529 11.5138 3.81454 11.0901 4.03753L10.8002 4.17876L10.5029 3.99293C9.37304 3.27935 8.84529 2.26102 9.35074 1.763C9.63319 1.47311 9.91565 1.51771 10.2799 1.88936Z" fill="#FFA633"/>
<path d="M32.5333 0.506808C32.184 0.633171 31.7528 1.01969 31.5596 1.37648C31.4629 1.54744 31.4258 1.7853 31.4258 2.24615C31.4258 3.02663 31.6339 3.53208 32.2211 4.14902C32.8232 4.78827 33.849 5.44238 34.2504 5.44238C34.897 5.44238 36.3985 4.24565 36.8594 3.35368C37.0452 2.99689 37.0749 2.87053 37.0749 2.27588C37.0749 1.65894 37.0601 1.57717 36.8519 1.24268C36.7107 1.01226 36.4877 0.789266 36.2647 0.648037C35.9451 0.454777 35.8262 0.425045 35.3728 0.425045C35.016 0.425045 34.7409 0.469643 34.5402 0.55884C34.2504 0.692636 34.2206 0.692636 33.9828 0.573706C33.6483 0.395312 32.9124 0.36558 32.5333 0.506808ZM33.7003 1.88936C33.9307 2.14209 34.0348 2.20155 34.2504 2.20155C34.4585 2.20155 34.57 2.14209 34.8078 1.88936C35.1721 1.51771 35.4545 1.47311 35.737 1.763C36.2201 2.23872 35.7444 3.21989 34.6889 3.9186L34.295 4.18619L34.0051 4.03753C33.5739 3.81454 32.905 3.17529 32.734 2.8185C32.511 2.35765 32.5333 2.06032 32.7935 1.79273C33.1057 1.48054 33.351 1.50284 33.7003 1.88936Z" fill="#127384"/>
<path d="M4.68262 7.92505C3.92445 8.20007 3.51562 8.81702 3.51562 9.70156C3.51562 10.4672 3.83525 11.1064 4.55626 11.7828C5.12117 12.318 6.03544 12.8755 6.3625 12.8755C6.78619 12.8755 7.81939 12.2139 8.42147 11.5598C9.11274 10.8091 9.38034 9.90225 9.15734 9.10691C9.02355 8.61633 8.44377 8.03654 7.95318 7.90275C7.54436 7.78382 6.97945 7.82842 6.63752 8.00681C6.42196 8.11831 6.37737 8.11831 5.99828 7.97708C5.52999 7.79869 5.09144 7.78382 4.68262 7.92505ZM5.53743 9.09204C5.61919 9.13664 5.77529 9.27787 5.89421 9.40423C6.2064 9.75359 6.54833 9.73129 6.91998 9.32247C7.27677 8.93595 7.52206 8.91365 7.83425 9.22584C8.07211 9.4637 8.09441 9.61979 7.96061 10.0806C7.84912 10.4523 7.12068 11.2179 6.65239 11.4558L6.33277 11.6193L6.05774 11.4483C5.64149 11.1956 5.00224 10.5712 4.84615 10.259C4.60086 9.77589 4.68262 9.22584 5.02454 9.08461C5.24754 8.99541 5.35903 8.99541 5.53743 9.09204Z" fill="#127384"/>
<path d="M37.0383 7.91018C36.6369 8.04398 36.0423 8.68322 35.9308 9.10691C35.7078 9.87995 35.9754 10.8017 36.6295 11.5227C37.2242 12.1768 38.302 12.8755 38.7256 12.8755C39.0527 12.8755 39.967 12.318 40.5319 11.7828C41.2529 11.1064 41.5725 10.4672 41.5725 9.70156C41.5725 9.263 41.5354 9.07718 41.3867 8.78729C40.963 7.95478 40.0264 7.62029 39.0899 7.97708C38.7033 8.11831 38.6662 8.11831 38.4358 7.99938C38.1384 7.84328 37.3877 7.79869 37.0383 7.91018ZM38.1682 9.32247C38.5398 9.73129 38.8817 9.75359 39.1939 9.40423C39.4764 9.09204 39.6845 8.98798 39.9447 9.04745C40.3758 9.14408 40.517 9.71642 40.242 10.2665C40.071 10.5861 39.35 11.2848 38.9635 11.4929L38.6959 11.6342L38.2574 11.3368C37.1647 10.5935 36.7559 9.72386 37.2539 9.22584C37.5661 8.91365 37.8114 8.93595 38.1682 9.32247Z" fill="#FFA633"/>
</svg>
