<svg width="54" height="41" viewBox="0 0 54 41" fill="none" xmlns="http://www.w3.org/2000/svg">
<path d="M15.0688 32.7744C14.9399 32.9268 14.8462 33.1846 14.8462 33.4658C14.8462 33.7471 14.9399 34.0049 15.0688 34.1572L15.2915 34.4033H27.0454H38.7993L39.0337 34.0986C39.3501 33.7002 39.3501 33.2314 39.0337 32.833L38.7993 32.5283H27.0454H15.2915L15.0688 32.7744Z" fill="#DBDBDB"/>
<path d="M6.1626 28.8994C6.03369 29.0518 5.93994 29.3096 5.93994 29.5908C5.93994 29.8721 6.03369 30.1299 6.1626 30.2822L6.38525 30.5283H27.0454H47.7056L47.9399 30.2236C48.2563 29.8252 48.2563 29.3564 47.9399 28.958L47.7056 28.6533H27.0454H6.38525L6.1626 28.8994Z" fill="#DBDBDB"/>
<path d="M19.7027 5.73535C19.2456 6.05176 19.2574 6.50879 19.7378 7.43457C20.1714 8.29004 20.3472 9.13379 20.2066 9.70801C20.1128 10.1064 19.5503 10.6338 18.9175 10.9385C18.4019 11.1729 18.2261 11.1846 14.3589 11.1846C10.4214 11.1846 10.3277 11.1963 10.105 11.4307C9.81204 11.7471 9.81204 12.4971 10.105 12.8135C10.3042 13.0361 10.48 13.0596 12.1089 13.083L13.8902 13.1182L12.73 14.958L11.5581 16.8096H10.6089C7.71438 16.8096 4.73782 17.9346 2.96829 19.6807C1.70266 20.9463 0.894069 22.4463 0.495631 24.3096C0.261256 25.3994 0.284694 25.9736 0.577663 26.3486L0.812038 26.6533H26.8159H52.8199L53.0542 26.3486C53.3706 25.9502 53.3706 25.4814 53.0542 25.083L52.8199 24.7783H49.1636L45.5074 24.7666L46.4449 24.2744C49.1167 22.8447 51.5894 20.8525 53.1831 18.8604C53.8745 17.9814 53.9566 17.4541 53.4761 16.9854L53.1949 16.6924H48.3902H43.5855L43.1988 16.3643C40.0933 13.7158 35.4175 11.501 32.1831 11.126C31.6206 11.0674 31.3628 10.9502 30.6597 10.4346C30.1909 10.1064 29.23 9.40332 28.5152 8.89941C27.812 8.39551 26.4761 7.43457 25.562 6.7666L23.898 5.55957H21.9292C20.3589 5.55957 19.9019 5.59473 19.7027 5.73535ZM25.4917 9.2041C26.8277 10.1768 27.9761 11.0205 28.0347 11.0791C28.105 11.1377 26.8277 11.1846 24.9761 11.1846H21.7886L22.0113 10.6807C22.3394 9.94238 22.4097 9.13379 22.2105 8.21973L22.0464 7.43457H22.5503C23.0191 7.43457 23.2534 7.5752 25.4917 9.2041ZM33.1441 13.3291C33.5659 13.4346 34.1988 13.6221 34.5503 13.751L35.1949 13.9854H33.1909C31.3159 13.9971 31.1753 14.0088 30.9644 14.2432C30.6714 14.5596 30.6714 15.3096 30.9644 15.626C31.187 15.8604 31.2925 15.8721 35.0659 15.8721H38.9449L39.5894 16.3057L40.2339 16.751L27.1792 16.7861C19.9956 16.7979 14.1011 16.7861 14.0659 16.751C14.0308 16.7275 14.1363 16.4932 14.3003 16.2588C15.0152 15.1924 16.1753 13.3643 16.2339 13.2119C16.3394 12.9541 32.0542 13.0596 33.1441 13.3291ZM50.3003 19.0479C50.1128 19.2471 49.6206 19.6807 49.1988 20.0322C46.4566 22.2705 43.1519 23.7822 39.5894 24.4385L38.1245 24.708L20.2769 24.7549L2.41751 24.79L2.49954 24.4033C2.65188 23.7354 3.01516 22.8916 3.46048 22.2236C4.80813 20.208 7.02298 19.0713 10.1402 18.8135C10.773 18.7549 20.148 18.708 30.9644 18.6963L50.6519 18.6846L50.3003 19.0479Z" fill="#DBDBDB"/>
<path d="M16.4326 12.1652C16.3037 12.3716 16.21 12.7208 16.21 13.1017C16.21 13.4827 16.3037 13.8319 16.4326 14.0382C16.6553 14.3716 16.7373 14.3716 21.8467 14.3716H27.0381L27.2725 13.9589C27.5889 13.4192 27.5889 12.7843 27.2725 12.2446L27.0381 11.8319H21.8467C16.7373 11.8319 16.6553 11.8319 16.4326 12.1652Z" fill="#127384"/>
<path d="M9.16699 20.4191C9.03809 20.6255 8.94434 20.9747 8.94434 21.3556C8.94434 22.308 9.2373 22.6255 10.1279 22.6255C10.7842 22.6255 10.8896 22.5779 11.1006 22.2128C11.2412 21.9747 11.3467 21.5937 11.3467 21.3556C11.3467 21.1176 11.2412 20.7366 11.1006 20.4985C10.8896 20.1334 10.7842 20.0858 10.1279 20.0858C9.53027 20.0858 9.35449 20.1493 9.16699 20.4191Z" fill="#FFA633"/>
<path d="M12.917 20.4191C12.7881 20.6255 12.6943 20.9747 12.6943 21.3556C12.6943 22.308 12.9873 22.6255 13.8779 22.6255C14.5342 22.6255 14.6396 22.5779 14.8506 22.2128C14.9912 21.9747 15.0967 21.5937 15.0967 21.3556C15.0967 21.1176 14.9912 20.7366 14.8506 20.4985C14.6396 20.1334 14.5342 20.0858 13.8779 20.0858C13.2803 20.0858 13.1045 20.1493 12.917 20.4191Z" fill="#FFA633"/>
<path d="M16.667 20.4191C16.5381 20.6255 16.4443 20.9747 16.4443 21.3556C16.4443 22.308 16.7373 22.6255 17.6279 22.6255C18.2842 22.6255 18.3896 22.5779 18.6006 22.2128C18.7412 21.9747 18.8467 21.5937 18.8467 21.3556C18.8467 21.1176 18.7412 20.7366 18.6006 20.4985C18.3896 20.1334 18.2842 20.0858 17.6279 20.0858C17.0303 20.0858 16.8545 20.1493 16.667 20.4191Z" fill="#FFA633"/>
<path d="M20.417 20.4191C20.2881 20.6255 20.1943 20.9747 20.1943 21.3556C20.1943 22.308 20.4873 22.6255 21.3779 22.6255C22.0342 22.6255 22.1396 22.5779 22.3506 22.2128C22.4912 21.9747 22.5967 21.5937 22.5967 21.3556C22.5967 21.1176 22.4912 20.7366 22.3506 20.4985C22.1396 20.1334 22.0342 20.0858 21.3779 20.0858C20.7803 20.0858 20.6045 20.1493 20.417 20.4191Z" fill="#FFA633"/>
</svg>
