<svg width="41" height="42" viewBox="0 0 41 42" fill="none" xmlns="http://www.w3.org/2000/svg">
<path d="M18.4306 3.15372V5.77734H15.2048H11.979V7.08915V8.39276L16.7532 8.41735L21.5354 8.44195L22.2612 8.67152C23.3015 8.99127 24.5111 9.63078 25.2934 10.2703C26.5917 11.3443 27.2853 12.4184 28.3901 15.0912L28.874 16.2554L29.4304 16.3128C30.8013 16.444 32.5191 17.1901 33.6803 18.1411C34.9787 19.2152 35.6803 20.3056 36.7771 22.9702L37.2609 24.1427H38.8093H40.3657V24.7986V25.4545H39.7206H39.0754V26.7663V28.0781H39.7206H40.3657V29.8654V31.6528L39.9383 32.2759C38.8577 33.8746 37.3819 35.5144 36.0109 36.6294C32.9949 39.0973 29.2288 40.6878 25.4305 41.106C24.9224 41.1634 21.2208 41.1962 15.0193 41.1962C4.34207 41.1962 5.08399 41.2372 3.97917 40.6468C3.37434 40.3271 2.50338 39.458 2.22113 38.9005C2.05984 38.5807 2.04372 38.5726 1.63243 38.5726C1.13244 38.5726 0.761475 38.3758 0.527607 37.9822C0.390511 37.7445 0.366322 37.5641 0.366322 36.6048C0.366322 35.6538 0.390511 35.4652 0.527607 35.2356C0.737282 34.8831 1.04373 34.6945 1.47114 34.6371L1.82597 34.5961L2.05984 33.8828C2.50338 32.5546 3.1566 31.4806 4.12433 30.5049C4.73722 29.89 5.84204 29.1029 6.43881 28.8488L6.81784 28.693V26.8237C6.81784 25.2577 6.84203 24.815 6.98719 24.1181C7.23719 22.8636 7.83395 21.4371 8.56781 20.3876L8.68878 20.2072H5.23721C2.03565 20.2072 1.7534 20.1908 1.45501 20.0515C0.761475 19.7235 0.366322 19.0676 0.366322 18.2395C0.366322 17.6492 0.519547 17.2311 0.874378 16.8621C1.40663 16.2964 1.2534 16.321 5.14044 16.2718L8.66458 16.2308L7.23719 14.2877L5.80979 12.3446L3.79369 12.3364C1.54372 12.3282 1.38243 12.3036 0.874378 11.7543C0.519547 11.3689 0.366322 10.959 0.366322 10.3687C0.366322 9.54059 0.761475 8.88469 1.45501 8.55674C1.7534 8.41735 2.06791 8.40096 6.22913 8.40096H10.6887V4.46553V0.530109H14.5597H18.4306V3.15372ZM11.979 3.15372V4.46553H14.5597H17.1403V3.15372V1.84192H14.5597H11.979V3.15372ZM11.979 10.3687V11.0164L16.5919 11.041L21.2128 11.0656L21.8821 11.3033C22.7047 11.5903 23.4386 12.0658 24.0837 12.7053C24.7289 13.353 25.0676 13.8942 25.5837 15.1158C25.8256 15.6815 26.0514 16.1816 26.0837 16.2144C26.1159 16.2472 26.4224 16.2718 26.753 16.2554L27.3659 16.2308L26.7853 14.878C26.4466 14.0745 26.0353 13.2628 25.7772 12.8939C24.6079 11.1722 22.6805 9.99972 20.7128 9.80295C20.3176 9.77016 18.1967 9.72916 15.9871 9.72096L11.979 9.71277V10.3687ZM2.10017 9.82755C1.80178 9.95873 1.68082 10.2211 1.76952 10.5818C1.88242 11.0164 2.0034 11.0246 6.53558 11.0246H10.6887V10.3687V9.71277H6.53558C3.10822 9.71277 2.32597 9.73736 2.10017 9.82755ZM11.979 14.3041V16.2718H18.2693C24.2208 16.2718 24.5514 16.2636 24.5031 16.1242C24.3095 15.5421 23.616 14.2713 23.3176 13.9188C22.6079 13.1153 21.5918 12.5659 20.5434 12.4266C20.2451 12.3856 18.1967 12.3528 15.9871 12.3446L11.979 12.3364V14.3041ZM7.76137 12.6479C9.74521 15.3863 10.4226 16.2636 10.5436 16.2718C10.6807 16.2718 10.6887 16.1242 10.6887 14.3041V12.3364H9.10813H7.5275L7.76137 12.6479ZM2.10017 17.6984C1.66469 17.887 1.60823 18.5183 2.00339 18.7478C2.14049 18.8298 4.96302 18.8626 15.8903 18.8954L29.5998 18.9364L30.2691 19.1742C31.0917 19.4611 31.8255 19.9367 32.4707 20.5762C33.1158 21.2239 33.4545 21.765 33.9707 22.9866C34.2126 23.5523 34.4384 24.0525 34.4706 24.0853C34.5029 24.1181 34.8094 24.1427 35.14 24.1263L35.7529 24.1017L35.1723 22.7489C34.4545 21.0681 34.1561 20.5926 33.2771 19.7153C32.0997 18.5429 30.6401 17.8296 29.0998 17.6738C28.7127 17.641 22.5353 17.6 15.3822 17.5918C4.25336 17.5836 2.33403 17.6 2.10017 17.6984ZM15.9951 20.2892C14.5758 20.4368 13.2774 21.0845 12.3258 22.1258C11.1162 23.4294 10.6968 24.7576 10.6887 27.2336V28.0781H16.4951H22.3015V26.7663V25.4545H21.6563H21.0112V24.7986V24.1427H26.9788C32.6239 24.1427 32.9384 24.1345 32.89 23.9951C32.6965 23.413 32.0029 22.1422 31.7046 21.7896C30.9949 20.9861 29.9788 20.4368 28.9304 20.2974C28.1965 20.199 16.8741 20.1908 15.9951 20.2892ZM10.2291 20.5598C9.52747 21.3305 8.92264 22.4127 8.56781 23.5277C8.26136 24.4952 8.18878 25.0035 8.13233 26.7171L8.08395 28.2667L8.32588 28.2175C8.46297 28.1929 8.75329 28.1437 8.98716 28.1109L9.39844 28.0535V26.6105C9.39844 25.0527 9.48715 24.4214 9.84199 23.4786C10.2371 22.4291 11.0194 21.3059 11.842 20.609L12.3178 20.2072H11.4307H10.5517L10.2291 20.5598ZM35.2045 26.7663V28.0781H36.4948H37.7851V26.7663V25.4545H36.4948H35.2045V26.7663ZM31.3336 26.7663V28.0781H32.6239H33.9142V26.7663V25.4545H32.6239H31.3336V26.7663ZM27.4627 26.7663V28.0781H28.753H30.0433V26.7663V25.4545H28.753H27.4627V26.7663ZM23.5918 26.7663V28.0781H24.8821H26.1724V26.7663V25.4545H24.8821H23.5918V26.7663ZM8.33394 29.6523C7.62428 29.849 6.64848 30.2836 6.22107 30.5787C6.07591 30.6853 8.10007 30.7017 22.5676 30.7017H39.0754V30.0458V29.3817L24.0918 29.4063L9.11619 29.4309L8.33394 29.6523ZM4.26142 32.5218C3.93885 33.0138 3.42273 34.055 3.30983 34.4486L3.26144 34.6371H5.90656C8.40652 34.6371 8.56781 34.6453 8.81781 34.8011C9.3178 35.1127 9.39844 35.3668 9.39844 36.6048C9.39844 37.8429 9.3178 38.097 8.81781 38.4086C8.56781 38.5644 8.39846 38.5726 6.09204 38.5726L3.6324 38.5807L4.03562 38.9579C4.55981 39.4498 5.10818 39.6958 5.89849 39.8106C6.33397 39.868 9.44683 39.8844 15.608 39.8598C25.3659 39.827 25.2369 39.827 27.3014 39.3842C29.253 38.9579 31.8013 37.8593 33.511 36.7114C35.1884 35.58 36.7206 34.178 37.9383 32.6448L38.4383 32.0135H21.5192H4.60013L4.26142 32.5218ZM1.65662 36.6048V37.2607H4.88238H8.10814V36.6048V35.9489H4.88238H1.65662V36.6048Z" fill="#DBDBDB"/>
<path d="M30.0435 22.1752V22.8311H29.3983H28.7532V22.1752V21.5192H29.3983H30.0435V22.1752Z" fill="#151515"/>
<path d="M27.4629 22.1752V22.8311H26.8177H26.1726V22.1752V21.5192H26.8177H27.4629V22.1752Z" fill="#FFA633"/>
<path d="M24.8823 22.1752V22.8311H24.2372H23.592V22.1752V21.5192H24.2372H24.8823V22.1752Z" fill="#151515"/>
<path d="M22.3013 22.1752V22.8311H21.6561H21.011V22.1752V21.5192H21.6561H22.3013V22.1752Z" fill="#127384"/>
<path d="M19.7207 22.1752V22.8311H19.0756H18.4304V22.1752V21.5192H19.0756H19.7207V22.1752Z" fill="#151515"/>
<path d="M17.1401 22.1752V22.8311H16.495H15.8498V22.1752V21.5192H16.495H17.1401V22.1752Z" fill="#151515"/>
<path d="M18.4307 24.7987V25.4546H17.7855H17.1404V24.7987V24.1428H17.7855H18.4307V24.7987Z" fill="#127384"/>
<path d="M15.8501 24.7987V25.4546H15.2049H14.5598V24.7987V24.1428H15.2049H15.8501V24.7987Z" fill="#FFA633"/>
<path d="M13.2695 24.7987V25.4546H12.6244H11.9792V24.7987V24.1428H12.6244H13.2695V24.7987Z" fill="#151515"/>
<path d="M26.3742 34.7931C27.0758 35.1211 27.4629 35.777 27.4629 36.6214C27.4548 37.7857 26.6806 38.5728 25.5274 38.5728C24.3662 38.5728 23.592 37.7857 23.592 36.605C23.592 35.7524 24.0194 35.0719 24.7371 34.7685C25.1565 34.5881 25.971 34.6045 26.3742 34.7931ZM25.1242 36.1951C24.7774 36.5476 25.0355 37.179 25.5274 37.179C25.8339 37.179 26.0919 36.9166 26.0919 36.605C26.0919 36.2935 25.8339 36.0311 25.5274 36.0311C25.3903 36.0311 25.2129 36.1049 25.1242 36.1951Z" fill="#FFA633"/>
<path d="M21.2126 34.7931C21.9142 35.1211 22.3013 35.777 22.3013 36.6214C22.2932 37.7857 21.519 38.5728 20.3658 38.5728C19.2045 38.5728 18.4304 37.7857 18.4304 36.605C18.4304 35.7524 18.8578 35.0719 19.5755 34.7685C19.9949 34.5881 20.8094 34.6045 21.2126 34.7931ZM19.9626 36.1951C19.6158 36.5476 19.8739 37.179 20.3658 37.179C20.6723 37.179 20.9303 36.9166 20.9303 36.605C20.9303 36.2935 20.6723 36.0311 20.3658 36.0311C20.2287 36.0311 20.0513 36.1049 19.9626 36.1951Z" fill="#127384"/>
<path d="M16.0514 34.7931C16.753 35.1211 17.1401 35.777 17.1401 36.6214C17.1321 37.7857 16.3579 38.5728 15.2047 38.5728C14.0434 38.5728 13.2692 37.7857 13.2692 36.605C13.2692 35.7524 13.6966 35.0719 14.4144 34.7685C14.8337 34.5881 15.6482 34.6045 16.0514 34.7931ZM14.8015 36.1951C14.4547 36.5476 14.7128 37.179 15.2047 37.179C15.5111 37.179 15.7692 36.9166 15.7692 36.605C15.7692 36.2935 15.5111 36.0311 15.2047 36.0311C15.0676 36.0311 14.8902 36.1049 14.8015 36.1951Z" fill="#FFA633"/>
</svg>
