<svg width="34" height="41" viewBox="0 0 34 41" fill="none" xmlns="http://www.w3.org/2000/svg">
<path d="M26.2387 0.484871C26.145 0.578594 25.7779 1.2737 25.4108 2.03129L24.7548 3.39807L23.3802 4.04632C21.9666 4.7258 21.7401 4.88201 21.6541 5.24127L21.5995 5.45996H14.8124H8.03319L7.83794 5.63178C7.45524 5.98324 0.738482 14.098 0.636949 14.3323C0.566658 14.5041 0.558848 14.6525 0.605709 14.8244C0.64476 14.9571 1.73818 16.4098 3.03467 18.05C4.33116 19.6979 5.4324 21.0881 5.47145 21.1428C5.52612 21.2131 5.46364 21.4318 5.26058 21.8848L4.9716 22.5252L3.49548 23.2437C2.14431 23.892 2.00373 23.9779 1.87877 24.2356C1.76162 24.4934 1.75381 24.5559 1.85534 24.8526C1.97249 25.1807 1.9803 25.1885 3.46423 25.9148L4.96379 26.6412L5.65109 28.0861C6.03378 28.8827 6.40867 29.5778 6.49459 29.6403C6.76013 29.8199 7.34589 29.7809 7.54115 29.57C7.63487 29.4685 8.02538 28.7577 8.40808 27.9845C9.03289 26.7115 9.11881 26.5787 9.36092 26.4928C9.5718 26.4147 9.64209 26.4147 9.71238 26.4928C9.75924 26.5396 11.29 28.4688 13.102 30.7649C14.9218 33.0611 16.4604 34.9824 16.5307 35.0371C16.7337 35.1933 17.3429 35.1621 17.5304 34.9903C17.9053 34.6388 33.346 15.0431 33.4007 14.8478C33.4319 14.7306 33.4319 14.5276 33.4007 14.3948C33.3616 14.2542 32.3307 12.9577 30.878 11.2239L28.4256 8.28724L28.6208 7.8733L28.8083 7.45156L30.261 6.74864C31.0576 6.36594 31.7527 5.98324 31.8152 5.89733C31.9558 5.68645 31.9558 5.14755 31.8074 4.93668C31.7449 4.85077 31.0498 4.46026 30.261 4.07756L28.8239 3.37464L28.121 1.92194C27.6914 1.05502 27.3478 0.438011 27.254 0.391151C26.9651 0.234947 26.4262 0.281807 26.2387 0.484871ZM27.6211 4.55398C27.6914 4.63208 28.0741 4.85858 28.4724 5.06164L29.1988 5.42091L28.4021 5.81142L27.6133 6.20193L27.1994 7.022L26.7854 7.84206L26.4184 7.08448C26.2231 6.66273 25.9732 6.2566 25.8716 6.1785C25.7701 6.10039 25.3796 5.89733 25.0047 5.72551L24.3252 5.42872L25.1375 5.0304L25.9497 4.63989L26.3715 3.81982L26.7932 3.00756L27.1369 3.70267C27.3321 4.09318 27.5508 4.46807 27.6211 4.55398ZM12.5943 7.35002C12.5319 7.53747 12.0554 9.03702 11.54 10.6928C11.0167 12.3485 10.5637 13.7231 10.5324 13.7622C10.5012 13.7934 8.82983 13.809 6.82261 13.8012L3.17526 13.7778L5.99473 10.396L8.8064 7.022H10.7511H12.7037L12.5943 7.35002ZM20.0062 8.36535C21.0684 11.7159 21.6932 13.7153 21.6932 13.7622C21.6932 13.7934 19.5844 13.8169 17.0071 13.8169C14.4297 13.8169 12.321 13.7934 12.321 13.7622C12.321 13.7153 12.9458 11.7159 14.008 8.36535L14.4375 7.022H17.0071H19.5766L20.0062 8.36535ZM24.3174 7.23287L24.7626 7.45156L25.4421 8.8652C25.856 9.72432 26.1919 10.3257 26.309 10.4038C26.5902 10.6069 27.1291 10.5756 27.3478 10.3569C27.4493 10.2554 27.543 10.1226 27.5665 10.0602C27.6211 9.91176 27.5899 9.87271 29.3472 11.9815L30.8389 13.7778L27.1838 13.8012C25.1765 13.809 23.513 13.7934 23.4817 13.7622C23.4505 13.7231 22.9975 12.3485 22.4742 10.6928C21.9587 9.03702 21.4823 7.53747 21.4198 7.35002L21.3105 7.022H22.5914C23.8332 7.022 23.8879 7.02981 24.3174 7.23287ZM10.7121 16.0974C12.2819 21.2912 14.9686 30.3276 14.9452 30.351C14.9296 30.3666 14.1329 29.3904 13.1723 28.172C12.2116 26.9614 11.3603 25.8914 11.2822 25.7899C11.1416 25.6102 11.1416 25.6102 11.4384 25.4775C11.9695 25.2353 12.1648 25.001 12.1648 24.5949C12.1648 24.3996 12.1179 24.1653 12.0554 24.0794C11.993 23.9935 11.29 23.6108 10.5012 23.2281L9.05632 22.5408L8.32998 21.0491C7.60363 19.5651 7.59582 19.5573 7.26779 19.4402C6.97101 19.3387 6.90852 19.3465 6.6586 19.4636L6.38524 19.5964L5.62766 18.6357C5.21372 18.1125 4.47175 17.183 3.98752 16.566L3.10497 15.457H6.80699H10.5168L10.7121 16.0974ZM21.7479 15.5507C21.7322 15.6054 21.4589 16.4957 21.1543 17.5267C20.5295 19.5886 20.5139 19.7604 20.92 20.0962C21.3652 20.4789 21.9822 20.2993 22.193 19.737C22.2633 19.5495 22.5836 18.5264 22.896 17.4642C23.2162 16.3942 23.4895 15.5039 23.513 15.4882C23.5286 15.4726 25.1922 15.4648 27.2072 15.4726L30.878 15.496L24.9891 22.9391C21.7479 27.0317 19.0846 30.3666 19.069 30.351C19.0534 30.3354 19.3033 29.445 19.6235 28.375C19.9437 27.305 20.2093 26.3288 20.2093 26.2116C20.2093 25.4931 19.3658 25.126 18.8347 25.618C18.7253 25.7196 18.4363 26.5787 17.8584 28.5C17.4132 29.9995 17.0305 31.2336 17.0071 31.2336C16.9837 31.2336 15.9137 27.7268 14.6328 23.439C13.3519 19.159 12.2819 15.6054 12.2663 15.5507C12.2351 15.4804 13.2191 15.457 17.0071 15.457C20.8028 15.457 21.7791 15.4804 21.7479 15.5507ZM7.43962 22.9782L7.83013 23.7748L8.6502 24.1732L9.47026 24.5715L8.6502 24.9932L7.83013 25.415L7.40838 26.235L6.98663 27.0551L6.58831 26.235L6.18999 25.415L5.39335 25.0245C4.95598 24.8058 4.59671 24.6183 4.5889 24.5949C4.5889 24.5715 4.94817 24.3762 5.39335 24.1497L6.18999 23.7514L6.5805 22.9626C6.79137 22.533 6.98663 22.1737 7.01006 22.1737C7.03349 22.1737 7.22874 22.533 7.43962 22.9782Z" fill="#0A152F"/>
<path d="M20.0926 22.0879C19.788 22.2129 19.624 22.4863 19.624 22.8533C19.624 23.1501 19.6631 23.236 19.8818 23.4313C20.4285 23.9155 21.2251 23.5641 21.2251 22.8377C21.2251 22.2441 20.6472 21.8693 20.0926 22.0879Z" fill="#FFA633"/>
<path d="M25.8637 30.0151C25.6607 30.1088 25.5201 30.3275 24.8953 31.6084L24.1689 33.0923L22.7319 33.7796C21.9352 34.1623 21.2401 34.5372 21.1776 34.6231C20.998 34.8886 21.037 35.4744 21.2479 35.6697C21.3494 35.7634 22.0446 36.1383 22.7943 36.5054L24.1533 37.1614L24.8406 38.5516C25.2233 39.317 25.606 40.0199 25.6997 40.1137C25.8872 40.3245 26.4807 40.3636 26.7385 40.1839C26.8244 40.1215 27.2071 39.4185 27.5898 38.6219L28.2849 37.177L29.7532 36.4741C31.0575 35.8415 31.2371 35.74 31.3465 35.4978C31.5105 35.162 31.4402 34.7324 31.1903 34.5372C31.0966 34.4591 30.4014 34.0998 29.6517 33.7405L28.2927 33.0767L27.5898 31.6396C26.7463 29.8979 26.551 29.7183 25.8637 30.0151ZM27.8553 34.709C28.2927 34.9199 28.6442 35.1151 28.6442 35.1386C28.6442 35.162 28.2849 35.3494 27.8397 35.5681L27.0431 35.9586L26.6448 36.7787L26.2464 37.591L25.8247 36.7787L25.4029 35.9586L24.5829 35.5369L23.7628 35.1151L24.5829 34.7168L25.4029 34.3185L25.8247 33.4984L26.2464 32.6862L26.6526 33.4984L27.0665 34.3185L27.8553 34.709Z" fill="#127384"/>
</svg>
