<svg width="41" height="41" viewBox="0 0 41 41" fill="none" xmlns="http://www.w3.org/2000/svg">
<g clip-path="url(#clip0_3584_72102)">
<path d="M18.8252 2.03442C17.4814 3.37817 17.3174 3.57349 17.3174 3.80005C17.3174 4.15161 17.4268 4.32349 17.708 4.42505C18.083 4.55005 18.2939 4.42505 19.2158 3.51099L20.0518 2.67505V5.51099V8.34692L20.2471 8.53442C20.4971 8.79224 20.8564 8.79224 21.1064 8.53442L21.3018 8.34692V5.51099V2.67505L22.1455 3.51099C23.0596 4.42505 23.2705 4.55005 23.6455 4.42505C23.9268 4.32349 24.0361 4.15161 24.0361 3.80005C24.0361 3.57349 23.8721 3.37817 22.5283 2.03442C21.0283 0.534424 21.0205 0.526611 20.6768 0.526611C20.333 0.526611 20.3252 0.534424 18.8252 2.03442Z" fill="#0A152F"/>
<path d="M11.7939 5.3938C10.4111 6.77661 10.2861 6.92505 10.2861 7.17505C10.2939 7.48755 10.4189 7.68286 10.7002 7.78442C11.0361 7.91724 11.2783 7.7688 12.1846 6.87036L13.0205 6.03442V8.87036V11.7063L13.2158 11.8938C13.4658 12.1516 13.8252 12.1516 14.0752 11.8938L14.2705 11.7063V8.8313V5.9563L15.1924 6.86255C15.6924 7.36255 16.1689 7.79224 16.2393 7.81567C16.4268 7.88599 16.833 7.72974 16.9268 7.55786C16.9736 7.47974 17.0049 7.30005 17.0049 7.15942C17.0049 6.93286 16.833 6.73755 15.4971 5.3938C13.4893 3.37817 13.8096 3.37817 11.7939 5.3938Z" fill="#0A152F"/>
<path d="M25.8564 5.3938C24.5205 6.73755 24.3486 6.93286 24.3486 7.15942C24.3486 7.30005 24.3799 7.47974 24.4268 7.55786C24.5205 7.72974 24.9268 7.88599 25.1143 7.81567C25.1846 7.79224 25.6611 7.36255 26.1689 6.86255L27.083 5.9563V8.8313V11.7063L27.2783 11.8938C27.5283 12.1516 27.8877 12.1516 28.1377 11.8938L28.333 11.7063V8.87036V6.03442L29.1768 6.87036C30.0752 7.7688 30.3174 7.91724 30.6533 7.78442C30.9346 7.68286 31.0596 7.48755 31.0674 7.17505C31.0674 6.92505 30.9424 6.77661 29.5596 5.3938C27.5439 3.37817 27.8643 3.37817 25.8564 5.3938Z" fill="#0A152F"/>
<path d="M6.31715 9.39388C5.99684 9.79232 6.15309 10.2533 6.64528 10.3783C6.82496 10.4173 7.12965 10.5033 7.32496 10.5658C7.84059 10.7298 8.07496 10.7142 8.29371 10.4876C8.84059 9.94857 8.18434 9.30013 6.99684 9.21419C6.51246 9.18294 6.4734 9.19075 6.31715 9.39388Z" fill="#0A152F"/>
<path d="M33.9189 9.25308C32.9892 9.47964 32.5986 10.0343 33.0596 10.4875C33.2783 10.714 33.5361 10.7296 33.9971 10.5734C34.1689 10.5109 34.4424 10.4406 34.6064 10.4093C35.1611 10.3234 35.3799 9.82339 35.0439 9.40152C34.9033 9.22964 34.833 9.19839 34.4814 9.2062C34.2549 9.21402 34.0049 9.23745 33.9189 9.25308Z" fill="#0A152F"/>
<path d="M4.49707 9.66719C4.34082 9.74532 4.05176 9.96407 3.84863 10.1516C3.52051 10.4406 3.47363 10.5266 3.47363 10.7922C3.47363 11.4484 4.09863 11.6281 4.66113 11.1281C4.8252 10.9719 5.06738 10.7922 5.2002 10.7219C5.6377 10.5031 5.73145 10.0266 5.40332 9.70626C5.17676 9.47188 4.8877 9.46407 4.49707 9.66719Z" fill="#0A152F"/>
<path d="M18.9736 9.7063C18.2549 9.93286 18.0986 10.0735 18.0986 10.4641C18.0986 10.8235 18.3174 11.0735 18.6299 11.0735C18.9658 11.0657 20.0283 10.7297 20.208 10.5657C20.5674 10.2375 20.2627 9.50317 19.7627 9.51099C19.6455 9.5188 19.2861 9.60474 18.9736 9.7063Z" fill="#0A152F"/>
<path d="M21.1847 9.7063C20.9347 9.94849 20.919 10.3625 21.1456 10.5657C21.3253 10.7297 22.3878 11.0657 22.7315 11.0735C23.0362 11.0735 23.255 10.8235 23.255 10.4641C23.255 10.0657 23.0987 9.93286 22.3565 9.69849C21.6144 9.46411 21.419 9.46411 21.1847 9.7063Z" fill="#0A152F"/>
<path d="M35.9502 9.7062C35.6221 10.0265 35.7158 10.5031 36.1533 10.7218C36.2861 10.7921 36.5283 10.9796 36.708 11.1359C37.2549 11.6359 37.8799 11.4484 37.8799 10.7921C37.8799 10.5265 37.833 10.4406 37.5049 10.1515C36.8017 9.51089 36.2861 9.36245 35.9502 9.7062Z" fill="#0A152F"/>
<path d="M8.9426 10.7141C8.86448 10.7688 8.77073 10.9094 8.72385 11.0266C8.60666 11.3391 8.77854 11.6594 9.33323 12.1829C9.70041 12.5344 9.85666 12.636 10.052 12.636C10.3957 12.636 10.5676 12.5266 10.6692 12.2454C10.7864 11.9016 10.6926 11.7297 10.0676 11.1282C9.49729 10.5813 9.23948 10.4875 8.9426 10.7141Z" fill="#0A152F"/>
<path d="M31.2625 11.1594C30.95 11.4641 30.6766 11.7923 30.6609 11.8938C30.6141 12.1282 30.7781 12.5188 30.95 12.5891C31.3094 12.7219 31.5438 12.636 32.0203 12.1829C32.7391 11.4954 32.8563 11.1438 32.4734 10.761C32.1688 10.4563 31.8875 10.5501 31.2625 11.1594Z" fill="#0A152F"/>
<path d="M16.9188 10.9407C16.6844 11.0422 16.1297 11.6672 15.95 12.011C15.7938 12.3157 15.8016 12.4953 15.9969 12.7453C16.2078 13.0188 16.7 13.0344 16.9188 12.7688C17.0047 12.675 17.2313 12.4094 17.4266 12.175C17.6922 11.8547 17.786 11.6828 17.786 11.4875C17.786 11.2453 17.5672 10.9172 17.4031 10.9172C17.3641 10.9172 17.286 10.9016 17.2235 10.8782C17.1688 10.8625 17.0281 10.886 16.9188 10.9407Z" fill="#0A152F"/>
<path d="M23.7237 11.0891C23.4581 11.3703 23.5206 11.6907 23.9269 12.175C24.1222 12.4094 24.3487 12.675 24.4347 12.7688C24.6534 13.0344 25.1456 13.0188 25.3565 12.7453C25.6456 12.3782 25.5284 12.0188 24.8722 11.3313C24.5362 10.9719 24.4425 10.9172 24.1847 10.9172C23.9815 10.9172 23.8331 10.9719 23.7237 11.0891Z" fill="#0A152F"/>
<path d="M4.68457 11.6985C4.47363 11.7844 4.34863 12.011 4.34863 12.3C4.34863 12.4641 4.48145 12.6516 4.91113 13.0813C5.40332 13.5813 5.5127 13.6516 5.7627 13.6516C6.11426 13.6516 6.37988 13.3938 6.37988 13.0422C6.37988 12.8547 6.27832 12.6907 5.93457 12.3235C5.33301 11.675 5.0752 11.5422 4.68457 11.6985Z" fill="#0A152F"/>
<path d="M36.0283 11.761C35.9033 11.8391 35.6064 12.1125 35.3877 12.3547C35.0674 12.7063 34.9736 12.8625 34.9736 13.0579C34.9736 13.4094 35.2158 13.6516 35.583 13.6516C35.8408 13.6516 35.9424 13.5891 36.4424 13.0813C37.0049 12.5188 37.0908 12.3313 36.958 11.9719C36.9033 11.8391 36.5361 11.6204 36.3643 11.6204C36.3096 11.6204 36.1611 11.6829 36.0283 11.761Z" fill="#0A152F"/>
<path d="M11.0828 12.8391C10.6141 13.1672 10.7234 13.6125 11.4422 14.2922C11.8328 14.6672 11.9656 14.7454 12.1844 14.7454C12.575 14.7454 12.8172 14.5188 12.8172 14.1594C12.8172 13.9016 12.7547 13.8079 12.2234 13.2922C11.5984 12.6829 11.4109 12.6047 11.0828 12.8391Z" fill="#0A152F"/>
<path d="M29.1768 13.2375C28.5518 13.8391 28.4581 14.011 28.5753 14.3547C28.6768 14.636 28.8487 14.7454 29.1924 14.7454C29.3878 14.7454 29.544 14.6438 29.9112 14.2922C30.4737 13.761 30.6299 13.4563 30.5128 13.1204C30.4346 12.886 30.169 12.7141 29.8878 12.7141C29.794 12.7141 29.4893 12.9407 29.1768 13.2375Z" fill="#0A152F"/>
<path d="M15.4737 13.5032C15.2158 13.636 15.1143 13.9407 15.0752 14.7063C15.0362 15.3469 15.0518 15.4251 15.208 15.5891C15.3408 15.7297 15.4502 15.761 15.6924 15.7454C16.1612 15.7141 16.2783 15.5032 16.3408 14.5813C16.3799 13.9329 16.3721 13.8157 16.2471 13.6672C16.083 13.4641 15.708 13.386 15.4737 13.5032Z" fill="#0A152F"/>
<path d="M25.2784 13.5344C24.9893 13.6907 24.9659 13.8 25.0206 14.6438C25.0909 15.55 25.2159 15.761 25.6847 15.761C25.8878 15.761 26.044 15.7063 26.1534 15.5969C26.3097 15.4407 26.3175 15.3704 26.2862 14.7141C26.2393 13.9172 26.1378 13.6282 25.8565 13.5032C25.6143 13.3938 25.5284 13.4016 25.2784 13.5344Z" fill="#0A152F"/>
<path d="M6.73121 13.886C6.56715 13.9719 6.30153 14.0422 6.14528 14.0422C5.12184 14.0422 3.7234 14.8313 3.44215 15.5657C3.17653 16.2766 3.06715 16.1438 7.38746 20.4875C10.6531 23.7688 11.3562 24.511 11.7547 25.1204C12.5672 26.3469 13.1062 27.6204 13.4187 29.0266C13.5672 29.6907 13.5906 30.0969 13.6218 32.2454L13.6531 34.7063L13.4265 34.8313C13.0125 35.0579 13.0359 35.7141 13.4578 35.9016L13.6453 35.9954V37.4954C13.6453 38.3235 13.6765 39.1204 13.7234 39.2688C13.8484 39.6985 14.1687 40.0969 14.575 40.3235L14.9578 40.5266H20.6765H26.3953L26.7781 40.3235C27.1843 40.0969 27.5047 39.6985 27.6297 39.2688C27.6765 39.1204 27.7078 38.3235 27.7078 37.4954V35.9954L27.8953 35.9016C28.3172 35.7141 28.3328 35.0657 27.9343 34.8313C27.7234 34.7141 27.7078 34.675 27.7078 34.2141C27.7078 33.8 27.6765 33.6907 27.5125 33.5344C27.3953 33.4094 27.2312 33.3391 27.0828 33.3391C26.9343 33.3391 26.7703 33.4094 26.6531 33.5344L26.4578 33.7219V36.3V38.8782L26.2703 39.0969L26.0828 39.3157L23.6922 39.3391L21.3015 39.3625V34.4954V29.6282L22.1453 30.4641C22.6062 30.9172 23.0593 31.3313 23.1609 31.386C23.5672 31.5891 24.0359 31.2766 24.0359 30.8C24.0359 30.5969 23.8172 30.3469 22.489 29.0188C21.075 27.6047 20.9265 27.4797 20.6765 27.4797C20.4265 27.4797 20.2781 27.6047 18.8562 29.0266C17.5359 30.3469 17.3172 30.5969 17.3172 30.8C17.3172 31.2766 17.7859 31.5891 18.1922 31.386C18.2937 31.3313 18.7468 30.9172 19.2156 30.4641L20.0515 29.6282V34.4954V39.3625L17.6687 39.3391C15.3093 39.3157 15.2859 39.3157 15.114 39.136L14.9343 38.9563L14.8875 34.2922C14.8406 29.9719 14.825 29.5735 14.6765 28.886C14.4265 27.7375 14.1453 26.9016 13.6453 25.8782C12.8484 24.2219 12.575 23.9016 8.43434 19.7454L4.66871 15.9563L4.91871 15.7922C5.44996 15.4329 5.71559 15.3391 6.34059 15.3079C6.85621 15.2844 7.05153 15.3079 7.43434 15.4563C7.84059 15.6047 8.05934 15.7844 9.08278 16.7922C10.075 17.761 10.3015 17.9485 10.4968 17.9485C10.864 17.9485 11.1453 17.6829 11.1453 17.3391C11.1453 17.0735 11.0593 16.9641 9.95778 15.8704C9.10621 15.0344 8.63746 14.6204 8.33278 14.4719C8.0984 14.3547 7.7859 14.1516 7.64528 14.0344C7.50465 13.9094 7.35621 13.8079 7.31715 13.8079C7.2859 13.8079 7.20778 13.7922 7.14528 13.7688C7.09059 13.7454 6.90309 13.8 6.73121 13.886Z" fill="#0A152F"/>
<path d="M33.9971 13.8391C33.8643 13.8938 33.7158 14.0031 33.6533 14.0734C33.5908 14.1516 33.3252 14.3156 33.0674 14.4484C32.6611 14.6438 32.083 15.1906 29.333 17.9328C27.5361 19.7219 26.0674 21.1281 26.0674 21.0578C26.0674 20.8781 25.7705 20.6828 25.5049 20.6828C25.208 20.6828 24.9424 20.9641 24.7471 21.4875C23.9814 23.5813 21.5752 24.7844 19.4658 24.1359C16.3252 23.175 15.2783 19.3859 17.4736 16.9875C18.4971 15.8781 20.0674 15.3469 21.458 15.6359C22.9736 15.9563 24.3564 17.1203 24.7783 18.4328C24.9971 19.1125 25.458 19.3781 25.8877 19.0813C26.1533 18.8938 26.1768 18.5813 25.9658 18.0031C25.8486 17.6906 25.8018 17.4484 25.8408 17.3859C25.8799 17.3313 25.9111 17.1516 25.9111 16.9875C25.9111 16.6203 25.6924 16.3859 25.3408 16.3859C25.1377 16.3859 25.0049 16.3078 24.7002 15.9875C23.4971 14.7688 21.6689 14.1281 19.9971 14.3547C18.6846 14.5266 17.7861 14.9484 16.8096 15.8547C16.3564 16.2766 16.1924 16.3859 15.9971 16.3859C15.6611 16.3859 15.4424 16.6281 15.4424 16.9875C15.4424 17.1516 15.4736 17.3313 15.5127 17.3938C15.5596 17.4641 15.5283 17.6203 15.4424 17.8313C15.1611 18.4797 15.0283 19.3234 15.0674 20.1906L15.1064 21.0031L13.9189 19.8234C12.833 18.7453 12.7158 18.6516 12.4502 18.6516C12.1143 18.6516 11.8486 18.9328 11.8486 19.3C11.8486 19.5109 12.1299 19.8234 14.0986 21.8C16.4111 24.1281 16.8018 24.4641 17.3486 24.6281C17.5205 24.6828 17.9346 24.8547 18.2549 25.0109C19.1064 25.4094 19.7158 25.55 20.6768 25.55C21.6455 25.55 22.2314 25.4172 23.1768 24.9797C23.5439 24.8156 23.9268 24.6516 24.0361 24.6203C24.1455 24.5969 24.3564 24.5031 24.5049 24.4094C24.6533 24.3234 26.7314 22.3078 29.1143 19.9406C33.2471 15.8313 33.4736 15.6125 33.9189 15.4484C34.3018 15.3078 34.5049 15.2844 35.0127 15.3078C35.6377 15.3391 35.9033 15.4328 36.4346 15.7922L36.6846 15.9563L32.9189 19.7453C28.8643 23.8234 28.5752 24.1516 27.7939 25.7063C27.0127 27.2453 26.5752 28.8703 26.4814 30.5734C26.4346 31.4406 26.4346 31.4484 26.6377 31.6516C26.8955 31.9094 27.2549 31.925 27.5049 31.675C27.6611 31.5188 27.6924 31.3938 27.7314 30.6828C27.8486 28.6594 28.458 26.8391 29.5986 25.1203C29.9971 24.5109 30.7002 23.7688 33.9658 20.4875C37.4502 16.9875 37.8564 16.5422 37.9424 16.2375C38.0205 15.9484 38.0127 15.8391 37.9033 15.55C37.6221 14.8234 36.2158 14.0422 35.1924 14.0422C35.0283 14.0422 34.8096 13.9953 34.7158 13.9328C34.4346 13.7531 34.2471 13.7297 33.9971 13.8391Z" fill="#0A152F"/>
<path d="M13.1455 14.9875C12.9893 15.1125 12.9424 15.2141 12.9424 15.4641C12.9424 15.761 12.9893 15.8391 13.4736 16.3235C13.9346 16.7844 14.0439 16.8547 14.2861 16.8547C14.6377 16.8547 14.8799 16.6594 14.9424 16.3235C14.9893 16.0813 14.958 16.0266 14.3721 15.4485C13.6924 14.7688 13.5127 14.6985 13.1455 14.9875Z" fill="#0A152F"/>
<path d="M27.0205 15.4016C26.4893 15.9172 26.4268 16.011 26.4268 16.2688C26.4268 16.6282 26.6689 16.8547 27.0596 16.8547C27.2783 16.8547 27.4111 16.7766 27.8018 16.4016C28.5049 15.7375 28.6221 15.3157 28.1924 14.9797C27.8486 14.7063 27.6611 14.7766 27.0205 15.4016Z" fill="#0A152F"/>
<path d="M18.9657 18.1517C18.7782 18.3861 18.7392 19.0579 18.8876 19.3861C19.0673 19.7767 19.6923 19.8314 19.9345 19.4876C20.0126 19.3782 20.0517 19.1361 20.0517 18.8079C20.0517 18.3626 20.0282 18.2611 19.872 18.1204C19.6063 17.8704 19.1767 17.8861 18.9657 18.1517Z" fill="#0A152F"/>
<path d="M21.4736 18.1282C21.333 18.2767 21.3018 18.4017 21.3018 18.8157C21.3018 19.1361 21.3408 19.3782 21.4189 19.4876C21.6611 19.8314 22.2861 19.7767 22.4658 19.3861C22.6143 19.0579 22.5752 18.3861 22.3877 18.1517C22.1768 17.8782 21.7158 17.8704 21.4736 18.1282Z" fill="#0A152F"/>
<path d="M3.4502 19.6282C3.28613 19.7922 3.25488 19.886 3.25488 20.3157C3.25488 20.9719 3.43457 21.2297 3.8877 21.2297C4.36426 21.2297 4.50488 21.0344 4.50488 20.3704C4.50488 19.886 4.48145 19.7922 4.30957 19.6282C4.19238 19.5032 4.02832 19.4329 3.87988 19.4329C3.73145 19.4329 3.56738 19.5032 3.4502 19.6282Z" fill="#0A152F"/>
<path d="M37.0439 19.6282C36.8721 19.7922 36.8486 19.886 36.8486 20.3704C36.8486 21.0344 36.9893 21.2297 37.4658 21.2297C37.9189 21.2297 38.0986 20.9719 38.0986 20.3157C38.0986 19.886 38.0674 19.7922 37.9033 19.6282C37.7861 19.5032 37.6221 19.4329 37.4736 19.4329C37.3252 19.4329 37.1611 19.5032 37.0439 19.6282Z" fill="#0A152F"/>
<path d="M19.1064 20.5345C18.9658 20.6752 18.9424 20.7689 18.9736 21.1517C19.0205 21.7767 19.2861 22.1674 19.8564 22.4408C20.2393 22.6361 20.3564 22.6517 20.8643 22.6205C21.7861 22.558 22.3174 22.1283 22.4893 21.2767C22.5752 20.8783 22.5674 20.8236 22.4268 20.6283C22.0986 20.1908 21.3018 20.3783 21.3018 20.8939C21.3018 21.1439 21.0361 21.3861 20.7471 21.3861C20.3955 21.3861 20.2314 21.2689 20.1768 20.9564C20.1455 20.8002 20.0518 20.6049 19.9658 20.5189C19.7627 20.3158 19.3174 20.3236 19.1064 20.5345Z" fill="#0A152F"/>
<path d="M3.82516 22.2844C3.48141 22.4329 3.43454 22.6829 3.59079 23.4875C3.73922 24.2297 3.92672 24.511 4.2861 24.511C4.87204 24.511 5.02829 24.1907 4.85641 23.3469C4.66891 22.4954 4.5986 22.3469 4.33297 22.2532C4.20016 22.2063 4.09079 22.1672 4.08297 22.1672C4.07516 22.175 3.96579 22.2219 3.82516 22.2844Z" fill="#0A152F"/>
<path d="M37.0439 22.2455C36.9502 22.2767 36.833 22.3627 36.7783 22.4252C36.6377 22.597 36.3721 23.8627 36.4267 24.097C36.5361 24.5189 37.1533 24.6595 37.4658 24.3314C37.6689 24.1127 37.9189 22.9408 37.833 22.6048C37.8017 22.4642 37.6924 22.3548 37.5127 22.2767C37.3642 22.2142 37.2314 22.1673 37.2236 22.1752C37.208 22.1752 37.1299 22.2064 37.0439 22.2455Z" fill="#0A152F"/>
<path d="M4.54395 25.5656C4.43457 25.6672 4.34863 25.839 4.34863 25.9484C4.34863 26.2453 4.80176 27.339 4.98926 27.4953C5.34863 27.8078 5.98926 27.5344 5.98926 27.0656C5.98926 26.7375 5.55176 25.6828 5.34863 25.5031C5.12207 25.3078 4.77051 25.3312 4.54395 25.5656Z" fill="#0A152F"/>
<path d="M36.0049 25.5031C35.8018 25.6827 35.3643 26.7374 35.3643 27.0656C35.3643 27.5265 36.0049 27.8156 36.3564 27.4952C36.5518 27.3234 36.9346 26.4562 36.9814 26.0734C37.0205 25.8234 36.9893 25.7374 36.8252 25.5734C36.583 25.3312 36.2393 25.3077 36.0049 25.5031Z" fill="#0A152F"/>
<path d="M5.98939 28.4953C5.70814 28.7765 5.78626 29.1593 6.2472 29.8234C6.63782 30.3781 6.66907 30.4093 6.98157 30.4328C7.23157 30.4484 7.34876 30.4172 7.46595 30.3C7.73939 30.0265 7.67689 29.6672 7.27064 29.0656C7.07532 28.7687 6.85657 28.4875 6.78626 28.4328C6.59095 28.2843 6.16907 28.3156 5.98939 28.4953Z" fill="#0A152F"/>
<path d="M34.5596 28.4329C34.2939 28.6438 33.7236 29.6204 33.7236 29.8782C33.7236 30.261 33.9658 30.4641 34.3721 30.4329C34.6846 30.4095 34.7158 30.3782 35.1064 29.8235C35.5674 29.1595 35.6455 28.7766 35.3643 28.4954C35.1846 28.3157 34.7627 28.2845 34.5596 28.4329Z" fill="#0A152F"/>
<path d="M8.0127 31.0656C7.87207 31.175 7.8252 31.2922 7.8252 31.5422C7.8252 31.8391 7.87207 31.9094 8.3877 32.4094C9.02051 33.0266 9.28613 33.0969 9.62207 32.7531C9.97363 32.4094 9.89551 32.1437 9.24707 31.4875C8.62207 30.8625 8.36426 30.7766 8.0127 31.0656Z" fill="#0A152F"/>
<path d="M32.1064 31.4875C31.4579 32.1437 31.3798 32.4094 31.7314 32.7531C32.0673 33.0969 32.3329 33.0266 32.9657 32.4094C33.4814 31.9094 33.5282 31.8391 33.5282 31.5422C33.5282 31.1516 33.2939 30.9172 32.9189 30.9172C32.7236 30.9172 32.5673 31.0266 32.1064 31.4875Z" fill="#0A152F"/>
<path d="M5.87207 32.8079C5.75488 32.8938 5.59082 33.136 5.50488 33.3313C5.25488 33.9172 4.98926 34.1985 4.45801 34.4485C3.84082 34.7375 3.64551 34.9719 3.64551 35.4094C3.64551 35.8469 3.84082 36.0813 4.45801 36.3704C4.98926 36.6204 5.25488 36.9016 5.50488 37.4875C5.7002 37.9485 5.99707 38.1829 6.37988 38.1829C6.7627 38.1829 7.05957 37.9485 7.25488 37.4875C7.50488 36.9016 7.77051 36.6204 8.30176 36.3704C8.91895 36.0813 9.11426 35.8469 9.11426 35.4094C9.11426 34.9719 8.91895 34.7375 8.30176 34.4485C7.77051 34.1985 7.50488 33.9172 7.25488 33.3313C7.05957 32.8704 6.7627 32.636 6.37988 32.636C6.2002 32.636 6.00488 32.6985 5.87207 32.8079ZM6.8252 34.9563L7.27832 35.4094L6.8252 35.8625L6.36426 36.3079L6.02051 35.925C5.8252 35.7063 5.59863 35.511 5.5127 35.4875C5.35645 35.4329 5.36426 35.425 5.58301 35.2922C5.70801 35.2141 5.92676 35.011 6.0752 34.8313C6.22363 34.6594 6.34863 34.511 6.35645 34.511C6.36426 34.511 6.5752 34.7141 6.8252 34.9563Z" fill="#FFA633"/>
<path d="M34.4658 32.8079C34.3486 32.8938 34.1846 33.136 34.0986 33.3313C33.8486 33.9172 33.583 34.1985 33.0518 34.4485C32.4346 34.7375 32.2393 34.9719 32.2393 35.4094C32.2393 35.8469 32.4346 36.0813 33.0518 36.3704C33.583 36.6204 33.8486 36.9016 34.0986 37.4875C34.2939 37.9485 34.5908 38.1829 34.9736 38.1829C35.3564 38.1829 35.6533 37.9485 35.8486 37.4875C36.0986 36.9016 36.3643 36.6204 36.8955 36.3704C37.5127 36.0813 37.708 35.8469 37.708 35.4094C37.708 34.9719 37.5127 34.7375 36.8955 34.4485C36.3643 34.1985 36.0986 33.9172 35.8486 33.3313C35.6533 32.8704 35.3564 32.636 34.9736 32.636C34.7939 32.636 34.5986 32.6985 34.4658 32.8079ZM35.4189 34.9563L35.8721 35.4094L35.4189 35.8625L34.958 36.3079L34.6143 35.925C34.4189 35.7063 34.1924 35.511 34.1064 35.4875C33.9502 35.4329 33.958 35.425 34.1768 35.2922C34.3018 35.2141 34.5205 35.011 34.6689 34.8313C34.8174 34.6594 34.9424 34.511 34.9502 34.511C34.958 34.511 35.1689 34.7141 35.4189 34.9563Z" fill="#127384"/>
<path d="M10.4581 33.2844C10.2862 33.4641 10.2394 33.7531 10.3331 34.0031C10.3644 34.0734 10.6456 34.3078 10.9659 34.5266C11.6066 34.9562 11.9737 35.0266 12.2472 34.7766C12.3644 34.6672 12.3956 34.5578 12.38 34.2844C12.3566 33.9328 12.3487 33.925 11.7394 33.5187C11.0362 33.05 10.7316 32.9953 10.4581 33.2844Z" fill="#0A152F"/>
<path d="M29.6141 33.5187C29.0047 33.925 28.9969 33.9328 28.9735 34.2844C28.9578 34.5578 28.9891 34.6672 29.1063 34.7766C29.3797 35.0266 29.7469 34.9562 30.3875 34.5266C30.7078 34.3078 30.9891 34.0734 31.0203 34.0031C31.1219 33.7375 31.0672 33.4406 30.8875 33.2766C30.5985 33.0031 30.3016 33.0578 29.6141 33.5187Z" fill="#0A152F"/>
</g>
<defs>
<clipPath id="clip0_3584_72102">
<rect width="40" height="40" fill="white" transform="translate(0.676758 0.298096)"/>
</clipPath>
</defs>
</svg>
