<svg width="41" height="41" viewBox="0 0 41 41" fill="none" xmlns="http://www.w3.org/2000/svg">
<g clip-path="url(#clip0_3584_72084)">
<path d="M5.67653 0.682861C5.52028 0.839111 5.52028 0.940674 5.52028 6.73755V12.636H4.46559C3.51247 12.636 3.39528 12.6516 3.25465 12.7922C3.0984 12.9485 3.0984 13.0188 3.11403 25.6672L3.13747 38.3782L3.36403 38.8469C3.6609 39.4407 4.18434 39.9641 4.77809 40.261L5.24684 40.4875H20.6765H36.1062L36.575 40.261C37.1687 39.9641 37.6922 39.4407 37.989 38.8469L38.2156 38.3782L38.239 24.4563C38.2547 10.5969 38.2547 10.5266 38.0984 10.3704C37.9578 10.2297 37.8406 10.2141 36.8875 10.2141H35.8328V8.5813V6.94067L35.6297 6.78442C35.2781 6.51099 34.8875 6.5813 34.7 6.94067C34.5984 7.12817 34.5828 9.12817 34.5828 22.011V36.8547H33.9968H33.4109V26.1282V15.3938L33.2312 15.2297L33.0515 15.0579H26.1765C18.6843 15.0579 19.0359 15.0344 18.9265 15.4954C18.8562 15.7766 18.9968 16.1125 19.239 16.2219C19.3797 16.2844 21.2312 16.3079 25.7937 16.3079H32.1609V26.9563C32.1609 34.2454 32.1843 37.7532 32.2468 38.0735C32.2937 38.3235 32.4265 38.7219 32.5515 38.9485L32.7703 39.3547L19.2468 39.3391L5.71559 39.3157L5.2859 39.0735C4.96559 38.8938 4.79372 38.7219 4.5984 38.4172L4.3484 37.9954V25.9407V13.886H7.52809H10.7078L11.9265 15.0969L13.1453 16.3079H15.1375C17.2859 16.3079 17.3953 16.2922 17.5515 15.8704C17.6375 15.6438 17.5125 15.2375 17.3172 15.136C17.2312 15.0891 16.4187 15.0579 15.4265 15.0579H13.6765L13.0984 14.4719L12.5203 13.8938L15.5515 13.8704L18.5828 13.8469L18.7312 13.6594C18.8718 13.4875 18.8797 13.2844 18.8797 8.41724C18.8797 3.41724 18.8797 3.35474 18.7156 3.15161L18.5593 2.94849H13.4031C8.35622 2.94849 8.25465 2.94849 8.0984 3.10474C7.94215 3.26099 7.94215 3.36255 7.94215 7.94849V12.636H7.35622H6.77028V7.16724V1.69849H20.6687H34.575L34.5984 3.34692C34.6218 4.97192 34.6218 4.99536 34.8093 5.1438C35.0515 5.33911 35.4734 5.33911 35.6765 5.13599C35.825 4.98755 35.8328 4.87817 35.8328 2.90942C35.8328 0.940674 35.825 0.831299 35.6765 0.682861C35.5203 0.526611 35.4187 0.526611 20.6765 0.526611C5.93434 0.526611 5.83278 0.526611 5.67653 0.682861ZM17.6297 8.41724V12.636H13.4109H9.19215V8.41724V4.19849H13.4109H17.6297V8.41724ZM37.0047 24.7219V37.9875L36.7703 38.3938C36.1375 39.4954 34.5984 39.5969 33.825 38.5813C33.6843 38.4016 33.5672 38.2141 33.5672 38.175C33.5672 38.136 33.9968 38.1047 34.5437 38.1047C35.4187 38.1047 35.5359 38.0891 35.6765 37.9485C35.8328 37.7922 35.8328 37.6907 35.8328 24.6282V11.4641H36.4187H37.0047V24.7219Z" fill="#0A152F"/>
<path d="M12.6689 5.47962C11.8173 5.84681 11.3486 6.87025 11.6454 7.714C11.7079 7.9015 11.7548 8.06556 11.747 8.06556C11.7392 8.06556 11.5673 8.20619 11.3642 8.36244C10.8251 8.79212 10.4423 9.59681 10.3876 10.4171C10.3486 10.9562 10.3642 11.0577 10.5048 11.2296L10.6611 11.4249L13.2626 11.4484C15.0361 11.464 15.9267 11.4406 16.0751 11.3859C16.4423 11.2296 16.5361 10.8234 16.372 10.0421C16.2314 9.37025 15.9423 8.85462 15.4814 8.43275C15.0673 8.05775 15.0595 8.03431 15.1376 7.79212C15.1845 7.65931 15.2079 7.33119 15.1923 7.05775C15.1298 6.04212 14.4033 5.37025 13.3798 5.37025C13.122 5.37806 12.8017 5.42494 12.6689 5.47962ZM13.7783 6.79212C14.1142 7.10462 13.9423 7.64369 13.4736 7.76087C13.3017 7.79994 13.2079 7.76087 13.0126 7.56556C12.8173 7.37025 12.7783 7.2765 12.8173 7.10462C12.9267 6.64369 13.4423 6.47181 13.7783 6.79212ZM14.3798 9.19837C14.7392 9.37806 15.0126 9.69056 15.0908 10.0031L15.1454 10.214H13.3798C12.4111 10.214 11.6142 10.1984 11.6142 10.1749C11.6142 10.0656 11.9267 9.53431 12.0517 9.42494C12.3954 9.12806 12.6689 9.04994 13.3642 9.04212C13.9189 9.04212 14.1298 9.07337 14.3798 9.19837Z" fill="#0A152F"/>
<path d="M20.2155 5.57344C19.7936 6.10469 20.2701 6.75313 20.9108 6.52657C21.5514 6.30782 21.3639 5.37032 20.6764 5.37032C20.442 5.37032 20.3405 5.41719 20.2155 5.57344Z" fill="#0A152F"/>
<path d="M22.6374 5.57355C22.3405 5.94855 22.4889 6.4173 22.9342 6.55011C23.1217 6.59699 24.8952 6.62042 28.1608 6.6048L33.1139 6.58136L33.2624 6.39386C33.4577 6.15167 33.4577 5.7298 33.2545 5.52667C33.0983 5.37042 32.9967 5.37042 27.9499 5.37042H22.7936L22.6374 5.57355Z" fill="#0A152F"/>
<path d="M20.2154 7.99536C19.9263 8.36255 20.0279 8.79224 20.442 8.96411C20.6295 9.04224 20.7232 9.04224 20.9107 8.96411C21.5435 8.69849 21.3638 7.79224 20.6763 7.79224C20.442 7.79224 20.3404 7.83911 20.2154 7.99536Z" fill="#0A152F"/>
<path d="M22.6375 7.99536C22.3328 8.37817 22.4968 8.8938 22.9578 9.00317C23.0593 9.02661 25.3796 9.03442 28.1218 9.02661L33.114 9.00317L33.2625 8.81567C33.4578 8.57349 33.4578 8.15161 33.2546 7.94849C33.0984 7.79224 32.9968 7.79224 27.95 7.79224H22.7937L22.6375 7.99536Z" fill="#0A152F"/>
<path d="M20.2155 10.4172C20.0123 10.675 20.0045 11.0032 20.1998 11.2375C20.3092 11.3782 20.4264 11.425 20.6764 11.425C20.9264 11.425 21.0436 11.3782 21.153 11.2375C21.4889 10.8235 21.2076 10.2141 20.6764 10.2141C20.442 10.2141 20.3405 10.261 20.2155 10.4172Z" fill="#0A152F"/>
<path d="M22.6375 10.4172C22.3328 10.8 22.4968 11.3157 22.9578 11.425C23.0593 11.4485 25.3796 11.4563 28.1218 11.4485L33.114 11.425L33.2625 11.2375C33.4578 10.9954 33.4578 10.5735 33.2546 10.3704C33.0984 10.2141 32.9968 10.2141 27.95 10.2141H22.7937L22.6375 10.4172Z" fill="#0A152F"/>
<path d="M18.8799 18.7297C17.5518 18.9016 16.333 19.7454 15.7158 20.9172C15.3018 21.7219 15.208 22.1907 15.208 23.55V24.7454H14.5127C13.9346 24.7454 13.7939 24.7688 13.6143 24.9094L13.4111 25.0657V29.6282V34.1907L13.6143 34.3469C13.8174 34.511 13.8721 34.511 19.4658 34.511C25.0596 34.511 25.1143 34.511 25.3174 34.3469L25.5205 34.1907V32.0032C25.5205 29.925 25.5127 29.8157 25.3643 29.6672C25.1611 29.4641 24.7393 29.4641 24.4971 29.6594C24.3096 29.8079 24.3096 29.8313 24.2861 31.5344L24.2627 33.261H19.458H14.6611V29.6282V25.9954H19.4658H24.2705V26.8157C24.2705 27.9016 24.4033 28.1829 24.9268 28.1829C25.0283 28.1829 25.2002 28.1125 25.3174 28.0188L25.5205 27.8625V26.4641V25.0657L25.3174 24.9094C25.1377 24.7688 24.9971 24.7454 24.4189 24.7454H23.7236V23.5891C23.7236 22.8547 23.6768 22.2688 23.6064 21.9485C23.1064 19.8469 21.0518 18.4407 18.8799 18.7297ZM19.9893 19.9875C20.958 20.1907 21.8018 20.8625 22.2236 21.7532C22.4189 22.175 22.4346 22.2922 22.458 23.4719L22.4893 24.7454H21.9033H21.3174L21.2861 23.5891C21.2627 22.5969 21.2393 22.4016 21.0908 22.1282C20.7393 21.4719 20.2002 21.1516 19.4502 21.1516C18.8721 21.1516 18.4424 21.3469 18.0908 21.7688C17.708 22.2141 17.6299 22.5344 17.6299 23.7219V24.7454H17.0361H16.4424L16.4736 23.4719C16.4971 22.2922 16.5127 22.175 16.708 21.7532C17.1143 20.8938 17.9111 20.2375 18.8408 20.011C19.3486 19.886 19.4893 19.886 19.9893 19.9875ZM19.8877 22.6047C20.0361 22.7922 20.0518 22.9172 20.0518 23.7766V24.7454H19.4658H18.8799V23.7766C18.8799 22.9172 18.8955 22.7922 19.0439 22.6047C19.1611 22.4563 19.2783 22.4016 19.4658 22.4016C19.6533 22.4016 19.7705 22.4563 19.8877 22.6047Z" fill="#FFA633"/>
<path d="M18.8094 27.0969C18.4187 27.2141 17.8406 27.8391 17.7156 28.2844C17.4891 29.0657 17.8094 29.9641 18.45 30.3625C18.7781 30.5579 18.7859 30.5735 18.825 31.0735C18.8719 31.6516 19.0359 31.8547 19.4734 31.8547C19.8875 31.8547 20.0516 31.636 20.0516 31.0813V30.6282L20.4344 30.3938C21.4656 29.7532 21.5828 28.2375 20.6687 27.4485C20.1844 27.0422 19.4812 26.9094 18.8094 27.0969ZM19.8562 28.4563C20.2391 28.8313 20.0047 29.386 19.4656 29.386C19.1297 29.386 18.8797 29.1516 18.8797 28.8313C18.8797 28.5813 19.2078 28.261 19.4656 28.261C19.575 28.261 19.7547 28.3469 19.8562 28.4563Z" fill="#127384"/>
</g>
<defs>
<clipPath id="clip0_3584_72084">
<rect width="40" height="40" fill="white" transform="translate(0.676758 0.298096)"/>
</clipPath>
</defs>
</svg>
