<svg width="16" height="16" viewBox="0 0 16 16" fill="none" xmlns="http://www.w3.org/2000/svg">
<path d="M6.91698 2.52834C5.80014 2.65498 4.74084 3.09099 3.85845 3.78725L4.62216 4.55188C4.74524 4.68397 4.81225 4.85868 4.80906 5.03921C4.80588 5.21973 4.73275 5.39196 4.60508 5.51963C4.47741 5.6473 4.30518 5.72043 4.12465 5.72361C3.94413 5.7268 3.76942 5.65979 3.63733 5.53671L2.86991 4.77022C2.21768 5.58832 1.79331 6.56431 1.63981 7.59927H3.20066C3.38547 7.59927 3.56271 7.67268 3.69338 7.80336C3.82406 7.93403 3.89747 8.11127 3.89747 8.29608C3.89747 8.48088 3.82406 8.65812 3.69338 8.78879C3.56271 8.91947 3.38547 8.99289 3.20066 8.99289H1.598C1.74265 10.484 2.42414 11.8717 3.51562 12.8978C3.64727 13.025 3.7236 13.1988 3.72812 13.3818C3.73264 13.5648 3.66498 13.7422 3.53978 13.8757C3.41458 14.0092 3.24187 14.0881 3.05898 14.0953C2.8761 14.1025 2.69772 14.0374 2.56239 13.9142C1.1316 12.5736 0.181152 10.5965 0.181152 8.47539C0.181152 4.39487 3.51376 1.0957 7.61379 1.0957C11.7138 1.0957 15.0464 4.39394 15.0464 8.47539C15.0446 9.49373 14.8356 10.5011 14.4321 11.4361C14.0287 12.3711 13.4392 13.2142 12.6996 13.9142C12.5642 14.0374 12.3859 14.1025 12.203 14.0953C12.0201 14.0881 11.8474 14.0092 11.7222 13.8757C11.597 13.7422 11.5293 13.5648 11.5338 13.3818C11.5384 13.1988 11.6147 13.025 11.7463 12.8978C12.8302 11.87 13.5005 10.481 13.6305 8.99289H12.0269C11.8421 8.99289 11.6649 8.91947 11.5342 8.78879C11.4035 8.65812 11.3301 8.48088 11.3301 8.29608C11.3301 8.11127 11.4035 7.93403 11.5342 7.80336C11.6649 7.67268 11.8421 7.59927 12.0269 7.59927H13.5878C13.1939 4.93652 11.03 2.83773 8.31061 2.52834V3.65067C8.31061 3.83548 8.23719 4.01272 8.10651 4.14339C7.97584 4.27407 7.7986 4.34748 7.61379 4.34748C7.42899 4.34748 7.25175 4.27407 7.12108 4.14339C6.9904 4.01272 6.91698 3.83548 6.91698 3.65067V2.52834ZM10.8182 4.63271C10.9026 4.56566 11.0077 4.53006 11.1155 4.53202C11.2233 4.53398 11.3271 4.57337 11.409 4.64344C11.491 4.71352 11.546 4.80991 11.5646 4.9161C11.5833 5.02229 11.5644 5.13166 11.5113 5.22547L11.4091 5.40756C11.0355 6.06731 10.6595 6.72572 10.2812 7.38279C9.97874 7.90859 9.67213 8.43199 9.36139 8.95294C9.24495 9.14892 9.12601 9.34343 9.00463 9.5364C8.91172 9.68226 8.82067 9.8207 8.75378 9.89874C8.51378 10.1799 8.17192 10.3542 7.80341 10.3833C7.4349 10.4124 7.06992 10.2939 6.78877 10.0539C6.50762 9.8139 6.33332 9.47204 6.30423 9.10353C6.27513 8.73502 6.39361 8.37004 6.63362 8.08889C6.70051 8.01085 6.82222 7.89843 6.95229 7.78415C7.09165 7.66058 7.27096 7.50914 7.47257 7.33912C7.87765 7.00094 8.38493 6.58657 8.8792 6.18706C9.46875 5.71016 10.0603 5.23571 10.6537 4.76371L10.8182 4.63364V4.63271Z" fill="#111111"/>
</svg>
