<svg width="17" height="16" viewBox="0 0 17 16" fill="none" xmlns="http://www.w3.org/2000/svg">
<path d="M13.9539 5.17701L13.9635 5.16524L11.1932 2.92129L10.3206 3.99755L11.7522 5.15693C11.397 5.37273 11.115 5.69038 10.9429 6.06859C10.7707 6.4468 10.7163 6.86806 10.7867 7.2776C10.8906 7.90022 11.3193 8.43836 11.874 8.73963C12.4939 9.07691 13.0376 9.04575 13.521 8.87399L13.5106 13.1555C13.5114 13.2702 13.4837 13.3833 13.4298 13.4845C13.3759 13.5858 13.2977 13.672 13.2021 13.7354C13.1065 13.7988 12.9967 13.8373 12.8825 13.8476C12.7682 13.8578 12.6532 13.8394 12.5479 13.7941C12.4654 13.7588 12.3906 13.7077 12.3277 13.6438C12.2637 13.5796 12.2129 13.5035 12.1783 13.4197C12.1437 13.3359 12.126 13.2461 12.1261 13.1555L12.1421 11.7703C12.1428 11.4977 12.0895 11.2277 11.9852 10.9758C11.881 10.7239 11.7278 10.4952 11.5347 10.3028C11.3417 10.1094 11.1126 9.95599 10.8603 9.85129C10.608 9.74659 10.3375 9.69267 10.0643 9.69261H9.37176V4.152C9.37176 3.78463 9.22583 3.43231 8.96606 3.17255C8.70629 2.91278 8.35398 2.76685 7.98661 2.76685H3.13857C2.77121 2.76685 2.41889 2.91278 2.15912 3.17255C1.89935 3.43231 1.75342 3.78463 1.75342 4.152V13.8481C1.75342 14.2154 1.89935 14.5678 2.15912 14.8275C2.41889 15.0873 2.77121 15.2332 3.13857 15.2332H7.98661C8.35398 15.2332 8.70629 15.0873 8.96606 14.8275C9.22583 14.5678 9.37176 14.2154 9.37176 13.8481V11.0778H10.0643C10.1585 11.0778 10.2493 11.0965 10.3351 11.1318C10.5 11.2039 10.6314 11.3358 10.7029 11.5009C10.7388 11.5862 10.7572 11.6778 10.7569 11.7703L10.7403 13.1555C10.7403 13.4367 10.795 13.7089 10.9037 13.9644C11.0083 14.2131 11.1586 14.4354 11.3477 14.6231C11.5399 14.8174 11.769 14.9714 12.0214 15.0762C12.2739 15.1809 12.5447 15.2343 12.818 15.2332C13.0992 15.2332 13.3707 15.1792 13.627 15.0698C13.8749 14.9659 14.0979 14.8156 14.2856 14.6258C14.4795 14.4333 14.6332 14.2042 14.738 13.9518C14.8427 13.6994 14.8963 13.4288 14.8958 13.1555L14.9124 6.92231C14.9117 6.57437 14.8236 6.23219 14.6561 5.92722C14.4886 5.62225 14.2471 5.36427 13.9539 5.17701ZM7.98661 6.22973H3.13857V4.152H7.98661V6.22973ZM12.8346 7.61488C12.651 7.61488 12.4748 7.54192 12.3449 7.41203C12.215 7.28215 12.1421 7.10599 12.1421 6.92231C12.1421 6.73862 12.215 6.56246 12.3449 6.43258C12.4748 6.3027 12.651 6.22973 12.8346 6.22973C13.0183 6.22973 13.1945 6.3027 13.3244 6.43258C13.4543 6.56246 13.5272 6.73862 13.5272 6.92231C13.5272 7.10599 13.4543 7.28215 13.3244 7.41203C13.1945 7.54192 13.0183 7.61488 12.8346 7.61488Z" fill="#111111"/>
</svg>
