<svg width="24" height="25" viewBox="0 0 24 25" fill="none" xmlns="http://www.w3.org/2000/svg">
<g clip-path="url(#clip0_3380_116450)">
<path d="M0.815625 0.821484C0.510938 0.962109 0.253125 1.21992 0.1125 1.52461L0 1.76367V12.709V23.6543L0.1125 23.8934C0.253125 24.198 0.510938 24.4559 0.815625 24.5965L1.05469 24.709H9.9375H18.8203L19.0594 24.5965C19.3641 24.4559 19.6219 24.198 19.7625 23.8934L19.875 23.6543V21.648V19.6371L19.7391 19.5012C19.5563 19.323 19.2844 19.3137 19.0922 19.4777L18.9609 19.5902L18.9375 21.5074C18.9141 23.5652 18.9141 23.5512 18.6609 23.6871C18.4875 23.7809 1.38281 23.7762 1.20938 23.6824C0.946875 23.5418 0.960938 24.2543 0.960938 12.709C0.960938 1.16367 0.946875 1.87617 1.20938 1.73555C1.38281 1.6418 18.4875 1.63711 18.6609 1.73086C18.9188 1.8668 18.9141 1.78242 18.9375 4.73086L18.9609 7.46836L19.0922 7.58086C19.2844 7.74492 19.5563 7.73555 19.7391 7.55742L19.875 7.42148V4.59023V1.76367L19.7625 1.52461C19.6219 1.21992 19.3641 0.962109 19.0594 0.821484L18.8203 0.708984H9.9375H1.05469L0.815625 0.821484Z" fill="white"/>
<path d="M9.0465 3.31524C8.24962 3.48398 7.57462 3.84023 6.97462 4.40742C6.09337 5.2418 5.68556 6.14648 5.63868 7.36992C5.61056 8.0918 5.68087 8.55586 5.90587 9.13711C6.29493 10.1355 7.15743 11.0496 8.13243 11.4949C8.76056 11.7762 9.08868 11.8418 9.93712 11.8418C10.6027 11.8418 10.7621 11.8277 11.0762 11.734C11.8824 11.4996 12.5059 11.1246 13.0684 10.5293C13.8699 9.68555 14.2496 8.72461 14.2496 7.55273C14.2496 6.32461 13.8699 5.39648 13.0074 4.52461C12.3465 3.8543 11.6949 3.49336 10.8184 3.31524C10.3731 3.22149 9.46837 3.22149 9.0465 3.31524ZM10.7481 4.31367C12.7168 4.81992 13.7809 6.92461 13.0262 8.81367C12.9418 9.02461 12.8012 9.27773 12.6699 9.46992C12.6606 9.4793 12.5246 9.34336 12.3652 9.16992C12.2012 8.9918 11.9106 8.74336 11.7184 8.6168C11.5262 8.49023 11.3668 8.37305 11.3715 8.35898C11.3715 8.34023 11.4231 8.21836 11.484 8.0918C11.5871 7.88086 11.6012 7.79648 11.6012 7.22461C11.6012 6.63867 11.5918 6.57305 11.4793 6.33398C11.1606 5.6543 10.3824 5.25117 9.65587 5.38711C9.08868 5.49023 8.62462 5.8418 8.39493 6.33398C8.28243 6.57305 8.27306 6.63867 8.27306 7.22461C8.27306 7.79648 8.28712 7.88086 8.39025 8.0918C8.45118 8.21836 8.50275 8.34023 8.50275 8.35898C8.50743 8.37305 8.34806 8.49023 8.15587 8.6168C7.96368 8.74336 7.67306 8.9918 7.509 9.16992C7.26993 9.42773 7.20431 9.4793 7.16681 9.42773C7.03087 9.22148 6.74493 8.56992 6.684 8.32148C6.57618 7.90898 6.58556 7.18711 6.70275 6.73711C6.99806 5.58398 7.95431 4.62305 9.10275 4.31836C9.5715 4.19649 10.2746 4.19649 10.7481 4.31367ZM10.2465 6.43242C10.5418 6.57305 10.6543 6.78398 10.659 7.19648C10.659 7.4543 10.6402 7.57148 10.5652 7.69336C10.2746 8.19492 9.59962 8.19492 9.309 7.69805C9.23868 7.57617 9.21525 7.44961 9.21525 7.22461C9.21525 6.82148 9.33243 6.58711 9.609 6.4418C9.85743 6.31055 9.99337 6.30586 10.2465 6.43242ZM10.9262 9.32461C11.2402 9.47461 11.3902 9.58242 11.6199 9.82617C11.7793 9.99961 11.9059 10.173 11.8965 10.2105C11.8731 10.3184 11.184 10.6746 10.7809 10.7824C10.0918 10.9699 9.15431 10.8902 8.559 10.5949C8.22618 10.4262 7.96837 10.248 7.96837 10.1918C7.96837 10.159 8.09962 9.99492 8.259 9.82617C8.47931 9.58711 8.634 9.47461 8.92462 9.33398C9.39337 9.10898 9.42618 9.1043 10.0309 9.11836C10.5043 9.12773 10.5465 9.13711 10.9262 9.32461Z" fill="white"/>
<path d="M21.6084 6.58711C21.4678 6.61524 21.2475 6.69024 21.1162 6.75586C20.5912 7.00899 20.5959 6.99492 17.385 12.573C15.7443 15.4184 14.3897 17.7855 14.3756 17.8277C14.3615 17.8746 14.249 18.7793 14.1318 19.8387C13.9022 21.9059 13.9022 21.9527 14.1272 22.1074C14.1787 22.1449 14.31 22.1777 14.4178 22.1777C14.6334 22.1777 14.6662 22.1543 16.799 20.5746L17.8256 19.8105L20.774 14.7012C22.3959 11.8887 23.7787 9.47461 23.849 9.33399C23.9568 9.1043 23.9709 9.01992 23.9709 8.53711C23.9756 8.00274 23.9709 7.98867 23.7975 7.63711C23.5162 7.06524 23.0193 6.69024 22.3772 6.57305C22.049 6.51211 21.9412 6.51211 21.6084 6.58711ZM22.5131 7.65586C22.6209 7.7168 22.7709 7.85274 22.8459 7.96523C22.9631 8.1293 22.9912 8.22305 23.0053 8.48086C23.0193 8.79024 23.0147 8.8043 22.7428 9.28711C22.5928 9.55898 22.4568 9.7793 22.4428 9.7793C22.4287 9.7793 22.035 9.55898 21.5662 9.28711L20.7225 8.79961L20.8912 8.49024C21.135 8.04961 21.3178 7.79648 21.449 7.71211C21.7912 7.48711 22.1709 7.46836 22.5131 7.65586ZM21.2709 10.2668C21.6365 10.4824 21.9365 10.6605 21.9365 10.6699C21.9365 10.698 17.3006 18.723 17.2631 18.7605C17.2115 18.8074 15.5334 17.8324 15.5522 17.7668C15.5568 17.7387 16.6115 15.9059 17.8912 13.6887L20.2162 9.66211L20.4084 9.76992C20.5162 9.83086 20.9006 10.0559 21.2709 10.2668ZM16.0397 19.2621C16.2881 19.4074 16.485 19.5387 16.4709 19.5574C16.4615 19.5762 16.1334 19.8246 15.749 20.1105C15.2522 20.4762 15.0459 20.6074 15.0459 20.5465C15.0459 20.5043 15.0881 20.1059 15.1397 19.6699C15.1912 19.2293 15.2334 18.8543 15.2334 18.8355C15.2334 18.8121 15.3131 18.8402 15.4115 18.8965C15.5053 18.9527 15.7912 19.1168 16.0397 19.2621Z" fill="white"/>
<path d="M3.46417 13.5012C3.16417 13.8012 3.37042 14.3027 3.79698 14.3027C4.1626 14.3027 4.37823 14.0121 4.26573 13.6746C4.2001 13.4684 4.04073 13.3652 3.79698 13.3652C3.64229 13.3652 3.57198 13.3934 3.46417 13.5012Z" fill="white"/>
<path d="M5.46602 13.4871C5.29258 13.6652 5.29258 14.0027 5.46602 14.1809L5.59258 14.3027H9.14102H12.6895L12.816 14.1809C12.9145 14.0824 12.9379 14.0121 12.9379 13.834C12.9379 13.6559 12.9145 13.5855 12.816 13.4871L12.6895 13.3652H9.14102H5.59258L5.46602 13.4871Z" fill="white"/>
<path d="M3.46417 16.1262C3.16417 16.4262 3.37042 16.9277 3.79698 16.9277C4.04073 16.9277 4.2001 16.8246 4.26573 16.6184C4.37823 16.2809 4.1626 15.9902 3.79698 15.9902C3.64229 15.9902 3.57198 16.0184 3.46417 16.1262Z" fill="white"/>
<path d="M5.46602 16.1121C5.29258 16.2902 5.29258 16.6277 5.46602 16.8059L5.59258 16.9277H9.14102H12.6895L12.816 16.8059C12.9145 16.7074 12.9379 16.6371 12.9379 16.459C12.9379 16.2809 12.9145 16.2105 12.816 16.1121L12.6895 15.9902H9.14102H5.59258L5.46602 16.1121Z" fill="white"/>
<path d="M3.46417 18.7512C3.16417 19.0512 3.37042 19.5527 3.79698 19.5527C4.1626 19.5527 4.37823 19.2621 4.26573 18.9246C4.2001 18.7184 4.04073 18.6152 3.79698 18.6152C3.64229 18.6152 3.57198 18.6434 3.46417 18.7512Z" fill="white"/>
<path d="M5.46602 18.7371C5.29258 18.9152 5.29258 19.2527 5.46602 19.4309L5.59258 19.5527H9.14102H12.6895L12.816 19.4309C12.9145 19.3324 12.9379 19.2621 12.9379 19.084C12.9379 18.9059 12.9145 18.8355 12.816 18.7371L12.6895 18.6152H9.14102H5.59258L5.46602 18.7371Z" fill="white"/>
<path d="M9.59063 21.3621C9.49219 21.4605 9.46875 21.5309 9.46875 21.709C9.46875 21.8871 9.49219 21.9574 9.59063 22.0559L9.71719 22.1777H11.2031H12.6891L12.8156 22.0559C12.9891 21.8777 12.9891 21.5402 12.8156 21.3621L12.6891 21.2402H11.2031H9.71719L9.59063 21.3621Z" fill="white"/>
</g>
<defs>
<clipPath id="clip0_3380_116450">
<rect width="24" height="24" fill="white" transform="translate(0 0.708984)"/>
</clipPath>
</defs>
</svg>
