<svg width="25" height="25" viewBox="0 0 25 25" fill="none" xmlns="http://www.w3.org/2000/svg">
<path d="M3.18616 0.803658C2.22862 1.05662 1.4072 1.7265 0.947205 2.63998C0.665576 3.19744 0.576393 3.62841 0.604556 4.28424C0.623331 4.73396 0.651494 4.88386 0.801696 5.3242C1.14904 6.34074 2.09719 8.12085 3.16269 9.75106C3.6884 10.5521 3.79636 10.6786 4.00758 10.7161C4.30329 10.7723 4.42063 10.6739 4.87594 9.99466C5.90388 8.46282 6.94591 6.56091 7.32611 5.53501C7.5608 4.88855 7.65468 4.38262 7.61713 3.94696C7.48101 2.40576 6.44837 1.17842 4.98389 0.803658C4.49104 0.677176 3.66962 0.677176 3.18616 0.803658ZM4.6741 1.81083C5.75368 2.06847 6.55632 3.07096 6.55632 4.16713C6.55632 4.64027 6.36388 5.20241 5.84756 6.23768C5.23267 7.46971 4.1437 9.2873 4.0686 9.20297C3.9935 9.11865 3.3833 8.11148 2.98432 7.42286C2.17229 6.00346 1.69822 4.91197 1.64189 4.33109C1.53863 3.21618 2.37882 2.08721 3.52881 1.80614C3.85268 1.7265 4.31737 1.7265 4.6741 1.81083Z" fill="white"/>
<path d="M3.69419 2.73861C3.26706 2.86041 2.88216 3.19301 2.69441 3.60993C2.54421 3.93785 2.5536 4.49062 2.71788 4.84195C2.86339 5.15113 3.14032 5.43689 3.45012 5.58679C3.62848 5.6758 3.74583 5.69922 4.09317 5.69922C4.46398 5.69922 4.54847 5.68048 4.78316 5.56805C5.11642 5.4041 5.39336 5.09492 5.52948 4.74358C5.65621 4.40161 5.63744 3.87695 5.48254 3.55372C5.17275 2.91194 4.3701 2.54655 3.69419 2.73861ZM4.41235 3.87695C4.65173 4.11586 4.6001 4.46719 4.2997 4.62178C4.00399 4.77637 3.64726 4.55152 3.64726 4.21423C3.64726 3.81136 4.13541 3.60056 4.41235 3.87695Z" fill="white"/>
<path d="M5.75041 9.82099C5.58143 9.98973 5.53449 10.2288 5.63306 10.435C5.74571 10.6694 5.89592 10.7163 6.60468 10.7538C6.95203 10.7679 7.33223 10.796 7.44957 10.81C7.96589 10.8757 8.27099 10.2663 7.89079 9.91474C7.7312 9.76942 7.63733 9.75067 6.69856 9.71786L5.87714 9.68974L5.75041 9.82099Z" fill="white"/>
<path d="M9.06389 10.5198C8.93715 10.6462 8.9043 10.7165 8.9043 10.8617C8.9043 11.096 8.99817 11.2224 9.32205 11.4239C9.72572 11.6815 10.012 11.9392 10.2514 12.253C10.3688 12.4076 10.5096 12.5763 10.5565 12.6184C10.6645 12.7121 11.0118 12.7309 11.162 12.6559C11.2841 12.5903 11.392 12.3655 11.392 12.1781C11.392 11.6675 9.96041 10.3605 9.40654 10.3605C9.26103 10.3605 9.19062 10.3933 9.06389 10.5198Z" fill="white"/>
<path d="M19.2665 10.7589C17.6565 11.0634 16.3141 12.2532 15.8071 13.8225C15.6476 14.3191 15.6006 14.6892 15.6288 15.3216C15.6476 15.8135 15.6804 16.0055 15.8165 16.474C16.0982 17.439 16.5347 18.493 17.3045 20.081C18.0132 21.552 19.5622 24.3767 19.7734 24.5875C19.8908 24.7046 20.2381 24.7374 20.4024 24.6484C20.5057 24.5922 20.7357 24.2175 21.4444 22.9386C22.9136 20.2918 23.9697 18.0058 24.4297 16.474C24.594 15.9306 24.5987 15.8884 24.5987 15.1389C24.6034 14.291 24.5658 14.1036 24.2701 13.3963C23.9744 12.6842 23.3501 11.9253 22.7071 11.4897C22.3081 11.218 21.7073 10.9416 21.2614 10.8245C20.7779 10.698 19.7734 10.6652 19.2665 10.7589ZM20.9891 11.841C21.3881 11.9441 21.8763 12.1877 22.2424 12.464C23.1999 13.1901 23.7444 14.5065 23.552 15.6261C23.4064 16.4693 22.7493 18.0761 21.7448 20.081C21.083 21.3974 20.163 23.1025 20.1208 23.1025C20.0738 23.1025 19.1961 21.4677 18.5249 20.1279C17.5298 18.1557 16.9008 16.6379 16.7131 15.7572C16.3798 14.1833 17.3937 12.4781 18.9849 11.9253C19.1632 11.8644 19.4261 11.7942 19.5622 11.7707C19.8955 11.7098 20.6371 11.7473 20.9891 11.841Z" fill="white"/>
<path d="M19.4232 12.7773C19.0477 12.8757 18.7332 13.063 18.3718 13.4003C17.8836 13.8594 17.5879 14.548 17.5879 15.232C17.5879 15.5318 17.7475 16.122 17.9024 16.4171C18.0807 16.7497 18.583 17.2416 18.9303 17.4243C19.6626 17.8084 20.5779 17.8084 21.3148 17.4243C21.6997 17.2229 22.1831 16.731 22.3709 16.3516C22.7417 15.5973 22.7417 14.8431 22.3756 14.0796C22.0752 13.4565 21.4556 12.9459 20.8032 12.7726C20.4558 12.6836 19.7611 12.6836 19.4232 12.7773ZM20.7609 13.8875C21.0613 14.0421 21.404 14.4169 21.5025 14.7026C21.5448 14.8244 21.5776 15.0633 21.5776 15.232C21.5776 15.7847 21.2209 16.3188 20.6905 16.5577C20.3901 16.6935 19.855 16.6935 19.5546 16.5577C19.0242 16.3188 18.6675 15.7847 18.6675 15.232C18.6675 15.0633 18.7003 14.8244 18.7426 14.7026C18.874 14.3185 19.3058 13.9203 19.747 13.7751C19.977 13.7001 20.5074 13.7563 20.7609 13.8875Z" fill="white"/>
<path d="M11.4728 13.5505C11.2945 13.5973 11.2006 13.6816 11.1302 13.855C11.0785 13.9768 11.0832 14.0939 11.1818 14.6513C11.2428 15.0074 11.3085 15.4805 11.3273 15.7007C11.3414 15.9208 11.3836 16.1644 11.4165 16.2488C11.5761 16.6376 12.1957 16.6282 12.36 16.2347C12.421 16.0942 12.4163 15.9911 12.3506 15.4055C12.2379 14.3843 12.1206 13.8269 11.9891 13.7004C11.853 13.5645 11.6418 13.5036 11.4728 13.5505Z" fill="white"/>
<path d="M11.8273 17.5462C11.4894 17.6961 11.4612 17.9069 11.6067 19.0734C11.7241 20.0243 11.7851 20.2492 11.9494 20.3944C12.1653 20.5865 12.4282 20.5771 12.6394 20.3663C12.8271 20.1789 12.8318 20.0946 12.7286 19.495C12.691 19.2748 12.63 18.8063 12.5924 18.4456C12.5314 17.8366 12.5173 17.7898 12.3906 17.668C12.2263 17.504 12.0245 17.4619 11.8273 17.5462Z" fill="white"/>
<path d="M12.5834 21.5284C12.4567 21.6549 12.4238 21.7252 12.4238 21.8751C12.4238 22.3248 13.4706 23.524 14.1042 23.791C14.5407 23.9737 14.9632 23.5193 14.766 23.0837C14.7332 23.0181 14.5689 22.8588 14.3905 22.7277C14.0291 22.456 13.7616 22.1702 13.4987 21.7627C13.2969 21.4535 13.1701 21.3692 12.912 21.3692C12.7806 21.3692 12.7055 21.4066 12.5834 21.5284Z" fill="white"/>
<path d="M15.9532 23.5285C15.7748 23.58 15.6152 23.8096 15.6152 24.0063C15.6152 24.175 15.7326 24.3951 15.8499 24.4607C16.0471 24.5638 16.7418 24.6575 17.5256 24.6809L18.333 24.709L18.4738 24.5638C18.5958 24.442 18.6193 24.3858 18.6193 24.1937C18.6193 23.9969 18.5958 23.9407 18.4785 23.8283C18.3377 23.6971 18.3189 23.6924 17.6805 23.6597C17.122 23.6269 16.6385 23.5753 16.202 23.5004C16.1503 23.491 16.0377 23.5051 15.9532 23.5285Z" fill="white"/>
</svg>
