<svg width="18" height="8" viewBox="0 0 18 8" fill="none" xmlns="http://www.w3.org/2000/svg">
<g clip-path="url(#clip0_3360_57383)">
<path d="M15.9924 2.90482L13.5551 2.80443C13.4356 2.80443 13.2922 2.75409 13.1967 2.7039L11.6435 1.59879C10.6878 0.920242 9.5648 0.568604 8.39392 0.568604H6.14794C5.62236 0.568604 5.12043 0.719327 4.66653 0.995603L2.37267 2.37728C2.32492 2.40231 2.27704 2.42748 2.2293 2.42748L1.58415 2.4525C1.32122 2.4525 1.05857 2.55303 0.867316 2.75394C0.676066 2.95516 0.556641 3.20641 0.556641 3.50786V4.4122C0.556641 5.46711 1.36896 6.34643 2.39647 6.34643H2.58772C2.85037 6.92431 3.39989 7.35116 4.04504 7.35116C4.69019 7.35116 5.26366 6.94918 5.50251 6.34643H12.4797C12.7428 6.92431 13.2922 7.35116 13.9375 7.35116C14.5826 7.35116 15.1561 6.94918 15.3949 6.34643H15.4428C16.4464 6.34643 17.2827 5.49228 17.2827 4.4122C17.3543 3.55805 16.7569 2.92984 15.9924 2.90482ZM2.53983 6.09518H2.42027C1.77512 6.09518 1.20165 5.69335 0.938857 5.11548H2.56377C2.51589 5.2662 2.49195 5.44209 2.49195 5.61784C2.49195 5.76856 2.51603 5.94445 2.53983 6.09518ZM5.43111 6.09518C5.40731 6.17054 5.38337 6.22088 5.35942 6.29624C5.12057 6.77343 4.64259 7.0999 4.11701 7.0999C3.59142 7.0999 3.0895 6.77328 2.85065 6.29609C2.82657 6.2459 2.80291 6.17054 2.77897 6.09518C2.73122 5.94445 2.68348 5.76856 2.68348 5.59282C2.68348 5.41707 2.70728 5.24118 2.77897 5.09045C2.80291 5.01509 2.82685 4.96475 2.85065 4.88939C3.0895 4.4122 3.56748 4.08573 4.09321 4.08573C4.61907 4.08573 5.09677 4.41235 5.33562 4.88954C5.35942 4.93973 5.38351 5.01509 5.40745 5.09045C5.45519 5.24118 5.50293 5.41707 5.50293 5.59282C5.50293 5.76856 5.47899 5.94445 5.43111 6.09518ZM12.4799 6.09518H5.62222C5.66996 5.94445 5.69404 5.76856 5.69404 5.59282C5.69404 5.41707 5.66996 5.24118 5.62222 5.09045H12.4799C12.4321 5.24118 12.4083 5.41707 12.4083 5.59282C12.4083 5.76856 12.4321 5.94445 12.4799 6.09518ZM15.3472 6.09518C15.3234 6.17054 15.2995 6.22088 15.2755 6.29624C15.0367 6.77343 14.5587 7.0999 14.0331 7.0999C13.4834 7.0999 13.0056 6.77328 12.7907 6.29609C12.7666 6.2459 12.7428 6.17054 12.7189 6.09518C12.671 5.94445 12.6232 5.76856 12.6232 5.59282C12.6232 5.41707 12.6473 5.24118 12.7189 5.09045C12.7428 5.01509 12.7666 4.96475 12.7905 4.88939C13.0295 4.4122 13.5074 4.08573 14.033 4.08573C14.5585 4.08573 15.0367 4.41235 15.2755 4.88954C15.2995 4.93973 15.3234 5.01509 15.3472 5.09045C15.3949 5.24118 15.4428 5.41707 15.4428 5.59282C15.4189 5.76871 15.3949 5.94445 15.3472 6.09518ZM15.5383 6.09518C15.5862 5.94445 15.6101 5.76856 15.6101 5.59282C15.6101 5.41707 15.5862 5.24118 15.5383 5.09045H16.9959C16.8635 5.38195 16.6576 5.62972 16.4006 5.80685C16.1436 5.98398 15.8454 6.0837 15.5383 6.09518ZM15.4668 4.91456C15.2038 4.33669 14.6542 3.90969 14.0092 3.90969C13.3642 3.90969 12.7905 4.31167 12.5517 4.91456H5.55039C5.28746 4.33669 4.73793 3.90969 4.09278 3.90969C3.44763 3.90969 2.87417 4.31167 2.63532 4.91456H0.867174C0.818316 4.76072 0.794139 4.5994 0.795632 4.43722H1.27347C1.29824 4.43538 1.32155 4.42419 1.33909 4.40572C1.35664 4.38725 1.36724 4.36273 1.36896 4.33669C1.36721 4.31067 1.35659 4.28619 1.33905 4.26775C1.32151 4.24931 1.29822 4.23814 1.27347 4.23631H0.795632V3.60839H1.27347C1.29824 3.60655 1.32155 3.59536 1.33909 3.57689C1.35664 3.55842 1.36724 3.5339 1.36896 3.50786C1.36724 3.48182 1.35664 3.4573 1.33909 3.43883C1.32155 3.42035 1.29824 3.40917 1.27347 3.40733H0.819432C0.843232 3.20641 0.914916 3.0055 1.05828 2.85477C1.20165 2.70405 1.4167 2.62854 1.60795 2.62854H1.63189L2.27704 2.60352C2.34887 2.60352 2.44435 2.5785 2.51603 2.52816L4.8099 1.12145C5.24 0.870348 5.71784 0.719625 6.19582 0.719625H8.44181C9.5648 0.719625 10.64 1.07111 11.5719 1.72435L13.125 2.82945C13.2673 2.90581 13.4207 2.95679 13.5789 2.98033L16.0162 3.08071C16.4464 3.10573 16.8047 3.33196 16.9959 3.6836H16.064C16.0393 3.6855 16.016 3.6967 15.9984 3.71516C15.9809 3.73362 15.9702 3.7581 15.9684 3.78414C15.9701 3.81019 15.9808 3.8347 15.9983 3.85315C16.0159 3.87161 16.0393 3.88275 16.064 3.88452H17.0914C17.1393 4.03524 17.187 4.18597 17.187 4.36186C17.187 4.56292 17.1632 4.73867 17.0914 4.91441H15.4666L15.4668 4.91456Z" fill="white"/>
<path d="M2.53983 6.09518H2.42027C1.77512 6.09518 1.20165 5.69335 0.938857 5.11548H2.56377C2.51589 5.2662 2.49195 5.44209 2.49195 5.61784C2.49195 5.76856 2.51603 5.94445 2.53983 6.09518ZM2.53983 6.09518H2.53997M15.9924 2.90482L13.5551 2.80443C13.4356 2.80443 13.2922 2.75409 13.1967 2.7039L11.6435 1.59879C10.6878 0.920242 9.5648 0.568604 8.39392 0.568604H6.14794C5.62236 0.568604 5.12043 0.719327 4.66653 0.995603L2.37267 2.37728C2.32492 2.40231 2.27704 2.42748 2.2293 2.42748L1.58415 2.4525C1.32122 2.4525 1.05857 2.55303 0.867316 2.75394C0.676066 2.95516 0.556641 3.20641 0.556641 3.50786V4.4122C0.556641 5.46711 1.36896 6.34643 2.39647 6.34643H2.58772C2.85037 6.92431 3.39989 7.35116 4.04504 7.35116C4.69019 7.35116 5.26366 6.94918 5.50251 6.34643H12.4797C12.7428 6.92431 13.2922 7.35116 13.9375 7.35116C14.5826 7.35116 15.1561 6.94918 15.3949 6.34643H15.4428C16.4464 6.34643 17.2827 5.49228 17.2827 4.4122C17.3543 3.55805 16.7569 2.92984 15.9924 2.90482ZM5.43111 6.09518C5.40731 6.17054 5.38337 6.22088 5.35942 6.29624C5.12057 6.77343 4.64259 7.0999 4.11701 7.0999C3.59142 7.0999 3.0895 6.77328 2.85065 6.29609C2.82657 6.2459 2.80291 6.17054 2.77897 6.09518C2.73122 5.94445 2.68348 5.76856 2.68348 5.59282C2.68348 5.41707 2.70728 5.24118 2.77897 5.09045C2.80291 5.01509 2.82685 4.96475 2.85065 4.88939C3.0895 4.4122 3.56748 4.08573 4.09321 4.08573C4.61907 4.08573 5.09677 4.41235 5.33562 4.88954C5.35942 4.93973 5.38351 5.01509 5.40745 5.09045C5.45519 5.24118 5.50293 5.41707 5.50293 5.59282C5.50293 5.76856 5.47899 5.94445 5.43111 6.09518ZM12.4799 6.09518H5.62222C5.66996 5.94445 5.69404 5.76856 5.69404 5.59282C5.69404 5.41707 5.66996 5.24118 5.62222 5.09045H12.4799C12.4321 5.24118 12.4083 5.41707 12.4083 5.59282C12.4083 5.76856 12.4321 5.94445 12.4799 6.09518ZM15.3472 6.09518C15.3234 6.17054 15.2995 6.22088 15.2755 6.29624C15.0367 6.77343 14.5587 7.0999 14.0331 7.0999C13.4834 7.0999 13.0056 6.77328 12.7907 6.29609C12.7666 6.2459 12.7428 6.17054 12.7189 6.09518C12.671 5.94445 12.6232 5.76856 12.6232 5.59282C12.6232 5.41707 12.6473 5.24118 12.7189 5.09045C12.7428 5.01509 12.7666 4.96475 12.7905 4.88939C13.0295 4.4122 13.5074 4.08573 14.033 4.08573C14.5585 4.08573 15.0367 4.41235 15.2755 4.88954C15.2995 4.93973 15.3234 5.01509 15.3472 5.09045C15.3949 5.24118 15.4428 5.41707 15.4428 5.59282C15.4189 5.76871 15.3949 5.94445 15.3472 6.09518ZM15.5383 6.09518C15.5862 5.94445 15.6101 5.76856 15.6101 5.59282C15.6101 5.41707 15.5862 5.24118 15.5383 5.09045H16.9959C16.8635 5.38195 16.6576 5.62972 16.4006 5.80685C16.1436 5.98398 15.8454 6.0837 15.5383 6.09518ZM15.4668 4.91456C15.2038 4.33669 14.6542 3.90969 14.0092 3.90969C13.3642 3.90969 12.7905 4.31167 12.5517 4.91456H5.55039C5.28746 4.33669 4.73793 3.90969 4.09278 3.90969C3.44763 3.90969 2.87417 4.31167 2.63532 4.91456H0.867174C0.818316 4.76072 0.794139 4.5994 0.795632 4.43722H1.27347C1.29824 4.43538 1.32155 4.42419 1.33909 4.40572C1.35664 4.38725 1.36724 4.36273 1.36896 4.33669C1.36721 4.31067 1.35659 4.28619 1.33905 4.26775C1.32151 4.24931 1.29822 4.23814 1.27347 4.23631H0.795632V3.60839H1.27347C1.29824 3.60655 1.32155 3.59536 1.33909 3.57689C1.35664 3.55842 1.36724 3.5339 1.36896 3.50786C1.36724 3.48182 1.35664 3.4573 1.33909 3.43883C1.32155 3.42035 1.29824 3.40917 1.27347 3.40733H0.819432C0.843232 3.20641 0.914916 3.0055 1.05828 2.85477C1.20165 2.70405 1.4167 2.62854 1.60795 2.62854H1.63189L2.27704 2.60352C2.34887 2.60352 2.44435 2.5785 2.51603 2.52816L4.8099 1.12145C5.24 0.870348 5.71784 0.719625 6.19582 0.719625H8.44181C9.5648 0.719625 10.64 1.07111 11.5719 1.72435L13.125 2.82945C13.2673 2.90581 13.4207 2.95679 13.5789 2.98033L16.0162 3.08071C16.4464 3.10573 16.8047 3.33197 16.9959 3.6836H16.064C16.0393 3.6855 16.016 3.6967 15.9984 3.71516C15.9809 3.73362 15.9702 3.7581 15.9684 3.78414C15.9701 3.81019 15.9808 3.8347 15.9983 3.85315C16.0159 3.87161 16.0393 3.88275 16.064 3.88452H17.0914C17.1393 4.03524 17.187 4.18597 17.187 4.36186C17.187 4.56292 17.1632 4.73867 17.0914 4.91441H15.4666L15.4668 4.91456Z" stroke="white" stroke-width="0.3"/>
<path d="M8.5133 1.14648H6.45857C5.95664 1.14648 5.455 1.37272 5.09658 1.77455C5.01474 1.86227 4.95964 1.97367 4.93834 2.09449C4.91704 2.21531 4.93051 2.34007 4.97702 2.4528C5.07264 2.67889 5.26375 2.82961 5.5026 2.82961L12.1931 3.05599C12.241 3.05599 12.2887 3.03082 12.2887 2.98063V2.90512L11.6913 2.37759C10.8311 1.5988 9.68418 1.14648 8.5133 1.14648ZM5.5026 2.65372C5.33543 2.65372 5.19193 2.55319 5.14418 2.37729C5.07264 2.22657 5.12038 2.05068 5.23981 1.89995C5.55048 1.54831 6.00438 1.3474 6.45843 1.3474H8.17883L8.65667 2.75395L5.5026 2.65357V2.65372ZM8.84777 2.77927L8.36993 1.34755H8.5133C9.63643 1.34755 10.7355 1.77455 11.5957 2.52816L11.978 2.8798L8.84777 2.77927ZM14.6543 4.91457C14.4871 4.73867 14.272 4.63814 14.0091 4.63814C13.7462 4.63814 13.5313 4.73867 13.3641 4.91457C13.3164 4.96476 13.2685 5.04012 13.2207 5.11548C13.1269 5.26441 13.077 5.43919 13.0774 5.61785C13.077 5.7965 13.1269 5.97129 13.2207 6.12021C13.2685 6.19557 13.3164 6.24576 13.3641 6.32127C13.5313 6.49701 13.7703 6.59755 14.0091 6.59755C14.2481 6.59755 14.4871 6.49716 14.6543 6.32112C14.7021 6.27093 14.7499 6.19557 14.7976 6.12021C14.8695 5.96948 14.941 5.81876 14.941 5.61785C14.9414 5.43919 14.8915 5.26439 14.7976 5.11548C14.7499 5.04012 14.7021 4.96491 14.6543 4.91457ZM14.5588 6.09519C14.4871 6.1704 14.4154 6.24591 14.3198 6.29625C14.2243 6.34644 14.1047 6.39663 13.9853 6.39663C13.8659 6.39663 13.7465 6.37161 13.6508 6.2961C13.5552 6.24591 13.4835 6.17055 13.4118 6.09519C13.3038 5.95234 13.2449 5.77531 13.2447 5.59282C13.2447 5.39176 13.3164 5.24119 13.4118 5.09046C13.4835 5.0151 13.5552 4.93974 13.6508 4.8894C13.7463 4.83921 13.8657 4.81419 13.9853 4.81419C14.1049 4.81419 14.2002 4.83921 14.3198 4.8894C14.4154 4.93974 14.4871 5.0151 14.5588 5.09046C14.6783 5.21602 14.7261 5.39191 14.7261 5.59282C14.7499 5.79389 14.6783 5.96963 14.5588 6.09519ZM9.56503 3.4827H9.08719C9.0624 3.4845 9.03906 3.49567 9.02149 3.51415C9.00391 3.53263 8.99329 3.55716 8.99157 3.58323C8.99332 3.60927 9.00396 3.63377 9.02153 3.65221C9.0391 3.67066 9.06242 3.68181 9.08719 3.68361H9.56503C9.5898 3.68181 9.61312 3.67066 9.6307 3.65221C9.64827 3.63377 9.65891 3.60927 9.66066 3.58323C9.66066 3.53289 9.63686 3.4827 9.56503 3.4827ZM6.00481 3.4827H5.52697C5.50217 3.4845 5.47884 3.49567 5.46126 3.51415C5.44369 3.53263 5.43306 3.55716 5.43134 3.58323C5.43309 3.60927 5.44373 3.63377 5.46131 3.65221C5.47888 3.67066 5.5022 3.68181 5.52697 3.68361H6.00481C6.02956 3.68177 6.05284 3.67061 6.07038 3.65217C6.08792 3.63372 6.09855 3.60925 6.10029 3.58323C6.09858 3.55719 6.08797 3.53267 6.07043 3.5142C6.05288 3.49572 6.02958 3.48454 6.00481 3.4827ZM4.73817 4.91457C4.571 4.73867 4.35595 4.63814 4.09302 4.63814C3.85403 4.63814 3.61518 4.73867 3.44787 4.91457C3.40013 4.96476 3.35224 5.04012 3.3045 5.11548C3.21064 5.26441 3.16076 5.43919 3.16114 5.61785C3.16074 5.7965 3.21062 5.97129 3.3045 6.12021C3.35224 6.19557 3.40013 6.24576 3.44787 6.32127C3.61518 6.49701 3.85403 6.59755 4.09302 6.59755C4.35595 6.59755 4.57086 6.49716 4.73817 6.32112C4.78605 6.27093 4.83379 6.19557 4.88153 6.12021C4.95336 5.96948 5.0249 5.81876 5.0249 5.61785C5.0253 5.43919 4.97541 5.2644 4.88153 5.11548C4.83379 5.04012 4.78605 4.96491 4.73817 4.91457ZM4.64268 6.09519C4.57086 6.1704 4.49932 6.24591 4.40369 6.29625C4.30821 6.34644 4.18864 6.39663 4.06922 6.39663C3.94979 6.39663 3.83023 6.37161 3.73474 6.2961C3.63912 6.24591 3.56758 6.17055 3.49575 6.09519C3.38773 5.95234 3.32882 5.77531 3.32858 5.59282C3.32858 5.39176 3.40013 5.24119 3.49575 5.09046C3.56743 5.0151 3.63912 4.93974 3.73474 4.8894C3.83023 4.83921 3.94979 4.81419 4.06908 4.81419C4.18864 4.81419 4.28441 4.83921 4.40369 4.8894C4.49932 4.93974 4.571 5.0151 4.64268 5.09046C4.76211 5.21602 4.80985 5.39191 4.80985 5.59282C4.83379 5.79389 4.76211 5.96963 4.64268 6.09519Z" fill="white" stroke="white" stroke-width="0.3"/>
</g>
<defs>
<clipPath id="clip0_3360_57383">
<rect width="17" height="7" fill="white" transform="translate(0.415039 0.5)"/>
</clipPath>
</defs>
</svg>
