<svg width="51" height="33" viewBox="0 0 51 33" fill="none" xmlns="http://www.w3.org/2000/svg">
<path d="M39.2567 0.866463C40.0178 1.29158 40.2945 2.78444 40.0178 4.96934C39.9585 5.5131 39.8596 5.86901 39.7509 5.97776C39.6521 6.08651 39.2864 6.19526 38.812 6.26447C37.9422 6.39299 37.9719 6.29413 38.4166 7.44096C39.2172 9.49734 40.8974 13.1553 41.1445 13.3531C41.2236 13.4223 41.7573 13.5804 42.3306 13.6991C42.9038 13.8276 43.487 14.0154 43.6352 14.1044C43.991 14.3417 44.1689 14.8064 44.248 15.6863L44.3073 16.4277L44.8608 16.4871C46.9463 16.7145 48.5277 17.4757 49.8026 18.8697C51.1073 20.2933 51.2556 21.3809 50.2672 22.2509C50.0794 22.4189 49.8521 22.587 49.7631 22.6364C49.6247 22.7155 49.6544 22.8045 49.9608 23.3087C52.1649 26.9766 50.1486 31.7221 45.9974 32.602C43.8823 33.0469 41.9253 32.4636 40.3637 30.9213C39.1579 29.7349 38.5748 28.4398 38.5155 26.8481L38.4957 26.1461L38.1992 26.2648C38.0312 26.334 37.6655 26.4922 37.3788 26.6207C36.766 26.8876 36.687 26.8382 36.5881 26.1956L36.5189 25.7408L36.0445 26.0374C35.3626 26.4625 34.7003 26.6998 33.7317 26.8678C33.03 26.9964 31.5178 27.0161 24.6486 27.0161H16.4056L16.3463 27.2831C16.0498 28.6672 15.4469 29.7547 14.4289 30.7829C12.462 32.7602 9.38818 33.294 6.83819 32.1077C5.41493 31.4354 4.30796 30.3775 3.65563 29.0429C3.16145 28.0542 2.94401 27.1842 2.92424 26.1956C2.91436 25.3651 2.94401 25.4046 2.2225 25.286C1.50099 25.1674 0.779476 24.9004 0.532383 24.6632C0.0777321 24.1985 0.265522 23.111 1.10564 21.4501C1.32308 21.0151 1.60971 20.4812 1.73819 20.2736L1.9754 19.8979L1.72831 19.8386C1.40215 19.7595 1.33296 19.6112 1.14517 18.6225C0.888195 17.2681 0.848663 17.3571 2.02482 16.3091L3.07249 15.3798L4.34749 15.3007L5.63237 15.2315L6.8283 14.2033L8.01435 13.1751H16.7417C25.0736 13.1751 25.4789 13.185 25.6271 13.3531C25.973 13.7287 25.8544 14.0649 25.0044 15.103C24.0062 16.3289 23.3143 17.3274 23.0573 17.8909C22.5928 18.9092 22.8597 19.9276 23.8975 21.0052C24.9748 22.1322 25.8149 22.3992 28.4143 22.3893C30.8062 22.3893 33.3067 21.974 34.2655 21.4204C35.7579 20.5504 36.9736 17.2384 36.9835 14.0253C36.9835 13.0663 36.9637 12.9675 36.4399 11.4944C34.9672 7.35198 34.6608 6.54129 34.5521 6.65004C34.4038 6.79834 33.8405 6.76868 33.7021 6.59072C33.4649 6.3139 33.544 5.86901 33.8899 5.5823C34.1765 5.34503 34.1963 5.28571 34.1073 5.04843C34.0085 4.79139 33.9986 4.7815 33.7317 4.91991C33.5835 4.999 33.3858 5.06821 33.2969 5.06821C33.2079 5.06821 32.8817 5.15718 32.5655 5.26594C32.2492 5.37469 31.9131 5.46367 31.8143 5.46367C31.5178 5.46367 31.3201 5.17696 31.3498 4.7815C31.3893 4.35638 31.5474 4.25752 32.7928 3.95104L33.6527 3.73354L33.623 3.34796C33.5934 3.01182 33.6329 2.93273 34.0184 2.57682C34.5224 2.11216 35.6591 1.53874 36.9341 1.11362C38.0509 0.747826 38.8812 0.64896 39.2567 0.866463ZM43.2102 24.7917C41.5399 25.2069 41.5498 25.197 41.4114 26.0572C41.1841 27.5105 41.9649 28.9143 43.3782 29.5767C43.8329 29.7843 44.0701 29.8338 44.7224 29.8239C45.7503 29.8239 46.4224 29.5174 47.134 28.7364C48.3201 27.4413 48.2806 25.4837 47.0649 24.2677L46.6695 23.8722L45.7009 24.1392C45.1573 24.2875 44.0404 24.5841 43.2102 24.7917ZM5.87947 26.8382C6.07714 27.6093 6.39342 28.1531 6.97656 28.7463C9.17074 30.9312 12.9068 29.7349 13.5492 26.6405C13.6085 26.3439 13.6283 26.0868 13.5986 26.0572C13.569 26.0275 12.3335 25.9583 10.851 25.9089C9.36841 25.8594 7.619 25.7902 6.96667 25.7507L5.78063 25.6815L5.75098 25.9484C5.73121 26.0967 5.79051 26.502 5.87947 26.8382Z" fill="#111111"/>
<path d="M16.8503 7.73762C20.102 7.95512 23.9171 8.13308 25.1328 8.13308H25.9927L26.1904 8.44944C26.477 8.92399 26.6846 9.99173 26.6846 10.9903C26.6846 11.801 26.6648 11.8899 26.4671 12.0283C26.2695 12.1668 25.2119 12.1865 17.0282 12.1865C11.602 12.1865 7.71774 12.147 7.57937 12.0975C7.11484 11.9196 6.42298 9.84343 6.57123 9.05252C6.67007 8.52854 7.22356 8.01444 7.96483 7.78705C8.82472 7.52012 13.1637 7.50034 16.8503 7.73762Z" fill="#111111"/>
</svg>
