<svg width="55" height="32" viewBox="0 0 55 32" fill="none" xmlns="http://www.w3.org/2000/svg">
<g clip-path="url(#clip0_3510_74656)">
<path d="M34.2625 1.28004C34.2625 2.01147 34.9838 2.83433 35.8854 3.20004C37.2379 3.74862 37.0576 4.11433 34.7133 6.12576L32.0985 8.5029L18.9346 7.8629L5.86085 7.2229L2.79527 10.4229C-0.811284 14.1715 0.631339 14.9029 4.68872 11.4286C6.40183 9.96576 8.38544 9.1429 10.1887 9.23433C11.8117 9.32576 12.3526 9.50862 11.451 9.7829C8.92642 10.4229 10.0084 13.1658 13.074 13.7143C16.41 14.2629 21.6395 17.0972 21.6395 18.2858C21.6395 19.84 19.2953 19.2915 17.5822 17.3715C15.1477 14.6286 10.8199 14.9943 7.84445 18.1029C0.721503 25.6915 11.2707 36.2058 18.4838 28.8C19.7461 27.6115 20.7379 25.6 20.7379 24.4115C20.7379 21.9429 23.0822 20.48 24.7051 21.8515C25.7871 22.7658 33.0904 23.4972 33.6313 22.7658C33.8117 22.5829 35.1641 20.7543 36.6067 18.7429C38.0494 16.7315 39.5822 14.8115 40.033 14.4458C42.3772 12.8 43.2789 17.28 41.0248 19.2C38.951 20.9372 39.3117 26.0572 41.7461 28.8C44.6313 32.2743 50.0412 32.2743 52.9264 28.8C57.2543 23.7715 54.0985 15.5429 47.9674 15.5429C46.4346 15.5429 45.0822 14.9943 44.7215 14.1715C44.0904 12.4343 45.9838 12.4343 50.2215 14.1715C52.3854 15.0858 53.8281 15.2686 54.369 14.72C55.451 13.6229 51.6641 11.8858 46.4346 11.0629C43.1887 10.6058 42.8281 10.24 42.5576 7.49719C42.3772 5.85147 41.7461 4.57147 41.1149 4.57147C40.4838 4.57147 39.492 3.56576 38.951 2.28576C37.869 -0.182812 34.2625 -0.914242 34.2625 1.28004ZM14.1559 21.6686C10.5494 23.4972 11.0904 25.0515 15.0576 24.2286C18.3035 23.5886 18.3035 23.68 16.951 25.7829C15.1477 28.5258 11.6313 28.9829 9.55757 26.6058C6.2215 22.8572 10.4592 17.0972 14.7871 19.3829C16.41 20.2972 16.41 20.3886 14.1559 21.6686ZM51.574 21.5772C52.9264 24.4115 50.4018 28.3429 47.3363 28.3429C44.2707 28.3429 41.7461 24.5029 43.0084 21.6686C44.0002 19.6572 44.0002 19.6572 45.0822 22.1258C45.7133 23.5886 46.8854 24.6858 47.6067 24.6858C48.869 24.6858 48.7789 23.4972 47.3363 19.9315C46.3445 17.4629 50.492 19.0172 51.574 21.5772Z" fill="#111111"/>
</g>
<defs>
<clipPath id="clip0_3510_74656">
<rect width="55" height="32" fill="white"/>
</clipPath>
</defs>
</svg>
