<svg width="51" height="27" viewBox="0 0 51 27" fill="none" xmlns="http://www.w3.org/2000/svg">
<path d="M32.4594 0.475672C31.3691 0.773026 30.4572 1.04065 30.4274 1.07038C30.3779 1.11003 30.6852 2.40847 30.7644 2.47786C30.7843 2.49768 31.5078 2.32918 32.3702 2.10121C33.2325 1.86333 33.9759 1.675 34.0254 1.66509C34.0651 1.66509 34.3426 2.15077 34.6301 2.7653L35.1554 3.86551L34.4021 3.92498C29.4957 4.30163 26.4231 5.08466 24.3912 6.48223C23.7865 6.89852 23.0134 7.70138 22.7854 8.15732L22.5872 8.54388H19.2172H15.8373L14.0829 7.65182C13.1214 7.15623 12.0609 6.69038 11.7338 6.61108C11.0201 6.44258 5.69749 6.02628 5.35057 6.11549C4.63692 6.2939 3.98275 7.295 4.07195 8.07803L4.12151 8.49432L2.14906 10.2685C1.06867 11.2498 0.186523 12.1022 0.186523 12.1617C0.186523 12.2212 0.315377 12.3897 0.464054 12.5383L0.741585 12.806L2.65456 11.0714C3.91336 9.93154 4.64684 9.33683 4.7856 9.33683C4.89463 9.34674 6.5499 9.55489 8.45297 9.81259C11.1886 10.1793 11.932 10.3082 12.0113 10.437C12.0906 10.5659 11.6545 11.3291 9.85053 14.2035C8.61156 16.1859 7.52126 17.9105 7.44197 18.0295L7.3032 18.2575H8.225H9.15671L11.0895 15.1848C12.8835 12.3203 13.0223 12.122 13.1313 12.3302C13.2007 12.459 14.0333 13.9161 14.9948 15.5813L16.7392 18.6044L10.9904 18.6341L5.24154 18.6539V19.4469V20.2398H11.4662H17.6809L17.8692 20.5768C18.1467 21.0922 18.9 21.8059 19.4749 22.0834C19.7524 22.2222 20.2678 22.3709 20.6148 22.4204C20.9617 22.47 23.3009 22.5195 25.8085 22.5195H30.368L32.7765 17.5735C34.0948 14.8577 35.1752 12.578 35.1752 12.5185C35.1752 12.4392 34.4021 12.4095 32.4495 12.4095C30.0904 12.4095 29.7237 12.3897 29.7237 12.2608C29.7237 12.132 30.1103 12.1121 32.5783 12.1121H35.4329L35.6014 11.7652C35.6906 11.567 35.7699 11.3886 35.7699 11.3687C35.7699 11.339 33.8768 11.3192 31.5574 11.3192C27.8801 11.3192 27.3449 11.2994 27.3449 11.1705C27.3449 11.0417 27.89 11.0218 31.6862 11.0218H36.0177L37.1179 10.7344L38.2181 10.4569L40.5276 15.4227C41.7963 18.1583 42.8668 20.4281 42.9163 20.4777C43.0055 20.5768 44.2941 20.0515 44.2941 19.9127C44.2941 19.8433 42.5198 16.0075 37.1179 4.4404C36.0474 2.15077 35.1256 0.227877 35.0563 0.158495C34.7787 -0.109125 34.3922 -0.0595665 32.4594 0.475672Z" fill="#151515"/>
<path d="M40.0619 3.49893C39.2789 3.88549 38.6445 4.88659 38.6445 5.71918C38.6445 6.19495 38.9716 6.98789 39.3185 7.37445C39.7547 7.86013 40.3494 8.14757 40.9738 8.1674C41.3703 8.18722 41.4793 8.14757 41.6775 7.9196C41.9749 7.56278 42.1137 7.08701 42.183 6.10574C42.2524 5.13438 42.0839 4.11347 41.7767 3.65752C41.5883 3.37008 41.509 3.34035 41.0234 3.31061C40.6269 3.29079 40.3692 3.34035 40.0619 3.49893Z" fill="#151515"/>
<path d="M5.98497 12.2506C4.51802 12.5282 3.28896 13.1923 2.15901 14.2925C1.29669 15.1449 0.71189 16.0667 0.32533 17.2165C0.10727 17.8706 0.0477993 18.2374 0.00815211 19.2682C-0.0414069 20.8343 0.127094 21.6867 0.731714 22.8959C2.04998 25.5027 4.46846 26.9994 7.37262 26.9994C9.61269 27.0093 11.3869 26.2362 12.9133 24.5908C13.627 23.8177 14.4298 22.3508 14.6479 21.4092C14.8461 20.5865 14.9254 20.636 13.3197 20.636C12.0312 20.636 11.8726 20.6559 11.823 20.8045C11.2878 22.5391 9.81093 23.8276 8.05654 24.1151C5.14247 24.5809 2.40681 21.8651 2.87266 18.951C3.2394 16.5623 5.40017 14.8079 7.71954 15.016C8.07636 15.0557 8.48275 15.1052 8.62151 15.1449C8.8594 15.1945 8.92878 15.1251 9.63252 13.9852C10.3858 12.776 10.3957 12.7562 10.1678 12.6471C9.35499 12.2209 7.21404 12.0128 5.98497 12.2506Z" fill="#151515"/>
<path d="M42.0244 12.2211C41.727 12.2707 41.4594 12.3401 41.4297 12.3599C41.4098 12.3896 41.6477 12.9843 41.9748 13.6782L42.5695 14.937L43.4517 15.0063C44.5519 15.0856 45.3052 15.3533 46.108 15.9579C48.3382 17.6627 48.5166 20.9138 46.4847 22.8466C44.6312 24.6208 41.9153 24.601 40.1213 22.8168C38.3867 21.0922 38.2777 18.3764 39.8735 16.6021L40.3096 16.1165L39.705 14.8081C39.368 14.0945 39.0706 13.4998 39.031 13.4998C38.8724 13.4998 37.9209 14.3819 37.455 14.9667C36.5035 16.166 35.998 17.5339 35.8989 19.199C35.7304 22.1627 37.3262 24.9281 39.9627 26.2265C41.162 26.8212 41.9847 27.0095 43.3525 26.9996C46.2666 26.9996 48.6752 25.5029 49.9935 22.8961C50.5981 21.6869 50.7666 20.8345 50.717 19.2684C50.6675 17.8114 50.4098 16.8995 49.7258 15.7299C49.2402 14.9072 48.0408 13.6881 47.238 13.2123C45.662 12.2806 43.7986 11.9337 42.0244 12.2211Z" fill="#151515"/>
<path d="M11.4467 15.1847L10.6934 16.3741L11.0898 16.8895C11.3079 17.1769 11.5557 17.6031 11.6449 17.8311L11.8134 18.2573H13.2903C14.6581 18.2573 14.7671 18.2474 14.7176 18.0789C14.6878 17.9897 14.6184 17.7122 14.559 17.4743C14.3905 16.83 14.0336 16.0668 13.5876 15.4126C13.1713 14.7981 12.4378 13.9952 12.2892 13.9952C12.2396 13.9952 11.863 14.5305 11.4467 15.1847Z" fill="#151515"/>
</svg>
