<svg width="46" height="33" viewBox="0 0 46 33" fill="none" xmlns="http://www.w3.org/2000/svg">
<path d="M29.0863 0.908834C28.9538 0.997173 28.7594 1.19152 28.6711 1.32402C28.4414 1.66854 28.4414 2.43709 28.6711 2.80811C28.9714 3.29398 29.2099 3.36465 30.7117 3.41765C31.4626 3.45299 32.1693 3.50599 32.2841 3.53249C32.4696 3.58549 32.4785 3.62083 32.4785 4.79573V6.0148L31.8954 6.12081C31.1622 6.25332 29.9255 6.74801 29.3336 7.1367C28.4591 7.71974 27.9379 8.35578 26.1269 11.0678C24.1128 14.0713 24.3072 13.8858 22.8054 14.248C21.9043 14.46 21.0033 14.8663 20.1817 15.414C19.3955 15.9441 18.2913 17.1101 17.7789 17.9582C17.3461 18.6826 17.3372 18.6914 17.4963 18.9211C17.8849 19.5218 18.6182 21.1825 18.8302 21.9423C18.9627 22.4458 19.0775 23.1437 19.1128 23.6825L19.1658 24.5924H17.8319H16.4892V24.027C16.4892 23.7179 16.392 23.0818 16.2772 22.6136C15.5528 19.7691 13.362 17.5783 10.5175 16.8539C9.32493 16.5536 7.76134 16.5536 6.5776 16.8539C4.73132 17.3221 3.25607 18.3204 2.0635 19.9105C0.367397 22.1543 0.0935477 25.5641 1.38329 28.1525C2.43452 30.2461 4.29846 31.7567 6.55993 32.3309C7.59349 32.5871 9.13942 32.6224 10.173 32.4104C12.6111 31.9068 14.7666 30.1489 15.8355 27.7903L16.0828 27.2426H22.5227C28.7418 27.2426 28.9803 27.2337 29.2453 27.0747C29.6958 26.792 29.8195 26.474 29.9078 25.3698C30.0933 23.1437 30.641 21.7479 32.0191 20.0253L32.3106 19.6543L32.8583 20.2903C33.1587 20.6348 33.5474 21.0942 33.724 21.315L34.0421 21.7126L33.7594 22.1101C32.9378 23.2585 32.5668 24.4687 32.5668 25.944C32.5668 27.1542 32.717 27.8256 33.2559 28.921C33.6004 29.6454 33.7771 29.8751 34.5014 30.5994C35.1816 31.2796 35.4997 31.5093 36.1004 31.8185C37.1339 32.3309 38.0261 32.5429 39.1922 32.5429C40.3583 32.5429 41.2417 32.3397 42.2841 31.8185C42.8936 31.5182 43.1939 31.2885 43.8742 30.5994C44.5632 29.9192 44.7929 29.6189 45.0932 29.0093C45.6144 27.9669 45.8176 27.0836 45.8176 25.9175C45.8176 24.7514 45.6056 23.8592 45.0932 22.8256C44.784 22.2161 44.5544 21.9157 43.8742 21.2355C43.1851 20.5465 42.8936 20.3168 42.2841 20.0165C41.8689 19.8133 41.2152 19.5659 40.8353 19.4688C39.4926 19.1331 37.5933 19.2833 36.5597 19.8133L36.1975 19.9988L36.0385 19.7868C35.9502 19.6719 35.5703 19.2126 35.1905 18.7621L34.5014 17.9405L34.7929 17.7638C35.747 17.1896 37.2841 16.8098 39.2452 16.6596C40.1816 16.5889 40.3848 16.5448 40.8971 16.2886C41.542 15.9706 42.3194 15.2285 42.6197 14.6455C43.0261 13.8593 43.1056 13.3381 43.0526 11.9247C42.9819 10.0254 42.6551 8.77097 41.7717 7.06603C40.3583 4.30987 37.6286 2.0749 34.6251 1.19152C33.4325 0.838163 32.611 0.74099 30.9414 0.74099C29.528 0.74099 29.316 0.758657 29.0863 0.908834ZM10.0846 19.6013C11.7631 20.1136 13.1853 21.5977 13.6182 23.3115C13.6889 23.5942 13.7507 24.0094 13.7507 24.2214V24.6101L11.6571 24.5747C9.74012 24.5482 9.52811 24.5306 9.26309 24.3716C8.8744 24.1419 8.65356 23.7709 8.58289 23.2232C8.45921 22.3663 8.00869 21.9423 7.21364 21.9423C6.6571 21.9423 6.25075 22.1631 6.02107 22.5871C5.76489 23.0642 5.87089 24.2126 6.24191 24.9811C6.62177 25.7761 7.34615 26.5094 8.14119 26.898L8.75956 27.1984L10.9062 27.2249L13.044 27.2514L12.7613 27.6578C12.0988 28.5765 10.9239 29.3804 9.81079 29.6719C9.52811 29.7514 8.93624 29.8132 8.49455 29.8132C7.1518 29.8132 6.02107 29.3627 5.00517 28.4175C3.88327 27.3839 3.32674 26.1207 3.32674 24.6101C3.32674 23.0818 3.7596 22.0483 4.8285 20.9617C6.31258 19.4599 8.08819 19.0006 10.0846 19.6013ZM40.8441 22.3839C41.6039 22.7373 42.3812 23.5147 42.7523 24.3009C43.0173 24.8663 43.0349 24.9546 43.0349 25.9175C43.0349 26.8804 43.0173 26.9687 42.7523 27.5341C42.3724 28.338 41.6127 29.0977 40.8088 29.4775C40.2434 29.7425 40.1551 29.7602 39.1922 29.7602C38.2293 29.7602 38.141 29.7425 37.5756 29.4775C36.7717 29.0977 36.012 28.338 35.6322 27.5341C35.3671 26.9687 35.3495 26.8715 35.3495 25.9617C35.3495 25.1401 35.3848 24.9104 35.5615 24.4776C35.6763 24.1949 35.8 23.9829 35.8353 23.9917C35.8795 24.0094 36.436 24.6719 37.0721 25.4758C37.717 26.2797 38.3442 27.0041 38.4678 27.0836C38.7947 27.3044 39.5986 27.2956 39.9343 27.0747C40.3494 26.8009 40.5173 26.4652 40.5173 25.8998C40.5173 25.3345 40.5791 25.4405 38.9537 23.4087C38.4502 22.7815 38.0703 22.2338 38.1056 22.1984C38.2382 22.0659 39.1392 21.9776 39.7134 22.0483C40.0314 22.0836 40.5261 22.2338 40.8441 22.3839Z" fill="#111111"/>
<path d="M21.5863 3.4796C19.8196 3.77995 17.9733 4.74284 16.6217 6.08559C16.0475 6.65979 15.3673 7.51667 15.4468 7.58735C15.5263 7.66685 18.1765 9.22161 18.574 9.42479C19.6606 9.97249 21.4008 10.582 22.8672 10.9354C23.0969 10.9884 23.1588 10.9089 24.4573 8.9831C25.8973 6.83647 26.6923 5.90008 27.611 5.29054C27.9025 5.0962 28.1499 4.91069 28.1499 4.87535C28.1587 4.63684 26.2241 3.81529 25.0669 3.55911C24.263 3.38243 22.4255 3.34709 21.5863 3.4796Z" fill="#111111"/>
<path d="M1.17141 6.20937C0.712053 6.51855 0.588379 6.80124 0.588379 7.62279C0.588379 8.59451 0.77389 9.33656 1.27742 10.3701C1.62194 11.0945 1.79862 11.3242 2.52299 12.0486C3.21204 12.7376 3.51239 12.9673 4.12192 13.2676C5.25266 13.833 5.9682 13.9655 8.27384 14.0715C10.394 14.1687 11.1272 14.2835 12.2932 14.7075C13.1236 15.0079 14.4487 15.7588 15.0936 16.2976C15.3321 16.5008 15.5529 16.6333 15.5971 16.5892C15.6324 16.545 15.8886 16.2005 16.1713 15.8294C16.8427 14.9284 17.9116 13.939 18.9098 13.2765C19.3515 12.9849 19.696 12.7199 19.6695 12.6846C19.6518 12.6493 19.1925 12.4372 18.6536 12.2164C17.5141 11.7394 17.1254 11.5539 16.1801 10.9885C14.7667 10.1581 9.70492 7.15459 8.7862 6.60689L7.84098 6.04153H4.63429C1.63961 6.04153 1.40993 6.05036 1.17141 6.20937Z" fill="#111111"/>
</svg>
