<svg width="45" height="35" viewBox="0 0 45 35" fill="none" xmlns="http://www.w3.org/2000/svg">
<path d="M16.2236 0.267083C18.055 0.540721 19.6148 1.92656 20.0704 3.66549C20.2369 4.31868 20.2369 5.54564 20.0704 6.17236C19.6498 7.77888 18.2565 9.16472 16.6968 9.52662C16.0921 9.66786 14.7777 9.64138 14.2344 9.48249C11.9823 8.81164 10.5452 6.54309 10.9045 4.19511C11.2901 1.69706 13.7437 -0.112478 16.2236 0.267083ZM14.7689 2.2973C14.655 2.50032 14.6813 2.54445 15.3473 3.57722C15.6102 3.98326 15.8205 4.33634 15.8205 4.36282C15.8205 4.3893 15.4612 4.41578 15.0318 4.41578C14.3045 4.41578 14.2169 4.43344 14.0241 4.63646C13.9014 4.75121 13.805 4.88361 13.805 4.92775C13.805 4.97188 14.2081 5.64274 14.7076 6.41069C15.4787 7.61116 15.6364 7.81418 15.8468 7.84066C16.1535 7.87597 16.3462 7.72591 16.3462 7.43462C16.3462 7.2316 16.2236 7.01975 15.4524 5.84576C15.321 5.63391 15.2071 5.44854 15.2071 5.42206C15.2071 5.40441 15.6102 5.38675 16.1096 5.38675C16.6968 5.38675 17.0473 5.35145 17.1174 5.28083C17.3101 5.08664 17.2313 4.75121 16.8457 4.1598C16.6354 3.84203 16.2586 3.24179 15.9957 2.83575C15.7328 2.4297 15.4437 2.06779 15.3473 2.03249C15.1282 1.95304 14.8916 2.05897 14.7689 2.2973Z" fill="#111111"/>
<path d="M30.2353 6.67519C30.3054 6.75463 30.4544 6.98413 30.5596 7.18715C30.656 7.38135 30.8137 7.65499 30.9101 7.78739L31.0766 8.03455H32.4611C34.0209 8.03455 34.6869 8.13165 35.2915 8.44059C36.5095 9.05848 37.2281 10.5856 36.9389 11.9096C36.7111 12.9424 36.1152 13.7368 35.2389 14.1958L34.7657 14.4341L35.5369 15.7582L36.308 17.0822H37.6136C38.5863 17.0911 39.0507 17.1264 39.4801 17.25C41.7497 17.8855 43.4585 19.3596 44.3698 21.4693C44.8167 22.5109 44.9306 23.2347 44.8956 24.6293C44.8605 25.6886 44.8255 25.9181 44.5713 26.6596C44.1157 28.0189 43.0904 29.4577 42.1002 30.1551L41.7322 30.411L43.178 30.4552C44.2208 30.4905 44.6677 30.5346 44.7641 30.6229C44.8868 30.72 44.9131 30.9142 44.9131 31.6821C44.9131 32.7767 44.7291 33.3063 44.1682 33.8006C43.4409 34.4362 45.5002 34.3832 22.4802 34.3832C-0.539745 34.3832 1.51952 34.4362 0.792206 33.8006C0.231384 33.3063 0.0473633 32.7767 0.0473633 31.6821C0.0473633 30.9142 0.0736504 30.72 0.196331 30.6229C0.292725 30.5346 0.739628 30.4905 1.78241 30.4552L3.22827 30.411L2.86023 30.1551C2.30817 29.7667 1.45818 28.8045 1.0288 28.0719C0.818493 27.7188 0.52932 27.0744 0.37159 26.6242C0.0999413 25.8475 0.0911789 25.7769 0.0911789 24.3204C0.0911789 22.9081 0.108704 22.7757 0.336536 22.1136C1.04633 20.0746 2.2556 18.6976 4.17466 17.7354C5.76073 16.941 7.90763 16.8351 9.68649 17.4706C11.6669 18.1768 13.4457 19.951 14.0767 21.8753C14.2607 22.4314 14.2607 22.4314 14.5674 22.4049L14.8828 22.3785L15.5225 20.6572C15.873 19.7127 16.1622 18.8123 16.171 18.6711C16.171 18.3622 15.9256 17.912 15.6277 17.7001C15.5138 17.6207 13.4983 16.3673 11.1324 14.9108C8.77515 13.4543 6.81227 12.2186 6.77722 12.1568C6.63702 11.9449 6.70712 11.2476 6.91743 10.8151C7.30299 9.96766 8.03907 9.50866 9.02927 9.50866C9.72153 9.50866 9.8705 9.57045 11.2287 10.4267C11.7019 10.7268 12.2715 11.0799 12.4906 11.2123C12.7097 11.3447 13.2792 11.6978 13.7612 11.9979L14.6375 12.5363H18.5808C22.9184 12.5363 22.9184 12.5363 22.9184 12.0155C22.9184 11.5742 22.8658 11.5654 20.5787 11.5654C19.4045 11.5654 18.4493 11.5389 18.4493 11.5036C18.4493 11.3447 19.2292 10.4443 19.7375 10.0206C20.8065 9.1291 22.0333 8.61713 23.4792 8.45824C24.5483 8.33467 25.6787 8.49355 26.739 8.90842L27.3874 9.16441L27.2209 8.89077C27.1333 8.73188 26.9405 8.40528 26.8003 8.16695L26.5462 7.7256L24.6885 7.68147C22.6467 7.62851 22.5416 7.60202 22.5416 7.0724C22.5416 6.5163 22.4014 6.53395 26.4323 6.53395C29.6745 6.53395 30.1039 6.55161 30.2353 6.67519ZM27.9132 7.7256C27.9132 7.76091 33.8456 18.0091 33.907 18.0709C33.942 18.115 35.1425 17.4618 35.125 17.4088C35.1075 17.3294 34.7394 16.6939 32.3034 12.4922C31.2255 10.6473 30.1915 8.85546 29.99 8.52003C29.7972 8.17578 29.5956 7.84918 29.5518 7.78739C29.473 7.68147 27.9132 7.61968 27.9132 7.7256ZM19.2818 17.4353C19.0101 17.7001 19.0101 17.7619 19.2555 18.0356C19.4483 18.2474 19.6498 18.3886 21.9983 19.9952C22.6204 20.4189 23.1988 20.8249 23.2689 20.8867C23.374 20.9926 23.19 21.0103 22.0596 21.0103C20.8416 21.0103 20.7101 21.0279 20.5524 21.1868C20.3333 21.4075 20.3333 21.584 20.5612 21.8135C20.7277 21.9812 20.8153 21.9901 23.4266 21.9636L26.1168 21.9371L26.5812 21.6811C26.8266 21.5399 27.1333 21.2927 27.256 21.1427C27.3699 20.9838 27.7905 20.1717 28.1761 19.3331C28.9297 17.7266 28.9822 17.4618 28.5879 17.3029C28.4828 17.2588 26.3885 17.2235 23.9436 17.2235L19.4921 17.2146L19.2818 17.4353ZM29.2714 23.1729C28.1585 24.6558 26.7214 25.6091 24.8462 26.1035C24.3555 26.227 23.6194 26.2535 19.273 26.28L14.2607 26.3153L14.1117 26.7302C13.5597 28.2043 12.7535 29.3077 11.5793 30.1992L11.2375 30.4552H22.4802H33.7229L33.3812 30.1992C32.058 29.1929 31.0678 27.6923 30.6822 26.1123C30.1039 23.7025 30.7436 21.1956 32.3822 19.3949L32.9693 18.7594L32.575 18.1062L32.1807 17.453L30.8925 20.0923C30.1828 21.5399 29.4554 22.9257 29.2714 23.1729ZM36.8863 19.7833C36.0013 19.951 35.16 20.4012 34.4941 21.0721C33.8018 21.7782 33.4162 22.502 33.1972 23.5083C32.7415 25.6533 34.0559 27.9218 36.2116 28.7074C36.9214 28.9722 38.1482 29.0252 38.8317 28.8222C40.1461 28.4426 41.2765 27.5158 41.8198 26.3771C42.1791 25.6356 42.2755 25.1943 42.2842 24.3645C42.2842 22.8463 41.6007 21.4693 40.4002 20.613C39.3049 19.8186 38.1482 19.545 36.8863 19.7833ZM5.83083 19.9422C3.46487 20.6925 2.10663 23.3759 2.89529 25.7504C3.6927 28.1337 6.12001 29.4489 8.47721 28.7869C10.2035 28.3102 11.5442 26.7478 11.8071 24.9206C11.9999 23.5524 11.5179 22.1313 10.4839 21.0897C9.85298 20.4542 8.94164 19.9422 8.15299 19.7833C7.53959 19.6597 6.49681 19.7303 5.83083 19.9422Z" fill="#111111"/>
<path d="M27.5715 18.3798C27.5277 18.4946 27.2736 19.0419 27.0107 19.598C26.5813 20.4983 26.4849 20.6396 26.1607 20.8249C25.5473 21.1692 25.2318 21.0721 23.9174 20.1717C21.4989 18.5034 21.2535 18.3269 21.2535 18.2563C21.2535 18.221 22.6906 18.1856 24.452 18.1856H27.6504L27.5715 18.3798Z" fill="#111111"/>
<path d="M38.5164 20.7541C39.5154 20.9483 40.488 21.7339 40.9788 22.7402C41.2329 23.2521 41.2767 23.4463 41.303 24.1525C41.338 24.8498 41.3117 25.0705 41.1365 25.556C40.6195 27.0301 39.2612 27.9834 37.6927 27.9834C36.6499 27.9834 35.9664 27.7009 35.204 26.9771C33.7231 25.5736 33.6968 23.208 35.1427 21.7515C36.0365 20.8512 37.2283 20.4981 38.5164 20.7541Z" fill="#111111"/>
<path d="M8.17043 20.7896C8.8627 20.9838 9.31837 21.2397 9.81785 21.7517C11.2725 23.217 11.2374 25.565 9.73898 26.995C9.05548 27.6482 8.43332 27.913 7.46941 27.9659C6.15498 28.0365 5.09468 27.5511 4.32355 26.5271C3.8153 25.8474 3.61376 25.1325 3.65757 24.1438C3.68386 23.4465 3.72768 23.2523 3.9818 22.7403C4.75293 21.1603 6.51426 20.3394 8.17043 20.7896Z" fill="#111111"/>
</svg>
