<svg width="51" height="51" viewBox="0 0 51 51" fill="none" xmlns="http://www.w3.org/2000/svg">
<g clip-path="url(#clip0_3596_70660)">
<path d="M11.75 0.768551C11.5059 0.885738 11.2129 1.14941 11.0664 1.37402C10.8223 1.74511 10.8027 1.84277 10.7734 3.1123L10.7441 4.45019L8.72266 4.48925C6.85742 4.52832 6.64258 4.55761 5.91992 4.79199C4.64062 5.22168 3.78125 5.75879 2.78516 6.75488C1.79883 7.74121 1.26172 8.60058 0.8125 9.88964L0.548828 10.6709V27.5166V44.3623L0.8125 45.1436C1.26172 46.4326 1.79883 47.292 2.78516 48.2783C3.77148 49.2646 4.63086 49.8018 5.91992 50.251L6.70117 50.5146L15.2363 50.5439L23.7617 50.5732L24.2012 50.3584C24.4648 50.2314 24.7383 49.9971 24.8945 49.7529C25.1191 49.4111 25.1582 49.2549 25.1582 48.6104C25.1582 47.9658 25.1191 47.8096 24.8945 47.4678C24.7383 47.2334 24.4648 46.9893 24.2109 46.8623C23.7812 46.6572 23.7227 46.6572 16.1641 46.6572C11.623 46.6572 8.2832 46.6182 7.87305 46.5596C6.0957 46.3057 4.75781 44.9678 4.50391 43.1904C4.37695 42.2627 4.37695 12.7705 4.50391 11.8428C4.63086 10.9541 5.00195 10.2021 5.61719 9.58691C6.54492 8.66894 7.50195 8.38574 9.66016 8.37597H10.7539V9.61621C10.7539 11.0811 10.9102 11.54 11.5645 11.9697C11.9062 12.1943 12.0625 12.2334 12.707 12.2334C13.3516 12.2334 13.5078 12.1943 13.8496 11.9697C14.5039 11.54 14.6602 11.0811 14.6602 9.61621V8.37597H19.0547H23.4492V9.61621C23.4492 11.0811 23.6055 11.54 24.2598 11.9697C24.6016 12.1943 24.7578 12.2334 25.4023 12.2334C26.0469 12.2334 26.2031 12.1943 26.5449 11.9697C27.1992 11.54 27.3555 11.0811 27.3555 9.61621V8.37597H31.7988H36.2422V9.61621C36.2422 11.0811 36.3984 11.54 37.0527 11.9697C37.3945 12.1943 37.5508 12.2334 38.1953 12.2334C38.8398 12.2334 38.9961 12.1943 39.3379 11.9697C39.9922 11.54 40.1484 11.0811 40.1484 9.61621V8.37597H41.3008C43.498 8.38574 44.4551 8.66894 45.3828 9.58691C45.998 10.2021 46.3691 10.9541 46.4961 11.8428C46.5449 12.2334 46.5938 14.958 46.5938 18.2295C46.5938 23.8447 46.5938 23.9424 46.7988 24.3721C46.9258 24.626 47.1699 24.8994 47.4043 25.0557C47.7461 25.2803 47.9023 25.3193 48.5469 25.3193C49.1914 25.3193 49.3477 25.2803 49.6895 25.0557C49.9336 24.8994 50.168 24.626 50.2949 24.3623C50.5098 23.9228 50.5098 23.9131 50.4805 17.3018L50.4512 10.6709L50.1875 9.88964C49.7383 8.60058 49.2012 7.74121 48.2148 6.75488C47.2188 5.75879 46.3594 5.22168 45.0801 4.79199C44.3574 4.54785 44.1523 4.52832 42.2285 4.48925L40.1484 4.45019V3.21972C40.1484 1.76464 39.9922 1.30566 39.3379 0.875973C38.9961 0.651363 38.8398 0.612301 38.1953 0.612301C37.5508 0.612301 37.3945 0.651363 37.0527 0.875973C36.3984 1.30566 36.2422 1.76464 36.2422 3.22949V4.46972H31.7988H27.3555V3.22949C27.3555 1.76464 27.1992 1.30566 26.5449 0.875973C26.2031 0.651363 26.0469 0.612301 25.4023 0.612301C24.7578 0.612301 24.6016 0.651363 24.2598 0.875973C23.6055 1.30566 23.4492 1.76464 23.4492 3.22949V4.46972H19.0547H14.6602V3.22949C14.6602 1.76464 14.5039 1.30566 13.8496 0.875973C13.3027 0.514645 12.3457 0.465816 11.75 0.768551Z" fill="#0A152F"/>
<path d="M11.7498 19.3232C11.1443 19.626 10.822 20.1631 10.7732 20.9346C10.6951 22.1455 11.3689 22.9267 12.5701 23.0049C13.781 23.083 14.5623 22.4092 14.6404 21.208C14.6892 20.417 14.4256 19.8115 13.8494 19.4306C13.3025 19.0693 12.3455 19.0205 11.7498 19.3232Z" fill="#0A152F"/>
<path d="M20.2459 19.3232C19.6404 19.626 19.3181 20.1631 19.2693 20.9346C19.1912 22.1455 19.865 22.9267 21.0662 23.0049C22.2771 23.083 23.0584 22.4092 23.1365 21.208C23.1853 20.417 22.9216 19.8115 22.3455 19.4306C21.7986 19.0693 20.8416 19.0205 20.2459 19.3232Z" fill="#0A152F"/>
<path d="M28.742 19.3232C28.1365 19.626 27.8142 20.1631 27.7654 20.9346C27.6873 22.1455 28.3611 22.9267 29.5623 23.0049C30.7732 23.083 31.5545 22.4092 31.6326 21.208C31.6814 20.417 31.4177 19.8115 30.8416 19.4306C30.2947 19.0693 29.3377 19.0205 28.742 19.3232Z" fill="#0A152F"/>
<path d="M37.2381 19.3232C36.6326 19.626 36.3103 20.1631 36.2615 20.9346C36.1834 22.1455 36.8572 22.9267 38.0584 23.0049C39.2693 23.083 40.0506 22.4092 40.1287 21.208C40.1775 20.417 39.9138 19.8115 39.3377 19.4306C38.7908 19.0693 37.8338 19.0205 37.2381 19.3232Z" fill="#0A152F"/>
<path d="M36.5059 27.0771C34.1133 27.5264 31.877 28.7471 30.168 30.5342C28.7227 32.0283 27.7363 33.7764 27.1797 35.8174C26.9453 36.6768 26.9258 36.9014 26.9258 38.7471C26.9258 40.5928 26.9453 40.8174 27.1797 41.6768C27.7656 43.8252 28.752 45.5342 30.3242 47.1064C31.8965 48.6787 33.6055 49.665 35.7539 50.251C36.6133 50.4854 36.8379 50.5049 38.6836 50.5049C40.5293 50.5049 40.7539 50.4854 41.6133 50.251C43.7617 49.665 45.4707 48.6787 47.043 47.1064C48.6152 45.5342 49.6016 43.8252 50.1875 41.6768C50.4219 40.8174 50.4414 40.5928 50.4414 38.7471C50.4414 36.9014 50.4219 36.6768 50.1875 35.8174C49.6016 33.6689 48.6152 31.96 47.043 30.3877C45.4609 28.8154 43.7324 27.8096 41.6133 27.2529C40.832 27.0479 40.4219 26.999 38.9766 26.9697C37.7559 26.9502 37.0527 26.9795 36.5059 27.0771ZM40.3633 31.0908C42.8242 31.6572 44.9141 33.3857 45.8906 35.6807C46.7109 37.624 46.7109 39.8701 45.8906 41.8135C44.9141 44.1084 42.8242 45.8369 40.3633 46.4033C39.4648 46.6084 37.9023 46.6084 37.0039 46.4033C34.0254 45.7295 31.7012 43.4053 31.0273 40.4268C30.8223 39.5283 30.8223 37.9658 31.0273 37.0674C31.7012 34.1279 33.9277 31.8623 36.877 31.1201C37.7754 30.8955 39.4355 30.8857 40.3633 31.0908Z" fill="#FFA633"/>
<path d="M37.7266 32.9951C37.4824 33.1123 37.1895 33.376 37.043 33.6006L36.7793 33.9912L36.75 36.6279C36.7207 39.1475 36.7305 39.2646 36.9355 39.6943C37.0625 39.958 37.2969 40.2314 37.541 40.3877C37.9316 40.6514 37.9512 40.6514 39.9727 40.6807C41.9063 40.71 42.043 40.7002 42.4531 40.4951C42.7266 40.3682 43 40.1338 43.1563 39.8896C43.3809 39.5479 43.4199 39.3916 43.4199 38.7471C43.4199 38.1025 43.3809 37.9463 43.1563 37.6045C42.7852 37.0479 42.2285 36.7939 41.3398 36.7939H40.6367V35.5049C40.6367 33.9814 40.4902 33.542 39.8262 33.1025C39.2793 32.7412 38.3223 32.6924 37.7266 32.9951Z" fill="#127384"/>
<path d="M11.7498 27.8193C11.1443 28.1221 10.822 28.6592 10.7732 29.4306C10.6951 30.6416 11.3689 31.4228 12.5701 31.501C13.781 31.5791 14.5623 30.9053 14.6404 29.7041C14.6892 28.9131 14.4256 28.3076 13.8494 27.9267C13.3025 27.5654 12.3455 27.5166 11.7498 27.8193Z" fill="#0A152F"/>
<path d="M20.2459 27.8193C19.6404 28.1221 19.3181 28.6592 19.2693 29.4306C19.1912 30.6416 19.865 31.4228 21.0662 31.501C22.2771 31.5791 23.0584 30.9053 23.1365 29.7041C23.1853 28.9131 22.9216 28.3076 22.3455 27.9267C21.7986 27.5654 20.8416 27.5166 20.2459 27.8193Z" fill="#0A152F"/>
<path d="M11.7498 36.3154C11.1443 36.6181 10.822 37.1553 10.7732 37.9267C10.6951 39.1377 11.3689 39.9189 12.5701 39.9971C13.781 40.0752 14.5623 39.4014 14.6404 38.2002C14.6892 37.4092 14.4256 36.8037 13.8494 36.4228C13.3025 36.0615 12.3455 36.0127 11.7498 36.3154Z" fill="#0A152F"/>
<path d="M20.2459 36.3154C19.6404 36.6181 19.3181 37.1553 19.2693 37.9267C19.1912 39.1377 19.865 39.9189 21.0662 39.9971C22.2771 40.0752 23.0584 39.4014 23.1365 38.2002C23.1853 37.4092 22.9216 36.8037 22.3455 36.4228C21.7986 36.0615 20.8416 36.0127 20.2459 36.3154Z" fill="#0A152F"/>
</g>
<defs>
<clipPath id="clip0_3596_70660">
<rect width="50" height="50" fill="white" transform="translate(0.5 0.563477)"/>
</clipPath>
</defs>
</svg>
