<svg width="51" height="50" viewBox="0 0 51 50" fill="none" xmlns="http://www.w3.org/2000/svg">
<g clip-path="url(#clip0_3513_76756)">
<path d="M6.47656 1.74805C2.39453 3.02734 0.910156 3.52539 0.734375 3.70117L0.5 3.92578V9.47266C0.5 15.4395 0.519531 15.7812 1.03711 17.5977C1.51562 19.2578 2.4043 21.0059 3.43945 22.334C3.70312 22.6758 3.91797 22.9688 3.91797 22.998C3.91797 23.0273 3.44922 23.0469 2.87305 23.0469C1.87695 23.0469 1.81836 23.0566 1.55469 23.3105C1.33008 23.5254 1.28125 23.6523 1.28125 24.0137C1.28125 24.4238 1.38867 24.6094 2.45312 26.1719L3.625 27.8809L2.51172 29.0039C1.31055 30.2246 1.18359 30.3906 1.18359 30.8594C1.18359 31.3184 1.73047 31.8359 2.21875 31.8359C2.55078 31.8359 2.67773 31.748 3.68359 30.7422C4.29883 30.1465 4.81641 29.6777 4.85547 29.707C4.88477 29.7461 5.32422 30.3711 5.82227 31.1035L6.74023 32.4414L6.33984 33.0859C6.125 33.4473 5.65625 34.0527 5.29492 34.4238C4.19141 35.5859 3.43945 36.9238 3.01953 38.457C2.84375 39.082 2.80469 39.4824 2.80469 40.8203C2.79492 42.2168 2.82422 42.5391 3.01953 43.2031C4.03516 46.7285 6.80859 49.2773 10.334 49.9023C11.3105 50.0781 13.5371 49.9805 14.3672 49.7266C16.5059 49.082 18.3809 47.7637 19.5137 46.123L19.8652 45.6055H26.6328H33.3906L33.8301 46.2207C34.7578 47.5195 36.291 48.7305 37.8047 49.3457C39.1328 49.8926 39.4941 49.9512 41.2715 49.9512C42.5898 49.9512 43.0684 49.9121 43.6055 49.7656C45.2363 49.3262 46.5547 48.5742 47.7461 47.4219C48.5664 46.6309 49.2305 45.6934 49.2305 45.3418C49.2305 44.9609 48.9473 44.5215 48.5957 44.375C48.0879 44.1699 47.7168 44.2871 47.2969 44.8047C45.5 47.0312 43.7324 47.959 41.3203 47.959C38.9766 47.959 36.8672 46.875 35.5 44.9512C34.6016 43.7012 34.1914 42.4121 34.1914 40.8203C34.1914 39.2285 34.6016 37.9395 35.5 36.6895C35.9004 36.1133 36.8965 35.0977 36.9746 35.1758C36.9941 35.1953 37.2969 35.7227 37.6582 36.3574L38.3027 37.5098L38.0098 37.8418C37.1992 38.7695 36.8867 39.6973 36.9453 41.0449C36.9746 41.9336 37.0234 42.1191 37.3164 42.7246C37.7461 43.623 38.5176 44.3945 39.416 44.8242C40.0312 45.127 40.1973 45.166 41.125 45.1953C41.9746 45.2246 42.248 45.1953 42.7266 45.0293C43.9277 44.6094 44.7871 43.8379 45.3535 42.6855C45.6562 42.0605 45.666 41.9922 45.666 40.8203C45.666 39.6289 45.6562 39.5801 45.334 38.916C44.8945 38.0176 44.123 37.2461 43.2246 36.8066C42.5605 36.4844 42.5117 36.4746 41.3105 36.4746H40.0898L39.4453 35.3027C39.0059 34.5117 38.8301 34.1113 38.9082 34.0723C39.2793 33.8672 40.4707 33.6816 41.3203 33.6816C42.873 33.6816 44.2207 34.1113 45.4512 35C46.2129 35.5469 46.6719 36.0254 47.3164 36.9238C47.5996 37.3242 47.9512 37.7051 48.0977 37.7734C48.7031 38.0762 49.5234 37.5586 49.5234 36.8848C49.5234 36.1719 48.0195 34.2578 46.75 33.3496C45.9785 32.8027 44.9531 32.2949 44.0742 32.0215L43.3809 31.7969L44.2012 30.9473C45.1387 29.9707 45.168 29.9121 45.1094 28.3789L45.0801 27.3438L41.1738 23.4375C39.0254 21.2891 37.1113 19.4531 36.9258 19.3555C36.6914 19.248 36.3594 19.1895 35.9004 19.1895C35.0312 19.1992 34.6406 19.3945 33.8301 20.2441C33.3125 20.7812 33.2148 20.9375 33.2148 21.2305C33.2148 21.7285 33.3906 22.041 33.7715 22.2168C34.2891 22.4707 34.6504 22.3438 35.2656 21.7285C35.5586 21.4355 35.8418 21.1914 35.8906 21.1914C35.9492 21.1914 36.3496 21.5527 36.7891 21.9824L37.5898 22.7832L36.1152 23.9941C35.2949 24.668 34.5723 25.2344 34.5039 25.2637C34.4355 25.293 33.3125 24.9414 32.0137 24.4824C30.7148 24.0234 29.4551 23.5938 29.2109 23.5254C28.5566 23.3496 26.8379 23.3691 26.0859 23.5645C25.7246 23.6523 24.4648 24.2188 23.1758 24.873C20.9883 25.9766 20.8613 26.0254 20.2754 26.0254C19.7773 26.0254 19.5332 25.9668 18.9766 25.6934L18.293 25.3613L18.8496 24.9219C21.2129 23.0371 22.9902 20.3906 23.791 17.5879C24.3086 15.7812 24.3281 15.4395 24.3281 9.47266V3.93555L24.0938 3.70117C23.791 3.39844 12.9805 -0.00976562 12.3652 0.00976562C12.1504 0.00976562 9.50391 0.791016 6.47656 1.74805ZM17.541 3.66211L22.3262 5.15625L22.3164 9.92188C22.3164 15.166 22.2773 15.5859 21.7012 17.3535C20.4316 21.25 17.1113 24.4336 13.2148 25.498C12.3457 25.7422 11.9746 25.6934 10.5098 25.1367C7.0625 23.8184 4.2793 20.8887 3.12695 17.3535C2.55078 15.5859 2.51172 15.166 2.51172 9.92188L2.50195 5.15625L7.43359 3.61328C10.1484 2.76367 12.4531 2.08984 12.5605 2.11914C12.668 2.13867 14.9141 2.83203 17.541 3.66211ZM39.8066 25L40.4902 25.6836L39.543 26.6406C39.0254 27.1582 38.5566 27.6855 38.498 27.8027C38.3613 28.0762 38.3613 28.8574 38.498 29.1309C38.5566 29.248 39.0742 29.8145 39.6406 30.3906C40.2754 31.0352 40.6465 31.4746 40.5879 31.5234C40.5293 31.5723 40.1875 31.6602 39.8066 31.7188C38.0684 32.002 36.3301 32.8516 35.0703 34.043L34.5234 34.5605L28.4785 34.5898L22.4238 34.6191L21.8379 34.8535C21.4277 35.0195 21.0762 35.2637 20.6562 35.6836C19.9336 36.4062 19.6309 37.1191 19.6016 38.1055L19.5918 38.7598L19.3477 38.6035C18.8105 38.252 9.32812 32.2559 9.17188 32.168C9.02539 32.0898 4.30859 25.2734 4.30859 25.1465C4.30859 25.1172 4.72852 25.0977 5.23633 25.0977H6.1543L6.96484 25.625C8.78125 26.7969 11.2031 27.7344 12.4336 27.7344C12.9902 27.7344 14.416 27.3438 15.4219 26.9141L16.2324 26.5723L17.375 27.207C18 27.5488 18.5566 27.832 18.6055 27.832C18.6543 27.832 20.5781 28.6523 22.8828 29.6484C25.4316 30.752 27.2969 31.5039 27.6484 31.5625C28.3418 31.6992 29.2988 31.5527 29.9336 31.2305C30.5977 30.8984 34.3867 28.0664 36.7695 26.1328C38 25.1367 39.0352 24.3164 39.0645 24.3164C39.1035 24.3164 39.4355 24.6289 39.8066 25ZM29.9434 25.9473C30.6465 26.1914 31.4863 26.4844 31.8281 26.5918C32.1602 26.709 32.4238 26.8359 32.4141 26.875C32.3457 27.0703 29.0254 29.4043 28.6738 29.502C28.1367 29.6582 27.9121 29.5801 25.1777 28.3887L22.8438 27.373L24.3477 26.5918C26.9844 25.2148 27.6191 25.1367 29.9434 25.9473ZM43.0781 28.6523C43.0781 28.9941 43.0098 29.1113 42.6191 29.5117L42.1602 29.9805L41.3984 29.2285L40.6367 28.4668L41.291 27.8125L41.9453 27.1484L42.5117 27.7051C43.0098 28.2031 43.0781 28.3105 43.0781 28.6523ZM14.1328 37.7539C17.3262 39.7754 19.9336 41.4648 19.9336 41.5039C19.9336 41.5723 19.1035 43.0371 19.0059 43.1445C18.9863 43.1738 6.7793 37.002 6.58398 36.875C6.52539 36.8359 8.17578 34.082 8.24414 34.082C8.29297 34.082 10.9395 35.7324 14.1328 37.7539ZM24.0156 36.9531C24.3672 37.1777 24.7188 37.8125 24.7188 38.2227C24.7188 38.6035 24.3867 39.209 24.0352 39.4531C22.9316 40.2441 21.3496 39.1699 21.7012 37.8711C21.8281 37.373 22.2383 36.9336 22.7168 36.7676C23.1855 36.6113 23.5762 36.6699 24.0156 36.9531ZM33.0195 36.709C33.0195 36.7578 32.9121 37.0312 32.7949 37.3145C32.2969 38.4473 32.1895 39.0918 32.1992 40.8691C32.1992 42.0605 32.248 42.6758 32.3555 43.0371L32.502 43.5547H26.8477H21.1934L21.4863 43.0371C21.9648 42.207 22.082 41.9531 22.082 41.7773C22.082 41.6406 22.1309 41.6309 22.4531 41.7187C22.9902 41.8652 24.0547 41.748 24.6699 41.4648C26.2422 40.752 27.1113 38.9062 26.6328 37.2852C26.5449 36.9824 26.4766 36.709 26.4766 36.6797C26.4766 36.6504 27.9512 36.6211 29.748 36.6211C31.5547 36.6211 33.0195 36.6602 33.0195 36.709ZM7.57031 40.8301C7.58008 41.875 7.59961 41.9824 7.90234 42.6172C8.3125 43.4961 8.75195 44.0234 9.44531 44.4824C10.3047 45.0586 11.0078 45.2344 12.1797 45.1953C13.0781 45.166 13.2246 45.1367 13.8887 44.8047C14.2891 44.6094 14.7773 44.2676 14.9922 44.0527L15.373 43.6621L16.5742 44.2676C17.2383 44.5996 17.7852 44.9121 17.7852 44.9609C17.7852 45.0098 17.3945 45.4395 16.916 45.9082C16.2031 46.6113 15.9004 46.8359 15.1387 47.207C13.9766 47.7637 13.127 47.959 11.877 47.959C10.041 47.959 8.32227 47.2461 6.99414 45.9473C5.5293 44.502 4.80664 42.832 4.79688 40.8496C4.79688 40.1367 5.00195 38.7988 5.14844 38.5547C5.17773 38.5059 5.73438 38.75 6.37891 39.0918L7.55078 39.7168L7.57031 40.8301ZM42.4922 38.7891C42.8535 39.0039 43.1172 39.2676 43.3223 39.5898C43.5859 40.0195 43.6152 40.1562 43.6152 40.8203C43.6152 41.4844 43.5859 41.6211 43.3223 42.0508C43.1367 42.3437 42.8438 42.6367 42.5508 42.8223C42.1211 43.0859 41.9844 43.1152 41.3203 43.1152C40.6562 43.1152 40.5195 43.0859 40.0898 42.8223C39.416 42.4023 39.0449 41.7676 38.9961 40.9473C38.9668 40.4883 38.9961 40.2148 39.123 39.9316C39.2207 39.7266 39.3281 39.5508 39.3672 39.5508C39.3965 39.5508 39.6602 39.9707 39.9434 40.4883C40.5977 41.6602 40.7344 41.7969 41.3301 41.7969C41.6914 41.7969 41.8379 41.748 42.043 41.543C42.4434 41.1328 42.3945 40.6055 41.8672 39.668C41.1348 38.3594 41.1641 38.4766 41.5938 38.4766C41.8379 38.4766 42.1406 38.584 42.4922 38.7891ZM13.3223 42.6758C13.4883 42.832 12.5605 43.1641 11.9648 43.1641C10.7148 43.1641 9.58203 42.1387 9.58203 41.0059V40.7031L11.418 41.6504C12.4238 42.168 13.2832 42.627 13.3223 42.6758Z" fill="#111111"/>
<path d="M12.1699 4.08203C12.0625 4.10156 10.373 4.61914 8.41016 5.23438C5.5 6.14258 4.80664 6.39649 4.63086 6.5918L4.40625 6.84571V10.7813C4.40625 13.8965 4.43555 14.8926 4.55273 15.498C5.24609 19.1406 7.81445 22.1875 11.2324 23.4375C12.2285 23.7988 12.5996 23.7988 13.5957 23.4375C16.9941 22.1973 19.582 19.1309 20.2656 15.5273C20.3926 14.8828 20.4219 13.9453 20.4219 10.7813V6.84571L20.207 6.5918C20.0215 6.38672 19.3379 6.14258 16.418 5.23438C12.5508 4.03321 12.4629 4.01367 12.1699 4.08203ZM15.4609 7.09961L18.498 8.04688L18.4395 11.3281C18.3809 14.8047 18.332 15.2441 17.8438 16.5332C17.2676 18.0762 16.0273 19.6387 14.6309 20.5957C13.9766 21.0449 12.7363 21.6113 12.4141 21.6113C12.2676 21.6113 11.8086 21.4551 11.3984 21.2598C9.36719 20.293 7.82422 18.6621 7.00391 16.582C6.50586 15.3125 6.44727 14.834 6.38867 11.3281L6.33008 8.04688L9.29883 7.10938C10.9297 6.5918 12.2969 6.17188 12.3457 6.16211C12.3848 6.15235 13.7812 6.58203 15.4609 7.09961Z" fill="#127384"/>
<path d="M15.1484 10.7031C15.0703 10.7422 14.2207 11.5332 13.2734 12.4805L11.5449 14.1992L10.627 13.3008C9.75781 12.4512 9.67969 12.4023 9.29883 12.4023C8.69336 12.4023 8.3125 12.8027 8.3125 13.4375V13.9062L9.67969 15.2734L11.0371 16.6504H11.5352H12.0234L14.2695 14.4043L16.5156 12.1484V11.6992C16.5156 11.0938 16.2324 10.7422 15.6855 10.6934C15.4707 10.6641 15.2266 10.6738 15.1484 10.7031Z" fill="#FFA633"/>
<path d="M48.8008 40.0977C48.5957 40.3027 48.5469 40.4492 48.5469 40.8203C48.5469 41.1914 48.5957 41.3379 48.8008 41.543C49.0059 41.748 49.1523 41.7969 49.5234 41.7969C50.168 41.7969 50.5 41.4648 50.5 40.8203C50.5 40.4492 50.4512 40.3027 50.2461 40.0977C49.875 39.7363 49.1719 39.7363 48.8008 40.0977Z" fill="#111111"/>
</g>
<defs>
<clipPath id="clip0_3513_76756">
<rect width="50" height="50" fill="white" transform="translate(0.5)"/>
</clipPath>
</defs>
</svg>
