<svg width="100" height="31" viewBox="0 0 100 31" fill="none" xmlns="http://www.w3.org/2000/svg">
<rect x="0.5" width="99" height="31" rx="5" fill="#0A152F"/>
<path d="M21.2952 15.1801L23.7593 12.7159L15.8002 8.24258C15.2727 7.95758 14.7785 7.91758 14.3452 8.22925L21.2952 15.1801ZM24.1793 18.0651L26.741 16.6242C27.241 16.3442 27.5152 15.9476 27.5152 15.5076C27.5152 15.0684 27.241 14.6709 26.7418 14.3909L24.4227 13.0884L21.8118 15.6984L24.1793 18.0651ZM13.9168 8.83508C13.8635 8.99925 13.8335 9.18258 13.8335 9.38341V21.6376C13.8335 21.9551 13.9035 22.2284 14.0302 22.4459L20.7777 15.6976L13.9168 8.83508ZM21.2952 16.2142L14.5852 22.9251C14.7135 22.9742 14.8518 23.0001 14.9977 23.0001C15.2577 23.0001 15.5285 22.9234 15.8043 22.7701L23.5168 18.4392L21.2952 16.2142Z" fill="white"/>
<path d="M38.332 7.392C38.6787 7.392 38.9773 7.44267 39.228 7.544C39.484 7.64 39.7373 7.792 39.988 8L39.54 8.464C39.3427 8.304 39.1533 8.18933 38.972 8.12C38.7907 8.05067 38.5773 8.016 38.332 8.016C38.0493 8.016 37.788 8.09333 37.548 8.248C37.3133 8.39733 37.1213 8.64 36.972 8.976C36.8227 9.30667 36.748 9.728 36.748 10.24C36.748 11.0133 36.8733 11.5787 37.124 11.936C37.38 12.2933 37.756 12.472 38.252 12.472C38.6573 12.472 39.0067 12.3893 39.3 12.224V10.56H38.324L38.236 9.944H40.052V12.608C39.4813 12.9333 38.8813 13.096 38.252 13.096C37.5267 13.096 36.9587 12.8533 36.548 12.368C36.1427 11.8827 35.94 11.1733 35.94 10.24C35.94 9.64267 36.0467 9.13067 36.26 8.704C36.4787 8.272 36.7693 7.94667 37.132 7.728C37.5 7.504 37.9 7.392 38.332 7.392ZM44.4909 10.768C44.4909 10.8907 44.4855 11.016 44.4749 11.144H41.7869C41.8189 11.608 41.9362 11.9493 42.1389 12.168C42.3415 12.3867 42.6029 12.496 42.9229 12.496C43.1255 12.496 43.3122 12.4667 43.4829 12.408C43.6535 12.3493 43.8322 12.256 44.0189 12.128L44.3389 12.568C43.8909 12.92 43.4002 13.096 42.8669 13.096C42.2802 13.096 41.8215 12.904 41.4909 12.52C41.1655 12.136 41.0029 11.608 41.0029 10.936C41.0029 10.4987 41.0722 10.112 41.2109 9.776C41.3549 9.43467 41.5575 9.168 41.8189 8.976C42.0855 8.784 42.3975 8.688 42.7549 8.688C43.3149 8.688 43.7442 8.872 44.0429 9.24C44.3415 9.608 44.4909 10.1173 44.4909 10.768ZM43.7629 10.552C43.7629 10.136 43.6802 9.81867 43.5149 9.6C43.3495 9.38133 43.1015 9.272 42.7709 9.272C42.1682 9.272 41.8402 9.71467 41.7869 10.6H43.7629V10.552ZM47.7943 12.808C47.5169 13 47.2023 13.096 46.8503 13.096C46.4929 13.096 46.2129 12.9947 46.0103 12.792C45.8129 12.584 45.7143 12.2853 45.7143 11.896V9.352H44.9783V8.784H45.7143V7.832L46.4503 7.744V8.784H47.4503L47.3703 9.352H46.4503V11.864C46.4503 12.0827 46.4876 12.2427 46.5623 12.344C46.6423 12.44 46.7729 12.488 46.9543 12.488C47.1196 12.488 47.3063 12.432 47.5143 12.32L47.7943 12.808ZM51.4101 8.784V13H50.6741V8.784H51.4101ZM51.0341 6.76C51.1887 6.76 51.3141 6.808 51.4101 6.904C51.5061 7 51.5541 7.12 51.5541 7.264C51.5541 7.408 51.5061 7.528 51.4101 7.624C51.3141 7.71467 51.1887 7.76 51.0341 7.76C50.8847 7.76 50.7621 7.71467 50.6661 7.624C50.5701 7.528 50.5221 7.408 50.5221 7.264C50.5221 7.12 50.5701 7 50.6661 6.904C50.7621 6.808 50.8847 6.76 51.0341 6.76ZM55.0599 12.808C54.7825 13 54.4679 13.096 54.1159 13.096C53.7585 13.096 53.4785 12.9947 53.2759 12.792C53.0785 12.584 52.9799 12.2853 52.9799 11.896V9.352H52.2439V8.784H52.9799V7.832L53.7159 7.744V8.784H54.7159L54.6359 9.352H53.7159V11.864C53.7159 12.0827 53.7532 12.2427 53.8279 12.344C53.9079 12.44 54.0385 12.488 54.2199 12.488C54.3852 12.488 54.5719 12.432 54.7799 12.32L55.0599 12.808ZM59.5237 8.688C60.1157 8.688 60.5744 8.88533 60.8997 9.28C61.2304 9.67467 61.3957 10.2107 61.3957 10.888C61.3957 11.3253 61.321 11.712 61.1717 12.048C61.0224 12.3787 60.8064 12.6373 60.5237 12.824C60.241 13.0053 59.905 13.096 59.5157 13.096C58.9237 13.096 58.4624 12.8987 58.1317 12.504C57.801 12.1093 57.6357 11.5733 57.6357 10.896C57.6357 10.4587 57.7104 10.0747 57.8597 9.744C58.009 9.408 58.225 9.14933 58.5077 8.968C58.7904 8.78133 59.129 8.688 59.5237 8.688ZM59.5237 9.28C58.793 9.28 58.4277 9.81867 58.4277 10.896C58.4277 11.968 58.7904 12.504 59.5157 12.504C60.241 12.504 60.6037 11.9653 60.6037 10.888C60.6037 9.816 60.2437 9.28 59.5237 9.28ZM64.5956 8.688C64.9796 8.688 65.2782 8.80267 65.4916 9.032C65.7102 9.26133 65.8196 9.576 65.8196 9.976V13H65.0836V10.08C65.0836 9.78133 65.0276 9.57067 64.9156 9.448C64.8036 9.32533 64.6382 9.264 64.4196 9.264C64.1956 9.264 63.9982 9.328 63.8276 9.456C63.6569 9.584 63.4969 9.768 63.3476 10.008V13H62.6116V8.784H63.2436L63.3076 9.408C63.4569 9.184 63.6409 9.008 63.8596 8.88C64.0836 8.752 64.3289 8.688 64.5956 8.688Z" fill="white"/>
<path d="M38.758 17.628C39.178 17.628 39.55 17.694 39.874 17.826C40.204 17.952 40.51 18.135 40.792 18.375L40.099 19.095C39.877 18.927 39.667 18.804 39.469 18.726C39.277 18.648 39.058 18.609 38.812 18.609C38.338 18.609 37.954 18.798 37.66 19.176C37.372 19.548 37.228 20.118 37.228 20.886C37.228 21.696 37.339 22.278 37.561 22.632C37.789 22.98 38.14 23.154 38.614 23.154C38.956 23.154 39.265 23.079 39.541 22.929V21.408H38.668L38.533 20.445H40.828V23.514C40.504 23.712 40.153 23.868 39.775 23.982C39.403 24.09 39.025 24.144 38.641 24.144C37.723 24.144 37.027 23.868 36.553 23.316C36.079 22.764 35.842 21.951 35.842 20.877C35.842 20.199 35.971 19.614 36.229 19.122C36.487 18.63 36.835 18.258 37.273 18.006C37.717 17.754 38.212 17.628 38.758 17.628ZM43.9026 19.086C44.6166 19.086 45.1746 19.311 45.5766 19.761C45.9786 20.205 46.1796 20.823 46.1796 21.615C46.1796 22.119 46.0866 22.563 45.9006 22.947C45.7206 23.325 45.4566 23.619 45.1086 23.829C44.7666 24.039 44.3616 24.144 43.8936 24.144C43.1796 24.144 42.6186 23.922 42.2106 23.478C41.8086 23.028 41.6076 22.407 41.6076 21.615C41.6076 21.111 41.6976 20.67 41.8776 20.292C42.0636 19.908 42.3276 19.611 42.6696 19.401C43.0176 19.191 43.4286 19.086 43.9026 19.086ZM43.9026 20.04C43.5786 20.04 43.3356 20.169 43.1736 20.427C43.0176 20.679 42.9396 21.075 42.9396 21.615C42.9396 22.155 43.0176 22.554 43.1736 22.812C43.3356 23.064 43.5756 23.19 43.8936 23.19C44.2116 23.19 44.4486 23.064 44.6046 22.812C44.7666 22.554 44.8476 22.155 44.8476 21.615C44.8476 21.075 44.7696 20.679 44.6136 20.427C44.4576 20.169 44.2206 20.04 43.9026 20.04ZM49.1585 19.086C49.8725 19.086 50.4305 19.311 50.8325 19.761C51.2345 20.205 51.4355 20.823 51.4355 21.615C51.4355 22.119 51.3425 22.563 51.1565 22.947C50.9765 23.325 50.7125 23.619 50.3645 23.829C50.0225 24.039 49.6175 24.144 49.1495 24.144C48.4355 24.144 47.8745 23.922 47.4665 23.478C47.0645 23.028 46.8635 22.407 46.8635 21.615C46.8635 21.111 46.9535 20.67 47.1335 20.292C47.3195 19.908 47.5835 19.611 47.9255 19.401C48.2735 19.191 48.6845 19.086 49.1585 19.086ZM49.1585 20.04C48.8345 20.04 48.5915 20.169 48.4295 20.427C48.2735 20.679 48.1955 21.075 48.1955 21.615C48.1955 22.155 48.2735 22.554 48.4295 22.812C48.5915 23.064 48.8315 23.19 49.1495 23.19C49.4675 23.19 49.7045 23.064 49.8605 22.812C50.0225 22.554 50.1035 22.155 50.1035 21.615C50.1035 21.075 50.0255 20.679 49.8695 20.427C49.7135 20.169 49.4765 20.04 49.1585 20.04ZM56.6733 19.491C56.3613 19.611 55.9023 19.671 55.2963 19.671C55.5963 19.803 55.8183 19.968 55.9623 20.166C56.1063 20.358 56.1783 20.601 56.1783 20.895C56.1783 21.201 56.0973 21.477 55.9353 21.723C55.7793 21.963 55.5513 22.152 55.2513 22.29C54.9573 22.428 54.6123 22.497 54.2163 22.497C54.0063 22.497 53.8203 22.476 53.6583 22.434C53.5383 22.512 53.4783 22.617 53.4783 22.749C53.4783 22.845 53.5143 22.923 53.5863 22.983C53.6643 23.037 53.8113 23.064 54.0273 23.064H54.7563C55.1103 23.064 55.4193 23.124 55.6833 23.244C55.9533 23.358 56.1603 23.52 56.3043 23.73C56.4543 23.934 56.5293 24.168 56.5293 24.432C56.5293 24.918 56.3193 25.296 55.8993 25.566C55.4853 25.842 54.8853 25.98 54.0993 25.98C53.5353 25.98 53.0883 25.92 52.7583 25.8C52.4343 25.686 52.2063 25.518 52.0743 25.296C51.9423 25.074 51.8763 24.795 51.8763 24.459H53.0193C53.0193 24.615 53.0493 24.738 53.1093 24.828C53.1693 24.924 53.2773 24.993 53.4333 25.035C53.5953 25.083 53.8263 25.107 54.1263 25.107C54.5403 25.107 54.8283 25.056 54.9903 24.954C55.1583 24.852 55.2423 24.708 55.2423 24.522C55.2423 24.354 55.1793 24.225 55.0533 24.135C54.9273 24.045 54.7413 24 54.4953 24H53.7933C53.3193 24 52.9653 23.913 52.7313 23.739C52.4973 23.559 52.3803 23.334 52.3803 23.064C52.3803 22.896 52.4283 22.734 52.5243 22.578C52.6263 22.416 52.7643 22.281 52.9383 22.173C52.6443 22.011 52.4283 21.822 52.2903 21.606C52.1583 21.384 52.0923 21.12 52.0923 20.814C52.0923 20.466 52.1763 20.163 52.3443 19.905C52.5183 19.641 52.7583 19.44 53.0643 19.302C53.3763 19.158 53.7303 19.086 54.1263 19.086C54.6183 19.098 55.0233 19.056 55.3413 18.96C55.6593 18.864 55.9983 18.714 56.3583 18.51L56.6733 19.491ZM54.1533 19.941C53.9133 19.941 53.7213 20.019 53.5773 20.175C53.4393 20.325 53.3703 20.532 53.3703 20.796C53.3703 21.066 53.4393 21.279 53.5773 21.435C53.7213 21.591 53.9163 21.669 54.1623 21.669C54.4203 21.669 54.6153 21.594 54.7473 21.444C54.8793 21.294 54.9453 21.072 54.9453 20.778C54.9453 20.22 54.6813 19.941 54.1533 19.941ZM58.4909 24.144C58.1009 24.144 57.7979 24.033 57.5819 23.811C57.3659 23.583 57.2579 23.262 57.2579 22.848V17.331L58.5359 17.187V22.812C58.5359 23.022 58.6229 23.127 58.7969 23.127C58.8929 23.127 58.9769 23.109 59.0489 23.073L59.3099 23.982C59.0639 24.09 58.7909 24.144 58.4909 24.144ZM63.954 21.507C63.954 21.567 63.945 21.732 63.927 22.002H60.948C60.99 22.434 61.107 22.74 61.299 22.92C61.491 23.1 61.752 23.19 62.082 23.19C62.286 23.19 62.478 23.157 62.658 23.091C62.838 23.025 63.033 22.92 63.243 22.776L63.774 23.496C63.24 23.928 62.637 24.144 61.965 24.144C61.215 24.144 60.639 23.919 60.237 23.469C59.835 23.019 59.634 22.41 59.634 21.642C59.634 21.156 59.718 20.721 59.886 20.337C60.06 19.947 60.309 19.641 60.633 19.419C60.963 19.197 61.353 19.086 61.803 19.086C62.481 19.086 63.009 19.299 63.387 19.725C63.765 20.151 63.954 20.745 63.954 21.507ZM62.685 21.147C62.685 20.355 62.4 19.959 61.83 19.959C61.566 19.959 61.359 20.058 61.209 20.256C61.065 20.448 60.978 20.763 60.948 21.201H62.685V21.147ZM69.0293 17.772C69.8393 17.772 70.4663 17.94 70.9103 18.276C71.3603 18.612 71.5853 19.113 71.5853 19.779C71.5853 20.475 71.3633 21 70.9193 21.354C70.4753 21.702 69.8813 21.876 69.1373 21.876H68.4263V24H67.1033V17.772H69.0293ZM69.0293 20.904C69.4133 20.904 69.7073 20.817 69.9113 20.643C70.1153 20.469 70.2173 20.181 70.2173 19.779C70.2173 19.077 69.8153 18.726 69.0113 18.726H68.4263V20.904H69.0293ZM73.5289 24.144C73.1389 24.144 72.8359 24.033 72.6199 23.811C72.4039 23.583 72.2959 23.262 72.2959 22.848V17.331L73.5739 17.187V22.812C73.5739 23.022 73.6609 23.127 73.8349 23.127C73.9309 23.127 74.0149 23.109 74.0869 23.073L74.3479 23.982C74.1019 24.09 73.8289 24.144 73.5289 24.144ZM78.6051 22.677C78.6051 22.863 78.6321 23.001 78.6861 23.091C78.7401 23.175 78.8301 23.238 78.9561 23.28L78.6861 24.126C78.4041 24.102 78.1731 24.036 77.9931 23.928C77.8191 23.82 77.6841 23.652 77.5881 23.424C77.2761 23.904 76.7991 24.144 76.1571 24.144C75.6831 24.144 75.3051 24.009 75.0231 23.739C74.7471 23.463 74.6091 23.106 74.6091 22.668C74.6091 22.146 74.7981 21.747 75.1761 21.471C75.5541 21.195 76.0971 21.057 76.8051 21.057H77.3541V20.823C77.3541 20.529 77.2881 20.325 77.1561 20.211C77.0241 20.097 76.8051 20.04 76.4991 20.04C76.1631 20.04 75.7431 20.124 75.2391 20.292L74.9511 19.437C75.5451 19.203 76.1331 19.086 76.7151 19.086C77.3631 19.086 77.8401 19.227 78.1461 19.509C78.4521 19.785 78.6051 20.199 78.6051 20.751V22.677ZM76.5081 23.226C76.8681 23.226 77.1501 23.049 77.3541 22.695V21.786H76.9311C76.2411 21.786 75.8961 22.044 75.8961 22.56C75.8961 22.77 75.9471 22.935 76.0491 23.055C76.1571 23.169 76.3101 23.226 76.5081 23.226ZM82.2071 24.009C82.0151 24.615 81.7121 25.083 81.2981 25.413C80.8901 25.743 80.3351 25.932 79.6331 25.98L79.4981 25.062C79.9541 25.002 80.2871 24.894 80.4971 24.738C80.7131 24.582 80.8901 24.336 81.0281 24H80.5871L79.1021 19.23H80.4611L81.4151 23.172L82.4231 19.23H83.7461L82.2071 24.009Z" fill="white"/>
</svg>
