<svg width="90" height="91" viewBox="0 0 90 91" fill="none" xmlns="http://www.w3.org/2000/svg">
<path d="M6.52886 23.0172L45 0.805866L83.4711 23.0172V67.4398L45 89.6512L6.52886 67.4398V23.0172Z" fill="#0A152F" stroke="#F4F4F4"/>
<path d="M44.9998 48.8952C49.0442 48.8952 52.3332 45.6062 52.3332 41.5618C52.3332 37.5175 49.0442 34.2285 44.9998 34.2285C40.9555 34.2285 37.6665 37.5175 37.6665 41.5618C37.6665 45.6062 40.9555 48.8952 44.9998 48.8952ZM44.9998 37.8952C47.022 37.8952 48.6665 39.5397 48.6665 41.5618C48.6665 43.584 47.022 45.2285 44.9998 45.2285C42.9777 45.2285 41.3332 43.584 41.3332 41.5618C41.3332 39.5397 42.9777 37.8952 44.9998 37.8952Z" fill="white"/>
<path d="M43.9365 63.2208C44.2468 63.4424 44.6185 63.5615 44.9998 63.5615C45.3811 63.5615 45.7529 63.4424 46.0632 63.2208C46.6205 62.8266 59.7197 53.3685 59.6665 41.5618C59.6665 33.475 53.0867 26.8951 44.9998 26.8951C36.913 26.8951 30.3332 33.475 30.3332 41.5526C30.28 53.3685 43.3792 62.8266 43.9365 63.2208ZM44.9998 30.5618C51.0663 30.5618 55.9998 35.4953 55.9998 41.571C56.0383 49.7073 47.9552 57.0131 44.9998 59.4093C42.0463 57.0113 33.9613 49.7036 33.9998 41.5618C33.9998 35.4953 38.9333 30.5618 44.9998 30.5618Z" fill="white"/>
</svg>
