<svg width="22" height="9" viewBox="0 0 22 9" fill="none" xmlns="http://www.w3.org/2000/svg">
<path d="M3.89624 0.127719C3.45505 0.365283 3.1383 0.806473 3.08174 1.24766C3.00255 1.76804 3.10436 1.80198 3.73787 1.43998C4.17906 1.1911 4.51843 0.65941 4.51843 0.229532C4.51843 -0.0306567 4.25825 -0.075907 3.89624 0.127719Z" fill="#111111"/>
<path d="M7.68555 3.6685V6.89258H8.25118H8.8168V5.81788V4.74319H9.72181C10.4345 4.74319 10.7399 4.68663 11.1133 4.50563C11.9617 4.06444 12.2106 3.63456 12.2106 2.5938C12.2106 1.5983 11.9843 1.16842 11.1924 0.681978C10.8418 0.467039 10.6268 0.444414 9.24668 0.444414H7.68555V3.6685ZM10.8304 1.73405C11.0793 1.98292 11.1359 2.1413 11.1359 2.5938C11.1359 3.06893 11.0793 3.20468 10.8191 3.45356C10.5589 3.69112 10.3553 3.759 9.66525 3.80425L8.8168 3.87212V2.5938V1.31548L9.67656 1.37204C10.4119 1.41729 10.5703 1.47386 10.8304 1.73405Z" fill="#111111"/>
<path d="M0.920714 2.1075C-0.00691685 2.98988 0.0157082 4.55101 0.977277 6.05558C1.44109 6.76827 1.74653 6.94927 2.33478 6.83615C2.86648 6.74565 3.49998 6.74565 4.22398 6.84746C4.76699 6.91534 4.80092 6.90402 5.16293 6.49677C5.66068 5.93114 6.04531 5.07139 5.85299 4.95826C4.93668 4.43788 4.7783 3.45369 5.49099 2.69575C5.83037 2.34506 5.77381 2.14143 5.26474 1.86993C4.9593 1.71156 4.74436 1.67762 4.22398 1.73418C3.39817 1.82468 2.95698 1.82468 2.0746 1.73418C1.38453 1.66631 1.37322 1.67762 0.920714 2.1075Z" fill="#111111"/>
<path d="M13.5914 2.33361C13.1389 2.54855 12.6638 3.14812 12.6638 3.47618C12.6638 3.69112 12.7316 3.72506 13.1728 3.72506C13.5235 3.72506 13.6819 3.67981 13.6819 3.578C13.6819 3.28387 14.0891 3.0463 14.5643 3.0463C14.9263 3.0463 15.0733 3.11418 15.2543 3.34043C15.3901 3.51012 15.4919 3.73637 15.4919 3.8495C15.4919 4.0305 15.4014 4.06444 14.8584 4.06444C13.9308 4.06444 13.2294 4.26806 12.8108 4.664C12.4941 4.96944 12.4375 5.09388 12.4375 5.5577C12.4375 6.02151 12.4941 6.14595 12.8334 6.49664C13.2068 6.85864 13.2859 6.89258 13.9194 6.89258C14.4398 6.89258 14.6887 6.8247 15.0394 6.60976L15.4919 6.32695V6.60976C15.4919 6.86995 15.5371 6.89258 16.001 6.89258H16.51V5.09388C16.51 3.43093 16.4987 3.28387 16.2611 2.93318C16.1141 2.72955 15.82 2.46936 15.605 2.35624C15.1073 2.08474 14.1004 2.07342 13.5914 2.33361ZM15.4919 5.09388C15.4919 5.46719 14.7566 6.1007 14.3154 6.1007C13.9308 6.1007 13.4556 5.76132 13.4556 5.47851C13.4556 5.12782 14.0213 4.85632 14.7679 4.85632C15.4353 4.85632 15.4919 4.87894 15.4919 5.09388Z" fill="#111111"/>
<path d="M16.7344 2.19775C16.7344 2.25432 17.0398 3.08013 17.1869 3.44214C17.2434 3.56658 17.4358 4.09827 17.6281 4.62996C17.8091 5.16165 18.0693 5.88565 18.1937 6.24765C18.4199 6.86985 18.4313 6.92641 18.2503 7.28841C18.0919 7.6391 18.0127 7.68435 17.6281 7.68435C17.1869 7.68435 17.1869 7.68435 17.1869 8.13685V8.58936H17.6846C18.2276 8.58936 18.7028 8.4536 18.929 8.21604C19.2005 7.95585 19.3928 7.49204 20.0263 5.59152C20.1508 5.21821 20.2978 4.81096 20.3544 4.68652C20.3996 4.56208 20.5467 4.17745 20.6711 3.83808C20.7956 3.4987 20.9766 3.00095 21.0784 2.72944C21.1802 2.46926 21.2594 2.22038 21.2594 2.19775C21.2594 2.16382 21.0105 2.14119 20.7164 2.14119H20.1621L19.8114 3.23851C19.6191 3.84939 19.3702 4.66389 19.2571 5.04852C19.1553 5.44446 19.0308 5.71596 18.9856 5.67071C18.9516 5.62546 18.7819 5.12771 18.6123 4.57339C18.4313 4.00777 18.1937 3.23851 18.0693 2.84257L17.843 2.14119H17.2887C16.9833 2.14119 16.7344 2.16382 16.7344 2.19775Z" fill="#111111"/>
</svg>
