<svg width="247" height="27" viewBox="0 0 247 27" fill="none" xmlns="http://www.w3.org/2000/svg">
<path d="M-0.00496078 26.0532V3.87722H13.211L12.667 7.62122H5.24304V13.5092H11.707V17.2532H5.24304V26.0532H-0.00496078ZM23.5838 8.58122C24.2025 8.58122 24.7678 8.65589 25.2798 8.80522L24.4798 13.7012C23.8398 13.5519 23.3278 13.4772 22.9438 13.4772C21.9411 13.4772 21.1731 13.8292 20.6398 14.5332C20.1278 15.2159 19.7225 16.2506 19.4238 17.6372V26.0532H14.3678V9.06122H18.7838L19.1998 12.3572C19.5838 11.1839 20.1598 10.2666 20.9278 9.60522C21.7171 8.92256 22.6025 8.58122 23.5838 8.58122ZM41.0588 17.2212C41.0588 17.9252 41.0268 18.5332 40.9628 19.0452H30.4348C30.6055 20.4746 31.0108 21.4772 31.6508 22.0532C32.2908 22.6292 33.1761 22.9172 34.3068 22.9172C34.9895 22.9172 35.6508 22.7999 36.2908 22.5652C36.9308 22.3092 37.6241 21.9252 38.3708 21.4132L40.4508 24.2292C38.4668 25.8079 36.2588 26.5972 33.8268 26.5972C31.0748 26.5972 28.9628 25.7866 27.4908 24.1652C26.0188 22.5439 25.2828 20.3679 25.2828 17.6372C25.2828 15.9092 25.5921 14.3626 26.2108 12.9972C26.8295 11.6106 27.7361 10.5226 28.9308 9.73322C30.1255 8.92255 31.5548 8.51722 33.2188 8.51722C35.6721 8.51722 37.5921 9.28522 38.9788 10.8212C40.3655 12.3572 41.0588 14.4906 41.0588 17.2212ZM36.0988 15.7812C36.0561 13.1786 35.1388 11.8772 33.3468 11.8772C32.4721 11.8772 31.7895 12.1972 31.2988 12.8372C30.8295 13.4772 30.5415 14.5332 30.4348 16.0052H36.0988V15.7812ZM58.715 17.2212C58.715 17.9252 58.683 18.5332 58.619 19.0452H48.091C48.2617 20.4746 48.667 21.4772 49.307 22.0532C49.947 22.6292 50.8324 22.9172 51.963 22.9172C52.6457 22.9172 53.307 22.7999 53.947 22.5652C54.587 22.3092 55.2804 21.9252 56.027 21.4132L58.107 24.2292C56.123 25.8079 53.915 26.5972 51.483 26.5972C48.731 26.5972 46.619 25.7866 45.147 24.1652C43.675 22.5439 42.939 20.3679 42.939 17.6372C42.939 15.9092 43.2484 14.3626 43.867 12.9972C44.4857 11.6106 45.3924 10.5226 46.587 9.73322C47.7817 8.92255 49.211 8.51722 50.875 8.51722C53.3284 8.51722 55.2484 9.28522 56.635 10.8212C58.0217 12.3572 58.715 14.4906 58.715 17.2212ZM53.755 15.7812C53.7124 13.1786 52.795 11.8772 51.003 11.8772C50.1284 11.8772 49.4457 12.1972 48.955 12.8372C48.4857 13.4772 48.1977 14.5332 48.091 16.0052H53.755V15.7812ZM78.301 3.33322C79.6877 3.33322 80.9144 3.53589 81.981 3.94122C83.069 4.34655 84.093 4.95455 85.053 5.76522L82.557 8.74122C81.8957 8.22922 81.245 7.84522 80.605 7.58922C79.965 7.33322 79.2824 7.20522 78.557 7.20522C77.0637 7.20522 75.8797 7.83455 75.005 9.09322C74.1517 10.3519 73.725 12.2932 73.725 14.9172C73.725 17.4986 74.1517 19.4186 75.005 20.6772C75.8797 21.9146 77.085 22.5332 78.621 22.5332C79.4317 22.5332 80.1677 22.3839 80.829 22.0852C81.4904 21.7652 82.205 21.3172 82.973 20.7412L85.309 23.7492C84.477 24.5812 83.4637 25.2639 82.269 25.7972C81.0957 26.3306 79.7944 26.5972 78.365 26.5972C76.317 26.5972 74.5357 26.1492 73.021 25.2532C71.5064 24.3572 70.3224 23.0346 69.469 21.2852C68.637 19.5146 68.221 17.3919 68.221 14.9172C68.221 12.5066 68.6477 10.4266 69.501 8.67722C70.3757 6.92789 71.5704 5.60522 73.085 4.70922C74.621 3.79189 76.3597 3.33322 78.301 3.33322ZM100.747 21.1252C100.747 21.7652 100.832 22.2346 101.003 22.5332C101.195 22.8319 101.493 23.0559 101.899 23.2052L100.843 26.5012C99.7975 26.4159 98.9441 26.1919 98.2828 25.8292C97.6215 25.4452 97.1095 24.8479 96.7468 24.0372C95.6375 25.7439 93.9308 26.5972 91.6268 26.5972C89.9415 26.5972 88.5975 26.1066 87.5948 25.1252C86.5921 24.1439 86.0908 22.8639 86.0908 21.2852C86.0908 19.4292 86.7735 18.0106 88.1388 17.0292C89.5041 16.0479 91.4775 15.5572 94.0588 15.5572H95.7868V14.8212C95.7868 13.8186 95.5735 13.1359 95.1468 12.7732C94.7201 12.3892 93.9735 12.1972 92.9068 12.1972C92.3521 12.1972 91.6801 12.2826 90.8908 12.4532C90.1015 12.6026 89.2908 12.8159 88.4588 13.0932L87.3068 9.76522C88.3735 9.35989 89.4615 9.05056 90.5708 8.83722C91.7015 8.62389 92.7468 8.51722 93.7068 8.51722C96.1388 8.51722 97.9201 9.01855 99.0508 10.0212C100.181 11.0239 100.747 12.5279 100.747 14.5332V21.1252ZM93.0988 22.9812C94.2508 22.9812 95.1468 22.4372 95.7868 21.3492V18.3412H94.5388C93.3868 18.3412 92.5228 18.5439 91.9468 18.9492C91.3921 19.3546 91.1148 19.9839 91.1148 20.8372C91.1148 21.5199 91.2855 22.0532 91.6268 22.4372C91.9895 22.7999 92.4801 22.9812 93.0988 22.9812ZM114.726 8.51722C116.198 8.51722 117.35 8.96522 118.182 9.86122C119.014 10.7572 119.43 12.0159 119.43 13.6372V26.0532H114.374V14.5012C114.374 13.6479 114.235 13.0612 113.958 12.7412C113.702 12.3999 113.307 12.2292 112.774 12.2292C111.75 12.2292 110.769 12.9652 109.83 14.4372V26.0532H104.774V9.06122H109.19L109.542 11.0772C110.267 10.2239 111.046 9.58389 111.878 9.15722C112.731 8.73056 113.681 8.51722 114.726 8.51722ZM130.603 8.51722C131.776 8.51722 132.832 8.68789 133.771 9.02922C134.709 9.37056 135.595 9.89322 136.427 10.5972L134.251 13.6052C133.184 12.7946 132.107 12.3892 131.019 12.3892C129.888 12.3892 129.035 12.8052 128.459 13.6372C127.883 14.4692 127.595 15.8132 127.595 17.6692C127.595 19.4612 127.883 20.7306 128.459 21.4772C129.035 22.2239 129.867 22.5972 130.955 22.5972C131.531 22.5972 132.053 22.5119 132.523 22.3412C132.992 22.1492 133.557 21.8506 134.219 21.4452L136.427 24.5812C134.741 25.9252 132.832 26.5972 130.699 26.5972C128.971 26.5972 127.477 26.2346 126.219 25.5092C124.96 24.7626 123.989 23.7279 123.307 22.4052C122.624 21.0612 122.283 19.4932 122.283 17.7012C122.283 15.9092 122.624 14.3199 123.307 12.9332C123.989 11.5466 124.96 10.4692 126.219 9.70122C127.477 8.91189 128.939 8.51722 130.603 8.51722ZM152.746 17.2212C152.746 17.9252 152.714 18.5332 152.65 19.0452H142.122C142.293 20.4746 142.698 21.4772 143.338 22.0532C143.978 22.6292 144.864 22.9172 145.994 22.9172C146.677 22.9172 147.338 22.7999 147.978 22.5652C148.618 22.3092 149.312 21.9252 150.058 21.4132L152.138 24.2292C150.154 25.8079 147.946 26.5972 145.514 26.5972C142.762 26.5972 140.65 25.7866 139.178 24.1652C137.706 22.5439 136.97 20.3679 136.97 17.6372C136.97 15.9092 137.28 14.3626 137.898 12.9972C138.517 11.6106 139.424 10.5226 140.618 9.73322C141.813 8.92255 143.242 8.51722 144.906 8.51722C147.36 8.51722 149.28 9.28522 150.666 10.8212C152.053 12.3572 152.746 14.4906 152.746 17.2212ZM147.786 15.7812C147.744 13.1786 146.826 11.8772 145.034 11.8772C144.16 11.8772 143.477 12.1972 142.986 12.8372C142.517 13.4772 142.229 14.5332 142.122 16.0052H147.786V15.7812ZM160.099 26.5972C158.627 26.5972 157.475 26.1812 156.643 25.3492C155.832 24.4959 155.427 23.2906 155.427 21.7332V2.30922L160.483 1.76522V21.5412C160.483 22.2452 160.771 22.5972 161.347 22.5972C161.645 22.5972 161.923 22.5439 162.179 22.4372L163.171 26.0212C162.253 26.4052 161.229 26.5972 160.099 26.5972ZM169.599 26.5972C168.127 26.5972 166.975 26.1812 166.143 25.3492C165.332 24.4959 164.927 23.2906 164.927 21.7332V2.30922L169.983 1.76522V21.5412C169.983 22.2452 170.271 22.5972 170.847 22.5972C171.145 22.5972 171.423 22.5439 171.679 22.4372L172.671 26.0212C171.753 26.4052 170.729 26.5972 169.599 26.5972ZM187.934 21.1252C187.934 21.7652 188.02 22.2346 188.19 22.5332C188.382 22.8319 188.681 23.0559 189.086 23.2052L188.03 26.5012C186.985 26.4159 186.132 26.1919 185.47 25.8292C184.809 25.4452 184.297 24.8479 183.934 24.0372C182.825 25.7439 181.118 26.5972 178.814 26.5972C177.129 26.5972 175.785 26.1066 174.782 25.1252C173.78 24.1439 173.278 22.8639 173.278 21.2852C173.278 19.4292 173.961 18.0106 175.326 17.0292C176.692 16.0479 178.665 15.5572 181.246 15.5572H182.974V14.8212C182.974 13.8186 182.761 13.1359 182.334 12.7732C181.908 12.3892 181.161 12.1972 180.094 12.1972C179.54 12.1972 178.868 12.2826 178.078 12.4532C177.289 12.6026 176.478 12.8159 175.646 13.0932L174.494 9.76522C175.561 9.35989 176.649 9.05056 177.758 8.83722C178.889 8.62389 179.934 8.51722 180.894 8.51722C183.326 8.51722 185.108 9.01855 186.238 10.0212C187.369 11.0239 187.934 12.5279 187.934 14.5332V21.1252ZM180.286 22.9812C181.438 22.9812 182.334 22.4372 182.974 21.3492V18.3412H181.726C180.574 18.3412 179.71 18.5439 179.134 18.9492C178.58 19.3546 178.302 19.9839 178.302 20.8372C178.302 21.5199 178.473 22.0532 178.814 22.4372C179.177 22.7999 179.668 22.9812 180.286 22.9812ZM202.618 25.2532C201.999 25.6799 201.274 26.0106 200.442 26.2452C199.631 26.4799 198.82 26.5972 198.01 26.5972C194.298 26.5759 192.442 24.5279 192.442 20.4532V12.5812H190.042V9.06122H192.442V5.38122L197.498 4.80522V9.06122H201.402L200.858 12.5812H197.498V20.3892C197.498 21.1786 197.626 21.7439 197.882 22.0852C198.138 22.4266 198.543 22.5972 199.098 22.5972C199.674 22.5972 200.282 22.4159 200.922 22.0532L202.618 25.2532ZM209.361 9.06122V26.0532H204.305V9.06122H209.361ZM206.801 0.101221C207.676 0.101221 208.391 0.378555 208.945 0.933222C209.521 1.46655 209.809 2.14922 209.809 2.98122C209.809 3.81322 209.521 4.50655 208.945 5.06122C208.391 5.59455 207.676 5.86122 206.801 5.86122C205.927 5.86122 205.212 5.59455 204.657 5.06122C204.103 4.50655 203.825 3.81322 203.825 2.98122C203.825 2.14922 204.103 1.46655 204.657 0.933222C205.212 0.378555 205.927 0.101221 206.801 0.101221ZM220.697 8.51722C223.299 8.51722 225.337 9.31722 226.809 10.9172C228.281 12.4959 229.017 14.7146 229.017 17.5732C229.017 19.3866 228.675 20.9759 227.993 22.3412C227.331 23.6852 226.371 24.7306 225.113 25.4772C223.875 26.2239 222.403 26.5972 220.697 26.5972C218.115 26.5972 216.078 25.8079 214.585 24.2292C213.113 22.6292 212.377 20.3999 212.377 17.5412C212.377 15.7279 212.707 14.1492 213.369 12.8052C214.051 11.4399 215.011 10.3839 216.249 9.63722C217.507 8.89056 218.99 8.51722 220.697 8.51722ZM220.697 12.2292C219.673 12.2292 218.905 12.6666 218.393 13.5412C217.881 14.3946 217.625 15.7279 217.625 17.5412C217.625 19.3972 217.87 20.7519 218.361 21.6052C218.873 22.4586 219.651 22.8852 220.697 22.8852C221.721 22.8852 222.489 22.4586 223.001 21.6052C223.513 20.7306 223.769 19.3866 223.769 17.5732C223.769 15.7172 223.513 14.3626 223.001 13.5092C222.51 12.6559 221.742 12.2292 220.697 12.2292ZM241.976 8.51722C243.448 8.51722 244.6 8.96522 245.432 9.86122C246.264 10.7572 246.68 12.0159 246.68 13.6372V26.0532H241.624V14.5012C241.624 13.6479 241.485 13.0612 241.208 12.7412C240.952 12.3999 240.557 12.2292 240.024 12.2292C239 12.2292 238.019 12.9652 237.08 14.4372V26.0532H232.024V9.06122H236.44L236.792 11.0772C237.517 10.2239 238.296 9.58389 239.128 9.15722C239.981 8.73056 240.931 8.51722 241.976 8.51722Z" fill="white"/>
</svg>
