<svg width="295" height="26" viewBox="0 0 295 26" fill="none" xmlns="http://www.w3.org/2000/svg">
<mask id="path-1-outside-1_3510_75437" maskUnits="userSpaceOnUse" x="-2.14404" y="-1.94678" width="299" height="30" fill="black">
<rect fill="white" x="-2.14404" y="-1.94678" width="299" height="30"/>
<path d="M11.8377 13.3092C13.3097 13.5866 14.5044 14.1306 15.4217 14.9412C16.3604 15.7519 16.8297 16.9679 16.8297 18.5892C16.8297 20.9572 15.9764 22.6319 14.2697 23.6132C12.5844 24.5732 10.2164 25.0532 7.16571 25.0532H0.0297072V2.87722H6.30171C9.41637 2.87722 11.795 3.32522 13.4377 4.22122C15.0804 5.09589 15.9017 6.53589 15.9017 8.54122C15.9017 9.84256 15.507 10.8986 14.7177 11.7092C13.9497 12.4986 12.9897 13.0319 11.8377 13.3092ZM5.27771 6.58922V11.7412H7.22971C9.44837 11.7412 10.5577 10.8452 10.5577 9.05322C10.5577 8.15722 10.259 7.52789 9.66171 7.16522C9.06437 6.78122 8.11504 6.58922 6.81371 6.58922H5.27771ZM7.19771 21.2452C8.58437 21.2452 9.62971 21.0426 10.3337 20.6372C11.059 20.2106 11.4217 19.4319 11.4217 18.3012C11.4217 16.2532 10.1417 15.2292 7.58171 15.2292H5.27771V21.2452H7.19771ZM34.4997 16.2212C34.4997 16.9252 34.4677 17.5332 34.4037 18.0452H23.8757C24.0464 19.4746 24.4517 20.4772 25.0917 21.0532C25.7317 21.6292 26.617 21.9172 27.7477 21.9172C28.4304 21.9172 29.0917 21.7999 29.7317 21.5652C30.3717 21.3092 31.065 20.9252 31.8117 20.4132L33.8917 23.2292C31.9077 24.8079 29.6997 25.5972 27.2677 25.5972C24.5157 25.5972 22.4037 24.7866 20.9317 23.1652C19.4597 21.5439 18.7237 19.3679 18.7237 16.6372C18.7237 14.9092 19.033 13.3626 19.6517 11.9972C20.2704 10.6106 21.177 9.52256 22.3717 8.73322C23.5664 7.92255 24.9957 7.51722 26.6597 7.51722C29.113 7.51722 31.033 8.28522 32.4197 9.82122C33.8064 11.3572 34.4997 13.4906 34.4997 16.2212ZM29.5397 14.7812C29.497 12.1786 28.5797 10.8772 26.7877 10.8772C25.913 10.8772 25.2304 11.1972 24.7397 11.8372C24.2704 12.4772 23.9824 13.5332 23.8757 15.0052H29.5397V14.7812ZM43.324 7.51722C44.54 7.51722 45.6813 7.69855 46.748 8.06122C47.8146 8.42389 48.7533 8.93589 49.564 9.59722L47.708 12.4452C46.3213 11.5706 44.924 11.1332 43.516 11.1332C42.8546 11.1332 42.3426 11.2506 41.98 11.4852C41.6386 11.6986 41.468 12.0079 41.468 12.4132C41.468 12.7332 41.5426 12.9999 41.692 13.2132C41.8626 13.4052 42.1933 13.6079 42.684 13.8212C43.1746 14.0346 43.932 14.2906 44.956 14.5892C46.7266 15.1012 48.0386 15.7732 48.892 16.6052C49.7666 17.4159 50.204 18.5466 50.204 19.9972C50.204 21.1492 49.8733 22.1519 49.212 23.0052C48.5506 23.8372 47.644 24.4772 46.492 24.9252C45.34 25.3732 44.06 25.5972 42.652 25.5972C41.2226 25.5972 39.8893 25.3732 38.652 24.9252C37.436 24.4772 36.4013 23.8586 35.548 23.0692L38.012 20.3172C39.4413 21.4266 40.9453 21.9812 42.524 21.9812C43.292 21.9812 43.8893 21.8426 44.316 21.5652C44.764 21.2879 44.988 20.8932 44.988 20.3812C44.988 19.9759 44.9026 19.6559 44.732 19.4212C44.5613 19.1866 44.2306 18.9732 43.74 18.7812C43.2493 18.5679 42.4706 18.3119 41.404 18.0132C39.7186 17.5226 38.46 16.8399 37.628 15.9652C36.796 15.0906 36.38 14.0026 36.38 12.7012C36.38 11.7199 36.6573 10.8452 37.212 10.0772C37.788 9.28789 38.5986 8.66922 39.644 8.22122C40.7106 7.75189 41.9373 7.51722 43.324 7.51722ZM63.4647 24.2532C62.846 24.6799 62.1207 25.0106 61.2887 25.2452C60.478 25.4799 59.6674 25.5972 58.8567 25.5972C55.1447 25.5759 53.2887 23.5279 53.2887 19.4532V11.5812H50.8887V8.06122H53.2887V4.38122L58.3447 3.80522V8.06122H62.2487L61.7047 11.5812H58.3447V19.3892C58.3447 20.1786 58.4727 20.7439 58.7287 21.0852C58.9847 21.4266 59.39 21.5972 59.9447 21.5972C60.5207 21.5972 61.1287 21.4159 61.7687 21.0532L63.4647 24.2532ZM80.1382 16.5732H78.0902V25.0532H72.8422V2.87722H80.1062C83.1355 2.87722 85.4075 3.43189 86.9222 4.54122C88.4582 5.65055 89.2262 7.34655 89.2262 9.62922C89.2262 11.0586 88.8849 12.2532 88.2022 13.2132C87.5195 14.1519 86.4422 14.9519 84.9702 15.6132L90.6022 25.0532H84.6822L80.1382 16.5732ZM78.0902 12.9572H80.2982C81.4715 12.9572 82.3462 12.6906 82.9222 12.1572C83.5195 11.6239 83.8182 10.7812 83.8182 9.62922C83.8182 8.56256 83.4982 7.78389 82.8582 7.29322C82.2395 6.80256 81.2795 6.55722 79.9782 6.55722H78.0902V12.9572ZM105.688 20.1252C105.688 20.7652 105.773 21.2346 105.944 21.5332C106.136 21.8319 106.434 22.0559 106.84 22.2052L105.784 25.5012C104.738 25.4159 103.885 25.1919 103.224 24.8292C102.562 24.4452 102.05 23.8479 101.688 23.0372C100.578 24.7439 98.8717 25.5972 96.5677 25.5972C94.8824 25.5972 93.5384 25.1066 92.5357 24.1252C91.533 23.1439 91.0317 21.8639 91.0317 20.2852C91.0317 18.4292 91.7144 17.0106 93.0797 16.0292C94.445 15.0479 96.4184 14.5572 98.9997 14.5572H100.728V13.8212C100.728 12.8186 100.514 12.1359 100.088 11.7732C99.661 11.3892 98.9144 11.1972 97.8477 11.1972C97.293 11.1972 96.621 11.2826 95.8317 11.4532C95.0424 11.6026 94.2317 11.8159 93.3997 12.0932L92.2477 8.76522C93.3144 8.35989 94.4024 8.05056 95.5117 7.83722C96.6424 7.62389 97.6877 7.51722 98.6477 7.51722C101.08 7.51722 102.861 8.01855 103.992 9.02122C105.122 10.0239 105.688 11.5279 105.688 13.5332V20.1252ZM98.0397 21.9812C99.1917 21.9812 100.088 21.4372 100.728 20.3492V17.3412H99.4797C98.3277 17.3412 97.4637 17.5439 96.8877 17.9492C96.333 18.3546 96.0557 18.9839 96.0557 19.8372C96.0557 20.5199 96.2264 21.0532 96.5677 21.4372C96.9304 21.7999 97.421 21.9812 98.0397 21.9812ZM120.371 24.2532C119.752 24.6799 119.027 25.0106 118.195 25.2452C117.384 25.4799 116.574 25.5972 115.763 25.5972C112.051 25.5759 110.195 23.5279 110.195 19.4532V11.5812H107.795V8.06122H110.195V4.38122L115.251 3.80522V8.06122H119.155L118.611 11.5812H115.251V19.3892C115.251 20.1786 115.379 20.7439 115.635 21.0852C115.891 21.4266 116.296 21.5972 116.851 21.5972C117.427 21.5972 118.035 21.4159 118.675 21.0532L120.371 24.2532ZM136.312 16.2212C136.312 16.9252 136.28 17.5332 136.216 18.0452H125.688C125.859 19.4746 126.264 20.4772 126.904 21.0532C127.544 21.6292 128.43 21.9172 129.56 21.9172C130.243 21.9172 130.904 21.7999 131.544 21.5652C132.184 21.3092 132.878 20.9252 133.624 20.4132L135.704 23.2292C133.72 24.8079 131.512 25.5972 129.08 25.5972C126.328 25.5972 124.216 24.7866 122.744 23.1652C121.272 21.5439 120.536 19.3679 120.536 16.6372C120.536 14.9092 120.846 13.3626 121.464 11.9972C122.083 10.6106 122.99 9.52256 124.184 8.73322C125.379 7.92255 126.808 7.51722 128.472 7.51722C130.926 7.51722 132.846 8.28522 134.232 9.82122C135.619 11.3572 136.312 13.4906 136.312 16.2212ZM131.352 14.7812C131.31 12.1786 130.392 10.8772 128.6 10.8772C127.726 10.8772 127.043 11.1972 126.552 11.8372C126.083 12.4772 125.795 13.5332 125.688 15.0052H131.352V14.7812ZM156.442 2.33322C159.301 2.33322 161.765 3.23989 163.834 5.05322L161.178 7.83722C160.389 7.23989 159.653 6.81322 158.97 6.55722C158.309 6.27989 157.541 6.14122 156.666 6.14122C155.024 6.14122 153.712 6.79189 152.73 8.09322C151.749 9.37322 151.258 11.3252 151.258 13.9492C151.258 16.7866 151.632 18.8026 152.378 19.9972C153.125 21.1706 154.288 21.7572 155.866 21.7572C156.976 21.7572 157.978 21.5119 158.874 21.0212V15.9972H155.994L155.482 12.2852H163.962V23.2612C162.81 24.0079 161.541 24.5839 160.154 24.9892C158.768 25.3946 157.381 25.5972 155.994 25.5972C152.624 25.5972 150.085 24.6159 148.378 22.6532C146.672 20.6692 145.818 17.7679 145.818 13.9492C145.818 11.5172 146.277 9.42655 147.194 7.67722C148.133 5.92789 149.402 4.60522 151.002 3.70922C152.624 2.79189 154.437 2.33322 156.442 2.33322ZM181.707 25.0532H177.323L177.099 22.9092C175.862 24.7012 174.145 25.5972 171.947 25.5972C170.39 25.5972 169.206 25.1279 168.395 24.1892C167.606 23.2506 167.211 21.9386 167.211 20.2532V8.06122H172.267V19.6132C172.267 20.4452 172.395 21.0319 172.651 21.3732C172.929 21.6932 173.345 21.8532 173.899 21.8532C174.966 21.8532 175.883 21.1919 176.651 19.8692V8.06122H181.707V25.0532ZM199.188 20.1252C199.188 20.7652 199.273 21.2346 199.444 21.5332C199.636 21.8319 199.934 22.0559 200.34 22.2052L199.284 25.5012C198.238 25.4159 197.385 25.1919 196.724 24.8292C196.062 24.4452 195.55 23.8479 195.188 23.0372C194.078 24.7439 192.372 25.5972 190.068 25.5972C188.382 25.5972 187.038 25.1066 186.036 24.1252C185.033 23.1439 184.532 21.8639 184.532 20.2852C184.532 18.4292 185.214 17.0106 186.58 16.0292C187.945 15.0479 189.918 14.5572 192.5 14.5572H194.228V13.8212C194.228 12.8186 194.014 12.1359 193.588 11.7732C193.161 11.3892 192.414 11.1972 191.348 11.1972C190.793 11.1972 190.121 11.2826 189.332 11.4532C188.542 11.6026 187.732 11.8159 186.9 12.0932L185.748 8.76522C186.814 8.35989 187.902 8.05056 189.012 7.83722C190.142 7.62389 191.188 7.51722 192.148 7.51722C194.58 7.51722 196.361 8.01855 197.492 9.02122C198.622 10.0239 199.188 11.5279 199.188 13.5332V20.1252ZM191.54 21.9812C192.692 21.9812 193.588 21.4372 194.228 20.3492V17.3412H192.98C191.828 17.3412 190.964 17.5439 190.388 17.9492C189.833 18.3546 189.556 18.9839 189.556 19.8372C189.556 20.5199 189.726 21.0532 190.068 21.4372C190.43 21.7999 190.921 21.9812 191.54 21.9812ZM212.431 7.58122C213.05 7.58122 213.615 7.65589 214.127 7.80522L213.327 12.7012C212.687 12.5519 212.175 12.4772 211.791 12.4772C210.788 12.4772 210.02 12.8292 209.487 13.5332C208.975 14.2159 208.57 15.2506 208.271 16.6372V25.0532H203.215V8.06122H207.631L208.047 11.3572C208.431 10.1839 209.007 9.26656 209.775 8.60522C210.564 7.92256 211.45 7.58122 212.431 7.58122ZM228.438 20.1252C228.438 20.7652 228.523 21.2346 228.694 21.5332C228.886 21.8319 229.184 22.0559 229.59 22.2052L228.534 25.5012C227.488 25.4159 226.635 25.1919 225.974 24.8292C225.312 24.4452 224.8 23.8479 224.438 23.0372C223.328 24.7439 221.622 25.5972 219.318 25.5972C217.632 25.5972 216.288 25.1066 215.286 24.1252C214.283 23.1439 213.782 21.8639 213.782 20.2852C213.782 18.4292 214.464 17.0106 215.83 16.0292C217.195 15.0479 219.168 14.5572 221.75 14.5572H223.478V13.8212C223.478 12.8186 223.264 12.1359 222.838 11.7732C222.411 11.3892 221.664 11.1972 220.598 11.1972C220.043 11.1972 219.371 11.2826 218.582 11.4532C217.792 11.6026 216.982 11.8159 216.15 12.0932L214.998 8.76522C216.064 8.35989 217.152 8.05056 218.262 7.83722C219.392 7.62389 220.438 7.51722 221.398 7.51722C223.83 7.51722 225.611 8.01855 226.742 9.02122C227.872 10.0239 228.438 11.5279 228.438 13.5332V20.1252ZM220.79 21.9812C221.942 21.9812 222.838 21.4372 223.478 20.3492V17.3412H222.23C221.078 17.3412 220.214 17.5439 219.638 17.9492C219.083 18.3546 218.806 18.9839 218.806 19.8372C218.806 20.5199 218.976 21.0532 219.318 21.4372C219.68 21.7999 220.171 21.9812 220.79 21.9812ZM243.121 24.2532C242.502 24.6799 241.777 25.0106 240.945 25.2452C240.134 25.4799 239.324 25.5972 238.513 25.5972C234.801 25.5759 232.945 23.5279 232.945 19.4532V11.5812H230.545V8.06122H232.945V4.38122L238.001 3.80522V8.06122H241.905L241.361 11.5812H238.001V19.3892C238.001 20.1786 238.129 20.7439 238.385 21.0852C238.641 21.4266 239.046 21.5972 239.601 21.5972C240.177 21.5972 240.785 21.4159 241.425 21.0532L243.121 24.2532ZM259.062 16.2212C259.062 16.9252 259.03 17.5332 258.966 18.0452H248.438C248.609 19.4746 249.014 20.4772 249.654 21.0532C250.294 21.6292 251.18 21.9172 252.31 21.9172C252.993 21.9172 253.654 21.7999 254.294 21.5652C254.934 21.3092 255.628 20.9252 256.374 20.4132L258.454 23.2292C256.47 24.8079 254.262 25.5972 251.83 25.5972C249.078 25.5972 246.966 24.7866 245.494 23.1652C244.022 21.5439 243.286 19.3679 243.286 16.6372C243.286 14.9092 243.596 13.3626 244.214 11.9972C244.833 10.6106 245.74 9.52256 246.934 8.73322C248.129 7.92255 249.558 7.51722 251.222 7.51722C253.676 7.51722 255.596 8.28522 256.982 9.82122C258.369 11.3572 259.062 13.4906 259.062 16.2212ZM254.102 14.7812C254.06 12.1786 253.142 10.8772 251.35 10.8772C250.476 10.8772 249.793 11.1972 249.302 11.8372C248.833 12.4772 248.545 13.5332 248.438 15.0052H254.102V14.7812ZM276.718 16.2212C276.718 16.9252 276.686 17.5332 276.622 18.0452H266.094C266.265 19.4746 266.67 20.4772 267.31 21.0532C267.95 21.6292 268.836 21.9172 269.966 21.9172C270.649 21.9172 271.31 21.7999 271.95 21.5652C272.59 21.3092 273.284 20.9252 274.03 20.4132L276.11 23.2292C274.126 24.8079 271.918 25.5972 269.486 25.5972C266.734 25.5972 264.622 24.7866 263.15 23.1652C261.678 21.5439 260.942 19.3679 260.942 16.6372C260.942 14.9092 261.252 13.3626 261.87 11.9972C262.489 10.6106 263.396 9.52256 264.59 8.73322C265.785 7.92255 267.214 7.51722 268.878 7.51722C271.332 7.51722 273.252 8.28522 274.638 9.82122C276.025 11.3572 276.718 13.4906 276.718 16.2212ZM271.758 14.7812C271.716 12.1786 270.798 10.8772 269.006 10.8772C268.132 10.8772 267.449 11.1972 266.958 11.8372C266.489 12.4772 266.201 13.5332 266.094 15.0052H271.758V14.7812ZM294.791 1.30922V25.0532H290.311L290.055 23.0692C288.86 24.7546 287.249 25.5972 285.223 25.5972C283.111 25.5972 281.5 24.7866 280.391 23.1652C279.303 21.5439 278.759 19.3252 278.759 16.5092C278.759 14.7812 279.047 13.2346 279.623 11.8692C280.199 10.5039 281.009 9.43722 282.055 8.66922C283.121 7.90122 284.337 7.51722 285.703 7.51722C287.324 7.51722 288.668 8.05055 289.735 9.11722V0.765221L294.791 1.30922ZM286.791 21.8852C287.964 21.8852 288.945 21.2452 289.735 19.9652V12.6372C289.329 12.1466 288.913 11.7839 288.487 11.5492C288.081 11.3146 287.612 11.1972 287.079 11.1972C286.14 11.1972 285.393 11.6346 284.839 12.5092C284.284 13.3839 284.007 14.7279 284.007 16.5412C284.007 18.5252 284.241 19.9119 284.711 20.7012C285.201 21.4906 285.895 21.8852 286.791 21.8852Z"/>
</mask>
<path d="M11.8377 13.3092L11.3696 11.3648L11.4674 15.2746L11.8377 13.3092ZM15.4217 14.9412L14.0973 16.4399L14.1058 16.4474L14.1145 16.4549L15.4217 14.9412ZM14.2697 23.6132L15.2596 25.3511L15.2667 25.347L14.2697 23.6132ZM0.0297072 25.0532H-1.97029V27.0532H0.0297072V25.0532ZM0.0297072 2.87722V0.877222H-1.97029V2.87722H0.0297072ZM13.4377 4.22122L12.48 5.97701L12.4888 5.98183L12.4977 5.98656L13.4377 4.22122ZM14.7177 11.7092L13.2848 10.314L13.2843 10.3145L14.7177 11.7092ZM5.27771 6.58922V4.58922H3.27771V6.58922H5.27771ZM5.27771 11.7412H3.27771V13.7412H5.27771V11.7412ZM9.66171 7.16522L8.58019 8.84758L8.6018 8.86147L8.62375 8.8748L9.66171 7.16522ZM10.3337 20.6372L11.3316 22.3705L11.3397 22.3658L11.3477 22.3611L10.3337 20.6372ZM5.27771 15.2292V13.2292H3.27771V15.2292H5.27771ZM5.27771 21.2452H3.27771V23.2452H5.27771V21.2452ZM11.4674 15.2746C12.6641 15.5001 13.5046 15.9161 14.0973 16.4399L16.7461 13.4426C15.5041 12.345 13.9553 11.673 12.208 11.3438L11.4674 15.2746ZM14.1145 16.4549C14.4872 16.7768 14.8297 17.3589 14.8297 18.5892H18.8297C18.8297 16.5769 18.2336 14.727 16.7289 13.4276L14.1145 16.4549ZM14.8297 18.5892C14.8297 20.4128 14.2234 21.3328 13.2728 21.8794L15.2667 25.347C17.7294 23.931 18.8297 21.5016 18.8297 18.5892H14.8297ZM13.2798 21.8754C12.0215 22.5921 10.0497 23.0532 7.16571 23.0532V27.0532C10.3831 27.0532 13.1473 26.5543 15.2596 25.3511L13.2798 21.8754ZM7.16571 23.0532H0.0297072V27.0532H7.16571V23.0532ZM2.02971 25.0532V2.87722H-1.97029V25.0532H2.02971ZM0.0297072 4.87722H6.30171V0.877222H0.0297072V4.87722ZM6.30171 4.87722C9.27817 4.87722 11.2654 5.31448 12.48 5.97701L14.3954 2.46543C12.3247 1.33597 9.55458 0.877222 6.30171 0.877222V4.87722ZM12.4977 5.98656C13.0276 6.26869 13.3473 6.59553 13.5484 6.94811C13.7542 7.30884 13.9017 7.8134 13.9017 8.54122H17.9017C17.9017 7.26371 17.6386 6.0456 17.023 4.96633C16.4028 3.87891 15.4905 3.04842 14.3777 2.45588L12.4977 5.98656ZM13.9017 8.54122C13.9017 9.40586 13.6555 9.9332 13.2848 10.314L16.1507 13.1045C17.3586 11.8639 17.9017 10.2793 17.9017 8.54122H13.9017ZM13.2843 10.3145C12.7998 10.8125 12.1834 11.1689 11.3696 11.3648L12.3058 15.2537C13.796 14.8949 15.0997 14.1846 16.1512 13.1039L13.2843 10.3145ZM3.27771 6.58922V11.7412H7.27771V6.58922H3.27771ZM5.27771 13.7412H7.22971V9.74122H5.27771V13.7412ZM7.22971 13.7412C8.5561 13.7412 9.92161 13.4819 10.9824 12.6251C12.1248 11.7024 12.5577 10.384 12.5577 9.05322H8.55771C8.55771 9.29848 8.51947 9.42139 8.50096 9.46625C8.4875 9.49886 8.48042 9.50414 8.46903 9.51334C8.42047 9.55257 8.12198 9.74122 7.22971 9.74122V13.7412ZM12.5577 9.05322C12.5577 7.68394 12.0647 6.28439 10.6997 5.45565L8.62375 8.8748C8.61481 8.86937 8.59338 8.85423 8.5695 8.8278C8.54559 8.80132 8.53211 8.77778 8.52686 8.76671C8.51805 8.74815 8.55771 8.81996 8.55771 9.05322H12.5577ZM10.7432 5.48287C9.65172 4.78118 8.22444 4.58922 6.81371 4.58922V8.58922C8.00564 8.58922 8.47703 8.78126 8.58019 8.84758L10.7432 5.48287ZM6.81371 4.58922H5.27771V8.58922H6.81371V4.58922ZM7.19771 23.2452C8.71733 23.2452 10.1792 23.034 11.3316 22.3705L9.33578 18.904C9.08019 19.0511 8.45142 19.2452 7.19771 19.2452V23.2452ZM11.3477 22.3611C12.889 21.4545 13.4217 19.8651 13.4217 18.3012H9.42171C9.42171 18.663 9.36239 18.8337 9.33671 18.8888C9.3253 18.9133 9.31999 18.9168 9.32508 18.9111C9.33043 18.9052 9.33198 18.9061 9.31967 18.9134L11.3477 22.3611ZM13.4217 18.3012C13.4217 16.8358 12.9417 15.4199 11.7111 14.4355C10.5658 13.5192 9.07539 13.2292 7.58171 13.2292V17.2292C8.64802 17.2292 9.07765 17.4512 9.21232 17.559C9.26176 17.5985 9.42171 17.7186 9.42171 18.3012H13.4217ZM7.58171 13.2292H5.27771V17.2292H7.58171V13.2292ZM3.27771 15.2292V21.2452H7.27771V15.2292H3.27771ZM5.27771 23.2452H7.19771V19.2452H5.27771V23.2452ZM34.4037 18.0452V20.0452H36.1693L36.3883 18.2933L34.4037 18.0452ZM23.8757 18.0452V16.0452H21.6227L21.8898 18.2823L23.8757 18.0452ZM25.0917 21.0532L23.7538 22.5398L25.0917 21.0532ZM29.7317 21.5652L30.4202 23.443L30.4475 23.433L30.4745 23.4222L29.7317 21.5652ZM31.8117 20.4132L33.4204 19.225L32.2732 17.6717L30.6806 18.7638L31.8117 20.4132ZM33.8917 23.2292L35.137 24.7942L36.6468 23.5929L35.5004 22.041L33.8917 23.2292ZM20.9317 23.1652L22.4125 21.8208L20.9317 23.1652ZM19.6517 11.9972L21.4734 12.8227L21.4782 12.8121L19.6517 11.9972ZM22.3717 8.73322L23.4742 10.4019L23.4845 10.3951L23.4947 10.3882L22.3717 8.73322ZM32.4197 9.82122L30.9352 11.1614H30.9352L32.4197 9.82122ZM29.5397 14.7812H31.5397V14.7648L31.5394 14.7484L29.5397 14.7812ZM24.7397 11.8372L23.1525 10.6204L23.1395 10.6373L23.1269 10.6545L24.7397 11.8372ZM23.8757 15.0052L21.8809 14.8607L21.7255 17.0052H23.8757V15.0052ZM29.5397 15.0052V17.0052H31.5397V15.0052H29.5397ZM32.4997 16.2212C32.4997 16.8699 32.4699 17.3909 32.4192 17.7972L36.3883 18.2933C36.4655 17.6755 36.4997 16.9805 36.4997 16.2212H32.4997ZM34.4037 16.0452H23.8757V20.0452H34.4037V16.0452ZM21.8898 18.2823C22.0822 19.8933 22.5793 21.4827 23.7538 22.5398L26.4296 19.5666C26.3242 19.4717 26.0106 19.0558 25.8616 17.8081L21.8898 18.2823ZM23.7538 22.5398C24.8637 23.5388 26.2812 23.9172 27.7477 23.9172V19.9172C26.9529 19.9172 26.5997 19.7197 26.4296 19.5666L23.7538 22.5398ZM27.7477 23.9172C28.6649 23.9172 29.5593 23.7586 30.4202 23.443L29.0432 19.6875C28.6241 19.8411 28.1958 19.9172 27.7477 19.9172V23.9172ZM30.4745 23.4222C31.286 23.0976 32.1101 22.6336 32.9428 22.0627L30.6806 18.7638C30.0199 19.2168 29.4574 19.5209 28.9889 19.7083L30.4745 23.4222ZM30.203 21.6015L32.283 24.4175L35.5004 22.041L33.4204 19.225L30.203 21.6015ZM32.6464 21.6642C31.0001 22.9742 29.227 23.5972 27.2677 23.5972V27.5972C30.1724 27.5972 32.8153 26.6416 35.137 24.7942L32.6464 21.6642ZM27.2677 23.5972C24.9246 23.5972 23.4124 22.9222 22.4125 21.8208L19.4509 24.5096C21.395 26.6509 24.1068 27.5972 27.2677 27.5972V23.5972ZM22.4125 21.8208C21.3516 20.6524 20.7237 18.9987 20.7237 16.6372H16.7237C16.7237 19.7371 17.5678 22.4354 19.4509 24.5096L22.4125 21.8208ZM20.7237 16.6372C20.7237 15.1506 20.9889 13.892 21.4734 12.8227L17.83 11.1718C17.0772 12.8332 16.7237 14.6678 16.7237 16.6372H20.7237ZM21.4782 12.8121C21.9515 11.7511 22.6167 10.9684 23.4742 10.4019L21.2692 7.06455C19.7373 8.07667 18.5892 9.46998 17.8252 11.1823L21.4782 12.8121ZM23.4947 10.3882C24.3096 9.83525 25.3333 9.51722 26.6597 9.51722V5.51722C24.6582 5.51722 22.8232 6.00986 21.2487 7.07827L23.4947 10.3882ZM26.6597 9.51722C28.6618 9.51722 29.9983 10.1237 30.9352 11.1614L33.9042 8.48102C32.0678 6.44675 29.5642 5.51722 26.6597 5.51722V9.51722ZM30.9352 11.1614C31.8957 12.2254 32.4997 13.8241 32.4997 16.2212H36.4997C36.4997 13.157 35.717 10.489 33.9042 8.48102L30.9352 11.1614ZM31.5394 14.7484C31.5153 13.2771 31.249 11.8282 30.4544 10.7009C29.5696 9.44579 28.2394 8.87722 26.7877 8.87722V12.8772C26.993 12.8772 27.0804 12.9138 27.1018 12.924C27.1145 12.9302 27.1402 12.9419 27.185 13.0055C27.3077 13.1796 27.5214 13.6827 27.54 14.814L31.5394 14.7484ZM26.7877 8.87722C25.3517 8.87722 24.0571 9.4404 23.1525 10.6204L26.3269 13.0541C26.4036 12.954 26.4744 12.8772 26.7877 12.8772V8.87722ZM23.1269 10.6545C22.315 11.7617 21.9949 13.2879 21.8809 14.8607L25.8705 15.1498C25.9698 13.7785 26.2258 13.1928 26.3525 13.0199L23.1269 10.6545ZM23.8757 17.0052H29.5397V13.0052H23.8757V17.0052ZM31.5397 15.0052V14.7812H27.5397V15.0052H31.5397ZM46.748 8.06122L46.1042 9.95477L46.748 8.06122ZM49.564 9.59722L51.2396 10.6892L52.2208 9.18353L50.8282 8.04749L49.564 9.59722ZM47.708 12.4452L46.6409 14.1368L48.3077 15.1881L49.3836 13.5372L47.708 12.4452ZM41.98 11.4852L43.04 13.1812L43.0533 13.1729L43.0665 13.1644L41.98 11.4852ZM41.692 13.2132L40.0535 14.3601L40.12 14.4552L40.1971 14.542L41.692 13.2132ZM42.684 13.8212L41.8865 15.6554V15.6554L42.684 13.8212ZM44.956 14.5892L44.396 16.5092L44.4004 16.5105L44.956 14.5892ZM48.892 16.6052L47.4958 18.0372L47.5139 18.0549L47.5324 18.0721L48.892 16.6052ZM49.212 23.0052L50.7776 24.2497L50.7853 24.2401L50.7928 24.2304L49.212 23.0052ZM46.492 24.9252L47.2169 26.7892L46.492 24.9252ZM38.652 24.9252L37.9605 26.8019L37.9711 26.8058L38.652 24.9252ZM35.548 23.0692L34.0579 21.7351L32.7453 23.2012L34.1899 24.5374L35.548 23.0692ZM38.012 20.3172L39.2382 18.7372L37.7655 17.5942L36.5219 18.9831L38.012 20.3172ZM44.316 21.5652L43.2632 19.8647L43.2445 19.8763L43.226 19.8883L44.316 21.5652ZM44.732 19.4212L43.1145 20.5976L43.1145 20.5976L44.732 19.4212ZM43.74 18.7812L42.9425 20.6154L42.9766 20.6302L43.0112 20.6437L43.74 18.7812ZM41.404 18.0132L40.8449 19.9335L40.8548 19.9364L40.8647 19.9391L41.404 18.0132ZM37.628 15.9652L36.1788 17.3436V17.3437L37.628 15.9652ZM37.212 10.0772L35.5964 8.89827L35.5906 8.90624L37.212 10.0772ZM39.644 8.22122L40.4318 10.0595L40.4406 10.0557L40.4494 10.0519L39.644 8.22122ZM43.324 9.51722C44.3383 9.51722 45.2606 9.66797 46.1042 9.95477L47.3918 6.16768C46.1019 5.72914 44.7416 5.51722 43.324 5.51722V9.51722ZM46.1042 9.95477C46.9626 10.2466 47.6875 10.6475 48.2997 11.147L50.8282 8.04749C49.8191 7.22429 48.6667 6.60114 47.3918 6.16768L46.1042 9.95477ZM47.8884 8.50526L46.0324 11.3533L49.3836 13.5372L51.2396 10.6892L47.8884 8.50526ZM48.775 10.7536C47.1224 9.71122 45.3602 9.13322 43.516 9.13322V13.1332C44.4877 13.1332 45.5202 13.4299 46.6409 14.1368L48.775 10.7536ZM43.516 9.13322C42.6591 9.13322 41.709 9.27836 40.8935 9.80608L43.0665 13.1644C43.0148 13.1978 43.0065 13.1881 43.0827 13.1707C43.1602 13.1529 43.2988 13.1332 43.516 13.1332V9.13322ZM40.92 9.78922C39.9889 10.3712 39.468 11.3242 39.468 12.4132H43.468C43.468 12.4981 43.4477 12.661 43.3471 12.8434C43.2462 13.0263 43.1173 13.1329 43.04 13.1812L40.92 9.78922ZM39.468 12.4132C39.468 13.0485 39.6196 13.7404 40.0535 14.3601L43.3304 12.0663C43.3932 12.156 43.4302 12.2438 43.4499 12.314C43.4686 12.3809 43.468 12.4186 43.468 12.4132H39.468ZM40.1971 14.542C40.6763 15.081 41.3567 15.425 41.8865 15.6554L43.4814 11.9871C43.292 11.9047 43.1756 11.8423 43.1131 11.804C43.0833 11.7858 43.077 11.7798 43.0871 11.7877C43.0961 11.7948 43.1348 11.826 43.1868 11.8845L40.1971 14.542ZM41.8865 15.6554C42.4973 15.9209 43.3539 16.2053 44.396 16.5092L45.516 12.6692C44.5101 12.3758 43.8519 12.1482 43.4814 11.9871L41.8865 15.6554ZM44.4004 16.5105C46.012 16.9765 46.9725 17.5271 47.4958 18.0372L50.2882 15.1732C49.1047 14.0194 47.4413 13.2259 45.5115 12.6679L44.4004 16.5105ZM47.5324 18.0721C47.9123 18.4241 48.204 18.9734 48.204 19.9972H52.204C52.204 18.1198 51.621 16.4077 50.2515 15.1384L47.5324 18.0721ZM48.204 19.9972C48.204 20.7374 48.0019 21.3017 47.6311 21.7801L50.7928 24.2304C51.7447 23.0021 52.204 21.561 52.204 19.9972H48.204ZM47.6463 21.7607C47.2391 22.273 46.6433 22.7204 45.7671 23.0612L47.2169 26.7892C48.6446 26.234 49.8621 25.4014 50.7776 24.2497L47.6463 21.7607ZM45.7671 23.0612C44.876 23.4077 43.8462 23.5972 42.652 23.5972V27.5972C44.2738 27.5972 45.8039 27.3387 47.2169 26.7892L45.7671 23.0612ZM42.652 23.5972C41.4348 23.5972 40.3338 23.4071 39.3328 23.0447L37.9711 26.8058C39.4448 27.3393 41.0105 27.5972 42.652 27.5972V23.5972ZM39.3434 23.0485C38.3459 22.6811 37.5452 22.1922 36.906 21.601L34.1899 24.5374C35.2574 25.5249 36.526 26.2734 37.9605 26.8019L39.3434 23.0485ZM37.038 24.4033L39.502 21.6513L36.5219 18.9831L34.0579 21.7351L37.038 24.4033ZM36.7857 21.8972C38.5122 23.2371 40.4378 23.9812 42.524 23.9812V19.9812C41.4528 19.9812 40.3704 19.616 39.2382 18.7372L36.7857 21.8972ZM42.524 23.9812C43.4949 23.9812 44.529 23.8121 45.4059 23.2421L43.226 19.8883C43.2432 19.8771 43.2128 19.9019 43.0957 19.929C42.977 19.9566 42.7921 19.9812 42.524 19.9812V23.9812ZM45.3687 23.2658C46.3847 22.6368 46.988 21.6101 46.988 20.3812H42.988C42.988 20.3363 43.0008 20.2147 43.0806 20.074C43.159 19.9359 43.2484 19.8739 43.2632 19.8647L45.3687 23.2658ZM46.988 20.3812C46.988 19.7165 46.8501 18.9332 46.3494 18.2449L43.1145 20.5976C43.0361 20.4897 43.0034 20.3971 42.9915 20.3525C42.9806 20.3119 42.988 20.3153 42.988 20.3812H46.988ZM46.3494 18.2449C45.8361 17.5391 45.0651 17.1521 44.4688 16.9187L43.0112 20.6437C43.0885 20.674 43.1482 20.7007 43.1929 20.7227C43.2378 20.7449 43.2626 20.7599 43.2717 20.7658C43.2811 20.7719 43.2682 20.7645 43.2413 20.7405C43.2144 20.7165 43.1672 20.6701 43.1145 20.5976L46.3494 18.2449ZM44.5374 16.9471C43.9144 16.6762 43.0256 16.3904 41.9432 16.0873L40.8647 19.9391C41.9156 20.2334 42.5841 20.4596 42.9425 20.6154L44.5374 16.9471ZM41.963 16.093C40.4726 15.659 39.5793 15.1148 39.0771 14.5868L36.1788 17.3437C37.3406 18.565 38.9647 19.3861 40.8449 19.9335L41.963 16.093ZM39.0771 14.5868C38.6279 14.1145 38.38 13.5333 38.38 12.7012H34.38C34.38 14.4718 34.9641 16.0666 36.1788 17.3436L39.0771 14.5868ZM38.38 12.7012C38.38 12.1242 38.5341 11.6625 38.8333 11.2482L35.5906 8.90624C34.7805 10.0279 34.38 11.3156 34.38 12.7012H38.38ZM38.8275 11.2562C39.1593 10.8016 39.6618 10.3895 40.4318 10.0595L38.8561 6.38293C37.5355 6.94893 36.4167 7.77419 35.5964 8.89828L38.8275 11.2562ZM40.4494 10.0519C41.2188 9.71335 42.1628 9.51722 43.324 9.51722V5.51722C41.7118 5.51722 40.2025 5.79043 38.8385 6.39059L40.4494 10.0519ZM63.4647 24.2532L64.6002 25.8996L66.0653 24.8892L65.2318 23.3166L63.4647 24.2532ZM61.2887 25.2452L60.7458 23.3203L60.7326 23.3241L61.2887 25.2452ZM58.8567 25.5972L58.8452 27.5972H58.8567V25.5972ZM53.2887 11.5812H55.2887V9.58122H53.2887V11.5812ZM50.8887 11.5812H48.8887V13.5812H50.8887V11.5812ZM50.8887 8.06122V6.06122H48.8887V8.06122H50.8887ZM53.2887 8.06122V10.0612H55.2887V8.06122H53.2887ZM53.2887 4.38122L53.0623 2.39408L51.2887 2.59613V4.38122H53.2887ZM58.3447 3.80522H60.3447V1.56444L58.1183 1.81808L58.3447 3.80522ZM58.3447 8.06122H56.3447V10.0612H58.3447V8.06122ZM62.2487 8.06122L64.2252 8.36669L64.5815 6.06122H62.2487V8.06122ZM61.7047 11.5812V13.5812H63.4194L63.6812 11.8867L61.7047 11.5812ZM58.3447 11.5812V9.58122H56.3447V11.5812H58.3447ZM58.7287 21.0852L60.3287 19.8852L58.7287 21.0852ZM61.7687 21.0532L63.5359 20.1166L62.5725 18.299L60.7827 19.3132L61.7687 21.0532ZM62.3292 22.6068C61.9164 22.8915 61.3975 23.1365 60.7458 23.3203L61.8316 27.1701C62.8439 26.8846 63.7757 26.4682 64.6002 25.8996L62.3292 22.6068ZM60.7326 23.3241C60.0952 23.5086 59.4716 23.5972 58.8567 23.5972V27.5972C59.8631 27.5972 60.8609 27.4512 61.8448 27.1664L60.7326 23.3241ZM58.8682 23.5973C57.3718 23.5887 56.5977 23.1822 56.1627 22.7022C55.696 22.1873 55.2887 21.225 55.2887 19.4532H51.2887C51.2887 21.7561 51.8094 23.8552 53.1987 25.3883C54.6197 26.9562 56.6296 27.5845 58.8452 27.5972L58.8682 23.5973ZM55.2887 19.4532V11.5812H51.2887V19.4532H55.2887ZM53.2887 9.58122H50.8887V13.5812H53.2887V9.58122ZM52.8887 11.5812V8.06122H48.8887V11.5812H52.8887ZM50.8887 10.0612H53.2887V6.06122H50.8887V10.0612ZM55.2887 8.06122V4.38122H51.2887V8.06122H55.2887ZM53.5151 6.36837L58.5711 5.79237L58.1183 1.81808L53.0623 2.39408L53.5151 6.36837ZM56.3447 3.80522V8.06122H60.3447V3.80522H56.3447ZM58.3447 10.0612H62.2487V6.06122H58.3447V10.0612ZM60.2722 7.75576L59.7282 11.2758L63.6812 11.8867L64.2252 8.36669L60.2722 7.75576ZM61.7047 9.58122H58.3447V13.5812H61.7047V9.58122ZM56.3447 11.5812V19.3892H60.3447V11.5812H56.3447ZM56.3447 19.3892C56.3447 20.2919 56.471 21.4083 57.1287 22.2852L60.3287 19.8852C60.4187 20.0052 60.4142 20.0645 60.3913 19.9636C60.3695 19.8672 60.3447 19.6848 60.3447 19.3892H56.3447ZM57.1287 22.2852C57.8713 23.2753 58.9672 23.5972 59.9447 23.5972V19.5972C59.8668 19.5972 59.9027 19.5846 60.0008 19.626C60.1144 19.6738 60.2372 19.7632 60.3287 19.8852L57.1287 22.2852ZM59.9447 23.5972C60.9494 23.5972 61.8957 23.2801 62.7547 22.7933L60.7827 19.3132C60.3618 19.5517 60.092 19.5972 59.9447 19.5972V23.5972ZM60.0016 21.9898L61.6976 25.1898L65.2318 23.3166L63.5359 20.1166L60.0016 21.9898ZM80.1382 16.5732L81.9011 15.6286L81.3355 14.5732H80.1382V16.5732ZM78.0902 16.5732V14.5732H76.0902V16.5732H78.0902ZM78.0902 25.0532V27.0532H80.0902V25.0532H78.0902ZM72.8422 25.0532H70.8422V27.0532H72.8422V25.0532ZM72.8422 2.87722V0.877222H70.8422V2.87722H72.8422ZM86.9222 4.54122L85.7404 6.15479L85.7512 6.16258L86.9222 4.54122ZM88.2022 13.2132L89.8197 14.3896L89.8259 14.381L89.8321 14.3723L88.2022 13.2132ZM84.9702 15.6132L84.1506 13.7889L82.102 14.7093L83.2527 16.6379L84.9702 15.6132ZM90.6022 25.0532V27.0532H94.1243L92.3198 24.0285L90.6022 25.0532ZM84.6822 25.0532L82.9193 25.9979L83.4849 27.0532H84.6822V25.0532ZM78.0902 12.9572H76.0902V14.9572H78.0902V12.9572ZM82.9222 12.1572L81.5902 10.6653L81.5767 10.6774L81.5634 10.6897L82.9222 12.1572ZM82.8582 7.29322L81.6154 8.86022L81.6283 8.87043L81.6413 8.88043L82.8582 7.29322ZM78.0902 6.55722V4.55722H76.0902V6.55722H78.0902ZM80.1382 14.5732H78.0902V18.5732H80.1382V14.5732ZM76.0902 16.5732V25.0532H80.0902V16.5732H76.0902ZM78.0902 23.0532H72.8422V27.0532H78.0902V23.0532ZM74.8422 25.0532V2.87722H70.8422V25.0532H74.8422ZM72.8422 4.87722H80.1062V0.877222H72.8422V4.87722ZM80.1062 4.87722C82.9505 4.87722 84.7216 5.40855 85.7405 6.15475L88.104 2.92769C86.0935 1.45523 83.3206 0.877222 80.1062 0.877222V4.87722ZM85.7512 6.16258C86.6568 6.81659 87.2262 7.84011 87.2262 9.62922H91.2262C91.2262 6.853 90.2596 4.48452 88.0932 2.91986L85.7512 6.16258ZM87.2262 9.62922C87.2262 10.7334 86.9667 11.4995 86.5723 12.0542L89.8321 14.3723C90.803 13.0069 91.2262 11.3837 91.2262 9.62922H87.2262ZM86.5847 12.0369C86.1717 12.6048 85.4228 13.2173 84.1506 13.7889L85.7898 17.4376C87.4616 16.6865 88.8674 15.699 89.8197 14.3896L86.5847 12.0369ZM83.2527 16.6379L88.8847 26.0779L92.3198 24.0285L86.6878 14.5885L83.2527 16.6379ZM90.6022 23.0532H84.6822V27.0532H90.6022V23.0532ZM86.4451 24.1086L81.9011 15.6286L78.3753 17.5178L82.9193 25.9979L86.4451 24.1086ZM78.0902 14.9572H80.2982V10.9572H78.0902V14.9572ZM80.2982 14.9572C81.7315 14.9572 83.1886 14.6362 84.281 13.6247L81.5634 10.6897C81.5038 10.7449 81.2116 10.9572 80.2982 10.9572V14.9572ZM84.2542 13.6491C85.4358 12.5941 85.8182 11.0954 85.8182 9.62922H81.8182C81.8182 10.4671 81.6033 10.6536 81.5902 10.6653L84.2542 13.6491ZM85.8182 9.62922C85.8182 8.15794 85.3589 6.69031 84.0751 5.70601L81.6413 8.88043C81.6684 8.90121 81.6964 8.92788 81.7283 9.00545C81.7666 9.09856 81.8182 9.28973 81.8182 9.62922H85.8182ZM84.101 5.72623C82.9638 4.82429 81.4616 4.55722 79.9782 4.55722V8.55722C81.0975 8.55722 81.5153 8.78083 81.6154 8.86022L84.101 5.72623ZM79.9782 4.55722H78.0902V8.55722H79.9782V4.55722ZM76.0902 6.55722V12.9572H80.0902V6.55722H76.0902ZM105.944 21.5332L104.207 22.5255L104.233 22.5708L104.261 22.6147L105.944 21.5332ZM106.84 22.2052L108.744 22.8154L109.329 20.9909L107.531 20.3285L106.84 22.2052ZM105.784 25.5012L105.621 27.4946L107.204 27.6238L107.688 26.1114L105.784 25.5012ZM103.224 24.8292L102.219 26.5588L102.241 26.5711L102.262 26.5828L103.224 24.8292ZM101.688 23.0372L103.513 22.2205L102.013 18.8669L100.011 21.9472L101.688 23.0372ZM92.5357 24.1252L93.9346 22.6959L92.5357 24.1252ZM93.0797 16.0292L94.247 17.6533L93.0797 16.0292ZM100.728 14.5572V16.5572H102.728V14.5572H100.728ZM100.088 11.7732L98.7498 13.2598L98.7708 13.2788L98.7924 13.2971L100.088 11.7732ZM95.8317 11.4532L96.2035 13.4184L96.229 13.4135L96.2544 13.4081L95.8317 11.4532ZM93.3997 12.0932L91.5097 12.7474L92.1565 14.6158L94.0322 13.9906L93.3997 12.0932ZM92.2477 8.76522L91.5373 6.89566L89.7228 7.58516L90.3577 9.41944L92.2477 8.76522ZM95.5117 7.83722L95.1409 5.87189L95.134 5.87321L95.5117 7.83722ZM103.992 9.02122L105.319 7.52485L103.992 9.02122ZM100.728 20.3492L102.452 21.3633L102.728 20.8938V20.3492H100.728ZM100.728 17.3412H102.728V15.3412H100.728V17.3412ZM96.8877 17.9492L95.7367 16.3136L95.7221 16.3239L95.7077 16.3344L96.8877 17.9492ZM96.5677 21.4372L95.0729 22.7659L95.1119 22.8099L95.1535 22.8514L96.5677 21.4372ZM103.688 20.1252C103.688 20.8606 103.771 21.7625 104.207 22.5255L107.68 20.5409C107.742 20.6484 107.736 20.6909 107.719 20.5995C107.704 20.515 107.688 20.363 107.688 20.1252H103.688ZM104.261 22.6147C104.736 23.3527 105.426 23.8156 106.148 24.0819L107.531 20.3285C107.483 20.3107 107.484 20.3042 107.512 20.3252C107.543 20.3486 107.587 20.3907 107.626 20.4517L104.261 22.6147ZM104.935 21.595L103.879 24.891L107.688 26.1114L108.744 22.8154L104.935 21.595ZM105.946 23.5079C105.079 23.437 104.524 23.2612 104.185 23.0756L102.262 26.5828C103.246 27.1226 104.398 27.3947 105.621 27.4946L105.946 23.5079ZM104.228 23.0996C103.986 22.9589 103.733 22.7121 103.513 22.2205L99.8621 23.854C100.367 24.9837 101.139 25.9316 102.219 26.5588L104.228 23.0996ZM100.011 21.9472C99.3242 23.0036 98.2997 23.5972 96.5677 23.5972V27.5972C99.4437 27.5972 101.833 26.4842 103.365 24.1272L100.011 21.9472ZM96.5677 23.5972C95.2931 23.5972 94.4903 23.2398 93.9346 22.6959L91.1368 25.5546C92.5864 26.9733 94.4716 27.5972 96.5677 27.5972V23.5972ZM93.9346 22.6959C93.3661 22.1394 93.0317 21.3998 93.0317 20.2852H89.0317C89.0317 22.328 89.7 24.1483 91.1368 25.5546L93.9346 22.6959ZM93.0317 20.2852C93.0317 18.9954 93.4645 18.2157 94.247 17.6533L91.9124 14.4052C89.9643 15.8054 89.0317 17.8631 89.0317 20.2852H93.0317ZM94.247 17.6533C95.1341 17.0156 96.6271 16.5572 98.9997 16.5572V12.5572C96.2096 12.5572 93.756 13.0802 91.9124 14.4052L94.247 17.6533ZM98.9997 16.5572H100.728V12.5572H98.9997V16.5572ZM102.728 14.5572V13.8212H98.7277V14.5572H102.728ZM102.728 13.8212C102.728 12.6673 102.507 11.2043 101.383 10.2493L98.7924 13.2971C98.6477 13.1741 98.6339 13.0744 98.6587 13.1538C98.6862 13.2418 98.7277 13.4476 98.7277 13.8212H102.728ZM101.426 10.2866C100.425 9.38612 99.0326 9.19722 97.8477 9.19722V13.1972C98.2721 13.1972 98.5477 13.2366 98.7096 13.2782C98.8733 13.3203 98.8439 13.3445 98.7498 13.2598L101.426 10.2866ZM97.8477 9.19722C97.1027 9.19722 96.2804 9.30999 95.409 9.49839L96.2544 13.4081C96.9616 13.2551 97.4834 13.1972 97.8477 13.1972V9.19722ZM95.4599 9.48808C94.5747 9.65556 93.6769 9.89265 92.7673 10.1959L94.0322 13.9906C94.7866 13.7391 95.5101 13.5496 96.2035 13.4184L95.4599 9.48808ZM95.2897 11.439L94.1377 8.111L90.3577 9.41944L91.5097 12.7474L95.2897 11.439ZM92.9581 10.6348C93.9179 10.2701 94.8946 9.99253 95.8894 9.80123L95.134 5.87321C93.9101 6.10858 92.7108 6.44971 91.5373 6.89566L92.9581 10.6348ZM95.8825 9.80254C96.9142 9.6079 97.8337 9.51722 98.6477 9.51722V5.51722C97.5417 5.51722 96.3706 5.63988 95.1409 5.8719L95.8825 9.80254ZM98.6477 9.51722C100.872 9.51722 102.066 9.98698 102.665 10.5176L105.319 7.52485C103.656 6.05013 101.288 5.51722 98.6477 5.51722V9.51722ZM102.665 10.5176C103.239 11.0269 103.688 11.9026 103.688 13.5332H107.688C107.688 11.1532 107.006 9.02087 105.319 7.52485L102.665 10.5176ZM103.688 13.5332V20.1252H107.688V13.5332H103.688ZM98.0397 23.9812C99.9788 23.9812 101.494 22.9914 102.452 21.3633L99.0038 19.3352C98.6816 19.883 98.4046 19.9812 98.0397 19.9812V23.9812ZM102.728 20.3492V17.3412H98.7277V20.3492H102.728ZM100.728 15.3412H99.4797V19.3412H100.728V15.3412ZM99.4797 15.3412C98.1542 15.3412 96.8029 15.5634 95.7367 16.3136L98.0387 19.5848C98.1245 19.5244 98.5012 19.3412 99.4797 19.3412V15.3412ZM95.7077 16.3344C94.5126 17.2078 94.0557 18.5182 94.0557 19.8372H98.0557C98.0557 19.6233 98.0907 19.5389 98.0939 19.5317C98.0952 19.5288 98.0919 19.5366 98.0823 19.5485C98.0727 19.5604 98.0656 19.5656 98.0677 19.564L95.7077 16.3344ZM94.0557 19.8372C94.0557 20.846 94.3117 21.9096 95.0729 22.7659L98.0625 20.1085C98.0933 20.1431 98.0966 20.1648 98.0886 20.1397C98.0783 20.1077 98.0557 20.0153 98.0557 19.8372H94.0557ZM95.1535 22.8514C95.9665 23.6645 97.0075 23.9812 98.0397 23.9812V19.9812C97.9247 19.9812 97.8879 19.9644 97.901 19.9692C97.9075 19.9716 97.9213 19.9776 97.9388 19.9888C97.9564 20 97.9712 20.0123 97.9819 20.023L95.1535 22.8514ZM120.371 24.2532L121.506 25.8996L122.972 24.8892L122.138 23.3166L120.371 24.2532ZM118.195 25.2452L117.652 23.3203L117.639 23.3241L118.195 25.2452ZM115.763 25.5972L115.751 27.5972H115.763V25.5972ZM110.195 11.5812H112.195V9.58122H110.195V11.5812ZM107.795 11.5812H105.795V13.5812H107.795V11.5812ZM107.795 8.06122V6.06122H105.795V8.06122H107.795ZM110.195 8.06122V10.0612H112.195V8.06122H110.195ZM110.195 4.38122L109.969 2.39408L108.195 2.59613V4.38122H110.195ZM115.251 3.80522H117.251V1.56444L115.025 1.81808L115.251 3.80522ZM115.251 8.06122H113.251V10.0612H115.251V8.06122ZM119.155 8.06122L121.131 8.36669L121.488 6.06122H119.155V8.06122ZM118.611 11.5812V13.5812H120.326L120.587 11.8867L118.611 11.5812ZM115.251 11.5812V9.58122H113.251V11.5812H115.251ZM115.635 21.0852L117.235 19.8852L115.635 21.0852ZM118.675 21.0532L120.442 20.1166L119.479 18.299L117.689 19.3132L118.675 21.0532ZM119.235 22.6068C118.823 22.8915 118.304 23.1365 117.652 23.3203L118.738 27.1701C119.75 26.8846 120.682 26.4682 121.506 25.8996L119.235 22.6068ZM117.639 23.3241C117.001 23.5086 116.378 23.5972 115.763 23.5972V27.5972C116.769 27.5972 117.767 27.4512 118.751 27.1664L117.639 23.3241ZM115.774 23.5973C114.278 23.5887 113.504 23.1822 113.069 22.7022C112.602 22.1873 112.195 21.225 112.195 19.4532H108.195C108.195 21.7561 108.716 23.8552 110.105 25.3883C111.526 26.9562 113.536 27.5845 115.751 27.5972L115.774 23.5973ZM112.195 19.4532V11.5812H108.195V19.4532H112.195ZM110.195 9.58122H107.795V13.5812H110.195V9.58122ZM109.795 11.5812V8.06122H105.795V11.5812H109.795ZM107.795 10.0612H110.195V6.06122H107.795V10.0612ZM112.195 8.06122V4.38122H108.195V8.06122H112.195ZM110.421 6.36837L115.477 5.79237L115.025 1.81808L109.969 2.39408L110.421 6.36837ZM113.251 3.80522V8.06122H117.251V3.80522H113.251ZM115.251 10.0612H119.155V6.06122H115.251V10.0612ZM117.178 7.75576L116.634 11.2758L120.587 11.8867L121.131 8.36669L117.178 7.75576ZM118.611 9.58122H115.251V13.5812H118.611V9.58122ZM113.251 11.5812V19.3892H117.251V11.5812H113.251ZM113.251 19.3892C113.251 20.2919 113.377 21.4083 114.035 22.2852L117.235 19.8852C117.325 20.0052 117.32 20.0645 117.298 19.9636C117.276 19.8672 117.251 19.6848 117.251 19.3892H113.251ZM114.035 22.2852C114.777 23.2753 115.873 23.5972 116.851 23.5972V19.5972C116.773 19.5972 116.809 19.5846 116.907 19.626C117.021 19.6738 117.143 19.7632 117.235 19.8852L114.035 22.2852ZM116.851 23.5972C117.856 23.5972 118.802 23.2801 119.661 22.7933L117.689 19.3132C117.268 19.5517 116.998 19.5972 116.851 19.5972V23.5972ZM116.908 21.9898L118.604 25.1898L122.138 23.3166L120.442 20.1166L116.908 21.9898ZM136.216 18.0452V20.0452H137.982L138.201 18.2933L136.216 18.0452ZM125.688 18.0452V16.0452H123.435L123.702 18.2823L125.688 18.0452ZM126.904 21.0532L125.566 22.5398L126.904 21.0532ZM131.544 21.5652L132.233 23.443L132.26 23.433L132.287 23.4222L131.544 21.5652ZM133.624 20.4132L135.233 19.225L134.086 17.6717L132.493 18.7638L133.624 20.4132ZM135.704 23.2292L136.949 24.7942L138.459 23.5929L137.313 22.041L135.704 23.2292ZM122.744 23.1652L124.225 21.8208L122.744 23.1652ZM121.464 11.9972L123.286 12.8227L123.291 12.8121L121.464 11.9972ZM124.184 8.73322L125.287 10.4019L125.297 10.3951L125.307 10.3882L124.184 8.73322ZM134.232 9.82122L132.748 11.1614L134.232 9.82122ZM131.352 14.7812H133.352V14.7648L133.352 14.7484L131.352 14.7812ZM126.552 11.8372L124.965 10.6204L124.952 10.6373L124.939 10.6545L126.552 11.8372ZM125.688 15.0052L123.693 14.8607L123.538 17.0052H125.688V15.0052ZM131.352 15.0052V17.0052H133.352V15.0052H131.352ZM134.312 16.2212C134.312 16.8699 134.282 17.3909 134.232 17.7972L138.201 18.2933C138.278 17.6755 138.312 16.9805 138.312 16.2212H134.312ZM136.216 16.0452H125.688V20.0452H136.216V16.0452ZM123.702 18.2823C123.895 19.8933 124.392 21.4827 125.566 22.5398L128.242 19.5666C128.137 19.4717 127.823 19.0558 127.674 17.8081L123.702 18.2823ZM125.566 22.5398C126.676 23.5388 128.094 23.9172 129.56 23.9172V19.9172C128.765 19.9172 128.412 19.7197 128.242 19.5666L125.566 22.5398ZM129.56 23.9172C130.477 23.9172 131.372 23.7586 132.233 23.443L130.856 19.6875C130.437 19.8411 130.008 19.9172 129.56 19.9172V23.9172ZM132.287 23.4222C133.098 23.0976 133.923 22.6336 134.755 22.0627L132.493 18.7638C131.832 19.2168 131.27 19.5209 130.801 19.7083L132.287 23.4222ZM132.015 21.6015L134.095 24.4175L137.313 22.041L135.233 19.225L132.015 21.6015ZM134.459 21.6642C132.813 22.9742 131.04 23.5972 129.08 23.5972V27.5972C131.985 27.5972 134.628 26.6416 136.949 24.7942L134.459 21.6642ZM129.08 23.5972C126.737 23.5972 125.225 22.9222 124.225 21.8208L121.263 24.5096C123.208 26.6509 125.919 27.5972 129.08 27.5972V23.5972ZM124.225 21.8208C123.164 20.6524 122.536 18.9987 122.536 16.6372H118.536C118.536 19.7371 119.38 22.4354 121.263 24.5096L124.225 21.8208ZM122.536 16.6372C122.536 15.1506 122.801 13.892 123.286 12.8227L119.643 11.1718C118.89 12.8332 118.536 14.6678 118.536 16.6372H122.536ZM123.291 12.8121C123.764 11.7511 124.429 10.9684 125.287 10.4019L123.082 7.06455C121.55 8.07667 120.402 9.46998 119.638 11.1823L123.291 12.8121ZM125.307 10.3882C126.122 9.83525 127.146 9.51722 128.472 9.51722V5.51722C126.471 5.51722 124.636 6.00986 123.061 7.07827L125.307 10.3882ZM128.472 9.51722C130.474 9.51722 131.811 10.1237 132.748 11.1614L135.717 8.48102C133.88 6.44675 131.377 5.51722 128.472 5.51722V9.51722ZM132.748 11.1614C133.708 12.2254 134.312 13.8241 134.312 16.2212H138.312C138.312 13.157 137.53 10.489 135.717 8.48102L132.748 11.1614ZM133.352 14.7484C133.328 13.2771 133.062 11.8282 132.267 10.7009C131.382 9.44579 130.052 8.87722 128.6 8.87722V12.8772C128.805 12.8772 128.893 12.9138 128.914 12.924C128.927 12.9302 128.953 12.9419 128.998 13.0055C129.12 13.1796 129.334 13.6827 129.352 14.814L133.352 14.7484ZM128.6 8.87722C127.164 8.87722 125.87 9.4404 124.965 10.6204L128.139 13.0541C128.216 12.954 128.287 12.8772 128.6 12.8772V8.87722ZM124.939 10.6545C124.127 11.7617 123.807 13.2879 123.693 14.8607L127.683 15.1498C127.782 13.7785 128.038 13.1928 128.165 13.0199L124.939 10.6545ZM125.688 17.0052H131.352V13.0052H125.688V17.0052ZM133.352 15.0052V14.7812H129.352V15.0052H133.352ZM163.834 5.05322L165.281 6.43378L166.722 4.92413L165.152 3.54903L163.834 5.05322ZM161.178 7.83722L159.971 9.43203L161.394 10.5086L162.625 9.21778L161.178 7.83722ZM158.97 6.55722L158.197 8.40161L158.232 8.41643L158.268 8.42988L158.97 6.55722ZM152.73 8.09322L154.317 9.31008L154.322 9.30376L154.327 9.29741L152.73 8.09322ZM152.378 19.9972L150.682 21.0572L150.687 21.0641L150.691 21.071L152.378 19.9972ZM158.874 21.0212L159.835 22.7754L160.874 22.2062V21.0212H158.874ZM158.874 15.9972H160.874V13.9972H158.874V15.9972ZM155.994 15.9972L154.013 16.2705L154.251 17.9972H155.994V15.9972ZM155.482 12.2852V10.2852H153.187L153.501 12.5585L155.482 12.2852ZM163.962 12.2852H165.962V10.2852H163.962V12.2852ZM163.962 23.2612L165.05 24.9395L165.962 24.3483V23.2612H163.962ZM160.154 24.9892L160.715 26.9089L160.154 24.9892ZM148.378 22.6532L146.862 23.9575L146.869 23.9656L148.378 22.6532ZM147.194 7.67722L145.432 6.73159L145.427 6.73997L145.423 6.7484L147.194 7.67722ZM151.002 3.70922L151.979 5.45425L151.987 5.44992L151.002 3.70922ZM156.442 4.33322C158.837 4.33322 160.827 5.07706 162.516 6.55742L165.152 3.54903C162.703 1.40272 159.765 0.333221 156.442 0.333221V4.33322ZM162.387 3.67267L159.731 6.45667L162.625 9.21778L165.281 6.43378L162.387 3.67267ZM162.385 6.24241C161.493 5.56721 160.587 5.02764 159.672 4.68456L158.268 8.42988C158.718 8.5988 159.285 8.91257 159.971 9.43203L162.385 6.24241ZM159.744 4.71283C158.79 4.31288 157.75 4.14122 156.666 4.14122V8.14122C157.332 8.14122 157.828 8.24689 158.197 8.40161L159.744 4.71283ZM156.666 4.14122C154.402 4.14122 152.496 5.08193 151.133 6.88904L154.327 9.29741C154.927 8.50185 155.645 8.14122 156.666 8.14122V4.14122ZM151.143 6.87636C149.772 8.66437 149.258 11.1395 149.258 13.9492H153.258C153.258 11.5109 153.726 10.0821 154.317 9.31008L151.143 6.87636ZM149.258 13.9492C149.258 16.8502 149.619 19.3567 150.682 21.0572L154.074 18.9372C153.644 18.2484 153.258 16.7229 153.258 13.9492H149.258ZM150.691 21.071C151.86 22.9075 153.713 23.7572 155.866 23.7572V19.7572C154.862 19.7572 154.39 19.4336 154.066 18.9235L150.691 21.071ZM155.866 23.7572C157.282 23.7572 158.619 23.441 159.835 22.7754L157.914 19.267C157.337 19.5828 156.669 19.7572 155.866 19.7572V23.7572ZM160.874 21.0212V15.9972H156.874V21.0212H160.874ZM158.874 13.9972H155.994V17.9972H158.874V13.9972ZM157.975 15.7239L157.463 12.0119L153.501 12.5585L154.013 16.2705L157.975 15.7239ZM155.482 14.2852H163.962V10.2852H155.482V14.2852ZM161.962 12.2852V23.2612H165.962V12.2852H161.962ZM162.874 21.5829C161.894 22.2186 160.803 22.7158 159.593 23.0696L160.715 26.9089C162.279 26.452 163.727 25.7972 165.05 24.9395L162.874 21.5829ZM159.593 23.0696C158.381 23.4238 157.183 23.5972 155.994 23.5972V27.5972C157.579 27.5972 159.154 27.3653 160.715 26.9089L159.593 23.0696ZM155.994 23.5972C153.02 23.5972 151.109 22.7454 149.887 21.3409L146.869 23.9656C149.061 26.4864 152.228 27.5972 155.994 27.5972V23.5972ZM149.894 21.349C148.616 19.8629 147.818 17.5041 147.818 13.9492H143.818C143.818 18.0317 144.727 21.4755 146.862 23.9575L149.894 21.349ZM147.818 13.9492C147.818 11.7671 148.229 10.01 148.965 8.60604L145.423 6.7484C144.325 8.84312 143.818 11.2674 143.818 13.9492H147.818ZM148.957 8.62286C149.73 7.18046 150.739 6.14863 151.979 5.45423L150.025 1.96421C148.065 3.06182 146.535 4.67532 145.432 6.73159L148.957 8.62286ZM151.987 5.44992C153.285 4.71548 154.755 4.33322 156.442 4.33322V0.333221C154.119 0.333221 151.962 0.868292 150.017 1.96852L151.987 5.44992ZM181.707 25.0532V27.0532H183.707V25.0532H181.707ZM177.323 25.0532L175.334 25.261L175.521 27.0532H177.323V25.0532ZM177.099 22.9092L179.088 22.7014L178.526 17.3223L175.453 21.7728L177.099 22.9092ZM168.395 24.1892L166.864 25.4764L166.873 25.4865L166.882 25.4965L168.395 24.1892ZM167.211 8.06122V6.06122H165.211V8.06122H167.211ZM172.267 8.06122H174.267V6.06122H172.267V8.06122ZM172.651 21.3732L171.051 22.5732L171.094 22.6297L171.14 22.6831L172.651 21.3732ZM176.651 19.8692L178.381 20.8735L178.651 20.4078V19.8692H176.651ZM176.651 8.06122V6.06122H174.651V8.06122H176.651ZM181.707 8.06122H183.707V6.06122H181.707V8.06122ZM181.707 23.0532H177.323V27.0532H181.707V23.0532ZM179.312 24.8454L179.088 22.7014L175.11 23.117L175.334 25.261L179.312 24.8454ZM175.453 21.7728C174.594 23.0182 173.494 23.5972 171.947 23.5972V27.5972C174.795 27.5972 177.13 26.3842 178.745 24.0456L175.453 21.7728ZM171.947 23.5972C170.811 23.5972 170.246 23.2723 169.909 22.882L166.882 25.4965C168.166 26.9835 169.969 27.5972 171.947 27.5972V23.5972ZM169.926 22.902C169.536 22.4386 169.211 21.6433 169.211 20.2532H165.211C165.211 22.2339 165.676 24.0625 166.864 25.4764L169.926 22.902ZM169.211 20.2532V8.06122H165.211V20.2532H169.211ZM167.211 10.0612H172.267V6.06122H167.211V10.0612ZM170.267 8.06122V19.6132H174.267V8.06122H170.267ZM170.267 19.6132C170.267 20.5298 170.384 21.6842 171.051 22.5732L174.251 20.1732C174.351 20.3056 174.343 20.3704 174.317 20.2509C174.293 20.1396 174.267 19.9364 174.267 19.6132H170.267ZM171.14 22.6831C171.907 23.5678 172.956 23.8532 173.899 23.8532V19.8532C173.81 19.8532 173.82 19.8398 173.889 19.8665C173.925 19.8804 173.972 19.9033 174.024 19.9388C174.075 19.9747 174.123 20.0172 174.163 20.0634L171.14 22.6831ZM173.899 23.8532C175.965 23.8532 177.427 22.5167 178.381 20.8735L174.922 18.865C174.34 19.867 173.967 19.8532 173.899 19.8532V23.8532ZM178.651 19.8692V8.06122H174.651V19.8692H178.651ZM176.651 10.0612H181.707V6.06122H176.651V10.0612ZM179.707 8.06122V25.0532H183.707V8.06122H179.707ZM199.444 21.5332L197.707 22.5255L197.733 22.5708L197.761 22.6147L199.444 21.5332ZM200.34 22.2052L202.244 22.8154L202.829 20.9909L201.031 20.3285L200.34 22.2052ZM199.284 25.5012L199.121 27.4946L200.704 27.6238L201.188 26.1114L199.284 25.5012ZM196.724 24.8292L195.719 26.5588L195.741 26.5711L195.762 26.5828L196.724 24.8292ZM195.188 23.0372L197.013 22.2205L195.513 18.8669L193.511 21.9472L195.188 23.0372ZM186.036 24.1252L187.435 22.6959L186.036 24.1252ZM186.58 16.0292L187.747 17.6533L186.58 16.0292ZM194.228 14.5572V16.5572H196.228V14.5572H194.228ZM193.588 11.7732L192.25 13.2598L192.271 13.2788L192.292 13.2971L193.588 11.7732ZM189.332 11.4532L189.703 13.4184L189.729 13.4135L189.754 13.4081L189.332 11.4532ZM186.9 12.0932L185.01 12.7474L185.656 14.6158L187.532 13.9906L186.9 12.0932ZM185.748 8.76522L185.037 6.89566L183.223 7.58516L183.858 9.41944L185.748 8.76522ZM189.012 7.83722L188.641 5.87189L188.634 5.87321L189.012 7.83722ZM197.492 9.02122L198.819 7.52485L197.492 9.02122ZM194.228 20.3492L195.952 21.3633L196.228 20.8938V20.3492H194.228ZM194.228 17.3412H196.228V15.3412H194.228V17.3412ZM190.388 17.9492L189.237 16.3136L189.222 16.3239L189.208 16.3344L190.388 17.9492ZM190.068 21.4372L188.573 22.7659L188.612 22.8099L188.653 22.8514L190.068 21.4372ZM197.188 20.1252C197.188 20.8606 197.271 21.7625 197.707 22.5255L201.18 20.5409C201.242 20.6484 201.236 20.6909 201.219 20.5995C201.204 20.515 201.188 20.363 201.188 20.1252H197.188ZM197.761 22.6147C198.236 23.3527 198.926 23.8156 199.648 24.0819L201.031 20.3285C200.983 20.3107 200.984 20.3042 201.012 20.3252C201.043 20.3486 201.087 20.3907 201.126 20.4517L197.761 22.6147ZM198.435 21.595L197.379 24.891L201.188 26.1114L202.244 22.8154L198.435 21.595ZM199.446 23.5079C198.579 23.437 198.024 23.2612 197.685 23.0756L195.762 26.5828C196.746 27.1226 197.898 27.3947 199.121 27.4946L199.446 23.5079ZM197.728 23.0996C197.486 22.9589 197.233 22.7121 197.013 22.2205L193.362 23.854C193.867 24.9837 194.639 25.9316 195.719 26.5588L197.728 23.0996ZM193.511 21.9472C192.824 23.0036 191.8 23.5972 190.068 23.5972V27.5972C192.944 27.5972 195.333 26.4842 196.865 24.1272L193.511 21.9472ZM190.068 23.5972C188.793 23.5972 187.99 23.2398 187.435 22.6959L184.637 25.5546C186.086 26.9733 187.972 27.5972 190.068 27.5972V23.5972ZM187.435 22.6959C186.866 22.1394 186.532 21.3998 186.532 20.2852H182.532C182.532 22.328 183.2 24.1483 184.637 25.5546L187.435 22.6959ZM186.532 20.2852C186.532 18.9954 186.964 18.2157 187.747 17.6533L185.412 14.4052C183.464 15.8054 182.532 17.8631 182.532 20.2852H186.532ZM187.747 17.6533C188.634 17.0156 190.127 16.5572 192.5 16.5572V12.5572C189.71 12.5572 187.256 13.0802 185.412 14.4052L187.747 17.6533ZM192.5 16.5572H194.228V12.5572H192.5V16.5572ZM196.228 14.5572V13.8212H192.228V14.5572H196.228ZM196.228 13.8212C196.228 12.6673 196.007 11.2043 194.883 10.2493L192.292 13.2971C192.148 13.1741 192.134 13.0744 192.159 13.1538C192.186 13.2418 192.228 13.4476 192.228 13.8212H196.228ZM194.926 10.2866C193.925 9.38612 192.533 9.19722 191.348 9.19722V13.1972C191.772 13.1972 192.048 13.2366 192.21 13.2782C192.373 13.3203 192.344 13.3445 192.25 13.2598L194.926 10.2866ZM191.348 9.19722C190.603 9.19722 189.78 9.30999 188.909 9.49839L189.754 13.4081C190.462 13.2551 190.983 13.1972 191.348 13.1972V9.19722ZM188.96 9.48808C188.075 9.65556 187.177 9.89265 186.267 10.1959L187.532 13.9906C188.287 13.7391 189.01 13.5496 189.703 13.4184L188.96 9.48808ZM188.79 11.439L187.638 8.111L183.858 9.41944L185.01 12.7474L188.79 11.439ZM186.458 10.6348C187.418 10.2701 188.395 9.99253 189.389 9.80123L188.634 5.87321C187.41 6.10858 186.211 6.44971 185.037 6.89566L186.458 10.6348ZM189.383 9.80254C190.414 9.6079 191.334 9.51722 192.148 9.51722V5.51722C191.042 5.51722 189.871 5.63988 188.641 5.8719L189.383 9.80254ZM192.148 9.51722C194.372 9.51722 195.566 9.98698 196.165 10.5176L198.819 7.52485C197.156 6.05013 194.788 5.51722 192.148 5.51722V9.51722ZM196.165 10.5176C196.739 11.0269 197.188 11.9026 197.188 13.5332H201.188C201.188 11.1532 200.506 9.02087 198.819 7.52485L196.165 10.5176ZM197.188 13.5332V20.1252H201.188V13.5332H197.188ZM191.54 23.9812C193.479 23.9812 194.994 22.9914 195.952 21.3633L192.504 19.3352C192.182 19.883 191.905 19.9812 191.54 19.9812V23.9812ZM196.228 20.3492V17.3412H192.228V20.3492H196.228ZM194.228 15.3412H192.98V19.3412H194.228V15.3412ZM192.98 15.3412C191.654 15.3412 190.303 15.5634 189.237 16.3136L191.539 19.5848C191.625 19.5244 192.001 19.3412 192.98 19.3412V15.3412ZM189.208 16.3344C188.013 17.2078 187.556 18.5182 187.556 19.8372H191.556C191.556 19.6233 191.591 19.5389 191.594 19.5317C191.595 19.5288 191.592 19.5366 191.582 19.5485C191.573 19.5604 191.566 19.5656 191.568 19.564L189.208 16.3344ZM187.556 19.8372C187.556 20.846 187.812 21.9096 188.573 22.7659L191.563 20.1085C191.593 20.1431 191.597 20.1648 191.589 20.1397C191.578 20.1077 191.556 20.0153 191.556 19.8372H187.556ZM188.653 22.8514C189.467 23.6645 190.508 23.9812 191.54 23.9812V19.9812C191.425 19.9812 191.388 19.9644 191.401 19.9692C191.407 19.9716 191.421 19.9776 191.439 19.9888C191.456 20 191.471 20.0123 191.482 20.023L188.653 22.8514ZM214.127 7.80522L216.101 8.12774L216.386 6.38084L214.687 5.88522L214.127 7.80522ZM213.327 12.7012L212.872 14.6489L214.956 15.135L215.301 13.0237L213.327 12.7012ZM209.487 13.5332L207.893 12.3255L207.887 12.3332L209.487 13.5332ZM208.271 16.6372L206.316 16.2161L206.271 16.4243V16.6372H208.271ZM208.271 25.0532V27.0532H210.271V25.0532H208.271ZM203.215 25.0532H201.215V27.0532H203.215V25.0532ZM203.215 8.06122V6.06122H201.215V8.06122H203.215ZM207.631 8.06122L209.615 7.81078L209.394 6.06122H207.631V8.06122ZM208.047 11.3572L206.063 11.6077L209.948 11.9793L208.047 11.3572ZM209.775 8.60522L211.08 10.1208L211.083 10.1179L209.775 8.60522ZM212.431 9.58122C212.89 9.58122 213.263 9.63664 213.567 9.72522L214.687 5.88522C213.967 5.67514 213.21 5.58122 212.431 5.58122V9.58122ZM212.153 7.4827L211.353 12.3787L215.301 13.0237L216.101 8.12774L212.153 7.4827ZM213.781 10.7535C213.082 10.5903 212.398 10.4772 211.791 10.4772V14.4772C211.952 14.4772 212.292 14.5135 212.872 14.6489L213.781 10.7535ZM211.791 10.4772C210.259 10.4772 208.859 11.0501 207.893 12.3255L211.081 14.7409C211.182 14.6083 211.318 14.4772 211.791 14.4772V10.4772ZM207.887 12.3332C207.124 13.3509 206.64 14.7105 206.316 16.2161L210.226 17.0583C210.499 15.7906 210.826 15.0809 211.087 14.7332L207.887 12.3332ZM206.271 16.6372V25.0532H210.271V16.6372H206.271ZM208.271 23.0532H203.215V27.0532H208.271V23.0532ZM205.215 25.0532V8.06122H201.215V25.0532H205.215ZM203.215 10.0612H207.631V6.06122H203.215V10.0612ZM205.647 8.31166L206.063 11.6077L210.031 11.1068L209.615 7.81078L205.647 8.31166ZM209.948 11.9793C210.243 11.0769 210.643 10.4971 211.08 10.1208L208.47 7.08968C207.371 8.03601 206.619 9.29087 206.146 10.7351L209.948 11.9793ZM211.083 10.1179C211.534 9.72794 211.962 9.58122 212.431 9.58122V5.58122C210.937 5.58122 209.594 6.11717 208.467 7.0925L211.083 10.1179ZM228.694 21.5332L226.957 22.5255L226.983 22.5708L227.011 22.6147L228.694 21.5332ZM229.59 22.2052L231.494 22.8154L232.079 20.9909L230.281 20.3285L229.59 22.2052ZM228.534 25.5012L228.371 27.4946L229.954 27.6238L230.438 26.1114L228.534 25.5012ZM225.974 24.8292L224.969 26.5588L224.991 26.5711L225.012 26.5828L225.974 24.8292ZM224.438 23.0372L226.263 22.2205L224.763 18.8669L222.761 21.9472L224.438 23.0372ZM215.286 24.1252L216.685 22.6959L215.286 24.1252ZM215.83 16.0292L216.997 17.6533L215.83 16.0292ZM223.478 14.5572V16.5572H225.478V14.5572H223.478ZM222.838 11.7732L221.5 13.2598L221.521 13.2788L221.542 13.2971L222.838 11.7732ZM218.582 11.4532L218.953 13.4184L218.979 13.4135L219.004 13.4081L218.582 11.4532ZM216.15 12.0932L214.26 12.7474L214.906 14.6158L216.782 13.9906L216.15 12.0932ZM214.998 8.76522L214.287 6.89566L212.473 7.58516L213.108 9.41944L214.998 8.76522ZM218.262 7.83722L217.891 5.87189L217.884 5.87321L218.262 7.83722ZM226.742 9.02122L228.069 7.52485L226.742 9.02122ZM223.478 20.3492L225.202 21.3633L225.478 20.8938V20.3492H223.478ZM223.478 17.3412H225.478V15.3412H223.478V17.3412ZM219.638 17.9492L218.487 16.3136L218.472 16.3239L218.458 16.3344L219.638 17.9492ZM219.318 21.4372L217.823 22.7659L217.862 22.8099L217.903 22.8514L219.318 21.4372ZM226.438 20.1252C226.438 20.8606 226.521 21.7625 226.957 22.5255L230.43 20.5409C230.492 20.6484 230.486 20.6909 230.469 20.5995C230.454 20.515 230.438 20.363 230.438 20.1252H226.438ZM227.011 22.6147C227.486 23.3527 228.176 23.8156 228.898 24.0819L230.281 20.3285C230.233 20.3107 230.234 20.3042 230.262 20.3252C230.293 20.3486 230.337 20.3907 230.376 20.4517L227.011 22.6147ZM227.685 21.595L226.629 24.891L230.438 26.1114L231.494 22.8154L227.685 21.595ZM228.696 23.5079C227.829 23.437 227.274 23.2612 226.935 23.0756L225.012 26.5828C225.996 27.1226 227.148 27.3947 228.371 27.4946L228.696 23.5079ZM226.978 23.0996C226.736 22.9589 226.483 22.7121 226.263 22.2205L222.612 23.854C223.117 24.9837 223.889 25.9316 224.969 26.5588L226.978 23.0996ZM222.761 21.9472C222.074 23.0036 221.05 23.5972 219.318 23.5972V27.5972C222.194 27.5972 224.583 26.4842 226.115 24.1272L222.761 21.9472ZM219.318 23.5972C218.043 23.5972 217.24 23.2398 216.685 22.6959L213.887 25.5546C215.336 26.9733 217.222 27.5972 219.318 27.5972V23.5972ZM216.685 22.6959C216.116 22.1394 215.782 21.3998 215.782 20.2852H211.782C211.782 22.328 212.45 24.1483 213.887 25.5546L216.685 22.6959ZM215.782 20.2852C215.782 18.9954 216.214 18.2157 216.997 17.6533L214.662 14.4052C212.714 15.8054 211.782 17.8631 211.782 20.2852H215.782ZM216.997 17.6533C217.884 17.0156 219.377 16.5572 221.75 16.5572V12.5572C218.96 12.5572 216.506 13.0802 214.662 14.4052L216.997 17.6533ZM221.75 16.5572H223.478V12.5572H221.75V16.5572ZM225.478 14.5572V13.8212H221.478V14.5572H225.478ZM225.478 13.8212C225.478 12.6673 225.257 11.2043 224.133 10.2493L221.542 13.2971C221.398 13.1741 221.384 13.0744 221.409 13.1538C221.436 13.2418 221.478 13.4476 221.478 13.8212H225.478ZM224.176 10.2866C223.175 9.38612 221.783 9.19722 220.598 9.19722V13.1972C221.022 13.1972 221.298 13.2366 221.46 13.2782C221.623 13.3203 221.594 13.3445 221.5 13.2598L224.176 10.2866ZM220.598 9.19722C219.853 9.19722 219.03 9.30999 218.159 9.49839L219.004 13.4081C219.712 13.2551 220.233 13.1972 220.598 13.1972V9.19722ZM218.21 9.48808C217.325 9.65556 216.427 9.89265 215.517 10.1959L216.782 13.9906C217.537 13.7391 218.26 13.5496 218.953 13.4184L218.21 9.48808ZM218.04 11.439L216.888 8.111L213.108 9.41944L214.26 12.7474L218.04 11.439ZM215.708 10.6348C216.668 10.2701 217.645 9.99253 218.639 9.80123L217.884 5.87321C216.66 6.10858 215.461 6.44971 214.287 6.89566L215.708 10.6348ZM218.633 9.80254C219.664 9.6079 220.584 9.51722 221.398 9.51722V5.51722C220.292 5.51722 219.121 5.63988 217.891 5.8719L218.633 9.80254ZM221.398 9.51722C223.622 9.51722 224.816 9.98698 225.415 10.5176L228.069 7.52485C226.406 6.05013 224.038 5.51722 221.398 5.51722V9.51722ZM225.415 10.5176C225.989 11.0269 226.438 11.9026 226.438 13.5332H230.438C230.438 11.1532 229.756 9.02087 228.069 7.52485L225.415 10.5176ZM226.438 13.5332V20.1252H230.438V13.5332H226.438ZM220.79 23.9812C222.729 23.9812 224.244 22.9914 225.202 21.3633L221.754 19.3352C221.432 19.883 221.155 19.9812 220.79 19.9812V23.9812ZM225.478 20.3492V17.3412H221.478V20.3492H225.478ZM223.478 15.3412H222.23V19.3412H223.478V15.3412ZM222.23 15.3412C220.904 15.3412 219.553 15.5634 218.487 16.3136L220.789 19.5848C220.875 19.5244 221.251 19.3412 222.23 19.3412V15.3412ZM218.458 16.3344C217.263 17.2078 216.806 18.5182 216.806 19.8372H220.806C220.806 19.6233 220.841 19.5389 220.844 19.5317C220.845 19.5288 220.842 19.5366 220.832 19.5485C220.823 19.5604 220.816 19.5656 220.818 19.564L218.458 16.3344ZM216.806 19.8372C216.806 20.846 217.062 21.9096 217.823 22.7659L220.813 20.1085C220.843 20.1431 220.847 20.1648 220.839 20.1397C220.828 20.1077 220.806 20.0153 220.806 19.8372H216.806ZM217.903 22.8514C218.717 23.6645 219.758 23.9812 220.79 23.9812V19.9812C220.675 19.9812 220.638 19.9644 220.651 19.9692C220.657 19.9716 220.671 19.9776 220.689 19.9888C220.706 20 220.721 20.0123 220.732 20.023L217.903 22.8514ZM243.121 24.2532L244.256 25.8996L245.722 24.8892L244.888 23.3166L243.121 24.2532ZM240.945 25.2452L240.402 23.3203L240.389 23.3241L240.945 25.2452ZM238.513 25.5972L238.501 27.5972H238.513V25.5972ZM232.945 11.5812H234.945V9.58122H232.945V11.5812ZM230.545 11.5812H228.545V13.5812H230.545V11.5812ZM230.545 8.06122V6.06122H228.545V8.06122H230.545ZM232.945 8.06122V10.0612H234.945V8.06122H232.945ZM232.945 4.38122L232.719 2.39408L230.945 2.59613V4.38122H232.945ZM238.001 3.80522H240.001V1.56444L237.775 1.81808L238.001 3.80522ZM238.001 8.06122H236.001V10.0612H238.001V8.06122ZM241.905 8.06122L243.882 8.36669L244.238 6.06122H241.905V8.06122ZM241.361 11.5812V13.5812H243.076L243.337 11.8867L241.361 11.5812ZM238.001 11.5812V9.58122H236.001V11.5812H238.001ZM238.385 21.0852L239.985 19.8852L238.385 21.0852ZM241.425 21.0532L243.192 20.1166L242.229 18.299L240.439 19.3132L241.425 21.0532ZM241.985 22.6068C241.573 22.8915 241.054 23.1365 240.402 23.3203L241.488 27.1701C242.5 26.8846 243.432 26.4682 244.256 25.8996L241.985 22.6068ZM240.389 23.3241C239.751 23.5086 239.128 23.5972 238.513 23.5972V27.5972C239.519 27.5972 240.517 27.4512 241.501 27.1664L240.389 23.3241ZM238.524 23.5973C237.028 23.5887 236.254 23.1822 235.819 22.7022C235.352 22.1873 234.945 21.225 234.945 19.4532H230.945C230.945 21.7561 231.466 23.8552 232.855 25.3883C234.276 26.9562 236.286 27.5845 238.501 27.5972L238.524 23.5973ZM234.945 19.4532V11.5812H230.945V19.4532H234.945ZM232.945 9.58122H230.545V13.5812H232.945V9.58122ZM232.545 11.5812V8.06122H228.545V11.5812H232.545ZM230.545 10.0612H232.945V6.06122H230.545V10.0612ZM234.945 8.06122V4.38122H230.945V8.06122H234.945ZM233.171 6.36837L238.227 5.79237L237.775 1.81808L232.719 2.39408L233.171 6.36837ZM236.001 3.80522V8.06122H240.001V3.80522H236.001ZM238.001 10.0612H241.905V6.06122H238.001V10.0612ZM239.928 7.75576L239.384 11.2758L243.337 11.8867L243.882 8.36669L239.928 7.75576ZM241.361 9.58122H238.001V13.5812H241.361V9.58122ZM236.001 11.5812V19.3892H240.001V11.5812H236.001ZM236.001 19.3892C236.001 20.2919 236.127 21.4083 236.785 22.2852L239.985 19.8852C240.075 20.0052 240.07 20.0645 240.048 19.9636C240.026 19.8672 240.001 19.6848 240.001 19.3892H236.001ZM236.785 22.2852C237.527 23.2753 238.623 23.5972 239.601 23.5972V19.5972C239.523 19.5972 239.559 19.5846 239.657 19.626C239.771 19.6738 239.893 19.7632 239.985 19.8852L236.785 22.2852ZM239.601 23.5972C240.606 23.5972 241.552 23.2801 242.411 22.7933L240.439 19.3132C240.018 19.5517 239.748 19.5972 239.601 19.5972V23.5972ZM239.658 21.9898L241.354 25.1898L244.888 23.3166L243.192 20.1166L239.658 21.9898ZM258.966 18.0452V20.0452H260.732L260.951 18.2933L258.966 18.0452ZM248.438 18.0452V16.0452H246.185L246.452 18.2823L248.438 18.0452ZM249.654 21.0532L248.316 22.5398L249.654 21.0532ZM254.294 21.5652L254.983 23.443L255.01 23.433L255.037 23.4222L254.294 21.5652ZM256.374 20.4132L257.983 19.225L256.836 17.6717L255.243 18.7638L256.374 20.4132ZM258.454 23.2292L259.699 24.7942L261.209 23.5929L260.063 22.041L258.454 23.2292ZM245.494 23.1652L246.975 21.8208L245.494 23.1652ZM244.214 11.9972L246.036 12.8227L246.041 12.8121L244.214 11.9972ZM246.934 8.73322L248.037 10.4019L248.047 10.3951L248.057 10.3882L246.934 8.73322ZM256.982 9.82122L255.498 11.1614L256.982 9.82122ZM254.102 14.7812H256.102V14.7648L256.102 14.7484L254.102 14.7812ZM249.302 11.8372L247.715 10.6204L247.702 10.6373L247.689 10.6545L249.302 11.8372ZM248.438 15.0052L246.443 14.8607L246.288 17.0052H248.438V15.0052ZM254.102 15.0052V17.0052H256.102V15.0052H254.102ZM257.062 16.2212C257.062 16.8699 257.032 17.3909 256.982 17.7972L260.951 18.2933C261.028 17.6755 261.062 16.9805 261.062 16.2212H257.062ZM258.966 16.0452H248.438V20.0452H258.966V16.0452ZM246.452 18.2823C246.645 19.8933 247.142 21.4827 248.316 22.5398L250.992 19.5666C250.887 19.4717 250.573 19.0558 250.424 17.8081L246.452 18.2823ZM248.316 22.5398C249.426 23.5388 250.844 23.9172 252.31 23.9172V19.9172C251.515 19.9172 251.162 19.7197 250.992 19.5666L248.316 22.5398ZM252.31 23.9172C253.227 23.9172 254.122 23.7586 254.983 23.443L253.606 19.6875C253.187 19.8411 252.758 19.9172 252.31 19.9172V23.9172ZM255.037 23.4222C255.848 23.0976 256.673 22.6336 257.505 22.0627L255.243 18.7638C254.582 19.2168 254.02 19.5209 253.551 19.7083L255.037 23.4222ZM254.765 21.6015L256.845 24.4175L260.063 22.041L257.983 19.225L254.765 21.6015ZM257.209 21.6642C255.563 22.9742 253.79 23.5972 251.83 23.5972V27.5972C254.735 27.5972 257.378 26.6416 259.699 24.7942L257.209 21.6642ZM251.83 23.5972C249.487 23.5972 247.975 22.9222 246.975 21.8208L244.013 24.5096C245.958 26.6509 248.669 27.5972 251.83 27.5972V23.5972ZM246.975 21.8208C245.914 20.6524 245.286 18.9987 245.286 16.6372H241.286C241.286 19.7371 242.13 22.4354 244.013 24.5096L246.975 21.8208ZM245.286 16.6372C245.286 15.1506 245.551 13.892 246.036 12.8227L242.393 11.1718C241.64 12.8332 241.286 14.6678 241.286 16.6372H245.286ZM246.041 12.8121C246.514 11.7511 247.179 10.9684 248.037 10.4019L245.832 7.06455C244.3 8.07667 243.152 9.46998 242.388 11.1823L246.041 12.8121ZM248.057 10.3882C248.872 9.83525 249.896 9.51722 251.222 9.51722V5.51722C249.221 5.51722 247.386 6.00986 245.811 7.07827L248.057 10.3882ZM251.222 9.51722C253.224 9.51722 254.561 10.1237 255.498 11.1614L258.467 8.48102C256.63 6.44675 254.127 5.51722 251.222 5.51722V9.51722ZM255.498 11.1614C256.458 12.2254 257.062 13.8241 257.062 16.2212H261.062C261.062 13.157 260.28 10.489 258.467 8.48102L255.498 11.1614ZM256.102 14.7484C256.078 13.2771 255.812 11.8282 255.017 10.7009C254.132 9.44579 252.802 8.87722 251.35 8.87722V12.8772C251.555 12.8772 251.643 12.9138 251.664 12.924C251.677 12.9302 251.703 12.9419 251.748 13.0055C251.87 13.1796 252.084 13.6827 252.102 14.814L256.102 14.7484ZM251.35 8.87722C249.914 8.87722 248.62 9.4404 247.715 10.6204L250.889 13.0541C250.966 12.954 251.037 12.8772 251.35 12.8772V8.87722ZM247.689 10.6545C246.877 11.7617 246.557 13.2879 246.443 14.8607L250.433 15.1498C250.532 13.7785 250.788 13.1928 250.915 13.0199L247.689 10.6545ZM248.438 17.0052H254.102V13.0052H248.438V17.0052ZM256.102 15.0052V14.7812H252.102V15.0052H256.102ZM276.622 18.0452V20.0452H278.388L278.607 18.2933L276.622 18.0452ZM266.094 18.0452V16.0452H263.841L264.109 18.2823L266.094 18.0452ZM267.31 21.0532L265.973 22.5398L267.31 21.0532ZM271.95 21.5652L272.639 23.443L272.666 23.433L272.693 23.4222L271.95 21.5652ZM274.03 20.4132L275.639 19.225L274.492 17.6717L272.899 18.7638L274.03 20.4132ZM276.11 23.2292L277.356 24.7942L278.866 23.5929L277.719 22.041L276.11 23.2292ZM263.15 23.1652L264.631 21.8208L263.15 23.1652ZM261.87 11.9972L263.692 12.8227L263.697 12.8121L261.87 11.9972ZM264.59 8.73322L265.693 10.4019L265.703 10.3951L265.713 10.3882L264.59 8.73322ZM274.638 9.82122L273.154 11.1614L274.638 9.82122ZM271.758 14.7812H273.758V14.7648L273.758 14.7484L271.758 14.7812ZM266.958 11.8372L265.371 10.6204L265.358 10.6373L265.346 10.6545L266.958 11.8372ZM266.094 15.0052L264.1 14.8607L263.944 17.0052H266.094V15.0052ZM271.758 15.0052V17.0052H273.758V15.0052H271.758ZM274.718 16.2212C274.718 16.8699 274.689 17.3909 274.638 17.7972L278.607 18.2933C278.684 17.6755 278.718 16.9805 278.718 16.2212H274.718ZM276.622 16.0452H266.094V20.0452H276.622V16.0452ZM264.109 18.2823C264.301 19.8933 264.798 21.4827 265.973 22.5398L268.648 19.5666C268.543 19.4717 268.229 19.0558 268.08 17.8081L264.109 18.2823ZM265.973 22.5398C267.082 23.5388 268.5 23.9172 269.966 23.9172V19.9172C269.172 19.9172 268.818 19.7197 268.648 19.5666L265.973 22.5398ZM269.966 23.9172C270.884 23.9172 271.778 23.7586 272.639 23.443L271.262 19.6875C270.843 19.8411 270.415 19.9172 269.966 19.9172V23.9172ZM272.693 23.4222C273.505 23.0976 274.329 22.6336 275.162 22.0627L272.899 18.7638C272.239 19.2168 271.676 19.5209 271.208 19.7083L272.693 23.4222ZM272.422 21.6015L274.502 24.4175L277.719 22.041L275.639 19.225L272.422 21.6015ZM274.865 21.6642C273.219 22.9742 271.446 23.5972 269.486 23.5972V27.5972C272.391 27.5972 275.034 26.6416 277.356 24.7942L274.865 21.6642ZM269.486 23.5972C267.143 23.5972 265.631 22.9222 264.631 21.8208L261.67 24.5096C263.614 26.6509 266.326 27.5972 269.486 27.5972V23.5972ZM264.631 21.8208C263.57 20.6524 262.942 18.9987 262.942 16.6372H258.942C258.942 19.7371 259.787 22.4354 261.67 24.5096L264.631 21.8208ZM262.942 16.6372C262.942 15.1506 263.208 13.892 263.692 12.8227L260.049 11.1718C259.296 12.8332 258.942 14.6678 258.942 16.6372H262.942ZM263.697 12.8121C264.17 11.7511 264.835 10.9684 265.693 10.4019L263.488 7.06455C261.956 8.07667 260.808 9.46998 260.044 11.1823L263.697 12.8121ZM265.713 10.3882C266.528 9.83525 267.552 9.51722 268.878 9.51722V5.51722C266.877 5.51722 265.042 6.00986 263.467 7.07827L265.713 10.3882ZM268.878 9.51722C270.881 9.51722 272.217 10.1237 273.154 11.1614L276.123 8.48102C274.286 6.44675 271.783 5.51722 268.878 5.51722V9.51722ZM273.154 11.1614C274.114 12.2254 274.718 13.8241 274.718 16.2212H278.718C278.718 13.157 277.936 10.489 276.123 8.48102L273.154 11.1614ZM273.758 14.7484C273.734 13.2771 273.468 11.8282 272.673 10.7009C271.788 9.44579 270.458 8.87722 269.006 8.87722V12.8772C269.212 12.8772 269.299 12.9138 269.321 12.924C269.333 12.9302 269.359 12.9419 269.404 13.0055C269.526 13.1796 269.74 13.6827 269.759 14.814L273.758 14.7484ZM269.006 8.87722C267.57 8.87722 266.276 9.4404 265.371 10.6204L268.546 13.0541C268.622 12.954 268.693 12.8772 269.006 12.8772V8.87722ZM265.346 10.6545C264.534 11.7617 264.214 13.2879 264.1 14.8607L268.089 15.1498C268.189 13.7785 268.445 13.1928 268.571 13.0199L265.346 10.6545ZM266.094 17.0052H271.758V13.0052H266.094V17.0052ZM273.758 15.0052V14.7812H269.758V15.0052H273.758ZM294.791 1.30922H296.791V-0.487132L295.005 -0.679302L294.791 1.30922ZM294.791 25.0532V27.0532H296.791V25.0532H294.791ZM290.311 25.0532L288.327 25.3092L288.552 27.0532H290.311V25.0532ZM290.055 23.0692L292.038 22.8133L291.383 17.7367L288.423 21.9126L290.055 23.0692ZM280.391 23.1652L278.73 24.2797L278.735 24.2871L278.74 24.2946L280.391 23.1652ZM279.623 11.8692L277.78 11.0918V11.0918L279.623 11.8692ZM282.055 8.66922L280.886 7.04615L280.878 7.05177L280.871 7.05746L282.055 8.66922ZM289.735 9.11722L288.32 10.5314L291.735 13.9456V9.11722H289.735ZM289.735 0.765221L289.949 -1.2233L287.735 -1.46151V0.765221H289.735ZM289.735 19.9652L291.437 21.015L291.735 20.5323V19.9652H289.735ZM289.735 12.6372H291.735V11.918L291.277 11.3635L289.735 12.6372ZM288.487 11.5492L287.485 13.2801L287.504 13.2911L287.523 13.3017L288.487 11.5492ZM284.711 20.7012L282.992 21.7234L283.002 21.7403L283.012 21.7571L284.711 20.7012ZM292.791 1.30922V25.0532H296.791V1.30922H292.791ZM294.791 23.0532H290.311V27.0532H294.791V23.0532ZM292.294 24.7973L292.038 22.8133L288.071 23.3252L288.327 25.3092L292.294 24.7973ZM288.423 21.9126C287.595 23.0811 286.586 23.5972 285.223 23.5972V27.5972C287.913 27.5972 290.125 26.428 291.686 24.2258L288.423 21.9126ZM285.223 23.5972C283.712 23.5972 282.746 23.0657 282.041 22.0359L278.74 24.2946C280.254 26.5074 282.509 27.5972 285.223 27.5972V23.5972ZM282.051 22.0508C281.262 20.8749 280.759 19.0956 280.759 16.5092H276.759C276.759 19.5548 277.343 22.2129 278.73 24.2797L282.051 22.0508ZM280.759 16.5092C280.759 15.0044 281.009 13.7285 281.465 12.6466L277.78 11.0918C277.084 12.7406 276.759 14.558 276.759 16.5092H280.759ZM281.465 12.6466C281.922 11.5655 282.524 10.8064 283.239 10.281L280.871 7.05746C279.495 8.06809 278.476 9.4423 277.78 11.0918L281.465 12.6466ZM283.223 10.2923C283.936 9.77931 284.739 9.51722 285.703 9.51722V5.51722C283.935 5.51722 282.307 6.02314 280.886 7.04615L283.223 10.2923ZM285.703 9.51722C286.837 9.51722 287.659 9.86977 288.32 10.5314L291.149 7.70301C289.677 6.23134 287.811 5.51722 285.703 5.51722V9.51722ZM291.735 9.11722V0.765221H287.735V9.11722H291.735ZM289.521 2.75374L294.577 3.29774L295.005 -0.679302L289.949 -1.2233L289.521 2.75374ZM286.791 23.8852C288.855 23.8852 290.401 22.6959 291.437 21.015L288.032 18.9154C287.49 19.7946 287.073 19.8852 286.791 19.8852V23.8852ZM291.735 19.9652V12.6372H287.735V19.9652H291.735ZM291.277 11.3635C290.757 10.7349 290.155 10.1841 289.451 9.79679L287.523 13.3017C287.672 13.3836 287.901 13.5582 288.193 13.911L291.277 11.3635ZM289.489 9.81837C288.739 9.38408 287.914 9.19722 287.079 9.19722V13.1972C287.31 13.1972 287.424 13.245 287.485 13.2801L289.489 9.81837ZM287.079 9.19722C285.375 9.19722 284.026 10.0562 283.15 11.4381L286.528 13.5803C286.761 13.2129 286.905 13.1972 287.079 13.1972V9.19722ZM283.15 11.4381C282.29 12.7931 282.007 14.5979 282.007 16.5412H286.007C286.007 14.8579 286.278 13.9746 286.528 13.5803L283.15 11.4381ZM282.007 16.5412C282.007 18.5565 282.223 20.4298 282.992 21.7234L286.43 19.6791C286.26 19.394 286.007 18.494 286.007 16.5412H282.007ZM283.012 21.7571C283.851 23.1069 285.173 23.8852 286.791 23.8852V19.8852C286.646 19.8852 286.598 19.8565 286.588 19.8511C286.575 19.8439 286.508 19.804 286.409 19.6454L283.012 21.7571Z" fill="white" mask="url(#path-1-outside-1_3510_75437)"/>
</svg>
