<svg width="192" height="34" viewBox="0 0 192 34" fill="none" xmlns="http://www.w3.org/2000/svg">
<mask id="path-1-outside-1_3510_75441" maskUnits="userSpaceOnUse" x="-1.43164" y="-1.94678" width="196" height="38" fill="black">
<rect fill="white" x="-1.43164" y="-1.94678" width="196" height="38"/>
<path d="M12.597 14.3092C14.069 14.5866 15.2637 15.1306 16.181 15.9412C17.1197 16.7519 17.589 17.9679 17.589 19.5892C17.589 21.9572 16.7357 23.6319 15.029 24.6132C13.3437 25.5732 10.9757 26.0532 7.92498 26.0532H0.788985V3.87722H7.06098C10.1757 3.87722 12.5543 4.32522 14.197 5.22122C15.8397 6.09589 16.661 7.53589 16.661 9.54122C16.661 10.8426 16.2663 11.8986 15.477 12.7092C14.709 13.4986 13.749 14.0319 12.597 14.3092ZM6.03698 7.58922V12.7412H7.98899C10.2077 12.7412 11.317 11.8452 11.317 10.0532C11.317 9.15722 11.0183 8.52789 10.421 8.16522C9.82365 7.78122 8.87432 7.58922 7.57298 7.58922H6.03698ZM7.95698 22.2452C9.34365 22.2452 10.389 22.0426 11.093 21.6372C11.8183 21.2106 12.181 20.4319 12.181 19.3012C12.181 17.2532 10.901 16.2292 8.34099 16.2292H6.03698V22.2452H7.95698ZM35.259 17.2212C35.259 17.9252 35.227 18.5332 35.163 19.0452H24.635C24.8057 20.4746 25.211 21.4772 25.851 22.0532C26.491 22.6292 27.3763 22.9172 28.507 22.9172C29.1897 22.9172 29.851 22.7999 30.491 22.5652C31.131 22.3092 31.8243 21.9252 32.571 21.4132L34.651 24.2292C32.667 25.8079 30.459 26.5972 28.027 26.5972C25.275 26.5972 23.163 25.7866 21.691 24.1652C20.219 22.5439 19.483 20.3679 19.483 17.6372C19.483 15.9092 19.7923 14.3626 20.411 12.9972C21.0297 11.6106 21.9363 10.5226 23.131 9.73322C24.3257 8.92255 25.755 8.51722 27.419 8.51722C29.8723 8.51722 31.7923 9.28522 33.179 10.8212C34.5657 12.3572 35.259 14.4906 35.259 17.2212ZM30.299 15.7812C30.2563 13.1786 29.339 11.8772 27.547 11.8772C26.6723 11.8772 25.9897 12.1972 25.499 12.8372C25.0297 13.4772 24.7417 14.5332 24.635 16.0052H30.299V15.7812ZM44.0832 8.51722C45.2992 8.51722 46.4406 8.69855 47.5072 9.06122C48.5739 9.42389 49.5126 9.93589 50.3232 10.5972L48.4672 13.4452C47.0806 12.5706 45.6832 12.1332 44.2752 12.1332C43.6139 12.1332 43.1019 12.2506 42.7392 12.4852C42.3979 12.6986 42.2272 13.0079 42.2272 13.4132C42.2272 13.7332 42.3019 13.9999 42.4512 14.2132C42.6219 14.4052 42.9526 14.6079 43.4432 14.8212C43.9339 15.0346 44.6912 15.2906 45.7152 15.5892C47.4859 16.1012 48.7979 16.7732 49.6512 17.6052C50.5259 18.4159 50.9632 19.5466 50.9632 20.9972C50.9632 22.1492 50.6326 23.1519 49.9712 24.0052C49.3099 24.8372 48.4032 25.4772 47.2512 25.9252C46.0992 26.3732 44.8192 26.5972 43.4112 26.5972C41.9819 26.5972 40.6486 26.3732 39.4112 25.9252C38.1952 25.4772 37.1606 24.8586 36.3072 24.0692L38.7712 21.3172C40.2006 22.4266 41.7046 22.9812 43.2832 22.9812C44.0512 22.9812 44.6486 22.8426 45.0752 22.5652C45.5232 22.2879 45.7472 21.8932 45.7472 21.3812C45.7472 20.9759 45.6619 20.6559 45.4912 20.4212C45.3206 20.1866 44.9899 19.9732 44.4992 19.7812C44.0086 19.5679 43.2299 19.3119 42.1632 19.0132C40.4779 18.5226 39.2192 17.8399 38.3872 16.9652C37.5552 16.0906 37.1392 15.0026 37.1392 13.7012C37.1392 12.7199 37.4166 11.8452 37.9712 11.0772C38.5472 10.2879 39.3579 9.66922 40.4032 9.22122C41.4699 8.75189 42.6966 8.51722 44.0832 8.51722ZM64.224 25.2532C63.6053 25.6799 62.88 26.0106 62.048 26.2452C61.2373 26.4799 60.4267 26.5972 59.616 26.5972C55.904 26.5759 54.048 24.5279 54.048 20.4532V12.5812H51.648V9.06122H54.048V5.38122L59.104 4.80522V9.06122H63.008L62.464 12.5812H59.104V20.3892C59.104 21.1786 59.232 21.7439 59.488 22.0852C59.744 22.4266 60.1493 22.5972 60.704 22.5972C61.28 22.5972 61.888 22.4159 62.528 22.0532L64.224 25.2532ZM80.7375 3.33322C82.4015 3.33322 83.8415 3.56789 85.0575 4.03722C86.2948 4.50656 87.4148 5.22122 88.4175 6.18122L85.9855 9.02922C84.4708 7.79189 82.8495 7.17322 81.1215 7.17322C80.2042 7.17322 79.4788 7.36522 78.9455 7.74922C78.4122 8.11189 78.1455 8.64522 78.1455 9.34922C78.1455 9.83989 78.2628 10.2452 78.4975 10.5652C78.7322 10.8639 79.1482 11.1519 79.7455 11.4292C80.3428 11.7066 81.2388 12.0372 82.4335 12.4212C84.6948 13.1466 86.3588 14.0426 87.4255 15.1092C88.4922 16.1546 89.0255 17.6479 89.0255 19.5892C89.0255 20.9759 88.6735 22.2026 87.9695 23.2692C87.2655 24.3146 86.2522 25.1359 84.9295 25.7332C83.6068 26.3092 82.0388 26.5972 80.2255 26.5972C78.4122 26.5972 76.8015 26.3092 75.3935 25.7332C74.0068 25.1572 72.8122 24.3892 71.8095 23.4292L74.4655 20.5172C75.3188 21.2426 76.1935 21.7866 77.0895 22.1492C78.0068 22.5119 78.9988 22.6932 80.0655 22.6932C81.1535 22.6932 82.0068 22.4586 82.6255 21.9892C83.2655 21.4986 83.5855 20.8266 83.5855 19.9732C83.5855 19.4186 83.4682 18.9599 83.2335 18.5972C82.9988 18.2132 82.5935 17.8719 82.0175 17.5732C81.4415 17.2746 80.6095 16.9546 79.5215 16.6132C77.0682 15.8666 75.3188 14.9492 74.2735 13.8612C73.2495 12.7732 72.7375 11.3972 72.7375 9.73322C72.7375 8.45322 73.0788 7.33322 73.7615 6.37322C74.4442 5.39189 75.3935 4.64522 76.6095 4.13322C77.8255 3.59989 79.2015 3.33322 80.7375 3.33322ZM106.634 17.2212C106.634 17.9252 106.602 18.5332 106.538 19.0452H96.01C96.1807 20.4746 96.586 21.4772 97.226 22.0532C97.866 22.6292 98.7513 22.9172 99.882 22.9172C100.565 22.9172 101.226 22.7999 101.866 22.5652C102.506 22.3092 103.199 21.9252 103.946 21.4132L106.026 24.2292C104.042 25.8079 101.834 26.5972 99.402 26.5972C96.65 26.5972 94.538 25.7866 93.066 24.1652C91.594 22.5439 90.858 20.3679 90.858 17.6372C90.858 15.9092 91.1673 14.3626 91.786 12.9972C92.4047 11.6106 93.3113 10.5226 94.506 9.73322C95.7007 8.92255 97.13 8.51722 98.794 8.51722C101.247 8.51722 103.167 9.28522 104.554 10.8212C105.941 12.3572 106.634 14.4906 106.634 17.2212ZM101.674 15.7812C101.631 13.1786 100.714 11.8772 98.922 11.8772C98.0473 11.8772 97.3647 12.1972 96.874 12.8372C96.4047 13.4772 96.1167 14.5332 96.01 16.0052H101.674V15.7812ZM116.834 8.51722C118.008 8.51722 119.064 8.68789 120.002 9.02922C120.941 9.37056 121.826 9.89322 122.658 10.5972L120.482 13.6052C119.416 12.7946 118.338 12.3892 117.25 12.3892C116.12 12.3892 115.266 12.8052 114.69 13.6372C114.114 14.4692 113.826 15.8132 113.826 17.6692C113.826 19.4612 114.114 20.7306 114.69 21.4772C115.266 22.2239 116.098 22.5972 117.186 22.5972C117.762 22.5972 118.285 22.5119 118.754 22.3412C119.224 22.1492 119.789 21.8506 120.45 21.4452L122.658 24.5812C120.973 25.9252 119.064 26.5972 116.93 26.5972C115.202 26.5972 113.709 26.2346 112.45 25.5092C111.192 24.7626 110.221 23.7279 109.538 22.4052C108.856 21.0612 108.514 19.4932 108.514 17.7012C108.514 15.9092 108.856 14.3199 109.538 12.9332C110.221 11.5466 111.192 10.4692 112.45 9.70122C113.709 8.91189 115.17 8.51722 116.834 8.51722ZM138.81 26.0532H134.426L134.202 23.9092C132.965 25.7012 131.248 26.5972 129.05 26.5972C127.493 26.5972 126.309 26.1279 125.498 25.1892C124.709 24.2506 124.314 22.9386 124.314 21.2532V9.06122H129.37V20.6132C129.37 21.4452 129.498 22.0319 129.754 22.3732C130.032 22.6932 130.448 22.8532 131.002 22.8532C132.069 22.8532 132.986 22.1919 133.754 20.8692V9.06122H138.81V26.0532ZM152.003 8.58122C152.621 8.58122 153.187 8.65589 153.699 8.80522L152.899 13.7012C152.259 13.5519 151.747 13.4772 151.363 13.4772C150.36 13.4772 149.592 13.8292 149.059 14.5332C148.547 15.2159 148.141 16.2506 147.843 17.6372V26.0532H142.787V9.06122H147.203L147.619 12.3572C148.003 11.1839 148.579 10.2666 149.347 9.60522C150.136 8.92256 151.021 8.58122 152.003 8.58122ZM160.686 9.06122V26.0532H155.63V9.06122H160.686ZM158.126 0.101221C159.001 0.101221 159.716 0.378555 160.27 0.933222C160.846 1.46655 161.134 2.14922 161.134 2.98122C161.134 3.81322 160.846 4.50655 160.27 5.06122C159.716 5.59455 159.001 5.86122 158.126 5.86122C157.252 5.86122 156.537 5.59455 155.982 5.06122C155.428 4.50655 155.15 3.81322 155.15 2.98122C155.15 2.14922 155.428 1.46655 155.982 0.933222C156.537 0.378555 157.252 0.101221 158.126 0.101221ZM175.318 25.2532C174.699 25.6799 173.974 26.0106 173.142 26.2452C172.331 26.4799 171.52 26.5972 170.71 26.5972C166.998 26.5759 165.142 24.5279 165.142 20.4532V12.5812H162.742V9.06122H165.142V5.38122L170.198 4.80522V9.06122H174.102L173.558 12.5812H170.198V20.3892C170.198 21.1786 170.326 21.7439 170.582 22.0852C170.838 22.4266 171.243 22.5972 171.798 22.5972C172.374 22.5972 172.982 22.4159 173.622 22.0532L175.318 25.2532ZM186.225 26.0852C185.543 28.2826 184.423 29.9679 182.865 31.1412C181.329 32.3359 179.26 33.0079 176.657 33.1572L176.113 29.6052C177.735 29.3919 178.929 29.0292 179.697 28.5172C180.487 28.0052 181.116 27.1839 181.585 26.0532H179.857L174.673 9.06122H180.049L183.089 22.8212L186.417 9.06122H191.633L186.225 26.0852Z"/>
</mask>
<path d="M12.597 14.3092L12.1289 12.3648L12.2267 16.2746L12.597 14.3092ZM16.181 15.9412L14.8566 17.4399L14.8651 17.4474L14.8737 17.4549L16.181 15.9412ZM15.029 24.6132L16.0189 26.3511L16.0259 26.347L15.029 24.6132ZM0.788985 26.0532H-1.21102V28.0532H0.788985V26.0532ZM0.788985 3.87722V1.87722H-1.21102V3.87722H0.788985ZM14.197 5.22122L13.2393 6.97701L13.2481 6.98183L13.257 6.98656L14.197 5.22122ZM15.477 12.7092L14.044 11.314L14.0435 11.3145L15.477 12.7092ZM6.03698 7.58922V5.58922H4.03698V7.58922H6.03698ZM6.03698 12.7412H4.03698V14.7412H6.03698V12.7412ZM10.421 8.16522L9.33947 9.84758L9.36108 9.86147L9.38303 9.8748L10.421 8.16522ZM11.093 21.6372L12.0909 23.3705L12.099 23.3658L12.107 23.3611L11.093 21.6372ZM6.03698 16.2292V14.2292H4.03698V16.2292H6.03698ZM6.03698 22.2452H4.03698V24.2452H6.03698V22.2452ZM12.2267 16.2746C13.4234 16.5001 14.2639 16.9161 14.8566 17.4399L17.5054 14.4426C16.2634 13.345 14.7145 12.673 12.9673 12.3438L12.2267 16.2746ZM14.8737 17.4549C15.2465 17.7768 15.589 18.3589 15.589 19.5892H19.589C19.589 17.5769 18.9928 15.727 17.4882 14.4276L14.8737 17.4549ZM15.589 19.5892C15.589 21.4128 14.9827 22.3328 14.032 22.8794L16.0259 26.347C18.4887 24.931 19.589 22.5016 19.589 19.5892H15.589ZM14.0391 22.8754C12.7808 23.5921 10.809 24.0532 7.92498 24.0532V28.0532C11.1423 28.0532 13.9065 27.5543 16.0189 26.3511L14.0391 22.8754ZM7.92498 24.0532H0.788985V28.0532H7.92498V24.0532ZM2.78898 26.0532V3.87722H-1.21102V26.0532H2.78898ZM0.788985 5.87722H7.06098V1.87722H0.788985V5.87722ZM7.06098 5.87722C10.0374 5.87722 12.0246 6.31448 13.2393 6.97701L15.1547 3.46543C13.084 2.33597 10.3139 1.87722 7.06098 1.87722V5.87722ZM13.257 6.98656C13.7869 7.26869 14.1066 7.59553 14.3077 7.94811C14.5135 8.30884 14.661 8.8134 14.661 9.54122H18.661C18.661 8.26371 18.3978 7.0456 17.7823 5.96633C17.162 4.87891 16.2498 4.04842 15.137 3.45588L13.257 6.98656ZM14.661 9.54122C14.661 10.4059 14.4148 10.9332 14.044 11.314L16.9099 14.1045C18.1178 12.8639 18.661 11.2793 18.661 9.54122H14.661ZM14.0435 11.3145C13.559 11.8125 12.9427 12.1689 12.1289 12.3648L13.0651 16.2537C14.5553 15.8949 15.8589 15.1846 16.9104 14.1039L14.0435 11.3145ZM4.03698 7.58922V12.7412H8.03699V7.58922H4.03698ZM6.03698 14.7412H7.98899V10.7412H6.03698V14.7412ZM7.98899 14.7412C9.31538 14.7412 10.6809 14.4819 11.7417 13.6251C12.8841 12.7024 13.317 11.384 13.317 10.0532H9.31699C9.31699 10.2985 9.27875 10.4214 9.26024 10.4662C9.24678 10.4989 9.2397 10.5041 9.22831 10.5133C9.17975 10.5526 8.88126 10.7412 7.98899 10.7412V14.7412ZM13.317 10.0532C13.317 8.68394 12.8239 7.28439 11.4589 6.45565L9.38303 9.8748C9.37409 9.86937 9.35266 9.85423 9.32878 9.8278C9.30486 9.80132 9.29139 9.77778 9.28613 9.76671C9.27732 9.74815 9.31699 9.81996 9.31699 10.0532H13.317ZM11.5025 6.48287C10.411 5.78118 8.98372 5.58922 7.57298 5.58922V9.58922C8.76492 9.58922 9.23631 9.78126 9.33947 9.84758L11.5025 6.48287ZM7.57298 5.58922H6.03698V9.58922H7.57298V5.58922ZM7.95698 24.2452C9.4766 24.2452 10.9385 24.034 12.0909 23.3705L10.0951 19.904C9.83947 20.0511 9.2107 20.2452 7.95698 20.2452V24.2452ZM12.107 23.3611C13.6483 22.4545 14.181 20.8651 14.181 19.3012H10.181C10.181 19.663 10.1217 19.8337 10.096 19.8888C10.0846 19.9133 10.0793 19.9168 10.0844 19.9111C10.0897 19.9052 10.0913 19.9061 10.0789 19.9134L12.107 23.3611ZM14.181 19.3012C14.181 17.8358 13.7009 16.4199 12.4704 15.4355C11.325 14.5192 9.83467 14.2292 8.34099 14.2292V18.2292C9.4073 18.2292 9.83693 18.4512 9.9716 18.559C10.021 18.5985 10.181 18.7186 10.181 19.3012H14.181ZM8.34099 14.2292H6.03698V18.2292H8.34099V14.2292ZM4.03698 16.2292V22.2452H8.03699V16.2292H4.03698ZM6.03698 24.2452H7.95698V20.2452H6.03698V24.2452ZM35.163 19.0452V21.0452H36.9285L37.1475 19.2933L35.163 19.0452ZM24.635 19.0452V17.0452H22.382L22.6491 19.2823L24.635 19.0452ZM25.851 22.0532L24.5131 23.5398L25.851 22.0532ZM30.491 22.5652L31.1795 24.443L31.2068 24.433L31.2338 24.4222L30.491 22.5652ZM32.571 21.4132L34.1797 20.225L33.0325 18.6717L31.4399 19.7638L32.571 21.4132ZM34.651 24.2292L35.8963 25.7942L37.406 24.5929L36.2597 23.041L34.651 24.2292ZM21.691 24.1652L23.1717 22.8208L21.691 24.1652ZM20.411 12.9972L22.2327 13.8227L22.2374 13.8121L20.411 12.9972ZM23.131 9.73322L24.2335 11.4019L24.2438 11.3951L24.254 11.3882L23.131 9.73322ZM33.179 10.8212L31.6944 12.1614H31.6945L33.179 10.8212ZM30.299 15.7812H32.299V15.7648L32.2987 15.7484L30.299 15.7812ZM25.499 12.8372L23.9118 11.6204L23.8988 11.6373L23.8862 11.6545L25.499 12.8372ZM24.635 16.0052L22.6402 15.8607L22.4848 18.0052H24.635V16.0052ZM30.299 16.0052V18.0052H32.299V16.0052H30.299ZM33.259 17.2212C33.259 17.8699 33.2292 18.3909 33.1784 18.7972L37.1475 19.2933C37.2248 18.6755 37.259 17.9805 37.259 17.2212H33.259ZM35.163 17.0452H24.635V21.0452H35.163V17.0452ZM22.6491 19.2823C22.8414 20.8933 23.3385 22.4827 24.5131 23.5398L27.1889 20.5666C27.0834 20.4717 26.7699 20.0558 26.6209 18.8081L22.6491 19.2823ZM24.5131 23.5398C25.623 24.5388 27.0404 24.9172 28.507 24.9172V20.9172C27.7122 20.9172 27.359 20.7197 27.1889 20.5666L24.5131 23.5398ZM28.507 24.9172C29.4242 24.9172 30.3186 24.7586 31.1795 24.443L29.8025 20.6875C29.3834 20.8411 28.9551 20.9172 28.507 20.9172V24.9172ZM31.2338 24.4222C32.0453 24.0976 32.8694 23.6336 33.702 23.0627L31.4399 19.7638C30.7792 20.2168 30.2167 20.5209 29.7482 20.7083L31.2338 24.4222ZM30.9623 22.6015L33.0423 25.4175L36.2597 23.041L34.1797 20.225L30.9623 22.6015ZM33.4057 22.6642C31.7594 23.9742 29.9863 24.5972 28.027 24.5972V28.5972C30.9317 28.5972 33.5746 27.6416 35.8963 25.7942L33.4057 22.6642ZM28.027 24.5972C25.6839 24.5972 24.1717 23.9222 23.1717 22.8208L20.2102 25.5096C22.1543 27.6509 24.8661 28.5972 28.027 28.5972V24.5972ZM23.1717 22.8208C22.1109 21.6524 21.483 19.9987 21.483 17.6372H17.483C17.483 20.7371 18.3271 23.4354 20.2102 25.5096L23.1717 22.8208ZM21.483 17.6372C21.483 16.1506 21.7482 14.892 22.2327 13.8227L18.5893 12.1718C17.8365 13.8332 17.483 15.6678 17.483 17.6372H21.483ZM22.2374 13.8121C22.7108 12.7511 23.376 11.9684 24.2335 11.4019L22.0285 8.06455C20.4966 9.07667 19.3485 10.47 18.5845 12.1823L22.2374 13.8121ZM24.254 11.3882C25.0688 10.8352 26.0925 10.5172 27.419 10.5172V6.51722C25.4174 6.51722 23.5825 7.00986 22.008 8.07827L24.254 11.3882ZM27.419 10.5172C29.4211 10.5172 30.7576 11.1237 31.6944 12.1614L34.6635 9.48102C32.827 7.44675 30.3235 6.51722 27.419 6.51722V10.5172ZM31.6945 12.1614C32.655 13.2254 33.259 14.8241 33.259 17.2212H37.259C37.259 14.157 36.4763 11.489 34.6635 9.48102L31.6945 12.1614ZM32.2987 15.7484C32.2746 14.2771 32.0083 12.8282 31.2137 11.7009C30.3289 10.4458 28.9986 9.87722 27.547 9.87722V13.8772C27.7523 13.8772 27.8397 13.9138 27.8611 13.924C27.8738 13.9302 27.8995 13.9419 27.9443 14.0055C28.067 14.1796 28.2807 14.6827 28.2993 15.814L32.2987 15.7484ZM27.547 9.87722C26.111 9.87722 24.8164 10.4404 23.9118 11.6204L27.0862 14.0541C27.1629 13.954 27.2337 13.8772 27.547 13.8772V9.87722ZM23.8862 11.6545C23.0742 12.7617 22.7542 14.2879 22.6402 15.8607L26.6298 16.1498C26.7291 14.7785 26.9851 14.1928 27.1118 14.0199L23.8862 11.6545ZM24.635 18.0052H30.299V14.0052H24.635V18.0052ZM32.299 16.0052V15.7812H28.299V16.0052H32.299ZM47.5072 9.06122L46.8634 10.9548L47.5072 9.06122ZM50.3232 10.5972L51.9988 11.6892L52.98 10.1835L51.5875 9.04749L50.3232 10.5972ZM48.4672 13.4452L47.4002 15.1368L49.0669 16.1881L50.1428 14.5372L48.4672 13.4452ZM42.7392 12.4852L43.7992 14.1812L43.8125 14.1729L43.8257 14.1644L42.7392 12.4852ZM42.4512 14.2132L40.8128 15.3601L40.8793 15.4552L40.9564 15.542L42.4512 14.2132ZM43.4432 14.8212L42.6458 16.6554V16.6554L43.4432 14.8212ZM45.7152 15.5892L45.1552 17.5092L45.1597 17.5105L45.7152 15.5892ZM49.6512 17.6052L48.255 19.0372L48.2731 19.0549L48.2917 19.0721L49.6512 17.6052ZM49.9712 24.0052L51.5369 25.2497L51.5445 25.2401L51.5521 25.2304L49.9712 24.0052ZM47.2512 25.9252L47.9761 27.7892L47.2512 25.9252ZM39.4112 25.9252L38.7198 27.8019L38.7304 27.8058L39.4112 25.9252ZM36.3072 24.0692L34.8172 22.7351L33.5046 24.2012L34.9492 25.5374L36.3072 24.0692ZM38.7712 21.3172L39.9975 19.7372L38.5247 18.5942L37.2812 19.9831L38.7712 21.3172ZM45.0752 22.5652L44.0225 20.8647L44.0038 20.8763L43.9853 20.8883L45.0752 22.5652ZM45.4912 20.4212L43.8738 21.5976L43.8738 21.5976L45.4912 20.4212ZM44.4992 19.7812L43.7018 21.6154L43.7358 21.6302L43.7704 21.6437L44.4992 19.7812ZM42.1632 19.0132L41.6042 20.9335L41.6141 20.9364L41.624 20.9391L42.1632 19.0132ZM38.3872 16.9652L36.9381 18.3436V18.3437L38.3872 16.9652ZM37.9712 11.0772L36.3556 9.89827L36.3499 9.90624L37.9712 11.0772ZM40.4032 9.22122L41.1911 11.0595L41.1999 11.0557L41.2087 11.0519L40.4032 9.22122ZM44.0832 10.5172C45.0976 10.5172 46.0199 10.668 46.8634 10.9548L48.151 7.16768C46.8612 6.72914 45.5008 6.51722 44.0832 6.51722V10.5172ZM46.8634 10.9548C47.7219 11.2466 48.4467 11.6475 49.059 12.147L51.5875 9.04749C50.5784 8.22429 49.4259 7.60114 48.151 7.16768L46.8634 10.9548ZM48.6476 9.50526L46.7916 12.3533L50.1428 14.5372L51.9988 11.6892L48.6476 9.50526ZM49.5342 11.7536C47.8816 10.7112 46.1195 10.1332 44.2752 10.1332V14.1332C45.247 14.1332 46.2795 14.4299 47.4002 15.1368L49.5342 11.7536ZM44.2752 10.1332C43.4183 10.1332 42.4683 10.2784 41.6527 10.8061L43.8257 14.1644C43.7741 14.1978 43.7658 14.1881 43.842 14.1707C43.9195 14.1529 44.0581 14.1332 44.2752 14.1332V10.1332ZM41.6792 10.7892C40.7482 11.3712 40.2272 12.3242 40.2272 13.4132H44.2272C44.2272 13.4981 44.207 13.661 44.1064 13.8434C44.0055 14.0263 43.8765 14.1329 43.7992 14.1812L41.6792 10.7892ZM40.2272 13.4132C40.2272 14.0485 40.3789 14.7404 40.8128 15.3601L44.0897 13.0663C44.1525 13.156 44.1895 13.2438 44.2092 13.314C44.2279 13.3809 44.2272 13.4186 44.2272 13.4132H40.2272ZM40.9564 15.542C41.4356 16.081 42.116 16.425 42.6458 16.6554L44.2407 12.9871C44.0513 12.9047 43.9348 12.8423 43.8724 12.804C43.8426 12.7858 43.8363 12.7798 43.8464 12.7877C43.8553 12.7948 43.894 12.826 43.9461 12.8845L40.9564 15.542ZM42.6458 16.6554C43.2566 16.9209 44.1131 17.2053 45.1552 17.5092L46.2752 13.6692C45.2693 13.3758 44.6112 13.1482 44.2407 12.9871L42.6458 16.6554ZM45.1597 17.5105C46.7712 17.9765 47.7318 18.5271 48.255 19.0372L51.0474 16.1732C49.864 15.0194 48.2006 14.2259 46.2708 13.6679L45.1597 17.5105ZM48.2917 19.0721C48.6715 19.4241 48.9632 19.9734 48.9632 20.9972H52.9632C52.9632 19.1198 52.3803 17.4077 51.0108 16.1384L48.2917 19.0721ZM48.9632 20.9972C48.9632 21.7374 48.7612 22.3017 48.3904 22.7801L51.5521 25.2304C52.504 24.0021 52.9632 22.561 52.9632 20.9972H48.9632ZM48.4056 22.7607C47.9984 23.273 47.4026 23.7204 46.5263 24.0612L47.9761 27.7892C49.4039 27.234 50.6214 26.4014 51.5369 25.2497L48.4056 22.7607ZM46.5263 24.0612C45.6353 24.4077 44.6054 24.5972 43.4112 24.5972V28.5972C45.033 28.5972 46.5632 28.3387 47.9761 27.7892L46.5263 24.0612ZM43.4112 24.5972C42.194 24.5972 41.0931 24.4071 40.0921 24.0447L38.7304 27.8058C40.2041 28.3393 41.7698 28.5972 43.4112 28.5972V24.5972ZM40.1026 24.0485C39.1052 23.6811 38.3045 23.1922 37.6653 22.601L34.9492 25.5374C36.0167 26.5249 37.2852 27.2734 38.7198 27.8019L40.1026 24.0485ZM37.7973 25.4033L40.2613 22.6513L37.2812 19.9831L34.8172 22.7351L37.7973 25.4033ZM37.545 22.8972C39.2714 24.2371 41.197 24.9812 43.2832 24.9812V20.9812C42.2121 20.9812 41.1297 20.616 39.9975 19.7372L37.545 22.8972ZM43.2832 24.9812C44.2542 24.9812 45.2883 24.8121 46.1652 24.2421L43.9853 20.8883C44.0025 20.8771 43.972 20.9019 43.855 20.929C43.7363 20.9566 43.5514 20.9812 43.2832 20.9812V24.9812ZM46.1279 24.2658C47.144 23.6368 47.7472 22.6101 47.7472 21.3812H43.7472C43.7472 21.3363 43.76 21.2147 43.8399 21.074C43.9182 20.9359 44.0077 20.8739 44.0225 20.8647L46.1279 24.2658ZM47.7472 21.3812C47.7472 20.7165 47.6093 19.9332 47.1087 19.2449L43.8738 21.5976C43.7954 21.4897 43.7626 21.3971 43.7508 21.3525C43.7399 21.3119 43.7472 21.3153 43.7472 21.3812H47.7472ZM47.1087 19.2449C46.5954 18.5391 45.8243 18.1521 45.228 17.9187L43.7704 21.6437C43.8477 21.674 43.9075 21.7007 43.9521 21.7227C43.9971 21.7449 44.0219 21.7599 44.031 21.7658C44.0404 21.7719 44.0274 21.7645 44.0006 21.7405C43.9737 21.7165 43.9265 21.6701 43.8738 21.5976L47.1087 19.2449ZM45.2967 17.9471C44.6737 17.6762 43.7849 17.3904 42.7025 17.0873L41.624 20.9391C42.6749 21.2334 43.3434 21.4596 43.7018 21.6154L45.2967 17.9471ZM42.7223 17.093C41.2319 16.659 40.3386 16.1148 39.8363 15.5868L36.9381 18.3437C38.0999 19.565 39.7239 20.3861 41.6042 20.9335L42.7223 17.093ZM39.8363 15.5868C39.3871 15.1145 39.1392 14.5333 39.1392 13.7012H35.1392C35.1392 15.4718 35.7233 17.0666 36.9381 18.3436L39.8363 15.5868ZM39.1392 13.7012C39.1392 13.1242 39.2933 12.6625 39.5926 12.2482L36.3499 9.90624C35.5398 11.0279 35.1392 12.3156 35.1392 13.7012H39.1392ZM39.5868 12.2562C39.9185 11.8016 40.4211 11.3895 41.1911 11.0595L39.6154 7.38293C38.2947 7.94893 37.1759 8.77419 36.3557 9.89828L39.5868 12.2562ZM41.2087 11.0519C41.978 10.7134 42.9221 10.5172 44.0832 10.5172V6.51722C42.4711 6.51722 40.9618 6.79043 39.5978 7.39059L41.2087 11.0519ZM64.224 25.2532L65.3595 26.8996L66.8246 25.8892L65.9911 24.3166L64.224 25.2532ZM62.048 26.2452L61.5051 24.3203L61.4919 24.3241L62.048 26.2452ZM59.616 26.5972L59.6045 28.5972H59.616V26.5972ZM54.048 12.5812H56.048V10.5812H54.048V12.5812ZM51.648 12.5812H49.648V14.5812H51.648V12.5812ZM51.648 9.06122V7.06122H49.648V9.06122H51.648ZM54.048 9.06122V11.0612H56.048V9.06122H54.048ZM54.048 5.38122L53.8216 3.39408L52.048 3.59613V5.38122H54.048ZM59.104 4.80522H61.104V2.56444L58.8776 2.81808L59.104 4.80522ZM59.104 9.06122H57.104V11.0612H59.104V9.06122ZM63.008 9.06122L64.9845 9.36669L65.3408 7.06122H63.008V9.06122ZM62.464 12.5812V14.5812H64.1786L64.4405 12.8867L62.464 12.5812ZM59.104 12.5812V10.5812H57.104V12.5812H59.104ZM59.488 22.0852L61.088 20.8852L59.488 22.0852ZM62.528 22.0532L64.2951 21.1166L63.3318 19.299L61.542 20.3132L62.528 22.0532ZM63.0885 23.6068C62.6756 23.8915 62.1568 24.1365 61.5051 24.3203L62.5909 28.1701C63.6032 27.8846 64.535 27.4682 65.3595 26.8996L63.0885 23.6068ZM61.4919 24.3241C60.8545 24.5086 60.2309 24.5972 59.616 24.5972V28.5972C60.6224 28.5972 61.6202 28.4512 62.6041 28.1664L61.4919 24.3241ZM59.6275 24.5973C58.1311 24.5887 57.357 24.1822 56.922 23.7022C56.4553 23.1873 56.048 22.225 56.048 20.4532H52.048C52.048 22.7561 52.5687 24.8552 53.958 26.3883C55.379 27.9562 57.3889 28.5845 59.6045 28.5972L59.6275 24.5973ZM56.048 20.4532V12.5812H52.048V20.4532H56.048ZM54.048 10.5812H51.648V14.5812H54.048V10.5812ZM53.648 12.5812V9.06122H49.648V12.5812H53.648ZM51.648 11.0612H54.048V7.06122H51.648V11.0612ZM56.048 9.06122V5.38122H52.048V9.06122H56.048ZM54.2744 7.36837L59.3304 6.79237L58.8776 2.81808L53.8216 3.39408L54.2744 7.36837ZM57.104 4.80522V9.06122H61.104V4.80522H57.104ZM59.104 11.0612H63.008V7.06122H59.104V11.0612ZM61.0314 8.75576L60.4874 12.2758L64.4405 12.8867L64.9845 9.36669L61.0314 8.75576ZM62.464 10.5812H59.104V14.5812H62.464V10.5812ZM57.104 12.5812V20.3892H61.104V12.5812H57.104ZM57.104 20.3892C57.104 21.2919 57.2303 22.4083 57.888 23.2852L61.088 20.8852C61.178 21.0052 61.1735 21.0645 61.1506 20.9636C61.1288 20.8672 61.104 20.6848 61.104 20.3892H57.104ZM57.888 23.2852C58.6305 24.2753 59.7265 24.5972 60.704 24.5972V20.5972C60.6261 20.5972 60.662 20.5846 60.7601 20.626C60.8737 20.6738 60.9965 20.7632 61.088 20.8852L57.888 23.2852ZM60.704 24.5972C61.7087 24.5972 62.6549 24.2801 63.514 23.7933L61.542 20.3132C61.121 20.5517 60.8513 20.5972 60.704 20.5972V24.5972ZM60.7608 22.9898L62.4568 26.1898L65.9911 24.3166L64.2951 21.1166L60.7608 22.9898ZM85.0575 4.03722L84.3373 5.9031L84.3482 5.90722L85.0575 4.03722ZM88.4175 6.18122L89.9384 7.47999L91.1653 6.04322L89.8006 4.7366L88.4175 6.18122ZM85.9855 9.02922L84.7202 10.5781L86.2357 11.8161L87.5064 10.328L85.9855 9.02922ZM78.9455 7.74922L80.0701 9.40307L80.0923 9.38798L80.1141 9.37229L78.9455 7.74922ZM78.4975 10.5652L76.8847 11.7479L76.9043 11.7747L76.9249 11.8009L78.4975 10.5652ZM79.7455 11.4292L78.9033 13.2432H78.9033L79.7455 11.4292ZM82.4335 12.4212L81.8215 14.3253L81.8226 14.3257L82.4335 12.4212ZM87.4255 15.1092L86.0113 16.5234L86.0184 16.5306L86.0256 16.5376L87.4255 15.1092ZM87.9695 23.2692L89.6284 24.3864L89.6336 24.3787L89.6387 24.3709L87.9695 23.2692ZM84.9295 25.7332L85.728 27.5669L85.7404 27.5615L85.7527 27.556L84.9295 25.7332ZM75.3935 25.7332L74.6263 27.5802L74.6362 27.5843L75.3935 25.7332ZM71.8095 23.4292L70.3318 22.0815L69.0163 23.5238L70.4263 24.8738L71.8095 23.4292ZM74.4655 20.5172L75.7608 18.9933L74.2893 17.7426L72.9878 19.1695L74.4655 20.5172ZM77.0895 22.1492L76.3391 24.0031L76.3466 24.0062L76.3542 24.0091L77.0895 22.1492ZM82.6255 21.9892L83.8343 23.5826L83.8423 23.5764L82.6255 21.9892ZM83.2335 18.5972L81.5269 19.6401L81.5404 19.6621L81.5543 19.6837L83.2335 18.5972ZM82.0175 17.5732L81.0968 19.3487V19.3487L82.0175 17.5732ZM79.5215 16.6132L80.1202 14.7049L80.112 14.7024L80.1038 14.6999L79.5215 16.6132ZM74.2735 13.8612L72.8171 15.232L72.8241 15.2395L72.8313 15.2469L74.2735 13.8612ZM73.7615 6.37322L75.3914 7.53227L75.3974 7.52384L75.4033 7.51535L73.7615 6.37322ZM76.6095 4.13322L77.3856 5.97649L77.3992 5.97075L77.4128 5.9648L76.6095 4.13322ZM80.7375 5.33322C82.2203 5.33322 83.4049 5.54317 84.3373 5.90307L85.7776 2.17138C84.2781 1.59261 82.5826 1.33322 80.7375 1.33322V5.33322ZM84.3482 5.90722C85.3224 6.27676 86.2158 6.84214 87.0343 7.62584L89.8006 4.7366C88.6138 3.6003 87.2672 2.73635 85.7668 2.16723L84.3482 5.90722ZM86.8966 4.88246L84.4646 7.73046L87.5064 10.328L89.9384 7.47999L86.8966 4.88246ZM87.2508 7.48034C85.4288 5.99196 83.3711 5.17322 81.1215 5.17322V9.17322C82.3279 9.17322 83.5128 9.59182 84.7202 10.5781L87.2508 7.48034ZM81.1215 5.17322C79.9461 5.17322 78.7616 5.41715 77.7769 6.12615L80.1141 9.37229C80.196 9.31329 80.4622 9.17322 81.1215 9.17322V5.17322ZM77.8209 6.09537C76.6834 6.86884 76.1455 8.05442 76.1455 9.34922H80.1455C80.1455 9.29926 80.1502 9.27632 80.1506 9.27458C80.1507 9.27393 80.1472 9.28999 80.1343 9.31565C80.1212 9.34184 80.1044 9.36614 80.0874 9.38525C80.0708 9.40375 80.062 9.40861 80.0701 9.40307L77.8209 6.09537ZM76.1455 9.34922C76.1455 10.1631 76.3441 11.0108 76.8847 11.7479L80.1103 9.38249C80.1241 9.40137 80.1349 9.41982 80.1428 9.43603C80.1506 9.45204 80.1539 9.46255 80.1546 9.46511C80.156 9.46976 80.1455 9.43623 80.1455 9.34922H76.1455ZM76.9249 11.8009C77.4482 12.4669 78.2013 12.9173 78.9033 13.2432L80.5877 9.6152C80.3634 9.51106 80.2151 9.42398 80.1239 9.36084C80.0293 9.29533 80.0307 9.27946 80.0701 9.32958L76.9249 11.8009ZM78.9033 13.2432C79.6149 13.5736 80.605 13.9343 81.8215 14.3253L83.0455 10.5172C81.8726 10.1402 81.0708 9.83948 80.5877 9.6152L78.9033 13.2432ZM81.8226 14.3257C83.9376 15.004 85.2625 15.7747 86.0113 16.5234L88.8397 13.695C87.4551 12.3104 85.4521 11.2891 83.0443 10.5168L81.8226 14.3257ZM86.0256 16.5376C86.6028 17.1033 87.0255 18.0168 87.0255 19.5892H91.0255C91.0255 17.279 90.3815 15.2058 88.8253 13.6808L86.0256 16.5376ZM87.0255 19.5892C87.0255 20.619 86.7701 21.4556 86.3003 22.1675L89.6387 24.3709C90.5769 22.9495 91.0255 21.3328 91.0255 19.5892H87.0255ZM86.3106 22.152C85.8441 22.8447 85.1426 23.4425 84.1063 23.9105L85.7527 27.556C87.3617 26.8293 88.6868 25.7844 89.6284 24.3864L86.3106 22.152ZM84.131 23.8996C83.1161 24.3415 81.8323 24.5972 80.2255 24.5972V28.5972C82.2453 28.5972 84.0976 28.2769 85.728 27.5669L84.131 23.8996ZM80.2255 24.5972C78.623 24.5972 77.277 24.3429 76.1507 23.8821L74.6362 27.5843C76.326 28.2756 78.2013 28.5972 80.2255 28.5972V24.5972ZM76.1607 23.8862C74.9837 23.3973 74.0025 22.76 73.1926 21.9846L70.4263 24.8738C71.6218 26.0184 73.0299 26.9171 74.6263 27.5802L76.1607 23.8862ZM73.2872 24.777L75.9432 21.865L72.9878 19.1695L70.3318 22.0815L73.2872 24.777ZM73.1702 22.0411C74.1611 22.8833 75.2164 23.5487 76.3391 24.0031L77.8399 20.2953C77.1706 20.0244 76.4766 19.6018 75.7608 18.9933L73.1702 22.0411ZM76.3542 24.0091C77.524 24.4716 78.7677 24.6932 80.0655 24.6932V20.6932C79.2299 20.6932 78.4896 20.5521 77.8248 20.2893L76.3542 24.0091ZM80.0655 24.6932C81.419 24.6932 82.7526 24.4032 83.8343 23.5826L81.4167 20.3958C81.2611 20.5139 80.888 20.6932 80.0655 20.6932V24.6932ZM83.8423 23.5764C85.0085 22.6824 85.5855 21.4066 85.5855 19.9732H81.5855C81.5855 20.146 81.5544 20.2267 81.5398 20.2574C81.5269 20.2843 81.499 20.3327 81.4086 20.402L83.8423 23.5764ZM85.5855 19.9732C85.5855 19.1414 85.4087 18.2774 84.9126 17.5107L81.5543 19.6837C81.5276 19.6424 81.5855 19.6957 81.5855 19.9732H85.5855ZM84.94 17.5543C84.449 16.7507 83.703 16.1943 82.9381 15.7977L81.0968 19.3487C81.484 19.5495 81.5487 19.6757 81.5269 19.6401L84.94 17.5543ZM82.9381 15.7977C82.2097 15.42 81.2494 15.0592 80.1202 14.7049L78.9228 18.5215C79.9696 18.8499 80.6733 19.1291 81.0968 19.3487L82.9381 15.7977ZM80.1038 14.6999C77.7768 13.9917 76.4122 13.2005 75.7157 12.4756L72.8313 15.2469C74.2255 16.698 76.3595 17.7415 78.9392 18.5266L80.1038 14.6999ZM75.7299 12.4905C75.0959 11.8169 74.7375 10.9506 74.7375 9.73322H70.7375C70.7375 11.8439 71.4031 13.7296 72.8171 15.232L75.7299 12.4905ZM74.7375 9.73322C74.7375 8.83076 74.9705 8.12413 75.3914 7.53227L72.1316 5.21417C71.1871 6.54232 70.7375 8.07568 70.7375 9.73322H74.7375ZM75.4033 7.51535C75.8475 6.87678 76.4813 6.35726 77.3856 5.97649L75.8334 2.28995C74.3057 2.93318 73.0408 3.907 72.1197 5.23109L75.4033 7.51535ZM77.4128 5.9648C78.3389 5.55861 79.435 5.33322 80.7375 5.33322V1.33322C78.968 1.33322 77.3121 1.64117 75.8062 2.30164L77.4128 5.9648ZM106.538 19.0452V21.0452H108.304L108.523 19.2933L106.538 19.0452ZM96.01 19.0452V17.0452H93.757L94.0241 19.2823L96.01 19.0452ZM97.226 22.0532L95.8881 23.5398L97.226 22.0532ZM101.866 22.5652L102.554 24.443L102.582 24.433L102.609 24.4222L101.866 22.5652ZM103.946 21.4132L105.555 20.225L104.407 18.6717L102.815 19.7638L103.946 21.4132ZM106.026 24.2292L107.271 25.7942L108.781 24.5929L107.635 23.041L106.026 24.2292ZM93.066 24.1652L94.5467 22.8208L93.066 24.1652ZM91.786 12.9972L93.6077 13.8227L93.6124 13.8121L91.786 12.9972ZM94.506 9.73322L95.6085 11.4019L95.6188 11.3951L95.629 11.3882L94.506 9.73322ZM104.554 10.8212L103.069 12.1614L104.554 10.8212ZM101.674 15.7812H103.674V15.7648L103.674 15.7484L101.674 15.7812ZM96.874 12.8372L95.2868 11.6204L95.2738 11.6373L95.2612 11.6545L96.874 12.8372ZM96.01 16.0052L94.0152 15.8607L93.8598 18.0052H96.01V16.0052ZM101.674 16.0052V18.0052H103.674V16.0052H101.674ZM104.634 17.2212C104.634 17.8699 104.604 18.3909 104.553 18.7972L108.523 19.2933C108.6 18.6755 108.634 17.9805 108.634 17.2212H104.634ZM106.538 17.0452H96.01V21.0452H106.538V17.0452ZM94.0241 19.2823C94.2164 20.8933 94.7135 22.4827 95.8881 23.5398L98.5639 20.5666C98.4584 20.4717 98.1449 20.0558 97.9959 18.8081L94.0241 19.2823ZM95.8881 23.5398C96.998 24.5388 98.4154 24.9172 99.882 24.9172V20.9172C99.0872 20.9172 98.734 20.7197 98.5639 20.5666L95.8881 23.5398ZM99.882 24.9172C100.799 24.9172 101.694 24.7586 102.554 24.443L101.177 20.6875C100.758 20.8411 100.33 20.9172 99.882 20.9172V24.9172ZM102.609 24.4222C103.42 24.0976 104.244 23.6336 105.077 23.0627L102.815 19.7638C102.154 20.2168 101.592 20.5209 101.123 20.7083L102.609 24.4222ZM102.337 22.6015L104.417 25.4175L107.635 23.041L105.555 20.225L102.337 22.6015ZM104.781 22.6642C103.134 23.9742 101.361 24.5972 99.402 24.5972V28.5972C102.307 28.5972 104.95 27.6416 107.271 25.7942L104.781 22.6642ZM99.402 24.5972C97.0589 24.5972 95.5467 23.9222 94.5467 22.8208L91.5852 25.5096C93.5293 27.6509 96.2411 28.5972 99.402 28.5972V24.5972ZM94.5467 22.8208C93.4859 21.6524 92.858 19.9987 92.858 17.6372H88.858C88.858 20.7371 89.7021 23.4354 91.5852 25.5096L94.5467 22.8208ZM92.858 17.6372C92.858 16.1506 93.1232 14.892 93.6077 13.8227L89.9643 12.1718C89.2115 13.8332 88.858 15.6678 88.858 17.6372H92.858ZM93.6124 13.8121C94.0858 12.7511 94.751 11.9684 95.6085 11.4019L93.4035 8.06455C91.8716 9.07667 90.7235 10.47 89.9595 12.1823L93.6124 13.8121ZM95.629 11.3882C96.4438 10.8352 97.4675 10.5172 98.794 10.5172V6.51722C96.7924 6.51722 94.9575 7.00986 93.383 8.07827L95.629 11.3882ZM98.794 10.5172C100.796 10.5172 102.133 11.1237 103.069 12.1614L106.039 9.48102C104.202 7.44675 101.699 6.51722 98.794 6.51722V10.5172ZM103.069 12.1614C104.03 13.2254 104.634 14.8241 104.634 17.2212H108.634C108.634 14.157 107.851 11.489 106.039 9.48102L103.069 12.1614ZM103.674 15.7484C103.65 14.2771 103.383 12.8282 102.589 11.7009C101.704 10.4458 100.374 9.87722 98.922 9.87722V13.8772C99.1273 13.8772 99.2147 13.9138 99.2361 13.924C99.2488 13.9302 99.2745 13.9419 99.3193 14.0055C99.442 14.1796 99.6557 14.6827 99.6743 15.814L103.674 15.7484ZM98.922 9.87722C97.486 9.87722 96.1914 10.4404 95.2868 11.6204L98.4612 14.0541C98.5379 13.954 98.6087 13.8772 98.922 13.8772V9.87722ZM95.2612 11.6545C94.4492 12.7617 94.1292 14.2879 94.0152 15.8607L98.0048 16.1498C98.1041 14.7785 98.3601 14.1928 98.4868 14.0199L95.2612 11.6545ZM96.01 18.0052H101.674V14.0052H96.01V18.0052ZM103.674 16.0052V15.7812H99.674V16.0052H103.674ZM120.002 9.02922L119.319 10.9088V10.9088L120.002 9.02922ZM122.658 10.5972L124.279 11.7695L125.365 10.2677L123.95 9.07045L122.658 10.5972ZM120.482 13.6052L119.272 15.1975L120.902 16.4366L122.103 14.7775L120.482 13.6052ZM114.69 21.4772L116.274 20.2556L114.69 21.4772ZM118.754 22.3412L119.438 24.2208L119.475 24.2073L119.511 24.1923L118.754 22.3412ZM120.45 21.4452L122.086 20.2938L121.005 18.7593L119.405 19.74L120.45 21.4452ZM122.658 24.5812L123.905 26.1449L125.378 24.9703L124.294 23.4298L122.658 24.5812ZM112.45 25.5092L111.43 27.2293L111.441 27.2358L111.452 27.2421L112.45 25.5092ZM109.538 22.4052L107.755 23.311L107.761 23.3225L109.538 22.4052ZM109.538 12.9332L111.333 13.8166L109.538 12.9332ZM112.45 9.70122L113.492 11.4085L113.502 11.4021L113.513 11.3956L112.45 9.70122ZM116.834 10.5172C117.814 10.5172 118.634 10.6597 119.319 10.9088L120.686 7.14964C119.493 6.71607 118.201 6.51722 116.834 6.51722V10.5172ZM119.319 10.9088C120.016 11.1623 120.698 11.5587 121.366 12.124L123.95 9.07045C122.954 8.22776 121.866 7.57876 120.686 7.14964L119.319 10.9088ZM121.038 9.42498L118.862 12.433L122.103 14.7775L124.279 11.7695L121.038 9.42498ZM121.692 12.0129C120.36 11.0003 118.868 10.3892 117.25 10.3892V14.3892C117.808 14.3892 118.471 14.5888 119.272 15.1975L121.692 12.0129ZM117.25 10.3892C115.553 10.3892 114.044 11.0574 113.046 12.4988L116.335 14.7756C116.489 14.5531 116.686 14.3892 117.25 14.3892V10.3892ZM113.046 12.4988C112.114 13.8447 111.826 15.6997 111.826 17.6692H115.826C115.826 15.9267 116.114 15.0938 116.335 14.7756L113.046 12.4988ZM111.826 17.6692C111.826 19.5609 112.108 21.4038 113.107 22.6988L116.274 20.2556C116.121 20.0574 115.826 19.3615 115.826 17.6692H111.826ZM113.107 22.6988C114.123 24.0159 115.586 24.5972 117.186 24.5972V20.5972C116.61 20.5972 116.41 20.4318 116.274 20.2556L113.107 22.6988ZM117.186 24.5972C117.96 24.5972 118.719 24.4823 119.438 24.2208L118.071 20.4616C117.851 20.5414 117.564 20.5972 117.186 20.5972V24.5972ZM119.511 24.1923C120.118 23.9442 120.785 23.5859 121.495 23.1504L119.405 19.74C118.793 20.1152 118.329 20.3543 117.997 20.4901L119.511 24.1923ZM118.815 22.5966L121.023 25.7326L124.294 23.4298L122.086 20.2938L118.815 22.5966ZM121.411 23.0176C120.076 24.0823 118.605 24.5972 116.93 24.5972V28.5972C119.522 28.5972 121.87 27.7682 123.905 26.1449L121.411 23.0176ZM116.93 24.5972C115.486 24.5972 114.351 24.2962 113.449 23.7764L111.452 27.2421C113.067 28.173 114.918 28.5972 116.93 28.5972V24.5972ZM113.471 23.7891C112.54 23.2372 111.829 22.4833 111.315 21.4879L107.761 23.3225C108.613 24.9724 109.843 26.2879 111.43 27.2293L113.471 23.7891ZM111.321 21.4995C110.806 20.4844 110.514 19.2375 110.514 17.7012H106.514C106.514 19.7489 106.905 21.638 107.755 23.311L111.321 21.4995ZM110.514 17.7012C110.514 16.1668 110.805 14.8878 111.333 13.8166L107.744 12.0499C106.906 13.752 106.514 15.6517 106.514 17.7012H110.514ZM111.333 13.8166C111.856 12.7532 112.573 11.9691 113.492 11.4085L111.409 7.99394C109.81 8.96939 108.586 10.34 107.744 12.0499L111.333 13.8166ZM113.513 11.3956C114.416 10.8293 115.5 10.5172 116.834 10.5172V6.51722C114.841 6.51722 113.002 6.99449 111.388 8.00684L113.513 11.3956ZM138.81 26.0532V28.0532H140.81V26.0532H138.81ZM134.426 26.0532L132.437 26.261L132.624 28.0532H134.426V26.0532ZM134.202 23.9092L136.191 23.7014L135.629 18.3223L132.556 22.7728L134.202 23.9092ZM125.498 25.1892L123.968 26.4764L123.976 26.4865L123.985 26.4965L125.498 25.1892ZM124.314 9.06122V7.06122H122.314V9.06122H124.314ZM129.37 9.06122H131.37V7.06122H129.37V9.06122ZM129.754 22.3732L128.154 23.5732L128.197 23.6297L128.243 23.6831L129.754 22.3732ZM133.754 20.8692L135.484 21.8735L135.754 21.4078V20.8692H133.754ZM133.754 9.06122V7.06122H131.754V9.06122H133.754ZM138.81 9.06122H140.81V7.06122H138.81V9.06122ZM138.81 24.0532H134.426V28.0532H138.81V24.0532ZM136.415 25.8454L136.191 23.7014L132.213 24.117L132.437 26.261L136.415 25.8454ZM132.556 22.7728C131.697 24.0182 130.598 24.5972 129.05 24.5972V28.5972C131.898 28.5972 134.233 27.3842 135.848 25.0456L132.556 22.7728ZM129.05 24.5972C127.914 24.5972 127.349 24.2723 127.012 23.882L123.985 26.4965C125.269 27.9835 127.072 28.5972 129.05 28.5972V24.5972ZM127.029 23.902C126.639 23.4386 126.314 22.6433 126.314 21.2532H122.314C122.314 23.2339 122.779 25.0625 123.968 26.4764L127.029 23.902ZM126.314 21.2532V9.06122H122.314V21.2532H126.314ZM124.314 11.0612H129.37V7.06122H124.314V11.0612ZM127.37 9.06122V20.6132H131.37V9.06122H127.37ZM127.37 20.6132C127.37 21.5298 127.487 22.6842 128.154 23.5732L131.354 21.1732C131.454 21.3056 131.446 21.3704 131.42 21.2509C131.396 21.1396 131.37 20.9364 131.37 20.6132H127.37ZM128.243 23.6831C129.01 24.5678 130.059 24.8532 131.002 24.8532V20.8532C130.913 20.8532 130.923 20.8398 130.992 20.8665C131.028 20.8804 131.075 20.9033 131.127 20.9388C131.178 20.9747 131.226 21.0172 131.266 21.0634L128.243 23.6831ZM131.002 24.8532C133.068 24.8532 134.53 23.5167 135.484 21.8735L132.025 19.865C131.443 20.867 131.07 20.8532 131.002 20.8532V24.8532ZM135.754 20.8692V9.06122H131.754V20.8692H135.754ZM133.754 11.0612H138.81V7.06122H133.754V11.0612ZM136.81 9.06122V26.0532H140.81V9.06122H136.81ZM153.699 8.80522L155.673 9.12774L155.958 7.38084L154.259 6.88522L153.699 8.80522ZM152.899 13.7012L152.444 15.6489L154.528 16.135L154.873 14.0237L152.899 13.7012ZM149.059 14.5332L147.465 13.3255L147.459 13.3332L149.059 14.5332ZM147.843 17.6372L145.888 17.2161L145.843 17.4243V17.6372H147.843ZM147.843 26.0532V28.0532H149.843V26.0532H147.843ZM142.787 26.0532H140.787V28.0532H142.787V26.0532ZM142.787 9.06122V7.06122H140.787V9.06122H142.787ZM147.203 9.06122L149.187 8.81078L148.966 7.06122H147.203V9.06122ZM147.619 12.3572L145.634 12.6077L149.52 12.9793L147.619 12.3572ZM149.347 9.60522L150.652 11.1208L150.655 11.1179L149.347 9.60522ZM152.003 10.5812C152.461 10.5812 152.835 10.6366 153.139 10.7252L154.259 6.88522C153.538 6.67514 152.781 6.58122 152.003 6.58122V10.5812ZM151.725 8.4827L150.925 13.3787L154.873 14.0237L155.673 9.12774L151.725 8.4827ZM153.353 11.7535C152.653 11.5903 151.97 11.4772 151.363 11.4772V15.4772C151.523 15.4772 151.864 15.5135 152.444 15.6489L153.353 11.7535ZM151.363 11.4772C149.831 11.4772 148.431 12.0501 147.465 13.3255L150.653 15.7409C150.753 15.6083 150.89 15.4772 151.363 15.4772V11.4772ZM147.459 13.3332C146.695 14.3509 146.212 15.7105 145.888 17.2161L149.798 18.0583C150.071 16.7906 150.398 16.0809 150.659 15.7332L147.459 13.3332ZM145.843 17.6372V26.0532H149.843V17.6372H145.843ZM147.843 24.0532H142.787V28.0532H147.843V24.0532ZM144.787 26.0532V9.06122H140.787V26.0532H144.787ZM142.787 11.0612H147.203V7.06122H142.787V11.0612ZM145.218 9.31166L145.634 12.6077L149.603 12.1068L149.187 8.81078L145.218 9.31166ZM149.52 12.9793C149.815 12.0769 150.215 11.4971 150.652 11.1208L148.042 8.08968C146.943 9.03601 146.191 10.2909 145.718 11.7351L149.52 12.9793ZM150.655 11.1179C151.106 10.7279 151.534 10.5812 152.003 10.5812V6.58122C150.509 6.58122 149.166 7.11717 148.038 8.0925L150.655 11.1179ZM160.686 9.06122H162.686V7.06122H160.686V9.06122ZM160.686 26.0532V28.0532H162.686V26.0532H160.686ZM155.63 26.0532H153.63V28.0532H155.63V26.0532ZM155.63 9.06122V7.06122H153.63V9.06122H155.63ZM160.27 0.933222L158.856 2.34743L158.883 2.37462L158.912 2.40074L160.27 0.933222ZM160.27 5.06122L161.657 6.50289L161.658 6.50186L160.27 5.06122ZM155.982 5.06122L154.568 6.47544L154.582 6.4893L154.596 6.50289L155.982 5.06122ZM155.982 0.933222L157.369 2.37489L157.383 2.3613L157.397 2.34743L155.982 0.933222ZM158.686 9.06122V26.0532H162.686V9.06122H158.686ZM160.686 24.0532H155.63V28.0532H160.686V24.0532ZM157.63 26.0532V9.06122H153.63V26.0532H157.63ZM155.63 11.0612H160.686V7.06122H155.63V11.0612ZM158.126 2.10122C158.538 2.10122 158.721 2.21257 158.856 2.34743L161.685 -0.480991C160.71 -1.45546 159.465 -1.89878 158.126 -1.89878V2.10122ZM158.912 2.40074C159.052 2.53082 159.134 2.66885 159.134 2.98122H163.134C163.134 1.62959 162.641 0.402293 161.629 -0.5343L158.912 2.40074ZM159.134 2.98122C159.134 3.29438 159.05 3.45971 158.883 3.62058L161.658 6.50186C162.643 5.5534 163.134 4.33206 163.134 2.98122H159.134ZM158.884 3.61955C158.754 3.74496 158.561 3.86122 158.126 3.86122V7.86122C159.442 7.86122 160.678 7.44415 161.657 6.50289L158.884 3.61955ZM158.126 3.86122C157.692 3.86122 157.499 3.74496 157.369 3.61956L154.596 6.50289C155.575 7.44415 156.811 7.86122 158.126 7.86122V3.86122ZM157.397 3.64701C157.242 3.49193 157.15 3.3185 157.15 2.98122H153.15C153.15 4.30795 153.614 5.52118 154.568 6.47544L157.397 3.64701ZM157.15 2.98122C157.15 2.64415 157.24 2.49841 157.369 2.37489L154.596 -0.508445C153.615 0.434695 153.15 1.65429 153.15 2.98122H157.15ZM157.397 2.34743C157.532 2.21257 157.715 2.10122 158.126 2.10122V-1.89878C156.788 -1.89878 155.543 -1.45546 154.568 -0.480991L157.397 2.34743ZM175.318 25.2532L176.453 26.8996L177.918 25.8892L177.085 24.3166L175.318 25.2532ZM173.142 26.2452L172.599 24.3203L172.586 24.3241L173.142 26.2452ZM170.71 26.5972L170.698 28.5972H170.71V26.5972ZM165.142 12.5812H167.142V10.5812H165.142V12.5812ZM162.742 12.5812H160.742V14.5812H162.742V12.5812ZM162.742 9.06122V7.06122H160.742V9.06122H162.742ZM165.142 9.06122V11.0612H167.142V9.06122H165.142ZM165.142 5.38122L164.915 3.39408L163.142 3.59613V5.38122H165.142ZM170.198 4.80522H172.198V2.56444L169.971 2.81808L170.198 4.80522ZM170.198 9.06122H168.198V11.0612H170.198V9.06122ZM174.102 9.06122L176.078 9.36669L176.435 7.06122H174.102V9.06122ZM173.558 12.5812V14.5812H175.272L175.534 12.8867L173.558 12.5812ZM170.198 12.5812V10.5812H168.198V12.5812H170.198ZM170.582 22.0852L172.182 20.8852L170.582 22.0852ZM173.622 22.0532L175.389 21.1166L174.426 19.299L172.636 20.3132L173.622 22.0532ZM174.182 23.6068C173.769 23.8915 173.251 24.1365 172.599 24.3203L173.685 28.1701C174.697 27.8846 175.629 27.4682 176.453 26.8996L174.182 23.6068ZM172.586 24.3241C171.948 24.5086 171.325 24.5972 170.71 24.5972V28.5972C171.716 28.5972 172.714 28.4512 173.698 28.1664L172.586 24.3241ZM170.721 24.5973C169.225 24.5887 168.451 24.1822 168.016 23.7022C167.549 23.1873 167.142 22.225 167.142 20.4532H163.142C163.142 22.7561 163.662 24.8552 165.052 26.3883C166.473 27.9562 168.483 28.5845 170.698 28.5972L170.721 24.5973ZM167.142 20.4532V12.5812H163.142V20.4532H167.142ZM165.142 10.5812H162.742V14.5812H165.142V10.5812ZM164.742 12.5812V9.06122H160.742V12.5812H164.742ZM162.742 11.0612H165.142V7.06122H162.742V11.0612ZM167.142 9.06122V5.38122H163.142V9.06122H167.142ZM165.368 7.36837L170.424 6.79237L169.971 2.81808L164.915 3.39408L165.368 7.36837ZM168.198 4.80522V9.06122H172.198V4.80522H168.198ZM170.198 11.0612H174.102V7.06122H170.198V11.0612ZM172.125 8.75576L171.581 12.2758L175.534 12.8867L176.078 9.36669L172.125 8.75576ZM173.558 10.5812H170.198V14.5812H173.558V10.5812ZM168.198 12.5812V20.3892H172.198V12.5812H168.198ZM168.198 20.3892C168.198 21.2919 168.324 22.4083 168.982 23.2852L172.182 20.8852C172.272 21.0052 172.267 21.0645 172.244 20.9636C172.223 20.8672 172.198 20.6848 172.198 20.3892H168.198ZM168.982 23.2852C169.724 24.2753 170.82 24.5972 171.798 24.5972V20.5972C171.72 20.5972 171.756 20.5846 171.854 20.626C171.967 20.6738 172.09 20.7632 172.182 20.8852L168.982 23.2852ZM171.798 24.5972C172.802 24.5972 173.749 24.2801 174.608 23.7933L172.636 20.3132C172.215 20.5517 171.945 20.5972 171.798 20.5972V24.5972ZM171.855 22.9898L173.551 26.1898L177.085 24.3166L175.389 21.1166L171.855 22.9898ZM186.225 26.0852L184.319 25.4797L184.315 25.4918L186.225 26.0852ZM182.865 31.1412L181.662 29.5439L181.649 29.5531L181.637 29.5625L182.865 31.1412ZM176.657 33.1572L174.68 33.46L174.956 35.2581L176.772 35.1539L176.657 33.1572ZM176.113 29.6052L175.852 27.6223L173.827 27.8888L174.136 29.908L176.113 29.6052ZM179.697 28.5172L178.609 26.8393L178.598 26.8461L178.588 26.8531L179.697 28.5172ZM181.585 26.0532L183.432 26.82L184.581 24.0532H181.585V26.0532ZM179.857 26.0532L177.944 26.6368L178.376 28.0532H179.857V26.0532ZM174.673 9.06122V7.06122H171.972L172.76 9.64484L174.673 9.06122ZM180.049 9.06122L182.002 8.62977L181.656 7.06122H180.049V9.06122ZM183.089 22.8212L181.136 23.2527L185.033 23.2914L183.089 22.8212ZM186.417 9.06122V7.06122H184.843L184.473 8.59106L186.417 9.06122ZM191.633 9.06122L193.539 9.66674L194.367 7.06122H191.633V9.06122ZM184.315 25.4918C183.734 27.3629 182.827 28.6659 181.662 29.5439L184.069 32.7386C186.018 31.2699 187.351 29.2022 188.135 26.6786L184.315 25.4918ZM181.637 29.5625C180.514 30.4364 178.876 31.0267 176.543 31.1605L176.772 35.1539C179.644 34.9891 182.145 34.2354 184.093 32.7199L181.637 29.5625ZM178.634 32.8544L178.09 29.3024L174.136 29.908L174.68 33.46L178.634 32.8544ZM176.374 31.5881C178.099 31.3612 179.657 30.9476 180.807 30.1813L178.588 26.8531C178.201 27.1108 177.37 27.4226 175.852 27.6223L176.374 31.5881ZM180.786 30.1951C182.003 29.4055 182.854 28.2126 183.432 26.82L179.738 25.2865C179.377 26.1552 178.97 26.605 178.609 26.8393L180.786 30.1951ZM181.585 24.0532H179.857V28.0532H181.585V24.0532ZM181.77 25.4696L176.586 8.47761L172.76 9.64484L177.944 26.6368L181.77 25.4696ZM174.673 11.0612H180.049V7.06122H174.673V11.0612ZM178.096 9.49268L181.136 23.2527L185.042 22.3898L182.002 8.62977L178.096 9.49268ZM185.033 23.2914L188.361 9.53139L184.473 8.59106L181.145 22.3511L185.033 23.2914ZM186.417 11.0612H191.633V7.06122H186.417V11.0612ZM189.727 8.4557L184.319 25.4797L188.131 26.6907L193.539 9.66674L189.727 8.4557Z" fill="white" mask="url(#path-1-outside-1_3510_75441)"/>
</svg>
