<svg width="17" height="17" viewBox="0 0 17 17" fill="none" xmlns="http://www.w3.org/2000/svg">
<path d="M6.51042 4.74703C5.67526 5.62131 6.17314 7.28417 7.34557 7.54131C7.79526 7.64417 7.82738 7.6956 7.65072 7.96989C7.45799 8.24417 7.39375 8.24417 6.87981 8.00417C6.23739 7.72989 5.62708 7.02703 5.32193 6.23846C5.20951 5.94703 4.9686 5.6556 4.80799 5.60417C4.37436 5.44989 3.63557 5.8956 3.57133 6.32417C3.50709 6.83846 6.51042 13.1299 7.02435 13.5756C7.37769 13.867 7.68284 13.9185 9.17647 13.9185C10.6219 13.9185 10.9271 13.867 10.9271 13.6613C10.9271 13.4556 10.638 13.4042 9.22465 13.4042H7.53829L7.8595 12.9242C8.8392 11.5013 8.88738 11.467 9.8992 11.4499C10.9592 11.4327 11.8425 11.7585 11.955 12.187C11.9871 12.3413 12.0674 12.7185 12.1316 13.027C12.228 13.5242 12.2119 13.5756 11.8265 13.5756C11.6016 13.5756 11.4089 13.6442 11.4089 13.747C11.4089 13.8327 11.714 13.9185 12.0674 13.9185H12.7259L12.6295 13.1642C12.5331 12.4956 12.5492 12.3927 12.8543 12.2899C13.3683 12.1185 13.2398 11.4842 12.5813 10.7985C11.8747 10.0785 11.3125 9.80417 10.4774 9.80417C10.1562 9.80417 9.77071 9.71846 9.64223 9.63274C9.46556 9.51274 9.72253 9.46131 10.4774 9.46131C11.4892 9.46131 11.5695 9.42703 11.6659 9.04989C11.8586 8.1756 11.5534 7.96989 9.70647 7.72989C8.11647 7.54131 8.02011 7.50703 8.42163 7.28417C9.25678 6.82131 9.41738 5.68989 8.74284 4.84988C8.3895 4.40417 8.21284 4.31846 7.6186 4.31846C7.07254 4.31846 6.79951 4.42131 6.51042 4.74703ZM8.40556 5.20988C8.80708 5.70703 8.74284 6.28989 8.26102 6.70131C7.74708 7.12989 7.42587 7.14703 6.94405 6.78703C6.59072 6.52989 6.46223 5.6556 6.7192 5.24417C7.10466 4.60989 7.90769 4.59274 8.40556 5.20988ZM5.0489 6.82131C5.27375 7.26703 5.46648 7.64417 5.46648 7.67846C5.46648 7.71274 5.25769 7.74703 5.01678 7.74703C4.63133 7.74703 4.50284 7.62703 4.26193 7.04417C4.00496 6.44417 3.9889 6.32417 4.19769 6.18703C4.55102 5.94703 4.61527 5.98131 5.0489 6.82131ZM6.76738 8.50131C7.8595 9.0156 8.19678 9.42703 8.37344 10.4213C8.51799 11.2442 8.42163 11.467 7.21708 12.9585C7.12072 13.0785 4.82405 8.50131 4.82405 8.1756C4.82405 7.9356 6.01254 8.14131 6.76738 8.50131ZM10.0437 8.27846C10.8468 8.4156 11.2483 8.55274 11.2483 8.70703C11.2483 8.86131 10.9271 8.94703 10.0919 8.98131C8.79102 9.03274 8.61435 9.22131 9.22465 9.88989C9.54587 10.2156 9.78678 10.3185 10.365 10.3185C11.2162 10.3185 11.8907 10.6442 12.3565 11.2785C12.8062 11.8956 12.6777 11.9813 12.0674 11.5013C11.6819 11.2099 11.2965 11.107 10.2847 11.0385C9.51375 10.987 8.95162 10.8842 8.9195 10.7642C8.88738 10.6613 8.82314 10.3013 8.77496 9.95846C8.71072 9.6156 8.50193 9.1356 8.3092 8.91274C7.58647 8.08989 7.95587 7.95274 10.0437 8.27846Z" fill="#127384" stroke="#127384" stroke-width="0.3"/>
</svg>
