<svg width="16" height="17" viewBox="0 0 16 17" fill="none" xmlns="http://www.w3.org/2000/svg">
<path d="M7.99967 12.0422L8.66634 10.7089V7.2809C9.81367 6.9829 10.6663 5.94757 10.6663 4.7089C10.6663 3.23824 9.47034 2.04224 7.99967 2.04224C6.52901 2.04224 5.33301 3.23824 5.33301 4.7089C5.33301 5.94757 6.18567 6.9829 7.33301 7.2809V10.7089L7.99967 12.0422ZM6.66634 4.7089C6.66634 3.97357 7.26434 3.37557 7.99967 3.37557C8.73501 3.37557 9.33301 3.97357 9.33301 4.7089C9.33301 5.44424 8.73501 6.04224 7.99967 6.04224C7.26434 6.04224 6.66634 5.44424 6.66634 4.7089Z" fill="#127384"/>
<path d="M10.8443 7.75091L10.489 9.03624C12.2163 9.51358 13.333 10.4316 13.333 11.3756C13.333 12.6369 11.143 14.0422 7.99967 14.0422C4.85634 14.0422 2.66634 12.6369 2.66634 11.3756C2.66634 10.4316 3.78301 9.51358 5.51101 9.03558L5.15567 7.75024C2.79767 8.40224 1.33301 9.79091 1.33301 11.3756C1.33301 13.6182 4.26167 15.3756 7.99967 15.3756C11.7377 15.3756 14.6663 13.6182 14.6663 11.3756C14.6663 9.79091 13.2017 8.40224 10.8443 7.75091Z" fill="#127384"/>
</svg>
