<svg width="17" height="17" viewBox="0 0 17 17" fill="none" xmlns="http://www.w3.org/2000/svg">
<path d="M13.7507 4.0589L8.48532 2.08423L8.01665 3.3329L9.90665 4.04223H2.91732C2.18198 4.04223 1.58398 4.64023 1.58398 5.37556V13.3756C1.58398 14.1109 2.18198 14.7089 2.91732 14.7089H13.584C14.3193 14.7089 14.9173 14.1109 14.9173 13.3756V5.37556C14.9173 4.6969 14.406 4.14223 13.7507 4.0589ZM2.91732 13.3756V8.7089H13.584V7.37556H2.91732V5.37556H13.584L13.5847 13.3756H2.91732Z" fill="#127384"/>
<path d="M11.2507 12.7091C12.1711 12.7091 12.9173 11.9629 12.9173 11.0424C12.9173 10.1219 12.1711 9.37573 11.2507 9.37573C10.3302 9.37573 9.58398 10.1219 9.58398 11.0424C9.58398 11.9629 10.3302 12.7091 11.2507 12.7091Z" fill="#127384"/>
<path d="M4.25 10.709H7.58267V12.0423H4.25V10.709Z" fill="#127384"/>
</svg>
