<svg width="17" height="17" viewBox="0 0 17 17" fill="none" xmlns="http://www.w3.org/2000/svg">
<path d="M8.50065 2.04224C4.88665 2.04224 1.83398 5.09557 1.83398 8.7089C1.83398 12.3222 4.88665 15.3756 8.50065 15.3756C12.1147 15.3756 15.1673 12.3222 15.1673 8.7089C15.1673 5.09557 12.1147 2.04224 8.50065 2.04224ZM8.50065 14.0422C5.60932 14.0422 3.16732 11.5996 3.16732 8.7089C3.16732 6.04357 5.24398 3.76424 7.83398 3.42424V4.7689C5.94532 5.08824 4.50065 6.7309 4.50065 8.7089C4.50065 10.9149 6.29465 12.7089 8.50065 12.7089C9.56398 12.7089 10.5673 12.2916 11.3253 11.5336L10.3827 10.5902C10.1365 10.8391 9.84337 11.0366 9.52033 11.1714C9.19728 11.3062 8.8507 11.3756 8.50065 11.3756C7.02998 11.3756 5.83398 10.1796 5.83398 8.7089C5.83398 7.47024 6.68665 6.4349 7.83398 6.1369V7.56757C7.44065 7.8029 7.16732 8.22957 7.16732 8.7089C7.16732 9.42957 7.77998 10.0422 8.50065 10.0422C9.22132 10.0422 9.83398 9.42957 9.83398 8.7089C9.83398 8.22957 9.56065 7.8029 9.16732 7.56757V3.42424C11.7573 3.76424 13.834 6.04357 13.834 8.7089C13.834 11.5996 11.392 14.0422 8.50065 14.0422Z" fill="#127384"/>
</svg>
