<svg width="21" height="20" viewBox="0 0 21 20" fill="none" xmlns="http://www.w3.org/2000/svg">
<path d="M9.80224 4.93259C8.68539 5.05923 7.6261 5.49524 6.74371 6.19149L7.50741 6.95613C7.6305 7.08822 7.6975 7.26293 7.69432 7.44345C7.69113 7.62397 7.618 7.79621 7.49034 7.92388C7.36267 8.05154 7.19043 8.12467 7.00991 8.12786C6.82939 8.13104 6.65468 8.06404 6.52258 7.94095L5.75516 7.17446C5.10293 7.99256 4.67856 8.96855 4.52506 10.0035H6.08592C6.27072 10.0035 6.44796 10.0769 6.57864 10.2076C6.70931 10.3383 6.78273 10.5155 6.78273 10.7003C6.78273 10.8851 6.70931 11.0624 6.57864 11.193C6.44796 11.3237 6.27072 11.3971 6.08592 11.3971H4.48325C4.62791 12.8882 5.30939 14.2759 6.40088 15.3021C6.53252 15.4292 6.60885 15.6031 6.61337 15.786C6.61789 15.969 6.55024 16.1464 6.42503 16.2799C6.29983 16.4134 6.12712 16.4923 5.94424 16.4995C5.76135 16.5067 5.58297 16.4417 5.44764 16.3185C4.01686 14.9778 3.06641 13.0007 3.06641 10.8796C3.06641 6.79911 6.39902 3.49995 10.499 3.49995C14.5991 3.49995 17.9317 6.79818 17.9317 10.8796C17.9299 11.898 17.7209 12.9053 17.3174 13.8403C16.9139 14.7753 16.3245 15.6185 15.5848 16.3185C15.4495 16.4417 15.2711 16.5067 15.0882 16.4995C14.9053 16.4923 14.7326 16.4134 14.6074 16.2799C14.4822 16.1464 14.4146 15.969 14.4191 15.786C14.4236 15.6031 14.5 15.4292 14.6316 15.3021C15.7155 14.2742 16.3857 12.8852 16.5158 11.3971H14.9122C14.7274 11.3971 14.5501 11.3237 14.4195 11.193C14.2888 11.0624 14.2154 10.8851 14.2154 10.7003C14.2154 10.5155 14.2888 10.3383 14.4195 10.2076C14.5501 10.0769 14.7274 10.0035 14.9122 10.0035H16.473C16.0791 7.34077 13.9153 5.24197 11.1959 4.93259V6.05492C11.1959 6.23972 11.1224 6.41696 10.9918 6.54764C10.8611 6.67831 10.6839 6.75173 10.499 6.75173C10.3142 6.75173 10.137 6.67831 10.0063 6.54764C9.87565 6.41696 9.80224 6.23972 9.80224 6.05492V4.93259ZM13.7034 7.03696C13.7879 6.9699 13.893 6.9343 14.0008 6.93626C14.1086 6.93822 14.2123 6.97761 14.2943 7.04769C14.3762 7.11776 14.4312 7.21415 14.4499 7.32034C14.4685 7.42653 14.4497 7.5359 14.3965 7.62971L14.2943 7.81181C13.9207 8.47155 13.5447 9.12997 13.1664 9.78703C12.864 10.3128 12.5574 10.8362 12.2466 11.3572C12.1302 11.5532 12.0113 11.7477 11.8899 11.9406C11.797 12.0865 11.7059 12.2249 11.639 12.303C11.399 12.5841 11.0572 12.7584 10.6887 12.7875C10.3202 12.8166 9.95518 12.6981 9.67403 12.4581C9.39288 12.2181 9.21858 11.8763 9.18948 11.5078C9.16038 11.1393 9.27887 10.7743 9.51887 10.4931C9.58576 10.4151 9.70747 10.3027 9.83754 10.1884C9.97691 10.0648 10.1562 9.91339 10.3578 9.74337C10.7629 9.40518 11.2702 8.99081 11.7645 8.59131C12.354 8.11441 12.9455 7.63995 13.539 7.16796L13.7034 7.03789V7.03696Z" fill="white"/>
</svg>
