<svg width="21" height="20" viewBox="0 0 21 20" fill="none" xmlns="http://www.w3.org/2000/svg">
<path d="M10.4992 3.80005C7.07496 3.80005 4.29922 6.57579 4.29922 10C4.29922 13.4243 7.07496 16.2 10.4992 16.2C13.9235 16.2 16.6992 13.4243 16.6992 10C16.6992 6.57579 13.9235 3.80005 10.4992 3.80005ZM12.9792 10.62L15.4208 10.6207C15.2826 11.7132 14.785 12.7288 14.0062 13.5075C13.2275 14.2861 12.2118 14.7836 11.1192 14.9216V12.48C11.6125 12.48 12.0856 12.2841 12.4344 11.9353C12.7833 11.5865 12.9792 11.1134 12.9792 10.62ZM5.57766 10.6207L8.01922 10.62C8.01922 11.1134 8.21518 11.5865 8.564 11.9353C8.91282 12.2841 9.38592 12.48 9.87922 12.48L9.8786 14.9216C8.78612 14.7835 7.7706 14.286 6.99195 13.5073C6.21331 12.7287 5.71576 11.7131 5.57766 10.6207ZM10.4992 5.04005C11.7074 5.04007 12.874 5.48098 13.7801 6.28005C14.6862 7.07912 15.2696 8.1814 15.4208 9.38005H12.9792C12.9792 9.21561 12.9139 9.05792 12.7976 8.94164C12.6814 8.82537 12.5237 8.76005 12.3592 8.76005H8.63922C8.47478 8.76005 8.31709 8.82537 8.20081 8.94164C8.08454 9.05792 8.01922 9.21561 8.01922 9.38005H5.57766C5.72881 8.1814 6.31219 7.07912 7.21834 6.28005C8.12448 5.48098 9.29108 5.04007 10.4992 5.04005Z" fill="white"/>
</svg>
