<svg width="21" height="20" viewBox="0 0 21 20" fill="none" xmlns="http://www.w3.org/2000/svg">
<path d="M7.16797 14C7.16797 14 5.16797 8.66667 5.16797 6C5.16797 3.33333 6.5013 3.33333 6.5013 3.33333H7.16797C7.16797 3.33333 7.83464 3.33333 7.83464 4C7.83464 4.66667 7.16797 4.66667 7.16797 6C7.16797 7.33333 9.16797 8.66667 9.16797 10.6667C9.16797 12.6667 7.16797 14 7.16797 14ZM10.5013 13.3333C9.83464 13.3333 7.83464 15 7.83464 15C7.63464 15.1333 7.7013 15.3333 7.83464 15.5333C7.83464 15.5333 8.5013 16.7333 9.83464 16.7333H13.8346C14.568 16.7333 15.168 16.1333 15.168 15.4V14.7333C15.168 14 14.568 13.4 13.8346 13.4H10.5013V13.3333Z" fill="white"/>
</svg>
