<svg width="139" height="71" viewBox="0 0 139 71" fill="none" xmlns="http://www.w3.org/2000/svg">
<path d="M29.8615 -29.8668C16.25 -27.9733 5.32353 -19.0335 1.10196 -6.30671C0.0776026 -3.23365 0 -2.58179 0 3.03664C0.0155205 10.4554 0.341451 12.0385 3.01098 17.5483C4.93552 21.506 6.99975 24.4239 9.96417 27.3573C12.5561 29.9182 15.4895 32.0134 18.935 33.7362C24.243 36.3902 29.0854 37.5077 36.4111 37.7405C39.3134 37.8336 39.7946 37.8802 39.8567 38.0975C40.5861 40.5187 40.2447 44.166 38.8789 48.8532C37.5596 53.3231 35.6506 57.8706 32.2206 64.6531C30.8237 67.4312 29.5821 69.9611 29.4579 70.2715C29.2717 70.8147 29.2717 70.8613 29.5355 70.8613C30.2029 70.8613 33.1518 68.6418 37.1561 65.1497C47.648 55.9771 56.774 44.3678 62.7649 32.6032C66.5209 25.1999 68.9576 17.8898 70.0906 10.6106C70.5562 7.58415 70.6028 1.06553 70.1682 -1.54192C69.0197 -8.46406 66.3812 -13.5238 61.1353 -18.7852C55.0668 -24.8848 48.4706 -28.2217 39.717 -29.6496C37.9011 -29.9289 31.429 -30.0841 29.8615 -29.8668Z" fill="#151515" fill-opacity="0.1"/>
<path d="M112.275 -29.9289C112.058 -29.8979 111.266 -29.7892 110.49 -29.6961C107.247 -29.2926 103.429 -28.0975 100.092 -26.4523C96.3046 -24.5743 93.4023 -22.448 90.3758 -19.375C85.4403 -14.2998 82.4914 -8.43301 81.4825 -1.61951C80.2874 6.57532 82.0413 14.5839 86.4956 21.2888C90.4068 27.1555 94.706 30.9736 100.868 34.0001C105.989 36.5299 110.428 37.5077 117.832 37.7405L121.246 37.8491L121.448 39.1218C122.255 44.5385 119.849 52.2677 113.408 65.0876C111.934 68.021 110.723 70.5198 110.723 70.644C110.723 70.9854 111.049 70.9078 112.104 70.2715C114.246 69.0143 118.701 65.1963 123.357 60.6177C138.008 46.2147 148.5 27.9781 151.216 12.1937C151.744 9.10516 151.899 7.2427 151.899 4.04548C151.899 -5.68588 148.888 -12.8253 141.981 -19.4681C136.006 -25.2107 127.966 -28.9511 119.539 -29.8513C118.142 -30.0065 113.175 -30.0531 112.275 -29.9289Z" fill="#151515" fill-opacity="0.1"/>
</svg>
