<svg width="16" height="16" viewBox="0 0 16 16" fill="none" xmlns="http://www.w3.org/2000/svg">
<path d="M7.52578 0.95354V1.90666H7.01641C6.73828 1.90666 6.38828 1.92229 6.24453 1.93791C4.62578 2.13479 3.18516 2.83479 2.04141 3.98166C0.919531 5.10979 0.250781 6.46604 0.0382813 8.03166C-0.0179688 8.45354 -0.0179688 9.42229 0.0382813 9.84416C0.313281 11.8879 1.42891 13.6723 3.16641 14.841C4.05078 15.4348 5.13516 15.8317 6.24453 15.9692C6.58203 16.0098 7.52578 16.0098 7.86953 15.9692C8.85391 15.8504 9.86953 15.4973 10.6945 14.9942C12.2664 14.0348 13.4195 12.4879 13.8664 10.741C14.0258 10.1254 14.0633 9.83791 14.0789 9.13479L14.0945 8.46916H15.0477H16.0039L15.9852 7.75667C15.9664 7.00979 15.9195 6.65666 15.7664 6.04416C15.4883 4.95979 14.9977 3.96291 14.2852 3.04729C13.5664 2.12229 12.6008 1.34729 11.5102 0.812915C10.3664 0.250415 9.30391 0.000414848 8.06953 0.000414848H7.52578V0.95354ZM9.13516 1.05042C11.7445 1.47229 13.9352 3.39104 14.7258 5.94104C14.8695 6.40666 15.0258 7.21291 15.0258 7.49104C15.0258 7.52229 14.8133 7.53166 14.0102 7.53166H12.9977L12.9633 7.39729C12.5914 5.92854 11.6102 4.59416 10.2914 3.76604C9.80078 3.45667 9.13203 3.16604 8.59766 3.03166L8.46328 2.99729V1.98166V0.962914L8.66016 0.98479C8.76641 0.994164 8.98203 1.02541 9.13516 1.05042ZM7.34766 2.87541H7.52578V3.34416V3.80979L7.64453 3.82854C7.70703 3.84104 7.89766 3.87854 8.06641 3.90979C9.65391 4.22229 10.9945 5.27541 11.7008 6.76604C11.9227 7.22854 12.0445 7.65666 12.1664 8.35041L12.1852 8.46916H12.6508H13.1195L13.1227 8.69416C13.1258 9.23167 13.1133 9.52229 13.0695 9.80666C12.6727 12.4942 10.582 14.5848 7.90078 14.9848C7.52891 15.041 6.70078 15.0504 6.33203 15.0035C5.18203 14.8535 4.05703 14.366 3.18203 13.641C2.00078 12.6567 1.23828 11.3035 1.01016 9.78166C0.944531 9.35041 0.944531 8.52541 1.01016 8.09416C1.39766 5.49729 3.35391 3.46291 5.94141 2.96604C6.27578 2.90041 6.97266 2.84104 7.10391 2.86292C7.13828 2.86916 7.24766 2.87541 7.34766 2.87541Z" fill="#0A152F"/>
<path d="M6.31025 4.76917C6.1665 4.79417 5.904 4.86292 5.72588 4.92229C5.06963 5.14104 4.579 5.44729 4.07275 5.95354C3.24463 6.77854 2.83838 7.75979 2.83838 8.93792C2.83838 9.45042 2.89775 9.84729 3.04463 10.2817C3.4665 11.5473 4.4665 12.541 5.73838 12.9567C6.53838 13.2192 7.48525 13.2285 8.30713 12.9817C9.58838 12.5942 10.6509 11.5535 11.0728 10.2692C11.2196 9.82229 11.2759 9.45042 11.2759 8.93792C11.2759 7.76292 10.8728 6.78479 10.0415 5.95042C9.404 5.31292 8.62588 4.90667 7.77588 4.76604C7.41025 4.70667 6.66963 4.70979 6.31025 4.76917ZM6.58838 6.15667V6.59417H7.05713H7.52588V6.15667C7.52588 5.65042 7.49463 5.68167 7.88838 5.78167C8.13525 5.84729 8.754 6.13167 8.90088 6.24729L8.979 6.30979L8.6665 6.62542L8.354 6.93792L8.70713 7.28792L9.05713 7.64104L9.36963 7.32854L9.68525 7.01604L9.74775 7.09417C9.86338 7.24104 10.1478 7.85979 10.2134 8.10667C10.3134 8.50042 10.3446 8.46917 9.83838 8.46917H9.40088V8.93792V9.40667H9.83838C10.3446 9.40667 10.3134 9.37542 10.2134 9.76917C10.1478 10.016 9.86338 10.6348 9.74775 10.7817L9.68525 10.8598L9.36963 10.5473L9.05713 10.2348L8.70713 10.5879L8.354 10.9379L8.6665 11.2504L8.979 11.566L8.90088 11.6285C8.754 11.7442 8.13525 12.0285 7.88838 12.0942C7.49463 12.1942 7.52588 12.2254 7.52588 11.7192V11.2817H7.05713H6.58838V11.7192C6.58838 12.2254 6.61963 12.1942 6.22588 12.0942C5.979 12.0285 5.36025 11.7442 5.21338 11.6285L5.13525 11.566L5.44775 11.2504L5.76025 10.9379L5.40713 10.5879L5.05713 10.2348L4.74463 10.5473L4.429 10.8598L4.3665 10.7817C4.25088 10.6348 3.9665 10.016 3.90088 9.76917C3.80088 9.37542 3.76963 9.40667 4.27588 9.40667H4.71338V8.93792V8.46917H4.27588C3.76963 8.46917 3.80088 8.50042 3.90088 8.10667C3.9665 7.85979 4.25088 7.24104 4.3665 7.09417L4.429 7.01604L4.74463 7.32854L5.05713 7.64104L5.40713 7.28792L5.76025 6.93792L5.44775 6.62542L5.13525 6.30979L5.21338 6.24729C5.354 6.13479 5.97588 5.84729 6.21338 5.78479C6.6165 5.67854 6.58838 5.64729 6.58838 6.15667Z" fill="#0A152F"/>
<path d="M6.56963 7.60349C5.98525 7.82537 5.65088 8.31287 5.65088 8.93787C5.65088 9.51912 5.93525 9.96912 6.46025 10.2285C6.66025 10.3254 6.68213 10.3285 7.05713 10.3285C7.43838 10.3285 7.454 10.3254 7.6665 10.2222C7.954 10.0816 8.20088 9.83474 8.3415 9.54724C8.44463 9.33474 8.44775 9.31912 8.44775 8.93787C8.44775 8.55662 8.44463 8.54099 8.3415 8.32849C8.20088 8.04099 7.954 7.79412 7.6665 7.65662C7.46338 7.55662 7.42275 7.54724 7.104 7.54099C6.80713 7.53162 6.73525 7.54099 6.56963 7.60349ZM7.29775 8.56287C7.56963 8.72537 7.55713 9.18162 7.279 9.32849C6.97275 9.48474 6.61963 9.27849 6.61963 8.94412C6.61963 8.67849 6.79463 8.50037 7.05713 8.50037C7.1415 8.50037 7.23838 8.52537 7.29775 8.56287Z" fill="#0A152F"/>
</svg>
