<svg width="17" height="16" viewBox="0 0 17 16" fill="none" xmlns="http://www.w3.org/2000/svg">
<path d="M4.28693 0.946286C4.00656 0.994626 3.77453 1.14287 3.43293 1.48769C3.15578 1.77129 3.12355 1.81641 3.12355 1.92276C3.12355 2.07744 3.21378 2.16768 3.36847 2.16768C3.47482 2.16768 3.51994 2.13545 3.79709 1.86475C4.12258 1.54893 4.19348 1.49736 4.38039 1.45547C4.57697 1.41035 4.75744 1.47803 5.09905 1.72295L5.41809 1.95176L3.42648 3.94337C2.33077 5.03908 1.4252 5.92531 1.41231 5.91242C1.32852 5.81896 1.02559 5.38713 0.983696 5.30334C0.912798 5.16476 0.919243 4.89083 0.993365 4.7297C1.03204 4.64591 1.38653 4.26886 1.99239 3.66622C2.86896 2.79288 2.93019 2.7252 2.93019 2.61885C2.93019 2.44161 2.85607 2.36104 2.69493 2.36104C2.55958 2.36104 2.55314 2.36426 1.58634 3.33428C0.422952 4.50411 0.43262 4.49122 0.43262 5.01974C0.43262 5.35168 0.439065 5.38713 0.5293 5.55793C0.584085 5.65783 0.893462 6.10256 1.22217 6.54729C1.85059 7.39807 1.90538 7.45286 2.08585 7.38518C2.13419 7.36585 2.25665 7.26917 2.35978 7.16926L2.54347 6.98557L2.66271 7.10481L2.78195 7.22405L2.61437 7.39807C1.98595 8.06517 1.72813 9.04486 1.9505 9.93431C2.02784 10.2469 2.28566 10.7561 2.49513 11.0075C2.83351 11.4103 3.3717 11.7583 3.84221 11.8808C3.94855 11.9066 4.03557 11.9324 4.03879 11.9388C4.04201 11.9453 4.07746 12.0484 4.11613 12.1741C4.1548 12.2965 4.24182 12.4931 4.30627 12.6059C4.47385 12.8863 4.85735 13.2408 5.14739 13.3826L5.37942 13.4954V13.9949C5.37942 14.4557 5.38586 14.5073 5.45676 14.662C5.63079 15.0326 6.09163 15.1776 6.46224 14.9842C6.56214 14.9327 6.79739 14.6845 6.79739 14.633C6.79739 14.6201 6.86507 14.6072 6.95208 14.6072C7.0971 14.6072 7.10999 14.6136 7.21634 14.7587C7.37425 14.9713 7.55472 15.0648 7.80931 15.0648C8.09291 15.068 8.34105 14.9262 8.46029 14.6942C8.50219 14.6169 8.52475 14.6072 8.66654 14.6072C8.80834 14.6072 8.8309 14.6169 8.87279 14.6942C8.99203 14.9262 9.24018 15.0648 9.52377 15.0648C9.77836 15.068 9.95883 14.9713 10.1167 14.7587C10.2231 14.6169 10.236 14.6072 10.381 14.6072C10.5067 14.6072 10.5389 14.6201 10.5711 14.6813C10.8418 15.2066 11.6282 15.1937 11.8763 14.662C11.9537 14.4944 11.9537 14.4847 11.9537 13.4793V12.4609L12.176 12.4061C12.3984 12.3481 12.7045 12.187 12.856 12.0484C12.9108 11.9968 12.9946 11.9678 13.1138 11.9517C13.4071 11.9195 13.6617 11.8421 13.9711 11.6874C14.3159 11.5199 14.3836 11.4554 14.3836 11.3007C14.3836 11.0719 14.1773 10.9817 13.9517 11.1106C13.7616 11.2202 13.5457 11.3201 13.4393 11.3523L13.3523 11.3748L13.42 11.1235C13.4844 10.8721 13.4844 10.8721 13.6778 10.7464C14.3642 10.3017 14.6607 9.47347 14.4029 8.70648C14.3256 8.47767 14.0935 8.11028 13.9517 7.99104L13.8615 7.9137L14.0226 7.75579L14.1838 7.59788L14.3771 7.80735C14.622 8.07161 14.8283 8.49056 14.9056 8.87083C14.9991 9.34457 14.9153 9.86664 14.6736 10.3146C14.5447 10.5531 14.5318 10.7078 14.6349 10.8044C14.8057 10.9623 14.9926 10.856 15.1699 10.4983C15.6823 9.45736 15.5051 8.23274 14.7187 7.39807L14.5511 7.22405L14.6704 7.10481L14.7896 6.98557L14.9733 7.16926C15.0764 7.26917 15.1989 7.36585 15.2472 7.38518C15.4277 7.45286 15.4825 7.39807 16.1109 6.54729C16.4396 6.10256 16.7522 5.65461 16.8038 5.5547C16.894 5.38713 16.9005 5.35168 16.9005 5.01974C16.9005 4.69425 16.894 4.65236 16.8102 4.488C16.6749 4.23019 13.6681 1.21377 13.4039 1.07519C13.0784 0.901169 12.6627 0.885056 12.3339 1.0333C12.1309 1.12353 10.5292 2.31592 10.4777 2.4126C10.41 2.53829 10.4551 2.63819 10.6743 2.867L10.8708 3.07325L10.0523 3.89181L9.23051 4.71359H8.66654H8.10258L7.28079 3.89181L6.46224 3.07325L6.65882 2.867C6.87796 2.63819 6.92308 2.53829 6.8554 2.4126C6.79417 2.29659 5.14416 1.08808 4.94436 1.01074C4.73489 0.933395 4.50285 0.910837 4.28693 0.946286ZM13.1461 1.52637C13.3169 1.61338 16.2914 4.60724 16.3526 4.75226C16.4171 4.91017 16.4138 5.17443 16.3494 5.30334C16.3075 5.38713 16.0046 5.81896 15.9208 5.91242C15.9079 5.92531 15.0023 5.03908 13.9066 3.94337L11.915 1.95176L12.234 1.71973C12.6562 1.42002 12.856 1.37812 13.1461 1.52637ZM6.16897 2.50928C6.2302 2.5544 6.12708 2.66075 4.13547 4.65236L2.03751 6.75032L1.88927 6.5634L1.74102 6.37326L3.79064 4.32042L5.84348 2.26758L5.97239 2.36426C6.04651 2.41582 6.13352 2.48028 6.16897 2.50928ZM15.4438 6.56018L15.2956 6.75032L13.2073 4.66203C12.0568 3.51153 11.1158 2.56407 11.1158 2.5544C11.119 2.54473 11.1996 2.47705 11.3027 2.40293L11.4864 2.26758L13.5392 4.3172L15.5921 6.36682L15.4438 6.56018ZM6.8554 4.20763L7.60306 4.95529L6.01429 6.54406L4.42873 8.12962L3.6714 7.37229L2.91408 6.61496L3.08166 6.44738L3.25246 6.27981L3.61662 6.63752C4.02267 7.04036 4.17092 7.12737 4.4384 7.13059C4.8509 7.13059 5.15383 6.83411 5.15383 6.4216C5.15383 6.14768 5.06682 6.00266 4.66399 5.59338L4.30305 5.22922L4.5093 5.01974L4.71877 4.81027L5.10549 5.19699C5.52122 5.60949 5.63401 5.68039 5.89505 5.68039C6.17542 5.68039 6.43323 5.52248 6.5428 5.27756C6.61692 5.11964 6.62337 4.81994 6.55569 4.6588C6.52669 4.59435 6.33978 4.37199 6.1303 4.15929L5.75325 3.77901L5.91116 3.61788C5.99817 3.52765 6.07874 3.45675 6.08841 3.45675C6.09807 3.45675 6.4429 3.79513 6.8554 4.20763ZM11.4219 3.61788L11.5798 3.77901L11.2028 4.15929C10.9933 4.37199 10.8064 4.59435 10.7774 4.6588C10.7097 4.81994 10.7162 5.11964 10.7903 5.27756C10.8999 5.52248 11.1577 5.68039 11.438 5.68039C11.6991 5.68039 11.8119 5.60949 12.2276 5.19699L12.6143 4.81027L12.8238 5.01974L13.03 5.22922L12.6723 5.59015C12.2598 6.01232 12.1793 6.14445 12.1793 6.41194C12.1825 6.83411 12.4757 7.13059 12.8947 7.13059C13.1589 7.12737 13.304 7.04036 13.7132 6.64075L14.0839 6.27981L14.2514 6.44738L14.419 6.61496L13.6617 7.37229L12.9044 8.12962L11.3188 6.54406L9.73002 4.95529L10.4777 4.20763C10.8902 3.79513 11.235 3.45675 11.2447 3.45675C11.2543 3.45675 11.3349 3.52765 11.4219 3.61788ZM5.74358 4.517C6.03362 4.80705 6.08841 4.88117 6.08841 4.96496C6.08841 5.07453 5.99495 5.16476 5.87893 5.16476C5.84026 5.16476 5.67268 5.02296 5.45354 4.80382L5.08938 4.44288L5.22473 4.30431C5.29885 4.22696 5.36975 4.16573 5.37942 4.16573C5.38909 4.16573 5.55344 4.32364 5.74358 4.517ZM12.1084 4.30431L12.2437 4.44288L11.8795 4.80382C11.6604 5.02296 11.4928 5.16476 11.4542 5.16476C11.3381 5.16476 11.2447 5.07453 11.2447 4.96496C11.2447 4.88117 11.2995 4.80705 11.5895 4.517C11.7796 4.32364 11.944 4.16573 11.9537 4.16573C11.9633 4.16573 12.0342 4.22696 12.1084 4.30431ZM10.9289 6.89534L12.5982 8.56468L12.5176 8.80638C12.4757 8.93851 12.4242 9.04486 12.4081 9.03841C12.3887 9.03519 11.7087 8.55179 10.8966 7.96526C10.0877 7.37551 9.33041 6.85022 9.2144 6.79543C9.02104 6.70198 8.97914 6.69553 8.66332 6.69553C8.33461 6.69553 8.31527 6.69875 8.07679 6.81799C7.84476 6.93401 7.73519 7.03069 6.4719 8.26819C5.72425 8.99974 5.10549 9.59916 5.0926 9.6056C5.07971 9.60882 4.9927 9.37679 4.90246 9.08997L4.73489 8.56468L6.40423 6.89534L8.07035 5.22922H8.66654H9.26274L10.9289 6.89534ZM4.29338 5.96721C4.66399 6.34104 4.70266 6.4216 4.57375 6.55051C4.45451 6.66975 4.38684 6.6343 4.00334 6.25402L3.63918 5.89309L3.77453 5.75451C3.84865 5.67717 3.91955 5.61594 3.92922 5.61594C3.93889 5.61594 4.10324 5.77385 4.29338 5.96721ZM13.5586 5.75451L13.6939 5.89309L13.3297 6.25402C13.1106 6.47317 12.943 6.61496 12.9044 6.61496C12.7883 6.61496 12.6949 6.52473 12.6949 6.41516C12.6949 6.33137 12.7497 6.25725 13.0397 5.96721C13.2298 5.77385 13.3942 5.61594 13.4039 5.61594C13.4135 5.61594 13.4844 5.67717 13.5586 5.75451ZM9.04037 7.28528C9.3143 7.42385 9.53666 7.77513 9.53666 8.06517C9.53666 8.40355 9.24985 8.78704 8.92436 8.88372C8.70844 8.94818 8.62465 8.94818 8.40873 8.88372C8.07357 8.78382 7.79642 8.40355 7.79642 8.04583C7.79642 7.71067 8.08968 7.33684 8.43773 7.22405C8.57309 7.17893 8.89858 7.21438 9.04037 7.28528ZM3.32336 7.76546L3.47482 7.9137L3.39425 7.97493C3.25568 8.08772 3.02042 8.44866 2.93986 8.6807C2.71105 9.34457 2.87863 10.0503 3.37814 10.5241C3.58117 10.7142 3.94533 10.9333 4.05812 10.9333C4.08391 10.9333 4.09035 10.9591 4.07746 11.0042C4.06457 11.0461 4.04846 11.1493 4.03557 11.2331C4.01623 11.3813 4.01301 11.3877 3.93244 11.3684C3.77453 11.3297 3.45226 11.1589 3.25568 11.0107C2.6047 10.5241 2.26954 9.65716 2.42745 8.87083C2.50157 8.50023 2.71105 8.07483 2.9463 7.8138C3.04621 7.70423 3.13966 7.61399 3.14933 7.61399C3.159 7.61399 3.23957 7.68167 3.32336 7.76546ZM10.7387 8.50023L11.3639 8.9514L11.2318 8.98685C10.8032 9.10287 10.6485 9.22533 9.31108 10.5434L8.16703 11.6681L8.14769 11.3748C8.10902 10.8463 7.92855 10.4499 7.55794 10.0761C7.20023 9.72162 6.83607 9.54437 6.30433 9.47347L6.02073 9.4348L6.65237 8.82894C7.01654 8.47444 7.28724 8.23919 7.29369 8.26497C7.30013 8.28753 7.32269 8.37132 7.34525 8.45189C7.43871 8.80638 7.73519 9.15765 8.07035 9.30912C8.92436 9.70228 9.88471 9.18665 10.0297 8.25853C10.0491 8.13606 10.0749 8.03616 10.0877 8.03938C10.1006 8.04583 10.3939 8.25208 10.7387 8.50023ZM4.42873 9.31234C4.54475 9.67328 4.63821 9.98588 4.63821 10.0084C4.63821 10.0342 4.60598 10.0793 4.57053 10.1148C4.53186 10.147 4.45774 10.2372 4.40617 10.3114C4.35461 10.3887 4.29016 10.4499 4.26115 10.4499C4.1548 10.4499 3.82287 10.2372 3.6714 10.0729C3.45226 9.83441 3.36847 9.6056 3.36847 9.25755C3.36525 9.01585 3.37814 8.95785 3.46838 8.76771C3.52316 8.65169 3.62951 8.49378 3.70363 8.41966L3.83898 8.28431L4.02912 8.47122L4.21604 8.66136L4.42873 9.31234ZM13.6971 8.49056C14.0903 8.99007 14.0677 9.63461 13.6391 10.0987C13.5392 10.205 13.449 10.2791 13.4361 10.2662C13.4232 10.2534 13.3878 10.1663 13.3555 10.0793C13.2846 9.87953 13.2008 9.74095 13.0268 9.52826L12.8947 9.36068L13.0043 9.01263C13.1074 8.69036 13.1299 8.64847 13.2975 8.47767C13.4651 8.30687 13.4812 8.2972 13.5457 8.33909C13.5843 8.36487 13.652 8.43255 13.6971 8.49056ZM12.2179 9.57015C12.4919 9.69906 12.7045 9.91176 12.8335 10.1857C12.9269 10.379 12.9366 10.4306 12.9366 10.6916C12.9334 11.0913 12.8496 11.3007 12.5853 11.5618C12.1793 11.9678 11.6797 12.0645 11.1931 11.8389C10.4293 11.4812 10.207 10.5563 10.7323 9.90531C10.858 9.74418 11.0223 9.63138 11.2672 9.52826C11.4251 9.46058 11.496 9.45091 11.7281 9.45736C11.9569 9.46703 12.0375 9.48314 12.2179 9.57015ZM6.5847 10.0632C7.22279 10.2824 7.63529 10.8657 7.63529 11.5456C7.63529 12.245 7.15189 12.8637 6.45901 13.0442C5.83059 13.2053 5.13127 12.9217 4.77033 12.3545C4.59631 12.0838 4.53508 11.8292 4.54797 11.4651C4.55764 11.1718 4.57053 11.1203 4.6801 10.8914C4.8928 10.4435 5.32141 10.0954 5.78225 10.002C6.00462 9.95687 6.35589 9.98265 6.5847 10.0632ZM10.0201 11.2749C10.091 11.4876 10.2328 11.7326 10.3681 11.8744L10.4519 11.9646L9.53344 11.9614H8.6182L9.26274 11.3362L9.90727 10.711L9.92983 10.8947C9.94272 10.9946 9.98462 11.1654 10.0201 11.2749ZM8.79545 13.2859V14.0916H8.66654H8.53764V13.2859V12.4802H8.66654H8.79545V13.2859ZM9.73002 13.4438C9.73002 14.3236 9.72358 14.4138 9.67202 14.4783C9.60112 14.5653 9.46254 14.5717 9.37553 14.4944C9.3143 14.4396 9.31108 14.388 9.31108 13.4567V12.4802H9.52055H9.73002V13.4438ZM10.4712 13.2859V14.0916H10.3584H10.2457V13.2859V12.4802H10.3584H10.4712V13.2859ZM11.438 13.4438C11.438 14.3139 11.4316 14.4138 11.3833 14.4718C11.2834 14.5879 11.1899 14.5911 11.0835 14.4815L10.9869 14.388V13.4341V12.4802H11.2125H11.438V13.4438ZM7.96078 14.4879C7.88343 14.5653 7.74808 14.5685 7.66752 14.4944C7.60628 14.4396 7.60306 14.3913 7.60306 13.7016V12.9701L7.80609 12.7767L8.0059 12.5801L8.01556 13.505C8.02201 14.3784 8.01879 14.4299 7.96078 14.4879ZM7.08743 13.721V14.0916H6.97464H6.86185V13.7757V13.4599L6.9682 13.4051C7.02298 13.3793 7.07454 13.3536 7.08099 13.3536C7.08421 13.3503 7.08743 13.5179 7.08743 13.721ZM6.34622 13.9981V14.388L6.24954 14.4815C6.14319 14.5911 6.04974 14.5879 5.95305 14.4718C5.90471 14.417 5.89505 14.3429 5.89505 14.0078V13.6082H6.12063H6.34622V13.9981Z" fill="#0A152F" stroke="#0A152F" stroke-width="0.1"/>
</svg>
