<svg width="14" height="10" viewBox="0 0 14 10" fill="none" xmlns="http://www.w3.org/2000/svg">
<path d="M6.39555 0.222452C5.77274 0.389816 5.27339 0.795878 4.99902 1.35559C4.8152 1.73421 4.76855 1.93999 4.76855 2.34879C4.7713 2.75485 4.83166 3.00178 5.01548 3.35846C5.11974 3.56424 5.19108 3.65752 5.40783 3.87427C5.6383 4.10474 5.7014 4.15138 5.95656 4.27485C6.31873 4.45318 6.56291 4.50806 6.958 4.50806C7.90731 4.50257 8.69474 3.93463 9.01026 3.02648C9.15568 2.60121 9.14744 2.00309 8.98282 1.56685C8.8182 1.12512 8.43958 0.675157 8.04175 0.450176C7.67684 0.244401 7.45735 0.186784 6.99915 0.17581C6.66443 0.167579 6.5684 0.17581 6.39555 0.222452ZM7.33114 1.12786C7.8689 1.30894 8.20637 1.77537 8.20637 2.33507C8.20637 3.11153 7.51222 3.71788 6.7632 3.59716C6.06631 3.48467 5.57519 2.82893 5.6822 2.15674C5.75902 1.67659 6.10198 1.27053 6.55468 1.12512C6.77417 1.05653 7.11713 1.05653 7.33114 1.12786Z" fill="#0A152F"/>
<path d="M2.65169 2.44744C2.42122 2.47213 2.26757 2.51603 2.05631 2.62852C1.68043 2.82332 1.39234 3.16628 1.24693 3.5888C1.18383 3.77263 1.17285 3.84671 1.17285 4.11833C1.17285 4.38995 1.18383 4.46129 1.24419 4.63414C1.4335 5.16641 1.82859 5.55327 2.34988 5.71789C2.60504 5.79745 3.09616 5.80294 3.32388 5.72612C3.88359 5.53681 4.27868 5.14446 4.45702 4.60396C4.49817 4.47501 4.51189 4.35977 4.51189 4.11833C4.51464 3.83573 4.5064 3.77812 4.43233 3.5696C4.33081 3.28426 4.19363 3.07025 3.98511 2.87819C3.815 2.72181 3.52417 2.55444 3.32388 2.49682C3.15103 2.45018 2.84649 2.42823 2.65169 2.44744ZM3.17847 3.42144C3.54612 3.59703 3.72172 4.07169 3.54887 4.42562C3.29919 4.93046 2.67089 5.03746 2.29501 4.63688C2.15508 4.48598 2.10295 4.38447 2.07552 4.19515C2.02064 3.8275 2.33342 3.41321 2.7093 3.35285C2.89039 3.32541 3.00836 3.34187 3.17847 3.42144Z" fill="#0A152F"/>
<path d="M10.8138 2.45023C10.4407 2.49139 10.0977 2.66698 9.82336 2.96055C9.6121 3.18279 9.48589 3.40777 9.41456 3.69586C9.10178 4.91404 10.1663 6.01151 11.4037 5.75086C12.0046 5.62465 12.5067 5.13628 12.6658 4.52719C12.7015 4.39275 12.7097 4.27751 12.6987 4.03607C12.6823 3.6547 12.6219 3.4599 12.4271 3.16907C12.0759 2.64229 11.4805 2.37615 10.8138 2.45023ZM11.2062 3.36387C11.5848 3.46264 11.8015 3.7425 11.8015 4.12936C11.8015 4.56285 11.4119 4.91953 10.9784 4.87838C10.5998 4.84545 10.3062 4.55188 10.2733 4.176C10.2377 3.78914 10.5148 3.42972 10.9044 3.35015C10.9675 3.33918 11.0251 3.32821 11.0333 3.32546C11.0415 3.32272 11.1211 3.34192 11.2062 3.36387Z" fill="#0A152F"/>
<path d="M6.64312 5.27346C5.67461 5.37772 4.71433 5.93194 4.13541 6.72486C4.06408 6.82363 4.00097 6.90594 3.99823 6.91143C3.99274 6.91417 3.92141 6.88674 3.8391 6.84833C3.39188 6.64255 2.8404 6.6014 2.35478 6.73309C1.63594 6.92789 1.06251 7.3806 0.716808 8.02261C0.511033 8.40673 0.415005 8.77438 0.406774 9.2216C0.401286 9.54809 0.436954 9.64961 0.607061 9.7621C0.727783 9.84441 0.966481 9.8499 1.09543 9.77033C1.24359 9.67979 1.282 9.58376 1.30121 9.26275C1.34511 8.57135 1.69355 8.02261 2.26698 7.73727C2.66207 7.54247 2.9721 7.51229 3.33701 7.63301C3.58668 7.71532 3.57845 7.69612 3.48791 7.97323C3.35621 8.38478 3.26842 8.91156 3.26842 9.28744C3.26842 9.60845 3.44127 9.806 3.71838 9.806C4.00372 9.806 4.17383 9.6112 4.17383 9.29293C4.17383 9.04051 4.25339 8.57409 4.34393 8.28875C4.71982 7.11446 5.63071 6.30782 6.73641 6.17338C7.779 6.04443 8.86549 6.66999 9.41148 7.71258C9.65841 8.18449 9.82578 8.82102 9.82578 9.29293C9.82578 9.6112 9.99588 9.806 10.2812 9.806C10.5583 9.806 10.7312 9.60845 10.7312 9.28744C10.7312 8.91156 10.6434 8.38478 10.5117 7.97323C10.4212 7.69612 10.4129 7.71532 10.6626 7.63301C11.0275 7.51229 11.3375 7.54247 11.7326 7.73727C12.3088 8.02261 12.6518 8.56312 12.6956 9.26001C12.7176 9.58376 12.756 9.67979 12.9042 9.77033C13.0331 9.8499 13.2718 9.84441 13.3925 9.7621C13.5599 9.65235 13.5983 9.54809 13.5928 9.22983C13.5846 8.67012 13.4392 8.2229 13.1127 7.74825C12.9645 7.53424 12.6847 7.25439 12.4762 7.10897C11.771 6.62609 10.8684 6.52457 10.1605 6.84833C10.0782 6.88674 10.0069 6.91417 10.0014 6.91143C9.99863 6.90594 9.94101 6.82912 9.87242 6.73584C9.26881 5.91548 8.33322 5.37772 7.3263 5.27072C7.03547 5.24054 6.9367 5.24054 6.64312 5.27346Z" fill="#0A152F"/>
</svg>
