<svg width="16" height="16" viewBox="0 0 16 16" fill="none" xmlns="http://www.w3.org/2000/svg">
<path d="M0.986605 13.1329C0.499105 13.4985 0.22098 13.7266 0.192855 13.7891C0.10848 13.9641 0.15223 14.011 0.967855 14.6235C1.62723 15.1235 1.74285 15.1985 1.83973 15.1985C1.98348 15.1985 2.09598 15.0797 2.09598 14.9297C2.09598 14.8079 2.05535 14.7672 1.58348 14.4141L1.24285 14.161H6.90848H12.5741L12.2335 14.4141C11.7616 14.7672 11.721 14.8079 11.721 14.9297C11.721 15.0797 11.8335 15.1985 11.9741 15.1985C12.071 15.1985 12.1929 15.1204 12.821 14.6516C13.2241 14.3516 13.5772 14.0735 13.6085 14.0329C13.6679 13.9454 13.671 13.861 13.6179 13.7641C13.596 13.7266 13.2429 13.4422 12.8304 13.1329C12.2147 12.6704 12.0616 12.5672 11.9772 12.5672C11.796 12.5672 11.671 12.7735 11.7397 12.9547C11.7491 12.9797 11.9429 13.1391 12.1679 13.3079L12.5772 13.6141L9.74285 13.6235C8.18348 13.6266 5.63348 13.6266 4.0741 13.6235L1.23973 13.6141L1.6491 13.3079C1.8741 13.1391 2.06785 12.9797 2.07723 12.9547C2.11785 12.8485 2.09285 12.7297 2.01473 12.6485C1.85535 12.4922 1.80848 12.5141 0.986605 13.1329Z" fill="#0A152F"/>
<path d="M1.65651 10.9918C1.62526 11.0231 1.57839 11.12 1.55026 11.2043C1.43464 11.5512 1.35026 11.595 0.740887 11.62C0.365887 11.6356 0.287762 11.6481 0.231512 11.6981C0.134637 11.7856 0.140887 11.995 0.244012 12.0918C0.319012 12.1606 0.331512 12.1637 0.781512 12.145C1.27214 12.1262 1.48464 12.0825 1.66901 11.9575L1.77526 11.8856L1.94714 12.0606C2.27526 12.3918 2.73464 12.5668 3.27526 12.5668C3.80651 12.57 4.25964 12.4106 4.60026 12.1043L4.75026 11.97L4.90339 12.1106C5.07839 12.2731 5.40964 12.4418 5.68151 12.5137C5.93151 12.5825 6.49401 12.5793 6.74401 12.5137C7.02526 12.4418 7.30026 12.295 7.49401 12.1168L7.66589 11.9606L7.83776 12.1168C8.03151 12.295 8.30651 12.4418 8.58776 12.5137C8.83776 12.5793 9.40026 12.5825 9.65026 12.5137C9.93151 12.4418 10.2565 12.27 10.4253 12.1075L10.5753 11.9637L10.7471 12.1168C10.9471 12.2981 11.244 12.4481 11.519 12.5137C11.769 12.5731 12.3128 12.5731 12.5659 12.5137C12.8596 12.445 13.1846 12.2668 13.3846 12.0637L13.5596 11.8887L13.6659 11.9606C13.8471 12.0825 14.0596 12.1262 14.5503 12.145C15.0003 12.1637 15.0128 12.1606 15.0878 12.0918C15.2003 11.9856 15.1971 11.7793 15.0846 11.6887C15.0128 11.6325 14.9565 11.6231 14.6784 11.6231C14.0878 11.6231 13.869 11.5231 13.7753 11.2075C13.7128 10.9981 13.6534 10.9356 13.5096 10.9356C13.344 10.9356 13.2659 11.0137 13.2284 11.2075C13.1878 11.4356 13.0971 11.595 12.9284 11.7418C12.4846 12.1356 11.5971 12.1356 11.1534 11.7418C10.9846 11.595 10.894 11.4356 10.8534 11.2075C10.8159 11.0137 10.7378 10.9356 10.5721 10.9356C10.419 10.9356 10.3596 11.0075 10.3034 11.2606C10.1909 11.7418 9.75651 12.0325 9.14089 12.0325C8.49714 12.0325 8.03776 11.7325 7.94714 11.2512C7.90651 11.0293 7.81901 10.9356 7.65964 10.9356C7.50651 10.9356 7.43151 11.0106 7.40651 11.195C7.37839 11.4043 7.28776 11.5606 7.10339 11.7262C6.66901 12.1168 5.86276 12.1512 5.37839 11.795C5.20651 11.6668 5.07839 11.4637 5.02214 11.2262C4.97214 11.0043 4.90651 10.9356 4.75964 10.9356C4.59401 10.9356 4.51589 11.0137 4.47839 11.2075C4.43776 11.4356 4.34714 11.595 4.17839 11.7418C3.73464 12.1356 2.84714 12.1356 2.40339 11.7418C2.23464 11.595 2.14401 11.4356 2.10339 11.2075C2.08464 11.1075 2.04714 11.0231 2.00651 10.9887C1.91901 10.9168 1.72214 10.92 1.65651 10.9918Z" fill="#0A152F"/>
<path d="M3.08135 0.87341L3.0126 0.945286V3.23279V5.52029H2.60947C2.25322 5.52029 2.2001 5.52654 2.12822 5.58279C2.0251 5.66404 2.05322 5.56091 1.68135 7.30779L1.3751 8.77029H0.850098C0.353223 8.77029 0.325098 8.77341 0.246973 8.84216C0.184473 8.89529 0.162598 8.94216 0.162598 9.02029C0.165723 9.20466 0.531348 10.6734 0.590723 10.739C0.671973 10.8297 0.887598 10.8234 0.975098 10.7297C1.0126 10.689 1.04385 10.6203 1.04385 10.5734C1.04385 10.5297 0.981348 10.2297 0.903223 9.90779C0.825098 9.58904 0.762598 9.32029 0.762598 9.31404C0.762598 9.30779 2.02197 9.30154 3.56572 9.30154H6.36572L6.98135 8.66716C7.31885 8.32029 7.64697 7.97654 7.7126 7.90154L7.83135 7.77029H10.9532H14.072L13.9938 7.97966C13.6657 8.85779 13.0438 9.68904 12.2782 10.2609C12.1063 10.3922 11.9563 10.514 11.9438 10.5328C11.9095 10.5828 11.9126 10.764 11.9501 10.8328C12.0001 10.9234 12.1563 10.964 12.272 10.914C12.4407 10.8453 12.8907 10.489 13.2001 10.1765C13.8345 9.54529 14.2845 8.81404 14.5595 7.97966C14.6938 7.56091 14.7032 7.39529 14.5876 7.30466C14.5063 7.23904 14.472 7.23904 13.1407 7.23904H11.7782L11.6251 6.51091C11.5407 6.11404 11.4563 5.73904 11.4313 5.68279C11.3782 5.55466 11.2876 5.52029 10.997 5.52029C10.7813 5.52029 10.7626 5.51404 10.7501 5.44841C10.7407 5.41091 10.6907 5.06404 10.6376 4.67966C10.5845 4.29529 10.5282 3.95466 10.5126 3.92654C10.4345 3.78279 10.4876 3.78591 8.45322 3.77029L6.53135 3.75466L6.26885 2.36404C6.09072 1.41404 5.99072 0.948411 5.95322 0.895286L5.89697 0.817161L4.52197 0.807786L3.1501 0.801536L3.08135 0.87341ZM5.60947 1.75466C5.65635 1.99529 5.69697 2.21716 5.69697 2.24529C5.7001 2.29841 5.62822 2.30154 4.62197 2.30154H3.54385V1.80154V1.30154L4.53447 1.30779L5.5251 1.31716L5.60947 1.75466ZM5.88447 3.21404C5.9251 3.42654 5.9626 3.63591 5.97197 3.68279L5.9876 3.76404L5.53135 3.77654C4.90947 3.78904 4.95322 3.73591 4.82822 4.64529C4.7751 5.03279 4.72197 5.38591 4.7126 5.43279L4.69385 5.52029H4.11885H3.54385V4.17654V2.83279H4.67822H5.8126L5.88447 3.21404ZM10.0438 4.30779C10.0438 4.31404 10.0845 4.58904 10.1345 4.91716L10.222 5.52029H7.73135H5.24385L5.32822 4.91716C5.3751 4.58904 5.41572 4.31404 5.41572 4.30779C5.41885 4.29841 10.0438 4.29841 10.0438 4.30779ZM10.9907 6.12029C11.0032 6.16091 11.0532 6.39529 11.1063 6.64529C11.1563 6.89529 11.2063 7.12966 11.2157 7.16716L11.2313 7.23904H9.42822L7.62197 7.23591L6.87197 8.00466L6.12197 8.77029H4.01572C2.34697 8.77029 1.91572 8.76091 1.9251 8.72966C1.93447 8.71091 2.06572 8.09841 2.21885 7.37341L2.49697 6.05154H6.73447H10.9751L10.9907 6.12029Z" fill="#0A152F"/>
<path d="M3.78751 6.31805C3.44689 6.37501 3.16876 6.58488 3.05626 6.86671C2.94689 7.14853 3.03751 7.5113 3.27501 7.74216C3.50939 7.96702 3.57189 7.98201 4.32189 7.991C4.95314 8 5.00626 7.997 5.18126 7.93404C5.77189 7.72417 5.94689 7.0436 5.52501 6.59388C5.29064 6.34503 5.16251 6.30906 4.49376 6.30006C4.18439 6.29407 3.86564 6.30306 3.78751 6.31805ZM5.00001 6.85471C5.21564 6.95065 5.29064 7.16352 5.16251 7.31942C5.03751 7.47233 4.96251 7.48732 4.38439 7.48732C3.80626 7.48732 3.73126 7.47233 3.60626 7.31942C3.47501 7.16052 3.55001 6.95065 3.77501 6.85471C3.96251 6.77077 4.80939 6.77377 5.00001 6.85471Z" fill="#0A152F"/>
<path d="M10.8321 7.9521C10.5196 8.03604 10.3165 8.20394 10.1759 8.49176C10.1009 8.64766 10.0884 8.70762 10.0884 8.94148C10.0884 9.17233 10.1009 9.23829 10.1728 9.3822C10.4009 9.85291 10.9696 10.0718 11.5103 9.90088C11.7509 9.82592 12.0384 9.5471 12.1196 9.31624C12.2478 8.95947 12.1665 8.50675 11.9321 8.24291C11.6946 7.97908 11.2103 7.85016 10.8321 7.9521ZM11.3321 8.45878C11.5415 8.54273 11.6853 8.78857 11.654 9.00144C11.5696 9.53211 10.8478 9.61905 10.6478 9.12136C10.4821 8.70163 10.9103 8.28489 11.3321 8.45878Z" fill="#0A152F"/>
</svg>
