<svg width="156" height="37" viewBox="0 0 156 37" fill="none" xmlns="http://www.w3.org/2000/svg">
<g clip-path="url(#clip0_5573_78842)">
<path fill-rule="evenodd" clip-rule="evenodd" d="M121.377 25.0186C125.398 25.0186 128.668 21.8133 128.668 17.8736C128.668 13.9337 125.398 10.7285 121.377 10.7285C117.357 10.7285 114.087 13.9337 114.087 17.8736C114.087 21.8133 117.357 25.0186 121.377 25.0186ZM128.668 0.116699H128.866H132.123V28.4278H128.668V25.601C126.675 27.4117 124.104 28.4036 121.377 28.4036C115.453 28.4036 110.633 23.6798 110.633 17.8736C110.633 12.067 115.453 7.3434 121.377 7.3434C124.104 7.3434 126.675 8.33515 128.668 10.146V0.116699ZM49.745 24.8939C53.7651 24.8939 57.0358 21.6887 57.0358 17.7488C57.0358 13.8091 53.7651 10.6039 49.745 10.6039C45.7247 10.6039 42.454 13.8091 42.454 17.7488C42.454 21.6887 45.7247 24.8939 49.745 24.8939ZM42.454 10.0216C44.4475 8.21079 47.0185 7.21888 49.745 7.21888C55.6696 7.21888 60.4898 11.9427 60.4898 17.7488C60.4898 23.5551 55.6696 28.2789 49.745 28.2789C47.0185 28.2789 44.4475 27.2872 42.454 25.4762V35.5056H39V7.19448H42.454V10.0216ZM67.0802 16.1047C67.8576 12.905 70.7542 10.6075 74.0581 10.6075C77.3189 10.6075 80.0504 12.856 80.7784 16.1047H67.0802ZM74.0581 7.19448C68.2222 7.19448 63.4745 11.9573 63.4745 17.8111C63.4745 23.6652 68.2222 28.4278 74.0581 28.4278C77.3262 28.4278 80.3256 27.2005 82.2886 25.0605L83.3083 23.9482L83.4398 23.8046L83.2968 23.6723L81.0796 21.6264L80.9366 21.4942L80.8044 21.6378L79.7846 22.7503C78.4839 24.1683 76.3432 25.015 74.0581 25.015C70.7542 25.015 67.8578 22.7175 67.0802 19.5175H84.3671V17.8111C84.3671 11.8579 79.8388 7.19448 74.0581 7.19448ZM152.546 17.8112C152.546 21.7834 149.275 25.0149 145.255 25.0149C141.235 25.0149 137.964 21.7834 137.964 17.8112C137.964 13.8389 141.235 10.6073 145.255 10.6073C149.275 10.6073 152.546 13.8389 152.546 17.8112ZM145.255 7.19448C139.33 7.19448 134.51 11.9571 134.51 17.8112C134.51 23.6652 139.33 28.4278 145.255 28.4278C151.18 28.4278 156 23.6652 156 17.8112C156 11.9571 151.18 7.19448 145.255 7.19448ZM97.201 7.19448C94.8011 7.19448 92.5145 8.10845 90.7147 9.77772V7.19448H87.3521V28.4278H90.7147V17.5921C90.7147 13.7262 93.6246 10.5808 97.201 10.5808C100.778 10.5808 103.689 13.7262 103.689 17.5921V28.4278H107.051V17.5921C107.051 11.8589 102.632 7.19448 97.201 7.19448Z" fill="#1A2022"/>
<path fill-rule="evenodd" clip-rule="evenodd" d="M0 20.3388H16.2499V36.2278L32.5 20.3388V4.45001H16.2499L0 20.3388Z" fill="#FF4876"/>
</g>
<defs>
<clipPath id="clip0_5573_78842">
<rect width="156" height="36.1111" fill="white" transform="translate(0 0.116699)"/>
</clipPath>
</defs>
</svg>
