<svg width="166" height="42" viewBox="0 0 166 42" fill="none" xmlns="http://www.w3.org/2000/svg">
<g style="mix-blend-mode:luminosity">
<path d="M72.4411 15.9426C71.8845 15.1784 71.1145 14.5955 70.2279 14.2675C69.3176 13.902 68.4276 13.7193 67.5579 13.7193C66.4468 13.7193 65.4349 13.9223 64.5257 14.3284C63.6324 14.7224 62.8276 15.2921 62.1591 16.0035C61.5008 16.733 60.9864 17.5804 60.6431 18.501C60.292 19.4987 60.1176 20.5501 60.1275 21.6076C60.1275 22.7852 60.299 23.8614 60.6431 24.836C60.9603 25.7645 61.4544 26.6226 62.0982 27.3628C62.7469 28.0548 63.5319 28.6049 64.4039 28.9781C65.2939 29.3639 66.2945 29.5568 67.4067 29.5568C68.5596 29.5568 69.5804 29.3334 70.4704 28.8867C71.3593 28.4197 72.0779 27.8106 72.6238 27.0593L75.6876 29.2218C74.7518 30.408 73.5587 31.3662 72.1986 32.0238C70.8235 32.6735 69.2161 32.9984 67.3763 32.9984C65.6977 32.9984 64.1512 32.7243 62.7355 32.1749C61.3895 31.6392 60.1627 30.8426 59.1259 29.8309C58.1065 28.8021 57.3027 27.5804 56.7615 26.237C56.1952 24.836 55.9121 23.2929 55.9121 21.6076C55.9121 19.8817 56.2054 18.3284 56.792 16.9477C57.3988 15.5467 58.2178 14.3589 59.2488 13.3831C60.3217 12.3959 61.5791 11.6303 62.9487 11.1305C64.3644 10.6026 65.9019 10.3386 67.559 10.3386C68.2471 10.3386 68.9645 10.4097 69.7135 10.5518C70.4614 10.6737 71.18 10.8767 71.8669 11.1609C72.555 11.4249 73.2014 11.7588 73.8071 12.1649C74.414 12.571 74.9295 13.0594 75.3548 13.6279L72.4411 15.9426ZM77.9402 9.42493H81.5804V32.4502H77.9402V9.42493ZM96.247 23.6786C96.247 23.2116 96.1771 22.7649 96.0349 22.3385C95.9192 21.9221 95.7119 21.5366 95.4281 21.2105C95.1288 20.8749 94.7547 20.6145 94.3361 20.4502C93.912 20.2472 93.4066 20.1457 92.82 20.1457C91.7281 20.1457 90.7975 20.4807 90.0293 21.1496C89.2814 21.8005 88.8674 22.6431 88.7862 23.6786H96.247ZM99.8871 25.3233V25.8106C99.8871 25.9731 99.877 26.1355 99.8567 26.2979H88.7862C88.8268 26.8258 88.9577 27.3131 89.181 27.7598C89.4224 28.1862 89.736 28.5607 90.1207 28.8867C90.5042 29.1913 90.9396 29.435 91.4247 29.6177C91.9097 29.8004 92.4151 29.8918 92.9419 29.8918C93.8511 29.8918 94.6193 29.7294 95.2464 29.4045C95.8654 29.0663 96.3954 28.5862 96.793 28.0035L99.2193 29.9527C97.7845 31.902 95.701 32.8766 92.9712 32.8766C91.8398 32.8766 90.7975 32.704 89.8466 32.3577C88.9289 32.0119 88.0853 31.4952 87.3604 30.8349C86.6579 30.1637 86.1004 29.3556 85.7225 28.4604C85.339 27.506 85.1472 26.4299 85.1472 25.2319C85.1472 24.0543 85.339 22.9872 85.7225 22.034C86.1275 21.0594 86.6734 20.237 87.3604 19.567C88.0497 18.8755 88.8762 18.336 89.7868 17.9832C90.7606 17.5929 91.8013 17.3964 92.8505 17.4046C93.8612 17.4046 94.7907 17.5771 95.6412 17.9223C96.4959 18.2373 97.2648 18.7485 97.886 19.4147C98.5121 20.0644 98.9971 20.8868 99.3412 21.8817C99.7055 22.8563 99.8871 24.0024 99.8871 25.3222V25.3233ZM112.273 30.5912H112.183C111.818 31.2421 111.232 31.7801 110.423 32.2065C109.614 32.6126 108.694 32.8157 107.663 32.8157C107.076 32.8157 106.46 32.7344 105.813 32.572C105.189 32.4311 104.593 32.1839 104.053 31.8411C103.52 31.4673 103.066 30.9911 102.718 30.44C102.374 29.8512 102.203 29.1304 102.203 28.2776C102.203 27.1812 102.506 26.3081 103.113 25.6583C103.74 25.0086 104.539 24.5111 105.509 24.1659C106.479 23.8208 107.551 23.5974 108.724 23.4959C109.883 23.3759 111.047 23.3149 112.212 23.3132V22.9477C112.212 22.034 111.879 21.3639 111.211 20.9375C110.564 20.4908 109.786 20.2675 108.876 20.2675C108.112 20.2666 107.356 20.4329 106.662 20.7548C105.954 21.0797 105.367 21.4756 104.902 21.9426L103.022 19.7193C103.844 18.9516 104.814 18.3604 105.874 17.9821C106.934 17.6023 108.052 17.4069 109.179 17.4046C110.474 17.4046 111.535 17.5873 112.364 17.9528C113.214 18.3183 113.88 18.7954 114.365 19.3842C114.85 19.9731 115.184 20.633 115.367 21.3639C115.569 22.0949 115.671 22.8259 115.671 23.5568V32.4502H112.272V30.5912H112.273ZM112.212 25.7802H111.393C110.806 25.7802 110.191 25.8106 109.543 25.8704C108.935 25.9041 108.333 26.0172 107.754 26.2066C107.208 26.369 106.752 26.6126 106.389 26.9375C106.025 27.2421 105.843 27.6685 105.843 28.2167C105.843 28.5619 105.914 28.8563 106.055 29.0999C106.217 29.3233 106.42 29.506 106.662 29.6482C106.905 29.7903 107.178 29.8918 107.481 29.9527C107.784 30.0136 108.088 30.043 108.39 30.043C109.645 30.043 110.594 29.7091 111.242 29.039C111.889 28.369 112.212 27.4553 112.212 26.2979V25.779V25.7802ZM119.911 17.8309H123.399V20.2675H123.46C123.84 19.4437 124.425 18.7309 125.158 18.1964C125.886 17.6685 126.735 17.4046 127.705 17.4046C127.848 17.4046 127.999 17.4147 128.16 17.435C128.322 17.435 128.465 17.4553 128.585 17.4959V20.8462C128.375 20.7916 128.162 20.7508 127.948 20.7243C127.787 20.7041 127.625 20.694 127.463 20.6939C126.634 20.6939 125.966 20.8462 125.461 21.1507C124.989 21.4234 124.585 21.798 124.278 22.2472C124.008 22.6445 123.813 23.088 123.702 23.5557C123.601 24.0035 123.55 24.3588 123.55 24.6228V32.4502H119.911V17.8309ZM134.659 9.42493V19.6888H134.75C134.933 19.4452 135.165 19.1913 135.448 18.9274C135.73 18.6634 136.064 18.4198 136.449 18.1964C136.89 17.9582 137.359 17.7741 137.844 17.6482C138.425 17.4781 139.027 17.396 139.633 17.4046C140.664 17.4046 141.615 17.6076 142.485 18.0137C143.353 18.3995 144.102 18.9375 144.73 19.6268C145.368 20.337 145.862 21.1645 146.185 22.0633C146.534 23.0303 146.709 24.0516 146.7 25.0797C146.707 26.1172 146.532 27.1479 146.185 28.1253C145.876 29.0334 145.392 29.8717 144.759 30.5923C144.133 31.2976 143.368 31.8676 142.514 32.2674C141.646 32.6735 140.654 32.8766 139.542 32.8766C138.533 32.8814 137.536 32.6521 136.632 32.2065C135.758 31.7754 135.03 31.0977 134.538 30.2573H134.477V32.4502H131.02V9.42493H134.66H134.659ZM143 25.0797C143 24.5111 142.91 23.9516 142.727 23.4045C142.574 22.8533 142.317 22.3363 141.969 21.8817C141.621 21.4315 141.175 21.0669 140.664 20.8157C140.139 20.5314 139.523 20.3893 138.814 20.3893C138.148 20.3893 137.551 20.5314 137.025 20.8157C136.5 21.1 136.044 21.4655 135.66 21.9121C135.291 22.3672 135.004 22.8824 134.811 23.435C134.632 23.9859 134.54 24.5613 134.538 25.1406C134.538 25.7091 134.628 26.2776 134.811 26.8461C135.014 27.3944 135.296 27.8918 135.66 28.3385C136.044 28.7852 136.5 29.1507 137.025 29.435C137.551 29.6989 138.148 29.8298 138.814 29.8298C139.523 29.8298 140.139 29.6888 140.664 29.4045C141.172 29.1357 141.617 28.762 141.969 28.3081C142.312 27.8614 142.565 27.3538 142.727 26.7852C142.907 26.2344 142.998 25.659 143 25.0797ZM150.273 17.8309H153.912V32.4502H150.273V17.8309ZM149.756 12.8665C149.756 12.2777 149.968 11.7701 150.392 11.3437C150.838 10.897 151.394 10.6737 152.062 10.6737C152.727 10.6737 153.285 10.8869 153.729 11.3132C154.194 11.7193 154.426 12.2371 154.426 12.8665C154.426 13.4959 154.194 14.0239 153.729 14.4502C153.285 14.8563 152.728 15.0594 152.061 15.0594C151.394 15.0594 150.838 14.8451 150.392 14.4198C150.189 14.2156 150.028 13.9732 149.92 13.7066C149.81 13.4401 149.755 13.1546 149.756 12.8665ZM156.234 20.7548V17.8309H158.784V13.5975H162.362V17.8309H166V20.7548H162.361V27.5455C162.361 28.1964 162.472 28.7345 162.695 29.1609C162.937 29.5873 163.462 29.8004 164.272 29.8004C164.514 29.8004 164.777 29.7801 165.06 29.7395C165.342 29.6786 165.596 29.5974 165.818 29.4959L165.94 32.3588C165.567 32.4926 165.181 32.5845 164.787 32.6329C164.343 32.7141 163.919 32.7548 163.512 32.7548C162.542 32.7548 161.754 32.6228 161.147 32.3588C160.541 32.0746 160.055 31.6989 159.692 31.2308C159.344 30.7356 159.096 30.1773 158.963 29.5873C158.839 28.9245 158.779 28.2514 158.783 27.5771V20.7548H156.233H156.234Z" fill="#111111"/>
<g filter="url(#filter0_f_5573_78863)">
<path d="M29.3473 39.2206H12.6006L11.9171 39.2152C9.08932 39.1692 7.96456 38.8247 6.83128 38.2161C5.61083 37.5607 4.65301 36.599 4.0003 35.3735L3.86512 35.1102C3.32145 34.0074 3.02345 32.7904 3.00133 29.9313L3 12.7643C3 9.41207 3.34759 8.19648 4.0003 6.97098C4.65301 5.74548 5.61083 4.78369 6.83128 4.12828L7.09343 3.99255C8.1916 3.44663 9.40362 3.14738 12.2511 3.12517L29.3473 3.12384C32.6856 3.12384 33.8962 3.47287 35.1166 4.12828C36.3372 4.78369 37.295 5.74548 37.9477 6.97098L38.0828 7.23422C38.6265 8.33693 38.9245 9.55396 38.9466 12.4131L38.948 29.5802L38.9427 30.2666C38.8968 33.106 38.5537 34.2355 37.9477 35.3735C37.295 36.599 36.3372 37.5607 35.1166 38.2161L34.8545 38.3519C33.7125 38.9197 32.4472 39.2206 29.3473 39.2206Z" fill="#C4D3E0" fill-opacity="0.2"/>
</g>
<path d="M38.9466 21.1723V29.5803C38.9466 32.9324 38.599 34.148 37.9463 35.3735C37.2936 36.5991 36.3358 37.5609 35.1153 38.2162C33.8949 38.8716 32.6843 39.2206 29.346 39.2206H20.9727V21.1723H38.9466Z" fill="url(#paint0_linear_5573_78863)"/>
<path d="M20.9727 3.12384H29.346C32.6843 3.12384 33.8949 3.47287 35.1153 4.12828C36.3358 4.78369 37.2936 5.74547 37.9463 6.97098C38.599 8.19648 38.9466 9.41207 38.9466 12.7642V21.1722H20.9727V3.12384Z" fill="url(#paint1_linear_5573_78863)"/>
<path d="M12.6006 3.12384H20.974V39.2206H12.6006C9.26231 39.2206 8.05174 38.8715 6.83128 38.2161C5.61083 37.5607 4.65301 36.599 4.0003 35.3735C3.34759 34.1479 3 32.9323 3 29.5802V12.7643C3 9.41207 3.34759 8.19648 4.0003 6.97098C4.65301 5.74548 5.61083 4.78369 6.83128 4.12828C8.05174 3.47287 9.26231 3.12384 12.6006 3.12384Z" fill="url(#paint2_linear_5573_78863)"/>
</g>
<defs>
<filter id="filter0_f_5573_78863" x="0.28576" y="0.4096" width="41.3757" height="41.5253" filterUnits="userSpaceOnUse" color-interpolation-filters="sRGB">
<feFlood flood-opacity="0" result="BackgroundImageFix"/>
<feBlend mode="normal" in="SourceGraphic" in2="BackgroundImageFix" result="shape"/>
<feGaussianBlur stdDeviation="1.35712" result="effect1_foregroundBlur_5573_78863"/>
</filter>
<linearGradient id="paint0_linear_5573_78863" x1="29.9597" y1="21.1723" x2="39.0061" y2="39.1907" gradientUnits="userSpaceOnUse">
<stop stop-color="#DEF2FE"/>
<stop offset="1" stop-color="#DBF1FE"/>
</linearGradient>
<linearGradient id="paint1_linear_5573_78863" x1="20.9727" y1="3.12384" x2="30.0192" y2="21.1423" gradientUnits="userSpaceOnUse">
<stop stop-color="#57BCFD"/>
<stop offset="1" stop-color="#51B5FD"/>
</linearGradient>
<linearGradient id="paint2_linear_5573_78863" x1="9.74025" y1="3.12384" x2="25.1193" y2="33.7552" gradientUnits="userSpaceOnUse">
<stop stop-color="#1CA7FD"/>
<stop offset="1" stop-color="#148CFC"/>
</linearGradient>
</defs>
</svg>
