<svg width="106" height="37" viewBox="0 0 106 37" fill="none" xmlns="http://www.w3.org/2000/svg">
<g style="mix-blend-mode:luminosity" clip-path="url(#clip0_5573_78851)">
<path d="M9.37836 30.8922C9.37836 33.4199 7.33994 35.4584 4.81225 35.4584C2.28456 35.4584 0.246094 33.4199 0.246094 30.8922C0.246094 28.3645 2.28456 26.326 4.81225 26.326C7.33994 26.326 9.37836 28.3645 9.37836 30.8922Z" fill="#111111"/>
<path d="M24.6246 30.9739C24.6246 32.7678 23.1569 34.2355 21.3631 34.2355C19.5693 34.2355 18.1016 32.7678 18.1016 30.9739C18.1016 29.1801 19.5693 27.7124 21.3631 27.7124C23.1569 27.7124 24.6246 29.1801 24.6246 30.9739Z" fill="#111111"/>
<path d="M36.4471 30.9737C36.4471 31.7891 35.7948 32.4414 34.9794 32.4414C34.164 32.4414 33.5117 31.7891 33.5117 30.9737C33.5117 30.1583 34.164 29.506 34.9794 29.506C35.7948 29.506 36.4471 30.1583 36.4471 30.9737Z" fill="#111111"/>
<path d="M20.4667 21.2708C19.6513 21.2708 19.0805 20.6185 19.0805 19.8846V13.8508C19.0805 11.8123 18.102 10.1816 15.9005 10.1816C13.699 10.1816 12.3128 11.8939 12.3128 13.8508V19.8031C12.3128 20.6185 11.742 21.1893 10.9266 21.1893C10.1113 21.1893 9.5405 20.5369 9.5405 19.8031V13.7693C9.5405 11.7308 8.4805 10.1 6.27896 10.1C3.99588 10.1 2.85434 11.8123 2.85434 13.7693V19.7216C2.85434 20.5369 2.28357 21.1077 1.46819 21.1077C0.652801 21.1077 0.0820312 20.4554 0.0820312 19.7216V9.2031C0.0820312 8.38772 0.652801 7.73541 1.46819 7.73541C2.44665 7.73541 2.85434 8.38772 2.85434 9.2031V10.1816C3.66973 8.63233 5.3005 7.65387 7.09434 7.65387C9.21434 7.65387 10.8451 8.71387 11.6605 10.3446C12.802 8.55079 14.5143 7.65387 16.6343 7.65387C20.222 7.65387 22.0159 10.1816 22.0159 13.6877V19.8846C21.9343 20.6185 21.3636 21.2708 20.4667 21.2708Z" fill="#111111"/>
<path d="M25.8476 21.2709C25.0322 21.2709 24.4614 20.6186 24.4614 19.8847V9.20318C24.4614 8.38779 25.0322 7.81703 25.8476 7.81703C26.663 7.81703 27.2337 8.46933 27.2337 9.20318V19.8847C27.2337 20.6186 26.663 21.2709 25.8476 21.2709ZM25.8476 2.43549C26.7445 2.43549 27.4783 3.16933 27.4783 4.06626C27.4783 4.96318 26.7445 5.69702 25.8476 5.69702C24.9506 5.69702 24.2168 4.96318 24.2168 4.06626C24.2168 3.16933 24.9506 2.43549 25.8476 2.43549Z" fill="#111111"/>
<path d="M35.1432 12.6274L38.7309 8.22434C38.9755 7.97973 39.3017 7.81665 39.6279 7.81665C40.4432 7.81665 40.9325 8.30588 40.9325 9.03973C40.9325 9.28434 40.8509 9.6105 40.6063 9.85511L36.6925 14.5028L40.6879 19.232C40.9325 19.4767 41.014 19.7213 41.014 20.0474C41.014 20.6997 40.4432 21.2705 39.7909 21.2705C39.3832 21.2705 39.0571 21.1074 38.8125 20.7813L35.2248 16.2967L31.6371 20.7813C31.3925 21.1074 31.0663 21.2705 30.6586 21.2705C30.0063 21.2705 29.4355 20.6997 29.4355 20.0474C29.4355 19.7213 29.5171 19.4767 29.7617 19.232L33.7571 14.5028L29.8432 9.85511C29.5986 9.6105 29.5171 9.28434 29.5171 9.03973C29.5171 8.30588 30.0063 7.81665 30.8217 7.81665C31.2294 7.81665 31.474 7.97973 31.7186 8.22434L35.1432 12.6274Z" fill="#111111"/>
<path d="M49.9005 10.0186C47.4544 10.0186 45.9051 12.1386 45.9051 14.5847C45.9051 16.9493 47.5359 19.1509 49.9005 19.1509C52.3467 19.1509 53.8959 17.357 53.8959 14.5847C53.8959 11.8124 52.3467 10.0186 49.9005 10.0186ZM50.4713 21.4339C48.4328 21.4339 46.802 20.3739 45.9051 18.8247V25.5109C45.9051 26.3262 45.3344 26.897 44.519 26.897C43.7036 26.897 43.1328 26.2447 43.1328 25.5109V9.20317C43.1328 8.38778 43.622 7.81701 44.4374 7.81701C45.2528 7.81701 45.8236 8.46932 45.8236 9.2847V10.3447C46.7205 8.79547 48.5144 7.73547 50.4713 7.73547C53.8959 7.73547 56.6682 10.5893 56.6682 14.5847C56.6682 18.6616 53.8959 21.4339 50.4713 21.4339Z" fill="#111111"/>
<path d="M64.6598 10.1001C62.2952 10.1001 60.5828 12.1386 60.5828 14.5847C60.5828 17.1939 61.969 19.0693 64.6598 19.0693C67.1059 19.0693 68.7367 16.9493 68.7367 14.5847C68.6552 11.7309 67.0244 10.1001 64.6598 10.1001ZM71.509 19.8847C71.509 20.7001 70.9382 21.2709 70.1229 21.2709C69.3075 21.2709 68.7367 20.6186 68.7367 19.8847V19.2324C67.9213 20.4555 66.2905 21.4339 64.4152 21.4339C60.2567 21.4339 57.8105 18.3355 57.8105 14.5847C57.8105 10.8339 60.5013 7.73547 64.7413 7.73547C69.0629 7.73547 71.5905 10.5893 71.5905 14.5847V19.8847H71.509Z" fill="#111111"/>
<path d="M79.9063 7.65387C83.4939 7.65387 86.1847 10.4262 86.1847 13.9323V19.8846C86.1847 20.7 85.5324 21.2708 84.7985 21.2708C83.9831 21.2708 83.4124 20.6185 83.4124 19.8846V13.6062C83.4124 11.7308 81.9447 10.2631 79.9878 10.2631C78.0309 10.2631 76.5632 11.7308 76.5632 13.6062V19.8846C76.5632 20.7 75.9109 21.2708 75.1771 21.2708C74.3617 21.2708 73.7909 20.6185 73.7909 19.8846V13.9323C73.7094 10.4262 76.3186 7.65387 79.9063 7.65387Z" fill="#111111"/>
<path d="M94.5846 9.93695C92.5461 9.93695 91.16 11.4046 90.8338 13.28H98.1723C97.9277 11.4046 96.6231 9.93695 94.5846 9.93695ZM100.782 14.5846C100.782 15.0739 100.537 15.5631 99.7215 15.5631H90.8338C90.9969 17.6016 92.3831 19.1508 94.8292 19.1508C96.3784 19.1508 97.2754 18.58 98.2538 17.6831C98.4984 17.4385 98.8246 17.1939 99.1507 17.1939C99.803 17.1939 100.292 17.6831 100.292 18.3354C100.292 18.6616 100.129 18.9062 99.9661 19.1508C98.8246 20.4554 96.7861 21.3523 94.6661 21.3523C90.1815 21.3523 87.8984 18.2539 87.8984 14.5031C87.8984 10.5893 90.7523 7.65387 94.5846 7.65387C98.3354 7.65387 100.782 10.7523 100.782 14.5846Z" fill="#111111"/>
<path d="M104.124 21.2705C103.309 21.2705 102.738 20.6182 102.738 19.8844V2.27208C102.738 1.45669 103.309 0.885925 104.124 0.885925C104.94 0.885925 105.511 1.53823 105.511 2.27208V19.8844C105.511 20.6182 104.94 21.2705 104.124 21.2705Z" fill="#111111"/>
</g>
<defs>
<clipPath id="clip0_5573_78851">
<rect width="106" height="35.8769" fill="white" transform="translate(0 0.233765)"/>
</clipPath>
</defs>
</svg>
