<svg width="232" height="37" viewBox="0 0 232 37" fill="none" xmlns="http://www.w3.org/2000/svg">
<g style="mix-blend-mode:luminosity">
<mask id="mask0_5573_78814" style="mask-type:alpha" maskUnits="userSpaceOnUse" x="35" y="13" width="20" height="23">
<path d="M47.0322 13.1277L53.5224 27.7193C54.8357 30.6721 53.5091 34.1315 50.5592 35.4462C47.6094 36.7608 44.1534 35.4329 42.84 32.4801L37.5934 20.6846L35.2812 26.1371V13.1277H47.0322V13.1277Z" fill="white"/>
</mask>
<g mask="url(#mask0_5573_78814)">
<path d="M47.0322 13.1277L53.5224 27.7193C54.8357 30.6721 53.5091 34.1315 50.5592 35.4462C47.6094 36.7608 44.1534 35.4329 42.84 32.4801L37.5934 20.6846L35.2812 26.1371V13.1277H47.0322V13.1277Z" fill="#2AA8FF"/>
</g>
<mask id="mask1_5573_78814" style="mask-type:alpha" maskUnits="userSpaceOnUse" x="36" y="14" width="14" height="10">
<path d="M47.7344 14.7092L49.0773 17.7282C48.2662 17.4461 47.3948 17.2929 46.4876 17.2929C42.7405 17.2929 39.6043 19.9078 38.8054 23.4119L37.5923 20.6846L36.3066 23.7164L36.3066 14.7092H47.7344Z" fill="white"/>
</mask>
<g mask="url(#mask1_5573_78814)">
<path d="M47.7344 14.7091L49.0773 17.7281C48.2662 17.4461 47.3948 17.2928 46.4876 17.2928C42.7405 17.2928 39.6043 19.9078 38.8054 23.4119L37.5923 20.6845L36.3066 23.7163L36.3066 14.7091H47.7344Z" fill="#393939" fill-opacity="0.2"/>
</g>
<mask id="mask2_5573_78814" style="mask-type:alpha" maskUnits="userSpaceOnUse" x="3" y="0" width="26" height="24">
<path d="M28.2036 12.8715V23.2045H17.3913L16.2704 20.6846L15.2019 23.2045H3.24219V21.4512L10.738 3.77485C11.686 1.53923 13.8596 0.199717 16.1427 0.207677C18.3888 0.199848 20.5352 1.49529 21.5074 3.68113L26.9305 15.8736L28.2036 12.8715Z" fill="white"/>
</mask>
<g mask="url(#mask2_5573_78814)">
<path d="M28.2036 12.8715V23.2044H17.3913L16.2704 20.6845L15.2019 23.2044H3.24219V21.4511L10.738 3.77479C11.686 1.53917 13.8596 0.199656 16.1427 0.207616C18.3888 0.199787 20.5352 1.49523 21.5074 3.68107L26.9305 15.8736L28.2036 12.8715Z" fill="#017ACE"/>
</g>
<mask id="mask3_5573_78814" style="mask-type:alpha" maskUnits="userSpaceOnUse" x="16" y="0" width="34" height="37">
<path d="M26.921 15.856L26.9288 15.8736L32.0594 3.77485C33.0074 1.53923 35.181 0.199717 37.4642 0.207677C39.7102 0.199848 41.8566 1.49529 42.8289 3.68113L49.0714 17.7159C47.8125 16.6277 46.1723 15.9696 44.3786 15.9696C41.2619 15.9696 38.6088 17.9564 37.6139 20.734L37.5919 20.6846L32.552 32.5696C31.2903 35.5449 27.8579 36.933 24.8856 35.6701C24.5948 35.5465 24.3192 35.4022 24.0597 35.2395C22.9697 34.6462 22.0589 33.7024 21.5153 32.4801L16.2891 20.7303C17.0758 20.9558 17.9067 21.0765 18.7658 21.0765C22.3808 21.0765 25.4969 18.9382 26.921 15.856Z" fill="white"/>
</mask>
<g mask="url(#mask3_5573_78814)">
<path d="M26.921 15.8559L26.9288 15.8736L32.0594 3.77479C33.0074 1.53917 35.181 0.199656 37.4642 0.207616C39.7102 0.199787 41.8566 1.49523 42.8289 3.68107L49.0714 17.7158C47.8125 16.6277 46.1723 15.9696 44.3786 15.9696C41.2619 15.9696 38.6088 17.9564 37.6139 20.7339L37.5919 20.6845L32.552 32.5696C31.2903 35.5448 27.8579 36.933 24.8856 35.67C24.5948 35.5465 24.3192 35.4021 24.0597 35.2394C22.9697 34.6461 22.0589 33.7023 21.5153 32.4801L16.2891 20.7302C17.0758 20.9557 17.9067 21.0765 18.7658 21.0765C22.3808 21.0765 25.4969 18.9381 26.921 15.8559Z" fill="#AEDEFF"/>
</g>
<mask id="mask4_5573_78814" style="mask-type:alpha" maskUnits="userSpaceOnUse" x="2" y="15" width="15" height="16">
<path d="M16.2364 20.761L12.4728 29.6362C11.5549 30.058 10.5321 30.2929 9.4539 30.2929C5.6716 30.2929 2.57181 27.4026 2.28906 23.6949L4.87189 17.6042C6.11564 16.5733 7.71243 15.9537 9.4539 15.9537C12.5885 15.9537 15.2543 17.9612 16.2364 20.761Z" fill="white"/>
</mask>
<g mask="url(#mask4_5573_78814)">
<path d="M16.2364 20.761L12.4728 29.6362C11.5549 30.0579 10.5321 30.2928 9.4539 30.2928C5.6716 30.2928 2.57181 27.4026 2.28906 23.6949L4.87189 17.6041C6.11564 16.5732 7.71243 15.9536 9.4539 15.9536C12.5885 15.9536 15.2543 17.9612 16.2364 20.761Z" fill="#111111"/>
</g>
<mask id="mask5_5573_78814" style="mask-type:alpha" maskUnits="userSpaceOnUse" x="0" y="17" width="16" height="20">
<path d="M15.1329 23.366L11.2301 32.5696C9.96838 35.5449 6.53604 36.933 3.5637 35.6701C0.591368 34.4072 -0.79539 30.9715 0.46629 27.9962L4.80006 17.7764C5.71744 17.3699 6.73207 17.1442 7.7992 17.1442C11.4833 17.1442 14.5418 19.8347 15.1329 23.366Z" fill="white"/>
</mask>
<g mask="url(#mask5_5573_78814)">
<path d="M15.1329 23.366L11.2301 32.5696C9.96838 35.5448 6.53604 36.933 3.5637 35.67C0.591368 34.4071 -0.79539 30.9714 0.46629 27.9961L4.80006 17.7763C5.71744 17.3698 6.73207 17.1441 7.7992 17.1441C11.4833 17.1441 14.5418 19.8346 15.1329 23.366Z" fill="#393939"/>
</g>
<path d="M86.657 9.21667V27.1971C86.657 27.4737 86.4329 27.698 86.1565 27.698H82.6529C82.3765 27.698 82.1524 27.4737 82.1524 27.1971V16.7831C82.1524 16.5064 81.9283 16.2822 81.6519 16.2822C81.4874 16.2822 81.3335 16.363 81.2401 16.4984L77.9972 21.1961C77.9038 21.3315 77.7498 21.4123 77.5854 21.4123H75.8605C75.6948 21.4123 75.5399 21.3303 75.4467 21.1931L72.3057 16.5721C72.1502 16.3434 71.8389 16.2841 71.6104 16.4396C71.4734 16.5329 71.3913 16.6879 71.3913 16.8538V27.1971C71.3913 27.4737 71.1673 27.698 70.8908 27.698H67.3872C67.1108 27.698 66.8867 27.4737 66.8867 27.1971V9.21667C66.8867 8.94005 67.1108 8.71582 67.3872 8.71582H71.8245C71.9917 8.71582 72.1478 8.79936 72.2407 8.9385L76.3556 15.1041C76.5092 15.3341 76.82 15.396 77.0498 15.2424C77.1046 15.2058 77.1515 15.1588 77.1881 15.1041L81.303 8.9385C81.3959 8.79936 81.5521 8.71582 81.7193 8.71582H86.1565C86.4329 8.71582 86.657 8.94005 86.657 9.21667ZM92.7986 21.9633C92.9821 22.7646 93.3616 23.3907 93.9372 23.8414C94.5128 24.2922 95.3595 24.5176 96.4773 24.5176C97.128 24.5176 97.7495 24.4383 98.3418 24.2797C98.6646 24.1932 99.1779 23.9961 99.8817 23.6884C100.135 23.5776 100.43 23.6933 100.541 23.9468C100.547 23.9602 100.552 23.974 100.557 23.9879L101.365 26.3979C101.447 26.6405 101.332 26.9055 101.1 27.0124C100.151 27.4488 99.428 27.7233 98.9299 27.8357C98.079 28.0277 97.0613 28.1237 95.8767 28.1237C94.225 28.1237 92.8194 27.8107 91.6599 27.1846C90.5004 26.5585 89.6203 25.6779 89.0197 24.5426C88.4191 23.4074 88.1188 22.0885 88.1188 20.5859C88.1188 19.0166 88.4274 17.6685 89.0447 16.5416C89.662 15.4147 90.4962 14.5632 91.5473 13.9872C92.5984 13.4113 93.7746 13.1233 95.0759 13.1233C97.1614 13.1233 98.7964 13.7285 99.9809 14.9389C101.165 16.1492 101.758 17.9147 101.758 20.2353V21.4624C101.758 21.739 101.534 21.9633 101.257 21.9633H92.7986ZM95.0759 16.7294C94.4753 16.7294 93.9873 16.8796 93.6119 17.1802C93.3398 17.4295 93.1363 17.7158 93.0015 18.039C92.895 18.2943 93.0155 18.5876 93.2706 18.6941C93.3317 18.7196 93.3972 18.7328 93.4634 18.7328H96.5903C96.8667 18.7328 97.0908 18.5085 97.0908 18.2319C97.0908 18.1883 97.0851 18.1449 97.0739 18.1027C96.9704 17.7147 96.8007 17.4155 96.5649 17.2052C96.185 16.8916 95.7266 16.7294 95.0759 16.7294ZM120.404 13.2235C122.206 13.2235 123.553 13.6993 124.445 14.6509C125.338 15.6025 125.784 17.1134 125.784 19.1835V27.1971C125.784 27.4737 125.56 27.698 125.284 27.698H121.93C121.654 27.698 121.43 27.4737 121.43 27.1971V19.1835C121.43 18.499 121.28 17.9773 120.979 17.6184C120.679 17.2595 120.162 17.08 119.428 17.08C118.527 17.08 117.609 17.4807 116.675 18.282C116.692 18.4657 116.7 18.7662 116.7 19.1835V27.1971C116.7 27.4737 116.476 27.698 116.2 27.698H112.846C112.57 27.698 112.346 27.4737 112.346 27.1971V19.1835C112.346 18.499 112.195 17.9773 111.895 17.6184C111.595 17.2595 111.078 17.08 110.344 17.08C109.459 17.08 108.55 17.464 107.616 18.2319V27.1971C107.616 27.4737 107.392 27.698 107.115 27.698H103.762C103.485 27.698 103.261 27.4737 103.261 27.1971V14.0248C103.261 13.7482 103.485 13.524 103.762 13.524H107.115C107.392 13.524 107.616 13.7482 107.616 14.0248V14.6258C108.2 14.1417 108.788 13.7869 109.38 13.5615C109.972 13.3361 110.619 13.2235 111.32 13.2235C113.538 13.2235 115.057 13.933 115.874 15.3521C116.625 14.6175 117.355 14.0791 118.064 13.7368C118.773 13.3946 119.553 13.2235 120.404 13.2235ZM135.672 13.1233C136.94 13.1233 138.062 13.4029 139.038 13.9622C140.014 14.5215 140.782 15.3646 141.341 16.4915C141.899 17.6184 142.179 18.9915 142.179 20.611C142.179 22.2471 141.899 23.6286 141.341 24.7555C140.782 25.8824 140.014 26.7255 139.038 27.2848C138.062 27.844 136.94 28.1237 135.672 28.1237C134.321 28.1237 133.053 27.6729 131.868 26.7714V27.1971C131.868 27.4737 131.644 27.698 131.368 27.698H128.014C127.738 27.698 127.514 27.4737 127.514 27.1971V7.01293C127.514 6.73632 127.738 6.51208 128.014 6.51208H131.368C131.644 6.51208 131.868 6.73632 131.868 7.01293V14.4756C133.053 13.574 134.321 13.1233 135.672 13.1233ZM134.721 24.2672C135.689 24.2672 136.419 23.9583 136.911 23.3406C137.403 22.7229 137.649 21.813 137.649 20.611C137.649 19.4256 137.403 18.5241 136.911 17.9064C136.419 17.2887 135.689 16.9798 134.721 16.9798C133.77 16.9798 132.819 17.3221 131.868 18.0066V23.2404C132.819 23.9249 133.77 24.2672 134.721 24.2672ZM147.695 21.9633C147.878 22.7646 148.258 23.3907 148.833 23.8414C149.409 24.2922 150.256 24.5176 151.374 24.5176C152.024 24.5176 152.646 24.4383 153.238 24.2797C153.561 24.1932 154.074 23.9961 154.778 23.6884C155.031 23.5776 155.326 23.6933 155.437 23.9468C155.443 23.9602 155.448 23.974 155.453 23.9879L156.262 26.3979C156.343 26.6405 156.229 26.9055 155.996 27.0124C155.048 27.4488 154.324 27.7233 153.826 27.8357C152.975 28.0277 151.958 28.1237 150.773 28.1237C149.121 28.1237 147.716 27.8107 146.556 27.1846C145.397 26.5585 144.517 25.6779 143.916 24.5426C143.315 23.4074 143.015 22.0885 143.015 20.5859C143.015 19.0166 143.324 17.6685 143.941 16.5416C144.558 15.4147 145.392 14.5632 146.444 13.9872C147.495 13.4113 148.671 13.1233 149.972 13.1233C152.058 13.1233 153.693 13.7285 154.877 14.9389C156.062 16.1492 156.654 17.9147 156.654 20.2353V21.4624C156.654 21.739 156.43 21.9633 156.153 21.9633H147.695ZM149.972 16.7294C149.372 16.7294 148.884 16.8796 148.508 17.1802C148.236 17.4295 148.033 17.7158 147.898 18.039C147.791 18.2943 147.912 18.5876 148.167 18.6941C148.228 18.7196 148.293 18.7328 148.36 18.7328H151.487C151.763 18.7328 151.987 18.5085 151.987 18.2319C151.987 18.1883 151.981 18.1449 151.97 18.1027C151.867 17.7147 151.697 17.4155 151.461 17.2052C151.081 16.8916 150.623 16.7294 149.972 16.7294ZM166.981 13.7243V16.5791C166.981 16.8557 166.757 17.08 166.481 17.08H166.406C166.27 17.08 166.134 17.0851 165.999 17.0953C164.85 17.1821 163.701 17.636 162.552 18.4573V27.1971C162.552 27.4737 162.328 27.698 162.051 27.698H158.698C158.421 27.698 158.197 27.4737 158.197 27.1971V14.0248C158.197 13.7482 158.421 13.524 158.698 13.524H162.051C162.328 13.524 162.552 13.7482 162.552 14.0248V14.7761C163.169 14.2585 163.79 13.8704 164.416 13.6116C164.995 13.3721 165.606 13.2434 166.25 13.2256C166.302 13.2242 166.354 13.2235 166.406 13.2235H166.481C166.757 13.2235 166.981 13.4477 166.981 13.7243ZM173.74 28.1237C172.555 28.1237 171.508 28.0277 170.599 27.8357C170.051 27.72 169.489 27.5543 168.914 27.3385C168.713 27.2629 168.427 27.1433 168.057 26.9797C167.876 26.8995 167.759 26.7199 167.759 26.5216V23.8343C167.759 23.5577 167.983 23.3335 168.259 23.3335C168.336 23.3335 168.411 23.3511 168.48 23.3849C168.667 23.4769 168.824 23.5499 168.951 23.6041C169.51 23.8429 170.072 24.0306 170.637 24.167C171.604 24.4007 172.639 24.5176 173.74 24.5176C174.824 24.5176 175.366 24.192 175.366 23.5409C175.366 23.2738 175.291 23.0735 175.141 22.9399C174.991 22.8063 174.749 22.6978 174.415 22.6144L171.988 22.1135C170.57 21.8297 169.535 21.3455 168.885 20.661C168.234 19.9766 167.909 19.0416 167.909 17.8563C167.909 16.2536 168.405 15.0641 169.398 14.2878C170.39 13.5114 171.896 13.1233 173.915 13.1233C174.749 13.1233 175.621 13.2068 176.53 13.3737C177.051 13.4693 177.556 13.5813 178.047 13.7097C178.225 13.7564 178.464 13.8251 178.764 13.9158C178.976 13.9797 179.12 14.1744 179.12 14.3953V16.9867C179.12 17.2633 178.896 17.4875 178.62 17.4875C178.559 17.4875 178.5 17.4766 178.443 17.4553C178.317 17.4078 178.206 17.3686 178.109 17.3376C177.711 17.211 177.277 17.1001 176.805 17.0049C175.896 16.8212 175.008 16.7294 174.14 16.7294C173.456 16.7294 172.981 16.7962 172.714 16.9297C172.447 17.0633 172.313 17.272 172.313 17.5558C172.313 17.7728 172.38 17.9272 172.513 18.0191C172.647 18.1109 172.872 18.1902 173.189 18.257L175.617 18.7578C177.085 19.0583 178.144 19.5508 178.795 20.2353C179.446 20.9198 179.771 21.9382 179.771 23.2905C179.771 24.9099 179.229 26.1203 178.144 26.9216C177.06 27.723 175.592 28.1237 173.74 28.1237ZM186.73 18.3822V22.6644C186.73 23.2154 186.821 23.6035 187.005 23.8289C187.188 24.0543 187.522 24.167 188.006 24.167C188.324 24.167 188.623 24.1447 188.902 24.1C188.903 24.1 188.903 24.1 188.903 24.0999C189.176 24.0562 189.432 24.2422 189.476 24.5154C189.48 24.5415 189.482 24.568 189.482 24.5945V27.2626C189.482 27.502 189.313 27.7079 189.078 27.7541C189.056 27.7584 189.036 27.7623 189.018 27.7659C188.648 27.8375 188.324 27.8941 188.043 27.9359C187.651 27.9943 187.23 28.0235 186.78 28.0235C185.295 28.0235 184.19 27.698 183.464 27.0469C182.738 26.3958 182.375 25.4608 182.375 24.2421V18.3822C182.375 18.1056 182.151 17.8813 181.875 17.8813H180.924C180.647 17.8813 180.423 17.6571 180.423 17.3805V14.5257C180.423 14.249 180.647 14.0248 180.924 14.0248H181.875C182.151 14.0248 182.375 13.8006 182.375 13.524V9.7676C182.375 9.49099 182.599 9.26675 182.876 9.26675H186.229C186.506 9.26675 186.73 9.49099 186.73 9.7676V13.524C186.73 13.8006 186.954 14.0248 187.23 14.0248H189.432C189.709 14.0248 189.933 14.249 189.933 14.5257V17.3805C189.933 17.6571 189.709 17.8813 189.432 17.8813H187.23C186.954 17.8813 186.73 18.1056 186.73 18.3822ZM197.058 13.524C198.893 13.524 200.29 13.7702 201.249 14.2627C202.209 14.7552 202.847 15.4105 203.164 16.2285C203.481 17.0466 203.639 18.09 203.639 19.3588V27.1971C203.639 27.4737 203.415 27.698 203.139 27.698H199.785C199.509 27.698 199.285 27.4737 199.285 27.1971V26.546C198.701 27.0803 198.125 27.4601 197.558 27.6854C196.991 27.9108 196.365 28.0235 195.681 28.0235C194.08 28.0235 192.824 27.602 191.915 26.7589C191.006 25.9158 190.551 24.743 190.551 23.2404C190.551 21.7212 191.014 20.5525 191.94 19.7345C192.866 18.9164 194.155 18.5074 195.806 18.5074C197.174 18.5074 198.334 18.7578 199.285 19.2587C199.268 18.7912 199.197 18.4198 199.072 18.1443C198.947 17.8688 198.697 17.656 198.321 17.5057C197.946 17.3554 197.4 17.2803 196.682 17.2803H194.33C194.053 17.2803 193.829 17.0561 193.829 16.7795V14.0248C193.829 13.7482 194.053 13.524 194.33 13.524H197.058ZM195.959 24.6678C196.81 24.6678 197.702 24.2839 198.637 23.5159V22.1886C197.836 21.8046 197.027 21.6127 196.209 21.6127C195.608 21.6127 195.141 21.742 194.808 22.0008C194.474 22.2596 194.307 22.6561 194.307 23.1903C194.307 23.7413 194.449 24.1252 194.733 24.3423C195.016 24.5593 195.425 24.6678 195.959 24.6678ZM212.034 28.1237C209.698 28.107 207.913 27.4434 206.678 26.1328C205.444 24.8223 204.826 22.9733 204.826 20.5859C204.826 18.2152 205.444 16.383 206.678 15.0891C207.913 13.7952 209.698 13.14 212.034 13.1233C212.885 13.1233 213.61 13.1734 214.211 13.2735C214.584 13.3358 214.967 13.4304 215.36 13.5572C215.461 13.5897 215.595 13.6374 215.763 13.7001C215.958 13.7733 216.088 13.9603 216.088 14.1692V17.0143C216.088 17.2909 215.864 17.5152 215.587 17.5152C215.523 17.5152 215.46 17.5029 215.401 17.479C215.368 17.466 215.338 17.4543 215.311 17.4439C214.978 17.3179 214.657 17.2216 214.349 17.1551C213.806 17.0382 213.202 16.9798 212.534 16.9798C211.416 16.9965 210.607 17.3054 210.107 17.9064C209.606 18.5074 209.356 19.3922 209.356 20.5609C209.356 21.7629 209.598 22.6811 210.082 23.3155C210.566 23.95 211.341 24.2672 212.409 24.2672C213.01 24.2672 213.589 24.1753 214.148 23.9917C214.456 23.8906 214.77 23.7591 215.09 23.5973C215.165 23.5595 215.257 23.5099 215.365 23.4484C215.606 23.3121 215.911 23.3968 216.047 23.6375C216.063 23.6647 216.076 23.6933 216.086 23.7229L216.979 26.3503C217.058 26.5812 216.959 26.8351 216.745 26.9516C216.542 27.062 216.377 27.1469 216.251 27.2061C214.951 27.8178 213.545 28.1237 212.034 28.1237ZM223.597 22.9649L222.446 24.192V27.1971C222.446 27.4737 222.222 27.698 221.945 27.698H218.592C218.316 27.698 218.091 27.4737 218.091 27.1971V7.01293C218.091 6.73632 218.316 6.51208 218.592 6.51208H221.776H221.945C222.222 6.51208 222.446 6.73632 222.446 7.01293V7.17016V18.7578L226.727 14.1833C226.822 14.0822 226.954 14.0248 227.092 14.0248H230.919C231.195 14.0248 231.419 14.249 231.419 14.5257C231.419 14.6536 231.37 14.7767 231.283 14.8697L226.45 19.9849L231.892 26.8869C232.063 27.1041 232.026 27.419 231.809 27.5903C231.721 27.66 231.611 27.698 231.499 27.698H227.569C227.415 27.698 227.271 27.6277 227.176 27.5072L223.597 22.9649Z" fill="#192A33"/>
</g>
</svg>
