<svg width="26" height="26" viewBox="0 0 26 26" fill="none" xmlns="http://www.w3.org/2000/svg">
<path fill-rule="evenodd" clip-rule="evenodd" d="M13 25.5205C19.92 25.5205 25.52 19.9205 25.52 13.0005C25.52 6.08047 19.92 0.480469 13 0.480469C6.07998 0.480469 0.47998 6.08047 0.47998 13.0005C0.47998 19.9205 6.07998 25.5205 13 25.5205ZM1.23998 13.0005C1.23998 6.48047 6.47998 1.24047 13 1.24047C19.52 1.24047 24.76 6.48047 24.76 13.0005C24.76 19.4805 19.52 24.7605 13 24.7605C6.51998 24.7605 1.23998 19.5205 1.23998 13.0005Z" fill="url(#paint0_linear_5121_53582)"/>
<path fill-rule="evenodd" clip-rule="evenodd" d="M1.24023 12.9983C1.24023 6.47828 6.48023 1.23828 13.0002 1.23828C19.5202 1.23828 24.7602 6.47828 24.7602 12.9983C24.7602 19.4783 19.5202 24.7583 13.0002 24.7583C6.52023 24.7583 1.24023 19.5183 1.24023 12.9983ZM2.00023 12.9983C2.00023 19.0783 6.92024 23.9983 13.0002 23.9983C19.0802 23.9983 24.0002 19.0783 24.0002 12.9983C24.0002 6.91828 19.0802 1.99828 13.0002 1.99828C6.92024 1.99828 2.00023 6.91828 2.00023 12.9983Z" fill="url(#paint1_linear_5121_53582)"/>
<path opacity="0.4" fill-rule="evenodd" clip-rule="evenodd" d="M25.8002 12.9992C25.8002 5.95922 20.0402 0.199219 13.0002 0.199219C5.9602 0.199219 0.200195 5.95922 0.200195 12.9992C0.200195 20.0392 5.9602 25.7992 13.0002 25.7992C20.0402 25.7992 25.8002 20.0392 25.8002 12.9992ZM25.5202 12.9992C25.5202 19.9192 19.9202 25.5192 13.0002 25.5192C6.0802 25.5192 0.480195 19.9192 0.480195 12.9992C0.480195 6.07922 6.0802 0.479219 13.0002 0.479219C19.9202 0.479219 25.5202 6.07922 25.5202 12.9992Z" fill="url(#paint2_linear_5121_53582)"/>
<path fill-rule="evenodd" clip-rule="evenodd" d="M13.0001 1.07812C6.40008 1.07812 1.08008 6.47812 1.08008 13.0381C1.08008 19.5981 6.40008 24.9181 13.0001 24.9181C19.6001 24.9181 24.9201 19.5981 24.9201 13.0381C24.9201 6.43812 19.6001 1.07812 13.0001 1.07812ZM1.36008 13.0381C1.36008 9.83812 2.68008 6.91812 4.80008 4.79812C6.88008 2.67812 9.80008 1.35813 13.0001 1.35813C16.2001 1.35813 19.1201 2.67812 21.2001 4.79812C23.2801 6.91812 24.6001 9.83812 24.6001 13.0381C24.6001 16.2381 23.3201 19.1581 21.2001 21.2381C19.1201 23.3581 16.2001 24.6381 13.0001 24.6381C9.80008 24.6381 6.88008 23.3181 4.76008 21.2381C2.68008 19.1581 1.36008 16.2381 1.36008 13.0381Z" fill="white"/>
<path opacity="0.4" fill-rule="evenodd" clip-rule="evenodd" d="M5.19996 20.8009C7.27996 22.8809 10.04 24.0409 13 24.0409C15.96 24.0409 18.72 22.8809 20.8 20.8009C22.88 18.7209 24.04 15.9609 24.04 13.0009C24.04 10.0409 22.88 7.28094 20.8 5.20094C18.72 3.12094 15.96 1.96094 13 1.96094C10.04 1.96094 7.27996 3.12094 5.19996 5.20094C3.11996 7.28094 1.95996 10.0409 1.95996 13.0009C1.95996 15.9609 3.11996 18.7209 5.19996 20.8009ZM20.56 20.6009C18.56 22.6009 15.84 23.7209 13 23.7209C10.16 23.7209 7.43996 22.6009 5.39996 20.5609C3.39996 18.5609 2.27996 15.8409 2.27996 13.0009C2.27996 10.1609 3.39996 7.44094 5.43996 5.48094C7.43996 3.48094 10.16 2.36094 13 2.36094C15.84 2.36094 18.52 3.44094 20.56 5.48094C22.56 7.48094 23.68 10.2009 23.68 13.0409C23.68 15.8809 22.6 18.5609 20.56 20.6009Z" fill="url(#paint3_linear_5121_53582)"/>
<path d="M22.7201 18.2006C22.5201 18.0406 14.8001 11.9206 14.8001 11.9206L13.0001 1.64062C12.8801 1.68063 12.7201 1.80063 12.6401 1.96063L11.3601 11.9606L3.40012 18.0806C3.40012 18.0806 3.24012 18.2806 3.16012 18.4006C3.12012 18.4806 3.12012 18.6006 3.12012 18.7206L12.9601 14.6806L22.8001 18.7206C22.8801 18.5206 22.8001 18.3206 22.7201 18.2006Z" fill="white"/>
<path d="M13.08 13.3183L13 15.1583L22.04 18.7983C22.36 18.9583 22.6 18.8783 22.84 18.7183L13.2 13.2783C13.16 13.2383 13.08 13.2783 13.08 13.3183Z" fill="#565F64"/>
<path d="M13.0801 13.3183C13.0801 13.3183 13.6001 14.2383 14.2001 14.8783C15.0401 15.7983 16.1601 16.4383 16.1601 16.4383L22.0401 18.7983C22.3601 18.9583 22.6001 18.8783 22.8401 18.7183L13.2001 13.2783C13.1601 13.2383 13.0801 13.2783 13.0801 13.3183Z" fill="url(#paint4_linear_5121_53582)"/>
<path d="M22.8004 18.3602C22.8004 18.3202 22.7604 18.2802 22.7204 18.2002L14.4804 12.1602L13.3604 12.8802C13.3604 12.8802 13.4404 12.9202 13.4804 12.8802C13.6004 12.8402 13.8404 12.8002 14.0804 12.8802C14.2804 12.9602 22.8004 18.4002 22.8004 18.3602C22.8004 18.4002 22.8004 18.4002 22.8004 18.3602Z" fill="#A4AAAE" fill-opacity="0.6"/>
<path d="M22.52 17.998L14.84 11.918L14.48 12.158L22.72 18.238C22.68 18.158 22.6 18.078 22.52 17.998Z" fill="#333E46"/>
<path d="M13.2 12.7197L13.16 12.7597C13.16 12.7597 13.16 12.8397 13.24 12.7997C13.28 12.7597 14.44 12.1597 14.84 11.9197L13.44 2.31969C13.4 1.95969 13.24 1.79969 12.96 1.67969L13.12 12.7997L13.2 12.7197Z" fill="#565F64"/>
<path fill-rule="evenodd" clip-rule="evenodd" d="M12.5202 2.83891V2.31891C12.5602 2.11891 12.6002 1.95891 12.7202 1.87891L12.6802 2.63891L12.3202 12.3989L11.8002 11.9989C11.6802 11.9189 11.6402 11.7989 11.6402 11.6789L12.5202 2.83891ZM11.5602 12.1589L12.0402 12.5589C12.1602 12.6789 12.1202 12.7589 11.9602 12.8389L3.44016 18.1989L3.16016 18.3589C3.20016 18.1989 3.44016 18.0389 3.44016 18.0389L11.5602 12.1589Z" fill="#A4AAAE" fill-opacity="0.6"/>
<path d="M12.8801 13.3183C12.8801 13.2783 12.8401 13.2383 12.8001 13.2783L3.12012 18.7583C3.36012 18.9183 3.60012 18.9583 3.92012 18.8383L12.9601 15.1983L12.8801 13.3183Z" fill="#565F64"/>
<path d="M13.1602 12.7609L13.2002 12.7209L13.1602 12.7609C13.1602 12.7609 13.1602 12.8009 13.2002 12.8009H13.2402C13.2802 12.7609 14.4402 12.1609 14.8402 11.9209L14.6802 10.7609L13.4402 2.32094C13.4402 2.16094 13.4002 2.04094 13.3202 1.96094C13.3202 1.96094 13.9202 10.0409 13.9202 10.9209C13.9202 12.0809 13.1602 12.7609 13.1602 12.7609H13.1602Z" fill="url(#paint5_linear_5121_53582)"/>
<path d="M12.8801 13.3183C12.8801 13.2783 12.8401 13.2383 12.8001 13.2783L3.12012 18.7583C3.36012 18.9183 3.60012 18.9583 3.92012 18.8383L12.9601 15.1983L12.8801 13.3183Z" fill="url(#paint6_linear_5121_53582)" fill-opacity="0.8"/>
<path opacity="0.8" d="M3.91998 18.7984L12.96 15.1584L12.88 13.3984C12.72 13.8784 12.44 14.3984 11.68 14.7984C11.12 15.1184 5.75998 17.7584 3.83998 18.6784C3.71998 18.7584 3.55998 18.7984 3.47998 18.8384C3.63998 18.9184 3.75998 18.8784 3.91998 18.7984Z" fill="url(#paint7_linear_5121_53582)"/>
<path d="M13.2 12.7197L13.16 12.7597C13.16 12.7597 13.16 12.8397 13.24 12.7997C13.28 12.7597 14.44 12.1597 14.84 11.9197L13.44 2.31969C13.4 1.95969 13.24 1.79969 12.96 1.67969L13.12 12.7997L13.2 12.7197Z" fill="url(#paint8_linear_5121_53582)"/>
<path d="M13.2 12.7197L13.16 12.7597C13.16 12.7597 13.16 12.8397 13.24 12.7997C13.28 12.7597 14.44 12.1597 14.84 11.9197L13.44 2.31969C13.4 1.95969 13.24 1.79969 12.96 1.67969L13.12 12.7997L13.2 12.7197Z" fill="url(#paint9_linear_5121_53582)"/>
<path d="M2.23998 17.9592C1.95998 17.3192 0.359981 14.1992 2.11998 8.19922H1.43998C1.07998 9.39922 0.79998 10.1192 0.63998 11.1992C0.63998 11.1992 0.55998 11.5992 0.51998 12.0392C0.47998 12.4792 0.47998 12.7192 0.47998 12.9992C0.47998 15.3992 1.07998 16.7992 1.07998 16.7992C1.71998 18.7992 2.83998 20.5992 4.35998 21.9592C5.67998 23.1192 7.71998 23.9992 9.39998 24.3192C9.11998 24.2792 4.31998 22.2392 2.23998 17.9592Z" fill="url(#paint10_linear_5121_53582)"/>
<path d="M13.1603 13.2392H12.8003C12.8403 13.2392 12.8803 13.2392 12.8803 13.2792L12.9603 15.1192H13.0003L13.0803 13.2792C13.0803 13.2392 13.1203 13.1992 13.1603 13.2392Z" fill="url(#paint11_linear_5121_53582)"/>
<path d="M17 1.12109C21.2 2.72109 25.16 7.12109 25.16 12.6811C25.16 19.4011 19.8 24.8811 13 24.8811V25.5211C19.8 25.5211 25.52 19.9211 25.52 13.0011C25.52 7.48109 22 2.84109 17 1.12109Z" fill="url(#paint12_linear_5121_53582)"/>
<path d="M23.7202 8.2775C20.9202 1.8375 14.6002 1.4775 14.2402 1.4375H14.2002C19.0402 2.3175 22.1202 5.4775 23.2002 8.7975V8.8375C23.6802 10.1175 23.9202 11.4775 23.9602 12.9575C24.0002 14.3575 23.6802 15.9175 23.0802 17.3575C23.0402 17.5575 23.0002 17.7975 22.9602 17.7975H23.6002C25.5202 14.1975 24.6802 10.5575 23.7202 8.2775Z" fill="url(#paint13_linear_5121_53582)"/>
<path fill-rule="evenodd" clip-rule="evenodd" d="M13.0001 1.07812C6.40008 1.07812 1.08008 6.47812 1.08008 13.0381C1.08008 19.5981 6.40008 24.9181 13.0001 24.9181C19.6001 24.9181 24.9201 19.5981 24.9201 13.0381C24.9201 6.43812 19.6001 1.07812 13.0001 1.07812ZM1.36008 13.0381C1.36008 9.83812 2.68008 6.91812 4.80008 4.79812C6.88008 2.67812 9.80008 1.35813 13.0001 1.35813C16.2001 1.35813 19.1201 2.67812 21.2001 4.79812C23.2801 6.91812 24.6001 9.83812 24.6001 13.0381C24.6001 16.2381 23.3201 19.1581 21.2001 21.2381C19.1201 23.3581 16.2001 24.6381 13.0001 24.6381C9.80008 24.6381 6.88008 23.3181 4.76008 21.2381C2.68008 19.1581 1.36008 16.2381 1.36008 13.0381Z" fill="#FBFBFB"/>
<path d="M3.36035 18.1209L11.5204 12.2409C11.9604 12.4809 12.6804 12.8009 12.7604 12.8009C12.8404 12.8409 12.8404 12.7609 12.8404 12.7609L11.8404 11.9209C11.7204 11.8409 11.6804 11.7209 11.6804 11.6009L12.6404 1.96094C12.6004 2.00094 12.6004 2.08094 12.5604 2.12094C12.5204 2.20094 12.5204 2.24094 12.5204 2.32094L11.1204 11.9609L3.44035 18.0009C3.40035 18.0409 3.36035 18.0809 3.36035 18.1209Z" fill="#333F47"/>
<defs>
<linearGradient id="paint0_linear_5121_53582" x1="-4.64162" y1="14.5605" x2="14.56" y2="30.6421" gradientUnits="userSpaceOnUse">
<stop stop-color="white"/>
<stop offset="0.1" stop-color="#E7E8E6"/>
<stop offset="0.1" stop-color="#CDD0D0"/>
<stop offset="0.2" stop-color="#B5BBBD"/>
<stop offset="0.2" stop-color="#A5ACAF"/>
<stop offset="0.3" stop-color="#9BA3A7"/>
<stop offset="0.3" stop-color="#98A0A4"/>
<stop offset="0.4" stop-color="#828A8F"/>
<stop offset="0.5" stop-color="#667075"/>
<stop offset="0.6" stop-color="#535C63"/>
<stop offset="0.7" stop-color="#475158"/>
<stop offset="0.8" stop-color="#434D54"/>
<stop offset="1" stop-color="#475157"/>
</linearGradient>
<linearGradient id="paint1_linear_5121_53582" x1="-3.57137" y1="14.4219" x2="14.4286" y2="29.5419" gradientUnits="userSpaceOnUse">
<stop stop-color="#0B1F2A"/>
<stop offset="0.2" stop-color="#333F47"/>
<stop offset="0.5" stop-color="#777F84"/>
<stop offset="0.5" stop-color="#81898D"/>
<stop offset="0.7" stop-color="#B3B8B8"/>
<stop offset="0.8" stop-color="#D2D5D3"/>
<stop offset="0.8" stop-color="#DEE0DD"/>
<stop offset="1" stop-color="#FBFBFB"/>
</linearGradient>
<linearGradient id="paint2_linear_5121_53582" x1="29.4148" y1="20.6444" x2="20.6548" y2="-3.43518" gradientUnits="userSpaceOnUse">
<stop stop-color="#E1E3E1"/>
<stop offset="0.1" stop-color="#C1C5C4"/>
<stop offset="0.3" stop-color="#9BA1A2"/>
<stop offset="0.5" stop-color="#7D8487"/>
<stop offset="0.7" stop-color="#687074" stop-opacity="0.01"/>
<stop offset="0.8" stop-color="#5B6469" stop-opacity="0.01"/>
<stop offset="1" stop-color="#576065" stop-opacity="0.01"/>
</linearGradient>
<linearGradient id="paint3_linear_5121_53582" x1="-2.07924" y1="8.96094" x2="8.95996" y2="28.0801" gradientUnits="userSpaceOnUse">
<stop stop-color="#E1E3E1"/>
<stop offset="0.1" stop-color="#C1C5C4"/>
<stop offset="0.3" stop-color="#9BA1A2"/>
<stop offset="0.5" stop-color="#7D8487"/>
<stop offset="0.7" stop-color="#687074" stop-opacity="0.01"/>
<stop offset="0.8" stop-color="#5B6469" stop-opacity="0.01"/>
<stop offset="1" stop-color="#576065" stop-opacity="0.01"/>
</linearGradient>
<linearGradient id="paint4_linear_5121_53582" x1="17.0234" y1="15.7596" x2="16.7799" y2="16.9676" gradientUnits="userSpaceOnUse">
<stop stop-color="#27343C"/>
<stop offset="1" stop-color="#00111E" stop-opacity="0.01"/>
</linearGradient>
<linearGradient id="paint5_linear_5121_53582" x1="16.1716" y1="8.2324" x2="14.9839" y2="8.18656" gradientUnits="userSpaceOnUse">
<stop offset="0.1" stop-color="#02131F"/>
<stop offset="0.9" stop-color="#02131F" stop-opacity="0.01"/>
</linearGradient>
<linearGradient id="paint6_linear_5121_53582" x1="12.5747" y1="14.2507" x2="11.3787" y2="15.2885" gradientUnits="userSpaceOnUse">
<stop offset="0.2" stop-color="#02131F"/>
<stop offset="0.9" stop-color="#02131F" stop-opacity="0.01"/>
</linearGradient>
<linearGradient id="paint7_linear_5121_53582" x1="9.03502" y1="16.8906" x2="8.9519" y2="16.2696" gradientUnits="userSpaceOnUse">
<stop stop-color="#02131F"/>
<stop offset="0.1" stop-color="#02131F"/>
<stop offset="1" stop-color="#02131F" stop-opacity="0.01"/>
</linearGradient>
<linearGradient id="paint8_linear_5121_53582" x1="14.4272" y1="3.05911" x2="13.0667" y2="3.06367" gradientUnits="userSpaceOnUse">
<stop offset="0.3" stop-color="#02131F"/>
<stop offset="0.3" stop-color="#02131F"/>
<stop offset="0.8" stop-color="#02131F" stop-opacity="0.01"/>
</linearGradient>
<linearGradient id="paint9_linear_5121_53582" x1="14.473" y1="4.33771" x2="13.5522" y2="4.34114" gradientUnits="userSpaceOnUse">
<stop offset="0.4" stop-color="#27343C"/>
<stop offset="1" stop-color="#3B474E" stop-opacity="0.01"/>
</linearGradient>
<linearGradient id="paint10_linear_5121_53582" x1="-1.72581" y1="23.4157" x2="10.1998" y2="25.5228" gradientUnits="userSpaceOnUse">
<stop stop-color="#24303A" stop-opacity="0.01"/>
<stop stop-color="#25323B" stop-opacity="0.01"/>
<stop offset="0.1" stop-color="#27343C"/>
</linearGradient>
<linearGradient id="paint11_linear_5121_53582" x1="13.1827" y1="15.1592" x2="13.1827" y2="13.2392" gradientUnits="userSpaceOnUse">
<stop offset="0.3" stop-color="#A5ABAF"/>
<stop offset="1" stop-color="#A5ABAF" stop-opacity="0.01"/>
</linearGradient>
<linearGradient id="paint12_linear_5121_53582" x1="13" y1="1.12109" x2="13" y2="25.5211" gradientUnits="userSpaceOnUse">
<stop stop-color="#DEE0DD"/>
<stop stop-color="#C5C9C7"/>
<stop stop-color="#9EA4A5"/>
<stop stop-color="#82898C"/>
<stop stop-color="#71797D"/>
<stop stop-color="#6B7378"/>
<stop offset="0.2" stop-color="#333F47"/>
<stop offset="0.5" stop-color="#27343C"/>
<stop offset="0.8" stop-color="#333F47"/>
<stop offset="1" stop-color="#434D54"/>
</linearGradient>
<linearGradient id="paint13_linear_5121_53582" x1="20.5606" y1="-0.749728" x2="13.1046" y2="3.80325" gradientUnits="userSpaceOnUse">
<stop offset="0.7" stop-color="#27343C"/>
<stop offset="0.7" stop-color="#2B373F"/>
<stop offset="0.7" stop-color="#36424A"/>
<stop offset="0.7" stop-color="#49545B"/>
<stop offset="0.8" stop-color="#646D73" stop-opacity="0.01"/>
<stop offset="0.8" stop-color="#868D92" stop-opacity="0.01"/>
<stop offset="0.8" stop-color="#B0B5B8" stop-opacity="0.01"/>
<stop offset="0.8" stop-color="#E1E3E4" stop-opacity="0.01"/>
<stop offset="0.8" stop-color="white" stop-opacity="0.01"/>
</linearGradient>
</defs>
</svg>
