<svg width="26" height="26" viewBox="0 0 26 26" fill="none" xmlns="http://www.w3.org/2000/svg">
<path d="M13.0002 0.199219C5.93115 0.199219 0.200195 5.93017 0.200195 12.9992C0.200195 20.0683 5.93115 25.7992 13.0002 25.7992C20.0692 25.7992 25.8002 20.0683 25.8002 12.9992C25.8002 5.93017 20.0692 0.199219 13.0002 0.199219ZM24.9678 12.9992C24.9678 19.6084 19.6102 24.9669 13.0002 24.9669C6.39022 24.9669 1.03256 19.6084 1.03256 12.9992C1.03256 6.39 6.39098 1.03158 13.0002 1.03158C19.6094 1.03158 24.9678 6.39 24.9678 12.9992Z" fill="#6F6F6F"/>
<path d="M13.0002 5.41406V5.82995C16.953 5.82995 20.1695 9.04572 20.1695 12.9992H20.5854C20.5854 8.81032 17.1891 5.41406 13.0002 5.41406ZM13.0002 20.1685C9.04744 20.1685 5.83092 16.9528 5.83092 12.9992H5.41504C5.41504 17.1882 8.8113 20.5844 13.0002 20.5844" fill="#6F6F6F"/>
<path d="M19.1286 7.59906C19.3023 7.78424 19.5526 8.08293 19.6932 8.26438L22.2828 6.63207C22.1534 6.46406 21.9474 6.20868 21.7933 6.02873L20.1534 7.10548L20.0414 7.20106L20.1248 7.08009L20.8489 5.64492L20.3369 5.13641L18.891 5.85549L18.7692 5.93837L18.8662 5.82711L19.9511 4.19929C19.7602 4.038 19.5767 3.89015 19.3429 3.71094L17.6992 6.28037C17.9075 6.43942 18.1819 6.67314 18.3571 6.83219L19.9045 6.0347L20.0038 5.96227L19.9308 6.06083L19.1286 7.59906Z" fill="#6F6F6F"/>
<path d="M13.2529 4.34321L13.9605 2.76915L14.0056 2.62951L13.9928 2.77512L14.0672 4.8786C14.3154 4.90175 14.5718 4.9361 14.8244 4.97792L14.7093 1.86264C14.356 1.82381 14.0041 1.79618 13.6522 1.78125L12.9552 3.49943L12.9304 3.62712L12.9056 3.49943L12.2093 1.78125C11.8574 1.79618 11.5055 1.82381 11.1521 1.86264L11.0371 4.97792C11.2897 4.9361 11.5461 4.9025 11.7943 4.8786L11.8687 2.77512L11.8559 2.62951L11.901 2.76915L12.6086 4.34321H13.2529Z" fill="#6F6F6F"/>
<path d="M7.53002 6.82509C7.93905 6.39722 8.17063 5.9029 7.7616 5.43098C7.53904 5.17486 7.16535 5.11886 6.85557 5.24505L6.82475 5.257L6.83452 5.23012C6.88039 5.1084 6.90971 4.72011 6.57662 4.45204C6.41421 4.32137 6.21045 4.27283 6.00443 4.29374C5.62022 4.33257 5.32472 4.59317 4.5202 5.484C4.27734 5.75281 3.92395 6.17694 3.71191 6.45173L5.92172 8.53356C6.65407 7.72861 6.95257 7.42918 7.53002 6.82509ZM4.64652 6.31583C5.09164 5.77521 5.56458 5.28463 5.77886 5.09048C5.84653 5.02925 5.92022 4.96802 6.0097 4.94413C6.15481 4.90455 6.30444 5.00685 6.33827 5.1547C6.37211 5.30329 6.27812 5.44442 6.17361 5.56091C5.93827 5.8245 5.07509 6.7213 5.07509 6.7213L4.64652 6.31583ZM5.51194 7.13124C5.51194 7.13124 6.35256 6.24863 6.627 5.96637C6.73602 5.85437 6.80595 5.78641 6.88114 5.74983C6.97813 5.70278 7.08415 5.69308 7.17889 5.7558C7.27212 5.81778 7.31498 5.92456 7.29167 6.03059C7.26385 6.15678 7.16009 6.277 7.07437 6.36885C6.95858 6.49206 5.96157 7.55164 5.96007 7.55313L5.51194 7.13124Z" fill="#6F6F6F"/>
<path d="M13.0002 5.41406V12.9992H5.41504C5.41504 8.80732 8.80829 5.41406 13.0002 5.41406Z" fill="#0066B1"/>
<path d="M20.5852 13C20.5852 17.1919 17.1919 20.5852 13 20.5852V13H20.5852Z" fill="#0066B1"/>
</svg>
