<svg width="20" height="26" viewBox="0 0 20 26" fill="none" xmlns="http://www.w3.org/2000/svg">
<path fill-rule="evenodd" clip-rule="evenodd" d="M4.07973 1.03208L4.37301 0.990915L4.9595 0.908419L5.25275 0.867172L5.54603 0.82601L5.83931 0.784763L6.13255 0.743603L6.42584 0.702354L6.71912 0.661194L7.59888 0.537449L7.89217 0.496288L8.18544 0.45504L8.4787 0.413879L8.77197 0.372633L9.06522 0.331385L9.65172 0.248888L9.99378 0.200781L10.3344 0.248974L10.9178 0.331469L11.2095 0.372633L11.5013 0.413879L11.793 0.45504L12.0847 0.496288L12.3765 0.537449L13.2517 0.661194L13.5434 0.702354L13.8352 0.743603L14.127 0.784849L14.4187 0.826097L14.7104 0.867258L15.0023 0.908419L15.5857 0.991001L15.8775 1.03216L16.1691 1.07341L16.4609 1.11457L16.7527 1.15582L17.0444 1.19698L17.3362 1.23823L17.6278 1.27939L17.9196 1.32064L18.2114 1.36189L18.5031 1.40313L18.7949 1.44421L19.0866 1.48554L19.6797 1.56916V2.44953L19.6817 2.44979V3.9473L19.6797 3.94695V4.35387L19.7017 4.36204L19.7622 5.84036L19.7724 7.03863L19.7433 8.18619L19.6767 9.2846L19.5743 10.3352L19.4379 11.3393L19.2691 12.2986L19.0699 13.2141L18.8418 14.0874L18.5867 14.9197L18.3065 15.7124L18.0026 16.4668L17.6774 17.1845L17.3323 17.8664L16.9694 18.5142L16.5905 19.1291L16.1975 19.7126L15.7922 20.2658L15.3766 20.7905L14.9525 21.2878L14.5219 21.7593L14.0866 22.2063L13.6486 22.6304L13.2097 23.0328L12.772 23.4154L12.337 23.7792L11.9068 24.1259L11.4833 24.4569L11.0684 24.7737L10.6638 25.0776L10.2717 25.37L9.69471 25.8008L8.90562 25.2737L8.33205 24.8648L7.77341 24.4396L7.23014 23.9979L6.70276 23.5398L6.19175 23.0649L5.69755 22.5733L5.22072 22.0647L4.76181 21.5392L4.32121 20.9966L3.89947 20.4368L3.49707 19.8597L3.11454 19.2652L2.75226 18.6533L2.41089 18.0239L2.09074 17.3769L1.79244 16.7122L1.51636 16.0298L1.2631 15.3295L1.03295 14.6114L0.826542 13.8754L0.644184 13.1214L0.486383 12.3494L0.353549 11.559L0.24629 10.7506L0.164745 9.92389L0.109657 9.07879L0.0812315 8.21519L0.0800781 7.33301L0.106469 6.43207L0.160912 5.51255L0.25891 4.40302V3.22863L0.26091 3.22837V3.15178L0.25891 3.15204V1.56899L0.853815 1.48545L1.14706 1.44421L1.44034 1.40305L1.73359 1.3618L2.02687 1.32064L2.32015 1.27939L2.61339 1.23823L2.90668 1.19698L3.19995 1.15582L3.4932 1.11457L3.78648 1.07341L4.07973 1.03208Z" fill="white"/>
<path fill-rule="evenodd" clip-rule="evenodd" d="M0.610795 4.65575C6.85462 1.96935 13.0984 2.26633 19.3423 4.65575C20.1045 18.1469 13.6423 22.4255 9.68385 25.3984C3.44262 21.3588 -0.414533 14.6531 0.610795 4.65575Z" fill="#231F20"/>
<path fill-rule="evenodd" clip-rule="evenodd" d="M1.07811 4.96801C1.56928 4.7629 2.06378 4.57733 2.565 4.39757L3.70508 4.0385L4.84469 3.74499L5.98388 3.51539L7.12302 3.34858L8.26215 3.24315L9.40152 3.19791L10.5412 3.21146L11.6814 3.28275L12.8225 3.4104L13.9643 3.5932L15.1071 3.83026L16.2507 4.12013L17.3954 4.46157C17.8875 4.62465 18.3763 4.79199 18.8621 4.97374L18.9008 5.92678L18.9107 7.09518L18.8824 8.212L18.8183 9.27889L18.7196 10.2971L18.5886 11.2683L18.4269 12.1941L18.2364 13.0757L18.0187 13.9149L17.7757 14.7133L17.5092 15.4722L17.2209 16.1935L16.9125 16.8786L16.5858 17.529L16.2422 18.1463L15.8838 18.7322L15.5118 19.2881L15.128 19.8157L14.7343 20.3162L14.332 20.7913L13.9228 21.2424L13.5085 21.6709L12.6707 22.4661L11.8318 23.1886C11.4251 23.5186 11.0151 23.8417 10.6001 24.1607C10.2914 24.3942 9.98203 24.6268 9.67271 24.8594L8.79687 24.2454L8.26331 23.8364L7.74476 23.412L7.24194 22.9721L6.75508 22.5165L6.28473 22.0453L5.83114 21.5581L5.39488 21.0551L4.97623 20.5359L4.57565 20.0005L4.19357 19.4487L3.83041 18.8803L3.48642 18.2953L3.16228 17.6935L2.85817 17.0746L2.57477 16.4386L2.31225 15.7852L2.07128 15.1144L1.85215 14.4257L1.6554 13.7194L1.48142 12.9949L1.33068 12.2523L1.20365 11.4912L1.1009 10.7118L1.02275 9.91358L0.969828 9.09653L0.942526 8.26054L0.941406 7.40554L0.966841 6.53117L1.01942 5.63744L1.07811 4.96801ZM11.6996 20.5879C11.7639 20.4107 11.5426 20.4607 11.5088 20.3877C11.475 20.3146 11.4888 20.2314 11.6037 20.1268C11.8608 19.974 12.144 20.0593 12.422 20.097C12.4908 20.1218 12.5006 20.2259 12.4514 20.4094L12.2524 21.0044C12.1541 21.0416 12.0043 21.0565 11.906 21.0937C11.8225 21.1433 11.8077 21.183 11.8618 21.2127C11.9404 21.2326 12.0264 21.1929 12.105 21.2127C11.7959 22.666 10.1606 22.1029 10.7129 21.4319C11.2377 21.7473 11.2572 21.0145 10.9108 21.0788C10.4751 21.1597 10.4635 21.5366 10.4612 21.6664C10.4493 22.3235 12.0471 22.6893 12.444 21.1978C12.5694 21.1334 12.6652 21.1507 12.7905 21.0862C12.8373 21.059 12.8398 21.0049 12.7979 20.9776C12.7218 20.9751 12.5866 20.9957 12.5105 20.9932C12.5641 20.8072 12.6327 20.5316 12.6864 20.3457C12.7421 20.1535 12.7234 20.1983 12.9266 20.1798C13.309 20.1449 13.7277 20.2926 14.1099 19.9184C13.0182 20.2294 11.7433 19.3801 11.2007 20.2344C11.1343 20.339 11.1281 20.4099 11.161 20.5136C11.2226 20.7073 11.5239 20.7531 11.6996 20.5879ZM6.86777 21.5282C6.74198 22.0202 7.51165 22.2542 7.82403 22.0857C8.13647 21.9172 8.31299 21.5136 7.96497 21.2324C7.37573 20.9851 6.30983 20.5423 7.0397 19.8041C7.29215 19.7392 7.51022 19.6492 7.93841 19.9449C7.99995 19.9263 8.06147 19.9076 8.12304 19.889C8.26503 20.14 8.2707 20.2312 8.2707 20.5223C8.19685 20.4292 8.12304 20.3361 8.04916 20.2429C7.94455 20.1808 7.83994 20.1188 7.73536 20.0566C7.36783 19.9124 7.1007 19.9711 7.32926 20.4105C7.95398 20.8185 8.68403 20.9672 8.52558 21.7517C8.49672 22.0627 8.11568 22.3144 7.92111 22.3396C7.00335 22.3517 6.62201 22.1933 6.59087 21.4723C6.60532 21.2634 6.71614 21.1516 6.92312 21.137C7.24066 21.0976 7.27173 21.3945 7.08926 21.5841C7.01542 21.5654 6.94158 21.5468 6.86777 21.5282ZM7.09524 5.81485C7.06006 5.50692 7.06986 5.42035 7.49839 5.23147C7.83363 5.07803 8.11985 5.06883 8.45295 4.97053C8.62171 4.76785 8.69518 4.77671 8.91132 4.72226C8.91697 4.67702 8.92261 4.63169 8.92817 4.58644C8.77186 4.4772 8.69328 4.4132 8.57493 4.26393C8.58057 4.21305 8.58616 4.16207 8.59176 4.11118C8.6366 4.11683 8.68145 4.12247 8.72632 4.1282C8.70953 4.07714 8.69267 4.02626 8.67588 3.97537C8.83847 3.98666 9.00111 3.99803 9.16367 4.00932C9.16367 3.96408 9.16367 3.91884 9.16367 3.87351C9.16367 3.79996 9.16367 3.72641 9.16367 3.65285C9.17904 3.58069 9.21274 3.56376 9.26458 3.60197C9.36557 3.72641 9.46647 3.85093 9.56747 3.97537C9.57858 3.83956 9.60351 3.73136 9.61471 3.59554C9.61757 3.52338 9.65674 3.50653 9.73246 3.54465C9.83336 3.73709 9.92072 3.90182 10.0216 4.09425C10.2425 4.01236 10.549 4.04571 10.8795 4.11118C10.8571 4.15078 10.8347 4.19038 10.8122 4.22998C10.9356 4.26958 11.0589 4.30926 11.1823 4.34886C11.1767 4.38272 11.1711 4.41677 11.1655 4.45063C11.5395 4.4911 11.7264 4.53999 12.0739 4.6883C11.8776 4.74484 11.6814 4.80145 11.4851 4.85807C11.3757 4.90896 11.3757 4.95985 11.4851 5.01082C11.8608 5.14073 12.2364 5.31232 12.6122 5.77464C12.601 5.8086 12.5898 5.84255 12.5786 5.8765C12.1459 5.54565 11.7578 5.36416 11.4346 5.40124C11.4023 5.45777 11.4248 5.51439 11.5019 5.57092C11.9112 5.88432 12.3206 6.07814 12.7299 6.09716C12.3934 6.16541 12.057 6.16472 11.7206 6.01223C11.7012 6.08014 11.6623 6.14805 11.7206 6.21595C11.961 6.36575 12.1332 6.53499 12.6458 6.60637C12.6458 6.64033 12.5364 6.64667 12.5364 6.68062C12.2 6.69981 11.973 6.58501 11.6365 6.41967C11.572 6.45215 11.544 6.50312 11.5524 6.57242C11.7947 6.9334 12.0251 7.3062 12.343 7.59085C12.3094 7.60223 12.2757 7.61352 12.2421 7.62481C11.8218 7.34614 11.6491 7.13009 11.401 6.89494C11.3719 6.96284 11.3135 7.03075 11.401 7.09866C11.6802 7.38079 11.9302 7.59415 12.3262 8.15104C12.3108 8.2232 12.2771 8.24014 12.2252 8.20193C11.8778 7.85128 11.8739 7.87533 11.3842 7.81151C11.4001 8.19802 12.0288 8.18178 12.4029 8.80241C12.3749 8.8137 12.3879 8.8526 12.3598 8.86389C12.0165 8.68162 12.0356 8.69525 11.6533 8.77905C11.7991 8.88091 11.9449 8.98277 12.0907 9.08454C12.0907 9.11858 12.0907 9.15245 12.0907 9.18649C11.8435 9.08315 11.6284 9.07699 11.4178 9.08454C11.6141 9.24302 11.8103 9.40141 12.0066 9.55989C12.0752 9.61226 12.0528 9.64612 11.9393 9.66175C11.7262 9.58811 11.5131 9.51456 11.3 9.4411C11.5244 9.65038 11.7077 9.80451 11.9319 10.0139C11.9866 10.0959 11.9592 10.1412 11.9046 10.1497C11.491 9.89717 11.4389 9.78923 10.9804 9.89934C10.9804 9.9616 10.9804 10.0238 10.9804 10.0861C11.4082 10.0861 11.3614 10.0339 11.6196 10.3746C11.4339 10.2881 11.3856 10.2728 11.1823 10.2728C11.2739 10.4538 11.3167 10.6349 11.6029 10.816C12.0327 11.1451 11.0353 10.7468 10.8627 10.5104C10.672 10.3775 10.4814 10.2813 10.2907 10.2219C10.2496 10.3916 10.2221 10.5613 10.2907 10.7311C10.4982 11.0762 10.7056 11.4213 10.9132 11.7665C11.087 11.9532 11.2472 12.1675 11.4209 12.3542C11.6509 12.524 11.785 12.7075 12.0149 12.8773C12.5949 13.3709 13.2567 13.6999 13.2514 14.5672C14.6594 14.9693 14.8822 12.5302 14.698 12.2906C14.0426 10.7994 14.4949 9.66566 15.4214 9.01664C15.4214 9.05068 15.4214 9.08454 15.4214 9.11858C14.99 9.61182 14.9012 9.7479 14.7149 10.3746C14.7418 10.4875 14.7395 10.6395 14.8831 10.5953C15.0762 10.3578 15.3 10.1595 15.556 9.98427C15.6695 10.0041 15.6919 10.0606 15.6233 10.1539C15.2803 10.6799 15.2041 10.7864 15.1354 11.4101C15.1802 11.4327 15.2251 11.4553 15.27 11.478C15.4046 11.3251 15.5391 11.1724 15.6737 11.0196C15.776 11.0635 15.7873 11.1257 15.7073 11.2063C15.3045 11.5113 15.7175 12.9924 15.6233 13.5318C15.4927 14.2791 15.0667 14.5166 14.4793 14.9746C14.6165 15.5453 14.5842 15.6578 14.4457 16.2307C14.3999 15.8419 14.4793 15.5969 14.1598 15.382C14.1382 16.1653 13.585 16.6325 13.6887 16.5702C13.8455 16.1069 13.9766 15.9999 13.7897 15.5517C13.7121 15.7864 13.6243 16.0162 13.5373 16.2477C13.5666 16.0165 13.5711 15.1356 13.5206 15.2122C13.47 15.2179 13.4196 15.2235 13.3691 15.2292C13.0613 16.2457 12.7769 16.5097 11.9393 17.1134C11.8215 17.1926 11.7038 17.2717 11.586 17.351C11.5056 17.696 11.5641 17.787 11.6702 18.1318C11.7318 18.2676 11.7935 18.4034 11.8552 18.5392C11.8552 18.8551 11.8707 18.8431 11.6702 19.0824C11.5076 19.1446 11.3449 19.2068 11.1823 19.2691C10.9299 19.518 10.6777 19.767 10.4253 20.0159C10.3798 20.3601 10.3584 20.2797 10.0216 20.3724C10.044 20.463 10.0664 20.5534 10.0889 20.644C9.69286 20.9476 9.58622 20.9835 9.09646 21.0853C9.06833 21.0401 9.04036 20.9948 9.01231 20.9495C9.08517 20.7967 9.15811 20.644 9.23097 20.4912C9.39831 20.2819 9.53126 19.965 9.80288 19.965C9.80853 19.9197 9.81417 19.8745 9.81973 19.8292C9.92628 19.75 10.0602 19.6708 10.1667 19.5916C10.447 19.32 10.7001 19.0484 10.9804 18.7768C11.043 18.6749 11.0415 18.5731 11.0309 18.4713C10.9804 18.3807 10.9299 18.2902 10.8795 18.1997C10.8235 18.0639 10.7674 17.9281 10.7113 17.7923C10.644 17.8036 10.5767 17.8149 10.5094 17.8263C10.4105 18.1258 10.4919 18.1438 10.173 18.0978C9.89823 17.9677 9.62348 17.8376 9.34872 17.7075C9.11322 17.6735 8.87772 17.6395 8.64223 17.6056C8.3729 17.5742 8.2459 17.581 8.01982 17.4358C7.88522 17.4415 7.75069 17.4471 7.61612 17.4528C7.58807 17.4868 7.56002 17.5207 7.532 17.5547C7.05867 17.5729 7.17112 17.5863 6.79606 17.2491C6.73438 17.102 6.618 16.9549 6.55633 16.8079C6.91847 16.7489 7.11885 16.7282 7.48149 16.7738C7.54323 16.8192 7.6049 16.8644 7.66657 16.9096C8.02192 16.9372 8.23729 16.9076 8.54132 17.0963C8.83291 17.1642 9.12442 17.2322 9.41602 17.3001C9.54498 17.2888 9.67393 17.2774 9.80288 17.2661C9.83658 17.1926 9.87027 17.119 9.90388 17.0455C9.88147 16.9549 9.85898 16.8644 9.83658 16.7738C9.55609 16.6117 9.36679 16.2806 9.33492 15.9193C9.33492 15.9193 9.07371 15.6467 9.02326 15.426C8.91714 14.9032 8.6173 14.4765 9.1127 14.3802C9.18929 14.2434 8.71866 13.9818 8.57493 13.8713C7.97891 13.3792 7.35646 13.0048 7.27966 12.1909C7.15633 12.1852 7.03296 12.1795 6.90955 12.1739C6.51613 12.2104 6.53768 12.1434 6.27035 11.8853C5.94355 11.7791 5.66744 11.5841 5.42928 11.3251C5.42928 11.3251 5.21059 11.1713 5.09285 11.1713C4.9285 11.1713 5.1381 12.2002 5.07603 12.3266C5.25092 12.5032 5.26483 12.4678 5.24424 12.717C5.40479 12.9115 5.49084 12.9591 5.51337 13.2093C5.53583 13.2715 5.55828 13.3338 5.58067 13.396C5.90282 13.4611 5.80034 13.3866 5.85403 13.6846C5.88768 13.8713 5.84983 14.109 5.84983 14.109C5.82737 14.1938 5.80495 14.2786 5.78253 14.3635C5.78253 14.3635 5.56384 14.2957 5.46293 14.1938C5.23538 13.9642 5.217 14.0299 5.26106 13.7185C5.12283 13.6588 5.1132 13.6242 5.02555 13.4979C5.02555 13.4979 5.07603 13.447 4.95829 13.3621C4.76484 13.2227 4.80686 13.2539 4.80686 13.0056C4.80686 12.8698 4.80686 12.8698 4.80686 12.785C4.80686 12.7001 4.87416 12.717 4.79007 12.5303C4.70594 12.3436 4.73959 12.4795 4.63865 12.2248C4.58574 12.1154 4.63291 11.9188 4.62186 11.8853C4.51196 11.5819 4.51687 11.4807 4.48726 11.495C4.47607 11.5968 4.46484 11.6986 4.45361 11.8005C4.45361 11.8457 4.45361 11.891 4.45361 11.9363C4.3509 12.1477 4.31355 12.2251 4.16766 12.4624C3.96969 12.5195 3.84802 12.5523 3.84802 12.2418C3.84802 11.9181 3.84235 11.8798 3.98262 11.5968C3.99941 11.5232 4.01627 11.4497 4.03306 11.3761C4.03306 11.3761 4.03306 11.2573 4.03306 11.1385C4.03306 10.7879 4.0876 10.4002 4.31905 10.12C4.46189 9.94701 4.61674 9.3969 4.6723 9.18649C4.70073 8.89967 4.64007 8.87718 4.89095 8.76212C4.92515 8.58957 5.32775 8.57159 5.4461 8.64323C5.53019 8.69421 5.68158 8.84696 5.68158 8.84696C5.9979 9.04243 6.31719 9.20759 6.58998 9.52594C6.71332 9.52594 6.83672 9.52594 6.96003 9.52594C7.06661 9.44674 7.17312 9.36746 7.27966 9.28827C7.29191 9.14793 7.73757 8.87657 7.84109 8.93822C8.01202 8.52418 8.17318 8.33783 8.50343 8.00463C8.43729 7.98631 9.08891 6.87305 9.19728 6.878C9.22072 6.76016 9.30253 6.405 9.15004 6.3687C8.95188 6.4287 8.40041 6.34621 8.30577 6.182C8.24411 6.182 8.22348 6.20961 8.16174 6.20961C8.10011 6.22655 8.03841 6.24357 7.97671 6.2605C7.8361 6.37868 7.80642 6.30435 7.64659 6.3581C7.54594 6.3581 7.39398 6.39319 7.35904 6.3126C7.29927 6.17444 7.42922 6.19164 7.51517 6.182C7.55442 6.17071 7.59367 6.15942 7.63292 6.14804C7.81578 6.08657 7.66731 6.07753 7.54879 6.01223C7.50395 6.02352 7.4591 6.0349 7.41426 6.04618C7.37498 6.04618 7.33573 6.04618 7.29649 6.04618C7.26284 6.04618 7.22919 6.04618 7.19558 6.04618C7.05796 5.95952 7.11389 5.97862 7.09524 5.81485ZM7.44893 5.5302C7.51097 5.5302 7.55642 5.59402 7.55015 5.67235C7.54387 5.7505 7.48814 5.81433 7.42607 5.81433C7.36406 5.81433 7.31857 5.7505 7.32484 5.67235C7.33112 5.59402 7.38689 5.5302 7.44893 5.5302ZM4.6937 10.4884C4.91795 10.4469 5.1481 10.4156 5.44566 10.4746C5.59291 10.5086 5.90336 10.58 6.06089 10.5574C5.93192 10.3838 5.83992 10.1891 5.70539 10.0194C5.59206 9.89231 5.46123 9.78498 5.36361 9.6469C5.22243 9.56562 5.18769 9.5513 5.03553 9.60548C4.90971 9.70717 4.89862 9.78524 4.84411 9.93659C4.84411 10.1735 4.81636 10.2904 4.6937 10.4884ZM8.0113 9.09488C7.95133 9.14985 7.9568 9.2049 8.02769 9.25987C8.38335 9.22626 8.47073 9.15766 8.79609 9.29287C8.93225 9.30381 9.10732 9.2003 8.97593 9.09488C8.70659 8.879 8.33284 9.03887 8.0113 9.09488ZM8.71435 8.4845C8.68928 9.0736 9.62469 7.44366 9.67897 7.37914C9.75521 7.12627 9.72247 7.02719 9.58084 7.08224C9.29202 7.5496 9.00311 8.01705 8.71435 8.4845ZM9.22116 5.02002C9.30218 5.02002 9.36826 5.07569 9.36826 5.14377C9.36826 5.21194 9.35124 5.26751 9.27022 5.26751C9.1892 5.26751 9.10671 5.16244 9.10671 5.09427C9.10671 5.02619 9.14014 5.02002 9.22116 5.02002ZM5.28101 11.1406C5.62429 11.2836 5.8077 11.4916 6.03307 11.6025C6.2845 11.7263 6.40905 11.6135 6.29467 11.4705C5.87334 11.2543 5.49074 10.9487 5.28101 11.1406ZM4.69242 10.5467C4.8189 10.6197 4.81979 10.6388 4.79052 10.8271C4.80337 11.0471 4.78559 11.3738 4.61067 10.9591C4.58889 10.9152 4.56711 10.8711 4.54526 10.8271C4.52895 10.7116 4.578 10.6182 4.69242 10.5467ZM5.36276 8.78912C5.34061 8.93371 5.32609 8.94083 5.17172 8.97521C5.00411 9.06023 4.74533 9.15124 5.01965 8.84756C5.04774 8.81231 5.07612 8.77696 5.10431 8.74171C5.1896 8.68796 5.27572 8.70367 5.36276 8.78912ZM6.05868 10.1257C5.87856 10.1222 5.86754 10.1054 5.80004 9.91905C5.66852 9.72497 5.51476 9.41852 5.93063 9.70908C5.97832 9.73817 6.02615 9.76761 6.07391 9.79687C6.15369 9.89387 6.1485 10.0035 6.05868 10.1257ZM6.3658 10.7537C6.31313 10.4921 6.36621 10.4542 6.60905 10.2969C6.84256 10.0449 6.90155 9.75701 6.83462 10.2206C6.80846 10.2989 6.78225 10.3773 6.75606 10.4557C6.64368 10.602 6.56807 10.8443 6.3658 10.7537ZM10.7399 11.9655C10.6587 12.5545 9.83762 10.9412 9.93878 10.8766C9.86254 10.6237 9.96067 10.5577 10.1023 10.6126C10.2385 11.0801 10.2549 11.498 10.7399 11.9655ZM9.41715 14.0535C9.14118 14.1712 8.05517 13.0609 7.97826 13.004C7.82766 12.7441 7.83797 12.6259 8.00924 12.649C8.45126 13.1248 8.97523 13.7185 9.41715 14.0535ZM9.71466 15.1906C9.87748 15.2901 9.9374 15.2685 9.89458 15.1258C9.65092 14.6917 9.50903 14.6696 9.29046 14.4256C9.14917 14.3996 9.11061 14.3867 9.17479 14.4644C9.36983 14.7696 9.57433 14.9422 9.71466 15.1906ZM10.73 14.7757C10.728 15.0739 10.6509 15.3722 10.4087 15.6705C10.3359 15.6575 10.263 15.6446 10.1902 15.6317C10.0789 15.6748 10.0532 15.7181 10.1131 15.7613C10.1559 15.8002 10.1988 15.8391 10.2416 15.8781C10.1255 16.2585 10.0439 16.6389 10.203 17.0193C10.3659 17.0971 10.4259 17.0539 10.383 16.8896C10.1133 16.464 10.3266 16.1885 10.5115 15.904C10.5859 16.1374 10.3628 16.5481 10.5373 16.6043C10.7069 16.3079 11.0476 15.7857 10.6143 15.7743C10.8448 15.476 10.9564 14.9824 10.9614 14.8275C10.9717 14.5006 10.8158 14.5034 10.73 14.7757ZM10.7441 13.1475C10.9384 13.2805 10.903 13.3215 10.7325 13.4993C10.6223 13.7289 10.7135 13.9169 10.537 13.624C10.5228 13.5692 10.5085 13.5144 10.4941 13.4596C10.5341 13.3346 10.4841 13.167 10.7441 13.1475ZM13.0478 14.9832C12.9121 15.1248 12.9195 15.1879 12.9602 15.4659C12.956 15.8019 12.8587 16.04 13.028 15.6765C13.0499 15.6045 13.072 15.5325 13.0939 15.4607C13.1066 15.2818 13.177 15.0632 13.0478 14.9832ZM14.3865 14.6433C15.6701 13.8338 14.8806 13.0382 15.2371 12.0858C14.6673 12.7928 15.3944 13.8152 14.1995 14.506C13.8592 14.6547 14.0123 14.7863 14.3865 14.6433ZM11.2354 18.8764C11.1851 19.0668 11.1276 19.0928 10.8706 19.2006C10.5871 19.3774 10.4351 19.5841 10.6568 19.2505C10.7065 19.1944 10.7563 19.1384 10.8061 19.0823C10.9514 18.9792 11.1008 18.8058 11.2354 18.8764Z" fill="#FFF200"/>
<path fill-rule="evenodd" clip-rule="evenodd" d="M0.617676 2.79988L10.0202 1.39007L19.3253 2.79988V3.60547L10.0202 2.09502L0.617676 3.60547V2.79988Z" fill="white"/>
<path fill-rule="evenodd" clip-rule="evenodd" d="M19.3234 3.56099C19.3234 3.88082 19.3234 4.21071 19.3234 4.58203C11.8811 2.17394 7.73637 2.03483 0.615723 4.58203C0.615723 4.21071 0.615723 3.88082 0.615723 3.56099L10.0185 2.12053L19.3234 3.56099Z" fill="#ED1C24"/>
<path fill-rule="evenodd" clip-rule="evenodd" d="M0.615723 1.91495C3.74174 1.47043 6.86776 1.026 9.99386 0.581476C13.1037 1.026 16.2135 1.47043 19.3234 1.91495C19.3234 2.23226 19.3234 2.51995 19.3234 2.79679L10.0185 1.42102L0.615723 2.79688C0.615723 2.51995 0.615723 2.23226 0.615723 1.91495Z" fill="#00A650"/>
</svg>
