<svg width="26" height="14" viewBox="0 0 26 14" fill="none" xmlns="http://www.w3.org/2000/svg">
<path fill-rule="evenodd" clip-rule="evenodd" d="M13.0003 0.601562C5.93117 0.601562 0.200195 3.43115 0.200195 6.92058C0.200195 10.4103 5.93117 13.2401 13.0003 13.2401C20.069 13.2401 25.8002 10.4105 25.8002 6.92058C25.7999 3.43141 20.0687 0.601562 13.0003 0.601562ZM11.7859 2.00799C13.2469 1.49149 17.5874 2.00799 19.2734 2.81775C19.813 3.33526 16.8675 4.99791 13.3603 5.71862C8.34598 6.72981 10.7291 2.86239 11.7859 2.00799ZM3.17464 9.49547C2.07238 8.70956 -0.0859617 6.46039 3.48946 4.12219C5.37814 3.02069 6.43473 2.77259 7.73867 2.50318C8.36856 2.36771 8.81809 2.5255 8.25593 2.99786C7.06437 4.23457 4.59095 8.32598 4.36644 9.22606C4.18608 9.83363 3.82661 9.99015 3.17464 9.49547ZM13.4719 12.1044C11.3587 12.3286 6.65975 11.632 6.56944 11.0257C6.65975 9.5632 14.0343 7.13494 15.3606 8.48403C15.9233 9.54062 14.8441 12.0366 13.4719 12.1044ZM24.22 7.85363C23.6799 9.09059 21.859 10.4853 18.037 11.4298C17.4517 11.5638 17.2495 11.2045 17.6316 10.8671C18.2617 10.4851 21.2971 5.4038 21.6791 4.39135C21.9041 3.87383 22.3311 4.07703 22.6012 4.27896C23.8156 5.06564 24.7373 6.3475 24.22 7.85363Z" fill="#295BA7"/>
</svg>
