<svg width="188" height="33" viewBox="0 0 188 33" fill="none" xmlns="http://www.w3.org/2000/svg">
<path d="M0 26.0265V30.0891C0 31.4206 1.07942 32.5 2.41094 32.5C3.74247 32.5 4.82189 31.4206 4.82189 30.0891V28.8354H4.67712C2.78735 28.6137 1.08382 27.5906 0 26.0265Z" fill="white"/>
<path d="M26.6533 28.8232H26.5206V30.0889C26.5206 31.4204 27.6001 32.4999 28.9316 32.4999C30.2631 32.4999 31.3425 31.4204 31.3425 30.0889V26.0385C31.1222 26.3533 30.8741 26.6479 30.6012 26.9186C29.5391 27.9825 28.1472 28.6542 26.6533 28.8232Z" fill="white"/>
<path d="M0.600547 14.3961C0.600547 13.7328 1.13831 13.195 1.80167 13.195H4.15988V15.5972H1.80167C1.13831 15.5972 0.600547 15.0595 0.600547 14.3961Z" fill="white"/>
<path d="M27.1819 13.195H29.5401C30.2035 13.195 30.7412 13.7328 30.7412 14.3961C30.7412 15.0595 30.2035 15.5972 29.5401 15.5972H27.1819V13.195Z" fill="white"/>
<path d="M19.0974 16.9274V10.2548H27.182V16.9274H19.0974Z" fill="#D87A00"/>
<path d="M15.671 0.5L4.16005 6.83922V10.3056H27.1819V6.83922L15.671 0.5Z" fill="#FFA633"/>
<path d="M4.16007 6.71228L12.2446 2.33377V16.9273H4.16007V6.71228Z" fill="#FFC147"/>
<path d="M26.1334 16.7045H5.22927C3.83752 16.7664 2.52348 17.3631 1.56072 18.3704C0.598235 19.3776 0.0619363 20.7176 0.0633093 22.1107C0.0638456 22.3116 0.0777906 22.5124 0.105412 22.7114C0.245665 23.9252 0.793016 25.0557 1.65781 25.9184C2.52295 26.7814 3.65486 27.3258 4.86881 27.4628C5.06779 27.4931 5.26838 27.5111 5.4695 27.517H25.8931C26.0939 27.5172 26.2945 27.5052 26.4938 27.481C27.7107 27.3429 28.8445 26.7959 29.7099 25.9294C30.5753 25.063 31.1208 23.9284 31.2572 22.7114C31.2849 22.5124 31.2988 22.3116 31.2994 22.1107C31.3007 20.7176 30.7644 19.3776 29.8019 18.3703C28.8393 17.3631 27.5252 16.7665 26.1334 16.7045Z" fill="white"/>
<path d="M7.88073 22.1107C7.88073 23.438 6.80476 24.514 5.47748 24.514C4.15021 24.514 3.07424 23.438 3.07424 22.1107C3.07424 20.7835 4.15021 19.7075 5.47748 19.7075C6.80476 19.7075 7.88073 20.7835 7.88073 22.1107Z" fill="#FFA633"/>
<path d="M28.3007 22.1107C28.3007 23.438 27.2247 24.514 25.8974 24.514C24.5701 24.514 23.4942 23.438 23.4942 22.1107C23.4942 20.7835 24.5701 19.7075 25.8974 19.7075C27.2247 19.7075 28.3007 20.7835 28.3007 22.1107Z" fill="#FFA633"/>
<path d="M41.3428 24.36V8.66091H46.0354C47.6139 8.66091 48.9577 8.89554 50.0669 9.36481C51.1761 9.83407 52.0648 10.4598 52.7332 11.2419C53.4157 12.024 53.9134 12.8985 54.2263 13.8655C54.5391 14.8325 54.6956 15.8066 54.6956 16.7878C54.6956 17.9538 54.4823 19.0061 54.0556 19.9446C53.6433 20.869 53.0745 21.6653 52.3492 22.3336C51.624 22.9878 50.785 23.4926 49.8322 23.8481C48.8795 24.1894 47.8699 24.36 46.8033 24.36H41.3428ZM44.4357 21.3738H46.2701C47.0522 21.3738 47.7632 21.2742 48.4031 21.0752C49.043 20.8619 49.5905 20.5561 50.0455 20.158C50.5148 19.7598 50.8703 19.2621 51.1121 18.6648C51.368 18.0534 51.496 17.3566 51.496 16.5745C51.496 15.5506 51.3254 14.7187 50.9841 14.0788C50.657 13.4247 50.2446 12.9199 49.7469 12.5644C49.2634 12.2089 48.7657 11.9671 48.2538 11.8391C47.7419 11.6969 47.3082 11.6258 46.9526 11.6258H44.4357V21.3738Z" fill="#FFA633"/>
<path d="M61.4889 8.66091C62.4701 8.66091 63.3447 8.78889 64.1126 9.04485C64.8805 9.2866 65.5204 9.6421 66.0323 10.1114C66.5584 10.5664 66.9566 11.121 67.2268 11.7751C67.497 12.415 67.6321 13.1403 67.6321 13.9508C67.6321 14.5907 67.5325 15.2306 67.3334 15.8706C67.1486 16.5105 66.8357 17.0935 66.3949 17.6196C65.9683 18.1458 65.3995 18.5724 64.6885 18.8995C63.9775 19.2123 63.0958 19.3687 62.0435 19.3687H59.8252V24.36H56.7323V8.66091H61.4889ZM62.0222 16.3825C62.4915 16.3825 62.8825 16.3043 63.1954 16.1479C63.5082 15.9914 63.75 15.7923 63.9206 15.5506C64.1055 15.3089 64.2334 15.06 64.3045 14.804C64.3899 14.5339 64.4325 14.285 64.4325 14.0575C64.4325 13.8868 64.4041 13.6735 64.3472 13.4176C64.3045 13.1474 64.205 12.8772 64.0486 12.607C63.8922 12.3368 63.6504 12.1093 63.3233 11.9244C63.0105 11.7396 62.5839 11.6472 62.0435 11.6472H59.8252V16.3825H62.0222ZM64.9231 18.3022L68.8052 24.36H65.2004L61.233 18.3875L64.9231 18.3022Z" fill="#FFA633"/>
<path d="M70.2887 8.66091H80.9965V11.6472H73.3816V14.996H80.122V17.9823H73.3816V21.3738H81.2951V24.36H70.2887V8.66091Z" fill="#FFA633"/>
<path d="M81.6581 24.36L88.7398 8.04233H88.9104L95.9921 24.36H92.4086L87.8865 12.8843L90.1262 11.3485L84.7083 24.36H81.6581ZM86.5001 18.6862H91.2141L92.3019 21.2885H85.5402L86.5001 18.6862Z" fill="#FFA633"/>
<path d="M97.2141 24.36V8.021H97.2354L105.96 20.3926L104.637 20.094L113.34 8.021H113.382V24.36H110.29V14.996L110.482 16.5958L105.17 24.1467H105.128L99.6671 16.5958L100.2 15.124V24.36H97.2141Z" fill="#FFA633"/>
<path d="M124.757 12.4577C124.159 12.1306 123.548 11.8605 122.922 11.6472C122.311 11.4338 121.735 11.3272 121.195 11.3272C120.526 11.3272 120 11.4623 119.616 11.7325C119.232 12.0027 119.04 12.4079 119.04 12.9483C119.04 13.318 119.182 13.6522 119.467 13.9508C119.765 14.2352 120.142 14.4912 120.597 14.7187C121.067 14.9462 121.55 15.1524 122.048 15.3373C122.503 15.5079 122.951 15.7141 123.392 15.9559C123.847 16.1834 124.252 16.4749 124.607 16.8304C124.963 17.1717 125.247 17.6054 125.461 18.1316C125.674 18.6435 125.781 19.2763 125.781 20.03C125.781 20.8263 125.574 21.5658 125.162 22.2483C124.75 22.9309 124.145 23.4855 123.349 23.9121C122.553 24.3245 121.571 24.5307 120.405 24.5307C119.808 24.5307 119.197 24.4738 118.571 24.36C117.959 24.232 117.355 24.0472 116.758 23.8054C116.161 23.5495 115.585 23.2295 115.03 22.8456L116.395 20.4352C116.765 20.7054 117.163 20.9472 117.59 21.1605C118.031 21.3596 118.471 21.516 118.912 21.6297C119.353 21.7435 119.758 21.8004 120.128 21.8004C120.498 21.8004 120.867 21.7506 121.237 21.6511C121.621 21.5373 121.934 21.3525 122.176 21.0965C122.432 20.8405 122.56 20.485 122.56 20.03C122.56 19.7171 122.453 19.4327 122.24 19.1768C122.041 18.9208 121.763 18.6862 121.408 18.4729C121.067 18.2596 120.69 18.0747 120.277 17.9183C119.794 17.7334 119.296 17.5201 118.784 17.2784C118.272 17.0366 117.789 16.7451 117.334 16.4038C116.893 16.0483 116.53 15.6146 116.246 15.1027C115.976 14.5765 115.841 13.9366 115.841 13.1829C115.841 12.2728 116.04 11.4836 116.438 10.8153C116.85 10.1469 117.426 9.62077 118.166 9.23682C118.905 8.83866 119.758 8.61825 120.725 8.57559C121.991 8.57559 123.015 8.7249 123.797 9.02352C124.593 9.32215 125.304 9.67765 125.93 10.09L124.757 12.4577Z" fill="#FFA633"/>
<path d="M138.686 8.63958C139.668 8.63958 140.542 8.76756 141.31 9.02352C142.078 9.26527 142.718 9.62077 143.23 10.09C143.756 10.5451 144.154 11.0997 144.424 11.7538C144.694 12.3937 144.829 13.1189 144.829 13.9295C144.829 14.5694 144.73 15.2093 144.531 15.8492C144.346 16.4891 144.033 17.0722 143.592 17.5983C143.166 18.1245 142.597 18.5511 141.886 18.8781C141.175 19.191 140.293 19.3474 139.241 19.3474H137.023V24.3387H133.93V8.63958H138.686ZM139.22 16.3612C139.689 16.3612 140.08 16.2829 140.393 16.1265C140.706 15.9701 140.947 15.771 141.118 15.5293C141.303 15.2875 141.431 15.0387 141.502 14.7827C141.587 14.5125 141.63 14.2637 141.63 14.0361C141.63 13.8655 141.601 13.6522 141.545 13.3962C141.502 13.1261 141.402 12.8559 141.246 12.5857C141.09 12.3155 140.848 12.088 140.521 11.9031C140.208 11.7183 139.781 11.6258 139.241 11.6258H137.023V16.3612H139.22ZM142.121 18.2809L146.003 24.3387H142.398L138.43 18.3662L142.121 18.2809Z" fill="white"/>
<path d="M147.486 8.63958H158.194V11.6258H150.579V14.9747H157.319V17.9609H150.579V21.3525H158.493V24.3387H147.486V8.63958Z" fill="white"/>
<path d="M174.683 24.9786L162.78 14.2281L163.697 14.74L163.761 24.3387H160.626V8.021H160.754L172.4 18.7288L171.718 18.4302L171.654 8.63958H174.768V24.9786H174.683Z" fill="white"/>
<path d="M176.678 8.63958H187.258V11.6258H183.44V24.3387H180.347V11.6258H176.678V8.63958Z" fill="white"/>
</svg>
