<svg width="151" height="27" viewBox="0 0 151 27" fill="none" xmlns="http://www.w3.org/2000/svg">
<path d="M0.599609 21.1772V24.4048C0.599609 25.4627 1.45716 26.3202 2.51501 26.3202V26.3202C3.57286 26.3202 4.43041 25.4627 4.43041 24.4048V23.4089H4.3154C2.81405 23.2327 1.46066 22.4199 0.599609 21.1772Z" fill="white"/>
<path d="M21.7743 23.3991H21.6689V24.4047C21.6689 25.4626 22.5265 26.3201 23.5843 26.3201V26.3201C24.6422 26.3201 25.4997 25.4626 25.4997 24.4047V21.1868C25.3247 21.4369 25.1276 21.671 24.9108 21.886C24.067 22.7312 22.9612 23.2649 21.7743 23.3991Z" fill="white"/>
<path d="M1.07617 11.9372C1.07617 11.4101 1.5034 10.9829 2.03042 10.9829H3.90392V12.8914H2.03042C1.5034 12.8914 1.07617 12.4642 1.07617 11.9372V11.9372Z" fill="white"/>
<path d="M22.1934 10.9829H24.0669C24.5939 10.9829 25.0211 11.4101 25.0211 11.9372V11.9372C25.0211 12.4642 24.5939 12.8914 24.0669 12.8914H22.1934V10.9829Z" fill="white"/>
<rect x="15.7725" y="13.9482" width="5.30115" height="6.42283" transform="rotate(-90 15.7725 13.9482)" fill="#D87A00"/>
<path d="M13.0503 0.897461L3.90527 5.93377V8.68767H22.1953V5.93377L13.0503 0.897461Z" fill="#FFA633"/>
<path d="M3.90527 5.83283L10.3281 2.35425V13.9484H3.90527V5.83283Z" fill="#FFC147"/>
<path d="M21.3621 13.7712H4.75455C3.64885 13.8205 2.6049 14.2945 1.84003 15.0947C1.07537 15.8949 0.649302 16.9595 0.650393 18.0663C0.650819 18.2259 0.661898 18.3855 0.683841 18.5436C0.795267 19.5078 1.23012 20.406 1.91716 21.0914C2.60448 21.777 3.50374 22.2095 4.46817 22.3184C4.62625 22.3424 4.78562 22.3567 4.9454 22.3614H21.1711C21.3307 22.3616 21.4901 22.352 21.6484 22.3329C22.6152 22.2231 23.5159 21.7885 24.2035 21.1001C24.891 20.4118 25.3243 19.5104 25.4328 18.5435C25.4547 18.3855 25.4658 18.2259 25.4662 18.0663C25.4673 16.9595 25.0412 15.8949 24.2766 15.0947C23.5118 14.2945 22.4678 13.8205 21.3621 13.7712Z" fill="white"/>
<ellipse cx="4.95225" cy="18.0665" rx="1.90929" ry="1.9093" fill="#FFA633"/>
<ellipse cx="21.1749" cy="18.0665" rx="1.90929" ry="1.9093" fill="#FFA633"/>
<path d="M31.8857 20.9083V8.10794H35.7119C36.9989 8.10794 38.0946 8.29925 38.999 8.68187C39.9033 9.06449 40.628 9.57465 41.1729 10.2124C41.7295 10.8501 42.1353 11.5631 42.3903 12.3515C42.6454 13.14 42.773 13.9342 42.773 14.7342C42.773 15.685 42.599 16.543 42.2512 17.3082C41.915 18.0619 41.4512 18.7112 40.8599 19.2561C40.2685 19.7895 39.5845 20.2011 38.8076 20.4909C38.0308 20.7692 37.2076 20.9083 36.338 20.9083H31.8857ZM34.4075 18.4735H35.9032C36.5409 18.4735 37.1206 18.3923 37.6424 18.23C38.1642 18.0561 38.6105 17.8068 38.9816 17.4821C39.3642 17.1575 39.654 16.7517 39.8511 16.2647C40.0598 15.7661 40.1642 15.198 40.1642 14.5603C40.1642 13.7255 40.0251 13.0472 39.7468 12.5255C39.4801 11.9921 39.1439 11.5805 38.7381 11.2906C38.3439 11.0008 37.9381 10.8037 37.5207 10.6993C37.1033 10.5834 36.7496 10.5254 36.4598 10.5254H34.4075V18.4735Z" fill="#FFA633"/>
<path d="M48.3119 8.10794C49.112 8.10794 49.825 8.21229 50.4511 8.42099C51.0772 8.6181 51.599 8.90796 52.0164 9.29058C52.4454 9.66161 52.77 10.1138 52.9903 10.6471C53.2106 11.1689 53.3208 11.7602 53.3208 12.4211C53.3208 12.9429 53.2396 13.4646 53.0773 13.9864C52.9265 14.5081 52.6715 14.9835 52.312 15.4125C51.9642 15.8415 51.5004 16.1894 50.9207 16.456C50.341 16.7111 49.6221 16.8386 48.7641 16.8386H46.9554V20.9083H44.4336V8.10794H48.3119ZM48.7467 14.4038C49.1294 14.4038 49.4482 14.34 49.7033 14.2125C49.9584 14.0849 50.1555 13.9226 50.2946 13.7255C50.4453 13.5284 50.5497 13.3255 50.6077 13.1168C50.6772 12.8965 50.712 12.6936 50.712 12.5081C50.712 12.3689 50.6888 12.195 50.6424 11.9863C50.6077 11.766 50.5265 11.5457 50.399 11.3254C50.2714 11.1051 50.0743 10.9196 49.8076 10.7689C49.5526 10.6182 49.2047 10.5428 48.7641 10.5428H46.9554V14.4038H48.7467ZM51.112 15.9691L54.2773 20.9083H51.3381L48.1032 16.0386L51.112 15.9691Z" fill="#FFA633"/>
<path d="M55.4868 8.10794H64.2175V10.5428H58.0086V13.2733H63.5044V15.7082H58.0086V18.4735H64.461V20.9083H55.4868V8.10794Z" fill="#FFA633"/>
<path d="M64.7569 20.9083L70.5309 7.60357H70.6701L76.4441 20.9083H73.5223L69.8353 11.5515L71.6614 10.2993L67.2439 20.9083H64.7569ZM68.7048 16.2821H72.5484L73.4354 18.4039H67.9222L68.7048 16.2821Z" fill="#FFA633"/>
<path d="M77.4405 20.9083V7.58618H77.4579L84.5711 17.6735L83.4928 17.43L90.5886 7.58618H90.6234V20.9083H88.1016V13.2733L88.2581 14.5777L83.9276 20.7344H83.8928L79.4405 14.5777L79.8753 13.3777V20.9083H77.4405Z" fill="#FFA633"/>
<path d="M99.8974 11.2037C99.4104 10.937 98.9119 10.7167 98.4017 10.5428C97.9032 10.3689 97.4336 10.2819 96.993 10.2819C96.448 10.2819 96.0191 10.3921 95.706 10.6124C95.3929 10.8327 95.2364 11.1631 95.2364 11.6037C95.2364 11.9052 95.3524 12.1776 95.5843 12.4211C95.8277 12.653 96.135 12.8617 96.506 13.0472C96.8886 13.2327 97.2829 13.4009 97.6887 13.5516C98.0597 13.6907 98.4249 13.8588 98.7843 14.0559C99.1554 14.2415 99.4858 14.4792 99.7757 14.769C100.066 15.0473 100.297 15.4009 100.471 15.8299C100.645 16.2473 100.732 16.7633 100.732 17.3778C100.732 18.0271 100.564 18.63 100.228 19.1865C99.8916 19.7431 99.3988 20.1953 98.7495 20.5431C98.1003 20.8794 97.3002 21.0475 96.3495 21.0475C95.8625 21.0475 95.364 21.0011 94.8538 20.9083C94.3552 20.804 93.8625 20.6533 93.3755 20.4562C92.8885 20.2474 92.419 19.9866 91.9668 19.6735L93.0799 17.7082C93.3813 17.9285 93.706 18.1256 94.0538 18.2996C94.4132 18.4619 94.7726 18.5894 95.1321 18.6822C95.4915 18.7749 95.8219 18.8213 96.1234 18.8213C96.4249 18.8213 96.7263 18.7807 97.0278 18.6996C97.3408 18.6068 97.5959 18.4561 97.793 18.2474C98.0017 18.0387 98.1061 17.7488 98.1061 17.3778C98.1061 17.1227 98.0191 16.8908 97.8452 16.6821C97.6829 16.4734 97.4568 16.2821 97.1669 16.1082C96.8886 15.9343 96.5814 15.7835 96.2451 15.656C95.8509 15.5053 95.4451 15.3314 95.0277 15.1342C94.6103 14.9371 94.2161 14.6994 93.8451 14.4212C93.4857 14.1313 93.19 13.7777 92.9581 13.3603C92.7378 12.9313 92.6277 12.4095 92.6277 11.795C92.6277 11.053 92.79 10.4095 93.1146 9.86451C93.4509 9.31957 93.9204 8.89057 94.5234 8.57752C95.1263 8.25287 95.8219 8.07315 96.6104 8.03837C97.6423 8.03837 98.4771 8.16011 99.1148 8.4036C99.7641 8.64708 100.344 8.93695 100.854 9.27319L99.8974 11.2037Z" fill="#FFA633"/>
<path d="M110.997 8.10794C111.797 8.10794 112.51 8.21229 113.136 8.42099C113.762 8.6181 114.284 8.90796 114.701 9.29058C115.13 9.66161 115.455 10.1138 115.675 10.6471C115.896 11.1689 116.006 11.7602 116.006 12.4211C116.006 12.9429 115.925 13.4646 115.762 13.9864C115.611 14.5081 115.356 14.9835 114.997 15.4125C114.649 15.8415 114.185 16.1894 113.606 16.456C113.026 16.7111 112.307 16.8386 111.449 16.8386H109.64V20.9083H107.118V8.10794H110.997ZM111.432 14.4038C111.814 14.4038 112.133 14.34 112.388 14.2125C112.643 14.0849 112.84 13.9226 112.98 13.7255C113.13 13.5284 113.235 13.3255 113.293 13.1168C113.362 12.8965 113.397 12.6936 113.397 12.5081C113.397 12.3689 113.374 12.195 113.327 11.9863C113.293 11.766 113.211 11.5457 113.084 11.3254C112.956 11.1051 112.759 10.9196 112.493 10.7689C112.237 10.6182 111.89 10.5428 111.449 10.5428H109.64V14.4038H111.432ZM113.797 15.9691L116.962 20.9083H114.023L110.788 16.0386L113.797 15.9691Z" fill="white"/>
<path d="M118.172 8.10794H126.902V10.5428H120.694V13.2733H126.189V15.7082H120.694V18.4735H127.146V20.9083H118.172V8.10794Z" fill="white"/>
<path d="M140.346 21.4301L130.642 12.6646L131.39 13.082L131.442 20.9083H128.885V7.60357H128.99L138.486 16.3343L137.929 16.0908L137.877 8.10794H140.416V21.4301H140.346Z" fill="white"/>
<path d="M141.973 8.10794H150.6V10.5428H147.486V20.9083H144.965V10.5428H141.973V8.10794Z" fill="white"/>
</svg>
