<svg width="151" height="26" viewBox="0 0 151 26" fill="none" xmlns="http://www.w3.org/2000/svg">
<path d="M0.599609 20.5518V23.7794C0.599609 24.8372 1.45716 25.6948 2.51501 25.6948V25.6948C3.57286 25.6948 4.43041 24.8372 4.43041 23.7794V22.7834H4.3154C2.81405 22.6072 1.46066 21.7944 0.599609 20.5518Z" fill="#2F2F2F"/>
<path d="M21.7743 22.7736H21.6689V23.7792C21.6689 24.8371 22.5265 25.6946 23.5843 25.6946V25.6946C24.6422 25.6946 25.4997 24.8371 25.4997 23.7792V20.5613C25.3247 20.8114 25.1276 21.0455 24.9108 21.2605C24.067 22.1058 22.9612 22.6394 21.7743 22.7736Z" fill="#2F2F2F"/>
<path d="M1.07617 11.3119C1.07617 10.7849 1.5034 10.3577 2.03042 10.3577H3.90392V12.2662H2.03042C1.5034 12.2662 1.07617 11.8389 1.07617 11.3119V11.3119Z" fill="#127384"/>
<path d="M22.1934 10.3577H24.0669C24.5939 10.3577 25.0211 10.7849 25.0211 11.3119V11.3119C25.0211 11.8389 24.5939 12.2662 24.0669 12.2662H22.1934V10.3577Z" fill="#127384"/>
<rect x="15.7725" y="13.323" width="5.30114" height="6.42283" transform="rotate(-90 15.7725 13.323)" fill="#D87A00"/>
<path d="M13.0503 0.272217L3.90527 5.30852V8.06242H22.1953V5.30852L13.0503 0.272217Z" fill="#FFA633"/>
<path d="M3.90527 5.20758L10.3281 1.729V13.3231H3.90527V5.20758Z" fill="#FFC147"/>
<path d="M21.3621 13.146H4.75455C3.64885 13.1952 2.6049 13.6692 1.84003 14.4695C1.07537 15.2697 0.649302 16.3343 0.650393 17.4411C0.650819 17.6006 0.661898 17.7602 0.683841 17.9183C0.795267 18.8826 1.23012 19.7808 1.91716 20.4662C2.60448 21.1517 3.50374 21.5843 4.46817 21.6931C4.62625 21.7172 4.78562 21.7315 4.9454 21.7362H21.1711C21.3307 21.7364 21.4901 21.7268 21.6484 21.7076C22.6152 21.5979 23.5159 21.1633 24.2035 20.4749C24.891 19.7865 25.3243 18.8851 25.4328 17.9183C25.4547 17.7602 25.4658 17.6006 25.4662 17.4411C25.4673 16.3343 25.0412 15.2697 24.2766 14.4695C23.5118 13.6692 22.4678 13.1952 21.3621 13.146Z" fill="#2F2F2F"/>
<ellipse cx="4.95225" cy="17.4413" rx="1.90929" ry="1.9093" fill="#FFA633"/>
<ellipse cx="21.1749" cy="17.4413" rx="1.90929" ry="1.9093" fill="#FFA633"/>
<path d="M31.8857 20.2831V7.48269H35.7119C36.9989 7.48269 38.0946 7.674 38.999 8.05662C39.9033 8.43924 40.628 8.9494 41.1729 9.5871C41.7295 10.2248 42.1353 10.9379 42.3903 11.7263C42.6454 12.5147 42.773 13.309 42.773 14.109C42.773 15.0597 42.599 15.9177 42.2512 16.683C41.915 17.4366 41.4512 18.0859 40.8599 18.6309C40.2685 19.1642 39.5845 19.5758 38.8076 19.8657C38.0308 20.1439 37.2076 20.2831 36.338 20.2831H31.8857ZM34.4075 17.8482H35.9032C36.5409 17.8482 37.1206 17.7671 37.6424 17.6047C38.1642 17.4308 38.6105 17.1815 38.9816 16.8569C39.3642 16.5322 39.654 16.1264 39.8511 15.6395C40.0598 15.1409 40.1642 14.5728 40.1642 13.9351C40.1642 13.1003 40.0251 12.422 39.7468 11.9002C39.4801 11.3669 39.1439 10.9553 38.7381 10.6654C38.3439 10.3755 37.9381 10.1784 37.5207 10.0741C37.1033 9.95813 36.7496 9.90016 36.4598 9.90016H34.4075V17.8482Z" fill="#FFA633"/>
<path d="M48.3119 7.48269C49.112 7.48269 49.825 7.58704 50.4511 7.79574C51.0772 7.99285 51.599 8.28272 52.0164 8.66534C52.4454 9.03636 52.77 9.48855 52.9903 10.0219C53.2106 10.5437 53.3208 11.135 53.3208 11.7959C53.3208 12.3176 53.2396 12.8394 53.0773 13.3611C52.9265 13.8829 52.6715 14.3583 52.312 14.7873C51.9642 15.2163 51.5004 15.5641 50.9207 15.8308C50.341 16.0859 49.6221 16.2134 48.7641 16.2134H46.9554V20.2831H44.4336V7.48269H48.3119ZM48.7467 13.7785C49.1294 13.7785 49.4482 13.7148 49.7033 13.5872C49.9584 13.4597 50.1555 13.2974 50.2946 13.1003C50.4453 12.9031 50.5497 12.7002 50.6077 12.4915C50.6772 12.2712 50.712 12.0683 50.712 11.8828C50.712 11.7437 50.6888 11.5698 50.6424 11.3611C50.6077 11.1408 50.5265 10.9205 50.399 10.7002C50.2714 10.4799 50.0743 10.2944 49.8076 10.1436C49.5526 9.99291 49.2047 9.91755 48.7641 9.91755H46.9554V13.7785H48.7467ZM51.112 15.3438L54.2773 20.2831H51.3381L48.1032 15.4134L51.112 15.3438Z" fill="#FFA633"/>
<path d="M55.4868 7.48269H64.2175V9.91755H58.0086V12.6481H63.5044V15.0829H58.0086V17.8482H64.461V20.2831H55.4868V7.48269Z" fill="#FFA633"/>
<path d="M64.7569 20.2831L70.5309 6.97833H70.6701L76.4441 20.2831H73.5223L69.8353 10.9263L71.6614 9.67406L67.2439 20.2831H64.7569ZM68.7048 15.6569H72.5484L73.4354 17.7787H67.9222L68.7048 15.6569Z" fill="#FFA633"/>
<path d="M77.4405 20.2831V6.96094H77.4579L84.5711 17.0482L83.4928 16.8047L90.5886 6.96094H90.6234V20.2831H88.1016V12.6481L88.2581 13.9525L83.9276 20.1092H83.8928L79.4405 13.9525L79.8753 12.7524V20.2831H77.4405Z" fill="#FFA633"/>
<path d="M99.8974 10.5784C99.4104 10.3118 98.9119 10.0915 98.4017 9.91755C97.9032 9.74363 97.4336 9.65667 96.993 9.65667C96.448 9.65667 96.0191 9.76682 95.706 9.98712C95.3929 10.2074 95.2364 10.5379 95.2364 10.9784C95.2364 11.2799 95.3524 11.5524 95.5843 11.7959C95.8277 12.0278 96.135 12.2365 96.506 12.422C96.8886 12.6075 97.2829 12.7756 97.6887 12.9263C98.0597 13.0655 98.4249 13.2336 98.7843 13.4307C99.1554 13.6162 99.4858 13.8539 99.7757 14.1438C100.066 14.422 100.297 14.7757 100.471 15.2047C100.645 15.6221 100.732 16.138 100.732 16.7525C100.732 17.4018 100.564 18.0047 100.228 18.5613C99.8916 19.1178 99.3988 19.57 98.7495 19.9178C98.1003 20.2541 97.3002 20.4222 96.3495 20.4222C95.8625 20.4222 95.364 20.3758 94.8538 20.2831C94.3552 20.1787 93.8625 20.028 93.3755 19.8309C92.8885 19.6222 92.419 19.3613 91.9668 19.0483L93.0799 17.083C93.3813 17.3033 93.706 17.5004 94.0538 17.6743C94.4132 17.8366 94.7726 17.9642 95.1321 18.0569C95.4915 18.1497 95.8219 18.1961 96.1234 18.1961C96.4249 18.1961 96.7263 18.1555 97.0278 18.0743C97.3408 17.9816 97.5959 17.8308 97.793 17.6221C98.0017 17.4134 98.1061 17.1236 98.1061 16.7525C98.1061 16.4975 98.0191 16.2656 97.8452 16.0569C97.6829 15.8482 97.4568 15.6569 97.1669 15.4829C96.8886 15.309 96.5814 15.1583 96.2451 15.0307C95.8509 14.88 95.4451 14.7061 95.0277 14.509C94.6103 14.3119 94.2161 14.0742 93.8451 13.7959C93.4857 13.5061 93.19 13.1524 92.9581 12.735C92.7378 12.306 92.6277 11.7843 92.6277 11.1698C92.6277 10.4277 92.79 9.78421 93.1146 9.23927C93.4509 8.69432 93.9204 8.26532 94.5234 7.95227C95.1263 7.62762 95.8219 7.44791 96.6104 7.41313C97.6423 7.41313 98.4771 7.53487 99.1148 7.77835C99.7641 8.02184 100.344 8.3117 100.854 8.64794L99.8974 10.5784Z" fill="#FFA633"/>
<path d="M110.997 7.48269C111.797 7.48269 112.51 7.58704 113.136 7.79574C113.762 7.99285 114.284 8.28272 114.701 8.66534C115.13 9.03636 115.455 9.48855 115.675 10.0219C115.896 10.5437 116.006 11.135 116.006 11.7959C116.006 12.3176 115.925 12.8394 115.762 13.3611C115.611 13.8829 115.356 14.3583 114.997 14.7873C114.649 15.2163 114.185 15.5641 113.606 15.8308C113.026 16.0859 112.307 16.2134 111.449 16.2134H109.64V20.2831H107.118V7.48269H110.997ZM111.432 13.7785C111.814 13.7785 112.133 13.7148 112.388 13.5872C112.643 13.4597 112.84 13.2974 112.98 13.1003C113.13 12.9031 113.235 12.7002 113.293 12.4915C113.362 12.2712 113.397 12.0683 113.397 11.8828C113.397 11.7437 113.374 11.5698 113.327 11.3611C113.293 11.1408 113.211 10.9205 113.084 10.7002C112.956 10.4799 112.759 10.2944 112.493 10.1436C112.237 9.99291 111.89 9.91755 111.449 9.91755H109.64V13.7785H111.432ZM113.797 15.3438L116.962 20.2831H114.023L110.788 15.4134L113.797 15.3438Z" fill="#2F2F2F"/>
<path d="M118.172 7.48269H126.902V9.91755H120.694V12.6481H126.189V15.0829H120.694V17.8482H127.146V20.2831H118.172V7.48269Z" fill="#2F2F2F"/>
<path d="M140.346 20.8048L130.642 12.0394L131.39 12.4568L131.442 20.2831H128.885V6.97833H128.99L138.486 15.709L137.929 15.4655L137.877 7.48269H140.416V20.8048H140.346Z" fill="#2F2F2F"/>
<path d="M141.973 7.48269H150.6V9.91755H147.486V20.2831H144.965V9.91755H141.973V7.48269Z" fill="#2F2F2F"/>
</svg>
