<svg width="24" height="24" viewBox="0 0 24 24" fill="none" xmlns="http://www.w3.org/2000/svg">
<path d="M0 19.1448V22.1918C0 23.1904 0.809561 24 1.80821 24V24C2.80685 24 3.61641 23.1904 3.61641 22.1918V21.2516H3.50784C2.09051 21.0853 0.812866 20.3179 0 19.1448Z" fill="#2F2F2F"/>
<path d="M19.9901 21.2423H19.8906V22.1916C19.8906 23.1903 20.7002 23.9999 21.6988 23.9999V23.9999C22.6975 23.9999 23.507 23.1903 23.507 22.1916V19.1538C23.3418 19.3899 23.1557 19.6109 22.951 19.8139C22.1545 20.6118 21.1105 21.1156 19.9901 21.2423Z" fill="#2F2F2F"/>
<path d="M0.451172 10.4221C0.451172 9.92462 0.854491 9.5213 1.35201 9.5213H3.12067V11.323H1.35201C0.854492 11.323 0.451172 10.9197 0.451172 10.4221V10.4221Z" fill="#2F2F2F"/>
<path d="M20.3867 9.5213H22.1554C22.6529 9.5213 23.0562 9.92462 23.0562 10.4221V10.4221C23.0562 10.9197 22.6529 11.323 22.1554 11.323H20.3867V9.5213Z" fill="#2F2F2F"/>
<rect x="14.3232" y="12.3205" width="5.00444" height="6.06338" transform="rotate(-90 14.3232 12.3205)" fill="#D87A00"/>
<path d="M11.7533 0L3.12012 4.75442V7.35418H20.3865V4.75442L11.7533 0Z" fill="#FFA633"/>
<path d="M3.12012 4.65925L9.1835 1.37537V12.3205H3.12012V4.65925Z" fill="#FFC147"/>
<path d="M19.5994 12.1533H3.92135C2.87753 12.1998 1.892 12.6473 1.16993 13.4027C0.448071 14.1582 0.0458472 15.1632 0.046877 16.208C0.0472792 16.3586 0.0577379 16.5093 0.0784536 16.6585C0.183644 17.5688 0.594157 18.4167 1.24275 19.0638C1.8916 19.711 2.74054 20.1193 3.651 20.2221C3.80023 20.2448 3.95068 20.2583 4.10152 20.2627H19.4192C19.5698 20.2629 19.7203 20.2538 19.8697 20.2357C20.7824 20.1322 21.6328 19.7219 22.2818 19.072C22.9308 18.4222 23.34 17.5712 23.4423 16.6585C23.463 16.5093 23.4735 16.3586 23.4739 16.208C23.4749 15.1631 23.0727 14.1581 22.3508 13.4027C21.6288 12.6473 20.6433 12.1998 19.5994 12.1533Z" fill="#2F2F2F"/>
<circle cx="4.10712" cy="16.2081" r="1.80243" fill="#FFA633"/>
<circle cx="19.4226" cy="16.2081" r="1.80243" fill="#FFA633"/>
</svg>
