<svg width="91" height="41" viewBox="0 0 91 41" fill="none" xmlns="http://www.w3.org/2000/svg">
<g clip-path="url(#clip0_3359_57364)">
<path d="M74.1692 18.28L71.9787 17.4759C69.438 16.4916 66.8972 15.4192 64.4433 14.1678L57.7857 10.8597C53.4048 8.71442 48.5856 7.55225 43.767 7.55225H18.2726C17.2211 7.55225 16.2576 7.99951 15.469 8.71442C13.1905 11.0388 13.0157 16.3137 13.1031 18.3699V23.197C13.1031 27.0415 16.0816 30.0808 19.8493 30.0808H20.5499C21.514 32.1369 23.529 33.6565 25.8943 33.6565C28.2602 33.6565 30.3626 32.2261 31.2387 30.0808H59.8013C60.7648 32.1369 62.7798 33.6565 65.1451 33.6565C67.511 33.6565 69.614 32.2261 70.49 30.0808H70.6649C74.3452 30.0808 77.4111 26.9523 77.4111 23.197C77.4111 21.0517 76.0967 19.0848 74.1692 18.28ZM19.7613 29.4557C18.2715 29.4557 16.8702 28.8294 15.8187 27.9355H20.0247C20.0247 28.472 20.1122 29.0084 20.2876 29.4557H19.7619H19.7613ZM31.0638 27.8463C31.0638 28.3822 30.9764 28.9192 30.8009 29.3665C30.7129 29.6341 30.6255 29.8126 30.538 30.0814C30.0929 30.9446 29.425 31.6674 28.6066 32.1715C27.7881 32.6756 26.8503 32.9419 25.8943 32.9416C23.8793 32.9416 22.1266 31.7795 21.3385 30.0814C21.2511 29.9024 21.1637 29.6341 21.0757 29.3659C20.9008 28.9192 20.8134 28.3827 20.8134 27.8463V27.6672C20.8134 27.4882 20.8134 27.3092 20.9008 27.2206C21.1637 24.5382 23.3541 22.3929 26.0703 22.3929C28.7865 22.3929 30.9769 24.5382 31.2392 27.2206C31.2392 27.399 31.3267 27.5786 31.3267 27.6672C31.1512 27.7565 31.1512 27.7565 31.0638 27.8463ZM31.589 29.4551C31.7644 28.9192 31.8519 28.472 31.8519 27.9355H59.2744C59.2744 28.472 59.3624 29.0084 59.5373 29.4557L31.589 29.4551ZM70.4015 27.8463C70.4015 28.3822 70.314 28.9192 70.1386 29.3665C70.0512 29.6341 69.9637 29.8126 69.8763 30.0814C69.0002 31.78 67.2475 32.9416 65.3205 32.9416C64.3646 32.9419 63.4267 32.6756 62.6083 32.1715C61.7898 31.6674 61.1219 30.9446 60.6768 30.0814C60.5888 29.9024 60.5013 29.6341 60.4139 29.3659C60.2384 28.9192 60.151 28.3827 60.151 27.8463V27.6672C60.151 27.4882 60.151 27.3092 60.2384 27.2206C60.5013 24.5382 62.6918 22.3929 65.408 22.3929C68.1242 22.3929 70.314 24.5382 70.5769 27.2206C70.5769 27.399 70.6643 27.5786 70.6643 27.6672C70.4015 27.7565 70.4015 27.7565 70.4015 27.8463ZM70.8398 29.4551C71.0152 28.9192 71.1027 28.472 71.1027 27.9355H74.7823C73.6434 28.8294 72.329 29.3653 70.8398 29.4551ZM75.3961 27.2206H71.1027C70.8398 24.0915 68.299 21.6779 65.2325 21.6779C62.1666 21.6779 59.6253 24.0915 59.3624 27.2206H31.8519C31.589 24.0915 29.0482 21.6779 25.9817 21.6779C22.9158 21.6779 20.3745 24.0915 20.1116 27.2206H15.293C14.4169 26.1476 13.8917 24.7172 13.8917 23.1976V22.3036H15.6438C15.8187 22.3036 15.9947 22.1246 15.9947 21.9456C15.9947 21.7672 15.8187 21.5875 15.6438 21.5875H13.8911V20.5152H16.8696C17.0451 20.5152 17.2205 20.3362 17.2205 20.1571C17.2205 19.9787 17.0451 19.7991 16.8696 19.7991H13.7163V18.28C13.7163 16.2239 13.8037 11.2172 15.9061 9.07188C16.5199 8.35638 17.3085 8.08814 18.184 8.08814H43.6801C48.4107 8.08814 53.1425 9.25031 57.4354 11.3064L64.0942 14.6145C66.5469 15.8659 69.1757 16.9389 71.7164 17.922L73.9069 18.7267C74.8704 19.0848 75.571 19.7997 76.0973 20.6936H73.0308C72.8554 20.6936 72.6799 20.8726 72.6799 21.0517C72.6799 21.2301 72.8554 21.4097 73.0308 21.4097H76.447C76.6225 21.9456 76.7105 22.4821 76.7105 23.018C76.7979 24.7172 76.2722 26.059 75.3961 27.2206Z" fill="#111111" stroke="#111111" stroke-width="0.236"/>
<path d="M65.1445 24.182C63.4798 24.182 62.0786 25.434 61.8151 27.132C61.8151 27.311 61.7277 27.4901 61.7277 27.5793V27.7583C61.7277 28.2942 61.9031 28.8307 62.1654 29.2779C62.3409 29.5462 62.5163 29.7246 62.6912 29.9928C63.3044 30.6185 64.181 30.9766 65.0565 30.9766C66.0206 30.9766 66.8092 30.6185 67.423 29.9928C67.5973 29.8138 67.7727 29.5462 67.9481 29.2779C68.211 28.8307 68.3859 28.2948 68.3859 27.7577V27.5793C68.3859 27.4003 68.3859 27.2212 68.299 27.132C68.299 25.5232 66.8966 24.182 65.1445 24.182ZM67.8607 27.8475C67.8607 28.4169 67.6404 28.9627 67.2475 29.3677C66.9841 29.6354 66.7212 29.9036 66.3715 30.0826C66.0206 30.2617 65.5828 30.4407 65.1445 30.4407C64.7068 30.4407 64.2685 30.3509 63.9181 30.0826C63.5673 29.9036 63.3044 29.6354 63.0421 29.3677C62.6912 28.9205 62.4283 28.3846 62.4283 27.8475V27.6691C62.4283 27.4901 62.4283 27.311 62.5163 27.2218C62.7792 25.9698 63.8301 24.9867 65.1451 24.9867C66.4589 24.9867 67.5973 25.9704 67.7727 27.2218C67.7727 27.4008 67.8607 27.5799 67.8607 27.6685V27.8475ZM47.9736 19.1752H46.2215C46.0466 19.1752 45.8706 19.3543 45.8706 19.5333C45.8706 19.7117 46.0466 19.8913 46.2215 19.8913H47.9742C48.149 19.8913 48.3245 19.7117 48.3245 19.5333C48.3245 19.3543 48.149 19.1752 47.9736 19.1752ZM32.0273 19.1752H30.2746C30.0997 19.1752 29.9237 19.3543 29.9237 19.5333C29.9237 19.7117 30.0997 19.8913 30.2746 19.8913H32.0273C32.2022 19.8913 32.3782 19.7117 32.3782 19.5333C32.3782 19.3543 32.2022 19.1752 32.0273 19.1752ZM25.8937 24.182C24.229 24.182 22.8272 25.434 22.5638 27.132C22.5638 27.311 22.4763 27.4901 22.4763 27.5793V27.7583C22.4763 28.2942 22.6518 28.8307 22.9146 29.2779C23.0901 29.5462 23.2655 29.7246 23.4398 29.9928C24.0536 30.6185 24.9296 30.9766 25.8057 30.9766C26.7698 30.9766 27.5578 30.6185 28.171 29.9928C28.3465 29.8138 28.5219 29.5462 28.6968 29.2779C28.9596 28.8307 29.1345 28.2948 29.1345 27.7577V27.5793C29.1345 27.4003 29.1345 27.2212 29.0471 27.132C29.0471 25.5232 27.6458 24.182 25.8931 24.182H25.8937ZM28.6099 27.8475C28.6099 28.4738 28.347 29.0097 27.9962 29.3677C27.7338 29.6354 27.471 29.9036 27.1201 30.0826C26.7692 30.2617 26.332 30.4407 25.8937 30.4407C25.4554 30.4407 25.0177 30.3509 24.6668 30.0826C24.3159 29.9036 24.0536 29.6354 23.7907 29.3677C23.4398 28.9205 23.1775 28.3846 23.1775 27.8475V27.6691C23.1775 27.4901 23.1775 27.311 23.265 27.2218C23.5278 25.9698 24.5793 24.9867 25.8937 24.9867C27.2075 24.9867 28.3465 25.9704 28.5219 27.2218C28.5219 27.4008 28.6093 27.5799 28.6093 27.6685V27.8475H28.6099ZM65.6697 17.1174L58.3977 13.1836C56.5582 12.201 55.0689 11.4849 53.6665 11.0388C50.1623 9.87667 46.57 9.25098 42.8904 9.25098H19.5853C17.3074 9.25098 15.4673 11.2173 15.4673 13.6314C15.4673 16.3132 17.4823 18.4591 20.023 18.4591H65.3194C65.6697 18.4591 65.9331 18.2801 66.0206 17.9227C66.1074 17.6544 65.9326 17.297 65.6697 17.118V17.1174ZM19.9356 17.8323C17.8331 17.7431 16.1679 15.9552 16.1679 13.7201C16.1679 11.664 17.7451 10.0545 19.6727 10.0545H19.9356V17.8323ZM26.9452 17.8323H20.5488V9.9653H26.9452V17.8323ZM28.8722 17.8323H27.6458V9.9653H28.8728L28.8722 17.8323ZM44.4676 17.8323H29.4854V9.9653H42.8904C43.4161 9.9653 43.9419 9.9653 44.467 10.0545L44.4676 17.8323ZM45.1682 17.8323V10.0551C47.9719 10.2335 50.7755 10.77 53.4917 11.7538C54.8935 12.2004 56.3827 12.9159 58.1349 13.8991L65.4068 17.8329L45.1682 17.8323Z" fill="#111111" stroke="#111111" stroke-width="0.236"/>
</g>
<defs>
<clipPath id="clip0_3359_57364">
<rect width="65" height="27" fill="white" transform="translate(12.5106 6.96533)"/>
</clipPath>
</defs>
</svg>
