<svg width="64" height="32" viewBox="0 0 64 32" fill="none" xmlns="http://www.w3.org/2000/svg">
<path d="M51.6138 21.3742C49.7156 21.3742 48.088 22.9108 48.088 24.9C48.088 25.0801 48.088 25.2609 48.1791 25.4416C48.1791 25.5314 48.1791 25.7128 48.2695 25.8032C48.2695 25.8936 48.3598 26.0744 48.3598 26.1647C48.8118 27.5212 50.1676 28.4244 51.6138 28.4244C53.1504 28.4244 54.4151 27.4308 54.8677 26.1647C54.8677 26.075 54.9575 25.8936 54.9575 25.8032C54.9575 25.7128 55.0478 25.532 55.0478 25.4416C55.0478 25.2609 55.1382 25.0801 55.1382 24.8993C55.1382 22.9108 53.6023 21.3742 51.6138 21.3742ZM54.4151 25.3513C54.4151 25.4416 54.3254 25.6231 54.3254 25.7134C54.3254 25.8032 54.2344 25.9846 54.144 26.075C53.6927 26.9789 52.7888 27.6116 51.6131 27.6116C50.5298 27.6116 49.5349 26.9789 49.0829 26.075C48.9925 25.9846 48.9926 25.8038 48.9022 25.7134C48.9022 25.6231 48.8118 25.4416 48.8118 25.3513C48.8118 25.1705 48.722 24.9897 48.722 24.8096C48.722 23.273 49.9868 22.0076 51.5234 22.0076C53.0593 22.0076 54.3248 23.273 54.3248 24.8089C54.4151 24.9903 54.4151 25.1711 54.4151 25.3513ZM14.1051 21.3742C12.2069 21.3742 10.58 22.9108 10.58 24.9C10.58 25.0801 10.58 25.2609 10.6703 25.4416C10.6703 25.5314 10.6703 25.7128 10.7607 25.8032C10.7607 25.8936 10.8511 26.0744 10.8511 26.1647C11.3037 27.5212 12.6589 28.4244 14.1051 28.4244C15.641 28.4244 16.9064 27.4308 17.3583 26.1647C17.3583 26.075 17.4487 25.8936 17.4487 25.8032C17.4487 25.7128 17.5391 25.532 17.5391 25.4416C17.5391 25.2609 17.6295 25.0801 17.6295 24.8993C17.6295 22.9108 16.0936 21.3742 14.1051 21.3742ZM16.9064 25.3513C16.9064 25.4416 16.8167 25.6231 16.8167 25.7134C16.8167 25.8032 16.7256 25.9846 16.6353 26.075C16.184 26.9789 15.2794 27.6116 14.1051 27.6116C13.0204 27.6116 12.0261 26.9789 11.5742 26.075C11.4838 25.9846 11.4838 25.8038 11.3934 25.7134C11.3934 25.6231 11.3031 25.4416 11.3031 25.3513C11.3031 25.1705 11.2127 24.9897 11.2127 24.8096C11.2127 23.273 12.4781 22.0076 14.014 22.0076C15.5506 22.0076 16.816 23.273 16.816 24.8089C16.9071 24.9903 16.9064 25.1711 16.9064 25.3513ZM29.8305 13.5093L45.6469 13.4195C46.0085 13.4195 46.37 13.1477 46.5508 12.7868C46.7316 12.4253 46.6412 11.9727 46.37 11.7015L43.8392 8.80977C40.4051 4.83274 35.5242 2.66345 30.2818 2.66345H28.9266C28.5644 2.66345 28.2035 3.025 28.2035 3.38655V11.9733C28.2018 12.1752 28.2409 12.3753 28.3185 12.5617C28.396 12.7481 28.5104 12.9169 28.6548 13.058C29.1067 13.3291 29.4689 13.5093 29.8305 13.5093ZM29.0164 3.29616H30.3722C35.3435 3.29616 40.1333 5.46545 43.3879 9.26107L45.9181 12.1535C46.0085 12.3342 46.0085 12.4246 46.0085 12.515C46.0085 12.515 45.9187 12.6964 45.7373 12.6964L29.9209 12.7862C29.6491 12.7862 29.4689 12.6964 29.2882 12.515C29.1074 12.3342 29.017 12.1535 29.017 11.8829L29.0164 3.29616ZM32.1805 15.7664H30.3728C30.192 15.7664 30.0113 15.9472 30.0113 16.1273C30.0113 16.3081 30.192 16.4888 30.3728 16.4888H32.1805C32.3613 16.4888 32.5421 16.3081 32.5421 16.1273C32.5421 15.9465 32.3613 15.7664 32.1805 15.7664Z" fill="#111111" stroke="#111111" stroke-width="0.3"/>
<path d="M55.951 13.0166L50.7092 12.6557C49.8957 12.5653 49.263 12.2935 48.7206 11.6614L45.0154 7.50361C41.1281 3.25541 35.7049 0.814963 29.9201 0.814963H28.1124C27.7915 0.813605 27.4736 0.875807 27.177 0.997979C26.8803 1.12015 26.6108 1.29987 26.3839 1.52677C26.1571 1.75366 25.9774 2.02324 25.8553 2.31994C25.7332 2.61664 25.6711 2.93458 25.6726 3.25541V10.3954H1.99308C1.8123 10.3954 1.63153 10.5761 1.63153 10.7575C1.63153 10.9383 1.8123 11.1191 1.99308 11.1191H3.89121V12.9268H3.62005C2.17385 12.9268 1.08921 14.0115 0.99882 15.457L0.818046 20.6097C0.814822 21.3584 0.959911 22.1004 1.24494 22.7927C1.52997 23.485 1.94929 24.114 2.47871 24.6435C3.00812 25.1729 3.63715 25.5922 4.32948 25.8772C5.02181 26.1623 5.76373 26.3073 6.51243 26.3041H8.32017C8.86186 29.1055 11.3029 31.185 14.2851 31.185C17.1775 31.185 19.7083 29.1061 20.25 26.3041H45.8283C46.3706 29.1055 48.811 31.185 51.7938 31.185C54.7766 31.185 57.217 29.1061 57.7587 26.3041C59.2109 26.2174 60.5723 25.5691 61.555 24.4964C62.6396 23.4117 63.1819 21.9655 63.1819 20.429C62.9108 16.5423 59.8376 13.3794 55.951 13.0179V13.0166ZM22.9616 11.2088H25.5828V11.9319C25.5828 12.5646 25.1309 13.0166 24.4982 13.0166H22.9616V11.2088ZM13.7428 11.2088H22.2385V13.0166H13.7428V11.2088ZM4.52328 11.2088H13.019V13.0166H4.52392L4.52328 11.2088ZM1.45076 18.259H3.34824C3.52966 18.259 3.71043 18.0783 3.71043 17.8975C3.71043 17.7173 3.52966 17.5359 3.34888 17.5359H1.45076L1.5405 15.5474C1.63153 14.5532 2.44437 13.7397 3.43927 13.7397H24.318C24.7971 13.7383 25.2561 13.5474 25.5948 13.2087C25.9335 12.87 26.1244 12.411 26.1258 11.9319V3.3458C26.1271 2.86677 26.318 2.40775 26.6568 2.06903C26.9955 1.73031 27.4545 1.53941 27.9335 1.53806H29.7406C35.2536 1.53806 40.5871 3.88812 44.2923 7.9549L47.9975 12.1127C48.6303 12.8358 49.5348 13.2877 50.438 13.2877L55.6804 13.6499C57.4882 13.8307 59.1152 14.6435 60.2895 15.909H56.6741C56.4939 15.909 56.3132 16.0897 56.3132 16.2705C56.3132 16.4513 56.4939 16.6327 56.6747 16.6327H60.8325C61.5556 17.7173 62.0069 18.8924 62.0979 20.3379H55.0477C54.0541 19.5251 52.7887 19.0732 51.4323 19.0732C50.0764 19.0732 48.8117 19.5244 47.8168 20.3379H17.63C16.6358 19.5251 15.3704 19.0732 14.0146 19.0732C12.6588 19.0732 11.3933 19.5244 10.3991 20.3379H1.36037L1.4514 18.259H1.45076ZM8.04901 25.6701H6.33102C3.71043 25.6701 1.54114 23.5912 1.36037 21.061H9.58495C8.59134 22.1457 7.95863 23.5912 7.95863 25.2182C8.04901 25.3086 8.04901 25.49 8.04901 25.6701ZM19.4365 25.6701V26.0317C19.4365 26.1227 19.4365 26.3035 19.3468 26.3939C18.8044 28.7433 16.6351 30.551 14.1043 30.551C11.5735 30.551 9.40418 28.7433 8.86186 26.3939C8.86186 26.3035 8.86186 26.1227 8.77211 26.0317V25.6701C8.77211 25.4894 8.68108 25.3092 8.68108 25.1284C8.68108 23.4105 9.49521 21.9643 10.6696 20.9706C10.8504 20.8809 10.9414 20.6995 11.1215 20.6091C11.3017 20.5187 11.5728 20.3379 11.7542 20.2475C12.4773 19.8854 13.1998 19.7052 14.0133 19.7052C14.8268 19.7052 15.6402 19.886 16.273 20.2475C16.4537 20.3373 16.7249 20.4283 16.9057 20.6091C17.0864 20.6988 17.1768 20.8803 17.3576 20.9706C18.5326 21.9649 19.3461 23.4111 19.3461 25.1284C19.5269 25.3092 19.4359 25.4894 19.4359 25.6701H19.4365ZM45.6481 25.6701H20.25V25.1284C20.2508 23.5872 19.67 22.1023 18.6237 20.9706H47.2744C46.2808 22.0553 45.6481 23.5015 45.6481 25.1284C45.6036 25.2118 45.5803 25.3048 45.5803 25.3993C45.5803 25.4938 45.6036 25.5868 45.6481 25.6701ZM56.9452 25.6701V26.0317C56.9452 26.1227 56.9452 26.3035 56.8555 26.3939C56.3132 28.7433 54.1439 30.551 51.613 30.551C49.0822 30.551 46.9129 28.7433 46.3706 26.3939C46.3706 26.3035 46.3706 26.1227 46.2808 26.0317V25.6701C46.2808 25.4894 46.1898 25.3092 46.1898 25.1284C46.1898 23.4105 47.0039 21.9643 48.1783 20.9706C48.3591 20.8809 48.4495 20.6995 48.6303 20.6091C48.8104 20.5187 49.0822 20.3379 49.263 20.2475C49.9861 19.8854 50.7092 19.7052 51.5226 19.7052C52.3361 19.7052 53.1496 19.886 53.7823 20.2475C53.9625 20.3373 54.2343 20.4283 54.415 20.6091C54.5958 20.6988 54.6862 20.8803 54.8663 20.9706C56.0414 21.9649 56.8548 23.4111 56.8548 25.1284C57.0356 25.3092 57.0356 25.4894 56.9452 25.6701ZM60.9223 24.1342C60.1081 25.0381 58.9337 25.4894 57.7587 25.6701V25.2188C57.7587 23.5919 57.126 22.1457 56.1317 21.061H62.3684C62.1877 22.1457 61.7357 23.2303 60.9223 24.1342Z" fill="#111111" stroke="#111111" stroke-width="0.3"/>
</svg>
