<svg width="91" height="41" viewBox="0 0 91 41" fill="none" xmlns="http://www.w3.org/2000/svg">
<g clip-path="url(#clip0_3359_57368)">
<path d="M74.5691 16.0842L64.3901 15.6827C63.8907 15.6827 63.2919 15.4813 62.8932 15.2806L56.4061 10.8601C52.4147 8.14593 47.7246 6.73938 42.8345 6.73938H33.4542C31.2591 6.73938 29.1628 7.34227 27.2671 8.44738L17.6869 13.9741C17.4875 14.0742 17.2875 14.1749 17.0881 14.1749L14.3936 14.275C13.2955 14.275 12.1986 14.6771 11.3998 15.4807C10.6011 16.2856 10.1023 17.2906 10.1023 18.4964V22.1138C10.1023 26.3334 13.4949 29.8507 17.7863 29.8507H18.585C19.682 32.1622 21.977 33.8696 24.6715 33.8696C27.3659 33.8696 29.761 32.2617 30.7586 29.8507H59.8987C60.9975 32.1622 63.2919 33.8696 65.987 33.8696C68.6814 33.8696 71.0765 32.2617 72.074 29.8507H72.274C76.4654 29.8507 79.958 26.4341 79.958 22.1138C80.2574 18.6972 77.7623 16.1843 74.5691 16.0842ZM18.385 28.8457H17.8857C15.1912 28.8457 12.7961 27.2384 11.6986 24.9269H18.485C18.285 25.5298 18.185 26.2333 18.185 26.9363C18.185 27.5392 18.2856 28.2428 18.385 28.8457ZM30.4604 28.8457C30.361 29.1471 30.261 29.3485 30.161 29.6499C29.1634 31.5587 27.1671 32.8646 24.9721 32.8646C22.777 32.8646 20.6807 31.5581 19.6831 29.6493C19.5826 29.4486 19.4838 29.1471 19.3838 28.8457C19.1844 28.2428 18.985 27.5392 18.985 26.8362C18.985 26.1333 19.0844 25.4297 19.3838 24.8268C19.4838 24.5253 19.5837 24.324 19.6831 24.0225C20.6807 22.1138 22.677 20.8079 24.8727 20.8079C27.0689 20.8079 29.064 22.1144 30.0616 24.0231C30.161 24.2239 30.2616 24.5253 30.3615 24.8268C30.5609 25.4297 30.7603 26.1333 30.7603 26.8362C30.7603 27.5392 30.6603 28.2428 30.4604 28.8457ZM59.8993 28.8457H31.2585C31.4579 28.2428 31.5585 27.5392 31.5585 26.8362C31.5585 26.1333 31.4579 25.4297 31.2585 24.8268H59.8993C59.6999 25.4297 59.6005 26.1333 59.6005 26.8362C59.6005 27.5392 59.6999 28.2428 59.8993 28.8457ZM71.8747 28.8457C71.7753 29.1471 71.6753 29.3485 71.5753 29.6499C70.5777 31.5587 68.5814 32.8646 66.3864 32.8646C64.0907 32.8646 62.095 31.5581 61.1974 29.6493C61.0969 29.4486 60.9975 29.1471 60.8975 28.8457C60.6975 28.2428 60.4981 27.5392 60.4981 26.8362C60.4981 26.1333 60.5987 25.4297 60.8975 24.8268C60.9975 24.5253 61.0969 24.324 61.1968 24.0225C62.195 22.1138 64.1907 20.8079 66.3858 20.8079C68.5808 20.8079 70.5777 22.1144 71.5753 24.0231C71.6753 24.2239 71.7753 24.5253 71.8747 24.8268C72.074 25.4297 72.274 26.1333 72.274 26.8362C72.174 27.5398 72.074 28.2428 71.8747 28.8457ZM72.6728 28.8457C72.8728 28.2428 72.9728 27.5392 72.9728 26.8362C72.9728 26.1333 72.8728 25.4297 72.6728 24.8268H78.7605C78.2073 25.9928 77.3474 26.9839 76.2741 27.6924C75.2009 28.4009 73.9554 28.7998 72.6728 28.8457ZM72.374 24.1232C71.2759 21.8117 68.9802 20.1037 66.2864 20.1037C63.5925 20.1037 61.1968 21.7116 60.1993 24.1232H30.9585C29.8604 21.8117 27.5653 20.1037 24.8709 20.1037C22.1764 20.1037 19.7814 21.7116 18.7838 24.1232H11.3992C11.1952 23.5078 11.0942 22.8626 11.1004 22.2138H13.0961C13.1996 22.2065 13.2969 22.1617 13.3702 22.0878C13.4434 22.014 13.4877 21.9159 13.4949 21.8117C13.4876 21.7077 13.4433 21.6097 13.37 21.536C13.2967 21.4622 13.1995 21.4175 13.0961 21.4102H11.1004V18.8985H13.0961C13.1996 18.8912 13.2969 18.8464 13.3702 18.7725C13.4434 18.6986 13.4877 18.6006 13.4949 18.4964C13.4877 18.3922 13.4434 18.2942 13.3702 18.2203C13.2969 18.1464 13.1996 18.1016 13.0961 18.0943H11.1998C11.2992 17.2906 11.5986 16.487 12.1974 15.8841C12.7961 15.2812 13.6943 14.9791 14.493 14.9791H14.593L17.2875 14.879C17.5875 14.879 17.9862 14.779 18.2856 14.5776L27.8659 8.95078C29.6622 7.94636 31.6579 7.34346 33.6542 7.34346H43.0345C47.7246 7.34346 52.2153 8.74942 56.1073 11.3624L62.5938 15.7828C63.1882 16.0882 63.8288 16.2921 64.4895 16.3863L74.6685 16.7878C76.4654 16.8879 77.9617 17.7928 78.7605 19.1994H74.8685C74.7651 19.207 74.6678 19.2518 74.5945 19.3256C74.5211 19.3994 74.4767 19.4974 74.4691 19.6015C74.4763 19.7057 74.5207 19.8038 74.5941 19.8776C74.6675 19.9514 74.765 19.996 74.8685 20.003H79.1593C79.3592 20.6059 79.5586 21.2088 79.5586 21.9124C79.5586 22.7167 79.4592 23.4196 79.1593 24.1226H72.3734L72.374 24.1232Z" fill="#111111"/>
<path d="M18.385 28.8457H17.8857C15.1912 28.8457 12.7961 27.2384 11.6986 24.9269H18.485C18.285 25.5298 18.185 26.2333 18.185 26.9363C18.185 27.5392 18.2856 28.2428 18.385 28.8457ZM18.385 28.8457H18.3856M74.5691 16.0842L64.3901 15.6827C63.8907 15.6827 63.2919 15.4813 62.8932 15.2806L56.4061 10.8601C52.4147 8.14593 47.7246 6.73938 42.8345 6.73938H33.4542C31.2591 6.73938 29.1628 7.34227 27.2671 8.44738L17.6869 13.9741C17.4875 14.0742 17.2875 14.1749 17.0881 14.1749L14.3936 14.275C13.2955 14.275 12.1986 14.6771 11.3998 15.4807C10.6011 16.2856 10.1023 17.2906 10.1023 18.4964V22.1138C10.1023 26.3334 13.4949 29.8507 17.7863 29.8507H18.585C19.682 32.1622 21.977 33.8696 24.6715 33.8696C27.3659 33.8696 29.761 32.2617 30.7586 29.8507H59.8987C60.9975 32.1622 63.2919 33.8696 65.987 33.8696C68.6814 33.8696 71.0765 32.2617 72.074 29.8507H72.274C76.4654 29.8507 79.958 26.4341 79.958 22.1138C80.2574 18.6972 77.7623 16.1843 74.5691 16.0842ZM30.4604 28.8457C30.361 29.1471 30.261 29.3485 30.161 29.6499C29.1634 31.5587 27.1671 32.8646 24.9721 32.8646C22.777 32.8646 20.6807 31.5581 19.6831 29.6493C19.5826 29.4486 19.4838 29.1471 19.3838 28.8457C19.1844 28.2428 18.985 27.5392 18.985 26.8362C18.985 26.1333 19.0844 25.4297 19.3838 24.8268C19.4838 24.5253 19.5837 24.324 19.6831 24.0225C20.6807 22.1138 22.677 20.8079 24.8727 20.8079C27.0689 20.8079 29.064 22.1144 30.0616 24.0231C30.161 24.2239 30.2616 24.5253 30.3615 24.8268C30.5609 25.4297 30.7603 26.1333 30.7603 26.8362C30.7603 27.5392 30.6603 28.2428 30.4604 28.8457ZM59.8993 28.8457H31.2585C31.4579 28.2428 31.5585 27.5392 31.5585 26.8362C31.5585 26.1333 31.4579 25.4297 31.2585 24.8268H59.8993C59.6999 25.4297 59.6005 26.1333 59.6005 26.8362C59.6005 27.5392 59.6999 28.2428 59.8993 28.8457ZM71.8747 28.8457C71.7753 29.1471 71.6753 29.3485 71.5753 29.6499C70.5777 31.5587 68.5814 32.8646 66.3864 32.8646C64.0907 32.8646 62.095 31.5581 61.1974 29.6493C61.0969 29.4486 60.9975 29.1471 60.8975 28.8457C60.6975 28.2428 60.4981 27.5392 60.4981 26.8362C60.4981 26.1333 60.5987 25.4297 60.8975 24.8268C60.9975 24.5253 61.0969 24.324 61.1968 24.0225C62.195 22.1138 64.1907 20.8079 66.3858 20.8079C68.5808 20.8079 70.5777 22.1144 71.5753 24.0231C71.6753 24.2239 71.7753 24.5253 71.8747 24.8268C72.074 25.4297 72.274 26.1333 72.274 26.8362C72.174 27.5398 72.074 28.2428 71.8747 28.8457ZM72.6728 28.8457C72.8728 28.2428 72.9728 27.5392 72.9728 26.8362C72.9728 26.1333 72.8728 25.4297 72.6728 24.8268H78.7605C78.2073 25.9928 77.3474 26.9839 76.2741 27.6924C75.2009 28.4009 73.9554 28.7998 72.6728 28.8457ZM72.374 24.1232C71.2759 21.8117 68.9802 20.1037 66.2864 20.1037C63.5925 20.1037 61.1968 21.7116 60.1993 24.1232H30.9585C29.8604 21.8117 27.5653 20.1037 24.8709 20.1037C22.1764 20.1037 19.7814 21.7116 18.7838 24.1232H11.3992C11.1952 23.5078 11.0942 22.8626 11.1004 22.2138H13.0961C13.1996 22.2065 13.2969 22.1617 13.3702 22.0878C13.4434 22.014 13.4877 21.9159 13.4949 21.8117C13.4876 21.7077 13.4433 21.6097 13.37 21.536C13.2967 21.4622 13.1995 21.4175 13.0961 21.4102H11.1004V18.8985H13.0961C13.1996 18.8912 13.2969 18.8464 13.3702 18.7725C13.4434 18.6986 13.4877 18.6006 13.4949 18.4964C13.4877 18.3922 13.4434 18.2942 13.3702 18.2203C13.2969 18.1464 13.1996 18.1016 13.0961 18.0943H11.1998C11.2992 17.2906 11.5986 16.487 12.1974 15.8841C12.7961 15.2812 13.6943 14.9791 14.493 14.9791H14.593L17.2875 14.879C17.5875 14.879 17.9862 14.779 18.2856 14.5776L27.8659 8.95078C29.6622 7.94636 31.6579 7.34346 33.6542 7.34346H43.0345C47.7246 7.34346 52.2153 8.74942 56.1073 11.3624L62.5938 15.7828C63.1882 16.0882 63.8288 16.2921 64.4895 16.3863L74.6685 16.7878C76.4654 16.8879 77.9617 17.7928 78.7605 19.1994H74.8685C74.7651 19.207 74.6678 19.2518 74.5945 19.3256C74.5211 19.3994 74.4767 19.4974 74.4691 19.6015C74.4763 19.7057 74.5207 19.8038 74.5941 19.8776C74.6675 19.9514 74.765 19.996 74.8685 20.003H79.1593C79.3592 20.6059 79.5586 21.2088 79.5586 21.9124C79.5586 22.7167 79.4592 23.4196 79.1593 24.1226H72.3734L72.374 24.1232Z" stroke="#111111" stroke-width="0.3"/>
<path d="M43.3332 9.0509H34.7517C32.6554 9.0509 30.5603 9.95584 29.0634 11.5632C28.7216 11.9141 28.4915 12.3596 28.4025 12.8429C28.3136 13.3262 28.3698 13.8252 28.5641 14.2762C28.9634 15.1805 29.7616 15.7834 30.7591 15.7834L58.7018 16.6889C58.9018 16.6889 59.1011 16.5883 59.1011 16.3875V16.0855L56.6061 13.9753C53.0135 10.8602 48.2234 9.0509 43.3332 9.0509ZM30.7591 15.0798C30.061 15.0798 29.4616 14.6777 29.2622 13.9741C28.9634 13.3712 29.1628 12.6677 29.6616 12.0648C30.9591 10.6582 32.8548 9.85456 34.7511 9.85456H41.9363L43.932 15.4808L30.7591 15.0792V15.0798ZM44.7302 15.5821L42.7345 9.85516H43.3332C48.024 9.85516 52.6141 11.5632 56.2067 14.5776L57.8036 15.9842L44.7302 15.5821ZM68.9808 24.1232C68.2826 23.4197 67.3845 23.0175 66.2863 23.0175C65.1882 23.0175 64.2907 23.4197 63.5925 24.1232C63.3931 24.324 63.1931 24.6255 62.9937 24.9269C62.6017 25.5226 62.3934 26.2217 62.395 26.9363C62.3933 27.651 62.6016 28.3501 62.9937 28.9458C63.1931 29.2472 63.3931 29.448 63.5925 29.75C64.2907 30.453 65.2888 30.8552 66.2863 30.8552C67.2845 30.8552 68.2826 30.4536 68.9808 29.7495C69.1808 29.5487 69.3802 29.2472 69.5796 28.9458C69.8795 28.3429 70.1783 27.74 70.1783 26.9363C70.1801 26.2217 69.9717 25.5225 69.5796 24.9269C69.3802 24.6255 69.1808 24.3246 68.9808 24.1232ZM68.582 28.8457C68.2826 29.1466 67.9832 29.4486 67.5839 29.65C67.1851 29.8507 66.6857 30.0515 66.1869 30.0515C65.6882 30.0515 65.1894 29.9514 64.79 29.6494C64.3906 29.4486 64.0913 29.1472 63.7919 28.8457C63.3407 28.2743 63.0947 27.5662 63.0937 26.8363C63.0937 26.032 63.3931 25.4297 63.7919 24.8268C64.0913 24.5254 64.3906 24.2239 64.79 24.0226C65.1888 23.8218 65.6876 23.7217 66.1869 23.7217C66.6863 23.7217 67.0845 23.8218 67.5839 24.0226C67.9832 24.2239 68.2826 24.5254 68.582 24.8268C69.0814 25.329 69.2808 26.0326 69.2808 26.8363C69.3802 27.6405 69.0814 28.3435 68.582 28.8457ZM47.7258 18.3958H45.7301C45.6265 18.403 45.5291 18.4477 45.4557 18.5216C45.3823 18.5955 45.3379 18.6936 45.3307 18.7979C45.338 18.902 45.3825 19 45.4558 19.0738C45.5292 19.1476 45.6266 19.1922 45.7301 19.1994H47.7258C47.8292 19.1922 47.9266 19.1476 48 19.0738C48.0734 19 48.1178 18.902 48.1251 18.7979C48.1251 18.5965 48.0257 18.3958 47.7258 18.3958ZM32.8566 18.3958H30.8609C30.7574 18.403 30.6599 18.4477 30.5865 18.5216C30.5131 18.5955 30.4687 18.6936 30.4615 18.7979C30.4688 18.902 30.5133 19 30.5867 19.0738C30.6601 19.1476 30.7574 19.1922 30.8609 19.1994H32.8566C32.96 19.1921 33.0572 19.1474 33.1305 19.0736C33.2037 18.9999 33.2481 18.9019 33.2554 18.7979C33.2482 18.6937 33.2039 18.5956 33.1306 18.5218C33.0574 18.4479 32.96 18.4031 32.8566 18.3958ZM27.5665 24.1232C26.8683 23.4197 25.9702 23.0175 24.8721 23.0175C23.8739 23.0175 22.8764 23.4197 22.1776 24.1232C21.9782 24.324 21.7782 24.6255 21.5788 24.9269C21.1868 25.5226 20.9785 26.2217 20.9801 26.9363C20.9784 27.651 21.1868 28.3501 21.5788 28.9458C21.7782 29.2472 21.9782 29.448 22.1776 29.75C22.8764 30.453 23.8739 30.8552 24.8721 30.8552C25.9702 30.8552 26.8677 30.4536 27.5665 29.7495C27.7665 29.5487 27.9659 29.2472 28.1653 28.9458C28.4652 28.3429 28.764 27.74 28.764 26.9363C28.7657 26.2217 28.5574 25.5226 28.1653 24.9269C27.9659 24.6255 27.7665 24.3246 27.5665 24.1232ZM27.1677 28.8457C26.8677 29.1466 26.569 29.4486 26.1696 29.65C25.7708 29.8507 25.2714 30.0515 24.7727 30.0515C24.2739 30.0515 23.7745 29.9514 23.3757 29.6494C22.9764 29.4486 22.6776 29.1472 22.3776 28.8457C21.9265 28.2743 21.6804 27.5662 21.6794 26.8363C21.6794 26.032 21.9782 25.4297 22.3776 24.8268C22.677 24.5254 22.9764 24.2239 23.3757 24.0226C23.7745 23.8218 24.2739 23.7217 24.7721 23.7217C25.2714 23.7217 25.6714 23.8218 26.1696 24.0226C26.569 24.2239 26.8683 24.5254 27.1677 24.8268C27.6665 25.329 27.8659 26.0326 27.8659 26.8363C27.9659 27.6405 27.6665 28.3435 27.1677 28.8457Z" fill="#111111" stroke="#111111" stroke-width="0.3"/>
</g>
<defs>
<clipPath id="clip0_3359_57368">
<rect width="71" height="28" fill="white" transform="translate(9.51062 6.46533)"/>
</clipPath>
</defs>
</svg>
