<svg width="99" height="76" viewBox="0 0 99 76" fill="none" xmlns="http://www.w3.org/2000/svg">
<path d="M49.5174 0H49.8262C50.0158 0.226383 50.2223 0.438042 50.444 0.633161C57.1524 5.63053 64.7689 8.35469 72.9723 9.56542C76.0053 10.0071 79.0753 10.2202 82.2381 10.5507V19.6127C79.2514 20.4095 78.1889 21.4813 78.1148 23.7823H98.9351V49.7266H79.4769C79.4954 51.3018 80.3108 52.1975 81.4629 52.7473C82.5315 53.2507 83.7021 53.5318 84.9746 53.9611C74.6679 62.6092 64.4879 71.1708 51.3551 75.0532H47.0465C43.4019 73.444 39.6153 72.0882 36.1406 70.1732C28.2708 65.8492 21.2628 60.2711 14.5543 54.3287C14.377 54.1355 14.2149 53.929 14.0694 53.7109C16.5403 53.2384 18.9525 52.8894 19.7185 49.7297H0.0996094V23.7823H21.0404C20.9508 21.4967 19.9192 20.4064 17.0777 19.5015V10.2665C17.4514 10.2295 17.7479 10.2109 18.0444 10.1708C22.4673 9.55307 26.9458 9.20097 31.3008 8.2713C37.9351 6.85054 44.1185 4.24066 49.5174 0ZM2.22148 47.7036H96.8318V26.3489H2.22148V47.7036ZM21.3709 14.3311C23.2673 14.081 25.105 13.8833 26.9304 13.593C34.7044 12.3575 42.185 10.282 48.8873 5.93631C49.2425 5.70466 50.0486 5.80968 50.4563 6.06294C56.4048 9.77262 63.0427 12.2395 69.9701 13.315C72.5862 13.7412 75.2208 14.0655 77.7905 14.4269C78.1426 15.9187 77.7287 16.9256 76.4717 17.8645C74.6185 19.2482 73.7228 21.262 73.7691 23.6958H75.9312C76.0979 21.1662 77.4137 19.5262 79.5047 18.3927C79.6658 18.2916 79.8026 18.1561 79.9051 17.9959C80.0076 17.8357 80.0734 17.6547 80.0977 17.4661C80.1564 15.7766 80.1255 14.0841 80.1255 12.2556C69.1949 11.3692 58.6905 9.42953 49.6533 2.75195C40.5048 9.20406 30.0838 11.5329 19.005 12.2031C19.005 14.0563 18.9896 15.7828 19.0235 17.5217C19.0344 17.6637 19.0769 17.8015 19.148 17.925C19.2191 18.0485 19.3169 18.1544 19.4343 18.2352C21.7199 19.344 22.8596 21.2249 23.0943 23.7082H25.21C25.2731 22.5908 25.0559 21.4754 24.5779 20.4634C24.1 19.4514 23.3766 18.575 22.4735 17.9139C21.1825 16.9194 21.0095 15.8415 21.3801 14.3311H21.3709ZM75.9837 55.0081L76.4161 54.9278C76.2461 55.1623 76.0571 55.3824 75.8509 55.5857C70.3787 60.1931 64.4736 64.2602 58.218 67.7301C52.3496 71.001 46.5616 71.2264 40.86 67.6158C35.6557 64.3234 30.5811 60.8209 25.4787 57.3647C24.4378 56.6605 23.5391 55.7494 22.5476 54.9124C24.0116 53.4453 25.0031 51.9597 24.7097 49.8656H22.4025C22.0936 52.0523 20.8829 53.6059 18.7826 54.6591C26.3929 61.5344 34.4789 67.2761 43.6953 71.3685C47.76 73.1753 51.7257 73.1352 55.7595 71.2851C64.6002 67.2025 72.7377 61.7441 79.8691 55.1132C80.0137 54.9321 80.1389 54.7364 80.2429 54.5294C78.0808 53.6739 76.9041 52.0894 76.5983 49.9212H73.9267C74.6988 51.7991 75.3474 53.4021 75.9929 55.0081H75.9837ZM45.1593 17.1078H45.0883C45.0883 15.6654 45.1037 14.2261 45.0883 12.7838C45.0667 11.5761 44.3841 10.8101 43.2351 11.1499C41.5182 11.6728 39.8503 12.3446 38.2501 13.1575C37.8363 13.3613 37.5336 14.1798 37.515 14.7265C37.4347 17.0399 37.4625 19.3594 37.4841 21.6728C37.4841 22.9638 38.2223 23.6835 39.4732 23.7823C40.4461 23.8595 41.4283 23.807 42.4043 23.8008C44.31 23.8008 45.0945 23.0565 45.1655 21.123C45.1933 19.7856 45.1593 18.4452 45.1593 17.1078ZM54.4715 17.0677H54.4406C54.4406 18.4575 54.4066 19.8474 54.4406 21.2373C54.4931 23.004 55.2776 23.7607 57.0011 23.7823C57.9802 23.7823 58.9592 23.8224 59.9352 23.7823C61.2603 23.7143 62.0664 22.9947 62.0973 21.6512C62.1467 19.3347 62.1776 17.0182 62.0571 14.7049C62.0235 14.3604 61.9155 14.0274 61.7406 13.7288C61.5657 13.4301 61.3281 13.173 61.0441 12.9753C59.6295 12.2436 58.1537 11.637 56.6335 11.1622C55.3425 10.7453 54.5209 11.4001 54.4715 12.756C54.4344 14.186 54.4591 15.6284 54.4591 17.0677H54.4715ZM33.6574 20.076L33.8241 23.702H35.8997V13.8184C32.6906 13.7196 33.4288 17.0584 31.7857 18.3741C31.276 17.4043 30.8807 16.4407 30.2877 15.6222C30.056 15.3133 29.3611 15.1311 28.9225 15.1836C28.5334 15.233 27.894 15.6809 27.8848 15.9712C27.8014 18.5193 27.8353 21.0705 27.8353 23.6927H30.0591V20.5115L30.3155 20.4682L31.9463 23.7298L33.6574 20.076ZM48.8379 49.8007C47.8094 49.8007 46.9384 49.7328 46.0797 49.8162C44.6404 49.9583 43.4174 51.2061 43.4143 52.5095C43.3957 56.676 43.3648 60.8487 43.4482 65.009C43.4482 65.6824 43.8343 66.6306 44.3532 66.958C45.7215 67.8197 47.2596 68.4096 48.7854 69.12C49.0603 66.5935 49.0942 66.5472 47.1608 65.6638C46.1755 65.2098 45.8326 64.589 45.8604 63.5018C45.9377 60.7777 45.8913 58.0504 45.8975 55.3232C45.9037 52.5959 45.8975 52.5898 48.5568 52.3118C48.6402 52.3118 48.7174 52.1975 48.8379 52.1018V49.8007ZM71.8326 23.7113C71.8326 23.0935 71.9839 22.4758 71.8048 21.9971C71.326 20.7246 71.7832 19.486 71.7708 18.2352C71.7708 17.2406 72.1044 15.9496 70.8782 15.5357C68.7378 14.813 66.514 14.3373 64.2346 13.7381V23.6958H66.3657C66.4182 22.8156 66.4677 22.0187 66.5109 21.2496C69.1949 20.7616 69.1949 20.7616 69.7509 23.7205L71.8326 23.7113ZM65.5781 54.1063C65.6276 53.2692 65.6615 52.7287 65.7017 52.04H71.0573V49.8378C69.1856 49.8378 67.385 49.7081 65.6214 49.9027C64.9357 49.9799 63.8794 50.7119 63.7682 51.2833C63.5057 52.7689 63.6817 54.3317 63.6817 56.225H69.1393L69.2752 56.7964C67.6815 57.8713 66.1217 59.0048 64.4786 59.9962C63.4408 60.614 63.132 61.3521 63.5304 62.4671C63.6594 62.4538 63.7861 62.4237 63.9072 62.3776C65.782 61.2132 67.6135 59.9561 69.5408 58.909C70.943 58.1523 71.4928 57.198 71.394 55.6012C71.3198 54.5016 71.0851 54.0167 69.9022 54.0939C68.5401 54.1742 67.1626 54.1063 65.5781 54.1063ZM53.8136 12.4965C53.7889 11.292 54.1874 10.3345 52.921 9.63337C49.4741 7.6999 49.468 7.57327 46.3176 9.75383C45.7153 10.1739 45.5948 11.2981 45.252 12.0795L45.6628 12.3081L48.5105 10.98V23.6773H50.9814V10.9553L53.8136 12.4965ZM50.8393 68.8173C52.3064 68.1563 53.5542 67.6127 54.7865 67.0383C56.0189 66.4638 56.161 65.8986 55.4351 64.5828L53.2237 65.287V49.8996H50.83L50.8393 68.8173ZM59.0612 56.0614V52.355L62.2949 52.2037V49.8255C60.9174 49.8255 59.6449 49.7977 58.3755 49.8255C57.4736 49.8502 56.9764 50.2918 56.9794 51.2771C56.9794 55.6969 56.9795 60.1167 56.9578 64.5365C56.9578 65.6237 57.5261 65.7719 58.3508 65.4044C59.2372 65.0029 60.0526 64.4438 60.9452 64.0608C62.1065 63.5698 62.2393 62.8254 61.7668 61.6981L59.0148 62.7266V58.1462L61.4857 57.9578L61.4023 56.2374L59.0612 56.0614ZM34.7816 49.7668C36.9869 54.0414 38.037 58.2141 37.5243 62.6648C37.339 64.2832 38.3088 64.7218 39.8253 65.1141C39.0779 59.638 39.7481 54.5634 42.985 50.02C39.5875 49.0564 40.0878 52.3612 38.5405 53.3804C38.2131 52.4539 37.8455 51.6292 37.6139 50.7551C37.2216 49.2757 36.1282 49.9274 34.7816 49.7668ZM33.367 49.8162C31.6559 49.8162 30.0066 49.6896 28.3975 49.8903C27.8724 49.9552 27.1188 50.8323 27.0477 51.4099C26.6987 54.3256 26.6493 57.198 29.9912 58.6959C30.6769 59.0048 31.2266 59.6225 31.8444 60.0735C32.8358 60.8271 33.8334 61.5776 34.8804 62.3683C35.3437 60.7746 34.9391 59.7831 33.7006 59.0295C32.774 58.4736 32.0451 57.6118 31.1185 57.0837C29.5742 56.2003 29.2067 54.8753 29.5248 53.3094C29.6044 53.0626 29.7413 52.8382 29.9244 52.6546C30.1074 52.471 30.3315 52.3334 30.578 52.2531C31.4614 52.0894 32.3972 52.2037 33.3578 52.2037L33.367 49.8162Z" fill="#6F3D0F"/>
<path d="M94.5526 28.4678V45.0938H4.5752V28.4678H94.5526ZM86.5222 30.3518V43.2221H88.1406V37.3166C88.712 38.6754 89.1386 40.0906 89.4132 41.5388C89.8641 43.534 89.9506 43.5865 92.1342 43.1325V30.2684H90.2502V35.621C90.1439 35.4201 90.048 35.2139 89.9629 35.0033C89.7343 34.0026 89.5151 33.0018 89.2865 32.0011C88.8325 29.9596 88.7985 29.938 86.5315 30.3518H86.5222ZM85.3454 36.7545C85.3454 35.2658 85.3454 33.7771 85.3454 32.2884C85.3238 30.7101 84.4189 29.9256 82.6429 29.8824C80.9411 29.8422 79.9373 30.5742 79.9033 32.0753C79.8292 35.205 79.8096 38.3359 79.8446 41.4677C79.8631 42.9595 80.9905 43.7749 82.7325 43.7471C84.3695 43.7193 85.3022 42.8916 85.3331 41.372C85.364 39.8524 85.3454 38.2988 85.3454 36.7545ZM46.6143 30.1294V43.3703C47.5408 43.3703 48.3624 43.395 49.1747 43.3703C50.8642 43.3147 51.5128 42.7526 51.556 41.0538C51.6302 38.1845 51.6271 35.3121 51.5808 32.4397C51.556 30.9479 50.7592 30.2098 49.2705 30.1387C48.4118 30.0955 47.5532 30.1294 46.6143 30.1294ZM7.3426 30.2345V43.2406H9.32239V37.99C10.7061 37.8541 10.737 37.8541 10.7555 38.8949C10.7833 40.362 10.7555 41.8291 10.7555 43.3857L12.7137 43.2591V30.2684H10.8018C10.8018 31.6398 10.771 32.9185 10.8018 34.1941C10.8389 35.2565 10.4065 35.5561 9.2946 35.2071V30.2345H7.3426ZM22.134 43.3085V38.1351C23.2644 37.7614 23.7246 38.1351 23.7215 39.1667C23.7215 40.5257 23.7215 41.8878 23.7215 43.2468H25.7538C25.7538 41.5202 25.9947 39.8493 25.6766 38.271C25.4418 37.1251 25.3276 36.1553 25.6272 35.0064C25.8661 34.0032 25.8576 32.957 25.6025 31.9579C25.4419 31.3062 24.7716 30.4321 24.1879 30.3086C22.9833 30.0553 21.6892 30.2314 20.4229 30.2314V43.3085H22.134ZM58.2707 43.1016C57.8012 39.0123 57.3441 34.9878 56.8345 30.9726C56.7912 30.6329 56.2662 30.185 55.8894 30.0986C55.2716 29.9503 54.5921 30.0584 53.854 30.0584C53.3165 34.5184 52.7977 38.8239 52.2757 43.1757H54.0239L54.5211 40.0871C56.087 39.7103 55.9851 40.7944 55.9882 41.6098C56.0037 43.1263 56.6214 43.6668 58.2645 43.1016H58.2707ZM15.268 43.358C15.3428 42.4975 15.4645 41.6417 15.6324 40.7944C15.6949 40.6273 15.7979 40.4783 15.9321 40.3608C16.0663 40.2433 16.2276 40.1609 16.4015 40.1211C16.6301 40.1211 17.0192 40.535 17.0933 40.8284C17.2941 41.6098 17.3651 42.4221 17.4887 43.2313H19.5426C19.0114 38.793 18.4956 34.4936 17.9983 30.2406C15.1908 29.9904 15.1908 29.9905 14.8078 32.5478C14.8078 32.5972 14.7862 32.6467 14.78 32.6992C14.3692 36.1893 13.9584 39.6825 13.5445 43.2653L15.268 43.358ZM67.4964 43.2962C68.423 43.2962 69.2847 43.2591 70.1371 43.2962C71.6351 43.3796 72.3764 42.592 72.4072 41.2083C72.4721 38.1814 72.4629 35.1546 72.4289 32.1278C72.4289 30.9418 71.7185 30.1912 70.5448 30.0738C69.5297 30.0155 68.5122 30.0083 67.4964 30.0522V43.2962ZM78.8841 34.5215C78.8841 33.5732 78.9273 32.7548 78.8841 31.9425C78.7976 30.6669 77.8401 29.9565 76.2587 29.9225C74.7638 29.8885 73.6365 30.6391 73.5068 31.8251C73.2474 34.1879 73.1794 36.458 75.7862 37.7923C77.0217 38.41 77.1112 39.6794 76.9074 40.8994C76.858 41.2083 76.4379 41.4338 76.1877 41.6963C75.9653 41.406 75.5916 41.1372 75.5453 40.8222C75.4847 40.0907 75.4744 39.356 75.5144 38.6231L73.6056 38.7096C73.6056 39.7443 73.584 40.6153 73.6056 41.4894C73.6458 42.9688 74.3562 43.5927 76.0055 43.6514C77.7845 43.6946 78.7389 42.9811 78.8995 41.5944C79.1837 39.1513 78.8655 36.9892 76.4533 35.6735C75.1963 34.9909 75.3476 33.8203 75.4804 32.693C75.5113 32.4397 75.953 32.0073 76.0982 32.0444C76.2748 32.0886 76.4396 32.1713 76.5805 32.2867C76.7215 32.402 76.8352 32.5471 76.9135 32.7115C77.0184 33.3161 77.0608 33.9298 77.0402 34.5431L78.8841 34.5215ZM59.4629 43.1696C61.1029 43.6576 61.9554 43.4414 62.0233 41.6253C62.0913 39.8092 62.5206 38.0672 62.7646 36.285C63.0395 34.2774 63.2897 32.2698 63.5676 30.1263L61.6867 30.2376C61.3778 32.4613 61.106 34.5338 60.825 36.6032H60.5161C60.2072 34.4936 59.8984 32.3841 59.5895 30.2437H57.7518C58.3355 34.6295 58.8946 38.898 59.4567 43.1727L59.4629 43.1696ZM31.7179 30.219V43.3055H35.6188V41.5295L33.8089 41.2855V37.7089L35.5416 37.4V35.6117L33.8305 35.4758V32.3224L35.4428 32.0845V30.2314L31.7179 30.219ZM39.8718 43.2684C40.6409 38.8517 41.3883 34.5493 42.142 30.219C41.169 29.8206 40.539 30.1449 40.2888 31.3433C40.1127 32.2266 39.8131 33.0852 39.5691 33.9562C39.1456 33.0949 38.8551 32.1743 38.7074 31.2259C38.4634 29.7495 37.472 30.2344 36.7184 30.2993L38.8495 43.2715L39.8718 43.2684ZM27.0819 30.219V43.2931H30.9705V41.4832L29.0216 41.3411V30.2221L27.0819 30.219ZM64.3429 43.2591H66.1034V30.1511L64.3429 30.2314V43.2591ZM43.7357 35.9329C43.3249 35.9329 42.874 35.8248 42.5219 35.97C42.2439 36.0812 41.8702 36.5568 41.9227 36.7792C42.2315 38.0734 43.3156 37.3722 44.0507 37.4433C44.4615 37.4834 44.9186 37.0665 45.3541 36.8564C45.1194 36.5476 44.897 36.2387 44.6468 35.9299C44.6036 35.8804 44.4492 35.9299 44.338 35.9299L43.7357 35.9329Z" fill="#6F3D0F"/>
<path d="M42.6823 14.0748C42.6823 16.3017 42.7348 18.5286 42.6112 20.7462C42.6112 20.9933 41.5673 21.3362 41.0083 21.3392C40.6129 21.3392 39.8964 20.8698 39.8747 20.5702C39.7605 18.9394 39.5813 17.2437 39.918 15.6778C40.0848 14.9057 41.3202 14.3621 42.08 13.7166L42.6823 14.0748Z" fill="#6F3D0F"/>
<path d="M59.7311 21.33C58.8725 21.33 58.2486 21.4072 57.6618 21.296C57.3714 21.2404 56.9359 20.8389 56.9298 20.5857C56.8711 18.402 56.8958 16.2153 56.8958 14.0007C59.5335 14.4455 59.728 14.6648 59.7311 16.9874V21.33Z" fill="#6F3D0F"/>
<path d="M66.52 18.7171V16.6477C67.5732 17.0554 69.3616 16.3203 69.2998 17.8831C69.238 19.446 67.601 18.297 66.52 18.7171Z" fill="#6F3D0F"/>
<path d="M81.8337 36.6124C81.8337 35.4326 81.7811 34.2497 81.8645 33.076C81.8892 32.7332 82.3 32.415 82.5317 32.0876C82.8405 32.3965 83.3841 32.7208 83.3934 33.0482C83.4583 35.5191 83.4428 37.9714 83.3718 40.4331C83.3718 40.7574 82.8807 41.0693 82.6182 41.3844C82.3525 41.0755 81.8831 40.7666 81.8614 40.4578C81.7719 39.1791 81.8244 37.8942 81.8244 36.6124H81.8337Z" fill="#6F3D0F"/>
<path d="M48.6157 41.3535V32.3255L49.0327 32.1185C49.2643 32.4861 49.6504 32.8351 49.6998 33.2273C50.194 37.19 49.7709 40.7883 48.6157 41.3535Z" fill="#6F3D0F"/>
<path d="M22.0904 35.9391C22.0904 34.6697 22.0502 33.6628 22.1182 32.6652C22.1367 32.4397 22.5135 32.1278 22.773 32.066C23.0324 32.0042 23.4834 32.276 23.4895 32.4119C23.5535 33.4189 23.5308 34.4295 23.4216 35.4326C23.4 35.6179 22.6989 35.7198 22.0904 35.9391Z" fill="#6F3D0F"/>
<path d="M70.5819 36.7082C70.5819 37.8386 70.6344 38.9721 70.5572 40.1057C70.5325 40.4763 70.1866 40.8284 69.9889 41.1898C69.7881 40.8531 69.4206 40.5226 69.4113 40.1829C69.3557 37.8726 69.3557 35.55 69.4113 33.2459C69.4113 32.8876 69.7418 32.5355 69.9179 32.1803C70.1433 32.5602 70.5356 32.9308 70.5634 33.3262C70.6375 34.4443 70.5819 35.5778 70.5819 36.7082Z" fill="#6F3D0F"/>
</svg>
