<svg width="100" height="47" viewBox="0 0 100 47" fill="none" xmlns="http://www.w3.org/2000/svg">
<path d="M14.4517 20.3449H9.36237C9.36237 16.7189 9.39374 13.1849 9.36237 9.65308C9.33323 6.85632 9.20101 4.0618 9.17188 1.26505C9.17188 1.00957 9.58871 0.521037 9.81057 0.523278C13.0197 0.538965 16.2422 0.453807 19.4311 0.747377C21.7976 0.960271 23.642 2.28694 24.2941 4.76548C24.9462 7.24401 23.884 10.0654 21.773 11.6229C21.448 11.8605 21.0962 12.0846 20.7757 12.3087C23.3148 17.3957 28.8747 20.8603 33.7511 19.6882C36.5187 19.0159 38.2913 17.3285 38.9278 14.5519C39.376 12.5821 39.302 10.61 38.4392 8.74324C37.7423 7.23281 36.5949 6.30504 34.8649 6.314C34.0706 6.32504 33.3021 6.59722 32.678 7.08851C32.0538 7.57981 31.6088 8.2629 31.4115 9.03233C31.1001 10.2101 31.0239 11.4376 31.1874 12.6448C31.4653 14.525 32.839 15.4259 34.7147 15.2914C34.8895 15.278 35.0688 15.3071 35.4184 15.5872C34.9321 15.9592 34.4929 16.4321 33.9505 16.6831C30.7795 18.1554 26.9295 15.8427 26.5821 12.2907C26.2482 8.88218 27.8662 6.10335 31.0193 4.76323C36.1736 2.57378 43.1991 4.92683 43.793 11.8425C44.0888 15.2309 41.9061 19.1527 38.4773 21.0553C32.7404 24.2397 24.6952 23.0856 19.6754 18.263C18.3667 17.0035 17.3045 15.4886 16.0898 14.1328C15.803 13.8124 15.3279 13.6622 14.938 13.4336C14.7744 13.837 14.4785 14.2381 14.4673 14.646C14.4225 16.4971 14.4517 18.3593 14.4517 20.3449ZM14.4517 6.91011V8.80374C14.4517 10.5584 14.5435 10.6458 16.2781 10.4688C18.5191 10.2447 19.8099 8.65584 19.6754 6.31625C19.5566 4.27022 18.4115 3.3178 16.0607 3.3178C15.8747 3.3178 15.6887 3.33124 15.5027 3.3178C14.7497 3.25505 14.4091 3.56655 14.4427 4.34641C14.4808 5.19799 14.4517 6.05405 14.4517 6.91011Z" fill="#EF3B2D"/>
<path d="M72.563 42.7704V26.9288H77.5111V34.8776C77.5111 36.3701 77.4753 37.8649 77.5425 39.3596C77.5559 39.6756 77.8943 40.1731 78.1744 40.256C80.1801 40.8073 82.2082 41.3115 84.2251 41.7508C85.6728 42.0645 87.1384 42.423 88.613 42.4611C91.217 42.5104 93.1936 41.009 94.0205 38.5461C94.7195 36.5538 94.7155 34.3822 94.0093 32.3924C93.1353 29.9273 90.4954 28.5177 88.0639 29.2214C87.8017 29.2998 87.5283 29.8802 87.5239 30.232C87.4768 32.8809 87.5037 35.5298 87.4947 38.1809C87.4947 39.5255 87.3759 39.6218 86.0896 39.3574C82.6026 38.6425 82.6295 38.6425 82.5959 35.1443C82.5735 32.612 82.4547 30.0774 82.4323 27.5451C82.4323 27.321 82.8223 26.8728 83.0262 26.8728C86.1165 26.9311 89.2606 26.7182 92.2837 27.2224C97.1982 28.0426 99.8336 31.7783 99.6633 36.8968C99.5065 41.6028 95.9746 45.6501 91.4792 46.3762C88.9491 46.7863 86.6028 46.2171 84.261 45.352C82.132 44.5654 79.9874 43.7833 77.7957 43.2186C76.5183 42.8847 75.1334 42.9519 73.7978 42.8444C73.3765 42.8107 72.9417 42.7861 72.563 42.7704Z" fill="#EF3B2D"/>
<path d="M23.2118 42.6337C20.6144 43.492 18.0306 44.2965 15.4826 45.1996C10.5972 46.9296 5.69616 46.8781 0.835449 45.5895V26.9265C1.14247 26.8996 1.566 26.8324 1.98955 26.8324C4.9387 26.8324 7.89009 26.8907 10.837 26.7966C12.027 26.7585 12.4527 27.2291 12.4774 28.298C12.4774 28.8471 12.4774 29.3961 12.4774 29.7883C10.7227 29.7883 9.01954 29.8174 7.32311 29.7748C6.51635 29.7547 6.16004 29.9989 6.20262 30.8572C6.25864 31.8635 6.23847 32.8741 6.2183 33.8803C6.2183 34.5011 6.47378 34.7767 7.08557 34.7476C8.24192 34.7073 9.405 34.7476 10.5546 34.6311C11.3704 34.5549 11.5855 34.8552 11.5989 35.6126C11.6348 37.7035 11.6639 37.7012 9.54619 37.4906C6.22728 37.1589 6.22727 37.1589 6.22503 40.4039C6.22503 42.051 6.22503 42.0555 7.89009 42.3289C10.7048 42.7905 13.4657 42.4589 16.2064 41.7821C17.4009 41.4863 18.602 41.1972 19.8144 41.0045C21.6722 40.7109 22.3154 41.0762 23.2118 42.6337Z" fill="#EF3B2D"/>
<path d="M19.2698 34.2905C19.2698 35.3192 19.2362 36.35 19.281 37.3786C19.3146 38.1294 19.0143 38.4565 18.2771 38.5305C17.5398 38.6044 16.7532 38.7748 15.7515 38.9428V26.8616C16.8204 26.8616 18.0373 26.8101 19.2474 26.8953C19.5746 26.9199 19.9197 27.3166 20.1774 27.6169C22.1741 29.9811 24.1507 32.3655 26.134 34.741C26.4656 35.1354 26.8063 35.5186 27.3195 36.1035V26.9401H31.0485V42.7391C29.2714 42.9251 27.5167 43.1088 26.1004 41.3362C24.4488 39.2723 22.5977 37.3674 20.834 35.3931L19.671 34.0956L19.2698 34.2905Z" fill="#EF3B2D"/>
<path d="M63.7044 4.4001C64.9437 4.4001 66.3219 4.31943 67.6777 4.45389C68.0497 4.48974 68.5024 5.12618 68.6705 5.57438C70.2392 9.72022 71.7563 13.8885 73.2936 18.0477C73.5626 18.7738 73.8651 19.4887 74.2013 20.3358H68.7556C68.6862 19.6635 68.6391 18.9665 68.5315 18.283C68.4195 17.5099 68.0071 17.1334 67.16 17.1782C66.0063 17.2541 64.8487 17.2503 63.6955 17.167C62.5593 17.0707 62.0237 17.5256 61.9296 18.6147C61.8848 19.1638 61.8287 19.7128 61.7705 20.3515H58.5322C60.2914 15.0874 62.4584 10.0272 63.7044 4.4001ZM65.383 9.23392H64.9728L63.2988 14.3882H67.1959C66.555 12.564 65.9701 10.899 65.383 9.23392Z" fill="#EF3B2D"/>
<path d="M68.744 29.3715C67.2224 29.3715 65.815 29.3984 64.4099 29.3715C63.6726 29.3536 63.3186 29.5553 63.3454 30.3733C63.462 33.9006 62.7157 33.4188 66.3058 33.3269C67.1215 33.3045 67.5003 33.495 67.4263 34.3577C67.3815 34.9045 67.4263 35.4603 67.4263 36.0452C66.4582 36.0452 65.6133 36.0452 64.7707 36.0452C63.3656 36.0295 63.3656 36.025 63.3611 37.4772C63.3916 37.9249 63.3916 38.3741 63.3611 38.8218C63.1998 39.9423 63.7892 40.2807 64.7662 40.2762H69.125C69.0734 40.8409 69.0488 41.5693 68.9188 42.2752C68.8748 42.4045 68.799 42.5207 68.6983 42.6131C68.5977 42.7055 68.4755 42.7712 68.3429 42.804C65.0329 42.8377 61.7207 42.8287 58.4287 42.8287V26.828H66.9445C68.6073 26.828 68.6118 26.828 68.7619 28.4595C68.7686 28.7911 68.744 29.1273 68.744 29.3715Z" fill="#EF3B2D"/>
<path d="M35.3062 26.911C35.6804 26.8841 36.0748 26.8325 36.4715 26.8303C39.0083 26.8303 41.5473 26.8886 44.0908 26.8012C45.283 26.7608 45.729 27.1911 45.6595 28.3228C45.6573 28.6777 45.6767 29.0325 45.7178 29.385C44.1984 29.385 42.7619 29.4142 41.3277 29.3716C40.5546 29.3492 40.2498 29.6226 40.2946 30.4069C40.3441 31.3026 40.3441 32.2004 40.2946 33.0961C40.2587 33.8491 40.5926 34.0754 41.2918 34.0485C42.251 34.0127 43.2101 34.0485 44.1581 34.0485C44.2096 34.1359 44.2746 34.1964 44.2813 34.2614C44.539 36.7982 44.5368 36.7982 42.0157 36.6257C40.3036 36.5114 40.3036 36.5114 40.3036 38.275V42.757H35.3062V26.911Z" fill="#EF3B2D"/>
<path d="M52.7369 11.0985C53.4428 9.0457 54.1398 6.98623 54.8726 4.9402C54.9224 4.81703 54.9999 4.70693 55.0989 4.61835C55.198 4.52978 55.3161 4.46509 55.444 4.42926C56.4032 4.37547 57.3668 4.40461 58.5343 4.40461C58.3102 4.96037 58.1758 5.33238 58.001 5.68421C57.0441 7.62491 56.2082 9.64404 55.0765 11.4794C53.575 13.9109 53.9067 16.4791 54.0837 19.0741C54.1106 19.4686 54.198 19.8607 54.272 20.3425H49.1446C49.1446 18.4287 49.1939 16.6068 49.1199 14.7916C49.0896 14.0569 48.9049 13.3368 48.5776 12.6783C47.1904 9.96451 45.7248 7.29997 44.1875 4.41805C45.7562 4.41805 47.1523 4.37099 48.5485 4.45839C48.8264 4.47408 49.1468 4.96261 49.3216 5.301C50.1441 6.88987 50.9217 8.50562 51.7217 10.1079C51.8831 10.4306 52.0713 10.7376 52.2461 11.0536L52.7369 11.0985Z" fill="#EF3B2D"/>
<path d="M77.5356 4.46509H82.486C82.486 8.2322 82.486 11.9142 82.486 15.5961C82.486 17.3239 82.5308 17.3889 84.3102 17.4404C85.7085 17.4763 87.1114 17.4404 88.568 17.4404C88.6005 17.5107 88.6174 17.5871 88.6173 17.6645C88.214 20.8535 88.8168 20.3896 85.7041 20.4142C82.988 20.4344 80.2719 20.4142 77.5536 20.4142L77.5356 4.46509Z" fill="#EF3B2D"/>
<path d="M54.0814 42.8286C52.7502 42.8286 51.4146 42.8286 50.0812 42.8286C49.7159 42.8286 49.3484 42.7928 48.9966 42.7749V26.9243H54.0814V42.8286Z" fill="#EF3B2D"/>
</svg>
