<svg width="93" height="32" viewBox="0 0 93 32" fill="none" xmlns="http://www.w3.org/2000/svg">
<path d="M16.3189 1.88281C12.6175 2.00626 9.11283 3.57923 6.56037 6.26264C4.00791 8.94605 2.61211 12.525 2.67384 16.2279C2.73557 19.9309 4.2499 23.4613 6.89039 26.0582C9.53088 28.655 13.086 30.1103 16.7895 30.1103C20.493 30.1103 24.0482 28.655 26.6886 26.0582C29.3291 23.4613 30.8435 19.9309 30.9052 16.2279C30.9669 12.525 29.5711 8.94605 27.0187 6.26264C24.4662 3.57923 20.9615 2.00626 17.2601 1.88281H16.3189ZM36.0836 1.88281C32.3822 2.00626 28.8775 3.57923 26.3251 6.26264C23.7726 8.94605 22.3768 12.525 22.4385 16.2279C22.5003 19.9309 24.0146 23.4613 26.6551 26.0582C29.2956 28.655 32.8507 30.1103 36.5542 30.1103C40.2577 30.1103 43.8129 28.655 46.4533 26.0582C49.0938 23.4613 50.6082 19.9309 50.6699 16.2279C50.7316 12.525 49.3358 8.94605 46.7834 6.26264C44.2309 3.57923 40.7262 2.00626 37.0248 1.88281H36.0836ZM55.8483 1.88281C52.1469 2.00626 48.6422 3.57923 46.0898 6.26264C43.5373 8.94605 42.1415 12.525 42.2032 16.2279C42.265 19.9309 43.7793 23.4613 46.4198 26.0582C49.0603 28.655 52.6154 30.1103 56.3189 30.1103C60.0224 30.1103 63.5776 28.655 66.218 26.0582C68.8585 23.4613 70.3729 19.9309 70.4346 16.2279C70.4963 12.525 69.1005 8.94605 66.5481 6.26264C63.9956 3.57923 60.4909 2.00626 56.7895 1.88281H55.8483ZM75.613 1.88281C71.9116 2.00626 68.4069 3.57923 65.8545 6.26264C63.302 8.94605 61.9062 12.525 61.9679 16.2279C62.0297 19.9309 63.544 23.4613 66.1845 26.0582C68.825 28.655 72.3801 30.1103 76.0836 30.1103C79.7871 30.1103 83.3423 28.655 85.9827 26.0582C88.6232 23.4613 90.1376 19.9309 90.1993 16.2279C90.261 12.525 88.8652 8.94605 86.3128 6.26264C83.7603 3.57923 80.2556 2.00626 76.5542 1.88281H75.613Z" stroke="white" stroke-width="3"/>
</svg>
