<svg width="99" height="45" viewBox="0 0 99 45" fill="none" xmlns="http://www.w3.org/2000/svg">
<path d="M38.4756 16.6182C40.8697 14.3747 45.271 14.0945 48.0749 16.0161C49.7476 17.1577 51.4078 18.2993 53.0575 19.4639C53.6012 19.8487 54.0507 19.9449 54.5442 19.1482L38.5049 8.08108C42.9146 6.03409 47.0587 3.74873 50.7157 0.553833L62.7635 8.8568C61.44 10.5651 57.9544 11.4725 55.5562 10.7031C54.7666 10.4359 54.0169 10.0631 53.3273 9.59489C51.6399 8.48253 49.9818 7.32208 48.3488 6.13654C47.7425 5.69745 47.3598 5.83545 46.9166 6.50663L62.6381 17.4671C59.8739 19.0583 57.1139 20.5909 54.4166 22.226C53.2624 22.9244 52.2505 23.859 51.1402 24.6368C50.8935 24.8104 50.3875 24.9442 50.1951 24.8125C46.2809 22.134 42.4002 19.4159 38.5174 16.7144C38.4944 16.6977 38.4902 16.6517 38.4756 16.6182Z" fill="#0F31AA"/>
<path d="M0.0550634 39.5931C2.04769 39.5931 4.06123 39.5805 6.07267 39.614C6.20448 39.6363 6.33048 39.6848 6.44324 39.7567C6.556 39.8285 6.65323 39.9221 6.72922 40.0321C7.68894 41.385 9.02921 41.5062 10.4552 41.1299C10.8588 41.0232 11.3982 40.4838 11.4128 40.1221C11.4275 39.7603 10.9194 39.1623 10.5347 39.0578C9.5373 38.7881 8.47513 38.7776 7.45268 38.5852C5.85523 38.2821 4.24523 38.004 2.69169 37.5398C1.20924 37.1007 0.289242 36.0406 0.17006 34.4243C0.0362427 32.6345 0.772247 31.196 2.35924 30.4851C6.56405 28.6033 10.8211 28.7434 14.9736 30.6942C16.1466 31.2462 16.8283 32.3355 17.0039 33.8138C16.7034 33.8728 16.3997 33.914 16.0944 33.9372C15.0845 33.9497 14.0725 33.9225 13.0626 33.9372C11.9502 33.9643 10.9591 33.9623 10.0726 32.9733C9.29057 32.1034 8.03394 32.0993 6.93622 32.4505C6.51804 32.5823 5.98696 33.0653 5.9535 33.4291C5.92423 33.7406 6.48459 34.3323 6.86932 34.4181C8.28904 34.7359 9.76312 34.8216 11.1849 35.1332C12.542 35.4115 13.8715 35.8104 15.1576 36.325C16.5565 36.9104 17.4451 37.9977 17.4576 39.6328C17.4576 41.3327 16.6213 42.5872 15.1347 43.1518C13.5831 43.7468 11.9598 44.1341 10.3068 44.3039C7.52167 44.5631 4.73242 44.3708 2.11042 43.2249C0.52552 42.5621 -0.216754 41.2281 0.0550634 39.5931Z" fill="#0F31AA"/>
<path d="M83.8854 36.7055L91.7472 44.0508C89.351 44.0508 87.2413 44.0676 85.1337 44.032C84.8323 43.9826 84.5554 43.8357 84.3454 43.6138C82.9361 42.3196 81.5478 41.0023 80.1511 39.6934C79.9127 39.4697 79.666 39.2564 79.1913 38.8319V43.963H73.9515C73.9306 43.6661 73.8909 43.3629 73.8909 43.0598C73.8909 39.0222 73.9097 34.9847 73.8721 30.9451C73.8721 30.0376 74.0519 29.6152 75.0764 29.6905C76.3561 29.7846 77.6462 29.7135 79.1286 29.7135V34.5602L79.4255 34.669C80.7302 33.5503 82.0998 32.5007 83.3209 31.2963C84.5043 30.1275 85.7589 29.5086 87.4713 29.6842C88.8806 29.8285 90.317 29.7135 92.0441 29.7135L83.8854 36.7055Z" fill="#0F31AA"/>
<path d="M45.6595 40.6177H47.6877C49.3939 40.6177 51.1001 40.6365 52.8042 40.6177C53.4168 40.6072 53.7053 40.7954 53.6802 41.454C53.6468 42.2778 53.6802 43.1058 53.6802 44.0007H37.4109C37.2667 42.5371 37.0199 41.1843 38.4564 39.9862C40.5891 38.2047 42.5295 36.1933 44.5493 34.2759C44.8169 34.0209 45.0636 33.7428 45.5613 33.2305H37.6702V29.7826H53.6656C53.8099 31.3069 53.9228 32.6555 52.5072 33.8222C50.3892 35.5681 48.4551 37.5356 46.4436 39.4175C46.13 39.7102 45.8456 40.0447 45.5487 40.3521L45.6595 40.6177Z" fill="#0F31AA"/>
<path d="M18.9589 29.7638H23.9039V33.1302C23.9039 34.9388 23.9039 36.7495 23.9039 38.5665C23.9039 39.8796 24.5103 40.718 25.7857 40.9208C26.7117 41.0683 27.6553 41.0683 28.5813 40.9208C29.9069 40.7118 30.4631 39.9277 30.4631 38.5707C30.4756 35.6831 30.4631 32.7977 30.4631 29.8119H35.4938C35.5147 30.136 35.5607 30.5019 35.5607 30.8573C35.5607 33.3999 35.5607 35.9403 35.5607 38.4808C35.5607 42.2967 34.5529 43.5909 30.8248 44.1931C28.1408 44.65 25.3946 44.5954 22.7309 44.0321C19.9877 43.432 18.9338 42.3155 18.8335 39.5367C18.7206 36.4003 18.8021 33.264 18.8063 30.1422C18.8405 30.01 18.8918 29.8828 18.9589 29.7638Z" fill="#0F31AA"/>
<path d="M55.6022 29.7659H60.4928V34.3868C60.4928 35.7793 60.4782 37.1718 60.4928 38.5686C60.5137 39.8607 61.0678 40.6825 62.3056 40.8895C63.297 41.0526 64.3084 41.0526 65.2998 40.8895C66.5376 40.6804 67.0708 39.8649 67.075 38.556C67.075 35.6685 67.075 32.781 67.075 29.8056H71.9907C72.0325 29.8892 72.1182 29.9812 72.1182 30.0732C72.0973 33.4835 72.1182 36.8938 72.0221 40.3019C71.9782 42.0123 71.0143 43.1267 69.3875 43.6871C66.8973 44.5465 64.3275 44.5987 61.7557 44.3625C60.4791 44.2296 59.2185 43.9719 57.9921 43.593C56.5557 43.1748 55.6461 42.0855 55.5917 40.6114C55.4621 37.1008 55.483 33.5859 55.4517 30.0732C55.4642 29.9708 55.5478 29.8704 55.6022 29.7659Z" fill="#0F31AA"/>
<path d="M98.8355 29.7888V43.9944H93.6626V29.7888H98.8355Z" fill="#0F31AA"/>
</svg>
