<svg width="90" height="73" viewBox="0 0 90 73" fill="none" xmlns="http://www.w3.org/2000/svg">
<path d="M28.4992 12.0651C26.202 10.3277 26.009 7.88578 26.1325 5.34926C26.1441 5.08866 26.2464 4.69293 26.4298 4.60027C28.4239 3.59068 30.4836 2.74325 32.6919 2.35331C32.7827 3.73353 32.7614 5.05584 32.9776 6.3434C33.2672 8.05179 34.4351 8.78534 36.1377 8.47841C36.7383 8.37552 37.3264 8.20988 37.8924 7.98423C39.2437 7.43021 39.956 6.42062 39.927 4.91879C39.9038 3.74125 39.927 2.56179 39.927 1.30511C42.1547 0.725999 44.4615 0.758813 46.8281 1.32634C46.8281 2.69112 46.8281 4.02888 46.8281 5.36856C46.8281 6.36271 47.2258 7.18891 48.1002 7.58657C49.0454 8.04468 50.0562 8.35274 51.0962 8.49964C52.5363 8.656 53.3953 7.94562 53.652 6.45537C53.8779 5.13692 53.8856 3.78179 54.0091 2.17378C55.731 2.81467 57.4317 3.48837 59.1613 4.07521C60.1574 4.41302 60.5512 5.02109 60.5126 6.04999C60.4373 8.34328 60.1902 10.5497 58.0649 12.0554C60.4605 14.7927 60.8697 18.2037 61.3967 21.5432C62.0519 25.8407 61.8921 30.223 60.9257 34.4613C60.5302 36.2107 59.901 37.8988 59.0552 39.4803C57.4105 42.5689 54.7485 44.4704 51.2796 45.063C45.9479 45.9761 40.566 46.0764 35.2787 44.9645C29.9913 43.8526 27.0089 40.156 25.8198 35.0231C24.8198 30.728 24.7793 26.3557 25.2407 21.9853C25.4166 20.4545 25.6815 18.9353 26.0341 17.4354C26.6267 14.7676 26.8834 14.2696 28.4992 12.0651ZM43.2801 40.5054L43.2955 40.2332C45 40.2332 46.7065 40.3027 48.4072 40.2197C52.5826 40.0112 54.6423 38.2526 55.3565 34.1699C55.7022 32.2136 55.9067 30.235 55.9685 28.2494C56.0708 24.9156 56.121 21.5741 55.3894 18.2751C54.5632 14.5919 53.0999 12.8855 49.3743 12.5959C45.4043 12.2797 41.4158 12.2713 37.4445 12.5708C33.4718 12.8777 32.2113 14.3082 31.3137 18.1921C30.5415 21.5818 30.5743 25.0334 30.7519 28.4636C30.8891 30.8636 31.1987 33.2506 31.6785 35.6061C32.1341 37.9225 33.6262 39.4784 36.0122 39.8201C38.3981 40.1618 40.8555 40.2949 43.2801 40.5112V40.5054Z" fill="#127384"/>
<path d="M2.85996 57.0951V63.1314H0.257812V49.4952H2.86383V54.6648H8.44649V49.5145H11.0718V63.1218H8.49475V57.0951H2.85996Z" fill="#127384"/>
<path d="M41.2455 65.9227H39.0024V62.3361C37.9909 62.7222 37.0623 63.3013 36.0817 63.4036C34.0432 63.6295 32.4719 62.3071 31.8909 60.0756C31.4894 58.6095 31.5378 57.0566 32.0298 55.6184C33.0915 52.5298 36.2941 51.6669 38.7669 53.8C38.866 53.8568 38.9717 53.9016 39.0815 53.9331C39.1259 53.5567 39.1665 53.2266 39.2089 52.8637H41.2455V65.9227ZM39.1105 58.1375C38.9947 57.4599 38.9483 56.9117 38.8035 56.4002C38.4889 55.2574 37.7457 54.63 36.7207 54.5625C35.7864 54.5026 34.91 55.0586 34.4525 56.0566C34.1405 56.6942 33.9801 57.3954 33.9838 58.1053C33.9875 58.8151 34.1552 59.5146 34.4737 60.149C34.9351 61.1007 35.7034 61.5987 36.8075 61.5002C37.8268 61.4076 38.4638 60.8188 38.7707 59.9057C38.9811 59.2957 39.0178 58.6452 39.1105 58.1356V58.1375Z" fill="#127384"/>
<path d="M78.0734 55.6628C78.2935 53.9969 79.0811 53.0008 80.6485 52.829C81.87 52.6847 83.1073 52.7546 84.3047 53.0356C85.6946 53.3831 86.2216 54.354 86.2351 55.7864C86.2351 57.3307 86.2351 58.875 86.2351 60.4193V63.1643C85.5691 62.95 84.5112 63.8148 83.9302 62.4539C82.5789 63.5639 81.0346 63.7357 79.4208 63.201C78.8345 63.0128 78.3244 62.6409 77.966 62.1403C77.6075 61.6396 77.4198 61.0369 77.4306 60.4212C77.421 59.0584 78.0425 58.0295 79.3417 57.6164C80.2779 57.3172 81.2894 57.2651 82.2604 57.0585C83.0113 56.8983 83.9881 56.9446 83.9572 55.7767C83.936 54.9602 83.16 54.41 82.0056 54.5316C81.4748 54.5895 80.9844 55.02 80.4806 55.2941C80.2876 55.4022 80.0945 55.6358 79.9015 55.6513C79.2934 55.6918 78.6873 55.6628 78.0734 55.6628ZM83.8182 58.292C82.8164 58.4851 81.94 58.6086 81.0829 58.819C79.9652 59.0931 79.4517 60.1703 80.081 60.8961C80.7103 61.6219 81.6253 61.6161 82.4708 61.3806C83.2584 61.1644 83.8221 60.6664 83.8221 59.7456C83.8163 59.2707 83.8182 58.7958 83.8182 58.292Z" fill="#127384"/>
<path d="M59.8719 63.2549C59.0534 62.8688 57.8991 63.9209 57.43 62.3998C56.0169 63.5696 54.4784 63.7182 52.8569 63.1719C51.6157 62.7569 50.9748 61.7956 50.9613 60.4694C50.9458 58.9695 51.4651 58.0873 52.772 57.624C53.4611 57.3808 54.2043 57.2862 54.9263 57.1472C55.3992 57.0545 55.8818 57.0179 56.3528 56.9252C56.957 56.8055 57.6095 56.5198 57.4261 55.8384C57.3372 55.5652 57.1907 55.3142 56.9966 55.1025C56.8025 54.8907 56.5651 54.723 56.3007 54.6107C55.4861 54.3443 54.5537 54.3076 54.102 55.3828C54.053 55.4585 53.9873 55.5221 53.9101 55.5686C53.8328 55.6151 53.7459 55.6433 53.6561 55.6511C53.0249 55.682 52.3917 55.6627 51.7566 55.6627C51.8396 53.8926 52.9418 52.8347 54.9668 52.6552C55.8283 52.5864 56.6952 52.6568 57.5342 52.8637C58.8951 53.1918 59.6827 54.3173 59.7078 55.7921C59.7368 57.4001 59.7078 59.0081 59.7233 60.618C59.7348 61.4346 59.8121 62.255 59.8719 63.2549ZM57.3199 58.2668C56.3548 58.4599 55.4455 58.6008 54.5576 58.8208C53.4553 59.093 52.9592 60.1721 53.5924 60.9192C54.2255 61.6662 55.0961 61.6064 55.9088 61.3979C56.6385 61.2049 57.2601 60.7705 57.3161 59.8941C57.3354 59.3594 57.3199 58.817 57.3199 58.2668Z" fill="#127384"/>
<path d="M18.8802 52.8752H21.2218V63.1333H18.9941C18.9401 62.8959 18.8783 62.6314 18.8011 62.3457C18.7112 62.3492 18.6223 62.3648 18.5366 62.392C17.7973 62.7395 17.085 63.3186 16.3167 63.4055C14.0987 63.6526 12.676 62.309 12.5602 59.9057C12.4675 57.9174 12.5409 55.9214 12.5389 53.9215V52.8926H14.9693C14.9693 54.2709 14.9693 55.6434 14.9693 57.0159C14.9693 57.9155 14.9422 58.8189 15.0059 59.7184C15.0928 60.9269 15.753 61.56 16.8089 61.5581C17.9285 61.5581 18.6853 60.9076 18.7393 59.7204C18.8204 57.8286 18.7972 55.931 18.8223 54.0354C18.832 53.6667 18.8609 53.2922 18.8802 52.8752Z" fill="#127384"/>
<path d="M76.5869 63.1352H74.2299C74.2299 61.479 74.2299 59.8825 74.2299 58.2842C74.2299 57.6086 74.2453 56.9329 74.1797 56.2631C74.0658 55.0875 73.6257 54.5875 72.7512 54.5257C71.6297 54.4447 70.5834 55.0913 70.4348 56.128C70.2823 57.2341 70.2977 58.3653 70.2707 59.4868C70.2437 60.6084 70.2591 61.7357 70.2514 62.8611C70.2334 62.9493 70.2063 63.0354 70.1703 63.1179H67.9658V52.8868H70.0699C70.1182 53.2536 70.1703 53.659 70.2379 54.1648C70.4403 53.999 70.6336 53.8224 70.817 53.6358C71.8247 52.493 73.0813 52.4062 74.4249 52.8173C75.6912 53.2034 76.4807 54.1686 76.5386 55.4098C76.6718 57.9637 76.5869 60.5292 76.5869 63.1352Z" fill="#127384"/>
<path d="M22.3584 60.1838H24.6092C25.3486 61.4327 26.1033 61.8188 27.4836 61.4385C27.8928 61.3266 28.4198 60.8382 28.47 60.4733C28.5202 60.1085 28.1032 59.4831 27.7403 59.3267C26.8987 58.9676 25.9643 58.819 25.0667 58.5912C23.5649 58.2051 22.6943 57.4079 22.5572 56.2748C22.3449 54.495 22.98 53.4525 24.6922 52.9198C26.14 52.4681 27.5878 52.4352 28.9835 53.1688C29.4045 53.3692 29.7645 53.6782 30.0265 54.0639C30.2884 54.4497 30.4428 54.8983 30.4737 55.3636C29.3773 55.2497 28.2962 55.7092 27.3523 54.7498C27.082 54.4756 26.3485 54.4911 25.8891 54.6127C25.503 54.7169 24.9683 55.13 24.9239 55.4659C24.8814 55.7709 25.3408 56.3172 25.696 56.4678C26.4566 56.7863 27.2982 56.9137 28.1051 57.1222C30.0992 57.6337 30.9505 58.5352 30.9409 60.1201C30.9293 61.7628 29.827 63.0157 27.9488 63.367C26.6797 63.6459 25.354 63.4965 24.1787 62.9423C23.0726 62.3883 22.3661 61.5408 22.3584 60.1838Z" fill="#127384"/>
<path d="M46.9132 60.5466C47.6217 57.9947 48.3321 55.4408 49.0366 52.8637H51.4921C50.3242 56.3152 49.1756 59.7262 48.0174 63.1565H45.3959L41.9097 52.8599H44.506C45.228 55.4002 45.9596 57.9696 46.6912 60.537L46.9132 60.5466Z" fill="#127384"/>
<path d="M61.2212 52.8656H63.3041L63.4836 54.4427C64.3658 53.1629 65.2383 52.1475 66.9042 52.661V54.6512C64.7808 54.4408 63.7075 55.3384 63.5975 57.5101C63.5222 59.0177 63.5647 60.5311 63.557 62.0426C63.557 62.3862 63.557 62.7318 63.557 63.1352H61.2251L61.2212 52.8656Z" fill="#127384"/>
<path d="M86.4204 65.8668H43.9347L43.8613 65.6583C43.9993 65.5402 44.155 65.4444 44.3227 65.3745C44.5452 65.3436 44.7706 65.3377 44.9945 65.3572C58.4634 65.3572 71.9316 65.3572 85.3993 65.3572C85.7603 65.3796 86.1196 65.426 86.4745 65.4962C86.4571 65.6236 86.4397 65.7452 86.4204 65.8668Z" fill="#127384"/>
<path d="M48.0346 68.3222V71.9552C47.3512 72.017 47.3493 72.017 47.3416 71.2178C47.3416 70.7892 47.3416 70.3588 47.3416 69.9302L47.0926 69.8916C46.8995 70.4167 46.7374 70.9495 46.5135 71.4571C46.376 71.6863 46.2092 71.8966 46.0173 72.0826C45.8243 71.8645 45.5714 71.6772 45.4556 71.4243C45.2336 70.9359 45.0908 70.4128 44.9151 69.9051L44.641 69.9167C44.641 70.4553 44.6738 70.9977 44.6255 71.5324C44.6082 71.7255 44.3958 71.8934 44.2723 72.0749C44.1449 71.8953 43.9113 71.7216 43.9055 71.5382C43.8708 70.4823 43.8881 69.4148 43.8881 68.2855L45.0695 68.2218L46.0077 70.8394C46.2722 70.131 46.5443 69.631 46.6389 69.1021C46.7895 68.2392 47.2489 68.0848 48.0346 68.3222Z" fill="#127384"/>
<path d="M50.7063 72.1251C49.5751 72.1251 48.8339 71.3529 48.8242 70.1657C48.8242 68.9419 49.5964 68.0751 50.7025 68.0616C51.7777 68.0501 52.6464 68.9612 52.658 70.1136C52.6695 71.3105 51.8742 72.1289 50.7063 72.1251ZM51.7912 70.1213C51.7912 69.27 51.4186 68.8048 50.7392 68.7932C50.0597 68.7817 49.5674 69.3318 49.6002 70.1561C49.6273 70.853 49.8666 71.4321 50.6735 71.5074C51.3356 71.5556 51.7931 70.9726 51.7912 70.1213Z" fill="#127384"/>
<path d="M63.8831 72.1675C63.7383 71.9532 63.497 71.7525 63.4642 71.5228C63.3194 70.5228 62.748 70.3433 61.9199 70.5942C61.4315 70.9803 62.2635 72.0536 61.0454 72.0903V68.2392C61.8021 68.2392 62.5318 68.2141 63.2576 68.2392C63.9834 68.2643 64.329 68.8183 64.1051 69.3491C63.8078 70.0557 63.9796 70.6406 64.1263 71.2795C64.1587 71.5006 64.1735 71.724 64.1707 71.9474L63.8831 72.1675ZM61.8002 70.129C62.3024 69.9938 62.7967 69.8308 63.2808 69.6406C63.3483 69.6117 63.3194 69.0847 63.2403 69.0615C62.7672 68.9231 62.2863 68.8129 61.8002 68.7314V70.129Z" fill="#127384"/>
<path d="M60.2155 70.0943C60.2271 71.3722 59.5148 72.1328 58.316 72.125C57.1694 72.125 56.4571 71.3529 56.459 70.1368C56.4609 68.9206 57.1925 68.0983 58.2735 68.0616C59.4125 68.023 60.2039 68.853 60.2155 70.0943ZM59.4434 70.1561C59.4549 69.3163 59.0206 68.7874 58.3218 68.7932C57.623 68.799 57.125 69.3723 57.1964 70.1619C57.2562 70.8124 57.4609 71.4417 58.2832 71.5015C58.9415 71.5517 59.4318 70.9707 59.4434 70.1561Z" fill="#127384"/>
<path d="M83.4646 70.8625C83.7136 70.9668 83.9607 71.0768 84.2136 71.1695C84.5426 71.3154 84.8872 71.4236 85.2406 71.4918C85.3854 71.5092 85.7 71.2563 85.6903 71.1444C85.6785 71.0287 85.6417 70.917 85.5823 70.817C85.523 70.7169 85.4426 70.6311 85.3467 70.5652C85.0437 70.4012 84.6209 70.4321 84.3545 70.2371C84.0013 69.9803 83.4916 69.5557 83.5245 69.2526C83.565 68.8665 84.0071 68.3743 84.3989 68.1928C85.2676 67.7894 86.0977 68.2411 86.4722 69.351L85.6247 69.0634C85.318 68.9381 84.9999 68.8424 84.675 68.7777C84.5649 68.7623 84.3372 68.9901 84.3198 69.1271C84.3253 69.2145 84.3525 69.2991 84.399 69.3733C84.4456 69.4475 84.5099 69.5088 84.5862 69.5518C85.0263 69.7294 85.5108 69.8066 85.9374 69.9958C86.6189 70.2931 86.9026 71.1366 86.3525 71.5401C85.8178 71.9052 85.1788 72.0861 84.5321 72.0555C84.0881 72.0323 83.6692 71.5304 83.2388 71.2428L83.4646 70.8625Z" fill="#127384"/>
<path d="M82.9323 71.4918C82.4516 72.1443 81.581 72.237 79.9614 71.9802V68.2391C80.8011 68.2391 81.6235 68.2391 82.4458 68.2507C82.5597 68.2507 82.6697 68.4071 82.7817 68.492C82.6659 68.6059 82.5597 68.8009 82.4304 68.8202C82.0829 68.8684 81.7238 68.8202 81.3706 68.8472C80.7316 68.8839 80.7336 68.8916 80.8262 69.7487L82.5867 69.8356C82.6022 69.9572 82.6196 70.0788 82.635 70.2004C82.3068 70.2544 81.9825 70.3239 81.6524 70.3626C81.2374 70.4127 80.6873 70.2043 80.7104 70.959C80.7355 71.6405 81.2393 71.4687 81.6254 71.488C82.0115 71.5073 82.3783 71.4918 82.9323 71.4918Z" fill="#127384"/>
<path d="M68.3518 69.5442C67.9232 69.3357 67.6259 69.243 67.3866 69.0654C66.8229 68.6446 66.3152 68.6794 65.8693 69.2044C65.3944 69.772 65.5083 70.8897 66.0874 71.295C66.6665 71.7004 67.1491 71.5518 67.541 70.9514C67.6626 70.768 67.9387 70.685 68.2108 70.5132C68.2552 71.5132 67.8248 72.0189 66.9908 72.1193C65.904 72.2506 65.0431 71.6502 64.8674 70.6368C64.6396 69.3685 65.2361 68.3377 66.3422 68.0945C67.2225 67.8995 68.0043 68.384 68.3518 69.5442Z" fill="#127384"/>
<path d="M75.8803 70.434C75.7895 71.5923 75.2625 72.015 74.4576 72.1135C73.4403 72.2389 72.6256 71.6849 72.4094 70.7757C72.1334 69.6175 72.5928 68.5809 73.5484 68.2122C74.5039 67.8435 75.2857 68.1639 75.7567 69.4187C75.4807 69.3144 75.1544 69.27 74.9344 69.0924C74.3823 68.6504 73.8746 68.6581 73.4055 69.1581C72.9364 69.658 73.0291 70.8549 73.5657 71.2622C74.1024 71.6695 74.612 71.6 75.0328 70.9958C75.1718 70.797 75.4652 70.7024 75.8803 70.434Z" fill="#127384"/>
<path d="M52.8569 68.3164H56.0691L56.1463 68.604L54.9726 69.0094V71.9783L54.6773 72.1559C54.4939 71.9629 54.2256 71.7814 54.1503 71.5459C54.0576 71.2564 54.1329 70.9128 54.1252 70.5923C54.102 69.7738 54.4746 68.716 53.021 68.7392C52.9805 68.7392 52.938 68.5326 52.8569 68.3164Z" fill="#127384"/>
<path d="M68.6514 68.3145C69.9042 67.9284 69.7633 69.2256 70.3887 69.5519C71.0412 69.2758 70.8713 67.9419 72.1261 68.3261C71.8326 68.8145 71.4967 69.2449 71.3037 69.7314C71.0624 70.3395 70.9543 70.9977 70.7555 71.6232C70.6866 71.8057 70.5571 71.959 70.3887 72.0575C70.3347 72.0903 70.0027 71.8645 70.0239 71.7718C70.2131 70.3819 69.1822 69.4727 68.6514 68.3145Z" fill="#127384"/>
<path d="M76.9014 68.1697C77.0752 68.3762 77.3725 68.5654 77.3995 68.7893C77.4671 69.3629 77.4729 69.9422 77.4169 70.517C77.3512 71.2621 77.6099 71.6058 78.3821 71.4977C78.701 71.4516 79.0265 71.4999 79.3183 71.6366C78.5635 72.3991 77.6254 71.9339 76.7026 72.1231V68.3473L76.9014 68.1697Z" fill="#127384"/>
<path d="M87.9589 52.5683C87.1307 52.5954 86.2987 51.775 86.291 50.9237C86.3016 50.5055 86.4681 50.1065 86.7577 49.8047C87.0473 49.503 87.4392 49.3203 87.8566 49.2925C88.2759 49.2835 88.6822 49.4387 88.9888 49.725C89.2953 50.0114 89.4778 50.4062 89.4974 50.8252C89.5182 51.2589 89.3692 51.6835 89.0819 52.009C88.7946 52.3345 88.3917 52.5352 87.9589 52.5683ZM87.2794 49.8233C86.5516 50.4391 86.4126 51.0955 86.9049 51.7151C87.3971 52.3348 87.9724 52.4255 88.6017 52.0143C89.2638 51.5819 89.4453 50.9449 89.0322 50.2615C88.6191 49.5782 87.9975 49.3465 87.2581 49.8523L87.2794 49.8233Z" fill="#127384"/>
<path d="M46.9574 15.7328H51.876V36.5288H47.0018C46.9883 36.2006 46.9612 35.8609 46.9593 35.5211C46.9593 33.334 46.9439 31.1469 46.9593 28.9578C46.9593 28.2262 46.6562 27.8807 45.9381 27.8807H40.7261C39.8883 27.8807 39.6316 28.344 39.6412 29.12C39.6625 31.2434 39.6412 33.3668 39.6412 35.4902V36.5481H34.8018V15.7907H39.6586C39.6586 17.6464 39.6586 19.5035 39.6586 21.3618C39.6586 23.0991 39.7918 23.24 41.5079 23.2478C42.8901 23.2478 44.2722 23.2478 45.6563 23.2478C46.5462 23.2478 46.996 22.8887 46.9709 21.9119C46.9226 19.8889 46.9574 17.8678 46.9574 15.7328Z" fill="#127384"/>
<path d="M87.2578 49.8523C87.3621 49.9168 87.4772 49.9619 87.5976 49.9855C88.3137 49.9855 88.806 50.1284 88.5164 51.0299C88.4508 51.2384 88.5647 51.5067 88.6129 51.8947L87.8698 51.0492L87.4605 51.802L87.2675 51.7711C87.2675 51.1225 87.2675 50.4759 87.2675 49.8253L87.2578 49.8523Z" fill="#127384"/>
</svg>
