<svg width="83" height="65" viewBox="0 0 83 65" fill="none" xmlns="http://www.w3.org/2000/svg">
<path d="M20.9357 53.6874C19.266 53.6874 17.8027 53.7106 16.3414 53.6662C16.0673 53.6662 15.7623 53.4152 15.5403 53.2087C11.5425 49.5275 7.52731 45.8732 3.5874 42.1225C2.61344 41.192 1.78677 40.1186 1.13581 38.9393C0.0181199 36.9086 0.379101 34.9627 2.16084 33.486C3.18481 32.6693 4.32381 32.0085 5.54094 31.5247C25.1768 23.4248 44.8216 15.3481 64.4755 7.29458C70.0736 4.99356 75.6968 2.71378 81.4049 0.385742C80.4668 5.18467 79.0885 9.62841 74.0695 11.5935C69.6296 13.3309 65.1357 14.9736 60.6302 16.5585C47.5267 21.1644 34.413 25.7432 21.289 30.2951C16.7462 31.8793 12.2078 33.4705 7.67401 35.0689C7.06766 35.2783 6.49085 35.5651 5.9579 35.9221C4.50432 36.9182 4.41359 38.2579 5.70309 39.4644C8.59866 42.1669 11.4942 44.8424 14.4052 47.5314C16.3858 49.3692 18.3638 51.2095 20.3392 53.0523C20.4937 53.201 20.6307 53.367 20.9357 53.6874Z" fill="#FF0000"/>
<path d="M76.079 14.3676C75.1138 16.3095 74.2818 18.0488 73.3765 19.7398C72.0522 22.1895 69.7628 23.2705 67.1992 23.95C56.0828 26.8957 44.9657 29.8479 33.848 32.8066C30.9048 33.5877 27.9578 34.3599 25.0069 35.123C24.4606 35.2659 23.9799 35.3836 23.8911 36.1036C23.8622 36.3411 23.478 36.648 23.2 36.7233C18.8786 37.9086 14.5487 39.0668 10.2105 40.198C9.80514 40.3022 9.32447 40.198 8.89593 40.1227C7.7377 39.8988 6.85358 39.115 6.77251 38.2927C6.69529 37.5205 7.37864 36.7368 8.61216 36.3276C12.2258 35.123 15.8492 33.9435 19.4706 32.7622C37.6316 26.8423 55.7939 20.918 73.9575 14.9891C74.5598 14.8077 75.1756 14.6378 76.079 14.3676Z" fill="#FF0000"/>
<path d="M69.0043 26.2529C66.9369 30.8337 63.7923 33.6 58.7251 34.3991C51.4437 35.5458 44.2356 37.1499 36.9948 38.5552C35.0837 38.9259 33.1707 39.2811 31.1824 39.6575C31.2113 40.0436 31.2326 40.3853 31.2615 40.7926L24.6249 42.167C21.1367 42.889 17.6523 43.636 14.1526 44.3059C13.6411 44.3707 13.1236 44.2449 12.699 43.9526C11.7338 43.2634 10.8709 42.4488 9.81885 41.5608L69.0043 26.2529Z" fill="#FF0000"/>
<path d="M61.2228 36.9917C59.1322 40.7965 56.0474 42.7828 51.9936 43.2983C48.2307 43.768 44.4632 44.1985 40.6912 44.5897C39.6121 44.7016 40.1951 45.497 39.9365 46.0703L33.7419 46.8946L19.3547 48.7921C18.6637 48.8848 18.0787 48.8056 17.517 48.2671C16.5711 47.3578 15.5229 46.5548 14.3184 45.5394L61.2228 36.9917Z" fill="#FF0000"/>
<path d="M51.5362 53.4946C48.2044 53.4946 44.8726 53.4733 41.5407 53.4946C35.7496 53.539 29.9758 53.6258 24.1924 53.6471C23.6395 53.6184 23.1098 53.4157 22.679 53.0679C21.6057 52.207 20.6173 51.2437 19.4282 50.1724C20.7158 49.9793 21.8258 49.8191 22.9377 49.6724C27.2823 49.0972 31.6289 48.527 35.9774 47.9621C37.7591 47.7324 39.5428 47.5181 41.3303 47.3482C41.705 47.3259 42.0775 47.4189 42.3978 47.6146C45.4594 49.4967 48.5036 51.4078 51.5517 53.3112L51.5362 53.4946Z" fill="#FF0000"/>
<path d="M45.5077 61.3357C45.5598 60.2528 45.6409 59.1679 45.6351 58.085C45.6351 57.8919 45.3127 57.5985 45.0849 57.5309C44.7645 57.4363 44.3939 57.5078 43.9576 57.5078V55.7222H49.8723C49.9321 56.2607 49.9939 56.8148 50.0653 57.473H47.884V64.6618C46.0289 64.6618 44.3668 64.6849 42.7086 64.6386C42.4557 64.6386 42.1681 64.3413 41.9732 64.1135C40.7763 62.7275 39.6027 61.3203 38.4193 59.9227C38.2263 59.6891 38.0139 59.4613 37.8113 59.2297L37.5468 59.2953C37.5468 60.301 37.5236 61.3068 37.57 62.3086C37.57 62.4708 37.8634 62.6947 38.0641 62.7584C38.3927 62.8374 38.7283 62.884 39.066 62.8974C39.0313 63.49 38.9984 64.0247 38.9676 64.5382H33.383V62.7874C33.4602 62.7352 33.4833 62.7044 33.5104 62.7024C35.211 62.5982 35.211 62.5982 35.213 60.857C35.213 60.0848 35.1686 59.3127 35.213 58.5405C35.2574 57.7684 35.0045 57.3939 34.1879 57.4962C33.8549 57.5157 33.521 57.5157 33.188 57.4962V55.7762C35.5431 55.7762 37.8499 55.755 40.1567 55.8013C40.4346 55.8013 40.7609 56.1198 40.9732 56.3689C42.2029 57.8128 43.4036 59.2799 44.6158 60.7373C44.8089 60.9728 45.0174 61.1987 45.2201 61.4284L45.5077 61.3357Z" fill="#FF0000"/>
<path d="M10.6953 64.5903V62.9089C12.394 62.6541 12.394 62.6541 12.2048 60.8087H6.72445C6.43297 62.5151 6.43297 62.5151 8.3286 62.8993V64.5575H1.37923V62.9533C3.09148 62.6155 3.0934 62.6155 3.0741 60.7701C3.06445 59.8049 3.05479 58.8397 3.03935 57.8745C3.0209 57.7663 2.99379 57.6598 2.95828 57.556L1.11284 57.4691C1.11284 57.0966 1.03562 56.7317 1.136 56.4229C1.21901 56.1661 1.5047 55.7916 1.71511 55.7878C3.89451 55.7414 6.07584 55.7588 8.33245 55.7588V57.446L6.86537 57.5483V59.2856C8.456 59.2856 10.0524 59.3107 11.6431 59.247C11.8014 59.247 12.0562 58.6833 12.0504 58.3861C12.0351 58.2224 11.9856 58.0638 11.9052 57.9204C11.8247 57.7771 11.715 57.6523 11.5832 57.5541C11.3554 57.4035 10.9694 57.4904 10.5968 57.4691V55.782H17.5578V57.4325L15.9536 57.583C15.9536 59.2026 15.9382 60.799 15.9768 62.3955C15.9768 62.5344 16.3049 62.7391 16.5076 62.7815C16.8498 62.821 17.1951 62.8268 17.5384 62.7989V64.5884L10.6953 64.5903Z" fill="#FF0000"/>
<path d="M50.7407 64.6174V62.8993C50.8257 62.8453 50.872 62.7951 50.9338 62.7835C52.5977 62.4476 52.5997 62.4476 52.59 60.7141C52.59 60.0057 52.5244 59.2953 52.59 58.5907C52.6557 57.7761 52.4298 57.3514 51.5399 57.4943C51.3426 57.5031 51.145 57.4947 50.9492 57.4692C50.9145 56.9441 50.8816 56.421 50.8411 55.8129C51.2002 55.7724 51.4743 55.7144 51.7484 55.7125C54.8968 55.6894 58.0472 55.645 61.1957 55.6681C64.0912 55.6894 66.344 58.1023 65.8749 60.5906C65.4695 62.7488 63.7959 64.4514 61.4042 64.5691C57.8716 64.7448 54.339 64.6174 50.7407 64.6174ZM56.5589 62.8318C57.833 62.7488 59.0819 62.7526 60.3019 62.5634C61.3964 62.3936 62.2439 61.2238 62.2786 60.1273C62.3114 59.0714 61.6628 58.0039 60.5239 57.7722C59.2711 57.5116 57.9604 57.529 56.5589 57.4151V62.8318Z" fill="#FF0000"/>
<path d="M82.2641 62.6676V64.598H74.502V62.8066L76.2394 62.6773C75.944 61.8877 75.5888 61.3936 74.7221 61.4283C73.8218 61.4823 72.9189 61.4752 72.0196 61.4071C71.0853 61.3163 70.6046 61.743 70.2475 62.6425L71.6547 62.8105V64.5941H65.5991C65.6339 64.015 65.6648 63.4533 65.7053 62.739C67.6241 63.3876 68.0874 61.9514 68.7553 60.8087C69.3634 59.7701 69.9695 58.7296 70.6702 57.527H68.5294C68.5796 56.8784 68.624 56.3224 68.6607 55.8437C71.1412 55.8437 73.5426 55.8244 75.944 55.8707C76.2046 55.8707 76.5328 56.2086 76.7007 56.4711C77.6827 58.0154 78.6433 59.5726 79.5828 61.1426C80.1812 62.131 80.6349 63.2931 82.2641 62.6676ZM74.5426 59.8338L73.2705 57.6949L71.8729 59.8338H74.5426Z" fill="#FF0000"/>
<path d="M24.7153 64.6637C23.0653 64.5826 21.4722 64.035 20.121 63.0846C17.8045 61.4438 17.818 58.9304 20.121 57.2819C23.1034 55.1585 28.1475 55.1585 31.1241 57.2819C33.4541 58.9497 33.4116 61.4573 31.0276 63.1425C29.6763 64.1116 27.6552 64.6675 24.7153 64.6637ZM25.611 57.2993C23.9257 57.2993 22.4972 58.6119 22.4837 60.164C22.4702 61.7681 23.9257 63.1097 25.6573 63.0885C27.3888 63.0673 28.7362 61.7604 28.7208 60.164C28.7054 58.5675 27.3271 57.2954 25.611 57.2993Z" fill="#FF0000"/>
<path d="M74.5388 59.8338H71.8652L73.2628 57.6949L74.5388 59.8338Z" fill="white"/>
</svg>
