<svg width="63" height="10" viewBox="0 0 63 10" fill="none" xmlns="http://www.w3.org/2000/svg">
<g clip-path="url(#clip0_6319_285460)">
<path fill-rule="evenodd" clip-rule="evenodd" d="M36.8478 0C37.394 0 37.8906 0 38.4369 0C38.4369 1.53946 38.4369 3.07892 38.4369 4.61838C37.8906 4.12178 37.394 3.52586 36.8478 3.07892C36.8478 2.03606 36.8478 1.04286 36.8478 0ZM1.4898 0.44694C2.2347 0 3.12858 -0.0496601 3.97281 0.0993201C4.61839 0.2483 5.31363 0.595921 5.66125 1.14218C6.05853 1.7381 6.10819 2.483 5.95921 3.17824C5.76057 4.07212 5.16465 4.81702 4.56873 5.51227C3.87349 6.25717 3.17825 7.00207 2.483 7.69731C3.77417 7.69731 5.06533 7.69731 6.35649 7.69731C6.35649 8.14425 6.35649 8.64085 6.35649 9.08779C4.32043 9.08779 2.2347 9.08779 0.19864 9.08779C0.19864 8.69051 0.19864 8.29323 0.19864 7.84629C1.14218 6.85309 2.08572 5.85989 2.9796 4.86668C3.32723 4.4694 3.67485 4.07212 3.97281 3.62518C4.17145 3.27756 4.27077 2.88028 4.22111 2.53266C4.17145 2.13538 3.97281 1.7381 3.62519 1.53946C3.22791 1.39048 2.7313 1.44014 2.38368 1.68844C1.9864 1.9864 1.78776 2.483 1.78776 2.9796C1.19184 2.9796 0.595921 2.9796 0 2.9796C0 1.93674 0.546261 0.943541 1.4898 0.44694ZM14.749 9.13745C14.749 6.10819 14.749 3.07892 14.749 0.04966C15.2953 0.04966 15.7919 0.04966 16.3382 0.04966C16.3382 1.29116 16.3382 2.58232 16.3382 3.82382C16.5368 3.42654 16.8844 3.07892 17.2817 2.83062C17.828 2.53266 18.4239 2.483 19.0198 2.53266C19.6157 2.58232 20.162 2.88028 20.5593 3.32722C20.9566 3.82382 21.1055 4.51906 21.1055 5.16464C21.1055 6.50547 21.1055 7.79663 21.1055 9.13745C20.5593 9.13745 20.0627 9.13745 19.5164 9.13745C19.5164 7.94561 19.5164 6.80343 19.5164 5.61159C19.5164 5.11498 19.4171 4.56872 18.9701 4.27076C18.2749 3.77416 17.1824 3.9728 16.6858 4.7177C16.4375 5.06532 16.3382 5.51227 16.3382 5.95921C16.3382 7.00207 16.3382 8.04493 16.3382 9.13745C15.8416 9.13745 15.2953 9.08779 14.749 9.13745ZM8.19391 3.32722C8.88915 2.68164 9.93202 2.43334 10.9252 2.53266C11.8191 2.58232 12.713 2.9796 13.2592 3.7245C12.9613 4.02246 12.6137 4.32042 12.3157 4.66804C11.8688 4.2211 11.2728 3.9728 10.6769 3.9728C10.1803 3.9728 9.63406 4.12178 9.28644 4.56872C8.83949 5.06532 8.74017 5.76057 8.83949 6.35649C8.93881 6.85309 9.18711 7.34969 9.68371 7.59799C10.1803 7.89595 10.7266 7.89595 11.2728 7.74697C11.7198 7.64765 12.1171 7.39935 12.3654 7.05173C12.713 7.34969 13.0109 7.59799 13.3586 7.89595C12.9116 8.59119 12.1667 8.98847 11.3722 9.13745C10.379 9.33609 9.23677 9.18711 8.39255 8.54153C7.59799 7.94561 7.20071 6.95241 7.20071 5.95921C7.15105 4.966 7.49867 3.9728 8.19391 3.32722ZM23.2906 3.37688C23.9858 2.7313 24.9294 2.483 25.8232 2.53266C26.6675 2.53266 27.5117 2.83062 28.0579 3.52586C28.7035 4.32042 28.8028 5.41294 28.7532 6.40615C27.1641 6.40615 25.5253 6.40615 23.9362 6.40615C24.0851 7.00207 24.4328 7.49867 24.979 7.74697C25.8232 8.09459 26.9158 7.84629 27.5613 7.15105C27.8593 7.44901 28.1076 7.74697 28.4056 8.04493C27.76 8.78983 26.8164 9.13745 25.8232 9.18711C24.8797 9.23677 23.8865 8.93881 23.1913 8.29323C22.5457 7.64765 22.2477 6.70411 22.2477 5.81023C22.2974 4.91634 22.5953 3.9728 23.2906 3.37688ZM24.6811 4.02246C24.2341 4.32042 23.9858 4.81702 23.8865 5.31362C25.0287 5.31362 26.1709 5.31362 27.313 5.31362C27.313 4.81702 27.0647 4.27076 26.6178 4.02246C26.0219 3.67484 25.277 3.67484 24.6811 4.02246ZM30.5906 3.27756C31.3852 2.58232 32.5274 2.38368 33.5702 2.53266C34.3648 2.63198 35.06 3.02926 35.6063 3.67484C35.3083 4.02246 34.9607 4.32042 34.6627 4.61838C34.2655 4.27076 33.7689 3.9728 33.2723 3.92314C32.726 3.82382 32.1797 3.9728 31.7824 4.32042C31.2858 4.76736 31.1369 5.4626 31.1865 6.05853C31.2362 6.60479 31.4845 7.20071 31.9811 7.49867C32.4777 7.79663 33.0736 7.79663 33.6199 7.69731C34.0668 7.59799 34.4144 7.34969 34.7124 7.00207C35.06 7.30003 35.358 7.54833 35.7056 7.84629C35.2587 8.54153 34.4641 8.98847 33.6695 9.08779C32.6763 9.28643 31.5341 9.08779 30.6899 8.44221C29.945 7.84629 29.5477 6.85309 29.5477 5.90955C29.4981 4.91634 29.8457 3.92314 30.5906 3.27756ZM36.8478 5.31362C37.394 5.81023 37.8906 6.35649 38.3872 6.90275C38.4369 6.90275 38.4866 6.90275 38.5362 6.85309C38.8342 6.45581 39.2315 6.15785 39.5791 5.76057C40.7213 6.90275 41.8138 7.99527 42.956 9.13745C42.2111 9.13745 41.4662 9.13745 40.7213 9.13745C40.0757 8.49187 39.4301 7.84629 38.7845 7.20071C38.6852 7.10139 38.5859 7.00207 38.5362 6.90275C38.4866 6.95241 38.4369 7.05173 38.4866 7.15105C38.4866 7.84629 38.4866 8.49187 38.4866 9.18711C37.9403 9.18711 37.4437 9.18711 36.8974 9.18711C36.8478 7.89595 36.8478 6.60479 36.8478 5.31362Z" fill="#3474FF"/>
<path fill-rule="evenodd" clip-rule="evenodd" d="M59.2445 1.04297C59.7907 1.04297 60.2873 1.04297 60.8336 1.04297C60.8336 1.63889 60.8336 2.23481 60.8336 2.83073C61.4295 2.83073 62.0751 2.83073 62.671 2.83073C62.671 3.22801 62.671 3.62529 62.671 3.97291C62.0751 3.97291 61.4295 3.97291 60.7839 3.97291C60.7839 4.96611 60.7839 5.95931 60.7839 7.00217C60.7839 7.30013 60.8336 7.59809 61.1316 7.74707C61.5785 7.89605 61.9758 7.69741 62.3731 7.54843C62.522 7.94571 62.6214 8.34299 62.7703 8.74027C62.1744 9.13755 61.4295 9.28653 60.7343 9.18721C60.2873 9.13755 59.8901 8.88925 59.5921 8.54163C59.3438 8.19401 59.1948 7.74707 59.1948 7.30013C59.1948 6.20761 59.1948 5.11509 59.1948 4.02257C58.8969 4.02257 58.5989 4.02257 58.2513 4.02257C58.2513 3.62529 58.2513 3.22801 58.2513 2.88039C58.5492 2.88039 58.8472 2.88039 59.1948 2.88039C59.2445 2.23481 59.2445 1.63889 59.2445 1.04297ZM40.5723 2.53277C41.3172 2.48311 42.0621 2.53277 42.8566 2.53277C41.7641 3.62529 40.6716 4.71781 39.5791 5.81033C39.2314 6.15795 38.8342 6.50557 38.5362 6.90285C38.4865 6.90285 38.4369 6.90285 38.3872 6.95251C37.8906 6.40625 37.3444 5.90965 36.8478 5.36339C36.7981 4.61849 36.8478 3.87359 36.8478 3.12869C37.394 3.62529 37.8906 4.17155 38.4369 4.66815C39.1818 3.92325 39.877 3.22801 40.5723 2.53277ZM45.6376 2.58243C46.6308 2.43345 47.6737 2.53277 48.5179 3.12869C49.1635 3.57563 49.6104 4.27087 49.7594 5.06543C49.958 6.05863 49.8091 7.15115 49.1635 7.94571C48.6172 8.64095 47.773 9.03823 46.9288 9.13755C45.9852 9.23687 44.9424 9.08789 44.1478 8.44231C43.5022 7.94571 43.1049 7.15115 43.0056 6.30693C42.9063 5.41305 43.0553 4.46951 43.6015 3.77427C44.0485 3.12869 44.843 2.73141 45.6376 2.58243ZM46.0845 3.92325C45.5879 4.02257 45.141 4.27087 44.8927 4.66815C44.4458 5.41305 44.4458 6.45591 44.9424 7.15115C45.5879 7.99537 46.9288 8.04503 47.6737 7.30013C48.4186 6.55523 48.4186 5.26407 47.773 4.41985C47.3757 3.97291 46.7301 3.77427 46.0845 3.92325ZM50.8023 2.58243C51.3485 2.58243 51.8451 2.58243 52.3914 2.58243C52.3914 3.82393 52.3914 5.01577 52.3914 6.25727C52.3914 6.70421 52.5404 7.15115 52.888 7.39945C53.3349 7.74707 53.9308 7.74707 54.4274 7.54843C55.1723 7.25047 55.4703 6.45591 55.4206 5.71101C55.4206 4.66815 55.4206 3.62529 55.4206 2.58243C55.9669 2.58243 56.5132 2.58243 57.0594 2.58243C57.0594 4.76747 57.0594 6.95251 57.0594 9.13755C56.5132 9.13755 56.0166 9.13755 55.4703 9.13755C55.4703 8.74027 55.4703 8.34299 55.4703 7.94571C55.222 8.34299 54.924 8.74027 54.4771 8.93891C53.9308 9.23687 53.2853 9.28653 52.6397 9.18721C52.0438 9.08789 51.4975 8.74027 51.1995 8.24367C50.9016 7.79673 50.8023 7.20081 50.8023 6.65455C50.8023 5.26407 50.8023 3.92325 50.8023 2.58243Z" fill="#11CA79"/>
</g>
<defs>
<clipPath id="clip0_6319_285460">
<rect width="62.82" height="9.18711" fill="white"/>
</clipPath>
</defs>
</svg>
