<svg width="51" height="21" viewBox="0 0 51 21" fill="none" xmlns="http://www.w3.org/2000/svg">
<path fill-rule="evenodd" clip-rule="evenodd" d="M6.69242 3.86592C7.6325 3.94522 8.57258 3.39011 9.16013 2.68632C9.73789 1.9627 10.1198 0.99126 10.0219 0C9.18951 0.0396504 8.1613 0.555106 7.57375 1.27873C7.03516 1.90322 6.57491 2.91431 6.69242 3.86592ZM17.8755 16.6314V1.17946H23.6041C26.5615 1.17946 28.6277 3.24104 28.6277 6.25412C28.6277 9.2672 26.5223 11.3486 23.5258 11.3486H20.2453V16.6314H17.8755ZM10.012 4.05378C9.18381 4.00553 8.42812 4.30587 7.81772 4.54847C7.42492 4.70458 7.09229 4.83678 6.83923 4.83678C6.55524 4.83678 6.20888 4.69752 5.81999 4.54115C5.31042 4.33626 4.72784 4.10201 4.11691 4.11325C2.71658 4.13307 1.41417 4.9359 0.699318 6.21448C-0.76956 8.77163 0.317409 12.5578 1.73732 14.6392C2.43259 15.67 3.26496 16.7999 4.36172 16.7603C4.84423 16.7418 5.19132 16.5928 5.55052 16.4385C5.96406 16.2609 6.39367 16.0764 7.06446 16.0764C7.71199 16.0764 8.1228 16.2561 8.51716 16.4286C8.89213 16.5926 9.25221 16.7501 9.78678 16.7404C10.9227 16.7206 11.6376 15.7096 12.3328 14.6789C13.0831 13.5725 13.4129 12.4928 13.4629 12.329L13.4688 12.31C13.4676 12.3088 13.4583 12.3045 13.4421 12.297L13.442 12.2969L13.4419 12.2969C13.1911 12.1807 11.274 11.2924 11.2557 8.91039C11.2372 6.91103 12.7762 5.89803 13.0185 5.73857C13.0332 5.72886 13.0432 5.72232 13.0477 5.7189C12.0684 4.25201 10.5408 4.09343 10.012 4.05378ZM32.9561 16.7504C34.4445 16.7504 35.8253 15.9872 36.452 14.778H36.501V16.6314H38.6945V8.94013C38.6945 6.71005 36.9318 5.27289 34.2193 5.27289C31.7026 5.27289 29.842 6.72988 29.7735 8.73199H31.9083C32.0845 7.78049 32.9561 7.15607 34.1508 7.15607C35.6 7.15607 36.4128 7.83996 36.4128 9.09871V9.9511L33.4555 10.1295C30.7038 10.298 29.2153 11.4378 29.2153 13.4201C29.2153 15.4222 30.7528 16.7504 32.9561 16.7504ZM33.5924 14.9171C32.3292 14.9171 31.5262 14.3025 31.5262 13.3609C31.5262 12.3894 32.2998 11.8244 33.7785 11.7352L36.4127 11.5667V12.439C36.4127 13.8862 35.1984 14.9171 33.5924 14.9171ZM45.9702 17.236C45.0204 19.9419 43.9334 20.8339 41.6224 20.8339C41.4461 20.8339 40.8585 20.8141 40.7214 20.7744V18.921C40.8683 18.9408 41.2307 18.9606 41.4167 18.9606C42.4645 18.9606 43.0521 18.5146 43.4144 17.355L43.6298 16.6711L39.6149 5.42158H42.0924L44.8833 14.55H44.9322L47.7231 5.42158H50.1321L45.9702 17.236ZM20.2451 3.2014H22.9772C25.0336 3.2014 26.2087 4.31161 26.2087 6.26439C26.2087 8.21717 25.0336 9.33729 22.9674 9.33729H20.2451V3.2014Z" fill="black"/>
</svg>
