<svg width="24" height="23" viewBox="0 0 24 23" fill="none" xmlns="http://www.w3.org/2000/svg">
<path d="M4.0875 0.34375C4.00313 0.395312 3.89531 0.503124 3.84375 0.5875C3.75469 0.732812 3.75 0.826562 3.75 2.5C3.75 4.15937 3.75469 4.26719 3.84375 4.40781C3.89062 4.49219 3.98906 4.59062 4.05469 4.6375C4.22344 4.75 7.2375 5.49531 7.52344 5.5C7.96875 5.5 8.25 5.20937 8.25 4.75C8.25 4.46406 8.14688 4.24375 7.94531 4.1125C7.87969 4.07031 7.47656 3.94844 7.04531 3.84062L6.2625 3.64375L6.59063 3.43281C7.90781 2.56562 9.19219 2.07812 10.7156 1.86719C11.3766 1.77344 12.6234 1.77344 13.2797 1.8625C17.7328 2.49062 21.1359 5.96875 21.6609 10.4406C21.7406 11.1109 21.6891 12.5594 21.5672 13.2109C21.4547 13.8156 21.2484 14.5375 21.0375 15.0484C20.8641 15.4844 20.8453 15.775 20.9813 16.0047C21.1313 16.2578 21.3422 16.375 21.6562 16.375C22.1672 16.375 22.3219 16.1734 22.7109 15.0016C23.1328 13.7219 23.2734 12.6719 23.2359 11.1578C23.2031 9.70937 22.9922 8.66875 22.4813 7.35625C21.2719 4.26719 18.7172 1.84844 15.5672 0.812499C14.3109 0.4 13.3641 0.25 12 0.25C9.65156 0.25 7.60313 0.873437 5.6625 2.17656L5.25 2.45312V1.6C5.25 0.826562 5.24063 0.728125 5.15625 0.5875C5.01562 0.362499 4.80469 0.25 4.5 0.25C4.32656 0.25 4.19063 0.278124 4.0875 0.34375Z" fill="#01B664"/>
<path d="M1.91674 6.72643C1.71518 6.86237 1.56518 7.16706 1.28862 7.99675C0.866743 9.27643 0.726118 10.3264 0.763618 11.8405C0.791743 12.9608 0.885493 13.6358 1.15268 14.5686C1.69643 16.4577 2.66674 18.1077 4.02612 19.4671C5.82612 21.2624 8.01987 22.3358 10.5699 22.678C11.2308 22.7671 12.6652 22.7811 13.2886 22.7014C15.0746 22.4858 16.7996 21.8577 18.2386 20.8967L18.7496 20.5546V21.4077C18.7496 22.2186 18.7542 22.2749 18.8574 22.4202C19.1433 22.8467 19.7949 22.8796 20.1042 22.4858C20.2871 22.2561 20.3011 22.0592 20.2871 20.3905C20.273 18.8858 20.2683 18.778 20.1792 18.628C20.1277 18.5389 20.0292 18.4264 19.9636 18.3796C19.8042 18.2577 16.7949 17.503 16.4761 17.4983C16.0308 17.4983 15.7496 17.7889 15.7496 18.2483C15.7496 18.5483 15.8621 18.7639 16.0824 18.8999C16.1621 18.9467 16.5511 19.0686 16.9496 19.1624C17.348 19.2561 17.6714 19.3499 17.6714 19.3686C17.6714 19.3874 17.5074 19.5092 17.3105 19.6405C16.0871 20.4421 14.723 20.9436 13.1714 21.1592C12.5949 21.2389 11.2777 21.2249 10.6636 21.1311C9.33706 20.9342 8.07143 20.4842 6.96987 19.8139C4.55581 18.3421 2.93862 15.9608 2.40424 13.0921C2.27299 12.3936 2.28706 10.5374 2.42299 9.81081C2.54487 9.18268 2.75112 8.4655 2.96206 7.94987C3.20112 7.35456 3.14018 6.97956 2.76518 6.73112C2.54956 6.58112 2.13706 6.58112 1.91674 6.72643Z" fill="#01B664"/>
<path d="M16.8034 7.35C16.78 7.35937 16.6956 7.37812 16.6159 7.39687C16.5128 7.42031 15.73 8.17031 13.4847 10.4109L10.4987 13.3969L9.21905 12.1219C8.52061 11.4234 7.89717 10.8281 7.83623 10.7953C7.68155 10.7203 7.30186 10.7297 7.13311 10.8141C6.82373 10.9734 6.65967 11.3484 6.74873 11.6953C6.79561 11.8734 7.00655 12.1031 8.40342 13.5047C9.28467 14.3906 10.0628 15.1453 10.1331 15.1828C10.2972 15.2672 10.7003 15.2672 10.8644 15.1828C11.019 15.0984 17.4972 8.61094 17.5722 8.46562C17.6659 8.28281 17.6378 7.875 17.5159 7.70156C17.3659 7.47656 16.9956 7.29375 16.8034 7.35Z" fill="#01B664"/>
</svg>
