<svg width="26" height="30" viewBox="0 0 26 30" fill="none" xmlns="http://www.w3.org/2000/svg">
<g clip-path="url(#clip0_5574_112791)">
<path d="M18.7012 3.60156V26.0435C18.7012 28.5566 20.4331 29.9539 22.2715 29.9539C23.9717 29.9539 25.8417 28.7638 25.8417 26.0435V3.77157C25.8417 1.47106 24.1417 0.03125 22.2715 0.03125C20.4012 0.03125 18.7012 1.61982 18.7012 3.60156Z" fill="#F8AB00"/>
<path d="M9.35156 14.9922V26.0431C9.35156 28.5562 11.0836 29.9535 12.9219 29.9535C14.622 29.9535 16.4922 28.7634 16.4922 26.0431V15.1622C16.4922 12.8617 14.792 11.4219 12.9219 11.4219C11.0517 11.4219 9.35156 13.0105 9.35156 14.9922Z" fill="#E37300"/>
<path d="M7.14062 26.3828C7.14062 28.3538 5.54143 29.953 3.57031 29.953C1.5992 29.953 0 28.3538 0 26.3828C0 24.4117 1.5992 22.8125 3.57031 22.8125C5.54143 22.8125 7.14062 24.4117 7.14062 26.3828Z" fill="#E37300"/>
</g>
<defs>
<clipPath id="clip0_5574_112791">
<rect width="26" height="29.9394" fill="white" transform="translate(0 0.03125)"/>
</clipPath>
</defs>
</svg>
