<svg width="30" height="30" viewBox="0 0 30 30" fill="none" xmlns="http://www.w3.org/2000/svg">
<rect width="30" height="30" rx="15" fill="#111827"/>
<path d="M10.9167 17.9167C10.9167 18.2261 11.0396 18.5228 11.2584 18.7416C11.4772 18.9604 11.7739 19.0833 12.0833 19.0833C12.3928 19.0833 12.6895 18.9604 12.9083 18.7416C13.1271 18.5228 13.25 18.2261 13.25 17.9167M10.9167 17.9167C10.9167 17.6072 11.0396 17.3105 11.2584 17.0917C11.4772 16.8729 11.7739 16.75 12.0833 16.75C12.3928 16.75 12.6895 16.8729 12.9083 17.0917C13.1271 17.3105 13.25 17.6072 13.25 17.9167M10.9167 17.9167H9.75V14.4167M13.25 17.9167H16.75M16.75 17.9167C16.75 18.2261 16.8729 18.5228 17.0917 18.7416C17.3105 18.9604 17.6072 19.0833 17.9167 19.0833C18.2261 19.0833 18.5228 18.9604 18.7416 18.7416C18.9604 18.5228 19.0833 18.2261 19.0833 17.9167M16.75 17.9167C16.75 17.6072 16.8729 17.3105 17.0917 17.0917C17.3105 16.8729 17.6072 16.75 17.9167 16.75C18.2261 16.75 18.5228 16.8729 18.7416 17.0917C18.9604 17.3105 19.0833 17.6072 19.0833 17.9167M19.0833 17.9167H20.25V15.5833C20.25 15.2739 20.1271 14.9772 19.9083 14.7584C19.6895 14.5396 19.3928 14.4167 19.0833 14.4167H18.5M9.75 14.4167L10.9167 11.5H16.1667L18.5 14.4167M9.75 14.4167H18.5M15 14.4167V11.5" stroke="white" stroke-linecap="round" stroke-linejoin="round"/>
</svg>
