<svg width="58" height="16" viewBox="0 0 58 16" fill="none" xmlns="http://www.w3.org/2000/svg">
<path d="M21.2156 6.93697C21.2156 3.11546 16.4667 0 10.6081 0C4.75013 0 0.0011938 3.11546 0.0011938 6.93697C0.0011938 7.03605 0 7.3088 0 7.34342C0 11.3977 4.15085 14.6815 10.6069 14.6815C17.103 14.6815 21.2156 11.3989 21.2156 7.34401C21.2156 7.20256 21.2156 7.1208 21.2156 6.93697Z" fill="#0A0080"/>
<path d="M20.8101 6.93472C20.8101 10.5378 16.2438 13.4587 10.6109 13.4587C4.97791 13.4587 0.411621 10.5378 0.411621 6.93472C0.411621 3.33105 4.97791 0.410156 10.6109 0.410156C16.2438 0.410156 20.8101 3.33105 20.8101 6.93472Z" fill="#00BCFF"/>
<path d="M7.22338 4.87665C7.21801 4.8868 7.11653 4.99245 7.18219 5.07661C7.34335 5.28254 7.84057 5.40013 8.34316 5.28732C8.64221 5.22046 9.02602 4.91545 9.39789 4.61998C9.8002 4.30004 10.2001 3.9801 10.6018 3.85237C11.0268 3.71687 11.2996 3.77537 11.4799 3.82968C11.6775 3.88818 11.9096 4.01831 12.2803 4.29646C12.9781 4.82114 15.7841 7.27082 16.2688 7.69402C16.6598 7.51734 18.395 6.77061 20.7533 6.25071C20.5486 4.99364 19.7834 3.84282 18.6236 2.90091C17.0072 3.58018 15.0314 3.93474 13.0999 2.99104C13.0897 2.98686 12.0439 2.49203 11.0131 2.5165C9.47966 2.55172 8.81591 3.21547 8.11336 3.91743L7.22338 4.87665Z" fill="white"/>
<path d="M16.1552 7.9584C16.1224 7.92916 12.8556 5.0706 12.116 4.51488C11.6874 4.19375 11.4493 4.11138 11.1992 4.07974C11.069 4.06243 10.8888 4.08691 10.7634 4.12153C10.419 4.21524 9.96896 4.51608 9.56904 4.83303C9.15539 5.16252 8.76501 5.47291 8.40329 5.55409C7.94069 5.65795 7.37603 5.53499 7.11816 5.36129C7.01371 5.29086 6.94029 5.20968 6.90507 5.1273C6.80957 4.90645 6.98506 4.72977 7.0143 4.70052L7.91562 3.72519C8.02068 3.62073 8.12573 3.51627 8.23377 3.41301C7.94308 3.45121 7.67388 3.52522 7.41244 3.59805C7.08593 3.68997 6.77196 3.77712 6.45381 3.77712C6.3213 3.77712 5.61039 3.66072 5.47549 3.62371C4.65953 3.40047 3.94325 3.1832 2.8742 2.68359C1.59266 3.63804 0.735507 4.83065 0.487793 6.14442C0.672235 6.19337 0.968895 6.28171 1.09365 6.30917C3.99339 6.95382 4.8965 7.61817 5.06065 7.75725C5.23793 7.55967 5.494 7.43492 5.77991 7.43492C6.10045 7.43552 6.38995 7.59609 6.56543 7.84559C6.73137 7.71427 6.96058 7.60265 7.25665 7.60265C7.39095 7.60265 7.53062 7.62772 7.67149 7.67547C7.99859 7.78769 8.16752 8.00556 8.25526 8.20254C8.36509 8.15299 8.49999 8.11658 8.65876 8.11718C8.81515 8.11718 8.97751 8.1524 9.14106 8.22343C9.67588 8.45264 9.75885 8.97791 9.7105 9.37366C9.7487 9.36948 9.78691 9.36769 9.8257 9.36769C10.4596 9.36828 10.9753 9.88341 10.9753 10.5179C10.9753 10.7143 10.9252 10.8987 10.8375 11.0605C11.01 11.1578 11.4499 11.3769 11.8361 11.3279C12.1447 11.2891 12.2617 11.1835 12.3034 11.1244C12.3321 11.0838 12.3625 11.036 12.3345 11.002L11.5161 10.0929C11.5161 10.0929 11.3812 9.96518 11.426 9.91624C11.472 9.8655 11.5555 9.93832 11.614 9.98727C12.0307 10.3353 12.5392 10.8599 12.5392 10.8599C12.5476 10.8659 12.5816 10.9322 12.7696 10.9662C12.9314 10.9948 13.2179 10.9781 13.4161 10.8152C13.4662 10.774 13.5163 10.7227 13.5581 10.6695C13.5551 10.6719 13.5522 10.6761 13.5492 10.6773C13.7581 10.4093 13.5259 10.1383 13.5259 10.1383L12.5703 9.06565C12.5703 9.06565 12.4342 8.93911 12.4801 8.88838C12.5219 8.8442 12.6096 8.91106 12.6699 8.9606C12.972 9.21369 13.3993 9.64226 13.8094 10.0434C13.8888 10.1025 14.2493 10.3251 14.7257 10.0117C15.0152 9.82193 15.0731 9.58914 15.0647 9.41305C15.045 9.18026 14.8629 9.01432 14.8629 9.01432L13.5581 7.70233C13.5581 7.70233 13.4202 7.58474 13.4692 7.52505C13.5092 7.47491 13.5987 7.54714 13.6572 7.59609C14.0727 7.94408 15.1984 8.97612 15.1984 8.97612C15.2145 8.98746 15.6031 9.26442 16.0836 8.95821C16.2555 8.84838 16.3653 8.68304 16.3749 8.49024C16.391 8.15658 16.1552 7.9584 16.1552 7.9584Z" fill="white"/>
<path d="M9.82734 9.62417C9.62499 9.62178 9.40354 9.74176 9.37489 9.72445C9.35877 9.71371 9.38683 9.63253 9.40593 9.58537C9.42563 9.53881 9.69184 8.73718 9.04242 8.45842C8.5452 8.24533 8.24137 8.48528 8.13692 8.59392C8.10946 8.62257 8.09752 8.62018 8.09394 8.58377C8.08439 8.43932 8.01933 8.04895 7.59075 7.91763C6.97774 7.7302 6.58319 8.15818 6.48291 8.31278C6.43814 7.963 6.14327 7.692 5.78095 7.69141C5.38759 7.69141 5.06885 8.00955 5.06885 8.40291C5.06825 8.79567 5.387 9.11442 5.78035 9.11442C5.97136 9.11501 6.14446 9.03861 6.2722 8.91625C6.27638 8.91983 6.27817 8.92639 6.27578 8.94012C6.24594 9.11561 6.19102 9.75549 6.86074 10.0163C7.12935 10.1202 7.35796 10.0426 7.54718 9.91009C7.60329 9.87009 7.61284 9.88681 7.60448 9.93993C7.58061 10.1047 7.61105 10.4568 8.10528 10.6568C8.48073 10.8096 8.70338 10.6532 8.84902 10.5189C8.91229 10.461 8.9296 10.47 8.93259 10.5595C8.95049 11.0358 9.34624 11.4137 9.82615 11.4143C10.321 11.4143 10.7221 11.0144 10.7221 10.5201C10.7227 10.0253 10.3222 9.62954 9.82734 9.62417Z" fill="white"/>
<path d="M9.82507 11.3485C9.37679 11.3479 9.01209 10.9993 8.99537 10.5559C8.99478 10.5177 8.9906 10.4162 8.90524 10.4162C8.86943 10.4162 8.83899 10.4377 8.80377 10.4694C8.70528 10.5607 8.57993 10.6538 8.39668 10.6538C8.31312 10.6538 8.22299 10.6341 8.12808 10.5953C7.65414 10.4037 7.64757 10.0784 7.66667 9.94772C7.67205 9.91251 7.67384 9.8761 7.64996 9.84805L7.62071 9.82239H7.59146C7.56759 9.82239 7.54252 9.83194 7.50909 9.85581C7.3718 9.9519 7.24049 9.99845 7.10678 9.99845C7.03336 9.99845 6.95815 9.98353 6.88235 9.95429C6.25918 9.71197 6.30872 9.1235 6.33917 8.94684C6.34335 8.91043 6.33439 8.88298 6.31171 8.86447L6.26754 8.82807L6.22635 8.86746C6.10518 8.98444 5.94581 9.04889 5.77927 9.04889C5.42173 9.0483 5.13104 8.75824 5.13164 8.40133C5.13164 8.04383 5.42292 7.75437 5.77987 7.75437C6.10279 7.75437 6.37737 7.99728 6.41855 8.31957L6.44064 8.49324L6.53614 8.34642C6.54689 8.32912 6.80833 7.93342 7.28943 7.93401C7.38076 7.93401 7.47507 7.94834 7.57057 7.97818C7.95378 8.09516 8.01885 8.44251 8.02899 8.58754C8.03556 8.6717 8.09585 8.67588 8.10778 8.67588C8.14061 8.67588 8.16509 8.65499 8.1824 8.63648C8.25462 8.56128 8.4122 8.43595 8.65872 8.43595C8.77154 8.43595 8.89211 8.46281 9.01567 8.51592C9.6251 8.77734 9.34874 9.55143 9.34575 9.55978C9.29323 9.6881 9.29084 9.7448 9.34038 9.77763L9.36426 9.78897H9.38217C9.40962 9.78897 9.44365 9.77703 9.49975 9.75793C9.58272 9.72928 9.70807 9.68631 9.82507 9.68631H9.82566C10.2841 9.69168 10.6571 10.0647 10.6571 10.5183C10.6565 10.9761 10.2835 11.3485 9.82507 11.3485ZM16.2811 7.6171C15.2748 6.73916 12.9492 4.71769 12.3195 4.2444C11.9596 3.97404 11.7143 3.8308 11.4988 3.76693C11.4021 3.73769 11.2678 3.70427 11.0953 3.70427C10.9353 3.70427 10.7634 3.73292 10.5837 3.79021C10.1766 3.91913 9.77135 4.24142 9.37858 4.55296L9.35829 4.56908C8.99299 4.85973 8.61575 5.15994 8.32983 5.2238C8.20508 5.25185 8.07674 5.26618 7.94901 5.26618C7.62847 5.26618 7.34136 5.17367 7.23332 5.0364C7.21542 5.01312 7.22676 4.97671 7.26854 4.92359L7.27451 4.91643L8.15971 3.9627C8.85272 3.26918 9.50751 2.61505 11.0153 2.58043C11.0398 2.57984 11.0654 2.57924 11.0905 2.57924C12.0288 2.57984 12.9666 3.00001 13.0716 3.04835C13.9514 3.47747 14.8599 3.69531 15.7726 3.69591C16.724 3.69651 17.7059 3.46076 18.738 2.98568C18.6228 2.889 18.5028 2.7947 18.3792 2.70219C17.4726 3.0949 16.6088 3.29365 15.7756 3.29365C14.9238 3.29245 14.0738 3.08834 13.2477 2.68548C13.2041 2.66459 12.1685 2.17638 11.0905 2.17578C11.0624 2.17578 11.0338 2.17638 11.0057 2.17697C9.73971 2.20622 9.02641 2.65623 8.5465 3.05014C8.08033 3.06148 7.67742 3.17368 7.31987 3.27395C6.99994 3.36228 6.72417 3.43927 6.45497 3.43927C6.34394 3.43927 6.14458 3.42913 6.12667 3.42853C5.81748 3.41898 4.25777 3.03701 3.01742 2.5673C2.89087 2.65683 2.7691 2.74934 2.65032 2.84364C3.94619 3.37482 5.5232 3.78544 6.02102 3.81767C6.1595 3.82721 6.30693 3.84273 6.45437 3.84273C6.78386 3.84273 7.11215 3.75082 7.4303 3.66189C7.61773 3.60877 7.82485 3.55148 8.04332 3.5097C7.98482 3.567 7.92692 3.62489 7.86843 3.68278L6.96949 4.65562C6.89846 4.72724 6.74446 4.91822 6.84594 5.15278C6.88652 5.24767 6.9683 5.33839 7.0829 5.41538C7.2966 5.55982 7.6804 5.6571 8.03735 5.6577C8.17225 5.6577 8.30058 5.64397 8.41817 5.61771C8.79482 5.53296 9.19056 5.21783 9.60958 4.8848C9.94325 4.61981 10.4172 4.28319 10.7807 4.18412C10.8822 4.15667 11.0069 4.13936 11.1066 4.13936C11.1365 4.13995 11.1651 4.14055 11.1914 4.14473C11.4313 4.17457 11.6629 4.25634 12.0772 4.56729C12.8155 5.12174 16.0824 7.97937 16.1146 8.00802C16.1164 8.00981 16.3247 8.18886 16.3104 8.48787C16.3026 8.65439 16.2101 8.8024 16.0495 8.90506C15.9099 8.99339 15.766 9.03815 15.621 9.03815C15.4025 9.03815 15.2521 8.9355 15.2419 8.92893C15.23 8.91879 14.1108 7.89283 13.699 7.54786C13.6333 7.49355 13.5694 7.44461 13.505 7.44461C13.4709 7.44461 13.4405 7.45894 13.4196 7.4852C13.3551 7.56517 13.4274 7.67558 13.5133 7.7484L14.8205 9.06203C14.8223 9.06382 14.9835 9.21481 15.0008 9.41654C15.0115 9.63439 14.9071 9.81642 14.6904 9.95847C14.5364 10.0599 14.38 10.1119 14.2272 10.1119C14.0266 10.1119 13.8852 10.0199 13.8541 9.99845L13.6667 9.81344C13.3241 9.47623 12.9701 9.12768 12.7111 8.91162C12.6478 8.8591 12.5804 8.81076 12.5159 8.81076C12.4843 8.81076 12.4556 8.8221 12.4335 8.84538C12.4043 8.8782 12.3834 8.93729 12.4574 9.03517C12.4872 9.07516 12.5231 9.10858 12.5231 9.10858L13.4775 10.1805C13.4853 10.19 13.6739 10.4144 13.499 10.6377L13.465 10.68C13.4369 10.7117 13.4059 10.7409 13.3766 10.766C13.2137 10.8997 12.9964 10.914 12.9104 10.914C12.8645 10.914 12.8197 10.9098 12.7815 10.9027C12.6872 10.8859 12.6239 10.8597 12.5929 10.8233L12.5816 10.8113C12.5296 10.7576 12.0485 10.2664 11.6504 9.93459C11.5985 9.89043 11.5328 9.83492 11.4653 9.83492C11.4319 9.83492 11.4021 9.84805 11.3788 9.87372C11.3 9.95966 11.4182 10.0886 11.4683 10.1363L12.2825 11.0334C12.2813 11.0411 12.2712 11.0596 12.2515 11.0883C12.2222 11.1283 12.1237 11.2273 11.8283 11.2643C11.793 11.2691 11.7566 11.2709 11.7202 11.2709C11.4158 11.2709 11.0911 11.1229 10.924 11.0346C11.0004 10.8734 11.0398 10.6961 11.0398 10.5189C11.0398 9.84865 10.496 9.30374 9.82626 9.30374C9.81193 9.30374 9.79701 9.30374 9.78269 9.30434C9.80417 8.99876 9.7612 8.41983 9.16669 8.16499C8.99537 8.09098 8.82466 8.05338 8.65932 8.05338C8.52919 8.05338 8.40444 8.07546 8.28745 8.12022C8.16389 7.8809 7.95975 7.70662 7.69294 7.6159C7.5455 7.56517 7.39867 7.53891 7.2572 7.53891C7.00949 7.53891 6.78207 7.61172 6.57852 7.75616C6.38393 7.51444 6.08966 7.3706 5.77987 7.3706C5.50888 7.3706 5.24803 7.47923 5.05523 7.67081C4.80155 7.47744 3.79697 6.83883 1.10733 6.22827C0.977209 6.19902 0.678759 6.11308 0.49551 6.05996C0.465068 6.20499 0.441789 6.35241 0.42627 6.50102C0.42627 6.50102 0.922294 6.61979 1.02019 6.64187C3.76772 7.25183 4.67501 7.88627 4.82901 8.00623C4.77648 8.13097 4.74962 8.26525 4.74962 8.40133C4.74902 8.96832 5.21102 9.43087 5.77868 9.43146C5.84255 9.43146 5.90582 9.4255 5.9673 9.41416C6.05325 9.83194 6.32663 10.1489 6.74387 10.3112C6.86623 10.3577 6.98979 10.3822 7.11096 10.3822C7.18915 10.3822 7.26854 10.3727 7.34554 10.353C7.42254 10.5487 7.59624 10.7928 7.98422 10.9504C8.12032 11.0053 8.25641 11.034 8.38833 11.034C8.49637 11.034 8.60202 11.0149 8.70289 10.9779C8.88853 11.4309 9.33143 11.7305 9.82447 11.7305C10.1516 11.7311 10.4655 11.598 10.6948 11.3622C10.8905 11.4714 11.3042 11.6684 11.722 11.669C11.7763 11.669 11.8271 11.6648 11.8778 11.6588C12.2933 11.6069 12.486 11.444 12.575 11.318C12.5911 11.296 12.6054 11.2727 12.618 11.2482C12.7159 11.2769 12.8233 11.2995 12.9469 11.3001C13.1737 11.3001 13.3915 11.2226 13.6112 11.062C13.8273 10.9068 13.9807 10.683 14.0028 10.4926C14.0034 10.4896 14.004 10.4873 14.0046 10.4843C14.0768 10.4992 14.152 10.507 14.2266 10.507C14.46 10.507 14.6892 10.4341 14.9089 10.2903C15.3321 10.0134 15.4055 9.6511 15.3989 9.41356C15.4723 9.42908 15.5481 9.43684 15.6234 9.43684C15.8424 9.43684 16.0579 9.37118 16.2626 9.24048C16.5253 9.07277 16.6829 8.81613 16.7067 8.51712C16.7234 8.3142 16.6733 8.10948 16.5659 7.93342C17.275 7.62784 18.8956 7.03698 20.8039 6.60666C20.7925 6.45865 20.771 6.31242 20.7448 6.16679C18.436 6.67947 16.7127 7.42492 16.2811 7.6171Z" fill="#0A0080"/>
<path d="M56.4117 5.26845C56.226 5.51497 55.9604 5.63793 55.613 5.63793C55.2662 5.63793 54.9988 5.51497 54.812 5.26845C54.6245 5.02193 54.5314 4.67095 54.5314 4.21671C54.5314 3.76247 54.6245 3.41268 54.812 3.16736C54.9988 2.92263 55.2662 2.79967 55.613 2.79967C55.9604 2.79967 56.226 2.92263 56.4117 3.16736C56.5973 3.41268 56.691 3.76247 56.691 4.21671C56.691 4.67095 56.5973 5.02193 56.4117 5.26845ZM57.3607 2.51614C56.9775 2.03683 56.3967 1.79688 55.6166 1.79688C54.8376 1.79688 54.2563 2.03683 53.8736 2.51614C53.4904 2.99605 53.2988 3.56251 53.2988 4.21671C53.2988 4.88225 53.4904 5.4511 53.8736 5.92444C54.2563 6.39599 54.8376 6.63296 55.6166 6.63296C56.3967 6.63296 56.9775 6.39599 57.3607 5.92444C57.7439 5.4511 57.935 4.88225 57.935 4.21671C57.935 3.56251 57.7439 2.99605 57.3607 2.51614Z" fill="#0A0080"/>
<path d="M46.9724 4.70931C46.9647 5.10744 46.8507 5.38202 46.6316 5.53184C46.4125 5.68226 46.1732 5.75807 45.9135 5.75807C45.7494 5.75807 45.6103 5.7121 45.4957 5.62197C45.3811 5.53124 45.3244 5.38441 45.3244 5.18086C45.3244 4.95344 45.4175 4.78512 45.6049 4.67588C45.7166 4.61261 45.898 4.5577 46.1523 4.51412L46.4233 4.46399C46.5582 4.43832 46.6644 4.41086 46.742 4.38161C46.8208 4.35296 46.8966 4.31476 46.9724 4.26701V4.70931ZM47.5759 2.11638C47.1873 1.91999 46.7432 1.82031 46.243 1.82031C45.4742 1.82031 44.9316 2.02087 44.6159 2.42139C44.4171 2.67806 44.3061 3.00456 44.2798 3.4027H45.4282C45.4569 3.22721 45.513 3.08813 45.5978 2.98546C45.7166 2.84638 45.9177 2.77655 46.2024 2.77655C46.4567 2.77655 46.6495 2.81117 46.7808 2.88339C46.9115 2.95383 46.9772 3.08276 46.9772 3.26899C46.9772 3.42239 46.8924 3.53461 46.7205 3.60743C46.625 3.64922 46.4669 3.68384 46.2448 3.71189L45.8377 3.76203C45.3757 3.81993 45.0241 3.91782 44.7866 4.05451C44.3514 4.30521 44.1348 4.70931 44.1348 5.2692C44.1348 5.70017 44.2691 6.03383 44.5395 6.26901C44.8093 6.50419 45.1525 6.60268 45.5667 6.62238C48.1638 6.73818 48.1346 5.25368 48.1585 4.94449V3.23556C48.1585 2.68761 47.9639 2.31455 47.5759 2.11638Z" fill="#0A0080"/>
<path d="M41.6517 2.83873C41.949 2.83873 42.1669 2.93065 42.3077 3.1139C42.4044 3.2494 42.4647 3.4028 42.488 3.57232H43.7695C43.6991 2.92588 43.4729 2.47462 43.0909 2.21855C42.7077 1.96427 42.2176 1.83594 41.6177 1.83594C40.9116 1.83594 40.3577 2.05261 39.9571 2.48537C39.556 2.91872 39.3555 3.52397 39.3555 4.30233C39.3555 4.99115 39.5369 5.55284 39.8998 5.98619C40.2628 6.41834 40.8292 6.63502 41.5992 6.63502C42.3698 6.63502 42.9512 6.37596 43.3434 5.85666C43.5887 5.53493 43.7266 5.1935 43.7558 4.83298H42.479C42.4528 5.07114 42.3782 5.26573 42.2546 5.41555C42.1317 5.56478 41.9239 5.63998 41.6303 5.63998C41.2172 5.63998 40.9355 5.45196 40.7856 5.07353C40.7039 4.87237 40.6627 4.60556 40.6627 4.27308C40.6627 3.92449 40.7039 3.64514 40.7856 3.43444C40.9414 3.0381 41.2303 2.83873 41.6517 2.83873Z" fill="#0A0080"/>
<path d="M39.0128 1.83594C36.3811 1.83594 36.5369 4.16624 36.5369 4.16624V6.53295H37.7307V4.31307C37.7307 3.94956 37.7767 3.67976 37.868 3.50487C38.0315 3.19448 38.3521 3.03869 38.8296 3.03869C38.8654 3.03869 38.9126 3.04048 38.9711 3.04347C39.029 3.04586 39.0952 3.05123 39.171 3.06018V1.84489C39.1179 1.84131 39.0839 1.84012 39.069 1.83833C39.0534 1.83713 39.0349 1.83594 39.0128 1.83594Z" fill="#0A0080"/>
<path d="M33.0205 3.07272C33.1888 2.90021 33.4246 2.81366 33.7284 2.81366C34.0089 2.81366 34.2429 2.89484 34.4321 3.05839C34.6208 3.22075 34.7264 3.4601 34.7479 3.77467H32.7047C32.7471 3.4792 32.8527 3.24582 33.0205 3.07272ZM34.6255 5.29617C34.5754 5.3678 34.5217 5.42928 34.462 5.47703C34.2937 5.61611 34.0645 5.65789 33.7947 5.65789C33.5392 5.65789 33.3398 5.61909 33.159 5.50509C32.8611 5.32243 32.6934 5.01264 32.6755 4.55721H35.9799C35.9847 4.16564 35.9715 3.866 35.9399 3.65708C35.885 3.30193 35.7644 2.98855 35.5788 2.71935C35.3729 2.41374 35.1108 2.1899 34.7945 2.04784C34.4787 1.90637 34.1235 1.83594 33.7284 1.83594C33.0629 1.83594 32.5227 2.04545 32.106 2.46447C31.6894 2.88409 31.4805 3.48637 31.4805 4.27189C31.4805 5.11113 31.7115 5.71639 32.1735 6.08826C32.6349 6.46013 33.1679 6.64696 33.7714 6.64696C34.5026 6.64696 35.0714 6.4261 35.4779 5.98499C35.697 5.7528 35.8343 5.52299 35.8922 5.29617H34.6255Z" fill="#0A0080"/>
<path d="M31.0026 6.53284H29.9115V3.78591C29.9115 3.53521 29.8291 2.93831 29.1093 2.93831C28.6294 2.93831 28.2826 3.28451 28.2826 3.78591V6.53284H27.1908V3.78591C27.1908 3.53521 27.1162 2.93831 26.397 2.93831C25.9087 2.93831 25.5696 3.28451 25.5696 3.78591V6.53284H24.4785V3.81217C24.4785 2.67806 25.2306 1.82031 26.397 1.82031C26.9759 1.82031 27.4469 2.06385 27.7531 2.45362C28.0754 2.06385 28.5547 1.82031 29.1093 1.82031C30.3001 1.82031 31.0026 2.64344 31.0026 3.81217V6.53284Z" fill="#0A0080"/>
<path d="M51.5109 5.27865C51.3366 5.52875 51.0806 5.6535 50.7451 5.6535C50.409 5.6535 50.1589 5.52756 49.9942 5.27686C49.8295 5.02497 49.7471 4.65967 49.7471 4.24064C49.7471 3.85206 49.8277 3.52675 49.99 3.26471C50.1518 3.00267 50.4061 2.87135 50.7535 2.87135C50.9809 2.87135 51.1808 2.94298 51.3533 3.08743C51.6333 3.32619 51.7736 3.75417 51.7736 4.30928C51.7736 4.70563 51.6858 5.02915 51.5109 5.27865ZM52.9435 0.400183C52.9435 0.400183 51.7401 0.271849 51.7401 1.23823L51.7395 2.51739C51.6064 2.3037 51.4333 2.13597 51.2196 2.01599C51.0065 1.89542 50.7624 1.83454 50.4866 1.83454C49.8903 1.83454 49.4146 2.05658 49.0577 2.50068C48.7007 2.94477 48.5234 3.58465 48.5234 4.35883C48.5234 5.03034 48.7043 5.58068 49.066 6.00985C49.4283 6.43783 50.1387 6.62586 50.769 6.62586C52.968 6.62586 52.9423 4.73965 52.9423 4.73965L52.9435 0.400183Z" fill="#0A0080"/>
<path d="M27.6737 10.8777C27.6737 10.4277 27.586 10.0815 27.4099 9.83853C27.2344 9.59679 26.9831 9.47442 26.6548 9.47442C26.3397 9.47442 26.0931 9.59679 25.917 9.83853C25.7541 10.0582 25.6723 10.4056 25.6723 10.8777C25.6723 11.3182 25.7595 11.6459 25.9356 11.8656C26.1104 12.1085 26.3629 12.2297 26.69 12.2297C26.9945 12.2297 27.2344 12.1085 27.4099 11.8656C27.586 11.6233 27.6737 11.295 27.6737 10.8777ZM25.6723 14.1094C25.6723 14.2705 25.6138 14.4096 25.4956 14.5248C25.3792 14.6406 25.239 14.6985 25.0748 14.6985H24.4785V10.5482C24.4785 9.74124 24.7501 9.23626 25.1978 8.89423C25.4938 8.66861 25.9344 8.45312 26.7605 8.45312C27.318 8.45312 27.971 8.6698 28.3237 9.09957C28.7195 9.58306 28.8842 10.1221 28.8842 10.8258C28.8842 11.554 28.7088 12.1414 28.3584 12.5932C28.0074 13.0325 27.5561 13.251 27.0058 13.251C26.7133 13.251 26.456 13.1991 26.234 13.0958C25.9988 12.98 25.8126 12.8009 25.6723 12.558V14.1094Z" fill="#0A0080"/>
<path d="M34.8319 10.8797C34.8319 11.676 35.0623 12.1171 35.5219 12.2043C35.9809 12.2896 36.3205 12.1828 36.539 11.8831C36.6429 11.7572 36.7169 11.5572 36.7634 11.2868C36.8088 11.0158 36.8124 10.7472 36.7718 10.4822C36.7324 10.216 36.6369 9.97962 36.4871 9.7719C36.3384 9.56477 36.1194 9.46031 35.8323 9.46031C35.4413 9.46031 35.1775 9.60536 35.039 9.89247C34.9005 10.1814 34.8319 10.5103 34.8319 10.8797ZM36.7981 12.8698V12.5767C36.5915 12.9003 36.3116 13.1008 35.9612 13.182C35.6108 13.2626 35.2628 13.2339 34.919 13.0948C34.5734 12.957 34.2774 12.7003 34.0302 12.3254C33.7831 11.9494 33.6602 11.4564 33.6602 10.8445C33.6602 10.13 33.8237 9.54985 34.1508 9.10576C34.4785 8.66166 35.005 8.45872 35.729 8.43902C36.4423 8.41992 36.8572 8.58168 37.2636 8.88908C37.7077 9.22633 37.9704 9.74325 37.9704 10.5509V12.9922C37.9722 13.7687 37.4302 15.2085 35.729 15.0867C34.6749 15.0103 34.0899 14.5775 33.7634 13.598H35.0223C35.1142 13.7592 35.2545 13.8828 35.4449 13.9687C35.6335 14.0564 35.8245 14.0791 36.0125 14.0385C36.2024 13.998 36.3749 13.8851 36.5312 13.7013C36.6858 13.5169 36.7748 13.2393 36.7981 12.8698Z" fill="#0A0080"/>
<path d="M32.033 11.3617C32.0252 11.7598 31.9112 12.0338 31.6927 12.1842C31.4737 12.334 31.2343 12.4092 30.9747 12.4092C30.8099 12.4092 30.6709 12.3639 30.5568 12.2737C30.4422 12.1836 30.3849 12.0362 30.3849 11.8326C30.3849 11.6052 30.4786 11.4369 30.6661 11.3282C30.7777 11.2644 30.9592 11.2094 31.2128 11.1659L31.4838 11.1157C31.6193 11.0901 31.7256 11.0626 31.8026 11.0334C31.8814 11.0047 31.9572 10.9671 32.033 10.9194V11.3617ZM32.6364 8.76872C32.2479 8.57234 31.8038 8.47266 31.3042 8.47266C30.5348 8.47266 29.9928 8.67321 29.6764 9.07374C29.4782 9.32981 29.3666 9.65631 29.341 10.055H30.49C30.518 9.87895 30.5742 9.73988 30.6589 9.63721C30.7777 9.49813 30.9789 9.42889 31.263 9.42889C31.5184 9.42889 31.7107 9.46351 31.8414 9.53514C31.9721 9.60617 32.0384 9.7351 32.0384 9.92133C32.0384 10.0741 31.953 10.187 31.7817 10.2598C31.6868 10.3016 31.528 10.3362 31.306 10.3642L30.8989 10.4138C30.4369 10.4723 30.0853 10.5702 29.8477 10.7063C29.4126 10.957 29.1953 11.3617 29.1953 11.921C29.1953 12.3519 29.3302 12.6856 29.6006 12.9208C29.8704 13.1553 30.2136 13.255 30.6279 13.2741C33.2238 13.3899 33.1951 11.9048 33.219 11.5962V9.88731C33.219 9.33936 33.025 8.96689 32.6364 8.76872Z" fill="#0A0080"/>
<path d="M41.5373 11.8962C41.3516 12.1433 41.0854 12.2662 40.7386 12.2662C40.3912 12.2662 40.1238 12.1433 39.9376 11.8962C39.7495 11.6502 39.6564 11.2999 39.6564 10.8456C39.6564 10.3914 39.7495 10.0416 39.9376 9.79627C40.1238 9.55094 40.3912 9.42917 40.7386 9.42917C41.0854 9.42917 41.3516 9.55094 41.5373 9.79627C41.7229 10.0416 41.816 10.3914 41.816 10.8456C41.816 11.2999 41.7229 11.6502 41.5373 11.8962ZM42.4863 9.14505C42.1031 8.66514 41.5217 8.42578 40.7416 8.42578C39.9632 8.42578 39.3813 8.66514 38.9986 9.14505C38.6154 9.62436 38.4238 10.1908 38.4238 10.8456C38.4238 11.5112 38.6154 12.0794 38.9986 12.5528C39.3813 13.0243 39.9632 13.2613 40.7416 13.2613C41.5217 13.2613 42.1031 13.0243 42.4863 12.5528C42.8689 12.0794 43.0594 11.5112 43.0594 10.8456C43.0594 10.1908 42.8689 9.62436 42.4863 9.14505Z" fill="#0A0080"/>
</svg>
