<svg width="52" height="16" viewBox="0 0 52 16" fill="none" xmlns="http://www.w3.org/2000/svg">
<path d="M35.9275 2.58096H34.6102V0.473225C34.6102 0.220425 34.4022 0.015625 34.1454 0.015625C34.1151 0.015625 34.0858 0.0198917 34.0577 0.025225C32.5973 0.419892 32.8898 2.41136 30.2238 2.58096H29.9648C29.9258 2.58096 29.889 2.58629 29.8533 2.59376H29.8511L29.8533 2.59483C29.6258 2.64496 29.4546 2.84336 29.4546 3.08229V5.35003C29.4546 5.62629 29.6832 5.85136 29.9648 5.85136H31.3548L31.3526 15.4674C31.3526 15.7415 31.5779 15.9634 31.8563 15.9634H34.1335C34.4108 15.9634 34.6362 15.7415 34.6362 15.4674L34.6373 5.85136H35.9275C36.2081 5.85136 36.4367 5.62629 36.4367 5.35003V3.08229C36.4367 2.80603 36.2081 2.58096 35.9275 2.58096ZM51.5199 4.71963C51.0508 3.39909 49.7725 2.45083 48.271 2.45083H48.2396C47.2635 2.45083 46.3838 2.85083 45.7577 3.49296C45.1304 2.85083 44.2508 2.45083 43.2758 2.45083H43.2443C42.3863 2.45083 41.602 2.76016 40.9997 3.27216V3.01189C40.9791 2.75269 40.7624 2.54896 40.4948 2.54896H38.1917C37.91 2.54896 37.6825 2.77296 37.6825 3.05136V15.366C37.6825 15.6444 37.91 15.8684 38.1917 15.8684H40.4948C40.7516 15.8684 40.9628 15.6796 40.9964 15.4354L40.9953 6.59483C40.9953 6.56389 40.9964 6.53509 40.9997 6.50629C41.0365 6.11163 41.3301 5.78736 41.7938 5.74683H42.2184C42.4123 5.76389 42.5759 5.83109 42.7048 5.93243C42.9053 6.08923 43.0168 6.33029 43.0168 6.59483L43.0255 15.3916C43.0255 15.67 43.2541 15.8951 43.5347 15.8951H45.8378C46.1098 15.8951 46.3308 15.6818 46.3438 15.4162L46.3427 6.58309C46.3416 6.29296 46.4781 6.03056 46.7175 5.87483C46.8356 5.80016 46.9775 5.75003 47.1411 5.73509H47.5658C48.0641 5.77776 48.3653 6.15003 48.3642 6.58309L48.3728 15.3682C48.3728 15.6466 48.6014 15.8706 48.882 15.8706H51.1852C51.4658 15.8706 51.6943 15.6466 51.6943 15.3682V5.91963C51.6943 5.27536 51.6207 5.00123 51.5199 4.71963Z" fill="#54C1F0"/>
<path d="M27.641 2.58203H25.3378C25.0573 2.58203 24.8298 2.8071 24.8298 3.08336V7.77243C24.8243 8.06256 24.586 8.2951 24.2903 8.2951H23.3261C23.0271 8.2951 22.7855 8.0583 22.7855 7.7639L22.7768 3.08336C22.7768 2.8071 22.5483 2.58203 22.2677 2.58203H19.9645C19.6828 2.58203 19.4553 2.8071 19.4553 3.08336V8.22257C19.4553 10.1746 20.8691 11.5666 22.8527 11.5666C22.8527 11.5666 24.3412 11.5666 24.3867 11.5751C24.6553 11.605 24.8644 11.8268 24.8644 12.0999C24.8644 12.3698 24.6597 12.5906 24.3943 12.6236C24.3813 12.6258 24.3693 12.629 24.3553 12.6311L20.9872 12.6428C20.7055 12.6428 20.478 12.8679 20.478 13.1442V15.4108C20.478 15.6882 20.7055 15.9122 20.9872 15.9122H24.7528C26.7375 15.9122 28.1502 14.5212 28.1502 12.5682V3.08336C28.1502 2.8071 27.9227 2.58203 27.641 2.58203ZM5.55076 2.58203H0.516507C0.240257 2.58203 0.0170898 2.80283 0.0170898 3.07376V5.29563C0.0170898 5.2999 0.0181732 5.30416 0.0181732 5.30843C0.0181732 5.3191 0.0170898 5.32976 0.0170898 5.33936V15.3959C0.0170898 15.669 0.22509 15.8919 0.482923 15.8983H2.82942C3.11001 15.8983 3.33859 15.6743 3.33859 15.397L3.34726 11.9506H5.55076C7.39459 11.9506 8.67942 10.6908 8.67942 8.8679V5.66896C8.67942 3.84603 7.39459 2.58203 5.55076 2.58203ZM14.5381 2.59483H11.3423C11.0595 2.59483 10.8309 2.80603 10.8309 3.06523V3.94736C10.8309 3.9527 10.832 3.9591 10.832 3.96443C10.832 3.97083 10.8309 3.97723 10.8309 3.98363V5.19216C10.8309 5.4663 11.0736 5.6903 11.3726 5.6903H14.4157C14.6562 5.72763 14.8468 5.90043 14.8739 6.1703V6.46256C14.8468 6.71963 14.6583 6.90736 14.4287 6.9287H12.9218C10.9176 6.9287 9.48976 8.23963 9.48976 10.0807V12.7175C9.48976 14.5479 10.7172 15.8503 12.7073 15.8503H16.8835C17.6332 15.8503 18.2409 15.2914 18.2409 14.6034V5.99856C18.2409 3.91216 17.1489 2.59483 14.5381 2.59483ZM14.9043 10.4775V12.4156C14.9043 12.4444 14.8999 12.4722 14.8956 12.4988C14.8902 12.5244 14.8826 12.549 14.8739 12.5724C14.8024 12.7708 14.6009 12.9148 14.3615 12.9148H13.4028C13.1038 12.9148 12.86 12.6908 12.86 12.4156V11.9879C12.86 11.9826 12.8589 11.9772 12.8589 11.9719L12.86 10.4775L12.8611 10.4743C12.8622 10.2002 13.1038 9.9783 13.4028 9.9783H14.3615C14.6616 9.9783 14.9043 10.2012 14.9043 10.4775ZM5.34817 6.3975V8.13723C5.34817 8.43056 5.10659 8.6695 4.80867 8.6695L3.34726 8.67057V5.8663H4.80867C5.10659 5.8663 5.34817 6.1031 5.34817 6.3975Z" fill="#233266"/>
</svg>
