<svg width="57" height="15" viewBox="0 0 57 15" fill="none" xmlns="http://www.w3.org/2000/svg">
<path fill-rule="evenodd" clip-rule="evenodd" d="M6.75503 0H2.37661C2.07699 0 1.82217 0.217742 1.77545 0.513397L0.00459307 11.74C-0.0306042 11.9616 0.140969 12.1613 0.365692 12.1613H2.45599C2.75561 12.1613 3.01043 11.9435 3.05715 11.6473L3.53478 8.61934C3.58085 8.32279 3.83629 8.10534 4.13529 8.10534H5.52135C8.40556 8.10534 10.07 6.70972 10.505 3.94425C10.7008 2.73437 10.5132 1.78371 9.94648 1.11774C9.3243 0.386898 8.22039 0 6.75503 0ZM7.26017 4.10037C7.02078 5.67137 5.82034 5.67137 4.65964 5.67137H3.99892L4.46244 2.73733C4.48996 2.56017 4.64361 2.42953 4.82288 2.42953H5.1257C5.91637 2.42953 6.66229 2.42953 7.04775 2.88012C7.27736 3.14911 7.34787 3.54846 7.26017 4.10037ZM19.8432 4.05001H17.7465C17.5678 4.05001 17.4134 4.18065 17.3859 4.3581L17.2932 4.94438L17.1465 4.73197C16.6926 4.07311 15.6805 3.853 14.6703 3.853C12.3531 3.853 10.3743 5.60768 9.98885 8.0692C9.78857 9.29686 10.0733 10.4709 10.7698 11.2897C11.4089 12.0425 12.3232 12.3562 13.4108 12.3562C15.2776 12.3562 16.3131 11.1558 16.3131 11.1558L16.2195 11.7385C16.1842 11.9613 16.3558 12.161 16.5791 12.161H18.4679C18.7683 12.161 19.0216 11.9432 19.069 11.647L20.2023 4.47127C20.2381 4.25057 20.0672 4.05001 19.8432 4.05001ZM16.9204 8.13052C16.7181 9.32825 15.7674 10.1323 14.555 10.1323C13.9462 10.1323 13.4594 9.93705 13.1471 9.56703C12.8372 9.19969 12.7193 8.67651 12.818 8.09409C13.007 6.90643 13.9737 6.07634 15.1677 6.07634C15.7629 6.07634 16.247 6.27394 16.5658 6.64721C16.8852 7.02433 17.012 7.55047 16.9204 8.13052ZM28.9029 4.04971H31.01C31.3051 4.04971 31.4772 4.38062 31.3095 4.62265L24.3018 14.7372C24.1883 14.901 24.0014 14.9984 23.8017 14.9984H21.6973C21.401 14.9984 21.228 14.6649 21.3995 14.4222L23.5816 11.3424L21.2608 4.5323C21.1806 4.29559 21.3554 4.04971 21.6072 4.04971H23.6775C23.9466 4.04971 24.1839 4.22627 24.2615 4.48371L25.4931 8.59682L28.3993 4.31663C28.513 4.14955 28.702 4.04971 28.9029 4.04971Z" fill="#253B80"/>
<path fill-rule="evenodd" clip-rule="evenodd" d="M51.8918 12.7406L53.6887 1.30869C53.7162 1.13124 53.87 1.00059 54.0486 1H56.0716C56.295 1 56.4665 1.20026 56.4313 1.42186L54.6593 12.6479C54.613 12.9441 54.3582 13.1619 54.0581 13.1619H52.2514C52.0281 13.1619 51.8565 12.9622 51.8918 12.7406ZM38.1302 1.00059H33.751C33.452 1.00059 33.1972 1.21833 33.1504 1.51399L31.3796 12.7406C31.3444 12.9622 31.5159 13.1619 31.7396 13.1619H33.9865C34.1954 13.1619 34.374 13.0096 34.4066 12.8022L34.9091 9.61993C34.9553 9.32338 35.2107 9.10594 35.5097 9.10594H36.895C39.7798 9.10594 41.444 7.71031 41.8792 4.94484C42.0757 3.73496 41.8869 2.7843 41.3205 2.11833C40.6986 1.38749 39.5956 1.00059 38.1302 1.00059ZM38.6353 5.10096C38.3965 6.67196 37.196 6.67196 36.0346 6.67196H35.3745L35.8388 3.73792C35.8664 3.56077 36.0186 3.43012 36.1985 3.43012H36.5013C37.2914 3.43012 38.038 3.43012 38.4232 3.88071C38.6531 4.14971 38.723 4.54905 38.6353 5.10096ZM51.2172 5.0506H49.1219C48.9418 5.0506 48.7889 5.18124 48.7619 5.3587L48.6692 5.94497L48.522 5.73256C48.0681 5.07371 47.0566 4.85359 46.0463 4.85359C43.7292 4.85359 41.7509 6.60827 41.3655 9.0698C41.1658 10.2974 41.4493 11.4715 42.1459 12.2903C42.7861 13.0431 43.6992 13.3568 44.7868 13.3568C46.6537 13.3568 47.6888 12.1564 47.6888 12.1564L47.5955 12.7391C47.5603 12.9619 47.7318 13.1616 47.9567 13.1616H49.8445C50.1435 13.1616 50.3983 12.9438 50.4451 12.6476L51.5789 5.47186C51.6136 5.25116 51.442 5.0506 51.2172 5.0506ZM48.2947 9.13112C48.0935 10.3288 47.1416 11.1329 45.929 11.1329C45.3213 11.1329 44.8337 10.9376 44.5211 10.5676C44.2112 10.2003 44.0948 9.6771 44.1922 9.09468C44.3821 7.90702 45.3477 7.07693 46.5417 7.07693C47.1372 7.07693 47.621 7.27453 47.9401 7.6478C48.2607 8.02493 48.3875 8.55106 48.2947 9.13112Z" fill="#179BD7"/>
</svg>
