<svg width="51" height="26" viewBox="0 0 51 26" fill="none" xmlns="http://www.w3.org/2000/svg">
<path d="M12.1027 9.41416L10.865 10.678C12.9279 12.7807 12.9279 16.2092 10.865 18.3119C8.80019 20.4179 5.44021 20.4179 3.37471 18.3119C1.3131 16.2099 1.3131 12.7807 3.37471 10.678L6.67718 7.3108L7.09079 6.82977V4.30469L2.07764 9.41416C1.41935 10.0791 0.896816 10.8705 0.540211 11.7426C0.183605 12.6147 0 13.5501 0 14.495C0 15.4398 0.183605 16.3753 0.540211 17.2473C0.896816 18.1194 1.41935 18.9108 2.07764 19.5758C2.72985 20.2471 3.50606 20.7799 4.36141 21.1436C5.21677 21.5073 6.13432 21.6945 7.06106 21.6945C7.9878 21.6945 8.90536 21.5073 9.76072 21.1436C10.6161 20.7799 11.3923 20.2471 12.0445 19.5758C14.8745 16.7496 14.8745 12.1811 12.1027 9.41416Z" fill="#EE4C2C"/>
<path d="M10.5699 8.0913C10.5635 8.34218 10.4612 8.58058 10.2849 8.75571C10.1086 8.93083 9.87216 9.02884 9.62601 9.02884C9.37987 9.02884 9.14346 8.93083 8.96715 8.75571C8.79084 8.58058 8.68857 8.34218 8.68213 8.0913C8.68213 7.83606 8.78157 7.59127 8.95859 7.41078C9.1356 7.2303 9.37568 7.12891 9.62601 7.12891C9.87635 7.12891 10.1164 7.2303 10.2934 7.41078C10.4705 7.59127 10.5699 7.83606 10.5699 8.0913Z" fill="#EE4C2C"/>
<path d="M19.6885 14.0004H18.7191V16.5433H17.9946V9.32584H19.7641C21.6396 9.32584 22.5257 10.255 22.5257 11.6012C22.5257 13.1866 21.4251 13.98 19.6833 14.005L19.6885 14.0004ZM19.7363 10.0105H18.6939V13.3184L19.7137 13.2894C21.0541 13.2637 21.7786 12.7161 21.7786 11.5959C21.7786 10.5844 21.0819 10.0105 19.7415 10.0105H19.7363ZM25.8003 16.5143L25.3712 17.6628C24.8891 18.9478 24.4018 19.3306 23.6818 19.3306C23.2812 19.3306 22.9852 19.2226 22.662 19.0835L22.8766 18.4298C23.1189 18.5662 23.3871 18.6486 23.6818 18.6486C24.0838 18.6486 24.3792 18.4298 24.7547 17.4131L25.1037 16.484L23.0937 11.2612H23.8434L25.4798 15.6366L27.0877 11.2612H27.8122L25.8003 16.5143ZM30.2234 10.0388V16.5716H29.499V10.0388H27.0069V9.32584H32.7148V10.0105H30.2241L30.2234 10.0388ZM34.7545 16.7074C33.3055 16.7074 32.2327 15.6135 32.2327 13.918C32.2327 12.2245 33.3333 11.1017 34.8029 11.1017C36.2493 11.1017 37.2969 12.1955 37.2969 13.8917C37.2969 15.5852 36.1963 16.708 34.7499 16.708L34.7545 16.7074ZM34.7803 11.7653C33.6817 11.7653 32.9578 12.6667 32.9578 13.897C32.9578 15.1819 33.7094 16.057 34.8075 16.057C35.9061 16.057 36.63 15.1555 36.63 13.9253C36.63 12.6384 35.8783 11.7659 34.7797 11.7659L34.7803 11.7653ZM39.0974 16.5716H38.3995V11.2671L39.0974 11.13V12.2522C39.4451 11.5676 39.955 11.13 40.6265 11.13C40.9445 11.1327 41.2579 11.2177 41.5378 11.3771L41.3484 12.0591C41.1364 11.9227 40.8411 11.8404 40.5457 11.8404C40.008 11.8404 39.5007 12.2522 39.0716 13.207V16.5716H39.0974ZM44.2974 16.708C42.7424 16.708 41.7504 15.5601 41.7504 13.918C41.7504 12.2522 42.8232 11.1017 44.2967 11.1017C44.9411 11.1017 45.4794 11.2664 45.9331 11.5676L45.7463 12.2239C45.3171 11.9336 44.8124 11.7812 44.2974 11.7863C43.1716 11.7863 42.4749 12.6331 42.4749 13.8917C42.4749 15.1766 43.2271 16.0234 44.3251 16.0234C44.8391 16.0207 45.3416 15.8689 45.7741 15.5858L45.9079 16.2421C45.451 16.5433 44.8881 16.7054 44.2974 16.7054V16.708ZM50.2754 16.5716V13.153C50.2754 12.2239 49.9019 11.8199 49.1767 11.8199C48.5867 11.8199 47.9986 12.1185 47.5688 12.5843V16.6026H46.8695V8.78484L47.5688 8.64844V11.9821C48.1046 11.4364 48.8013 11.1353 49.3642 11.1353C50.384 11.1353 50.9999 11.7916 50.9999 12.9395V16.5743L50.2754 16.5716Z" fill="#252525"/>
</svg>
