<svg width="37" height="15" viewBox="0 0 37 15" fill="none" xmlns="http://www.w3.org/2000/svg">
<path fill-rule="evenodd" clip-rule="evenodd" d="M20.2322 2.03298L17.7124 2.57377V0.530777L20.2322 0V2.03298ZM9.9923 1.16124L7.54278 1.68195L7.53274 9.70277C7.53274 11.1848 8.64707 12.2762 10.1328 12.2762C10.956 12.2762 11.5584 12.126 11.8897 11.9458V9.91306C11.5684 10.0432 9.98226 10.5039 9.98226 9.02185V5.46706H11.8897V3.33418H9.98226L9.9923 1.16124ZM23.5037 3.94501C23.8551 3.62457 24.4875 3.16395 25.4714 3.16395C27.2282 3.16395 28.8846 4.74609 28.8947 7.65001C28.8947 10.8243 27.2583 12.2663 25.4613 12.2663C24.5779 12.2663 24.0458 11.8958 23.6844 11.6354L23.6744 14.4692L21.1646 14.9999V3.32417H23.3732L23.5037 3.94501ZM23.684 9.59294C23.9249 9.85332 24.2763 10.0636 24.8686 10.0636C25.7921 10.0636 26.4146 9.06216 26.4146 7.7202C26.4146 6.40828 25.7821 5.38678 24.8686 5.38678C24.2963 5.38678 23.9349 5.58708 23.6739 5.8775L23.684 9.59294ZM4.05968 5.33694C3.52761 5.33694 3.20637 5.48714 3.20637 5.87767C3.20637 6.30406 3.75924 6.49163 4.44514 6.72433C5.56331 7.10368 7.03503 7.60298 7.04126 9.4525C7.04126 11.2449 5.60568 12.2763 3.51757 12.2763C2.65422 12.2763 1.71056 12.1061 0.776933 11.7055V9.32232C1.62021 9.78295 2.68434 10.1234 3.51757 10.1234C4.07976 10.1234 4.48132 9.9732 4.48132 9.51258C4.48132 9.04027 3.88199 8.82439 3.15845 8.56375C2.05653 8.16683 0.666504 7.66612 0.666504 5.99783C0.666504 4.22544 2.02177 3.16401 4.05968 3.16401C4.89291 3.16401 5.71611 3.29418 6.54935 3.62463V5.97781C5.78638 5.56725 4.82264 5.33694 4.05968 5.33694ZM15.0118 4.07564L14.8512 3.33464H12.6828V12.0965H15.1925V6.15845C15.7848 5.38741 16.7887 5.5276 17.0999 5.63775V3.33464C16.7787 3.21448 15.6041 2.99418 15.0118 4.07564ZM17.7124 3.33425H20.2322V12.0961H17.7124V3.33425ZM36.807 7.7502C36.807 5.18674 35.5621 3.16401 33.1829 3.16401C30.7937 3.16401 29.348 5.18674 29.348 7.73017C29.348 10.7442 31.0547 12.2663 33.5042 12.2663C34.6988 12.2663 35.6023 11.9959 36.285 11.6154V9.61271C35.6023 9.95317 34.8193 10.1635 33.8254 10.1635C32.8516 10.1635 31.9883 9.823 31.8779 8.6414H36.7869C36.7869 8.58621 36.7905 8.46083 36.7947 8.31638L36.7947 8.31551C36.8003 8.11943 36.807 7.88843 36.807 7.7502ZM31.8475 6.79882C31.8475 5.66716 32.5402 5.19647 33.1727 5.19647C33.785 5.19647 34.4376 5.66716 34.4376 6.79882H31.8475Z" fill="#6461FC"/>
</svg>
