<svg width="24" height="24" viewBox="0 0 24 24" fill="none" xmlns="http://www.w3.org/2000/svg">
<path d="M7.81484 1.26936C3.56797 1.57405 1.56641 3.59905 1.26641 7.89748C1.20547 8.75061 1.20547 15.2475 1.26641 16.1006C1.52422 19.8131 3.06172 21.824 6.14609 22.4944C7.28516 22.7381 7.41172 22.7475 11.4383 22.7662C15.3945 22.7897 16.3602 22.7615 17.3258 22.5975C19.5945 22.2037 21.057 21.2381 21.9008 19.574C22.1164 19.1428 22.4164 18.2709 22.5195 17.7647C22.7352 16.7006 22.7492 16.4709 22.768 13.1006L22.7867 9.86623L22.6789 9.65998C22.5289 9.36936 22.3695 9.26623 22.0461 9.2428C21.8164 9.22873 21.7461 9.2428 21.6102 9.33655C21.5211 9.39748 21.3992 9.51936 21.343 9.60373C21.2398 9.75842 21.2352 9.79123 21.2352 10.9772V12.1865L20.8508 11.8912C20.218 11.4131 19.7258 11.2444 18.9383 11.2444C18.3852 11.2444 17.9914 11.3381 17.5086 11.5912C17.3305 11.6897 16.4305 12.4303 15.0008 13.6584C13.7211 14.76 12.6852 15.6131 12.5633 15.674C12.4039 15.7444 12.2586 15.7725 11.9773 15.7725C11.518 15.7725 11.3258 15.6881 10.8523 15.2803C10.4867 14.9662 10.0086 14.7084 9.58672 14.6006C9.22109 14.5069 8.41953 14.5069 8.04922 14.6053C7.58984 14.7225 7.25703 14.924 5.11016 16.3678C3.12734 17.7037 3.07109 17.7412 3.03828 17.624C2.95859 17.3615 2.86016 16.6725 2.81328 16.0772C2.75234 15.2522 2.75234 8.74592 2.81328 7.92092C3.03828 4.9303 4.14922 3.48655 6.61016 2.9803C7.41641 2.81623 7.78203 2.79748 10.5242 2.76936L13.2898 2.74123L13.4492 2.62873C13.6273 2.50217 13.7773 2.20686 13.782 1.98655C13.782 1.74748 13.5945 1.44748 13.3602 1.32561L13.1586 1.2178L10.7398 1.22248C9.40859 1.22717 8.09609 1.24592 7.81484 1.26936ZM19.4633 12.8709C19.6273 12.9272 19.8758 13.11 20.457 13.6069L21.2352 14.2725V14.8584C21.2352 16.5553 21.0102 17.849 20.5555 18.7819C19.8242 20.2772 18.493 20.9944 16.107 21.1865C15.3148 21.2475 8.68672 21.2475 7.89453 21.1865C5.95859 21.0319 4.69297 20.5069 3.91953 19.5459C3.69453 19.2647 3.68984 19.2553 3.77891 19.1756C3.82578 19.1287 4.86172 18.4256 6.07109 17.6147C8.11016 16.2506 8.29766 16.1334 8.55547 16.0865C9.06172 15.9975 9.43672 16.1147 9.88203 16.5037C10.4961 17.0428 11.0773 17.2912 11.8133 17.3287C12.3852 17.3569 12.8398 17.2678 13.3367 17.0194C13.6555 16.86 14.0586 16.5319 15.9711 14.8865C18.282 12.9037 18.343 12.8569 18.7977 12.7819C18.9523 12.7537 19.1961 12.7865 19.4633 12.8709Z" fill="#FFA633"/>
<path d="M17.7423 1.27127C17.5689 1.32283 15.3939 3.47908 15.3002 3.69002C15.0986 4.14939 15.3798 4.66971 15.8767 4.76346C16.172 4.81971 16.383 4.71189 16.833 4.28064L17.2502 3.87752V6.07596C17.2502 8.17127 17.2548 8.27908 17.3439 8.41033C17.6439 8.86971 18.333 8.87439 18.647 8.41971C18.7502 8.26971 18.7502 8.26971 18.7502 6.07127V3.87752L19.1673 4.28064C19.4814 4.58533 19.6314 4.69314 19.7861 4.73533C20.4095 4.90408 20.9392 4.32283 20.7189 3.71814C20.6908 3.64783 20.1564 3.07596 19.533 2.44783C18.2627 1.17752 18.197 1.13533 17.7423 1.27127Z" fill="#212529"/>
<path d="M8.22656 5.337C7.57969 5.5245 6.95156 6.00262 6.61406 6.57919C6.38438 6.96356 6.23438 7.51669 6.23438 7.97137C6.23438 8.46825 6.3 8.76356 6.525 9.22294C6.83906 9.88856 7.41563 10.3854 8.15625 10.6432C8.55938 10.7792 9.35156 10.7932 9.77344 10.6667C10.5047 10.4511 11.1562 9.89794 11.475 9.22294C11.7 8.76356 11.7656 8.46825 11.7656 7.97137C11.7656 7.51669 11.6156 6.96356 11.3859 6.57919C11.0391 5.98856 10.3781 5.49169 9.72188 5.32294C9.33281 5.2245 8.59688 5.22919 8.22656 5.337ZM9.49688 6.88387C10.05 7.137 10.3453 7.79794 10.1531 8.3745C9.85313 9.2745 8.66719 9.50419 8.06719 8.77762C7.54688 8.1495 7.78594 7.19325 8.54063 6.86512C8.76562 6.76669 9.2625 6.78075 9.49688 6.88387Z" fill="#212529"/>
</svg>
