<svg width="92" height="27" viewBox="0 0 92 27" fill="none" xmlns="http://www.w3.org/2000/svg">
<path d="M75.5658 26.3845C75.8747 24.1221 76.1836 21.8539 76.531 19.302C75.9403 19.7826 75.5658 20.0741 75.2184 20.3695C72.9753 22.2497 70.7418 24.1414 68.4833 26.0042C68.184 26.2513 67.7671 26.4984 67.4003 26.5023C64.1187 26.5409 60.837 26.5235 57.5554 26.5177C57.4088 26.5026 57.2636 26.4761 57.121 26.4386C57.5071 24.1434 57.8932 21.8771 58.3333 19.3078C57.8874 19.6591 57.65 19.827 57.4338 20.0181C55.1173 22.0547 52.8144 24.1105 50.4709 26.1162C50.0889 26.4311 49.6143 26.6121 49.1196 26.6316C40.5294 26.6606 31.9392 26.6471 23.349 26.6683C23.0836 26.685 22.8183 26.6341 22.5779 26.5204C22.3375 26.4066 22.1299 26.2337 21.9746 26.0178C20.3743 24.0449 18.7335 22.1049 17.1042 20.1552C16.9112 19.9178 16.695 19.6938 16.4132 19.383C15.4653 21.6223 14.5368 23.7341 13.6855 25.8769C13.4404 26.4907 13.1431 26.6799 12.4945 26.676C8.60283 26.6432 4.71119 26.6587 0.670898 26.6587C0.925709 26.0255 1.13227 25.4753 1.36584 24.9368C3.93325 19.053 6.51609 13.1769 9.05647 7.28148C9.35954 6.57883 9.73598 6.37228 10.4869 6.38C14.2801 6.42247 18.0752 6.40123 22.0557 6.40123L18.8474 13.8428L19.0172 13.9973C19.8724 13.3622 20.7314 12.729 21.5827 12.0901C23.9494 10.3141 26.3064 8.52658 28.6846 6.76608C28.9611 6.55826 29.2929 6.43671 29.6382 6.41668C32.2095 6.38772 34.7827 6.40123 37.4717 6.58269L27.5978 14.3737L33.775 21.6744C36.2092 15.6439 38.5701 9.80256 41.0043 3.78364H23.0035C23.4552 2.62541 23.7988 1.63512 24.2486 0.695025C24.3451 0.501987 24.8277 0.393884 25.1404 0.391954C28.036 0.37072 30.9316 0.378446 33.8271 0.378446H73.2281C72.9965 1.44788 72.8421 2.42272 72.5429 3.35702C72.4791 3.56357 71.9444 3.73152 71.6259 3.7431C66.4467 3.76626 61.2675 3.75854 56.0864 3.75854C53.7699 3.75854 53.8066 3.77012 53.0807 5.91478C51.8453 9.56127 50.5713 13.1942 49.3107 16.833C49.2734 16.9256 49.2559 17.0249 49.2592 17.1246C49.2625 17.2243 49.2866 17.3223 49.33 17.4121C50.1292 16.6766 50.94 15.9508 51.7276 15.2018C54.6444 12.4375 57.5476 9.65971 60.476 6.9012C60.7409 6.63594 61.088 6.4685 61.4605 6.42633C64.9024 6.39544 68.3443 6.41089 71.7861 6.41668C71.9048 6.43583 72.0208 6.46887 72.1317 6.51512C71.6105 8.9474 71.0912 11.3758 70.5082 14.0977C72.1954 12.7078 73.6509 11.5109 75.1064 10.3083C76.5175 9.15009 77.9209 7.96291 79.3532 6.80855C79.5831 6.59782 79.8722 6.46301 80.1814 6.42247C83.8781 6.39737 87.5728 6.4051 91.422 6.4051C91.1479 7.7332 90.9008 8.97636 90.6344 10.2137C89.509 15.4258 88.3874 20.6378 87.2292 25.8498C87.1693 26.1162 86.7833 26.5081 86.5478 26.51C83.0094 26.5486 79.4691 26.5332 75.9307 26.5235C75.8035 26.4934 75.6808 26.4467 75.5658 26.3845Z" fill="#FF9000"/>
</svg>
