<svg width="100" height="33" viewBox="0 0 100 33" fill="none" xmlns="http://www.w3.org/2000/svg">
<path d="M68.5392 17.9899H56.4975C56.4975 19.9423 57.439 21.2981 59.0529 21.7992C60.8773 22.3676 62.3437 21.886 63.4306 20.4C63.5073 20.2936 63.6043 20.2034 63.716 20.1346C63.8276 20.0657 63.9518 20.0195 64.0813 19.9987C65.5217 19.9618 66.9643 19.9792 68.5262 19.9792C67.6042 22.7993 65.8406 24.5737 63.0227 25.1681C59.3805 25.936 55.9834 25.5608 53.5104 22.4088C50.4734 18.5279 51.1242 11.3454 55.6428 8.82469C60.6495 6.03933 68.062 7.99819 68.5175 15.7556C68.5653 16.4367 68.5392 17.12 68.5392 17.9899ZM56.4585 14.5386H63.7126C63.7538 12.7099 62.4847 11.25 60.7667 11.0677C58.4021 10.8009 56.9335 11.9528 56.4585 14.5386Z" fill="#111111"/>
<path d="M45.1286 8.10449H49.58V25.0531H45.1286C45.1286 23.1225 45.0917 21.22 45.1459 19.3197C45.172 18.478 44.929 18.1743 44.0613 18.2004C42.0091 18.2611 39.9548 18.2199 37.7704 18.2199V25.0401H33.2148V8.11968H37.6706V14.4106C40.0763 14.4106 42.3758 14.4301 44.6709 14.3716C44.8314 14.3716 45.1047 13.7945 45.1047 13.48C45.1503 11.7185 45.1286 9.95707 45.1286 8.10449Z" fill="#111111"/>
<path d="M81.8979 16.6883C81.963 13.3649 82.8633 10.5058 85.8851 8.82029C90.7747 6.09566 98.6319 7.80506 99.0744 15.8271C99.2631 19.2481 98.4388 22.3849 95.2586 24.2461C92.2411 26.0097 89.0328 26.0097 85.9502 24.3632C82.8676 22.7167 81.9891 19.862 81.8979 16.6883ZM94.5775 16.9378C94.4039 15.788 94.3345 14.8856 94.1219 14.0201C93.9537 13.2547 93.5489 12.5617 92.9649 12.0392C92.3809 11.5167 91.6473 11.1912 90.868 11.1089C90.1266 11.0224 89.3769 11.1721 88.7256 11.5367C88.0743 11.9012 87.5547 12.4621 87.2409 13.1393C86.7196 14.2338 86.4545 15.4326 86.4657 16.6448C86.477 17.857 86.7644 19.0507 87.306 20.1353C87.9416 21.4564 89.1087 22.0877 90.5599 22.0681C92.0112 22.0486 93.1761 21.4043 93.7163 20.0225C94.1371 18.9682 94.3367 17.8337 94.5709 16.9378H94.5775Z" fill="#111111"/>
<path d="M0.356416 5.38416C2.78168 7.18683 4.95748 8.78994 7.10724 10.4256C7.22097 10.5294 7.31291 10.6547 7.37772 10.7944C7.44252 10.9341 7.47889 11.0852 7.4847 11.2391C7.50061 18.2112 7.50061 25.1825 7.4847 32.1532C7.4847 32.2118 7.41746 32.2682 7.31767 32.4243C6.0161 31.4764 4.79694 30.3657 3.38691 29.6281C0.866193 28.3092 0.150337 26.4306 0.278325 23.617C0.532132 18.0289 0.356419 12.4213 0.358588 6.8224L0.356416 5.38416Z" fill="#111111"/>
<path d="M75.2922 25.0705H70.7367C70.7367 24.2874 70.7237 23.539 70.7367 22.7927C70.7931 19.9444 70.7367 17.0853 70.9537 14.2479C71.2162 10.7228 73.4744 8.39081 76.9778 7.93526C78.3076 7.75955 79.6807 7.90706 81.0842 7.90706V11.6795C80.5115 11.6795 79.9475 11.6426 79.39 11.6795C77.0429 11.8595 75.5829 13.2847 75.4853 15.6362C75.3682 18.3023 75.3595 20.9749 75.3053 23.6431C75.2836 24.0834 75.2922 24.5173 75.2922 25.0705Z" fill="#111111"/>
<path d="M13.0557 0.62915C15.4202 2.3776 17.6784 4.03493 19.9193 5.7183C20.0907 5.84629 20.1644 6.13047 20.2447 6.36909C20.2736 6.51193 20.278 6.65863 20.2577 6.80295C20.2382 8.13706 20.6156 9.67074 20.082 10.751C19.57 11.7793 18.1166 12.3476 17.0602 13.096C15.7738 14.0093 14.47 14.9009 13.0557 15.8836V0.62915Z" fill="#111111"/>
<path d="M13.0249 22.6582L20.164 17.4996V27.8645L13.0249 22.6582Z" fill="#111111"/>
</svg>
