<svg width="100" height="55" viewBox="0 0 100 55" fill="none" xmlns="http://www.w3.org/2000/svg">
<path d="M50.2526 54.8463C39.1479 54.5872 28.6875 53.067 18.821 48.6692C13.1093 46.124 7.84249 42.8979 4.08437 37.7296C-1.30402 30.3234 -0.696394 22.1239 5.57478 15.401C10.6765 9.93236 17.0784 6.63283 24.0329 4.29862C34.1103 0.914255 44.5019 -0.287241 55.0929 0.386881C63.9551 0.944063 72.5972 2.60873 80.7577 6.24991C86.756 8.92576 92.1926 12.3697 96.1043 17.8499C100.303 23.7312 100.31 31.2452 96.1181 37.1242C92.2338 42.5745 86.8501 46.03 80.8815 48.6829C72.2211 52.5373 63.0494 54.2203 53.6255 54.6652C52.3666 54.7294 51.1101 54.8005 50.2526 54.8463ZM49.8398 51.8219C56.7461 51.8517 63.5745 51.1134 70.2607 49.3662C77.5682 47.4539 84.4952 44.7001 90.2275 39.5639C93.6027 36.5395 96.0539 32.958 96.3198 28.2712C96.6202 22.9975 94.0819 18.9528 90.3582 15.55C84.8231 10.4941 78.091 7.74261 70.9875 5.81654C62.9623 3.64055 54.765 2.91828 46.4669 3.23471C38.2422 3.54654 30.2146 4.89708 22.4989 7.84349C17.2045 9.86586 12.2908 12.5234 8.26668 16.6094C2.11015 22.8622 1.72264 30.5963 7.32657 37.2962C11.0228 41.7239 15.9205 44.4731 21.1621 46.6216C30.343 50.3866 39.9733 51.7898 49.8398 51.8219Z" fill="#111111"/>
<path d="M65.3948 10.3566C64.9752 12.3377 64.5786 14.1926 64.1865 16.0476C63.4688 19.4457 62.7282 22.8393 62.0609 26.2489C61.8821 27.166 61.4602 27.4412 60.5866 27.3426C59.713 27.244 58.8118 27.6544 58.5229 26.2374C57.835 22.798 56.9775 19.3907 56.1795 15.972C56.0809 15.5501 55.9342 15.1419 55.8081 14.7269H55.5146C55.4137 15.0662 55.2853 15.4033 55.2142 15.7472C54.3956 19.2394 53.5587 22.7292 52.7906 26.2328C52.6117 27.0468 52.3159 27.455 51.44 27.3357C50.9815 27.2738 50.5229 27.3862 50.0643 27.2967C49.7983 27.2417 49.4177 26.9826 49.3764 26.7556C48.2139 21.3512 47.0835 15.9398 45.937 10.3955H48.7069C49.4452 14.1514 50.1881 17.937 50.931 21.7249L51.2497 21.7616C51.3735 21.3993 51.5272 21.0416 51.6143 20.6702C52.3595 17.5151 53.1162 14.36 53.8132 11.1935C53.9669 10.4941 54.2558 10.2763 54.9597 10.2603C57.4246 10.2259 57.4246 10.2006 57.9405 12.6082C58.552 15.4025 59.1634 18.1976 59.7749 20.9935C59.845 21.3675 60.0245 21.7122 60.2908 21.984C60.4075 21.6624 60.507 21.3348 60.5889 21.0026C61.1758 18.005 61.7559 15.0074 62.3292 12.0098C62.7121 9.99428 62.4117 10.3107 64.48 10.2786C64.7161 10.2832 64.9431 10.3199 65.3948 10.3566Z" fill="#111111"/>
<path d="M46.368 27.1936C46.2955 27.2398 46.2187 27.2789 46.1387 27.3105C43.5798 27.4573 43.4996 27.4802 42.7796 25.0314C42.4035 23.7542 41.8464 23.197 40.4683 23.3483C39.2599 23.4813 38.0263 23.4057 36.7996 23.3644C36.1117 23.3415 35.7219 23.5937 35.5729 24.2816C35.4995 24.6163 35.3711 24.9396 35.2702 25.2675C34.5503 27.6109 34.415 27.6889 31.8125 27.1844C32.0257 26.4965 32.2206 25.8087 32.4522 25.1208C33.9839 20.5991 35.5339 16.0866 37.0495 11.5604C37.3293 10.7257 37.6274 10.1319 38.6959 10.2672C39.6429 10.3864 40.5302 10.0906 40.9888 11.487C42.6214 16.4948 44.4282 21.4429 46.1754 26.4163C46.2511 26.657 46.2969 26.9207 46.368 27.1936ZM41.2663 20.6702C40.5325 18.4415 39.8538 16.3755 39.1751 14.3096L38.744 14.3509C38.0951 16.4145 37.4462 18.4781 36.7629 20.6702H41.2663Z" fill="#111111"/>
<path d="M79.3796 27.173C79.3079 27.2212 79.231 27.2612 79.1503 27.2922C76.5157 27.5215 76.4446 27.5444 75.7292 24.9993C75.3807 23.7565 74.8258 23.236 73.5097 23.3598C72.2623 23.4791 70.9875 23.3186 69.7401 23.424C69.332 23.4561 68.9169 23.8826 68.5936 24.2266C68.4033 24.4261 68.3827 24.7883 68.291 25.0795C67.532 27.5055 67.532 27.5055 64.8516 27.2624C64.8661 27.0141 64.9037 26.7677 64.9639 26.5264C66.679 21.4819 68.4538 16.4375 70.0909 11.3609C70.4876 10.1319 71.2649 10.3314 72.1202 10.2901C72.9754 10.2489 73.5647 10.336 73.9109 11.3701C75.555 16.2861 77.3137 21.1632 79.0265 26.0563C79.1618 26.4026 79.2558 26.7648 79.3796 27.173ZM72.1981 14.3326L71.7395 14.344L69.724 20.6679H74.2274L72.1981 14.3326Z" fill="#111111"/>
<path d="M49.945 30.8715C52.2627 30.8878 54.4794 31.8219 56.1099 33.4692C57.7404 35.1164 58.6517 37.3426 58.6444 39.6603C58.6214 44.4365 54.6249 48.4078 49.8601 48.3895C45.0335 48.3711 41.0232 44.3149 41.0897 39.5181C41.1319 37.2019 42.085 34.9956 43.7425 33.3771C45.4 31.7587 47.6284 30.8584 49.945 30.8715ZM56.5119 39.6374C56.5119 38.3208 56.1211 37.0338 55.3889 35.9396C54.6567 34.8453 53.6161 33.9931 52.3991 33.4908C51.1821 32.9885 49.8433 32.8589 48.5525 33.1183C47.2617 33.3776 46.0769 34.0144 45.1484 34.9477C44.2198 35.8811 43.5892 37.0692 43.3365 38.3613C43.0839 39.6535 43.2205 40.9915 43.729 42.2059C44.2376 43.4204 45.0952 44.4565 46.1932 45.183C47.2913 45.9095 48.5803 46.2937 49.8968 46.2869C51.6554 46.2808 53.3396 45.5772 54.5799 44.3305C55.8201 43.0838 56.515 41.3959 56.5119 39.6374Z" fill="#111111"/>
<path d="M43.3051 30.9288C42.6173 31.9744 41.7345 32.2793 40.6316 32.3596C31.5256 33.023 22.4234 33.7109 13.3251 34.4232C10.3741 34.6525 8.88822 34.0265 7.98481 32.1051C7.51017 31.0962 7.62941 30.8623 8.70938 30.8623C20.0961 30.8623 31.4843 30.8623 42.8741 30.8623C43.0189 30.8763 43.1628 30.8985 43.3051 30.9288Z" fill="#111111"/>
<path d="M56.418 30.86H57.5461C68.5522 30.86 79.5582 30.86 90.5643 30.86C91.0229 30.86 91.4998 31.0297 91.9676 31.1191C91.814 31.6098 91.7383 32.1532 91.4884 32.582C91.1428 33.2073 90.6222 33.7181 89.9904 34.0517C89.3587 34.3853 88.6433 34.5271 87.932 34.4599C84.2633 34.2306 80.6176 33.9417 76.9604 33.6688C71.0927 33.2332 65.2274 32.7723 59.3598 32.3619C58.2019 32.2885 57.1632 32.1165 56.418 30.86Z" fill="#111111"/>
<path d="M22.6778 21.9749C22.8475 22.6307 22.9507 23.1901 23.1364 23.7198C23.4482 24.5774 24.1063 24.958 25.0143 24.9007C25.9223 24.8434 26.5276 24.3412 26.6583 23.4401C26.7855 22.5345 26.8522 21.6214 26.8578 20.7069C26.8785 17.3111 26.8578 13.9175 26.8578 10.4025H29.5727C29.5727 12.5899 29.6048 14.7201 29.5727 16.8502C29.5291 19.2119 29.5727 21.592 29.2929 23.9285C28.9696 26.5493 26.8647 27.8586 23.9894 27.5582C21.8271 27.3289 20.1831 25.3157 20.2725 22.9242C20.2946 22.7772 20.352 22.6378 20.4399 22.518C20.5278 22.3982 20.6435 22.3015 20.777 22.2363C21.404 22.1067 22.0391 22.0194 22.6778 21.9749Z" fill="#111111"/>
<path d="M59.2476 34.0035L86.9783 37.2847C86.4234 38.8462 84.6853 39.9308 82.851 39.7427C80.8447 39.5364 78.8567 39.1305 76.871 38.7545C71.5492 37.7525 66.2341 36.6909 60.9054 35.7232C59.9286 35.5467 59.4218 35.1133 59.2476 34.0035Z" fill="#111111"/>
<path d="M12.6963 37.2917L40.4729 34.0082C40.3307 35.0744 39.8767 35.5284 38.8816 35.7118C31.9431 36.989 25.0208 38.3395 18.0893 39.6488C15.684 40.1028 13.6158 39.2498 12.6963 37.2917Z" fill="#111111"/>
<path d="M21.0591 42.1183L39.1732 37.858C39.281 38.6514 39.2902 39.1856 38.4533 39.4631C34.4521 40.8251 30.4693 42.2421 26.4704 43.6202C24.6957 44.2301 23.015 43.9297 21.4443 42.9323C21.3045 42.8195 21.179 42.6902 21.0705 42.5471L21.0591 42.1183Z" fill="#111111"/>
<path d="M78.6412 42.6686C77.1371 43.8632 75.399 44.3035 73.5532 43.6936C69.4259 42.3339 65.3193 40.8779 61.2287 39.3943C60.8366 39.2522 60.6119 38.6468 60.3115 38.2479L60.5913 37.8604L78.6894 42.1114C78.6779 42.304 78.6619 42.4852 78.6412 42.6686Z" fill="#111111"/>
<path d="M29.5977 45.3055L39.1844 41.4946C39.8723 42.5769 39.6086 43.1983 38.5676 43.7256C37.4487 44.292 36.426 45.0441 35.3575 45.7022C33.4269 46.8876 31.5329 46.4749 29.6504 45.7022L29.5977 45.3055Z" fill="#111111"/>
<path d="M70.0932 45.6768C68.3002 46.461 66.4635 46.8646 64.5902 45.8167C63.2154 45.0668 61.889 44.2313 60.6189 43.3151C60.2634 43.0537 60.2749 42.2948 60.1167 41.7628L60.5225 41.4968L70.1185 45.2916L70.0932 45.6768Z" fill="#111111"/>
<path d="M62.3612 47.3966L56.6289 48.0592C57.6103 46.8898 58.4036 45.9428 59.307 44.8698L62.4209 47.009L62.3612 47.3966Z" fill="#111111"/>
<path d="M40.4111 44.8767C41.2893 45.92 42.0849 46.867 43.0869 48.0547L37.3546 47.3966L37.2881 47.0366L40.4111 44.8767Z" fill="#111111"/>
<path d="M54.5288 39.4906C54.5018 40.7099 53.9984 41.8702 53.1265 42.723C52.2546 43.5758 51.0835 44.0533 49.8639 44.0533C48.6442 44.0533 47.4731 43.5758 46.6012 42.723C45.7293 41.8702 45.2259 40.7099 45.1989 39.4906C45.1851 38.8693 45.2956 38.2515 45.5238 37.6735C45.7521 37.0954 46.0935 36.5688 46.5281 36.1245C46.9626 35.6802 47.4815 35.3272 48.0544 35.0862C48.6272 34.8452 49.2424 34.7211 49.8639 34.7211C50.4853 34.7211 51.1005 34.8452 51.6734 35.0862C52.2462 35.3272 52.7651 35.6802 53.1997 36.1245C53.6342 36.5688 53.9756 37.0954 54.2039 37.6735C54.4321 38.2515 54.5426 38.8693 54.5288 39.4906ZM49.8627 36.9248C49.188 36.9202 48.5381 37.1791 48.0512 37.6462C47.5643 38.1134 47.2789 38.7521 47.2557 39.4264C47.2572 39.77 47.3263 40.1099 47.4592 40.4267C47.5921 40.7436 47.786 41.0311 48.03 41.273C48.274 41.5149 48.5633 41.7063 48.8813 41.8364C49.1993 41.9665 49.5398 42.0327 49.8834 42.0312C50.2269 42.0297 50.5668 41.9605 50.8837 41.8276C51.2005 41.6948 51.4881 41.5008 51.73 41.2568C51.9718 41.0128 52.1633 40.7235 52.2934 40.4056C52.4234 40.0876 52.4896 39.7471 52.4881 39.4035C52.4636 38.7284 52.1745 38.09 51.6833 37.6262C51.1921 37.1625 50.5381 36.9105 49.8627 36.9248Z" fill="#111111"/>
</svg>
