<svg width="102" height="24" viewBox="0 0 102 24" fill="none" xmlns="http://www.w3.org/2000/svg">
<g clip-path="url(#clip0_5542_106809)">
<path d="M59.393 21.2863C59.393 21.4802 59.4455 21.5859 59.5681 21.5859C59.6556 21.5859 59.7257 21.5507 59.8132 21.4978L91.4038 0.828194C91.9641 0.45815 92.472 0.264317 93.225 0.264317H100.177C101.245 0.264317 101.963 0.986784 101.963 2.06167V15.4009C101.963 17.0044 101.613 17.9383 100.177 18.8018L91.754 23.8943C91.6489 23.9648 91.5439 24 91.4738 24C91.3688 24 91.2812 23.9295 91.2812 23.63V8.05286C91.2812 7.87665 91.2287 7.7533 91.1061 7.7533C91.0185 7.7533 90.9485 7.78855 90.8609 7.84141L67.7634 22.9427C67.1155 23.3656 66.5901 23.489 65.9948 23.489H50.6723C49.6041 23.489 48.8861 22.7665 48.8861 21.6916V2.48458C48.8861 2.34361 48.8161 2.22026 48.711 2.22026C48.6235 2.22026 48.5534 2.25551 48.4659 2.30837L33.2309 11.5242C33.0733 11.6123 33.0383 11.7004 33.0383 11.7709C33.0383 11.8414 33.0558 11.8943 33.1784 12L44.053 22.9427C44.1931 23.0837 44.2981 23.2071 44.2981 23.3128C44.2981 23.4361 44.1405 23.5066 43.9479 23.5066H34.1065C33.336 23.5066 32.7406 23.3833 32.3203 22.9604L25.7186 16.3172C25.6485 16.2467 25.596 16.2115 25.5259 16.2115C25.4734 16.2115 25.3858 16.2467 25.3158 16.2819L14.2836 22.9604C13.6182 23.3656 13.1629 23.489 12.4975 23.489H2.34085C1.27265 23.489 0.554688 22.7665 0.554688 21.6916V8.59912C0.554688 6.97797 0.904915 6.06167 2.34085 5.19824L10.8164 0.0704846C10.9039 0.0176211 10.974 0 11.044 0C11.1666 0 11.2366 0.140969 11.2366 0.422908V17.9383C11.2366 18.1145 11.2892 18.2026 11.4117 18.2026C11.4818 18.2026 11.5694 18.1498 11.6569 18.0969L40.288 0.77533C40.971 0.370044 41.3913 0.246696 42.1793 0.246696H57.5893C58.6575 0.246696 59.3754 0.969163 59.3754 2.04405L59.393 21.2863Z" fill="white"/>
</g>
<defs>
<clipPath id="clip0_5542_106809">
<rect width="101.408" height="24" fill="white" transform="translate(0.554688)"/>
</clipPath>
</defs>
</svg>
