<svg width="120" height="37" viewBox="0 0 120 37" fill="none" xmlns="http://www.w3.org/2000/svg">
<g style="mix-blend-mode:luminosity" clip-path="url(#clip0_5573_78845)">
<path d="M36.012 16.2882H25.0416L34.542 10.8042L32.658 7.54024L23.1564 13.0242L28.6404 3.52624L25.3764 1.64224L19.8912 11.1378V0.172241H16.1208V11.139L10.6356 1.64224L7.3704 3.52624L12.8544 13.0218L3.3552 7.54024L1.47 10.8042L10.9704 16.2882H0V20.0574H10.9692L1.47 25.5414L3.354 28.8054L12.8556 23.3214L7.3704 32.8194L10.6344 34.7034L16.1208 25.2066V36.1722H19.8912V24.9714L25.4772 34.6434L28.5384 32.877L22.9512 23.2026L32.6556 28.8042L34.5408 25.5402L25.0416 20.0562H36.0108V16.2882H36.012ZM18.006 23.2962C17.3329 23.2964 16.6664 23.1639 16.0446 22.9064C15.4228 22.6488 14.8577 22.2714 14.3818 21.7955C13.9058 21.3197 13.5282 20.7548 13.2706 20.1329C13.0129 19.5111 12.8803 18.8447 12.8802 18.1716C12.8801 17.4986 13.0126 16.8321 13.2701 16.2102C13.5276 15.5884 13.905 15.0233 14.3809 14.5474C14.8567 14.0715 15.4217 13.6938 16.0435 13.4362C16.6654 13.1786 17.3317 13.046 18.0048 13.0458C19.364 13.0457 20.6677 13.5855 21.629 14.5466C22.5904 15.5076 23.1305 16.8112 23.1306 18.1704C23.1307 19.5297 22.591 20.8334 21.6299 21.7947C20.6688 22.756 19.3652 23.2961 18.006 23.2962Z" fill="#5753F3"/>
<path d="M45.7305 31.34V5.00476H50.5641V31.34H45.7305ZM92.0901 13.4432H96.7053V15.6272C97.6869 13.8812 99.9777 12.9344 101.94 12.9344C104.376 12.9344 106.338 13.9904 107.246 15.9164C108.662 13.7324 110.553 12.9344 112.916 12.9344C116.223 12.9344 119.384 14.9348 119.384 19.736V31.34H114.697V20.7188C114.697 18.7904 113.751 17.3348 111.534 17.3348C109.461 17.3348 108.225 18.9368 108.225 20.8652V31.3412H103.43V20.7188C103.43 18.7904 102.448 17.3348 100.267 17.3348C98.1585 17.3348 96.9225 18.9008 96.9225 20.8652V31.3412H92.0901V13.4432ZM61.4877 31.8584C56.0421 31.8584 52.0989 27.818 52.0989 22.3916C52.0989 17.0516 56.0301 12.9164 61.4877 12.9164C66.9717 12.9164 70.8765 17.09 70.8765 22.3916C70.8765 27.7796 66.9309 31.8584 61.4877 31.8584ZM61.4877 17.2964C60.137 17.2983 58.8422 17.8359 57.8873 18.7914C56.9326 19.7469 56.3958 21.042 56.3949 22.3928C56.3958 23.7435 56.9326 25.0386 57.8873 25.9941C58.8422 26.9496 60.137 27.4872 61.4877 27.4892C62.8382 27.4869 64.1327 26.9492 65.0872 25.9937C66.0417 25.0383 66.5783 23.7432 66.5793 22.3928C66.5783 21.0423 66.0417 19.7472 65.0872 18.7918C64.1327 17.8364 62.8382 17.2986 61.4877 17.2964ZM81.2001 31.8584C75.7545 31.8584 71.8113 27.818 71.8113 22.3916C71.8113 17.0516 75.7425 12.9164 81.2001 12.9164C86.6841 12.9164 90.5889 17.09 90.5889 22.3916C90.5889 27.7796 86.6409 31.8584 81.2001 31.8584ZM81.2001 17.2352C79.8339 17.2374 78.5242 17.7814 77.5586 18.7478C76.5928 19.7141 76.0497 21.0242 76.0485 22.3904C76.0497 23.7566 76.5928 25.0666 77.5586 26.033C78.5242 26.9993 79.8339 27.5433 81.2001 27.5456C82.5663 27.5433 83.8758 26.9993 84.8416 26.033C85.8074 25.0666 86.3504 23.7566 86.3517 22.3904C86.3504 21.0242 85.8074 19.7141 84.8416 18.7478C83.8758 17.7814 82.5663 17.2374 81.2001 17.2352Z" fill="#1E1E1E"/>
</g>
<defs>
<clipPath id="clip0_5573_78845">
<rect width="120" height="36" fill="white" transform="translate(0 0.172241)"/>
</clipPath>
</defs>
</svg>
