<svg width="129" height="37" viewBox="0 0 129 37" fill="none" xmlns="http://www.w3.org/2000/svg">
<g style="mix-blend-mode:luminosity" clip-path="url(#clip0_5573_78848)">
<path fill-rule="evenodd" clip-rule="evenodd" d="M67.0947 26.727C68.3412 26.7923 69.5847 26.5521 70.7167 26.0272C71.8488 25.5023 72.8352 24.7086 73.5896 23.7155L71.1597 21.4382C70.7329 22.0764 70.1514 22.5963 69.4697 22.9497C68.7879 23.3033 68.0278 23.4792 67.2597 23.4609C64.2147 23.4609 62.1447 21.1237 62.1447 17.8126C62.1447 14.5166 64.2147 12.2094 67.2597 12.2094C68.0216 12.1773 68.7795 12.3392 69.4616 12.6799C70.1438 13.0206 70.7281 13.5289 71.1597 14.157L73.5896 11.9547C72.8389 10.9584 71.8529 10.1634 70.7195 9.64052C69.5861 9.11764 68.3408 8.88325 67.0947 8.95826C61.9648 8.95826 58.3496 12.7038 58.3496 17.8126C58.3496 22.9365 61.9497 26.727 67.0947 26.727ZM80.0546 26.3074V14.7713C80.8047 13.5428 82.8596 12.494 84.4497 12.494C84.8997 12.494 85.2596 12.524 85.5747 12.5989V8.94329C84.4999 8.99003 83.4484 9.27188 82.4947 9.76892C81.5409 10.266 80.7079 10.9661 80.0546 11.8198V9.36278H76.3648V26.3074H80.0546ZM89.9246 7.29526C90.5294 7.29526 91.1093 7.05533 91.5369 6.62826C91.9645 6.20118 92.2047 5.62194 92.2047 5.01798C92.2047 4.41402 91.9645 3.83478 91.5369 3.4077C91.1093 2.98063 90.5294 2.74072 89.9246 2.74072C89.32 2.74072 88.74 2.98063 88.3125 3.4077C87.8849 3.83478 87.6447 4.41402 87.6447 5.01798C87.6447 5.62194 87.8849 6.20118 88.3125 6.62826C88.74 7.05533 89.32 7.29526 89.9246 7.29526ZM91.7547 26.3224V9.3478H88.0496V26.2924L91.7547 26.3224ZM101.88 26.727C106.44 26.727 108.93 24.4497 108.93 21.4382C108.93 14.6964 98.6697 16.9437 98.6697 13.9473C98.6697 12.7637 99.8696 11.8498 101.805 11.8498C103.95 11.8498 105.81 12.7637 106.83 13.8874L108.375 11.2955C106.553 9.72353 104.211 8.88503 101.805 8.94329C97.5146 8.94329 95.1296 11.2955 95.1296 14.0671C95.1296 20.5843 105.39 18.2022 105.39 21.5431C105.39 22.8765 104.22 23.7904 102.015 23.7904C99.8804 23.7352 97.841 22.898 96.2847 21.4382L94.6047 24.0601C96.5883 25.8633 99.199 26.8204 101.88 26.727ZM121.26 26.727C119.115 26.727 117.225 25.753 115.815 23.9552V32.7646H112.14V9.36278H115.815V11.685C116.444 10.8342 117.265 10.1428 118.21 9.66663C119.156 9.19043 120.2 8.94266 121.26 8.94329C125.655 8.94329 128.775 12.2393 128.775 17.8126C128.775 23.401 125.655 26.727 121.275 26.727H121.26ZM120.18 23.4609C123.09 23.4609 124.98 21.1237 124.98 17.8126C124.98 14.5166 123.09 12.2094 120.18 12.2094C118.455 12.2094 116.67 13.1832 115.83 14.4567V21.1537C116.327 21.8475 116.979 22.4168 117.734 22.8172C118.488 23.2175 119.325 23.4377 120.18 23.4609Z" fill="#1972F5"/>
<path fill-rule="evenodd" clip-rule="evenodd" d="M17.354 28.6446L24.299 36.0158L29.7291 27.2664L44.1291 25.6932L41.8039 0.433533L0.208984 5.01803L2.54898 30.2777L17.354 28.6446Z" fill="#1972F5"/>
</g>
<defs>
<clipPath id="clip0_5573_78848">
<rect width="129" height="35.9569" fill="white" transform="translate(0 0.193787)"/>
</clipPath>
</defs>
</svg>
