<svg width="91" height="41" viewBox="0 0 91 41" fill="none" xmlns="http://www.w3.org/2000/svg">
<g clip-path="url(#clip0_3359_57348)">
<path d="M71.7905 17.0791L60.5649 15.6916C60.3832 15.6916 60.2933 15.5991 60.2028 15.5066L53.775 7.82851C53.2406 7.18489 52.5744 6.66903 51.8235 6.31739C51.0725 5.96575 50.2552 5.78691 49.4292 5.79351H25.1675C24.2896 5.79702 23.4245 6.00752 22.6393 6.40862C21.8541 6.80972 21.1701 7.39059 20.6406 8.10601L14.937 15.8766C14.4014 16.5935 14.1147 17.4723 14.1223 18.3741V25.5904C14.1223 27.996 16.0239 29.846 18.287 29.846H21.0027C21.8175 32.7129 24.4433 34.8404 27.5211 34.8404C30.5989 34.8404 33.2247 32.7129 34.0394 29.8454H57.3048C58.1207 32.7129 60.7459 34.8404 63.8238 34.8404C66.9016 34.8404 69.5274 32.7129 70.3421 29.8454H73.6915C75.2304 29.8454 76.4079 28.5504 76.4079 27.0704V22.7216C76.5883 19.8541 74.5062 17.4491 71.7905 17.0791ZM20.7312 27.8104C20.7312 28.2729 20.7312 28.6429 20.8223 29.1054H18.287C16.386 29.1054 14.9376 27.6254 14.8471 25.6829H21.0939C20.8223 26.3304 20.7312 27.0704 20.7312 27.8104ZM33.5868 29.1054C33.5868 29.1979 33.4963 29.3829 33.4963 29.4754C33.4963 29.5679 33.4052 29.7529 33.4052 29.846C33.0036 31.0901 32.2265 32.1721 31.1855 32.9366C30.1444 33.7011 28.893 34.1088 27.611 34.101C26.329 34.1086 25.0777 33.7008 24.0368 32.9362C22.9958 32.1716 22.2189 31.0895 21.8175 29.8454C21.8175 29.7529 21.7263 29.5679 21.7263 29.4754C21.7263 29.3829 21.6358 29.1979 21.6358 29.1054C21.5453 28.6429 21.5453 28.2729 21.5453 27.8104C21.5453 27.0704 21.6352 26.3304 21.9074 25.6829C21.9074 25.5898 21.9979 25.4054 21.9979 25.3123C22.089 25.2198 22.089 25.0348 22.1789 24.9423C23.1747 22.9073 25.2568 21.5198 27.7015 21.5198C30.0552 21.5198 32.1372 22.9073 33.2241 24.9423C33.3146 25.0348 33.3146 25.2198 33.4052 25.3123C33.4951 25.4054 33.4957 25.5898 33.4957 25.6829C33.7673 26.3304 33.8578 27.0704 33.8578 27.8104C33.6767 28.2729 33.6767 28.6429 33.5862 29.1054H33.5868ZM57.125 27.8104C57.125 28.2729 57.125 28.6429 57.2149 29.1054H34.311C34.4015 28.6429 34.4015 28.2729 34.4015 27.8104C34.4015 27.0704 34.311 26.4229 34.13 25.6829H57.4871C57.2155 26.3304 57.125 27.0704 57.125 27.8104ZM69.98 29.1054C69.98 29.1979 69.8895 29.3829 69.8895 29.4754C69.8895 29.5679 69.799 29.7529 69.799 29.846C69.3974 31.0901 68.6203 32.1721 67.5793 32.9366C66.5382 33.7011 65.2868 34.1088 64.0048 34.101C62.7228 34.1088 61.4714 33.7011 60.4304 32.9364C59.3894 32.1718 58.6125 31.0896 58.2113 29.8454C58.2113 29.7529 58.1207 29.5679 58.1207 29.4754C58.1207 29.3829 58.0296 29.1979 58.0296 29.1054C57.9397 28.6429 57.9397 28.2729 57.9397 27.8104C57.9397 27.0704 58.0296 26.3304 58.3012 25.6829C58.3012 25.5898 58.3923 25.4054 58.3923 25.3123C58.4828 25.2198 58.4822 25.0348 58.5728 24.9423C59.5685 22.9073 61.6512 21.5198 64.096 21.5198C66.449 21.5198 68.5316 22.9073 69.6179 24.9423C69.7085 25.0348 69.7085 25.2198 69.799 25.3123C69.8889 25.4054 69.8895 25.5898 69.8895 25.6829C70.1611 26.3304 70.2516 27.0704 70.2516 27.8104C70.0706 28.2729 70.0706 28.6429 69.98 29.1054ZM75.8647 26.9779C75.8647 28.0879 74.9595 29.0123 73.8732 29.0123H70.7048C70.7948 28.5498 70.7948 28.1798 70.7948 27.7173C70.7948 26.9779 70.7042 26.3298 70.5226 25.5898H75.9552V26.9773L75.8647 26.9779ZM75.8647 24.9429H70.1611C69.0748 22.4448 66.7212 20.7804 63.9143 20.7804C61.108 20.7804 58.7538 22.5373 57.6681 24.9429H33.7679C32.681 22.4448 30.3273 20.7804 27.5211 20.7804C24.7148 20.7804 22.3612 22.5373 21.2743 24.9429H14.7566V22.5373H16.7481C16.9285 22.5373 17.1102 22.3529 17.1102 22.1673C17.1102 21.9816 16.9291 21.7973 16.7481 21.7973H14.7566V19.4848H16.7481C16.9285 19.4848 17.1102 19.2998 17.1102 19.1141C17.1102 18.9291 16.9291 18.7441 16.7481 18.7441H14.7566V18.2816C14.7566 17.5416 15.0281 16.801 15.3902 16.2466L21.0939 8.47601C21.9991 7.18101 23.4475 6.44101 25.0769 6.44101H49.3393C50.7877 6.44101 52.1455 7.08914 53.1413 8.19851L59.5685 15.8766C59.7502 16.1541 60.1117 16.3391 60.3832 16.3391L71.6095 17.7266C73.1484 17.9116 74.4163 18.8366 75.1405 20.1316H71.9722C71.7905 20.1316 71.6095 20.3166 71.6095 20.5023C71.6095 20.6873 71.7905 20.8723 71.9716 20.8723H75.502C75.6837 21.4273 75.7736 21.9823 75.7736 22.5373V24.9429H75.8647Z" fill="#111111" stroke="#111111" stroke-width="0.3"/>
<path d="M66.9921 25.3109C66.9016 25.2178 66.8117 25.0334 66.7205 24.9403C65.9963 24.2009 65.0012 23.7378 63.9143 23.7378C63.3921 23.7398 62.8755 23.847 62.3939 24.0534C61.9124 24.2597 61.4754 24.5611 61.108 24.9403C61.0175 25.0334 60.927 25.2178 60.8365 25.3109C60.7465 25.4034 60.6554 25.5884 60.5649 25.6809C60.2028 26.3291 59.9312 26.9759 59.9312 27.8084C59.9312 28.2709 60.0217 28.7334 60.2028 29.1034C60.2028 29.1966 60.2933 29.3809 60.2933 29.4741C60.3832 29.5666 60.3832 29.7516 60.4744 29.8441C61.1985 31.0466 62.3754 31.7866 63.8238 31.7866C65.2721 31.7866 66.5395 30.9541 67.1731 29.8441C67.2637 29.7516 67.2637 29.5666 67.3548 29.4741C67.4453 29.3809 67.4447 29.1966 67.4447 29.1034C67.6264 28.7334 67.7163 28.2709 67.7163 27.8084C67.7163 27.0684 67.5352 26.3291 67.0832 25.6809C67.1731 25.5884 67.0832 25.4959 66.9921 25.3109ZM66.9016 29.1034C66.8117 29.1966 66.8117 29.3809 66.7205 29.4741C66.63 29.5666 66.5395 29.7516 66.449 29.8441C66.1538 30.2461 65.7711 30.5725 65.3312 30.7973C64.8913 31.022 64.4061 31.1391 63.9143 31.1391C62.828 31.1391 62.0133 30.6766 61.3796 29.8441C61.2891 29.7516 61.1985 29.5666 61.108 29.4741C61.0181 29.3809 60.927 29.1966 60.927 29.1034C60.7459 28.7334 60.6548 28.2709 60.6548 27.8084C60.6548 26.9759 60.927 26.3291 61.3796 25.6809C61.4701 25.5884 61.5606 25.4034 61.7417 25.3109C61.9227 25.2178 62.0133 25.0334 62.1943 24.9403C62.6856 24.6362 63.2494 24.4762 63.8238 24.4778C64.3982 24.476 64.962 24.636 65.4532 24.9403C65.6342 25.0334 65.8159 25.1253 65.9058 25.3109C65.9963 25.4034 66.1774 25.4953 66.2679 25.6809C66.7205 26.2359 66.9921 26.9759 66.9921 27.8084C67.1732 28.2709 67.0832 28.6409 66.9016 29.1034ZM30.6894 25.3109C30.5983 25.2178 30.5084 25.0334 30.4178 24.9403C29.6937 24.2009 28.6979 23.7378 27.611 23.7378C27.0888 23.7398 26.5722 23.847 26.0906 24.0534C25.6091 24.2597 25.1721 24.5611 24.8047 24.9403C24.7142 25.0334 24.6237 25.2178 24.5332 25.3109C24.4426 25.4034 24.3521 25.5884 24.2616 25.6809C23.8995 26.3291 23.6279 26.9759 23.6279 27.8084C23.6279 28.2709 23.7184 28.7334 23.8995 29.1034C23.8995 29.1966 23.99 29.3809 23.99 29.4741C24.0805 29.5666 24.0805 29.7516 24.1711 29.8441C24.8953 31.0466 26.0721 31.7866 27.5205 31.7866C28.9688 31.7866 30.2362 30.9541 30.8699 29.8441C30.961 29.7516 30.961 29.5666 31.0509 29.4741C31.1414 29.3809 31.1414 29.1966 31.1414 29.1034C31.3225 28.7334 31.4136 28.2709 31.4136 27.8084C31.4136 27.0684 31.2326 26.3291 30.7799 25.6809C30.7799 25.5884 30.7799 25.4959 30.6894 25.3109ZM30.5084 29.1034C30.4178 29.1966 30.4178 29.3809 30.3273 29.4741C30.2374 29.5666 30.1463 29.7516 30.0558 29.8441C29.7606 30.2461 29.3779 30.5725 28.938 30.7973C28.4981 31.022 28.0129 31.1391 27.5211 31.1391C26.4348 31.1391 25.6201 30.6766 24.9864 29.8441C24.8959 29.7516 24.8053 29.5666 24.7148 29.4741C24.6237 29.3809 24.5338 29.1966 24.5338 29.1034C24.3527 28.7334 24.2622 28.2709 24.2622 27.8084C24.2622 26.9759 24.5338 26.3291 24.9864 25.6809C25.0769 25.5884 25.1674 25.4034 25.3485 25.3109C25.5301 25.2178 25.6201 25.0334 25.8011 24.9403C26.2925 24.636 26.8565 24.4759 27.4312 24.4778C28.0648 24.4778 28.6074 24.6628 29.0606 24.9403C29.2416 25.0334 29.4227 25.1253 29.5132 25.3109C29.6037 25.4034 29.7848 25.4953 29.8753 25.6809C30.3279 26.2359 30.5995 26.9759 30.5995 27.8084C30.7806 28.2709 30.6894 28.6409 30.5084 29.1034ZM45.8082 17.2634H43.9977C43.8167 17.2634 43.635 17.4478 43.635 17.6334C43.635 17.8184 43.8161 18.0034 43.9977 18.0034H45.8082C45.9892 18.0034 46.1703 17.8184 46.1703 17.6334C46.1703 17.4478 45.9899 17.2628 45.8082 17.2628V17.2634ZM33.2241 17.2634H31.4136C31.2332 17.2634 31.0515 17.4478 31.0515 17.6334C31.0515 17.8184 31.2326 18.0034 31.4136 18.0034H33.2241C33.4051 18.0034 33.5868 17.8184 33.5868 17.6334C33.5868 17.4478 33.4058 17.2628 33.2241 17.2628V17.2634ZM52.9596 9.30718C52.1443 8.19718 50.7864 7.54968 49.4286 7.54968H27.2483C25.7999 7.54968 24.5325 8.19781 23.6273 9.39968L19.8253 14.5809C19.5537 14.9509 19.5537 15.3203 19.7348 15.6903C19.9152 16.0609 20.2779 16.2459 20.64 16.2459H56.2185C56.6711 16.2459 57.0332 15.9684 57.2143 15.5978C57.3959 15.2278 57.3048 14.7653 57.1237 14.4878L52.9596 9.30718ZM20.8211 15.5978C20.64 15.5978 20.5495 15.5053 20.459 15.4128C20.3678 15.3209 20.3678 15.1353 20.459 15.0428L24.261 9.86218C24.9846 8.84468 26.0715 8.28968 27.2483 8.28968H29.964L28.1535 15.5978H20.8217H20.8211ZM28.9682 15.5978L30.7799 8.29031H41.282L42.1872 15.5984H28.9695L28.9682 15.5978ZM42.8203 15.5978L41.9144 8.29031H49.4286C49.7001 8.29031 49.9717 8.29031 50.1528 8.38281L52.8685 15.5984H42.8209L42.8203 15.5978ZM56.5806 15.4128C56.4901 15.5059 56.3995 15.5978 56.2185 15.5978H53.6838L51.0586 8.66031C51.5852 8.92443 52.0487 9.30333 52.4165 9.77031L56.4907 15.0428C56.5812 15.1353 56.6711 15.2278 56.5806 15.4128Z" fill="#111111" stroke="#111111" stroke-width="0.3"/>
</g>
<defs>
<clipPath id="clip0_3359_57348">
<rect width="63" height="30" fill="white" transform="translate(13.5106 5.46533)"/>
</clipPath>
</defs>
</svg>
