<svg width="91" height="41" viewBox="0 0 91 41" fill="none" xmlns="http://www.w3.org/2000/svg">
<g clip-path="url(#clip0_3359_57352)">
<path d="M76.6903 16.1316L57.3696 15.8078C55.9824 15.8078 54.7015 15.376 53.5276 14.5122L48.5103 10.7328C44.562 7.70971 39.6517 6.09033 34.6345 6.09033C30.2574 6.09033 25.8809 7.38596 22.1451 9.76158L15.7414 13.8647C15.5276 13.9722 15.3144 14.0803 15.1006 14.0803L12.2188 14.1885C10.9379 14.1885 9.87082 14.6197 9.0169 15.4841C8.16175 16.3478 7.62851 17.4278 7.62851 18.7228V22.6103C7.62851 27.1447 11.258 30.9235 15.8476 30.9235H16.7022C17.8762 33.4072 20.331 35.2422 23.2128 35.2422C26.0947 35.2422 28.6564 33.5153 29.7241 30.9235H60.8928C62.0668 33.4072 64.5216 35.2422 67.4041 35.2422C70.2859 35.2422 72.8476 33.5153 73.9147 30.9235H74.1285C78.6119 30.9235 82.3476 27.2528 82.3476 22.6097C82.7746 18.9385 80.1059 16.2397 76.6903 16.1316ZM16.5947 29.8441H16.0614C14.6791 29.8394 13.3259 29.4422 12.1558 28.6976C10.9857 27.9531 10.0459 26.8912 9.44324 25.6328H16.7022C16.4884 26.281 16.3821 27.0366 16.3821 27.7922C16.3821 28.4403 16.4884 29.0872 16.5953 29.8435L16.5947 29.8441ZM29.5103 29.8441C29.4041 30.1672 29.2972 30.3835 29.1903 30.7078C28.1226 32.7591 25.9884 34.1628 23.6398 34.1628C22.4751 34.1629 21.3326 33.8411 20.3355 33.2321C19.3385 32.6232 18.5248 31.7504 17.9824 30.7078C17.8762 30.4916 17.7686 30.1678 17.6624 29.8435C17.4486 29.196 17.2354 28.4403 17.2354 27.6847C17.2354 26.9285 17.3417 26.1722 17.6624 25.5253C17.7686 25.2016 17.8762 24.986 17.9824 24.6616C19.0501 22.6097 21.1849 21.206 23.5329 21.206C25.8809 21.206 28.0157 22.6097 29.0834 24.6616C29.1896 24.8772 29.2972 25.201 29.4034 25.5253C29.6172 26.1735 29.8304 26.9291 29.8304 27.6847C29.8304 28.4403 29.7241 29.0885 29.5103 29.8441ZM60.999 29.8441H30.3643C30.578 29.196 30.6843 28.4403 30.6843 27.6847C30.6843 26.9285 30.578 26.1722 30.3649 25.5253H60.9997C60.7859 26.1735 60.679 26.9291 60.679 27.6847C60.679 28.4403 60.7859 29.0885 60.999 29.8441ZM73.8084 29.8441C73.7016 30.1672 73.5947 30.3835 73.4878 30.7078C72.4207 32.7591 70.2853 34.1628 67.9373 34.1628C65.4824 34.1628 63.3476 32.7591 62.3868 30.7078C62.2805 30.4916 62.173 30.1678 62.0668 29.8435C61.8536 29.196 61.6398 28.4403 61.6398 27.6847C61.6398 26.9285 61.7461 26.1722 62.0668 25.5253C62.173 25.2016 62.2805 24.986 62.3868 24.6616C63.4545 22.6097 65.5893 21.206 67.9373 21.206C70.3928 21.206 72.4207 22.6097 73.4878 24.6616C73.5947 24.8772 73.7016 25.201 73.8084 25.5253C74.0216 26.1735 74.2354 26.9291 74.2354 27.6847C74.1285 28.4403 74.0216 29.0885 73.8084 29.8441ZM74.6617 29.736C74.8755 29.0885 74.9824 28.3322 74.9824 27.5766C74.9824 26.821 74.8755 26.0653 74.6617 25.4178H81.1736C79.9997 28.0085 77.5442 29.736 74.6617 29.736ZM74.3417 24.661C73.1677 22.1778 70.7128 20.3422 67.831 20.3422C64.9492 20.3422 62.3868 22.0697 61.3191 24.661H30.0442C28.8702 22.1778 26.4147 20.3422 23.5329 20.3422C20.6511 20.3422 18.0893 22.0697 17.0216 24.661H9.12379C8.90541 23.9999 8.79724 23.3067 8.80373 22.6097H10.9385C11.0492 22.6018 11.1533 22.5538 11.2318 22.4745C11.3102 22.3951 11.3577 22.2898 11.3655 22.1778C11.3576 22.0659 11.3101 21.9607 11.2316 21.8813C11.1532 21.802 11.0492 21.7539 10.9385 21.746H8.80249V19.046H10.9373C11.0479 19.0381 11.1519 18.9902 11.2304 18.911C11.3088 18.8317 11.3563 18.7265 11.3642 18.6147C11.3565 18.5027 11.309 18.3973 11.2306 18.3178C11.1522 18.2384 11.048 18.1902 10.9373 18.1822H8.90939C9.01628 17.3185 9.33696 16.4553 9.97709 15.8072C10.6178 15.1591 11.5787 14.8353 12.4326 14.8353H12.5389L15.4213 14.7278C15.7999 14.7213 16.1693 14.6093 16.489 14.4041L22.8922 10.301C26.5216 8.03346 30.6843 6.73846 34.8476 6.73846C39.6511 6.73846 44.347 8.35783 48.1903 11.1653L53.2075 14.9441C54.4884 15.9153 55.9818 16.3472 57.4771 16.456L76.7972 16.7797C78.7182 16.8872 80.3197 17.8591 81.1736 19.3703H77.0109C76.9 19.3779 76.7956 19.4259 76.717 19.5055C76.6384 19.585 76.5909 19.6906 76.5834 19.8028C76.5917 19.9146 76.6394 20.0197 76.7179 20.0988C76.7964 20.178 76.9004 20.226 77.0109 20.2341H81.6006C81.8144 20.8828 82.0269 21.5303 82.0269 22.286C82.0269 23.1503 81.9207 23.906 81.6006 24.661H74.3417Z" fill="#111111" stroke="#111111" stroke-width="0.29"/>
<path d="M70.7141 24.6622C69.967 23.906 69.0062 23.4747 67.8316 23.4747C66.657 23.4747 65.6968 23.906 64.9498 24.6622C64.736 24.8778 64.5228 25.2016 64.3091 25.526C63.8896 26.166 63.6666 26.9174 63.6683 27.6853C63.6683 28.441 63.8821 29.1966 64.3091 29.8447C64.5228 30.1678 64.736 30.3841 64.9498 30.7085C65.6968 31.4641 66.7645 31.896 67.8316 31.896C68.8987 31.896 69.967 31.4641 70.7141 30.7085C70.9272 30.4922 71.141 30.1685 71.3542 29.8441C71.6743 29.1966 71.9949 28.5485 71.9949 27.6853C71.9966 26.9174 71.7737 26.166 71.3542 25.526C71.141 25.2022 70.9272 24.986 70.7141 24.6622ZM70.2865 29.8447C69.967 30.1678 69.6464 30.4922 69.2194 30.7085C68.7918 30.9241 68.2586 31.1397 67.7247 31.1397C67.1915 31.1397 66.6576 31.0328 66.2307 30.7085C65.8043 30.4922 65.483 30.1685 65.1636 29.8441C64.6809 29.2303 64.4175 28.4696 64.416 27.6853C64.416 26.821 64.736 26.1728 65.1636 25.526C65.483 25.2022 65.8037 24.8778 66.2307 24.6622C66.657 24.446 67.1915 24.3385 67.7247 24.3385C68.2586 24.3385 68.6855 24.446 69.2194 24.6622C69.6464 24.8778 69.967 25.2016 70.2865 25.526C70.8203 26.0653 71.0335 26.8216 71.0335 27.6853C71.141 28.441 70.8203 29.1966 70.2865 29.8447ZM34.9558 17.966H32.821C32.7103 17.9739 32.6063 18.022 32.5278 18.1013C32.4494 18.1807 32.4019 18.2859 32.394 18.3978C32.4018 18.5098 32.4493 18.6151 32.5277 18.6945C32.6062 18.7738 32.7103 18.8218 32.821 18.8297H34.9558C35.0662 18.8217 35.1701 18.7737 35.2485 18.6945C35.3268 18.6153 35.3742 18.5102 35.3821 18.3985C35.3745 18.2865 35.3272 18.1811 35.2488 18.1016C35.1705 18.0222 35.0664 17.974 34.9558 17.966ZM26.416 24.6622C25.6683 23.906 24.7081 23.4747 23.5341 23.4747C22.4664 23.4747 21.3993 23.906 20.6523 24.6622C20.4391 24.8778 20.2254 25.2016 20.0116 25.526C19.5923 26.1661 19.3696 26.9174 19.3714 27.6853C19.3696 28.4532 19.5924 29.2045 20.0116 29.8447C20.2254 30.1678 20.4391 30.3841 20.6523 30.7085C21.4 31.4641 22.4671 31.896 23.5348 31.896C24.7087 31.896 25.6696 31.4641 26.4172 30.7085C26.6304 30.4922 26.8435 30.1685 27.0573 29.8441C27.3774 29.1966 27.6981 28.5485 27.6981 27.6853C27.6998 26.9174 27.4769 26.166 27.0573 25.526C26.8442 25.2022 26.631 24.986 26.4172 24.6622H26.416ZM25.989 29.8447C25.6689 30.1678 25.3483 30.4922 24.9213 30.7085C24.4943 30.9241 23.9605 31.1397 23.4272 31.1397C22.8934 31.1397 22.3595 31.0328 21.9332 30.7085C21.5056 30.4922 21.1856 30.1685 20.8655 29.8441C20.3828 29.2303 20.1194 28.4696 20.1178 27.6853C20.1178 26.821 20.4379 26.1728 20.8655 25.526C21.1856 25.2022 21.5056 24.8778 21.9332 24.6622C22.3595 24.446 22.8934 24.3385 23.4279 24.3385C23.9617 24.3385 24.3881 24.446 24.9219 24.6622C25.3483 24.8778 25.6689 25.2016 25.989 25.526C26.5229 26.0653 26.7366 26.8216 26.7366 27.6853C26.8429 28.441 26.5229 29.1966 25.989 29.8447ZM47.5501 12.3541C45.6297 10.7341 43.3881 9.65408 40.9326 8.89908C38.4771 8.14283 36.0229 7.9272 33.4605 8.14283L32.0727 8.25095C29.7247 8.46658 27.483 9.43845 25.6683 11.0578C24.8138 11.8141 24.6006 12.8935 24.9207 13.9735C25.242 15.0535 26.2022 15.701 27.2693 15.8091L50.2188 16.9966H50.3251C50.7526 16.9966 51.0727 16.781 51.1796 16.3485C51.2865 15.9172 51.1796 15.4847 50.8595 15.2691L47.5501 12.3541ZM27.4837 14.8372C26.5229 14.8372 25.989 14.1897 25.8821 13.5416C25.6689 13.0016 25.6689 12.1378 26.416 11.4897C27.4837 10.5185 28.7639 9.76283 30.1517 9.33095L31.1119 14.9453L27.4837 14.8372ZM50.4332 16.0247L31.8595 15.0535L30.7924 9.22283C31.2188 9.11533 31.7526 9.0072 32.1796 9.0072L33.5674 8.89908C34.1012 8.89908 34.6351 8.79158 35.1683 8.79158C37.0899 8.79158 38.9047 9.11533 40.7188 9.65533C43.0668 10.4116 45.2022 11.491 47.0163 13.0022L50.5382 15.8097V15.9172L50.4332 16.0247Z" fill="#111111" stroke="#111111" stroke-width="0.29"/>
</g>
<defs>
<clipPath id="clip0_3359_57352">
<rect width="76" height="30" fill="white" transform="translate(7.01062 5.46533)"/>
</clipPath>
</defs>
</svg>
