<svg width="90" height="40" viewBox="0 0 90 40" fill="none" xmlns="http://www.w3.org/2000/svg">
<path d="M37.6192 7.01685C32.8203 7.19263 27.916 7.8606 20.3223 9.38989L15.1543 10.427L12.6758 9.63599C7.73635 8.08911 6.99807 7.94849 6.52346 8.4231C6.13674 8.80982 6.17189 9.302 6.66408 9.95239C6.8926 10.2688 7.24416 10.8489 7.4551 11.2532L7.82424 11.9915L5.99611 16.2629C4.92385 18.759 4.11525 20.9036 4.04494 21.4309C3.93947 22.1165 4.00978 22.5735 4.36135 23.6282C5.09963 25.8254 6.18947 28.1985 6.71682 28.7434C7.54299 29.6223 8.42189 29.9387 11.9375 30.6418C14.0293 31.0637 15.6289 31.4856 16.1914 31.7668C18.0723 32.6985 20.5684 32.6633 22.4844 31.6965L23.5215 31.1692H45.2656H67.0098L68.0469 31.6965C70.0684 32.6985 72.5293 32.6985 74.5156 31.6965L75.5528 31.1692H80.1758C84.5879 31.1692 84.834 31.1516 85.168 30.8176C85.3614 30.6243 85.5196 30.3958 85.5196 30.3254C85.5196 30.2375 85.2383 29.6223 84.8867 28.9719L84.2539 27.759L85.1504 26.9329C86.0293 26.0891 86.0469 26.0715 85.9414 25.2454C85.4668 21.2903 83.1641 18.2317 79.2793 16.386C75.3418 14.5227 70.3496 13.8372 62.8438 14.1184L59.416 14.259L57.2188 12.9407C49.8535 8.56372 44 6.80591 37.6192 7.01685ZM44.6504 9.24927C48.5528 10.2512 53 12.22 56.7793 14.6282L58.5371 15.7532L65.041 15.7708C71.7735 15.8059 72.6348 15.8762 75.4649 16.6672C76.4317 16.9485 76.4844 16.9836 76.959 18.0208C77.5918 19.3567 79.877 21.7649 81.1602 22.468C81.8106 22.8196 82.3379 22.9778 82.918 22.9778C83.8145 22.9778 83.8496 23.0305 84.166 24.4192L84.2364 24.7883L82.6367 24.384C80.6153 23.8567 79.9649 23.8567 79.7188 24.3137C79.5781 24.5598 79.5781 24.7708 79.7188 25.0168C79.8946 25.3508 80.2813 25.4915 82.2324 25.9133C83.2871 26.1418 83.3926 26.2473 82.9531 26.5989C82.3555 27.1086 82.3203 27.4426 82.7774 28.4797C83.0235 29.0071 83.2344 29.4817 83.2344 29.5168C83.2344 29.552 81.8457 29.5872 80.1582 29.5872H77.0821L77.6446 28.4797C78.2071 27.425 78.2246 27.302 78.2246 25.3684C78.2246 23.4875 78.1895 23.2766 77.7149 22.2922C77.0469 20.9563 75.711 19.6028 74.375 18.9524C73.0039 18.2844 70.6133 18.1262 69.084 18.6008C67.1328 19.2161 65.2696 20.9739 64.6719 22.7668C64.4434 23.4875 64.3379 23.593 64.0215 23.5227C63.2481 23.3645 57.0957 22.5559 56.5508 22.5559C55.8828 22.5559 55.5137 23.0657 55.8125 23.593C56.0235 24.0149 56.1817 24.0676 58.2735 24.3313C59.1875 24.4368 59.9785 24.5598 60.0137 24.595C60.0488 24.6301 59.7852 25.0344 59.416 25.4915C59.0469 25.9661 58.7129 26.3528 58.6953 26.3879C58.6778 26.4055 53.5625 26.1946 47.3223 25.8958C41.0821 25.6145 35.6328 25.3684 35.2285 25.3684H34.4551L31.7832 22.134C30.3067 20.3586 29.0235 18.7063 28.9004 18.4602C28.584 17.7571 28.8477 17.1946 29.9551 16.2805L30.9746 15.4192L34.209 15.8235C38.2696 16.3157 44.6504 16.6497 47.6563 16.4915L49.959 16.3684L50.416 16.8254C51.084 17.4934 52.1563 17.4583 52.8067 16.7903C53.211 16.3508 53.4219 16.2629 54.5293 16.1926C55.8653 16.0872 56.3399 15.8762 56.3399 15.3489C56.3399 14.8743 55.6895 14.4348 52.8418 12.9934C49.6602 11.3938 47.5684 10.5676 44.9317 9.8645C40.8184 8.79224 34.7891 9.00318 26.9141 10.5501C24.2774 11.0598 23.4863 11.429 23.2754 12.2376C23.0996 12.8879 23.3985 13.8899 23.8731 14.1887C24.084 14.3293 25.209 14.5754 26.3692 14.7512C27.5293 14.9094 28.5137 15.0852 28.5488 15.1204C28.6016 15.1555 28.4258 15.4016 28.1621 15.6653C27.2129 16.6497 26.9317 17.9856 27.4238 19.1458C27.793 20.0598 33.4356 26.7571 33.8926 26.8625C34.2969 26.9329 57.6406 28.0051 58.8887 28.0051C59.5742 28.0051 59.6446 27.9524 60.8047 26.4231C61.877 25.0168 62.0703 24.8411 62.4746 24.9114C62.7207 24.9641 63.2129 25.0344 63.5645 25.1047C64.1973 25.1926 64.1973 25.2102 64.3028 26.2473C64.3555 26.8801 64.6016 27.759 64.9356 28.4446L65.4629 29.5872H45.2656H25.086L25.6309 28.4797C26.1582 27.4426 26.1934 27.2844 26.1934 25.3684C26.1934 23.4875 26.1582 23.2766 25.6836 22.2922C24.9981 20.9036 23.75 19.6731 22.2735 18.9875C21.166 18.4602 20.9727 18.425 19.1621 18.425C17.4395 18.425 17.1231 18.4778 16.2617 18.8821C14.3457 19.7786 12.9746 21.4309 12.4473 23.47C12.1133 24.8059 12.166 24.7708 10.5488 24.4719C9.65236 24.3137 9.23049 24.0852 7.6133 22.8547C6.57619 22.0637 5.71486 21.3254 5.71486 21.2375C5.71486 20.9915 9.05471 13.2043 9.26564 12.9231C9.37111 12.8176 9.81057 12.7122 10.2324 12.7122C11.4981 12.7122 14.3809 12.2376 19.8828 11.1126C25.7188 9.93482 29.3926 9.31958 32.1699 9.03833C33.2422 8.93286 34.3496 8.80982 34.6309 8.77466C34.9297 8.7395 36.8985 8.72193 39.0254 8.75708C42.5059 8.79224 43.0684 8.84497 44.6504 9.24927ZM11.0586 10.9895C11.0059 11.0598 10.584 11.1301 10.1094 11.1301C9.33596 11.1301 9.21291 11.0774 8.98439 10.6379L8.72072 10.1282L9.93361 10.4797C10.6016 10.6907 11.1113 10.9016 11.0586 10.9895ZM43.4551 11.1477C45.2656 11.5344 47.5332 12.2727 49.1153 12.9934C50.1524 13.4504 50.1875 13.4856 50.1875 14.1184V14.7864L47.6914 14.9094C44.8262 15.05 38.6211 14.7688 35.0879 14.3293L32.7324 14.0305L32.293 12.7297C31.7832 11.2004 31.7832 11.218 33.5586 11.0247C38.0762 10.5676 40.8535 10.6028 43.4551 11.1477ZM30.6055 12.7649C30.7637 13.2395 30.8516 13.6438 30.7988 13.6965C30.711 13.802 25.0508 12.9407 24.9102 12.8176C24.7344 12.6243 24.9981 12.5364 27.0899 12.1145C30.4473 11.429 30.1309 11.3762 30.6055 12.7649ZM51.9805 14.8391C51.8399 15.7004 51.6113 15.8235 51.5938 15.0325C51.5938 14.4875 51.6641 14.2942 51.8223 14.3469C51.9278 14.3821 51.9981 14.6106 51.9805 14.8391ZM81.1602 19.4797C82.0215 20.1477 82.9356 21.3254 82.6192 21.3254C82.0742 21.3254 80.1758 19.761 79.1387 18.4426L78.5762 17.7395L79.3672 18.2141C79.8067 18.4602 80.6153 19.0403 81.1602 19.4797ZM21.8516 20.5344C22.8887 21.0969 23.627 21.8528 24.2071 22.9602C24.541 23.5754 24.6113 23.9797 24.6113 25.3684C24.6113 26.7571 24.541 27.1614 24.2071 27.7766C23.627 28.884 22.9063 29.6399 21.8516 30.22C21.0078 30.677 20.7617 30.7297 19.25 30.7297C17.8613 30.7297 17.457 30.6594 16.8418 30.3254C14.9785 29.3411 13.9766 27.8293 13.836 25.8254C13.7481 24.3137 13.9766 23.3821 14.7324 22.2571C15.3125 21.3782 16.6133 20.3938 17.5625 20.095C17.8613 20.0071 18.7403 19.9543 19.5137 19.9719C20.6738 20.0247 21.0781 20.1125 21.8516 20.5344ZM73.8828 20.5344C74.9199 21.0969 75.6582 21.8528 76.2383 22.9602C76.5723 23.5754 76.6426 23.9797 76.6426 25.3684C76.6426 26.7571 76.5723 27.1614 76.2383 27.7766C75.6582 28.884 74.9375 29.6399 73.8828 30.22C73.0391 30.677 72.793 30.7297 71.2813 30.7297C69.8926 30.7297 69.4883 30.6594 68.8731 30.3254C67.0098 29.3411 66.0078 27.8293 65.8672 25.8254C65.7793 24.3137 66.0078 23.3821 66.7637 22.2571C67.3438 21.3782 68.6446 20.3938 69.5938 20.095C69.8926 20.0071 70.7715 19.9543 71.5449 19.9719C72.7051 20.0247 73.1094 20.1125 73.8828 20.5344ZM7.43752 24.718C8.80861 25.7727 8.93166 25.8254 10.6719 26.0715L12.1836 26.2825L12.3945 27.0735C12.5 27.5129 12.7461 28.1809 12.9395 28.55C13.1328 28.9368 13.2383 29.2356 13.1856 29.2356C13.1328 29.2356 12.2012 29.0422 11.0938 28.8137C8.8965 28.3391 8.14064 28.0227 7.73635 27.4075C7.49025 27.0208 6.24221 24.2258 6.24221 24.0325C6.24221 23.8567 6.50588 24.0149 7.43752 24.718Z" fill="#111111" stroke="white" stroke-width="0.5"/>
<path d="M33.3828 17.177C33.3301 17.3176 33.3125 17.6165 33.3476 17.845C33.4004 18.2317 33.4707 18.2493 34.7187 18.2493H36.0371V17.634V17.0188L34.7539 16.9661C33.7695 16.9309 33.4531 16.9661 33.3828 17.177Z" fill="#111111" stroke="white" stroke-width="0.5"/>
<path d="M53.123 17.0539C52.9297 17.2297 52.9824 18.1262 53.1758 18.2492C53.2812 18.3195 54.7578 18.6008 56.4804 18.882C60.5762 19.55 60.4531 19.5324 60.207 19.8313C60.1015 19.9543 60.0312 20.2883 60.0664 20.5695C60.1015 20.9738 60.207 21.0793 60.6465 21.1145C61.0683 21.1496 61.3672 20.9914 62.1933 20.2707C63.2129 19.3567 63.4062 18.8996 62.9316 18.5129C62.6679 18.2844 54.9336 16.9485 53.8613 16.9309C53.5097 16.9309 53.1758 16.9836 53.123 17.0539Z" fill="#111111" stroke="white" stroke-width="0.5"/>
<path d="M8.12304 18.4602C7.87694 18.6887 7.99999 19.55 8.3164 19.7082C8.4746 19.7961 9.08983 19.9367 9.66991 20.0071C10.25 20.0774 10.7773 20.1653 10.8476 20.218C10.9355 20.2532 10.8301 20.6047 10.6191 21.009C10.3906 21.4485 10.3027 21.8703 10.373 22.1516C10.4609 22.5032 10.5664 22.5735 11.041 22.5207C11.5332 22.468 11.6914 22.3274 12.2539 21.3254C13.0449 19.9016 13.1504 19.5324 12.8867 19.1633C12.5351 18.7063 8.4746 18.091 8.12304 18.4602Z" fill="#111111" stroke="white" stroke-width="0.5"/>
<path d="M26.6153 22.2747C26.4395 22.6438 26.5801 23.0305 27.8106 25.4036L29.1817 28.093L30.5352 28.1458C31.7481 28.1985 31.9063 28.1633 32.0821 27.8294C32.4161 27.1966 32.0294 26.7747 31.1153 26.7747H30.3243L29.4454 25.0169C28.9356 24.0149 28.6368 23.2239 28.7423 23.1712C29.0235 22.9954 28.9532 22.0813 28.6368 21.9583C28.4786 21.9055 28.004 21.8528 27.5821 21.8528C26.9317 21.8528 26.7735 21.9231 26.6153 22.2747Z" fill="#111111" stroke="white" stroke-width="0.5"/>
<path d="M17.5088 21.7108L17.5087 21.7108C16.0778 22.3687 15.2815 23.6795 15.2813 25.4027C15.2898 26.5931 15.6953 27.5727 16.3808 28.2541C17.0664 28.9356 18.0505 29.3372 19.25 29.3372C20.4588 29.3372 21.4467 28.9353 22.1318 28.2502C22.8169 27.5651 23.2188 26.5772 23.2188 25.3684C23.2188 23.6321 22.3397 22.27 20.8767 21.6618L20.8767 21.6618L20.8752 21.6611C20.4636 21.487 19.8307 21.3999 19.1794 21.4106C18.528 21.4213 17.9036 21.5291 17.5088 21.7108ZM20.7504 22.8693L20.7509 22.8696C23.2507 24.3887 22.1763 28.2551 19.25 28.2551C16.3237 28.2551 15.2493 24.3887 17.7491 22.8696L17.7496 22.8693C18.1754 22.6118 18.7195 22.4905 19.25 22.4905C19.7805 22.4905 20.3246 22.6118 20.7504 22.8693Z" fill="#111111" stroke="white" stroke-width="0.5"/>
<path d="M69.4355 21.4836C67.9062 22.1868 67.0625 23.593 67.0625 25.4036C67.0801 27.8997 68.7676 29.5872 71.2812 29.5872C73.8125 29.5872 75.5 27.8997 75.5 25.3684C75.5 23.5403 74.5684 22.0813 73.0039 21.4309C72.0898 21.0442 70.3145 21.0793 69.4355 21.4836ZM72.6523 23.0833C74.9375 24.4719 73.9531 28.0051 71.2812 28.0051C68.6094 28.0051 67.625 24.4719 69.9102 23.0833C70.666 22.6262 71.8965 22.6262 72.6523 23.0833Z" fill="#111111" stroke="white" stroke-width="0.5"/>
</svg>
