<svg width="26" height="10" viewBox="0 0 26 10" fill="none" xmlns="http://www.w3.org/2000/svg">
<path d="M21.3544 9.40438C21.3542 9.40438 21.3541 9.40438 21.354 9.40438C20.3315 9.40438 19.3583 9.05874 18.571 8.4233C17.8242 9.02532 16.9026 9.36957 15.9338 9.40196C15.8834 9.40373 15.8335 9.40438 15.7835 9.40438C15.7834 9.40438 15.7832 9.40438 15.7831 9.40438C14.7606 9.40438 13.7874 9.05874 13.0001 8.4233C12.2532 9.02532 11.3316 9.36957 10.3628 9.40196C10.3123 9.40373 10.2625 9.40438 10.2124 9.40438C10.2124 9.40438 10.2122 9.40438 10.2121 9.40438C9.18949 9.40438 8.21641 9.05874 7.42914 8.4233C6.68219 9.02532 5.76068 9.36957 4.79179 9.40196C4.74143 9.40373 4.69144 9.40438 4.64145 9.40438C4.64136 9.40438 4.64127 9.40438 4.64117 9.40438C2.23255 9.40429 0.283041 7.51743 0.202704 5.1089C0.12097 2.66015 2.04683 0.601451 4.49558 0.51981L4.51113 0.519531L4.79189 0.51981C5.7604 0.552113 6.68191 0.896455 7.42914 1.49847C8.1762 0.896455 9.09761 0.552113 10.0665 0.51981L10.082 0.519531L10.3628 0.51981C11.3313 0.552113 12.2529 0.896455 13.0001 1.49838C13.747 0.896362 14.6687 0.55202 15.6376 0.51981L15.653 0.519531L15.9337 0.51981C16.9022 0.552113 17.8239 0.896455 18.571 1.49847C19.318 0.896455 20.2397 0.55202 21.2086 0.51981L21.224 0.519531L21.5047 0.51981C23.8343 0.597448 25.72 2.48319 25.7977 4.81269C25.8792 7.26144 23.9535 9.32014 21.5048 9.40187C21.4542 9.40364 21.4044 9.40438 21.3544 9.40438ZM19.2338 7.7631C19.8419 8.22539 20.5801 8.4759 21.3541 8.4759C21.3542 8.4759 21.3542 8.4759 21.3544 8.4759C21.3941 8.4759 21.4338 8.47524 21.4736 8.47394C23.4109 8.40934 24.9342 6.78081 24.8696 4.84369C24.8082 3.00338 23.3205 1.51327 21.4812 1.44802H21.2319C20.5029 1.4738 19.8082 1.72301 19.2344 2.1583C19.8452 2.90814 20.194 3.83393 20.2266 4.81269C20.2624 5.88574 19.9047 6.93608 19.2338 7.7631ZM13.6629 7.7631C14.2708 8.22539 15.0091 8.4759 15.7831 8.4759C15.7833 8.4759 15.7833 8.4759 15.7834 8.4759C15.8232 8.4759 15.8629 8.47524 15.9026 8.47394C16.6344 8.44946 17.3319 8.20025 17.9077 7.76347C17.2968 7.01372 16.9481 6.08793 16.9155 5.1089C16.8797 4.03603 17.2375 2.98578 17.9083 2.15886C17.334 1.72319 16.6392 1.4739 15.9102 1.44802H15.661C14.9319 1.4738 14.2372 1.72301 13.6634 2.1583C14.2742 2.90814 14.623 3.83393 14.6556 4.81269C14.6914 5.88574 14.3337 6.93608 13.6629 7.7631ZM8.09186 7.7631C8.69983 8.22539 9.43804 8.4759 10.2122 8.4759C10.2122 8.4759 10.2124 8.4759 10.2125 8.4759C10.2522 8.4759 10.2918 8.47524 10.3318 8.47394C11.0635 8.44946 11.761 8.20025 12.3368 7.76347C11.7259 7.01372 11.3772 6.08793 11.3446 5.1089C11.3089 4.03603 11.6665 2.98578 12.3373 2.15876C11.7632 1.72319 11.0682 1.4739 10.3393 1.44811H10.09C9.36106 1.4739 8.66632 1.7231 8.09242 2.15839C8.70328 2.90824 9.05209 3.83402 9.08476 4.81278C9.12051 5.88574 8.76267 6.93608 8.09186 7.7631ZM4.51904 1.44811C2.58554 1.51653 1.06612 3.14338 1.13063 5.07809C1.19421 6.98328 2.73617 8.47571 4.64127 8.4759H4.64145C4.6812 8.4759 4.72086 8.47524 4.76079 8.47394C5.49249 8.44946 6.19002 8.20025 6.76578 7.76347C6.15492 7.01372 5.8062 6.08793 5.77353 5.1089C5.73787 4.03603 6.09562 2.98578 6.76634 2.15876C6.19225 1.72319 5.49723 1.4739 4.76833 1.44811H4.51904ZM18.5716 2.81692C18.0779 3.45943 17.8164 4.26047 17.8436 5.07818C17.8683 5.82114 18.1233 6.52537 18.5707 7.10495C19.0644 6.46244 19.3259 5.6613 19.2988 4.84369C19.274 4.10091 19.0189 3.39668 18.5716 2.81692ZM7.42961 2.81682C6.93586 3.45933 6.67437 4.26038 6.70164 5.07809C6.7264 5.82104 6.98138 6.52527 7.42868 7.10486C7.92243 6.46235 8.18402 5.6613 8.15683 4.84359C8.13207 4.10091 7.8771 3.39659 7.42961 2.81682ZM13.0006 2.81682C12.5069 3.45933 12.2453 4.26038 12.2726 5.07809C12.2974 5.82104 12.5523 6.52527 12.9996 7.10486C13.4933 6.46235 13.7549 5.66121 13.7278 4.84359C13.703 4.10091 13.448 3.39659 13.0006 2.81682Z" fill="black"/>
</svg>
