<svg width="26" height="10" viewBox="0 0 26 10" fill="none" xmlns="http://www.w3.org/2000/svg">
<path fill-rule="evenodd" clip-rule="evenodd" d="M13.0043 9.88293C20.0708 9.88293 25.8002 7.71987 25.8002 5.04518C25.8002 2.37049 20.0708 0.199219 13.0043 0.199219C5.92957 0.199219 0.200195 2.37049 0.200195 5.04518C0.200195 7.72001 5.92957 9.88293 13.0043 9.88293Z" fill="#425E99"/>
<path fill-rule="evenodd" clip-rule="evenodd" d="M13.0045 9.38869C6.21865 9.38869 0.704102 7.45688 0.704102 5.0463C0.704102 2.64407 6.21865 0.6875 13.0045 0.6875C19.807 0.6875 25.3132 2.64407 25.3132 5.0463C25.3132 7.45688 19.807 9.38869 13.0045 9.38869Z" fill="white"/>
<path fill-rule="evenodd" clip-rule="evenodd" d="M13.0042 9.05032C19.5837 9.05032 24.9247 7.2589 24.9247 5.04631C24.9247 2.8422 19.5837 1.05078 13.0042 1.05078C6.41653 1.05078 1.0918 2.8422 1.0918 5.04631C1.09193 7.2589 6.41653 9.05032 13.0042 9.05032Z" fill="#425E99"/>
<path fill-rule="evenodd" clip-rule="evenodd" d="M16.1255 5.84411C16.6868 5.3158 17.0003 4.76272 17.8095 4.77093C18.2965 4.77914 18.4202 5.1672 18.5027 5.33235L19.5677 3.53273H20.2198L18.4533 6.66155C18.4202 6.7275 18.3376 6.85134 18.3459 6.9504C18.3627 7.10721 18.5607 7.06603 18.4864 7.06603C18.8414 7.04947 19.4934 6.37256 19.6503 6.20754C19.6832 6.16608 19.7412 6.09191 19.774 6.09191C19.8072 6.09191 19.8732 6.12489 19.8732 6.17442C19.8732 6.20754 19.7989 6.33123 19.7412 6.40553C19.4109 6.81836 18.8661 7.45395 18.247 7.4705C17.9416 7.4705 17.8258 7.34667 17.7846 7.10735C17.6444 7.23105 17.1654 7.44574 16.6784 7.44574C16.2738 7.43753 16.1087 7.19807 16.0263 7.00828C15.952 6.85147 15.9189 6.62036 15.9766 6.38925C15.7537 6.50487 15.5474 6.52129 15.2502 6.51308C14.9033 6.50474 14.6886 6.34793 14.5814 5.94331C14.1852 6.66989 14.1685 6.69452 13.7641 7.45408H13.0625L13.9623 5.92689C14.078 5.72041 14.1358 5.55539 14.1768 5.38216C14.2017 5.28296 14.1274 5.1921 14.02 5.18403C13.9045 5.18403 13.7149 5.29965 13.533 5.47288C13.533 5.47288 13.0708 5.96822 12.7323 6.47176C12.4102 6.95068 11.8572 7.49541 11.2546 7.49541C10.817 7.49541 10.4207 7.25609 10.3382 6.79373C10.3382 6.79373 10.2969 6.90101 9.90883 7.12391C9.87585 7.14033 9.79334 7.18986 9.76871 7.17344C9.69427 7.10749 9.65309 7.02484 9.64474 6.96696C9.66951 6.97531 9.71904 6.93398 9.87585 6.81015C10.1813 6.57904 10.2474 6.39719 10.2474 6.39719C10.3215 6.24038 10.4538 5.99271 10.5446 5.81934C10.7924 5.32401 11.2215 4.82046 11.9232 4.79569C12.0388 4.79569 12.0718 4.84523 12.0965 4.88655C12.1625 4.93609 12.1379 5.03515 12.1379 5.03515C11.6425 5.10945 11.3041 5.39831 11.0976 5.67909C10.9739 5.86067 10.8418 6.15787 10.817 6.37242C10.7675 6.74392 10.9408 6.99145 11.1967 7.04933C11.6755 7.12363 12.0718 6.7769 12.3855 6.24038C12.4682 6.09999 12.5259 5.73669 12.5259 5.53856C12.5259 5.34043 12.4185 5.13408 12.336 5.05143C12.336 4.91118 12.4267 4.82032 12.534 4.82032C12.567 4.82032 12.6001 4.82032 12.6331 4.8533C12.7982 5.01846 12.8891 5.33222 12.8891 5.57154C12.8891 5.65418 12.8891 5.73669 12.8725 5.81934C13.2193 5.39831 13.6567 4.85344 13.9954 4.74616C14.0613 4.71318 14.1274 4.71318 14.1934 4.71318C14.8126 4.69663 14.7301 5.25805 14.7301 5.25805C15.0601 4.87834 15.2913 4.73795 15.5968 4.75437C15.9271 4.77093 16.0426 5.00218 16.0426 5.18375C16.0342 5.39831 15.8777 5.64597 15.6054 5.65418C15.3656 5.65418 15.2254 5.53856 15.1511 5.32401C14.9943 5.38189 14.9201 5.48916 14.887 5.70372C14.8373 5.97615 15.0438 6.19084 15.3079 6.19084C15.7621 6.19098 15.9603 5.99271 16.1255 5.84411ZM16.6207 2.28618C16.6207 2.5504 15.696 3.05395 14.9116 3.05395C13.69 3.05395 12.4186 2.46776 11.8327 2.33571C11.197 2.18711 10.6191 2.06328 10.165 2.06328C8.57168 2.06328 7.86165 2.74854 7.89476 3.37592C7.91132 3.63179 8.11753 3.79695 8.42308 3.73907C8.7534 3.68133 9.21563 3.36757 9.33125 3.09514C9.35602 3.03739 9.42211 3.02905 9.44688 3.0456C9.49641 3.08693 9.47985 3.14467 9.47985 3.14467C9.43853 3.46664 8.94319 4.35824 8.08469 4.35824C7.60591 4.35824 7.28394 3.91244 7.29215 3.47485C7.30036 2.65754 8.13422 1.83203 10.1897 1.83203C10.5777 1.83203 11.0153 1.86501 11.4942 1.94766C12.0471 2.04672 13.4257 2.27783 14.5485 2.29439C14.9614 2.29439 15.4898 2.31095 15.919 2.24486C16.373 2.17056 16.274 2.154 16.4557 2.154C16.6207 2.154 16.6207 2.22009 16.6207 2.28618Z" fill="white"/>
<path fill-rule="evenodd" clip-rule="evenodd" d="M17.842 5.15919C17.5529 5.12621 17.1896 5.37388 16.8925 5.73718C16.7439 5.91876 16.5871 6.2655 16.5622 6.47184C16.5293 6.67833 16.5871 6.88467 16.6614 6.94242C16.7357 7.00016 17.066 7.17353 17.5778 6.65356C17.8666 6.36456 18.1473 5.89399 18.1473 5.89399L18.0564 5.86909C18.2298 5.54725 18.1966 5.20038 17.842 5.15919Z" fill="#425E99"/>
<path fill-rule="evenodd" clip-rule="evenodd" d="M11.8074 4.18505C11.8074 4.27591 11.9311 4.35021 12.0385 4.35856C12.0137 4.44928 12.0219 4.4906 11.9807 4.48239C11.7331 4.48239 11.634 4.24293 11.634 4.24293C11.3039 4.30067 10.982 4.342 10.3297 4.40809C8.68687 7.06636 8.17511 7.50396 7.16788 7.50396C6.44964 7.50396 5.81404 7.03339 5.79749 6.19131C5.78914 5.67955 6.20197 5.05203 6.96974 4.8621C7.0606 4.8621 7.09358 4.89522 7.09358 4.94475C7.09358 4.97787 7.0606 5.01905 6.98616 5.05203C6.76326 5.13468 6.37534 5.57214 6.37534 5.97675C6.37534 6.28217 6.56526 6.6207 6.88709 6.69486C6.97795 6.71976 7.0606 6.71142 7.14311 6.71142C7.94386 6.71142 8.84368 5.8116 9.8178 4.4412C9.66099 4.44941 8.99228 4.52385 8.82712 4.71364C8.75296 4.77138 8.70342 4.73841 8.68687 4.67232C8.68687 4.65576 8.71163 4.59801 8.73654 4.5649C9.00063 4.2677 9.79317 4.20174 9.98296 4.17698C10.726 3.0377 11.6835 2.32766 11.8817 2.33601C11.9146 2.33601 11.9891 2.38554 11.956 2.46806C11.9476 2.48461 11.8651 2.57533 11.8323 2.6001C11.6671 2.7487 11.1057 3.112 10.4949 4.14386C10.9902 4.1191 11.568 4.02003 11.568 4.02003C11.568 4.02003 11.5351 3.91275 11.5351 3.82189C11.5598 3.46694 11.7662 3.25225 12.0304 3.29358C12.1791 3.31834 12.2781 3.44218 12.2781 3.57422C12.2781 3.71461 12.1708 3.92096 12.0634 4.02003C11.9889 4.07764 11.9063 4.13552 11.8074 4.18505Z" fill="white"/>
<path fill-rule="evenodd" clip-rule="evenodd" d="M11.7663 4.00571C11.7663 4.00571 11.8489 4.01406 11.9726 3.87365C12.0222 3.82412 12.1048 3.6755 12.0883 3.57642C12.0799 3.52689 12.0553 3.46914 11.9975 3.47735C11.8736 3.50225 11.7993 3.56 11.7663 3.68385C11.7251 3.81591 11.7416 3.90677 11.7663 4.00571Z" fill="#425E99"/>
</svg>
