<svg width="26" height="7" viewBox="0 0 26 7" fill="none" xmlns="http://www.w3.org/2000/svg">
<g clip-path="url(#clip0_5121_51926)">
<path d="M25.8002 0.629116V4.03777C25.8002 4.32475 25.6538 4.5883 25.4078 4.73472L23.1998 6.08764C23.1588 6.11107 23.1119 6.08178 23.1119 6.03493V2.11674C23.1119 2.06989 23.0592 2.0406 23.0241 2.06989L17.1439 5.89437C17.0384 5.96465 16.9155 5.99979 16.7925 5.99979H12.8918C12.6341 5.99979 12.4233 5.78894 12.4233 5.53125V0.687684C12.4233 0.64083 12.3706 0.611546 12.3355 0.634973L8.42312 2.99526C8.38798 3.01283 8.38798 3.05968 8.41141 3.08897L11.2461 5.91779C11.2754 5.94708 11.2519 5.99979 11.2109 5.99979H8.58711C8.44655 5.99979 8.31184 5.94708 8.21228 5.84751L6.53723 4.17833C6.51966 4.16076 6.49038 4.1549 6.46695 4.17247L3.57956 5.91779C3.49171 5.9705 3.38629 5.99979 3.28086 5.99979H0.668738C0.41104 5.99979 0.200195 5.78894 0.200195 5.53125V2.16945C0.200195 1.88247 0.352472 1.61306 0.598457 1.46664L2.82403 0.125433C2.86503 0.102006 2.91189 0.13129 2.91189 0.178144V4.63516C2.91189 4.68201 2.9646 4.7113 2.99974 4.68787L10.3617 0.242568C10.4496 0.189857 10.555 0.160573 10.6604 0.160573H14.5845C14.8422 0.160573 15.053 0.371418 15.053 0.629116V5.43168C15.053 5.47853 15.1057 5.50782 15.1409 5.47854L23.2466 0.254282C23.3403 0.195714 23.4516 0.160573 23.5629 0.160573H25.3258C25.5894 0.160573 25.8002 0.365561 25.8002 0.629116Z" fill="#C72128"/>
</g>
<defs>
<clipPath id="clip0_5121_51926">
<rect width="25.6" height="5.97392" fill="white" transform="translate(0.200195 0.121094)"/>
</clipPath>
</defs>
</svg>
