<svg width="26" height="17" viewBox="0 0 26 17" fill="none" xmlns="http://www.w3.org/2000/svg">
<g opacity="0.8">
<path fill-rule="evenodd" clip-rule="evenodd" d="M13.0002 16.0182C5.94237 16.0182 0.200195 12.4252 0.200195 8.00906C0.200195 3.59254 5.94227 0 13.0001 0C20.0579 0 25.8001 3.59254 25.8002 8.00906C25.8002 12.4252 20.0579 16.0182 13.0002 16.0182ZM13.0002 0.393476C6.1587 0.393476 0.592983 3.80995 0.592983 8.00906C0.592983 12.2091 6.1587 15.6253 13.0002 15.6254C19.8415 15.6254 25.4074 12.209 25.4074 8.00906C25.4074 3.80995 19.8415 0.393476 13.0002 0.393476Z" fill="black"/>
<path fill-rule="evenodd" clip-rule="evenodd" d="M6.24795 3.47942C6.61884 2.43333 8.79479 1.63931 11.7906 1.45636L12.4088 1.41797L11.9255 1.80526C11.0725 2.48802 10.4107 3.93407 10.1093 5.77301L10.0767 5.96725L9.88222 5.93543C8.04564 5.62208 6.75504 5.03791 6.33927 4.32951C6.24029 4.16081 6.1904 3.98435 6.1904 3.80789C6.19071 3.69592 6.21018 3.58483 6.24795 3.47942ZM6.5828 3.80926C6.5828 3.91512 6.61432 4.02255 6.67834 4.13145C7.01585 4.70679 8.16377 5.21545 9.76026 5.51083C10.0414 3.95882 10.5803 2.68137 11.2811 1.88863C8.82435 2.11379 6.90115 2.81178 6.61805 3.61091C6.59429 3.67729 6.5828 3.74249 6.5828 3.80926ZM11.2428 5.89056L11.2044 6.10423L11.4212 6.12073C11.9351 6.15913 12.4665 6.17985 12.9996 6.17985C13.5332 6.17985 14.0648 6.15913 14.5789 6.12073L14.7952 6.10423L14.7567 5.89056C14.4613 4.23122 13.8039 3.24002 12.9999 3.24002C12.1953 3.24002 11.5382 4.23122 11.2428 5.89056ZM14.3246 5.741C14.0572 4.45599 13.5497 3.63281 13 3.63281C12.4504 3.63281 11.9421 4.45599 11.6755 5.741C12.1097 5.76938 12.5527 5.78706 12.9996 5.78706C13.4471 5.78706 13.8898 5.76938 14.3246 5.741ZM14.0741 1.80546C14.9268 2.48823 15.5892 3.93447 15.8907 5.77322L15.9229 5.96745L16.117 5.93563C17.9544 5.62229 19.2457 5.03792 19.66 4.32962C19.8211 4.05742 19.8518 3.76341 19.7521 3.47972C19.3813 2.43373 17.2053 1.6397 14.2097 1.45657L13.5922 1.41817L14.0741 1.80546ZM19.3811 3.61091C19.0988 2.81305 17.1757 2.11379 14.7196 1.88863C15.4204 2.68147 15.9586 3.95892 16.2397 5.51083C17.8354 5.21545 18.9837 4.70669 19.3224 4.13145C19.385 4.02255 19.4172 3.91512 19.4172 3.80926C19.4172 3.74249 19.4057 3.67729 19.3811 3.61091ZM4.35235 4.25036C3.00597 5.37816 2.29443 6.71796 2.29443 8.12562C2.29443 11.437 6.3323 14.236 11.6863 14.6349L12.2843 14.6798L11.829 14.2908C10.656 13.2873 9.92759 10.9065 9.92759 8.07691L9.93987 7.40838L9.77568 7.375C6.95949 6.87026 4.95597 5.68611 4.67071 4.36005L4.60246 4.0417L4.35235 4.25036ZM4.38191 4.75402C3.2764 5.76015 2.68761 6.91858 2.68761 8.12562C2.68761 11.1201 6.30618 13.6683 11.1846 14.1888C10.1578 12.9663 9.53519 10.7005 9.53519 8.07692C9.53519 8.07692 9.53824 7.88288 9.54168 7.72949C6.82142 7.21013 4.89695 6.09392 4.38191 4.75402ZM11.0829 7.77172L11.0817 7.84301C11.0817 10.4731 11.9064 12.4574 13 12.4574C14.0932 12.4574 14.918 10.4731 14.918 7.84301L14.9153 7.55922L14.7044 7.57729C14.1482 7.62599 13.5755 7.65015 13.0002 7.65015C12.4248 7.65015 11.8514 7.62599 11.2967 7.57729L11.0849 7.55814L11.0829 7.77172ZM13 12.0649C13.7223 12.0649 14.4933 10.4297 14.5228 7.98255C14.0227 8.01937 13.5141 8.04235 13 8.04235C12.4867 8.04235 11.9766 8.01937 11.4771 7.98255C11.5059 10.4297 12.277 12.0649 13 12.0649ZM21.3286 4.36006C21.0436 5.68611 19.0397 6.87017 16.2244 7.375L16.0594 7.40564L16.0725 8.07682C16.0725 10.9064 15.3437 13.2874 14.1711 14.2907L13.7157 14.6797L14.313 14.6348C19.6675 14.2359 23.7054 11.4369 23.7054 8.12552C23.7054 6.71787 22.9931 5.37807 21.6467 4.25027L21.3974 4.0416L21.3286 4.36006ZM23.3128 8.12562C23.3128 6.91858 22.7237 5.76015 21.6174 4.75402C21.1022 6.09382 19.1779 7.21013 16.4585 7.72949C16.4611 7.88278 16.465 8.07692 16.465 8.07692C16.465 10.7005 15.8424 12.9663 14.8156 14.1888C19.6945 13.6683 23.3128 11.1201 23.3128 8.12562Z" fill="black"/>
<path d="M21.4681 3.35015C21.4862 3.40004 21.5027 3.4509 21.5156 3.50207C21.5897 3.79626 21.5744 4.08516 21.4784 4.36669C22.7558 5.42005 23.5087 6.7192 23.5087 8.12686C23.5087 11.6404 18.8037 14.4892 13.0003 14.4892C7.19643 14.4892 2.4918 11.6404 2.4918 8.12686C2.4918 6.72038 3.24556 5.42015 4.52134 4.36669C4.42619 4.08516 4.41087 3.79626 4.48491 3.50207C4.50023 3.44624 4.52065 3.39194 4.54589 3.33984C2.80289 4.58164 1.74609 6.20907 1.74609 7.99144C1.74609 11.8832 6.78439 15.0378 13.0002 15.0378C19.2152 15.0378 24.2543 11.8832 24.2543 7.99144C24.2545 6.2128 23.2019 4.58911 21.4681 3.35015Z" fill="url(#paint0_linear_5121_51605)"/>
<path fill-rule="evenodd" clip-rule="evenodd" d="M13.0002 1.19141C16.6606 1.19141 19.9172 2.1503 20.3122 3.45603C20.6548 4.58873 18.7817 5.63709 15.8296 6.05285L16.0853 5.74049C18.4749 5.33405 19.8941 4.46717 19.5669 3.54539C19.1703 2.42653 16.2859 1.61601 12.9999 1.61601C9.7137 1.61601 6.83005 2.42633 6.43303 3.54539C6.10545 4.46707 7.52538 5.33395 9.91432 5.74049L10.1709 6.05285C7.21773 5.63709 5.34589 4.58873 5.6888 3.45603C6.08385 2.1505 9.34036 1.19141 13.0002 1.19141ZM12.9998 5.98234C13.5449 5.98234 14.0677 5.96202 14.5637 5.9248L14.8896 6.16027C14.2912 6.21242 13.6597 6.24197 13.0001 6.24197C12.3405 6.24197 11.709 6.21242 11.1109 6.16027L11.4351 5.9248H11.4367C11.9327 5.96202 12.4551 5.98234 12.9998 5.98234Z" fill="url(#paint1_linear_5121_51605)"/>
<path d="M11.4407 5.92539C11.7149 4.40137 12.3099 3.44895 12.9999 3.44895C13.6908 3.44895 14.2852 4.40137 14.5599 5.92539H14.5654L14.8862 6.15821C14.6154 4.14556 13.8736 2.85938 13.0004 2.85938C12.1267 2.85938 11.3852 4.14556 11.1147 6.15821L11.4355 5.92539H11.4407Z" fill="url(#paint2_linear_5121_51605)"/>
<path d="M14.9833 7.29688L14.721 7.77136C14.721 7.80593 14.7225 7.84148 14.7225 7.87751C14.7225 10.4037 13.95 12.3192 13 12.3192C12.049 12.3192 11.2781 10.4035 11.2781 7.87751C11.2781 7.83765 11.2789 7.79807 11.2796 7.75987L11.0169 7.29688C11.0091 7.48944 11.0053 7.68214 11.0054 7.87486C11.0054 10.739 11.8984 12.9085 13.0003 12.9085C14.1023 12.9085 14.9961 10.739 14.9961 7.87486C14.9957 7.68213 14.9915 7.48943 14.9833 7.29688V7.29688Z" fill="url(#paint3_linear_5121_51605)"/>
<path d="M10.175 6.05423C10.5524 3.25679 11.6744 1.19141 13.0001 1.19141C11.5789 1.19141 10.3675 3.02121 9.91797 5.74618L10.1711 6.05423H10.175Z" fill="url(#paint4_linear_5121_51605)"/>
<path d="M15.8255 6.05423H15.8282L16.0813 5.74618C15.6326 3.02121 14.4204 1.19141 13 1.19141C14.3257 1.1916 15.4484 3.25679 15.8255 6.05423Z" fill="url(#paint5_linear_5121_51605)"/>
<path d="M16.2577 7.56833L15.9355 7.18359H15.9329C15.9509 7.48928 15.9612 7.79998 15.9612 8.11558C15.9612 11.9388 14.6352 15.038 13 15.038C14.8334 15.038 16.2681 12.1636 16.2681 8.11558C16.2681 7.93038 16.2643 7.74872 16.2577 7.56833Z" fill="url(#paint6_linear_5121_51605)"/>
<path d="M10.0398 8.11558C10.0398 7.79998 10.0501 7.48928 10.0678 7.18359H10.0656L9.74264 7.56715C9.73579 7.74988 9.73223 7.93272 9.73193 8.11558C9.73193 12.1636 11.1677 15.038 13.0004 15.038C11.3658 15.038 10.0398 11.9387 10.0398 8.11558Z" fill="url(#paint7_linear_5121_51605)"/>
<path fill-rule="evenodd" clip-rule="evenodd" d="M4.48504 3.50207C4.411 3.79626 4.42632 4.08516 4.52148 4.36669C4.03314 4.7694 3.62199 5.20903 3.2998 5.67585C3.41209 4.93362 3.70737 4.231 4.15903 3.63139C4.28601 3.53156 4.41504 3.43436 4.54602 3.33984C4.52078 3.39194 4.50037 3.44624 4.48504 3.50207ZM22.7009 5.67585C22.3787 5.20902 21.9668 4.76949 21.4785 4.36668C21.5744 4.08515 21.5897 3.79636 21.5154 3.50225C21.5026 3.45109 21.4861 3.40023 21.468 3.35034C21.595 3.44068 21.7196 3.53439 21.8417 3.63138C22.294 4.23061 22.5894 4.9334 22.7009 5.67585Z" fill="#2D2F34"/>
<path fill-rule="evenodd" clip-rule="evenodd" d="M13.0001 0.195312C6.03889 0.195312 0.396484 3.69349 0.396484 8.00768C0.396484 12.3229 6.03889 15.8196 13.0001 15.8197C19.9603 15.8197 25.6028 12.3228 25.6028 8.00768C25.6028 3.69349 19.9603 0.195312 13.0001 0.195312ZM24.2541 7.98842C24.2541 11.8802 19.2151 15.0348 13 15.0348C6.78422 15.0348 1.74552 11.8802 1.74552 7.98842C1.74552 4.09648 6.78412 0.940618 13 0.940618C19.2151 0.940618 24.2541 4.09628 24.2541 7.98842Z" fill="url(#paint8_linear_5121_51605)"/>
<path fill-rule="evenodd" clip-rule="evenodd" d="M13 1.19141C11.3656 1.19141 10.0396 4.33077 10.0396 8.11382C10.0396 11.9369 11.3648 15.0362 13 15.0362C14.6352 15.0362 15.9613 11.937 15.9613 8.11382C15.9613 4.33077 14.6352 1.19141 13 1.19141ZM14.9959 7.87715C14.9959 10.7401 14.1021 12.9097 13 12.9097C11.898 12.9097 11.005 10.7401 11.005 7.87715C11.005 4.906 11.898 2.85888 13 2.85888C14.102 2.85888 14.9959 4.906 14.9959 7.87715Z" fill="url(#paint9_linear_5121_51605)"/>
<path fill-rule="evenodd" clip-rule="evenodd" d="M13.0003 0.34375C8.73834 0.34375 4.80986 2.21558 4.48503 3.50167C3.9691 5.54231 7.7549 7.3889 13.0003 7.3889C18.2448 7.3889 22.0308 5.54221 21.5157 3.50167C21.0554 1.6812 17.2619 0.34375 13.0003 0.34375ZM5.68892 3.45719C6.08397 2.15166 9.34048 1.19257 13.0003 1.19257C16.6609 1.19257 19.9173 2.15147 20.3123 3.45719C20.7546 4.91964 17.5048 6.24315 13.0003 6.24315C8.49667 6.24315 5.24625 4.91984 5.68892 3.45719Z" fill="url(#paint10_linear_5121_51605)"/>
<path fill-rule="evenodd" clip-rule="evenodd" d="M9.74067 7.56783C6.49751 6.98463 4.36379 5.554 4.44048 3.94141C4.50873 5.40052 6.74988 6.69319 10.0656 7.18024L10.0648 7.18142L9.74067 7.56783ZM21.5601 3.94141C21.4925 5.40042 19.2498 6.69309 15.9347 7.18024L15.9358 7.18142L16.2592 7.56783C19.5029 6.98473 21.6369 5.55243 21.5601 3.94141ZM11.0129 7.29386L11.0152 7.29543L11.2856 7.77217C11.836 7.81921 12.4084 7.84612 13.0002 7.84612C13.5948 7.84612 14.1686 7.81931 14.7226 7.771L14.9858 7.29523L14.9873 7.29366C14.3545 7.35385 13.6908 7.38724 13.0004 7.38724C12.3368 7.38762 11.6736 7.35646 11.0129 7.29386Z" fill="url(#paint11_linear_5121_51605)"/>
</g>
<defs>
<linearGradient id="paint0_linear_5121_51605" x1="21.5645" y1="14.1674" x2="21.5645" y2="5.26529" gradientUnits="userSpaceOnUse">
<stop stop-color="#F0F3F5"/>
<stop offset="0.056" stop-color="#E2E5E8"/>
<stop offset="0.138" stop-color="#D4D8DD"/>
<stop offset="0.242" stop-color="#CCD0D6"/>
<stop offset="0.44" stop-color="#CACED4"/>
<stop offset="0.568" stop-color="#B3B7BD"/>
<stop offset="0.835" stop-color="#797C83"/>
<stop offset="1" stop-color="#52545C"/>
</linearGradient>
<linearGradient id="paint1_linear_5121_51605" x1="20.0224" y1="7.38303" x2="20.0224" y2="2.55919" gradientUnits="userSpaceOnUse">
<stop stop-color="#F0F3F5"/>
<stop offset="0.056" stop-color="#E2E5E8"/>
<stop offset="0.138" stop-color="#D4D8DD"/>
<stop offset="0.242" stop-color="#CCD0D6"/>
<stop offset="0.44" stop-color="#CACED4"/>
<stop offset="0.568" stop-color="#B3B7BD"/>
<stop offset="0.835" stop-color="#797C83"/>
<stop offset="1" stop-color="#52545C"/>
</linearGradient>
<linearGradient id="paint2_linear_5121_51605" x1="16.0466" y1="5.17972" x2="13.421" y2="2.30002" gradientUnits="userSpaceOnUse">
<stop stop-color="#F0F3F5"/>
<stop offset="0.056" stop-color="#E2E5E8"/>
<stop offset="0.138" stop-color="#D4D8DD"/>
<stop offset="0.242" stop-color="#CCD0D6"/>
<stop offset="0.44" stop-color="#CACED4"/>
<stop offset="0.568" stop-color="#B3B7BD"/>
<stop offset="0.835" stop-color="#797C83"/>
<stop offset="1" stop-color="#52545C"/>
</linearGradient>
<linearGradient id="paint3_linear_5121_51605" x1="15.8098" y1="7.61179" x2="11.0805" y2="6.23093" gradientUnits="userSpaceOnUse">
<stop stop-color="#F0F3F5"/>
<stop offset="0.056" stop-color="#E2E5E8"/>
<stop offset="0.138" stop-color="#D4D8DD"/>
<stop offset="0.242" stop-color="#CCD0D6"/>
<stop offset="0.44" stop-color="#CACED4"/>
<stop offset="0.568" stop-color="#B3B7BD"/>
<stop offset="0.835" stop-color="#797C83"/>
<stop offset="1" stop-color="#52545C"/>
</linearGradient>
<linearGradient id="paint4_linear_5121_51605" x1="9.03439" y1="0.196276" x2="9.03439" y2="7.8474" gradientUnits="userSpaceOnUse">
<stop stop-color="#F0F3F5"/>
<stop offset="0.056" stop-color="#E2E5E8"/>
<stop offset="0.138" stop-color="#D4D8DD"/>
<stop offset="0.242" stop-color="#CCD0D6"/>
<stop offset="0.44" stop-color="#CACED4"/>
<stop offset="0.568" stop-color="#B3B7BD"/>
<stop offset="0.835" stop-color="#797C83"/>
<stop offset="1" stop-color="#52545C"/>
</linearGradient>
<linearGradient id="paint5_linear_5121_51605" x1="12.1166" y1="0.196276" x2="12.1166" y2="7.8474" gradientUnits="userSpaceOnUse">
<stop stop-color="#F0F3F5"/>
<stop offset="0.056" stop-color="#E2E5E8"/>
<stop offset="0.138" stop-color="#D4D8DD"/>
<stop offset="0.242" stop-color="#CCD0D6"/>
<stop offset="0.44" stop-color="#CACED4"/>
<stop offset="0.568" stop-color="#B3B7BD"/>
<stop offset="0.835" stop-color="#797C83"/>
<stop offset="1" stop-color="#52545C"/>
</linearGradient>
<linearGradient id="paint6_linear_5121_51605" x1="11.9775" y1="0.133628" x2="11.9775" y2="12.9026" gradientUnits="userSpaceOnUse">
<stop stop-color="#F0F3F5"/>
<stop offset="0.056" stop-color="#E2E5E8"/>
<stop offset="0.138" stop-color="#D4D8DD"/>
<stop offset="0.242" stop-color="#CCD0D6"/>
<stop offset="0.44" stop-color="#CACED4"/>
<stop offset="0.568" stop-color="#B3B7BD"/>
<stop offset="0.835" stop-color="#797C83"/>
<stop offset="1" stop-color="#52545C"/>
</linearGradient>
<linearGradient id="paint7_linear_5121_51605" x1="8.70932" y1="0.133531" x2="8.70932" y2="12.9025" gradientUnits="userSpaceOnUse">
<stop stop-color="#F0F3F5"/>
<stop offset="0.056" stop-color="#E2E5E8"/>
<stop offset="0.138" stop-color="#D4D8DD"/>
<stop offset="0.242" stop-color="#CCD0D6"/>
<stop offset="0.44" stop-color="#CACED4"/>
<stop offset="0.568" stop-color="#B3B7BD"/>
<stop offset="0.835" stop-color="#797C83"/>
<stop offset="1" stop-color="#52545C"/>
</linearGradient>
<linearGradient id="paint8_linear_5121_51605" x1="0.396436" y1="0.195312" x2="0.396436" y2="15.8197" gradientUnits="userSpaceOnUse">
<stop stop-color="#F0F3F5"/>
<stop offset="0.253" stop-color="#EDF0F3"/>
<stop offset="0.406" stop-color="#E5E8EA"/>
<stop offset="0.531" stop-color="#D7DADC"/>
<stop offset="0.642" stop-color="#C3C5C9"/>
<stop offset="0.744" stop-color="#A9ABAF"/>
<stop offset="0.839" stop-color="#888B90"/>
<stop offset="0.926" stop-color="#63656B"/>
<stop offset="1" stop-color="#3D3F46"/>
</linearGradient>
<linearGradient id="paint9_linear_5121_51605" x1="9.65872" y1="0.195982" x2="9.65872" y2="15.8213" gradientUnits="userSpaceOnUse">
<stop stop-color="#F0F3F5"/>
<stop offset="0.253" stop-color="#EDF0F3"/>
<stop offset="0.406" stop-color="#E5E8EA"/>
<stop offset="0.531" stop-color="#D7DADC"/>
<stop offset="0.642" stop-color="#C3C5C9"/>
<stop offset="0.744" stop-color="#A9ABAF"/>
<stop offset="0.839" stop-color="#888B90"/>
<stop offset="0.926" stop-color="#63656B"/>
<stop offset="1" stop-color="#3D3F46"/>
</linearGradient>
<linearGradient id="paint10_linear_5121_51605" x1="-5.98938" y1="0.198811" x2="-5.98938" y2="15.8237" gradientUnits="userSpaceOnUse">
<stop stop-color="#F0F3F5"/>
<stop offset="0.253" stop-color="#EDF0F3"/>
<stop offset="0.406" stop-color="#E5E8EA"/>
<stop offset="0.531" stop-color="#D7DADC"/>
<stop offset="0.642" stop-color="#C3C5C9"/>
<stop offset="0.744" stop-color="#A9ABAF"/>
<stop offset="0.839" stop-color="#888B90"/>
<stop offset="0.926" stop-color="#63656B"/>
<stop offset="1" stop-color="#3D3F46"/>
</linearGradient>
<linearGradient id="paint11_linear_5121_51605" x1="3.2362" y1="3.43697" x2="3.2362" y2="7.89001" gradientUnits="userSpaceOnUse">
<stop stop-color="#CACED4"/>
<stop offset="1" stop-color="#52545C"/>
</linearGradient>
</defs>
</svg>
