<svg width="199" height="29" viewBox="0 0 199 29" fill="none" xmlns="http://www.w3.org/2000/svg">
<path d="M38.8105 24.0206V6.81133H43.9546C45.6849 6.81133 47.158 7.06853 48.3738 7.58294C49.5897 8.09734 50.564 8.78322 51.2966 9.64057C52.0448 10.4979 52.5904 11.4566 52.9334 12.5166C53.2763 13.5766 53.4478 14.6443 53.4478 15.7199C53.4478 16.9981 53.2139 18.1517 52.7463 19.1805C52.2942 20.1937 51.6707 21.0666 50.8757 21.7993C50.0807 22.5163 49.161 23.0697 48.1166 23.4594C47.0722 23.8335 45.9655 24.0206 44.7964 24.0206H38.8105ZM42.201 20.7471H44.2118C45.0692 20.7471 45.8486 20.638 46.55 20.4197C47.2515 20.1859 47.8516 19.8508 48.3505 19.4143C48.8649 18.9778 49.2546 18.4322 49.5196 17.7775C49.8002 17.1073 49.9404 16.3434 49.9404 15.4861C49.9404 14.3638 49.7534 13.4519 49.3793 12.7504C49.0207 12.0333 48.5687 11.48 48.0231 11.0903C47.4931 10.7006 46.9475 10.4356 46.3864 10.2953C45.8252 10.1394 45.3498 10.0614 44.96 10.0614H42.201V20.7471Z" fill="#FFA633"/>
<path d="M60.8946 6.81133C61.9702 6.81133 62.9289 6.95162 63.7706 7.2322C64.6124 7.4972 65.3138 7.8869 65.875 8.40131C66.4518 8.90013 66.8882 9.50807 67.1844 10.2251C67.4806 10.9266 67.6287 11.7216 67.6287 12.6101C67.6287 13.3116 67.5196 14.013 67.3013 14.7145C67.0987 15.416 66.7557 16.0551 66.2725 16.6318C65.8049 17.2086 65.1813 17.6762 64.4019 18.0347C63.6225 18.3777 62.6561 18.5492 61.5025 18.5492H59.0708V24.0206H55.6804V6.81133H60.8946ZM61.4792 15.2757C61.9936 15.2757 62.4222 15.1899 62.7652 15.0185C63.1081 14.847 63.3731 14.6288 63.5602 14.3638C63.7628 14.0988 63.9031 13.826 63.9811 13.5454C64.0746 13.2492 64.1213 12.9764 64.1213 12.727C64.1213 12.5399 64.0902 12.3061 64.0278 12.0255C63.9811 11.7294 63.8719 11.4332 63.7005 11.137C63.529 10.8408 63.264 10.5914 62.9055 10.3888C62.5625 10.1861 62.0949 10.0848 61.5025 10.0848H59.0708V15.2757H61.4792ZM64.6591 17.3801L68.9147 24.0206H64.9631L60.614 17.4736L64.6591 17.3801Z" fill="#FFA633"/>
<path d="M70.5408 6.81133H82.2787V10.0848H73.9313V13.7558H81.32V17.0293H73.9313V20.7471H82.606V24.0206H70.5408V6.81133Z" fill="#FFA633"/>
<path d="M83.0039 24.0206L90.7668 6.13325H90.9538L98.7167 24.0206H94.7885L89.8315 11.441L92.2866 9.75748L86.3475 24.0206H83.0039ZM88.3116 17.8009H93.4791L94.6716 20.6535H87.2594L88.3116 17.8009Z" fill="#FFA633"/>
<path d="M100.056 24.0206V6.10986H100.08L109.643 19.6715L108.193 19.3441L117.733 6.10986H117.78V24.0206H114.389V13.7558L114.6 15.5095L108.778 23.7868H108.731L102.745 15.5095L103.33 13.8961V24.0206H100.056Z" fill="#FFA633"/>
<path d="M130.248 10.9733C129.594 10.6148 128.923 10.3186 128.237 10.0848C127.567 9.851 126.936 9.73409 126.343 9.73409C125.611 9.73409 125.034 9.88218 124.613 10.1784C124.192 10.4745 123.982 10.9188 123.982 11.5111C123.982 11.9164 124.138 12.2827 124.449 12.6101C124.777 12.9219 125.19 13.2024 125.689 13.4519C126.203 13.7013 126.733 13.9273 127.279 14.1299C127.778 14.317 128.269 14.543 128.752 14.808C129.251 15.0574 129.695 15.377 130.085 15.7667C130.474 16.1408 130.786 16.6162 131.02 17.193C131.254 17.7542 131.371 18.4478 131.371 19.274C131.371 20.1469 131.145 20.9575 130.692 21.7057C130.24 22.454 129.578 23.0619 128.705 23.5296C127.832 23.9816 126.756 24.2076 125.478 24.2076C124.824 24.2076 124.153 24.1453 123.467 24.0206C122.797 23.8803 122.135 23.6776 121.48 23.4126C120.825 23.1321 120.194 22.7813 119.586 22.3604L121.082 19.7183C121.488 20.0144 121.924 20.2794 122.392 20.5133C122.875 20.7315 123.358 20.903 123.842 21.0277C124.325 21.1524 124.769 21.2147 125.174 21.2147C125.58 21.2147 125.985 21.1602 126.39 21.051C126.811 20.9263 127.154 20.7237 127.419 20.4431C127.7 20.1625 127.84 19.7728 127.84 19.274C127.84 18.9311 127.723 18.6193 127.489 18.3387C127.271 18.0581 126.967 17.8009 126.577 17.5671C126.203 17.3333 125.79 17.1306 125.338 16.9592C124.808 16.7565 124.262 16.5227 123.701 16.2577C123.14 15.9927 122.61 15.6732 122.111 15.299C121.628 14.9093 121.231 14.4339 120.919 13.8727C120.623 13.296 120.474 12.5945 120.474 11.7683C120.474 10.7707 120.693 9.90556 121.129 9.17292C121.581 8.44028 122.213 7.86352 123.023 7.44264C123.834 7.00618 124.769 6.76456 125.829 6.7178C127.216 6.7178 128.339 6.88147 129.196 7.20882C130.069 7.53617 130.848 7.92588 131.534 8.37793L130.248 10.9733Z" fill="#FFA633"/>
<path d="M144.777 6.01793C145.852 6.01793 146.811 6.15822 147.653 6.4388C148.494 6.7038 149.196 7.0935 149.757 7.60791C150.334 8.10673 150.77 8.71467 151.067 9.43172C151.363 10.1332 151.511 10.9282 151.511 11.8167C151.511 12.5182 151.402 13.2196 151.183 13.9211C150.981 14.6226 150.638 15.2617 150.155 15.8384C149.687 16.4152 149.063 16.8828 148.284 17.2414C147.505 17.5843 146.538 17.7558 145.385 17.7558H142.953V23.2272H139.562V6.01793H144.777ZM145.361 14.4823C145.876 14.4823 146.304 14.3965 146.647 14.2251C146.99 14.0536 147.255 13.8354 147.442 13.5704C147.645 13.3054 147.785 13.0326 147.863 12.752C147.957 12.4558 148.003 12.183 148.003 11.9336C148.003 11.7465 147.972 11.5127 147.91 11.2321C147.863 10.936 147.754 10.6398 147.583 10.3436C147.411 10.0474 147.146 9.79804 146.788 9.59539C146.445 9.39275 145.977 9.29142 145.385 9.29142H142.953V14.4823H145.361ZM148.541 16.5867L152.797 23.2272H148.845L144.496 16.6802L148.541 16.5867Z" fill="white"/>
<path d="M154.423 6.01793H166.161V9.29142H157.813V12.9624H165.202V16.2359H157.813V19.9537H166.488V23.2272H154.423V6.01793Z" fill="white"/>
<path d="M184.236 23.9286L171.188 12.144L172.194 12.7052L172.264 23.2272H168.827V5.33984H168.967L181.734 17.0777L180.985 16.7503L180.915 6.01793H184.329V23.9286H184.236Z" fill="white"/>
<path d="M186.423 6.01793H198.02V9.29142H193.835V23.2272H190.444V9.29142H186.423V6.01793Z" fill="white"/>
<path d="M0 23.1143V26.7877C0 27.9917 0.976026 28.9677 2.18002 28.9677C3.384 28.9677 4.36003 27.9917 4.36003 26.7877V25.6542H4.22913C2.52037 25.4537 0.98001 24.5286 0 23.1143Z" fill="white"/>
<path d="M24.1004 25.643H23.9805V26.7875C23.9805 27.9915 24.9565 28.9675 26.1605 28.9675C27.3645 28.9675 28.3405 27.9915 28.3405 26.7875V23.125C28.1412 23.4097 27.9169 23.6761 27.6702 23.9208C26.7098 24.8828 25.4512 25.4902 24.1004 25.643Z" fill="white"/>
<path d="M0.542969 12.5978C0.542969 11.998 1.02922 11.5117 1.62904 11.5117H3.76137V13.6839H1.62904C1.02922 13.6839 0.542969 13.1976 0.542969 12.5978Z" fill="white"/>
<path d="M24.5781 11.5117H26.7105C27.3103 11.5117 27.7965 11.998 27.7965 12.5978C27.7965 13.1976 27.3103 13.6839 26.7105 13.6839H24.5781V11.5117Z" fill="white"/>
<rect x="17.2676" y="14.8867" width="6.03346" height="7.31015" transform="rotate(-90 17.2676 14.8867)" fill="#D87A00"/>
<path d="M14.1701 0.0327148L3.76172 5.76475V8.89909H24.5785V5.76475L14.1701 0.0327148Z" fill="#FFA633"/>
<path d="M3.76172 5.65004L11.0719 1.69092V14.8867H3.76172V5.65004Z" fill="#FFC147"/>
<path d="M23.6297 14.6851H4.72779C3.46935 14.7411 2.28117 15.2806 1.41062 16.1914C0.540332 17.1021 0.0554015 18.3138 0.056643 19.5735C0.0571279 19.7551 0.0697372 19.9367 0.0947125 20.1166C0.221532 21.2141 0.716456 22.2364 1.49842 23.0165C2.28069 23.7968 3.30418 24.289 4.40186 24.4129C4.58177 24.4403 4.76315 24.4566 4.94501 24.4619H23.4124C23.594 24.4621 23.7754 24.4512 23.9555 24.4294C25.0559 24.3045 26.0811 23.8099 26.8636 23.0264C27.6461 22.2429 28.1393 21.217 28.2627 20.1166C28.2877 19.9367 28.3003 19.7551 28.3008 19.5735C28.302 18.3138 27.817 17.1021 26.9468 16.1913C26.0763 15.2806 24.8882 14.7411 23.6297 14.6851Z" fill="white"/>
<circle cx="4.95235" cy="19.5734" r="2.17306" fill="#FFA633"/>
<circle cx="23.4172" cy="19.5734" r="2.17306" fill="#FFA633"/>
<rect x="12.3848" y="10.0049" width="1.50187" height="1.50187" rx="0.750934" fill="#2F2F2F" fill-opacity="0.5"/>
<rect x="14.4531" y="10.0049" width="1.50187" height="1.50187" rx="0.750934" fill="#111111"/>
<rect x="12.3848" y="12.0732" width="1.50187" height="1.50187" rx="0.750934" fill="#111111"/>
<rect x="14.4531" y="12.0732" width="1.50187" height="1.50187" rx="0.750934" fill="#2F2F2F" fill-opacity="0.5"/>
</svg>
