<svg width="14" height="14" viewBox="0 0 14 14" fill="none" xmlns="http://www.w3.org/2000/svg">
<g clip-path="url(#clip0_6044_234204)">
<path d="M0.435547 9.43484C1.4246 12.1004 3.9904 14.0001 7.00015 14.0001C10.0099 14.0001 12.5757 12.1004 13.5648 9.43484L7.00015 8.82617L0.435547 9.43484Z" fill="#FFDA44"/>
<path d="M7.00015 0C3.9904 0 1.4246 1.89962 0.435547 4.56523L7.00015 5.1739L13.5648 4.5652C12.5757 1.89962 10.0099 0 7.00015 0Z" fill="black"/>
<path d="M0.435395 4.56445C0.154027 5.32278 0 6.14298 0 6.99922C0 7.85546 0.154027 8.67567 0.435395 9.43399H13.5646C13.846 8.67567 14 7.85546 14 6.99922C14 6.14298 13.846 5.32278 13.5646 4.56445H0.435395Z" fill="#D80027"/>
</g>
<defs>
<clipPath id="clip0_6044_234204">
<rect width="14" height="14" fill="white"/>
</clipPath>
</defs>
</svg>
